<svg width="48" height="48" viewBox="0 0 48 48" fill="none" xmlns="http://www.w3.org/2000/svg">
<path d="M16 39.7239H0.827625C0.370594 39.7239 0 39.3533 0 38.8963V9.10326C0 8.64623 0.370594 8.27563 0.827625 8.27563H16V39.7239Z" fill="#464655"/>
<path d="M32.0007 8.27599H16.0004V39.7244H32.0007V8.27599Z" fill="#FF4B55"/>
<path d="M47.1724 39.7239H32V8.27563H47.1724C47.6294 8.27563 48 8.64623 48 9.10326V38.8963C48 39.3534 47.6294 39.7239 47.1724 39.7239Z" fill="#73AF00"/>
<path d="M26.1594 25.6224H21.8398L22.0798 25.1424H25.9194L26.1594 25.6224Z" fill="white"/>
<path d="M26.1594 21.7826H21.8398L22.0798 22.2626H25.9194L26.1594 21.7826Z" fill="white"/>
<path d="M25.1997 22.0227H22.7999L23.2799 21.5428H24.7198L25.1997 22.0227Z" fill="white"/>
<path d="M22.7999 24.4225H22.08V24.9025H22.7999V24.4225Z" fill="white"/>
<path d="M22.7999 23.7025H22.08V24.1825H22.7999V23.7025Z" fill="white"/>
<path d="M22.7999 22.5025H22.08V22.9825H22.7999V22.5025Z" fill="white"/>
<path d="M22.7999 23.2225H22.08V23.4625H22.7999V23.2225Z" fill="white"/>
<path d="M25.9196 24.4225H25.1997V24.9025H25.9196V24.4225Z" fill="white"/>
<path d="M25.9196 23.7025H25.1997V24.1825H25.9196V23.7025Z" fill="white"/>
<path d="M25.9196 22.5025H25.1997V22.9825H25.9196V22.5025Z" fill="white"/>
<path d="M25.9196 23.2225H25.1997V23.4625H25.9196V23.2225Z" fill="white"/>
<path d="M22.7999 20.5825H22.3199V21.5424H22.7999V20.5825Z" fill="white"/>
<path d="M22.8 20.3428H22.32V20.1028C22.32 19.9702 22.4275 19.8628 22.56 19.8628C22.6926 19.8628 22.8 19.9702 22.8 20.1028V20.3428Z" fill="white"/>
<path d="M25.6797 20.5825H25.1997V21.5424H25.6797V20.5825Z" fill="white"/>
<path d="M25.6795 20.3428H25.1995V20.1028C25.1995 19.9702 25.3069 19.8628 25.4395 19.8628C25.5721 19.8628 25.6795 19.9702 25.6795 20.1028V20.3428Z" fill="white"/>
<path d="M23.9997 22.5027C23.4695 22.5027 23.0398 22.9324 23.0398 23.4626V24.9025H24.9596V23.4626C24.9596 22.9324 24.5299 22.5027 23.9997 22.5027Z" fill="white"/>
<path d="M22.4112 24.0144L21.1046 22.4901C21.113 22.4655 21.1203 22.4402 21.1203 22.4127C21.1203 22.2801 21.0128 22.1727 20.8803 22.1727C20.7477 22.1727 20.6403 22.2801 20.6403 22.4127C20.6403 22.5452 20.7477 22.6527 20.8803 22.6527C20.8947 22.6527 20.9073 22.6469 20.9209 22.6445L21.0561 22.8023L20.4003 24.3326L21.1202 25.0525L21.7418 23.6022L22.229 24.1706L22.4112 24.0144ZM21.2437 24.5157L20.6693 23.9413L20.9284 23.3365L21.5028 23.9109L21.2437 24.5157Z" fill="white"/>
<path d="M25.7766 24.1705L26.2638 23.6021L26.8855 25.0524L27.6054 24.3325L26.9495 22.8022L27.0847 22.6444C27.0985 22.6469 27.111 22.6526 27.1254 22.6526C27.258 22.6526 27.3654 22.5451 27.3654 22.4126C27.3654 22.28 27.258 22.1726 27.1254 22.1726C26.9928 22.1726 26.8854 22.28 26.8854 22.4126C26.8854 22.4401 26.8925 22.4655 26.9011 22.49L25.5945 24.0143L25.7766 24.1705ZM26.5027 23.911L27.0771 23.3366L27.3362 23.9413L26.7618 24.5158L26.5027 23.911Z" fill="white"/>
<path d="M24.2714 20.1446C24.196 20.1224 24.1287 20.0813 24.0861 20.0153C24.0577 19.9711 24.0288 19.921 23.9998 19.8629C23.9708 19.921 23.9418 19.9711 23.9134 20.0153C23.8708 20.0814 23.8036 20.1225 23.7282 20.1446C23.3306 20.2617 23.0399 20.6273 23.0399 21.0627C23.0399 21.1461 23.0539 21.2256 23.0738 21.3027H24.9257C24.9457 21.2256 24.9597 21.1461 24.9597 21.0627C24.9596 20.6273 24.669 20.2617 24.2714 20.1446Z" fill="white"/>
<path d="M18.5002 23.6743C18.488 23.5251 18.4801 23.3749 18.4801 23.2225C18.4801 22.9143 18.5081 22.6111 18.5576 22.3136C18.6268 22.3615 18.6992 22.4142 18.7745 22.4734C18.7394 22.7195 18.72 22.9694 18.72 23.2225C18.72 23.3999 18.7291 23.5753 18.7463 23.7483L19.2536 23.9006C19.2219 23.6784 19.1999 23.4532 19.1999 23.2225C19.1999 23.1078 19.2068 22.9944 19.2159 22.8815C19.4808 23.1753 19.6899 23.5302 19.6899 23.9225C19.6899 23.9325 20.4599 22.7826 19.06 21.5127L19.0499 22.0526L18.2437 22.0442C18.171 22.0434 18.1071 22.095 18.0944 22.1665C18.0331 22.5114 18.0001 22.8641 18.0001 23.2225C18.0001 23.3244 18.0029 23.4257 18.0078 23.5264L18.5002 23.6743Z" fill="white"/>
<path d="M20.6296 18.8528C20.7345 18.7719 20.7538 18.6212 20.6728 18.5162C20.5916 18.4112 20.441 18.3923 20.3361 18.4731C19.25 19.3119 18.5047 20.4642 18.1819 21.7551L18.6766 21.7614C18.9879 20.619 19.6614 19.6006 20.6296 18.8528Z" fill="white"/>
<path d="M20.3083 19.4513C19.7864 19.9624 19.3914 20.564 19.1226 21.2175C19.271 21.3394 19.3926 21.4626 19.4935 21.5851C19.7354 20.9189 20.1206 20.3072 20.6442 19.7944C20.7389 19.7016 20.7405 19.5497 20.6478 19.4552C20.5547 19.3602 20.403 19.3585 20.3083 19.4513Z" fill="white"/>
<path d="M19.4742 26.3688C19.1183 25.8581 18.8463 25.2855 18.6775 24.6704L18.9565 24.773C19.1308 25.3343 19.3952 25.8563 19.7339 26.3214L20.2636 26.2244C19.9645 25.8527 19.7187 25.4365 19.5392 24.9871L19.8523 25.1021C20.031 25.4945 20.2597 25.8552 20.5324 26.1753L21.0836 26.0743C20.8668 25.8531 20.6773 25.604 20.514 25.3353L20.1947 24.6967C20.096 24.4994 19.9204 24.3517 19.7092 24.2884L18.9538 24.0613L18.7791 24.0089L18.5277 23.9333L18.0275 23.783L17.7605 23.7027L17.9257 24.1985C17.962 24.3073 18.0354 24.3982 18.1308 24.4578C18.2836 25.183 18.5668 25.8605 18.9558 26.464L19.4742 26.3688Z" fill="white"/>
<path d="M28.9491 22.0526L28.9391 21.5127C27.5392 22.7826 28.3091 23.9325 28.3091 23.9225C28.3091 23.5302 28.5182 23.1753 28.7831 22.8815C28.7922 22.9944 28.7991 23.1079 28.7991 23.2225C28.7991 23.4533 28.7771 23.6785 28.7455 23.9006L29.2527 23.7483C29.2699 23.5753 29.279 23.4 29.279 23.2225C29.279 22.9693 29.2597 22.7194 29.2244 22.4734C29.2997 22.4143 29.3723 22.3615 29.4414 22.3136C29.491 22.611 29.5188 22.9144 29.5188 23.2225C29.5188 23.3748 29.5109 23.5251 29.4987 23.6743L29.991 23.5264C29.9961 23.4257 29.9987 23.3244 29.9987 23.2225C29.9987 22.8641 29.9656 22.5114 29.9044 22.1665C29.8916 22.0949 29.8277 22.0434 29.7551 22.0442L28.9491 22.0526Z" fill="white"/>
<path d="M29.3228 21.7615L29.8175 21.7551C29.4946 20.4643 28.7494 19.3119 27.6633 18.4731C27.5584 18.3922 27.4079 18.4113 27.3266 18.5163C27.2456 18.6213 27.2649 18.772 27.3698 18.8528C28.338 19.6006 29.0115 20.619 29.3228 21.7615Z" fill="white"/>
<path d="M28.8769 21.2175C28.608 20.564 28.2131 19.9624 27.6912 19.4513C27.5965 19.3585 27.4448 19.3602 27.3519 19.4551C27.2591 19.5497 27.2607 19.7016 27.3554 19.7943C27.879 20.3071 28.2643 20.9187 28.5061 21.5851C28.6069 21.4626 28.7284 21.3394 28.8769 21.2175Z" fill="white"/>
<path d="M29.972 23.7827L29.4718 23.933L29.2204 24.0086L29.0457 24.061L28.2903 24.2881C28.079 24.3515 27.9034 24.4992 27.8048 24.6964L27.4855 25.335C27.3223 25.6037 27.1326 25.8528 26.9159 26.074L27.467 26.175C27.7398 25.8549 27.9686 25.4943 28.1472 25.1018L28.4603 24.9868C28.2807 25.4362 28.0349 25.8525 27.7359 26.2241L28.2656 26.3211C28.6044 25.8559 28.8687 25.334 29.043 24.7727L29.322 24.6701C29.1531 25.2852 28.8812 25.8579 28.5253 26.3685L29.0436 26.4634C29.4327 25.8597 29.7158 25.1823 29.8686 24.4572C29.9641 24.3975 30.0375 24.3066 30.0738 24.1979L30.239 23.7021L29.972 23.7827Z" fill="white"/>
<path d="M26.5009 26.4359L26.4886 26.4469C25.7904 26.9858 24.9233 27.3021 24.0001 27.3021C23.0768 27.3021 22.2097 26.9858 21.5116 26.4469L21.4992 26.4359C21.4085 26.3363 21.2723 26.2916 21.1403 26.3183L18.7206 26.8222L19.2575 27.2928C19.4012 27.4187 19.5857 27.4774 19.7691 27.4666C20.2012 27.8969 20.6975 28.2627 21.2432 28.5468L21.086 28.837C21.9529 29.3083 22.9458 29.5764 24.0001 29.5764C25.0544 29.5764 26.0472 29.3083 26.9142 28.837L26.757 28.5468C27.3027 28.2627 27.7989 27.8968 28.231 27.4666C28.4145 27.4774 28.5991 27.4186 28.7427 27.2928L29.2796 26.8222L26.8599 26.3183C26.7278 26.2916 26.5915 26.3364 26.5009 26.4359ZM21.4725 28.1232C21.0375 27.8968 20.6392 27.611 20.2808 27.2822L20.5138 27.1711C20.8392 27.4591 21.1971 27.7113 21.5861 27.9132L21.4725 28.1232ZM27.7189 27.2824C27.3606 27.6111 26.9623 27.8968 26.5273 28.1233L26.4136 27.9134C26.8025 27.7116 27.1604 27.4594 27.4859 27.1714L27.7189 27.2824ZM23.9999 28.022C22.8569 28.022 21.8096 27.6164 20.985 26.9464L21.2244 26.8322C22.003 27.4319 22.9705 27.782 23.9997 27.782C25.0289 27.782 25.9965 27.4319 26.775 26.8322L27.0144 26.9464C26.1904 27.6166 25.1429 28.022 23.9999 28.022Z" fill="white"/>
<path d="M21.3665 26.0958C21.4696 26.183 21.5764 26.2655 21.6878 26.3421H26.3117C26.4231 26.2654 26.53 26.183 26.633 26.0958L26.3996 25.8623H21.6002L21.3665 26.0958Z" fill="white"/>
</svg>
