<svg width="48" height="48" viewBox="0 0 48 48" fill="none" xmlns="http://www.w3.org/2000/svg">
<path d="M47.1723 8.27585H0.827623C0.370593 8.27585 0 8.64644 0 9.10347V38.8964C0 39.3534 0.370593 39.724 0.827623 39.724H47.1724C47.6294 39.724 48 39.3534 48 38.8964V9.10347C47.9999 8.64644 47.6293 8.27585 47.1723 8.27585Z" fill="#464655"/>
<path d="M23.9997 9.93097L25.0492 15.4136L28.1168 10.75L26.9883 16.2169L31.6072 13.0821L28.4725 17.701L33.9394 16.5725L29.2756 19.6402L34.7583 20.6896L29.2756 21.739L33.9394 24.8067L28.4725 23.6782L31.6072 28.297L26.9883 25.1623L28.1168 30.6293L25.0492 25.9656L23.9997 31.4481L22.9503 25.9656L19.8825 30.6293L21.0112 25.1623L16.3922 28.297L19.527 23.6782L14.0601 24.8067L18.7238 21.739L13.2411 20.6896L18.7238 19.6402L14.0601 16.5725L19.527 17.701L16.3922 13.0821L21.0112 16.2169L19.8825 10.75L22.9503 15.4136L23.9997 9.93097Z" fill="#FFE15A"/>
<path d="M0 9.10439V38.8973C0 39.3544 0.370593 39.725 0.827623 39.725H24L0.215437 8.55923C0.0853123 8.70539 0 8.89326 0 9.10439Z" fill="#FF4B55"/>
<path d="M23.9998 39.724H47.1721C47.6292 39.724 47.9998 39.3535 47.9998 38.8964V9.10348C47.9998 8.89235 47.9145 8.70448 47.7843 8.55823L23.9998 39.724Z" fill="#FF4B55"/>
<path d="M14.5265 27.3102H33.4738L38.5263 20.6896H9.47382L14.5265 27.3102Z" fill="#4173CD"/>
<path d="M14.5265 27.3103L24.0001 39.7241L33.4738 27.3103H14.5265Z" fill="white"/>
</svg>
