<svg width="48" height="48" viewBox="0 0 48 48" fill="none" xmlns="http://www.w3.org/2000/svg">
<path d="M47.1723 39.7242H0.827623C0.370593 39.7242 0 39.3536 0 38.8966V9.10362C0 8.64659 0.370593 8.276 0.827623 8.276H47.1724C47.6294 8.276 48 8.64659 48 9.10362V38.8966C47.9999 39.3537 47.6293 39.7242 47.1723 39.7242Z" fill="#41479B"/>
<path d="M23.1723 8.276H21.7349L14.0689 13.2985V8.276H9.93101V13.2985L2.26509 8.276H0.827623C0.370593 8.276 0 8.64659 0 9.10362V9.76006L6.57702 14.0691H0V18.207H6.57702L0 22.5161V23.1725C0 23.6295 0.370593 24.0001 0.827623 24.0001H2.26509L9.93101 18.9776V24.0001H14.0689V18.9776L21.7348 24.0001H23.1722C23.6293 24.0001 23.9999 23.6295 23.9999 23.1725V22.516L17.4229 18.207H23.9999V14.0691H17.4228L23.9999 9.76006V9.10362C23.9999 8.64659 23.6295 8.276 23.1723 8.276Z" fill="white"/>
<path d="M23.9999 14.8967H13.2413V8.276H10.7585V14.8967H0V17.3794H10.7585V24.0001H13.2413V17.3794H23.9999V14.8967Z" fill="#FF4B55"/>
<path d="M9.10339 14.0691L0.394405 8.41589C0.162656 8.56261 0 8.80899 0 9.10364V9.14658L7.58333 14.0691H9.10339Z" fill="#FF4B55"/>
<path d="M15.5892 14.0691L23.8742 8.69103C23.7302 8.44738 23.4761 8.276 23.1725 8.276H22.9935L14.0691 14.0691H15.5892Z" fill="#FF4B55"/>
<path d="M8.38813 18.2071L0.118927 23.5748C0.26152 23.8244 0.51952 24.0002 0.827582 24.0002H0.983675L9.90819 18.2071H8.38813Z" fill="#FF4B55"/>
<path d="M23.9867 23.2377L16.2368 18.2072H14.7169L23.5174 23.9198C23.7812 23.7974 23.9619 23.541 23.9867 23.2377Z" fill="#FF4B55"/>
<path d="M30.807 18.0621C30.6961 19.5412 30.2371 28.9414 36.201 31.0663C42.1672 28.9408 41.7062 19.5411 41.595 18.0621C40.8724 18.3453 38.2567 19.2038 36.201 17.7408C34.1456 19.2037 31.5301 18.3457 30.807 18.0621Z" fill="white"/>
<path d="M39.1314 19.9586C38.8044 19.7044 38.199 20.1766 37.5207 20.1282C36.8918 20.0833 36.1167 19.4464 35.1091 19.721C34.8308 19.4647 34.9655 18.8689 34.9655 18.8689C34.266 19.3211 34.2159 19.94 34.2599 20.2757C33.7611 20.9348 33.7948 21.9405 33.8878 22.2475C34.0088 22.6471 34.2389 22.6955 34.2753 23.1435C34.3116 23.5915 34.4812 23.4341 34.4812 23.4341C34.8314 23.2377 34.8824 22.8671 35.0296 22.2608C35.5987 22.3334 35.9706 21.8237 35.9706 21.8237C35.5973 21.9408 35.3618 21.735 35.2334 21.5538C35.2535 21.4939 35.2695 21.4387 35.2925 21.3757C35.7163 20.2131 37.7444 20.5328 37.9324 20.8549C38.2715 21.4361 38.7195 21.6541 38.7195 21.6541C38.7195 21.0481 38.2715 20.5159 38.2715 20.5159C38.9497 20.3946 39.1314 19.9586 39.1314 19.9586ZM34.2513 22.4531C34.1844 22.4531 34.1302 22.399 34.1302 22.3321C34.1302 22.2653 34.1844 22.2111 34.2513 22.2111C34.3182 22.2111 34.3724 22.2653 34.3724 22.3321C34.3724 22.399 34.3182 22.4531 34.2513 22.4531Z" fill="#FFA028"/>
<path d="M37.1344 27.3975C37.5292 27.2725 37.484 26.506 37.9085 25.9751C38.3024 25.4827 39.2666 25.2058 39.6122 24.2203C39.9812 24.1365 40.3953 24.5854 40.3953 24.5854C40.4198 23.7528 39.9385 23.3605 39.6371 23.2062C39.3773 22.4215 38.5301 21.8786 38.2245 21.7811C37.8267 21.6541 37.6564 21.8161 37.2667 21.5918C36.8771 21.3676 36.9106 21.5965 36.9106 21.5965C36.8736 21.9964 37.1498 22.2485 37.5657 22.7139C37.183 23.1412 37.3918 23.7368 37.3918 23.7368C37.5071 23.3628 37.8102 23.2858 38.0324 23.2829C38.0704 23.3333 38.1067 23.3779 38.1455 23.4326C38.8625 24.4411 37.4486 25.9299 37.0766 25.9019C36.4055 25.8513 35.9719 26.0967 35.9719 26.0967C36.4709 26.4405 37.1634 26.3735 37.1634 26.3735C36.8784 27.0006 37.1344 27.3975 37.1344 27.3975ZM37.8488 21.9635C37.8868 21.9085 37.9622 21.8945 38.0172 21.9325C38.0722 21.9705 38.0862 22.0458 38.0482 22.1009C38.0103 22.1559 37.9349 22.1699 37.8799 22.1319C37.8247 22.0939 37.8109 22.0187 37.8488 21.9635Z" fill="#FFA028"/>
<path d="M31.7954 22.0149C31.7426 22.4257 32.4571 22.7071 32.76 23.3158C33.041 23.8801 32.8864 24.8715 33.635 25.5996C33.5558 25.9696 32.9742 26.1564 32.9742 26.1564C33.7191 26.529 34.2776 26.2575 34.5444 26.049C35.3655 26.1436 36.2145 25.6034 36.4316 25.3673C36.7142 25.06 36.6389 24.8371 37.0063 24.5781C37.3737 24.3191 37.152 24.2531 37.152 24.2531C36.8048 24.0512 36.4599 24.1958 35.8627 24.3771C35.636 23.8501 35.008 23.7889 35.008 23.7889C35.2987 24.051 35.241 24.3583 35.1502 24.561C35.0884 24.5741 35.0326 24.5883 34.9668 24.6007C33.7502 24.8265 32.9947 22.9175 33.1767 22.5919C33.5049 22.0045 33.4648 21.5078 33.4648 21.5078C32.9429 21.8158 32.7122 22.4722 32.7122 22.4722C32.2633 21.9497 31.7954 22.0149 31.7954 22.0149ZM36.4241 24.9498C36.4582 25.0075 36.4391 25.0817 36.3814 25.1157C36.3237 25.1497 36.2496 25.1306 36.2156 25.0729C36.1815 25.0153 36.2006 24.9411 36.2583 24.9071C36.3159 24.873 36.3902 24.8922 36.4241 24.9498Z" fill="#FFA028"/>
<path d="M36.201 31.3742L36.1533 31.3578C29.4376 29.0217 30.5229 17.9481 30.5345 17.8363L30.5555 17.6362L30.7391 17.7194C30.7708 17.7338 33.8864 19.1157 36.1139 17.4446L36.2009 17.3793L36.288 17.4446C38.5187 19.1179 41.6317 17.7335 41.6627 17.7194L41.8464 17.6359L41.8674 17.8363C41.8792 17.9481 42.9643 29.0217 36.2486 31.3578L36.201 31.3742ZM30.8071 18.062C30.6961 19.5412 30.2371 28.9413 36.201 31.0662C42.1672 28.9407 41.7062 19.541 41.595 18.062C40.8724 18.3452 38.2567 19.2038 36.201 17.7407C34.1456 19.2036 31.5301 18.3456 30.8071 18.062Z" fill="#CDCE0C"/>
<path d="M32.4604 27.7329C33.275 29.2101 34.4642 30.4476 36.2008 31.0663C37.9379 30.4474 39.1275 29.21 39.9421 27.7329H32.4604Z" fill="#82AFFF"/>
</svg>
