<svg width="48" height="48" viewBox="0 0 48 48" fill="none" xmlns="http://www.w3.org/2000/svg">
<path d="M47.1723 39.724H0.827623C0.370593 39.724 0 39.3534 0 38.8964V9.10347C0 8.64644 0.370593 8.27585 0.827623 8.27585H47.1724C47.6294 8.27585 48 8.64644 48 9.10347V38.8964C47.9999 39.3535 47.6293 39.724 47.1723 39.724Z" fill="#FF4B55"/>
<path d="M33.0515 27.9181C32.5989 27.6336 32.3274 28.0862 32.3274 28.0862L31.0084 28.2413L31.6678 27.6853C32.1462 27.7241 32.2109 27.5819 32.3402 27.3879C32.4695 27.1939 33.0126 27.2845 33.0126 27.2845C32.9349 26.6897 32.1849 27.0259 32.1849 27.0259C31.5772 26.9612 31.4738 27.4526 31.4738 27.4526L30.5298 28.1767L28.4524 27.5612C28.6678 27.3238 28.837 27.0899 28.8617 26.9482C28.903 26.7104 27.3273 26.3103 26.8445 25.8103C26.3618 25.3102 26.1894 24.5172 26.4135 24.3103C26.6376 24.1034 26.8273 24.6895 27.0686 25.1723C27.31 25.6551 27.7584 26.0344 28.0514 25.793C28.3445 25.5517 27.7411 25.1897 27.4652 24.6724C27.1894 24.1551 27.6721 23.9654 27.8963 24.0171C28.1204 24.0689 28.2583 25.1379 28.7929 25.6895C29.3273 26.2413 29.8101 26.1378 29.8618 25.793C29.9136 25.4481 28.9797 25.0233 28.79 24.7301C28.6003 24.437 28.5514 23.8619 28.8618 23.8447C29.1721 23.8275 30.31 25.5234 31.2757 26.1724C32.3274 26.8792 33.1721 26.0516 33.0343 25.7068C32.8964 25.3619 32.2584 25.4999 31.5171 25.3101C30.7757 25.1205 30.0171 24.1205 29.7929 23.5688C29.5688 23.0171 29.7541 23.0171 29.8835 23.0689C30.0128 23.1206 30.5042 23.8447 31.4482 24.4008C32.3921 24.9568 33.0516 24.4266 33.1292 24.2974C33.2068 24.1681 33.505 23.5876 32.5344 23.7241C31.431 23.8792 30.8016 23.2241 30.349 22.875C29.8964 22.5259 29.7154 22.0474 29.9223 21.8534C30.1292 21.6594 30.8102 22.5344 31.8446 22.8103C32.7949 23.0636 33.1809 22.6551 33.1549 22.2801C33.129 21.9051 32.9092 22.0603 31.8359 21.9569C30.7627 21.8535 30.0127 20.8448 29.9739 20.7801C29.935 20.7155 29.948 20.3534 30.4911 20.7025C31.0342 21.0516 32.004 21.2586 32.573 21.2327C33.1419 21.2068 33.2583 20.4439 32.9868 20.3146C32.7153 20.1853 32.6506 20.3793 32.0299 20.5086C31.4092 20.6378 30.2454 20.0043 29.9609 19.7068C29.6764 19.4093 29.9868 19.2155 30.129 19.2412C30.2712 19.267 31.2023 19.8102 32.0299 19.7843C32.8575 19.7585 33.2066 18.9955 33.1808 18.7627C33.1549 18.53 32.9221 18.336 32.573 18.5688C32.2239 18.8016 31.7583 19.0731 30.9825 18.9438C30.2066 18.8145 29.8446 18.2972 29.9481 18.1033C30.0515 17.9093 30.8015 18.2455 31.9912 18.1162C33.1809 17.987 33.2325 16.9395 33.1162 16.7326C32.9998 16.5257 32.7153 16.5904 32.3144 16.9654C31.9135 17.3404 31.1377 17.418 30.53 17.418C29.9222 17.418 29.9093 17.1206 29.9998 16.9137C30.0904 16.7068 30.7369 16.7586 31.642 16.474C32.5472 16.1896 33.0644 15.4654 33.2067 15.0128C33.349 14.5603 32.9998 14.2111 32.8576 14.2111C32.7154 14.2111 32.8059 14.0042 32.1852 14.8964C31.5645 15.7886 29.9352 16.1378 29.9352 16.1378C29.8189 15.9179 29.6379 15.8404 29.6379 15.8404C28.5387 16.0602 27.2129 17.0093 27.2129 17.0093C27.2129 17.0093 27.4466 17.7589 27.1546 18.3431C26.7786 19.0952 25.4897 18.6254 25.8402 17.4377C26.1321 16.4486 27.2617 15.8507 28.216 15.7435C29.1701 15.6365 29.2188 15.2762 29.2188 15.2762C29.2188 15.2762 28.2168 15.6024 28.1989 15.1546C28.4058 15.1966 28.7108 15.2149 29.2285 15.169C29.9978 15.101 30.4262 14.5556 30.0854 14.4388C29.7446 14.322 29.8907 14.6725 29.3065 14.9452C28.8897 15.1396 28.4524 15.052 28.2335 14.9856C28.4357 14.544 29.287 14.7698 29.287 14.7698C29.2967 14.0006 28.276 14.2758 28.276 14.2758C27.8278 13.3102 25.2071 14.4309 25.2071 14.4309L25.8278 14.9309C24.3105 15.7757 24.0001 17.3791 24.0001 17.3791C24.0001 17.3791 23.6898 15.7757 22.1725 14.9308L22.7932 14.4308C22.7932 14.4308 20.1724 13.3101 19.7242 14.2757C19.7242 14.2757 18.7034 14.0006 18.7133 14.7698C18.7133 14.7698 19.5645 14.5439 19.7668 14.9855C19.5479 15.052 19.1106 15.1395 18.6939 14.9451C18.1097 14.6723 18.2558 14.322 17.9149 14.4387C17.5741 14.5555 18.0026 15.1008 18.7718 15.1689C19.2896 15.2148 19.5945 15.1966 19.8014 15.1545C19.7835 15.6023 18.7815 15.2761 18.7815 15.2761C18.7815 15.2761 18.8303 15.6363 19.7844 15.7434C20.7386 15.8506 21.8682 16.4485 22.1601 17.4376C22.5105 18.6254 21.2218 19.095 20.8457 18.343C20.5536 17.7589 20.7874 17.0092 20.7874 17.0092C20.7874 17.0092 19.4616 16.0601 18.3625 15.8403C18.3625 15.8403 18.1814 15.9179 18.0651 16.1377C18.0651 16.1377 16.4358 15.7885 15.8151 14.8963C15.1944 14.0041 15.285 14.211 15.1427 14.211C15.0005 14.211 14.6514 14.5601 14.7936 15.0128C14.9358 15.4654 15.453 16.1895 16.3583 16.4739C17.2635 16.7584 17.91 16.7067 18.0005 16.9136C18.0911 17.1205 18.0781 17.4179 17.4704 17.4179C16.8626 17.4179 16.0867 17.3403 15.6859 16.9653C15.285 16.5903 15.0006 16.5256 14.8842 16.7325C14.7678 16.9394 14.8195 17.9868 16.0092 18.1162C17.1989 18.2454 17.9489 17.9092 18.0523 18.1032C18.1557 18.2972 17.7936 18.8144 17.0178 18.9437C16.2419 19.073 15.7765 18.8015 15.4274 18.5687C15.0782 18.3359 14.8455 18.5299 14.8196 18.7627C14.7937 18.9954 15.1428 19.7584 15.9704 19.7842C16.7981 19.8101 17.7291 19.267 17.8713 19.2412C18.0135 19.2153 18.3239 19.4092 18.0394 19.7066C17.755 20.004 16.5912 20.6376 15.9704 20.5084C15.3497 20.3791 15.2851 20.1851 15.0135 20.3144C14.742 20.4437 14.8584 21.2066 15.4274 21.2325C15.9963 21.2584 16.9662 21.0515 17.5093 20.7023C18.0524 20.3532 18.0653 20.7153 18.0265 20.78C17.9877 20.8446 17.2377 21.8532 16.1644 21.9567C15.0912 22.0601 14.8713 21.905 14.8455 22.28C14.8196 22.655 15.2055 23.0635 16.1558 22.8101C17.1902 22.5342 17.8714 21.6592 18.0782 21.8532C18.2851 22.0472 18.1041 22.5256 17.6515 22.8748C17.1989 23.2239 16.5695 23.879 15.4662 23.7239C14.4955 23.5875 14.7938 24.1679 14.8713 24.2972C14.9489 24.4265 15.6084 24.9566 16.5524 24.4006C17.4963 23.8446 17.9877 23.1204 18.117 23.0687C18.2463 23.0169 18.4318 23.0169 18.2076 23.5686C17.9834 24.1204 17.2248 25.1204 16.4834 25.31C15.7421 25.4997 15.1041 25.3617 14.9662 25.7066C14.8283 26.0514 15.6731 26.879 16.7249 26.1721C17.6905 25.5231 18.8283 23.8272 19.1387 23.8445C19.449 23.8616 19.4001 24.4368 19.2105 24.7298C19.0208 25.023 18.0869 25.4479 18.1387 25.7927C18.1904 26.1375 18.6731 26.2409 19.2076 25.6893C19.7421 25.1375 19.88 24.0685 20.1043 24.0169C20.3283 23.9651 20.8111 24.1549 20.5352 24.6721C20.2594 25.1893 19.6559 25.5514 19.9491 25.7928C20.2422 26.0341 20.6905 25.6549 20.9319 25.172C21.1732 24.6892 21.3628 24.1031 21.587 24.31C21.8112 24.5169 21.6387 25.31 21.1559 25.81C20.6732 26.31 19.0973 26.7101 19.1387 26.948C19.1634 27.0896 19.3325 27.3234 19.548 27.5609L17.4706 28.1764L16.5267 27.4522C16.5267 27.4522 16.4233 26.9609 15.8155 27.0255C15.8155 27.0255 15.0655 26.6893 14.9879 27.2841C14.9879 27.2841 15.531 27.1936 15.6602 27.3875C15.7895 27.5815 15.8542 27.7237 16.3326 27.6849L16.9919 28.241L15.673 28.0859C15.673 28.0859 15.4014 27.6333 14.9489 27.9178C14.9489 27.9178 14.3799 27.7368 14.2377 28.2799C14.2377 28.2799 14.729 28.1893 14.8584 28.254C14.8584 28.254 15.0524 28.6937 15.6731 28.435L16.9791 28.4997L16.242 28.8618C16.242 28.8618 15.311 28.5644 15.3498 29.3402C15.3498 29.3402 15.0782 29.6505 15.324 29.9609C15.324 29.9609 15.3757 29.6247 15.6213 29.4825C15.6213 29.4825 16.0997 29.6764 16.4101 29.1075L17.3541 28.5385L18.2851 28.9911C18.2851 28.9911 18.2593 29.4954 18.9446 29.2885C18.9446 29.2885 19.1773 29.4437 19.2419 29.6506C19.2419 29.6506 19.5393 29.3273 19.0609 28.9523C19.0609 28.9523 18.9446 28.5126 18.3756 28.6807L17.8454 28.4091L19.8072 27.827C20.1468 28.1505 20.5133 28.4157 20.6415 28.3713C20.8947 28.2836 21.0895 28.0208 21.2646 27.6508C21.4398 27.2808 22.2285 25.9956 22.618 26.0055C23.0074 26.0152 23.1827 26.3267 23.0853 26.8818C22.988 27.4367 22.229 28.4998 21.7376 28.7196C21.2462 28.9395 21.1686 29.0429 20.716 29.0041C20.2633 28.9653 20.1082 29.1592 20.2117 29.4179C20.3151 29.6765 20.8243 29.841 21.3238 29.6507C21.8668 29.4438 22.0737 29.1593 22.2807 29.3274C22.4876 29.4955 22.0608 30.1033 21.4789 30.2843C20.897 30.4653 20.4573 30.349 20.5479 30.7111C20.6384 31.0731 21.2591 31.099 21.6599 30.8662C22.0608 30.6334 22.5133 29.9869 22.6298 30.1938C22.7461 30.4008 22.6686 30.9309 22.2807 31.2154C21.8927 31.4999 21.4514 31.3325 21.3626 31.5904C21.2333 31.9654 21.6858 32.2112 22.0349 32.0688C22.3841 31.9266 22.7849 31.4869 22.966 31.099C23.147 30.7111 23.4832 31.0473 23.3798 31.4093C23.2764 31.7714 23.3625 32.0688 22.6211 32.6377L24.0004 34.7583L25.3797 32.6376C24.6384 32.0687 24.7246 31.7713 24.621 31.4092C24.5176 31.0472 24.8538 30.711 25.0348 31.0989C25.2159 31.4868 25.6167 31.9265 25.9659 32.0688C26.315 32.211 26.7676 31.9653 26.6382 31.5903C26.5494 31.3324 26.1081 31.4998 25.7201 31.2153C25.3322 30.9309 25.2546 30.4007 25.371 30.1938C25.4874 29.9868 25.94 30.6334 26.3409 30.8661C26.7417 31.0989 27.3625 31.073 27.4529 30.711C27.5434 30.3489 27.1038 30.4653 26.5219 30.2842C25.94 30.1032 25.5132 29.4954 25.7201 29.3273C25.9271 29.1592 26.134 29.4437 26.6771 29.6506C27.1766 29.8409 27.6857 29.6764 27.7891 29.4178C27.8925 29.1591 27.7374 28.9652 27.2848 29.004C26.8322 29.0428 26.7547 28.9393 26.2632 28.7195C25.7718 28.4998 25.0129 27.4367 24.9155 26.8817C24.8181 26.3267 24.9934 26.015 25.3828 26.0054C25.7723 25.9955 26.5609 27.2807 26.7362 27.6507C26.9114 28.0207 27.1061 28.2836 27.3593 28.3713C27.4876 28.4157 27.8542 28.1505 28.1936 27.827L30.1554 28.4091L29.6252 28.6807C29.0562 28.5126 28.9399 28.9523 28.9399 28.9523C28.4615 29.3273 28.7589 29.6506 28.7589 29.6506C28.8235 29.4437 29.0562 29.2885 29.0562 29.2885C29.7415 29.4954 29.7157 28.9911 29.7157 28.9911L30.6467 28.5385L31.5907 29.1075C31.901 29.6764 32.3795 29.4825 32.3795 29.4825C32.6252 29.6247 32.6769 29.9609 32.6769 29.9609C32.9226 29.6506 32.651 29.3402 32.651 29.3402C32.6898 28.5644 31.7588 28.8619 31.7588 28.8619L31.0213 28.5L32.3274 28.4353C32.9481 28.6939 33.142 28.2543 33.142 28.2543C33.2713 28.1896 33.7628 28.2801 33.7628 28.2801C33.6204 27.737 33.0515 27.9181 33.0515 27.9181Z" fill="#464655"/>
</svg>
