<svg width="48" height="48" viewBox="0 0 48 48" fill="none" xmlns="http://www.w3.org/2000/svg">
<path d="M47.9999 24H0V9.10349C0 8.64646 0.370593 8.27586 0.827623 8.27586H47.1724C47.6294 8.27586 48 8.64646 48 9.10349L47.9999 24Z" fill="#FF4B55"/>
<path d="M0 24H47.9999V38.8964C47.9999 39.3535 47.6293 39.7241 47.1723 39.7241H0.827623C0.370593 39.7241 0 39.3535 0 38.8964V24Z" fill="#464655"/>
<path d="M22.1158 17.0899L22.6816 18.7864L24.47 18.8003C24.6086 18.8013 24.666 18.9782 24.5546 19.0604L23.1159 20.1228L23.6553 21.8279C23.6971 21.96 23.5467 22.0692 23.434 21.9888L21.979 20.9488L20.524 21.9888C20.4112 22.0694 20.2608 21.96 20.3026 21.8279L20.8421 20.1228L19.4034 19.0604C19.292 18.9781 19.3494 18.8013 19.488 18.8003L21.2763 18.7864L21.8422 17.0899C21.8861 16.9585 22.072 16.9585 22.1158 17.0899Z" fill="#FFE15A"/>
<path d="M29.7644 31.4947C29.7644 31.4947 19.5264 23.7712 19.2241 23.5173C18.757 23.125 18.3965 22.4311 18.3792 21.5862C18.3792 21.5862 17.2751 22.7172 17.4913 23.888C17.7414 25.2414 18.5172 25.7242 19.5173 26.3793C20.22 26.8397 25.8067 30.3632 29.068 32.4186L29.7644 31.4947Z" fill="#FFE15A"/>
<path d="M32.8274 33.7585C32.694 33.6632 31.6217 32.8707 30.134 31.7684L29.5941 32.7502C30.6864 33.4384 31.4137 33.8965 31.4137 33.8965C31.4137 33.8965 31.5171 35.2413 32.6034 35.0171C32.9949 34.9363 33.3102 34.1034 32.8274 33.7585Z" fill="#FFE15A"/>
<path d="M23.9871 30.1924C23.2131 30.4648 22.3842 30.6206 21.5171 30.6206C19.3195 30.6206 17.3504 29.6632 15.9871 28.1493L14.7751 29.2401C15.1813 29.6912 15.6151 30.1164 16.104 30.4792L15.8627 30.8972L17.6545 31.9317L17.8916 31.5207C18.7011 31.8728 19.5713 32.1097 20.4827 32.2129V32.6895H22.5517V32.2129C23.4631 32.1097 24.3333 31.8728 25.1427 31.5207L25.3799 31.9317L26.092 31.5206C25.3966 31.0821 24.6843 30.6328 23.9871 30.1924Z" fill="#FFE15A"/>
<path d="M30.5578 22.1379C30.4546 21.2264 30.2177 20.3562 29.8656 19.5469L30.2766 19.3097L29.2421 17.5179L28.8241 17.7592C28.289 17.0382 27.6514 16.4006 26.9303 15.8654L27.1716 15.4474L25.3798 14.413L25.1426 14.8239C24.4712 14.5319 23.7563 14.3245 23.0124 14.2015L22.7405 15.8331C26.2707 16.4178 28.9655 19.4764 28.9655 23.1724C28.9655 25.1625 28.1801 26.9659 26.9084 28.3021C27.3483 28.6343 27.7849 28.9639 28.2165 29.2898C28.4256 29.0608 28.6387 28.8354 28.8242 28.5856L29.2422 28.8269L30.2766 27.0352L29.8657 26.798C30.2178 25.9885 30.4547 25.1184 30.5579 24.207H31.0343V22.1381H30.5577L30.5578 22.1379Z" fill="#FFE15A"/>
</svg>
