<svg width="48" height="48" viewBox="0 0 48 48" fill="none" xmlns="http://www.w3.org/2000/svg">
<g clip-path="url(#clip0_11_1100)">
<path d="M47.1723 39.7242H0.827623C0.370593 39.7242 0 39.3536 0 38.8966V9.10362C0 8.64659 0.370593 8.276 0.827623 8.276H47.1724C47.6294 8.276 48 8.64659 48 9.10362V38.8966C47.9999 39.3537 47.6293 39.7242 47.1723 39.7242Z" fill="#41479B"/>
<path d="M47.9999 38.8965V37.9824L5.31683 24L47.9999 10.0177V9.10356C47.9999 8.80432 47.8328 8.5541 47.5948 8.40869L0 24L47.5948 39.5914C47.8328 39.4461 47.9999 39.1959 47.9999 38.8965Z" fill="#FF4B55"/>
<path d="M5.31694 24L48 37.9823V10.0176L5.31694 24Z" fill="white"/>
<path d="M42.947 19.927C42.947 19.927 45.7809 20.0471 46.0451 19.8309C46.3093 19.6148 46.3573 18.1738 45.4208 17.9577C44.4842 17.7416 41.9384 19.1345 41.9384 19.1345L42.947 19.927Z" fill="#FFF5DC"/>
<path d="M37.3992 22.1606C37.3992 22.1606 37.3672 22.2406 37.3512 22.5929C37.3352 22.9451 37.3992 23.8577 38.5041 24.258L38.248 25.3307L39.4167 26.0352C39.4167 26.0352 40.2814 24.7543 40.3294 23.6815C40.3773 22.6089 37.3992 22.1606 37.3992 22.1606Z" fill="#D27D69"/>
<path d="M33.8929 21.4399L34.3492 20.9837C34.3492 20.9837 33.415 21.5536 33.0603 21.0397C32.596 20.3674 33.2204 19.6628 33.8689 19.3505C34.5173 19.0384 35.8142 19.2785 35.8142 19.2785L36.6307 21.3679L34.1571 22.929L33.8929 21.4399Z" fill="#D27D69"/>
<path d="M41.5541 17.4535L43.7637 17.1893C43.7637 17.1893 43.1154 18.1259 41.8424 18.8224C41.8424 18.8224 43.1634 18.8224 43.5475 19.2787C43.9318 19.735 43.1633 20.1673 42.8752 20.3114C42.587 20.4555 40.0893 21.9925 40.0893 21.9925L37.8558 21.7284L41.5541 17.4535Z" fill="#D27D69"/>
<path d="M43.1953 15.7562C43.1953 15.7562 43.6755 14.6355 43.6595 13.851L42.0424 14.9717C42.0424 14.9717 42.4107 14.7957 42.2826 14.1552L36.999 17.0211L35.9263 18.9264L39.1925 19.9351L43.1953 15.7562Z" fill="#D27D69"/>
<path d="M39.2125 24.4903L38.6601 25.3669C38.6601 25.3669 37.6754 25.1509 37.3392 25.3909C37.003 25.6311 36.967 26.5318 37.5553 26.6038C37.5553 26.6038 37.9635 26.856 38.2036 26.6518C38.2036 26.6518 38.6959 26.8439 38.78 26.5317C38.8641 26.2195 38.756 25.9553 38.756 25.9553H39.1042L39.7166 24.8626L39.2125 24.4903Z" fill="#FFE15A"/>
<path d="M34.2771 22.5929C34.2771 22.5929 35.8142 21.8244 35.8142 20.6716C35.8142 19.5187 34.3892 19.4547 33.2364 19.839C33.2364 19.839 32.548 19.2947 33.1244 18.7502C33.9145 18.0039 37.3513 16.4447 37.3513 16.4447L36.967 18.366C36.967 18.366 38.3359 19.0865 38.8883 18.7503C39.3525 18.4677 43.8837 14.9077 43.8837 14.9077C43.8837 14.9077 43.4994 16.829 40.8096 18.7503L40.5246 20.1754C40.462 20.4885 40.2584 20.7551 39.9727 20.8978L38.8883 21.4399C38.8883 21.4399 41.9624 21.8242 41.9624 22.2084C41.9624 22.5926 41.1939 24.514 39.6569 25.2825L38.8883 24.514L39.2726 23.3612C39.2726 23.3612 38.1197 22.9769 37.3513 22.5926C37.3513 22.5926 36.1984 22.9769 35.43 22.9769C34.6615 22.9769 34.2771 22.5929 34.2771 22.5929Z" fill="#B95546"/>
<path d="M31.9716 24.5142V23.7158C31.9716 23.489 32.0617 23.2713 32.2222 23.1109L33.893 21.4401L34.2773 22.2085H35.8143L35.43 22.5928V22.9771L33.5087 24.1299L31.9716 24.5142Z" fill="#FFF5DC"/>
<path d="M32.7401 24.13H31.9716C31.9716 24.13 31.2031 25.2828 31.9716 25.2828C31.9716 25.2828 33.1244 24.5143 33.5086 24.13C33.5086 24.13 33.5086 23.7458 32.7401 24.13Z" fill="#FFE15A"/>
<path d="M42.1134 25.8347H36.8013C36.7575 25.7875 36.6963 25.7571 36.6269 25.7571C36.6269 25.7571 35.6964 25.3714 35.564 25.3714H35.455C35.3227 25.3714 35.2154 25.4786 35.2154 25.611V25.8347H34.001V25.611C34.001 25.4787 33.8938 25.3714 33.7614 25.3714H33.6524C33.5201 25.3714 33.4128 25.4786 33.4128 25.611V25.615C32.8924 25.5939 31.7796 25.5275 31.2032 25.3354L28.1291 26.1039L31.2032 26.8724C31.7795 26.6803 32.8922 26.6139 33.4128 26.5927V26.5967C33.4128 26.729 33.52 26.8363 33.6524 26.8363H33.7614C33.8937 26.8363 34.001 26.7291 34.001 26.5967V26.373H35.2154V26.5967C35.2154 26.729 35.3226 26.8363 35.455 26.8363H35.564C35.6963 26.8363 36.6269 26.4506 36.6269 26.4506C36.6963 26.4506 36.7576 26.4203 36.8013 26.373H42.1134C42.2622 26.373 42.3827 26.2524 42.3827 26.1038C42.3827 25.9552 42.2621 25.8347 42.1134 25.8347Z" fill="#FFE15A"/>
<path d="M41.8823 26.8679C41.5621 26.8038 37.8956 27.4443 37.8956 27.4443C37.8956 27.4443 37.6714 27.2201 38.3438 26.5956L38.0237 26.5156C38.0237 26.5156 37.3192 27.0119 37.0309 27.0759C36.7828 27.131 36.2283 27.4007 36.1091 27.7606L33.8767 28.1327L33.9247 28.3248L36.1145 28.0681C36.2189 28.4044 36.5631 28.4731 36.8067 28.3728C36.8067 28.3728 37.127 28.5008 37.4151 28.2767C37.4151 28.2767 37.9915 28.3728 38.0235 27.8444L42.0422 27.2359C42.0423 27.2362 42.2025 26.9319 41.8823 26.8679Z" fill="#FFE15A"/>
<path d="M39.6088 29.5738C39.6088 29.5738 39.3046 29.974 38.5521 29.6218C37.7997 29.2696 36.919 29.6539 36.4387 29.5418C35.9584 29.4296 35.2378 29.1415 34.5655 29.3977C33.8931 29.6538 33.5248 29.6379 33.6689 29.3176C33.8129 28.9975 33.893 28.7573 33.6689 28.6452L33.925 28.325L33.877 28.1329C33.877 28.1329 32.5961 27.6366 31.7316 28.325C30.8669 29.0134 31.1233 30.5826 32.5642 30.6946C32.5642 30.6946 33.0125 31.255 34.1173 31.0948C34.1173 31.0948 34.8377 31.5911 36.0705 31.367C36.0705 31.367 36.1185 31.5111 36.9192 31.447C37.7198 31.383 38.6163 31.4791 38.4562 32.0234C38.4562 32.0234 39.0486 31.9114 38.6964 31.367C38.6964 31.367 39.4008 31.3349 39.8812 31.7513C39.8812 31.7513 39.9132 31.271 39.4489 31.0147C39.4489 31.0147 40.2335 30.7425 40.6658 31.0147C40.6658 31.0147 40.3776 30.4063 39.609 30.4863C39.609 30.4863 40.1694 30.038 40.4256 30.1501C40.4256 30.1501 40.1854 29.8619 39.4809 30.1501C39.4808 30.1502 39.9291 29.878 39.6088 29.5738Z" fill="#FFE15A"/>
</g>
<defs>
<clipPath id="clip0_11_1100">
<rect width="48" height="48" fill="white"/>
</clipPath>
</defs>
</svg>
