<svg width="48" height="48" viewBox="0 0 48 48" fill="none" xmlns="http://www.w3.org/2000/svg">
<path d="M47.1723 39.7243H0.827623C0.370593 39.7243 0 39.3537 0 38.8967V9.10362C0 8.64659 0.370593 8.276 0.827623 8.276H47.1724C47.6294 8.276 48 8.64659 48 9.10362V38.8967C47.9999 39.3538 47.6293 39.7243 47.1723 39.7243Z" fill="#41479B"/>
<path d="M23.1723 8.27606H21.7348L14.0688 13.2986V8.27606H9.93092V13.2986L2.265 8.27606H0.827623C0.370593 8.27606 0 8.64656 0 9.10359V9.76003L6.57702 14.0691H0V18.207H6.57702L0 22.5161V23.1725C0 23.6296 0.370593 24.0002 0.827623 24.0002H2.26518L9.93111 18.9776V24.0002H14.069V18.9776L21.7349 24.0002H23.1724C23.6295 24.0002 24 23.6296 24 23.1725V22.5161L17.423 18.2071H24V14.0691H17.4229L24 9.76012V9.10369C24 8.64656 23.6294 8.27606 23.1723 8.27606Z" fill="white"/>
<path d="M24 14.8968H13.2413V8.27606H10.7586V14.8968H0V17.3795H10.7586V24.0002H13.2413V17.3795H24V14.8968Z" fill="#FF4B55"/>
<path d="M9.10339 14.069L0.394405 8.41577C0.162656 8.5624 0 8.80886 0 9.10343V9.14636L7.58333 14.069H9.10339Z" fill="#FF4B55"/>
<path d="M15.5891 14.0691L23.8742 8.69109C23.7302 8.44744 23.4761 8.27606 23.1725 8.27606H22.9935L14.0691 14.0691H15.5891Z" fill="#FF4B55"/>
<path d="M8.38813 18.2069L0.118927 23.5747C0.26152 23.8242 0.51952 24 0.827582 24H0.983675L9.90828 18.2069H8.38813Z" fill="#FF4B55"/>
<path d="M23.9868 23.2373L16.2369 18.2069H14.7169L23.5175 23.9196C23.7812 23.7972 23.962 23.5408 23.9868 23.2373Z" fill="#FF4B55"/>
<path d="M12.2506 28.5119L12.8752 30.5741L14.8771 29.7768C15.0479 29.7087 15.2031 29.9035 15.0989 30.0549L13.876 31.829L15.7475 32.8969C15.9071 32.988 15.8517 33.2308 15.6683 33.2437L13.5187 33.3937L13.8507 35.5228C13.879 35.7045 13.6546 35.8126 13.5303 35.6771L12.0726 34.0901L10.615 35.6771C10.4907 35.8125 10.2663 35.7044 10.2946 35.5228L10.6266 33.3937L8.47696 33.2437C8.29359 33.2308 8.23818 32.988 8.39784 32.8969L10.2693 31.829L9.0464 30.0549C8.94215 29.9035 9.0974 29.7087 9.26821 29.7768L11.2701 30.5741L11.8947 28.5119C11.9482 28.336 12.1973 28.336 12.2506 28.5119Z" fill="white"/>
<path d="M36.87 13.8494L37.1751 14.8568L38.1529 14.4674C38.2363 14.4342 38.3122 14.5292 38.2612 14.6032L37.6639 15.4699L38.5781 15.9916C38.6561 16.0361 38.629 16.1548 38.5394 16.1609L37.4894 16.2343L37.6515 17.2742C37.6653 17.363 37.5557 17.4158 37.4949 17.3496L36.7829 16.5744L36.0709 17.3496C36.0101 17.4157 35.9005 17.3629 35.9143 17.2742L36.0764 16.2343L35.0264 16.1609C34.9368 16.1548 34.9097 16.0361 34.9877 15.9916L35.9018 15.4699L35.3045 14.6032C35.2535 14.5292 35.3295 14.4342 35.4128 14.4674L36.3906 14.8568L36.6958 13.8494C36.7222 13.7635 36.844 13.7635 36.87 13.8494Z" fill="white"/>
<path d="M30.066 21.5815L30.3712 22.5888L31.349 22.1994C31.4323 22.1662 31.5083 22.2613 31.4573 22.3352L30.86 23.202L31.7741 23.7237C31.8521 23.7681 31.825 23.8868 31.7354 23.893L30.6854 23.9663L30.8475 25.0063C30.8614 25.095 30.7517 25.1478 30.691 25.0816L29.9789 24.3064L29.2669 25.0816C29.2061 25.1477 29.0965 25.0949 29.1103 25.0063L29.2724 23.9663L28.2224 23.893C28.1328 23.8868 28.1057 23.7681 28.1837 23.7237L29.0979 23.202L28.5006 22.3352C28.4496 22.2613 28.5255 22.1662 28.6089 22.1994L29.5867 22.5888L29.8918 21.5815C29.9183 21.4955 30.0399 21.4955 30.066 21.5815Z" fill="white"/>
<path d="M43.3072 18.2711L43.6123 19.2785L44.5901 18.889C44.6735 18.8559 44.7494 18.9509 44.6984 19.0249L44.1011 19.8916L45.0153 20.4133C45.0933 20.4578 45.0662 20.5765 44.9766 20.5826L43.9266 20.656L44.0887 21.6959C44.1025 21.7847 43.9928 21.8375 43.9322 21.7713L43.2202 20.9961L42.5081 21.7713C42.4474 21.8374 42.3378 21.7846 42.3516 21.6959L42.5137 20.656L41.4637 20.5826C41.374 20.5765 41.3469 20.4578 41.4249 20.4133L42.3391 19.8916L41.7418 19.0249C41.6908 18.9509 41.7668 18.8559 41.8501 18.889L42.8279 19.2785L43.1331 18.2711C43.1594 18.1852 43.2811 18.1852 43.3072 18.2711Z" fill="white"/>
<path d="M36.87 31.5124L37.1751 32.5197L38.1529 32.1302C38.2363 32.097 38.3122 32.192 38.2612 32.266L37.6639 33.1327L38.5781 33.6544C38.6561 33.6989 38.629 33.8176 38.5394 33.8238L37.4894 33.8971L37.6515 34.937C37.6653 35.0258 37.5557 35.0786 37.4949 35.0124L36.7829 34.2372L36.0709 35.0124C36.0101 35.0785 35.9005 35.0257 35.9143 34.937L36.0764 33.8971L35.0264 33.8238C34.9368 33.8176 34.9097 33.6989 34.9877 33.6544L35.9018 33.1327L35.3045 32.266C35.2535 32.192 35.3295 32.097 35.4128 32.1302L36.3906 32.5197L36.6958 31.5124C36.7222 31.4264 36.844 31.4264 36.87 31.5124Z" fill="white"/>
<path d="M39.2309 23.3917L38.9859 24.1264L38.2117 24.1324C38.1115 24.1332 38.0698 24.2611 38.1505 24.3206L38.7734 24.7806L38.5398 25.5189C38.5096 25.6145 38.6184 25.6936 38.6999 25.6353L39.3299 25.185L39.9599 25.6353C40.0415 25.6936 40.1502 25.6144 40.12 25.5189L39.8864 24.7806L40.5093 24.3206C40.59 24.261 40.5484 24.1332 40.4482 24.1324L39.6739 24.1264L39.4289 23.3917C39.3971 23.2966 39.2626 23.2966 39.2309 23.3917Z" fill="white"/>
</svg>
