<svg width="48" height="48" viewBox="0 0 48 48" fill="none" xmlns="http://www.w3.org/2000/svg">
<path d="M0 29.2413H47.9999V38.8965C47.9999 39.3535 47.6293 39.7241 47.1723 39.7241H0.827623C0.370593 39.7241 0 39.3535 0 38.8965V29.2413Z" fill="#73AF00"/>
<path d="M0.827623 8.27597H47.1724C47.6294 8.27597 48 8.64656 48 9.10359V18.7587H0V9.10359C0 8.64656 0.370593 8.27597 0.827623 8.27597Z" fill="#82AFFF"/>
<path d="M47.9999 18.7583H0V29.2405H47.9999V18.7583Z" fill="#FF4B55"/>
<path d="M25.1285 27.432C23.2714 27.432 21.7647 25.9253 21.7647 24.0665C21.7647 22.211 23.2714 20.7011 25.1285 20.7011C25.8196 20.7011 26.4568 20.9135 26.9878 21.2733C27.0691 21.3284 27.1619 21.2214 27.0938 21.1506C26.3001 20.3255 25.1768 19.822 23.9315 19.8646C21.7917 19.9376 20.0204 21.653 19.8836 23.7897C19.727 26.2369 21.6648 28.2707 24.0775 28.2707C25.2659 28.2707 26.334 27.7739 27.0968 26.9795C27.1641 26.9094 27.0711 26.8041 26.9907 26.8587C26.4591 27.2192 25.8208 27.432 25.1285 27.432Z" fill="white"/>
<path d="M28.0734 21.9947L28.4224 22.976L29.3631 22.5289C29.434 22.4951 29.508 22.5691 29.4742 22.64L29.0271 23.5807L30.0084 23.9297C30.0824 23.956 30.0824 24.0606 30.0084 24.0868L29.0271 24.4359L29.4742 25.3766C29.508 25.4474 29.434 25.5214 29.3631 25.4877L28.4224 25.0406L28.0734 26.0218C28.0472 26.0958 27.9425 26.0958 27.9163 26.0218L27.5673 25.0406L26.6266 25.4877C26.5557 25.5214 26.4817 25.4474 26.5155 25.3766L26.9626 24.4359L25.9813 24.0868C25.9073 24.0606 25.9073 23.956 25.9813 23.9297L26.9626 23.5807L26.5155 22.64C26.4817 22.5691 26.5557 22.4951 26.6266 22.5289L27.5673 22.976L27.9163 21.9947C27.9426 21.9208 28.0472 21.9208 28.0734 21.9947Z" fill="white"/>
</svg>
