<svg width="48" height="48" viewBox="0 0 48 48" fill="none" xmlns="http://www.w3.org/2000/svg">
<path d="M47.1723 39.7242H0.827623C0.370593 39.7242 0 39.3536 0 38.8965V9.10359C0 8.64656 0.370593 8.27597 0.827623 8.27597H47.1724C47.6294 8.27597 48 8.64656 48 9.10359V38.8965C47.9999 39.3537 47.6293 39.7242 47.1723 39.7242Z" fill="#41479B"/>
<path d="M41.379 8.27597V39.7242L9.93087 8.27597H41.379Z" fill="#FFE15A"/>
<path d="M19.4394 19.9854L19.9164 21.4155L21.4238 21.4272C21.5406 21.4281 21.589 21.5771 21.4951 21.6465L20.2823 22.5421L20.7371 23.9793C20.7724 24.0906 20.6455 24.1828 20.5505 24.1149L19.324 23.2382L18.0976 24.1149C18.0026 24.1828 17.8758 24.0907 17.9109 23.9793L18.3657 22.5421L17.153 21.6465C17.059 21.5771 17.1074 21.4281 17.2242 21.4272L18.7316 21.4155L19.2086 19.9854C19.2457 19.8747 19.4024 19.8747 19.4394 19.9854Z" fill="white"/>
<path d="M15.9913 16.5372L16.4683 17.9672L17.9757 17.979C18.0926 17.9799 18.1409 18.129 18.047 18.1982L16.8342 19.0938L17.289 20.5311C17.3243 20.6424 17.1974 20.7345 17.1024 20.6667L15.8759 19.79L14.6495 20.6667C14.5545 20.7346 14.4277 20.6425 14.4628 20.5311L14.9176 19.0938L13.7049 18.1982C13.6109 18.1289 13.6593 17.9799 13.7761 17.979L15.2835 17.9672L15.7605 16.5372C15.7976 16.4264 15.9544 16.4264 15.9913 16.5372Z" fill="white"/>
<path d="M12.5429 13.0889L13.0199 14.5189L14.5273 14.5306C14.6441 14.5316 14.6925 14.6805 14.5985 14.7499L13.3858 15.6455L13.8406 17.0828C13.8758 17.1941 13.749 17.2862 13.6539 17.2184L12.4275 16.3417L11.2011 17.2184C11.1061 17.2863 10.9793 17.1942 11.0144 17.0828L11.4692 15.6455L10.2564 14.7499C10.1625 14.6805 10.2109 14.5316 10.3277 14.5306L11.8351 14.5189L12.3121 13.0889C12.3492 12.978 12.506 12.978 12.5429 13.0889Z" fill="white"/>
<path d="M9.09483 9.64065L9.57183 11.0707L11.0792 11.0824C11.196 11.0834 11.2444 11.2323 11.1505 11.3017L9.93783 12.1972L10.3926 13.6345C10.4279 13.7458 10.301 13.8379 10.206 13.7701L8.97952 12.8934L7.75308 13.7701C7.65811 13.8379 7.53127 13.7459 7.56643 13.6345L8.02121 12.1972L6.80846 11.3017C6.71452 11.2323 6.7629 11.0834 6.87971 11.0824L8.38711 11.0707L8.86411 9.64065C8.90114 9.52984 9.0578 9.52984 9.09483 9.64065Z" fill="white"/>
<path d="M33.2325 33.7783L33.7095 35.2084L35.2169 35.2201C35.3337 35.2211 35.3821 35.37 35.2881 35.4394L34.0754 36.335L34.5302 37.7723C34.5654 37.8836 34.4386 37.9758 34.3436 37.9078L33.1172 37.0312L31.8908 37.9078C31.7958 37.9758 31.6689 37.8837 31.7041 37.7723L32.1589 36.335L30.9461 35.4394C30.8522 35.37 30.9006 35.2211 31.0174 35.2201L32.5248 35.2084L33.0018 33.7783C33.0388 33.6675 33.1956 33.6675 33.2325 33.7783Z" fill="white"/>
<path d="M29.7841 30.3302L30.2611 31.7603L31.7685 31.772C31.8853 31.7729 31.9337 31.9219 31.8397 31.9913L30.627 32.8869L31.0818 34.3242C31.117 34.4354 30.9902 34.5277 30.8952 34.4597L29.6688 33.5831L28.4423 34.4597C28.3474 34.5276 28.2205 34.4355 28.2557 34.3242L28.7105 32.8869L27.4977 31.9913C27.4038 31.9219 27.4521 31.7729 27.569 31.772L29.0764 31.7603L29.5534 30.3302C29.5904 30.2194 29.7471 30.2194 29.7841 30.3302Z" fill="white"/>
<path d="M26.3359 26.882L26.8129 28.3121L28.3203 28.3238C28.4371 28.3248 28.4855 28.4737 28.3915 28.5431L27.1788 29.4387L27.6335 30.876C27.6688 30.9873 27.542 31.0795 27.4469 31.0114L26.2205 30.1348L24.994 31.0114C24.899 31.0793 24.7722 30.9873 24.8074 30.876L25.2621 29.4387L24.0494 28.5431C23.9555 28.4737 24.0038 28.3248 24.1206 28.3238L25.628 28.3121L26.105 26.882C26.1423 26.7713 26.2989 26.7713 26.3359 26.882Z" fill="white"/>
<path d="M22.8879 23.4337L23.3649 24.8638L24.8722 24.8755C24.9891 24.8764 25.0374 25.0254 24.9435 25.0948L23.7308 25.9904L24.1855 27.4276C24.2208 27.5389 24.0939 27.6312 23.9989 27.5632L22.7725 26.6865L21.546 27.5632C21.4511 27.6311 21.3242 27.539 21.3594 27.4276L21.8141 25.9904L20.6014 25.0948C20.5075 25.0254 20.5558 24.8764 20.6727 24.8755L22.18 24.8638L22.657 23.4337C22.6942 23.3229 22.8509 23.3229 22.8879 23.4337Z" fill="white"/>
<path d="M3.93238 8.27597L4.57269 8.74884L4.11791 10.1861C4.08276 10.2974 4.20951 10.3896 4.30457 10.3218L5.53091 9.44512L6.75734 10.3218C6.85231 10.3897 6.97916 10.2976 6.94391 10.1861L6.48922 8.74884L7.12981 8.27597H3.93238Z" fill="white"/>
<path d="M38.665 38.6687L37.1576 38.6569L36.6806 37.2269C36.6437 37.1161 36.487 37.1161 36.45 37.2269L35.9731 38.6569L34.4657 38.6687C34.3489 38.6696 34.3005 38.8187 34.3945 38.8879L35.5272 39.7243H37.6039L38.7366 38.8879C38.8301 38.8186 38.7818 38.6695 38.665 38.6687Z" fill="white"/>
</svg>
