<svg width="48" height="48" viewBox="0 0 48 48" fill="none" xmlns="http://www.w3.org/2000/svg">
<path d="M16 39.7238H0.827625C0.370594 39.7238 0 39.3532 0 38.8962V9.1032C0 8.64617 0.370594 8.27557 0.827625 8.27557H16V39.7238Z" fill="#41479B"/>
<path d="M32.0007 8.27597H16.0004V39.7244H32.0007V8.27597Z" fill="#FFE15A"/>
<path d="M47.1724 39.7238H32V8.27557H47.1724C47.6294 8.27557 48 8.64617 48 9.1032V38.8962C48 39.3533 47.6294 39.7238 47.1724 39.7238Z" fill="#41479B"/>
<path d="M30.6207 19.43C30.6207 19.43 28.3178 19.43 26.5907 21.1571H27.742C27.742 21.1571 26.6266 23.1721 26.0509 26.6264L24.8635 26.4325V21.14L26.0149 21.5169L24 16.5515L21.985 21.5169L23.1364 21.133V26.4324L21.949 26.6263C21.3733 23.1721 20.2579 21.157 20.2579 21.157H21.4092C19.6821 19.43 17.3793 19.43 17.3793 19.43C20.2578 22.8842 20.2578 28.6414 20.2578 28.6414L23.1363 28.1616V32.0957H24.8634V28.1616L27.7419 28.6414C27.7421 28.6415 27.7421 22.8844 30.6207 19.43Z" fill="#464655"/>
</svg>
