<svg width="48" height="48" viewBox="0 0 48 48" fill="none" xmlns="http://www.w3.org/2000/svg">
<path d="M47.9999 23.9999H0V9.10347C0 8.64644 0.370593 8.27585 0.827623 8.27585H47.1724C47.6294 8.27585 48 8.64644 48 9.10347L47.9999 23.9999Z" fill="#FF4B55"/>
<path d="M0 23.9999H47.9999V38.8964C47.9999 39.3534 47.6293 39.724 47.1723 39.724H0.827623C0.370593 39.724 0 39.3534 0 38.8964V23.9999Z" fill="#73AF00"/>
<path d="M24.2519 19.4865L25.293 22.6083L28.5839 22.6339C28.8389 22.6359 28.9445 22.9612 28.7395 23.1127L26.0922 25.0677L27.0849 28.2054C27.1618 28.4485 26.885 28.6496 26.6776 28.5013L24.0002 26.5875L21.3229 28.5013C21.1156 28.6495 20.8387 28.4484 20.9157 28.2054L21.9084 25.0677L19.2611 23.1127C19.056 22.9613 19.1617 22.6359 19.4167 22.6339L22.7075 22.6083L23.7487 19.4865C23.8291 19.2446 24.1712 19.2446 24.2519 19.4865Z" fill="#FFE15A"/>
</svg>
