<svg width="48" height="48" viewBox="0 0 48 48" fill="none" xmlns="http://www.w3.org/2000/svg">
<path d="M19.8621 39.7242H0.827625C0.370594 39.7242 0 39.3536 0 38.8966V9.10361C0 8.64658 0.370594 8.27599 0.827625 8.27599H19.8621V39.7242Z" fill="white"/>
<path d="M13.2414 8.27608L19.8621 10.2415L13.2414 12.207L19.8621 14.1725L13.2414 16.138L19.8621 18.1034L13.2414 20.0689L19.8621 22.0344L13.2414 23.9998L19.8621 25.9653L13.2414 27.9308L19.8621 29.8962L13.2414 31.8617L19.8621 33.8272L13.2414 35.7926L19.8621 37.7581L13.2414 39.7236H47.1723C47.6293 39.7236 47.9999 39.353 47.9999 38.896V9.10361C47.9999 8.64658 47.6293 8.27599 47.1723 8.27599H13.2414V8.27608Z" fill="#FF4B55"/>
</svg>
