<svg width="48" height="48" viewBox="0 0 48 48" fill="none" xmlns="http://www.w3.org/2000/svg">
<path d="M47.1723 39.724H0.827623C0.370593 39.724 0 39.3534 0 38.8964V9.10347C0 8.64644 0.370593 8.27585 0.827623 8.27585H47.1724C47.6294 8.27585 48 8.64644 48 9.10347V38.8964C47.9999 39.3535 47.6293 39.724 47.1723 39.724Z" fill="#FF4B55"/>
<path d="M23.1723 23.9999H0.827623C0.370593 23.9999 0 23.6293 0 23.1723V9.10347C0 8.64644 0.370593 8.27585 0.827623 8.27585H23.1723C23.6294 8.27585 24 8.64644 24 9.10347V23.1724C23.9999 23.6295 23.6295 23.9999 23.1723 23.9999Z" fill="#41479B"/>
<path d="M23.1723 8.27585H21.7349L14.0689 13.2983V8.27585H9.93101V13.2983L2.26509 8.27585H0.827623C0.370593 8.27585 0 8.64644 0 9.10347V9.75991L6.57702 14.0689H0V18.2069H6.57702L0 22.516V23.1723C0 23.6293 0.370593 23.9999 0.827623 23.9999H2.26509L9.93101 18.9775V23.9999H14.0689V18.9775L21.7348 23.9999H23.1722C23.6293 23.9999 23.9999 23.6293 23.9999 23.1723V22.5159L17.4229 18.2069H23.9999V14.0689H17.4228L23.9999 9.75991V9.10347C23.9999 8.64644 23.6295 8.27585 23.1723 8.27585Z" fill="white"/>
<path d="M23.9999 14.8966H13.2413V8.27585H10.7585V14.8966H0V17.3792H10.7585V23.9999H13.2413V17.3792H23.9999V14.8966Z" fill="#FF4B55"/>
<path d="M9.10339 14.0689L0.394405 8.41571C0.162656 8.56243 0 8.8088 0 9.10346V9.1464L7.58333 14.0689H9.10339Z" fill="#FF4B55"/>
<path d="M15.5891 14.0689L23.8742 8.69088C23.7302 8.44722 23.4761 8.27585 23.1725 8.27585H22.9935L14.0691 14.0689H15.5891Z" fill="#FF4B55"/>
<path d="M8.38813 18.2068L0.118931 23.5746C0.261524 23.8242 0.519524 23.9999 0.827586 23.9999H0.983679L9.90819 18.2068H8.38813Z" fill="#FF4B55"/>
<path d="M23.9867 23.2375L16.2368 18.2069H14.7169L23.5174 23.9195C23.7812 23.7971 23.9619 23.5407 23.9867 23.2375Z" fill="#FF4B55"/>
<path d="M30.0885 16.3152C29.9253 16.3152 29.7929 16.4475 29.7929 16.6108V27.5467C29.7929 28.4334 30.384 31.389 35.9998 32.2757C41.6156 31.389 42.2067 28.4334 42.2067 27.5467V16.6109C42.2067 16.4477 42.0745 16.3153 41.9111 16.3153L30.0885 16.3152Z" fill="white"/>
<path d="M35.9996 32.2758C40.6875 31.5357 41.8731 29.3546 42.1373 28.1379H29.862C30.1261 29.3545 31.3117 31.5357 35.9996 32.2758Z" fill="#73AF00"/>
<path d="M39.8423 22.5222C39.8423 22.5222 40.1379 22.2266 39.8423 21.6355L36 21.4636L32.1576 21.6355C31.862 22.2266 32.1576 22.5222 32.1576 22.5222C31.862 22.8178 31.862 23.1133 31.862 23.1133H32.4531L33.0935 24.1724L35.9999 25.7733L38.9063 24.1724L39.5467 23.1133H40.1378C40.1379 23.1133 40.1379 22.8178 39.8423 22.5222Z" fill="#82AFFF"/>
<path d="M38.9066 24.1724C38.9066 24.1724 38.7218 23.766 38.2292 23.8153C38.2292 23.8153 37.9583 23.4582 37.5026 23.5566C37.5026 23.5566 36.973 23.2487 36.6652 23.8153C36.6652 23.8153 35.6861 23.7157 35.6338 24.4613C35.6338 24.4613 37.1577 26.7586 37.1948 26.7832C37.2317 26.8079 39.0175 26.7955 39.0175 26.7955L39.8426 25.8851L39.0297 24.7142L38.9066 24.1724Z" fill="white"/>
<path d="M36.0368 24.899C36.0368 24.899 34.7439 22.787 34.5589 22.6083C34.3803 22.4359 34.0293 22.2759 33.6721 22.5714C33.6721 22.5714 32.6007 22.4852 32.7484 23.298L33.0563 24.5296C33.0563 24.5296 32.7853 25.3794 32.6621 25.4656C32.539 25.5518 32.0833 25.7858 32.0833 25.7858L32.342 26.8079L35.7902 26.6355L36.0368 24.899Z" fill="#F0C850"/>
<path d="M37.5269 23.9753L37.5228 23.9771L37.4275 23.752C37.4198 23.7338 37.4052 23.7193 37.3868 23.7121C37.3685 23.7049 37.3481 23.7052 37.3297 23.7132L36.6883 23.9961L35.9253 22.7472C35.9592 22.7181 35.9739 22.6706 35.958 22.6263C35.9373 22.5686 35.8739 22.5386 35.8162 22.5591L35.6462 22.6199L35.5311 22.28C35.518 22.2413 35.4763 22.2211 35.4375 22.2336C35.3988 22.2468 35.378 22.2887 35.3912 22.3274L35.507 22.67L35.3253 22.7351C35.2676 22.7559 35.2376 22.8193 35.2583 22.8768C35.2744 22.9221 35.3172 22.9505 35.3627 22.9505C35.369 22.9505 35.3756 22.9483 35.3821 22.9472L35.6335 24.4616L35.4713 24.533C35.436 24.5487 35.4184 24.589 35.4316 24.6253L35.5235 24.8815C35.5258 24.9246 35.5256 24.9973 35.5109 25.0894L34.4791 23.3195C34.5224 23.2924 34.544 23.2397 34.5261 23.1898C34.5053 23.1321 34.4424 23.1018 34.3844 23.1226L34.2143 23.1835L34.0993 22.8435C34.0863 22.8048 34.0443 22.7841 34.0056 22.7971C33.9669 22.8103 33.9462 22.8523 33.9593 22.891L34.0752 23.2335L33.8934 23.2986C33.8358 23.3194 33.8058 23.3829 33.8265 23.4403C33.8413 23.4817 33.8789 23.5061 33.9198 23.5105L34.3676 26.3055C34.3098 26.3298 34.253 26.3545 34.1894 26.3771C34.1894 26.3771 33.98 27.3747 34.1402 27.424C34.3003 27.4732 35.9505 27.9781 35.9505 27.9781C35.9505 27.9781 38.2288 26.8944 38.2781 26.8698C38.3273 26.8451 38.4259 26.1309 38.4259 26.1309L37.5269 23.9753ZM37.3871 24.0354L37.1963 24.1173L37.1331 23.9614L37.3205 23.8787L37.3871 24.0354ZM36.234 24.3579L36.3908 24.2888L36.4511 24.4374L36.2851 24.5087L36.234 24.3579ZM36.1487 24.5671L35.9633 24.6468L35.905 24.503L36.0983 24.4178L36.1487 24.5671ZM36.5867 24.3791L36.5259 24.2292L36.6935 24.1553L36.7549 24.307L36.5867 24.3791ZM36.8286 24.0957L36.9979 24.021L37.0607 24.1756L36.8906 24.2487L36.8286 24.0957ZM35.7876 22.805L36.5519 24.0562L36.1865 24.2172L35.7173 22.8301L35.7876 22.805ZM35.5238 22.8995L35.578 22.8801L36.0507 24.2773L35.7729 24.3998L35.5238 22.8995ZM35.7698 24.5627L35.8277 24.7053L35.6453 24.7836L35.5939 24.6403L35.7698 24.5627ZM34.34 23.3741L35.4592 25.294C35.4029 25.4568 35.2966 25.6458 35.1102 25.8313L34.2855 23.3935L34.34 23.3741ZM34.0638 23.4731L34.1464 23.4434L34.991 25.9402C34.863 26.0464 34.7037 26.1491 34.5077 26.2431L34.0638 23.4731Z" fill="#965032"/>
<path d="M40.1103 21.1875C40.0318 21.0629 39.7799 21.1163 39.7799 21.1163C39.7799 21.1163 39.708 20.9725 39.518 20.9586C39.3279 20.9447 39.293 21.114 39.293 21.114C39.293 21.114 39.2574 21.0875 39.0481 21.0937C38.8387 21.0999 38.8819 21.4447 38.8819 21.4447C38.8819 21.4447 38.8018 21.4447 38.5309 21.3585C38.2599 21.2723 38.0814 21.3339 38.0814 21.3339C38.0691 21.1922 37.9953 21.0876 37.9953 21.0876C37.7675 21.18 37.5889 21.0753 37.5458 20.9953C37.5027 20.9152 37.6136 20.7921 37.6136 20.6874C37.6136 20.5827 37.4689 20.5874 37.4181 20.495C37.3672 20.4027 37.4181 20.3519 37.552 20.2919C37.686 20.2319 37.8107 20.0101 37.7274 19.83C37.6442 19.65 37.4042 19.6822 37.4042 19.6822C37.4873 19.6961 37.5565 19.8531 37.4227 19.8854C37.2889 19.9176 37.1688 19.4281 37.1688 19.4281C37.4781 19.636 37.7046 19.5113 37.7691 19.3311C37.8338 19.1509 37.6629 19.0263 37.6629 19.0263C37.529 19.2434 37.2981 19.0541 37.4228 18.9155C37.5475 18.777 37.5582 18.5446 37.5582 18.5446C37.2811 18.6801 37.1088 18.5076 37.1088 18.5076C37.4721 18.2552 37.3674 17.898 37.3674 17.898C37.2321 17.8364 36.9426 17.8857 36.9426 17.8857C37.0042 17.7625 36.9918 17.5408 36.9918 17.5408C36.8378 17.5161 36.6654 17.6146 36.6654 17.6146C36.7147 17.4423 36.6469 17.1406 36.6469 17.1406C36.5361 17.1591 36.3267 17.2206 36.3267 17.2206C36.2406 17.0236 36.0004 16.9066 36.0004 16.9066C36.0004 16.9066 35.7603 17.0236 35.674 17.2206C35.674 17.2206 35.4647 17.159 35.3539 17.1406C35.3539 17.1406 35.2861 17.4423 35.3353 17.6146C35.3353 17.6146 35.1629 17.5162 35.009 17.5408C35.009 17.5408 34.9967 17.7625 35.0582 17.8857C35.0582 17.8857 34.7688 17.8365 34.6333 17.898C34.6333 17.898 34.5286 18.2551 34.892 18.5076C34.892 18.5076 34.7196 18.68 34.4425 18.5446C34.4425 18.5446 34.4533 18.777 34.5779 18.9155C34.7026 19.0541 34.4717 19.2435 34.3378 19.0263C34.3378 19.0263 34.1669 19.151 34.2316 19.3311C34.2963 19.5112 34.5226 19.6359 34.832 19.4281C34.832 19.4281 34.7119 19.9177 34.578 19.8854C34.4441 19.8531 34.5133 19.6961 34.5966 19.6822C34.5966 19.6822 34.3565 19.6499 34.2733 19.83C34.1902 20.0101 34.3149 20.2319 34.4487 20.2919C34.5827 20.3519 34.6335 20.4027 34.5827 20.495C34.5319 20.5874 34.3871 20.5828 34.3871 20.6874C34.3871 20.7921 34.4979 20.9152 34.4549 20.9953C34.4118 21.0753 34.2332 21.18 34.0055 21.0876C34.0055 21.0876 33.9316 21.1923 33.9193 21.3339C33.9193 21.3339 33.7407 21.2723 33.4699 21.3585C33.1989 21.4447 33.1189 21.4447 33.1189 21.4447C33.1189 21.4447 33.162 21.0999 32.9527 21.0937C32.7433 21.0875 32.7077 21.114 32.7077 21.114C32.7077 21.114 32.6729 20.9447 32.4828 20.9586C32.2928 20.9726 32.2209 21.1163 32.2209 21.1163C32.2209 21.1163 31.9689 21.063 31.8905 21.1875C31.812 21.3122 31.8027 21.5016 31.9505 21.5802C32.0983 21.6587 32.4908 21.9866 32.4908 21.9866L33.0449 22.2267L34.9846 21.3676L36.0006 21.6355L37.0165 21.3676L38.9562 22.2267L39.5104 21.9866C39.5104 21.9866 39.903 21.6586 40.0506 21.5802C40.198 21.5015 40.1888 21.3121 40.1103 21.1875Z" fill="#FF4B55"/>
<path d="M35.395 18.0574C35.395 18.0574 35.4159 18.3183 35.8018 18.2487C35.8017 18.2487 35.7914 17.9775 35.395 18.0574Z" fill="white"/>
<path d="M33.967 28.3596C33.967 28.3596 33.6899 28.3504 33.4036 28.5628C33.1173 28.7752 32.991 28.6244 32.7047 28.6244C32.4184 28.6244 32.3506 28.9231 32.3506 28.9231C32.3506 28.9231 31.7965 29.0616 32.0182 29.468C32.1584 29.7251 32.3534 29.7197 32.4783 29.681C32.472 29.8537 32.5113 30.0435 32.7109 30.0777C33.0897 30.1424 33.2559 29.9391 33.1727 29.6251C33.1727 29.6251 33.2189 29.9483 33.4683 29.9391C33.7177 29.9299 33.884 29.7913 33.8563 29.4588C33.8285 29.1264 34.272 29.3296 34.6136 28.84L33.967 28.3596Z" fill="#FF4B55"/>
<path d="M32.3474 29.548C32.3474 29.548 32.175 29.7758 32.2244 29.9974C32.2244 29.9974 31.855 29.8804 32.052 29.3323C32.0519 29.3324 32.3044 29.2647 32.3474 29.548Z" fill="#82AFFF"/>
<path d="M32.9279 29.8466C32.9279 29.8466 32.8263 30.133 32.9649 30.3869C32.9649 30.3869 32.5031 30.3731 32.5955 29.805C32.5955 29.805 32.7433 29.6527 32.9279 29.8466Z" fill="#82AFFF"/>
<path d="M33.3898 29.8189C33.3898 29.8189 33.4729 30.059 33.3898 30.29C33.3898 30.29 33.7685 30.2669 33.7039 29.7219C33.7038 29.7219 33.5006 29.6481 33.3898 29.8189Z" fill="#82AFFF"/>
<path d="M33.0525 24.2956C33.0175 24.0108 31.2329 23.843 31.3437 25.3425C31.3437 25.3425 31.1457 25.3388 31.0484 25.5231C30.9511 25.7074 30.7424 25.6622 30.6797 25.5961C30.6797 25.5961 30.6936 25.93 31.1074 25.916C31.1074 25.916 30.9765 26.0191 30.995 26.1699C31.0136 26.3206 31.1224 26.5107 31.1156 26.6405C31.1087 26.7703 30.9857 26.9512 30.9857 26.9512C30.9857 26.9512 31.3034 26.8423 31.3242 26.6151C31.3451 26.3879 31.2941 26.1978 31.3566 26.0819C31.3566 26.0819 31.3265 26.2419 31.4679 26.4436C31.6093 26.6454 31.6162 26.891 31.5583 27.044C31.5583 27.044 31.9106 26.8701 31.8434 26.534C31.7761 26.1979 31.7042 26.228 31.7367 26.0402C31.7367 26.0402 32.103 26.4134 32.0404 26.7311C32.0404 26.7311 32.1575 26.5908 32.1471 26.3266C32.1367 26.0624 31.9532 25.8846 31.9532 25.8846C31.9532 25.8846 33.1725 25.2747 33.0525 24.2956Z" fill="#FF4B55"/>
<path d="M38.0329 28.3596C38.0329 28.3596 38.3101 28.3504 38.5963 28.5628C38.8826 28.7752 39.0089 28.6244 39.2952 28.6244C39.5815 28.6244 39.6493 28.9231 39.6493 28.9231C39.6493 28.9231 40.2034 29.0616 39.9817 29.468C39.8415 29.7251 39.6464 29.7197 39.5216 29.681C39.5279 29.8537 39.4886 30.0435 39.289 30.0777C38.9102 30.1424 38.744 29.9391 38.8272 29.6251C38.8272 29.6251 38.781 29.9483 38.5316 29.9391C38.2822 29.9299 38.1159 29.7913 38.1436 29.4588C38.1714 29.1264 37.728 29.3296 37.3863 28.84L38.0329 28.3596Z" fill="#FF4B55"/>
<path d="M39.6526 29.548C39.6526 29.548 39.825 29.7758 39.7757 29.9974C39.7757 29.9974 40.145 29.8804 39.9481 29.3323C39.9481 29.3324 39.6956 29.2647 39.6526 29.548Z" fill="#82AFFF"/>
<path d="M39.072 29.8466C39.072 29.8466 39.1736 30.133 39.0351 30.3869C39.0351 30.3869 39.4969 30.3731 39.4045 29.805C39.4047 29.805 39.2568 29.6527 39.072 29.8466Z" fill="#82AFFF"/>
<path d="M38.6104 29.8189C38.6104 29.8189 38.5273 30.059 38.6104 30.29C38.6104 30.29 38.2317 30.2669 38.2964 29.7219C38.2963 29.7219 38.4996 29.6481 38.6104 29.8189Z" fill="#82AFFF"/>
<path d="M38.9476 24.2956C38.9825 24.0108 40.7672 23.843 40.6563 25.3425C40.6563 25.3425 40.8543 25.3388 40.9516 25.5231C41.049 25.7074 41.2576 25.6622 41.3203 25.5961C41.3203 25.5961 41.3064 25.93 40.8926 25.916C40.8926 25.916 41.0236 26.0191 41.005 26.1699C40.9864 26.3206 40.8774 26.5107 40.8844 26.6405C40.8914 26.7703 41.0143 26.9512 41.0143 26.9512C41.0143 26.9512 40.6967 26.8423 40.6758 26.6151C40.6549 26.3879 40.7059 26.1978 40.6434 26.0819C40.6434 26.0819 40.6735 26.2419 40.5321 26.4436C40.3907 26.6454 40.3838 26.891 40.4417 27.044C40.4417 27.044 40.0894 26.8701 40.1567 26.534C40.2239 26.1979 40.2958 26.228 40.2633 26.0402C40.2633 26.0402 39.8971 26.4134 39.9596 26.7311C39.9596 26.7311 39.8425 26.5908 39.8529 26.3266C39.8633 26.0624 40.0468 25.8846 40.0468 25.8846C40.0468 25.8846 38.8275 25.2747 38.9476 24.2956Z" fill="#FF4B55"/>
<path d="M39.6775 21.7399C39.6096 21.6943 39.5178 21.7133 39.4726 21.7818C39.3792 21.9229 39.256 22.0055 39.0963 22.0341C38.5675 22.1259 37.8051 21.6052 37.5837 21.4424C37.2628 21.2065 36.8664 21.1655 36.6032 21.3276C36.4982 21.3624 36.1772 21.4635 36 21.4635C35.8228 21.4635 35.5018 21.3623 35.3968 21.3276C35.1337 21.1655 34.7372 21.2065 34.4164 21.4424C34.1951 21.6052 33.4326 22.1258 32.9038 22.0341C32.744 22.0055 32.6209 21.923 32.5274 21.7818C32.4823 21.7135 32.3905 21.6945 32.3226 21.7399C32.2545 21.7849 32.2359 21.8768 32.2809 21.9446C32.4194 22.1542 32.6115 22.282 32.8519 22.3249C32.9127 22.3359 32.9747 22.3408 33.0379 22.3408C33.6019 22.3408 34.2401 21.9384 34.5912 21.6807C34.8523 21.489 35.1449 21.4893 35.2768 21.6004C35.31 21.6286 35.3479 21.6732 35.3388 21.7254C35.3339 21.754 35.3151 21.7797 35.2838 21.8013C35.2914 21.756 35.2776 21.7078 35.2426 21.6726C35.1849 21.6149 35.0914 21.6149 35.0337 21.6726C34.9585 21.7474 34.9503 21.8688 35.0136 21.9676C35.0773 22.0666 35.2144 22.139 35.3773 22.0787C35.4601 22.0479 35.5263 21.9889 35.5722 21.9167C35.7968 21.8514 36.0001 21.8509 36.0001 21.8509C36.0001 21.8509 36.2035 21.8513 36.4281 21.9167C36.4739 21.9889 36.5401 22.0479 36.6229 22.0787C36.7858 22.139 36.9229 22.0666 36.9867 21.9676C37.0499 21.8689 37.0418 21.7474 36.9666 21.6726C36.9089 21.6149 36.8154 21.6149 36.7576 21.6726C36.7227 21.7078 36.709 21.756 36.7165 21.8013C36.6852 21.7797 36.6664 21.754 36.6614 21.7254C36.6523 21.6732 36.6902 21.6286 36.7235 21.6004C36.8553 21.4893 37.1479 21.489 37.4091 21.6807C37.7602 21.9385 38.3984 22.3408 38.9624 22.3408C39.0255 22.3408 39.0876 22.3359 39.1484 22.3249C39.3887 22.2819 39.5808 22.154 39.7194 21.9446C39.7642 21.8768 39.7456 21.7849 39.6775 21.7399Z" fill="#FFE15A"/>
<path d="M32.2341 21.9031C32.2341 21.9031 32.2098 21.5728 32.1993 21.465C32.1888 21.3572 31.9872 21.2773 31.9106 21.3851C31.8341 21.4929 31.8134 21.6911 32.2341 21.9031Z" fill="#82AFFF"/>
<path d="M32.3055 21.7971C32.3055 21.7971 32.5965 21.5615 32.5595 21.4369C32.5226 21.3122 32.4441 21.2476 32.3471 21.2846C32.2499 21.3215 32.2039 21.5477 32.3055 21.7971Z" fill="#82AFFF"/>
<path d="M32.8735 21.6123C32.9154 21.5705 32.929 21.3676 32.8135 21.3445C32.6981 21.3214 32.5457 21.5015 32.5549 21.7232C32.5549 21.7231 32.795 21.6909 32.8735 21.6123Z" fill="#82AFFF"/>
<path d="M32.7532 21.7278C32.6193 21.7707 32.49 21.8848 32.49 21.8848C32.49 21.8848 32.7301 22.0603 32.8964 22.0049C33.0627 21.9496 32.9842 21.6539 32.7532 21.7278Z" fill="#82AFFF"/>
<path d="M36.6051 18.0574C36.6051 18.0574 36.5842 18.3183 36.1982 18.2487C36.1982 18.2487 36.2087 17.9775 36.6051 18.0574Z" fill="white"/>
<path d="M39.7658 21.9031C39.7658 21.9031 39.7901 21.5728 39.8006 21.465C39.811 21.3572 40.0127 21.2773 40.0892 21.3851C40.1657 21.4929 40.1866 21.6911 39.7658 21.9031Z" fill="#82AFFF"/>
<path d="M39.6947 21.7971C39.6947 21.7971 39.4037 21.5615 39.4408 21.4369C39.4777 21.3122 39.5562 21.2476 39.6532 21.2846C39.7502 21.3215 39.7963 21.5477 39.6947 21.7971Z" fill="#82AFFF"/>
<path d="M39.1266 21.6123C39.0848 21.5705 39.0712 21.3676 39.1866 21.3445C39.302 21.3214 39.4544 21.5015 39.4452 21.7232C39.4451 21.7231 39.205 21.6909 39.1266 21.6123Z" fill="#82AFFF"/>
<path d="M39.2467 21.7278C39.3807 21.7707 39.5099 21.8848 39.5099 21.8848C39.5099 21.8848 39.2698 22.0603 39.1035 22.0049C38.9371 21.9496 39.0158 21.6539 39.2467 21.7278Z" fill="#82AFFF"/>
<path d="M35.8472 18.672L35.9644 18.7892C35.9841 18.8088 36.0161 18.8088 36.0357 18.7892L36.1528 18.672C36.1846 18.6402 36.1621 18.5859 36.1171 18.5859H35.8827C35.8379 18.5859 35.8155 18.6402 35.8472 18.672Z" fill="#464655"/>
<path d="M35.7859 19.1526C35.699 19.1526 35.6238 19.1215 35.5727 19.0639C35.5198 19.0041 35.4974 18.9219 35.5107 18.8382C35.5155 18.8101 35.5436 18.7932 35.57 18.7954C35.5982 18.8001 35.6173 18.8266 35.6128 18.8549C35.6044 18.9077 35.6179 18.9587 35.65 18.9951C35.6832 19.0323 35.7339 19.0497 35.7962 19.0488C35.9261 19.0437 35.9479 18.9166 35.9488 18.9115L35.9482 18.6796C35.9482 18.6511 35.9712 18.628 35.9998 18.628C36.0284 18.628 36.0515 18.6511 36.0515 18.6796V18.9196C36.0389 19.0024 35.9712 19.1453 35.8002 19.1522C35.7956 19.1526 35.7907 19.1526 35.7859 19.1526Z" fill="#464655"/>
<path d="M36.2143 19.1526C36.2095 19.1526 36.2046 19.1526 36.1996 19.1523C36.0286 19.1454 35.9609 19.0025 35.9489 18.9277L35.9483 18.6797C35.9483 18.6511 35.9713 18.6281 35.9999 18.6281C36.0285 18.6281 36.0516 18.6511 36.0516 18.6797V18.9196C36.0534 18.9248 36.0776 19.044 36.2036 19.0489C36.2676 19.05 36.3164 19.0331 36.3497 18.9952C36.3819 18.9588 36.3955 18.9078 36.3869 18.855C36.3825 18.8267 36.4016 18.8001 36.4298 18.7955C36.4568 18.7921 36.4845 18.81 36.489 18.8383C36.5024 18.922 36.4799 19.0042 36.4272 19.064C36.3763 19.1215 36.3012 19.1526 36.2143 19.1526Z" fill="#464655"/>
<path d="M37.7733 26.6601C37.7733 26.6601 37.4039 26.069 36.9728 26.463C36.5418 26.8572 36.3817 27.3375 35.8891 27.3004C35.6188 27.2802 35.4807 27.1567 35.409 27.0488C35.5399 26.9411 35.6327 26.7775 35.532 26.5368C35.3103 26.0072 34.4976 26.1675 34.2758 26.7462C34.2758 26.7462 34.5345 25.8964 33.6354 26.1797C33.6354 26.1797 33.5246 25.5886 33.0074 25.7487C32.7262 25.8358 32.6221 26.0088 32.5835 26.1498C32.4746 26.1245 32.3348 26.1253 32.2069 26.229L32.8596 27.99L33.8448 28.0023L34.0665 28.3348L35.3596 29.1476L35.5936 29.6402H36.4064C36.4064 29.6402 36.468 29.1353 36.8991 28.9875C37.3301 28.8397 38.032 28.5318 38.106 28.2609C38.1799 27.99 38.1799 27.99 38.1799 27.99L38.968 28.0022C39.0542 27.9406 39.6331 26.9924 39.6331 26.9924L39.9018 25.7711C39.7534 25.7498 38.0559 25.5296 37.7733 26.6601Z" fill="white"/>
<path d="M39.9036 25.761L39.9014 25.7713C39.9082 25.7722 39.916 25.7734 39.916 25.7734L39.9036 25.761Z" fill="white"/>
<path d="M34.5397 28.5483C34.2204 28.4196 34.1064 28.2392 34.0669 28.1431C34.0303 28.0543 34.0375 27.9913 34.0475 27.9682C34.0679 27.9211 34.0925 27.8911 34.1155 27.8853C34.1372 27.8802 34.1645 27.8925 34.1695 27.8956C34.1798 27.9074 34.1854 27.9449 34.1754 27.9542C34.116 28.0102 34.1133 28.1037 34.1691 28.1632C34.2253 28.2226 34.3185 28.2253 34.3781 28.1695C34.4389 28.1124 34.4737 28.0324 34.4761 27.9444C34.4789 27.8501 34.4443 27.7559 34.384 27.6924C34.3234 27.6283 34.1992 27.57 34.0669 27.5937C34.0396 27.5984 34.0088 27.6096 33.9774 27.6248C33.9981 27.42 33.9192 27.3152 33.8613 27.2729C33.7639 27.2022 33.6252 27.2006 33.5085 27.2689C33.3891 27.339 33.3246 27.4618 33.3404 27.5888C33.3505 27.6699 33.4318 27.7184 33.5111 27.7075C33.5921 27.6976 33.6558 27.614 33.6458 27.5332C33.6626 27.5179 33.6846 27.5128 33.6839 27.5092C33.6842 27.5095 33.7037 27.5418 33.6801 27.6461C33.6433 27.8094 33.557 27.9099 33.4233 27.9451C33.2569 27.9911 33.0437 27.9209 32.9177 27.7826C32.7425 27.5897 32.3757 26.5665 32.1576 25.885C33.0924 25.4416 33.2073 24.705 33.1895 24.2946C33.1625 23.6694 32.7885 23.0297 32.3725 22.8978C32.2088 22.8462 31.9637 22.8355 31.7857 22.9273C31.685 22.9799 31.615 23.0603 31.5835 23.1604C31.5193 23.3647 31.6478 23.5336 31.8016 23.5888C31.9608 23.6459 32.1215 23.5771 32.1832 23.4251C32.2139 23.3494 32.1804 23.2629 32.1049 23.2322C32.0288 23.2008 31.9461 23.2377 31.9156 23.313C31.9094 23.3164 31.8889 23.3087 31.8736 23.2914C31.8625 23.2786 31.8602 23.2663 31.8656 23.2493C31.8705 23.2336 31.8816 23.2106 31.9223 23.1895C32.0189 23.139 32.1803 23.1467 32.2835 23.1794C32.5215 23.2546 32.869 23.7203 32.8943 24.3071C32.9094 24.6578 32.803 25.3006 31.9205 25.6669C31.8497 25.6964 31.8132 25.7746 31.8361 25.8477C31.8937 26.0321 32.4078 27.6609 32.699 27.9809C32.8556 28.1533 33.0923 28.2534 33.3187 28.2534C33.38 28.2534 33.4407 28.2462 33.4987 28.2308C33.5975 28.2046 33.6799 28.1537 33.7516 28.0898C33.7587 28.144 33.7713 28.1995 33.7941 28.255C33.8512 28.3941 34.0098 28.6528 34.4523 28.8311C35.3473 29.1901 35.4323 29.4302 35.4274 29.5171C35.4247 29.5648 35.3974 29.5895 35.3752 29.602C35.3656 29.6075 35.356 29.6109 35.3478 29.6129C35.3808 29.5677 35.3868 29.5056 35.3577 29.4533C35.3178 29.382 35.228 29.3565 35.1567 29.3964C35.0561 29.4526 34.986 29.5852 35.0461 29.73C35.0929 29.8426 35.2027 29.9108 35.3295 29.9108C35.3498 29.9108 35.3706 29.909 35.3916 29.9053C35.5757 29.8741 35.7116 29.7214 35.7225 29.5341C35.7478 29.0862 35.0721 28.7621 34.5397 28.5483Z" fill="#FFE15A"/>
<path d="M37.46 28.5483C37.7793 28.4196 37.8933 28.2392 37.9328 28.1431C37.9695 28.0543 37.9623 27.9913 37.9522 27.9682C37.9319 27.9211 37.9072 27.8911 37.8842 27.8853C37.8626 27.8802 37.8352 27.8925 37.8302 27.8956C37.8199 27.9074 37.8144 27.9449 37.8243 27.9542C37.8839 28.0102 37.8865 28.1037 37.8306 28.1632C37.7745 28.2226 37.6813 28.2253 37.6217 28.1695C37.5609 28.1124 37.526 28.0324 37.5237 27.9444C37.521 27.8501 37.5555 27.7559 37.6157 27.6924C37.6763 27.6283 37.8005 27.57 37.9329 27.5937C37.9602 27.5984 37.9909 27.6096 38.0223 27.6248C38.0016 27.42 38.0806 27.3152 38.1385 27.2729C38.2359 27.2022 38.3746 27.2006 38.4913 27.2689C38.6106 27.339 38.6751 27.4618 38.6594 27.5888C38.6492 27.6699 38.568 27.7184 38.4887 27.7075C38.4077 27.6976 38.344 27.614 38.3539 27.5332C38.3372 27.5179 38.3151 27.5128 38.3159 27.5092C38.3156 27.5095 38.2961 27.5418 38.3196 27.6461C38.3565 27.8094 38.4428 27.9099 38.5765 27.9451C38.7429 27.9911 38.9561 27.9209 39.0821 27.7826C39.2573 27.5897 39.6241 26.5665 39.8421 25.885C38.9073 25.4416 38.7925 24.705 38.8102 24.2946C38.8372 23.6694 39.2113 23.0297 39.6272 22.8978C39.7909 22.8462 40.0361 22.8355 40.214 22.9273C40.3148 22.9799 40.3847 23.0603 40.4162 23.1604C40.4805 23.3647 40.3519 23.5336 40.1982 23.5888C40.039 23.6459 39.8783 23.5771 39.8165 23.4251C39.7859 23.3494 39.8193 23.2629 39.8949 23.2322C39.9709 23.2008 40.0537 23.2377 40.0842 23.313C40.0904 23.3164 40.1109 23.3087 40.1262 23.2914C40.1372 23.2786 40.1396 23.2663 40.1342 23.2493C40.1293 23.2336 40.1181 23.2106 40.0774 23.1895C39.9809 23.139 39.8194 23.1467 39.7163 23.1794C39.4783 23.2546 39.1307 23.7203 39.1054 24.3071C39.0903 24.6578 39.1967 25.3006 40.0793 25.6669C40.1501 25.6964 40.1866 25.7746 40.1637 25.8477C40.106 26.0321 39.592 27.6609 39.3008 27.9809C39.1442 28.1533 38.9074 28.2534 38.681 28.2534C38.6197 28.2534 38.5591 28.2462 38.501 28.2308C38.4023 28.2046 38.3199 28.1537 38.2482 28.0898C38.2411 28.144 38.2285 28.1995 38.2056 28.255C38.1485 28.3941 37.99 28.6528 37.5475 28.8311C36.6525 29.1901 36.5674 29.4302 36.5723 29.5171C36.5751 29.5648 36.6023 29.5895 36.6245 29.602C36.6342 29.6075 36.6437 29.6109 36.6519 29.6129C36.6189 29.5677 36.6129 29.5056 36.6421 29.4533C36.6819 29.382 36.7717 29.3565 36.8431 29.3964C36.9437 29.4526 37.0138 29.5852 36.9537 29.73C36.9068 29.8426 36.797 29.9108 36.6703 29.9108C36.6499 29.9108 36.6291 29.909 36.6081 29.9053C36.4241 29.8741 36.2882 29.7214 36.2773 29.5341C36.2519 29.0862 36.9276 28.7621 37.46 28.5483Z" fill="#FFE15A"/>
</svg>
