<svg width="48" height="48" viewBox="0 0 48 48" fill="none" xmlns="http://www.w3.org/2000/svg">
<path d="M47.1723 39.7241H0.827623C0.370593 39.7241 0 39.3535 0 38.8964V9.10349C0 8.64646 0.370593 8.27586 0.827623 8.27586H47.1724C47.6294 8.27586 48 8.64646 48 9.10349V38.8964C47.9999 39.3536 47.6293 39.7241 47.1723 39.7241Z" fill="#FFE15A"/>
<path d="M0 9.1035V14.069L47.9999 33.931V28.1379L0.372937 8.43028C0.153281 8.57897 0 8.81813 0 9.1035Z" fill="white"/>
<path d="M0 19.8621L47.6269 39.5697C47.8465 39.4209 47.9998 39.1817 47.9998 38.8965V33.931L0 14.069V19.8621Z" fill="#464655"/>
<path d="M28.6486 22.5306L28.6492 22.5071C28.6492 22.5071 28.6383 22.3938 28.6175 22.1811C28.6113 22.0748 28.5868 21.9453 28.5545 21.7944C28.5296 21.6422 28.4814 21.4719 28.4195 21.2841C28.2952 20.9112 28.1039 20.4661 27.7735 20.0351C27.7336 19.9819 27.6863 19.9293 27.6428 19.8763C27.8302 19.6614 28.013 19.4115 28.1855 19.1099C28.1855 19.1099 27.2405 19.1532 26.1791 18.6901C25.8288 18.5077 25.4482 18.3579 25.0309 18.2599L24.8329 17.468C24.7905 17.2987 24.6382 17.1798 24.4638 17.1798H24.19V16.7994H25.5218L25.1414 16.0383L25.5218 15.2772H24.19V14.8967H23.8094V17.1798H23.5356C23.361 17.1798 23.2088 17.2987 23.1666 17.468L22.9729 18.2428C22.7158 18.2976 22.4598 18.367 22.2112 18.4727C22.0079 18.5541 21.8112 18.6561 21.6192 18.7703C20.643 19.145 19.8139 19.11 19.8139 19.11C19.9862 19.4114 20.1687 19.6613 20.356 19.876C20.3181 19.9222 20.276 19.9636 20.2392 20.011C19.98 20.3631 19.773 20.7589 19.615 21.1792C19.4647 21.5873 19.3793 22.1052 19.3507 22.4839L19.35 22.85C19.3461 22.9649 19.3593 23.0788 19.3714 23.1931C19.3864 23.4234 19.4373 23.6483 19.4853 23.8748C19.604 24.3208 19.7776 24.7548 20.0143 25.1532C20.4881 25.9513 21.2107 26.5805 22.021 26.9706C22.4396 27.155 22.8351 27.2955 23.3069 27.3625C23.5582 27.4093 23.7148 27.4086 23.901 27.4248L23.9348 27.4272L23.9518 27.4284L24.007 27.4298L24.0862 27.4266L24.2441 27.4194C24.3489 27.4124 24.4537 27.4137 24.5564 27.3984C25.3844 27.3076 26.1307 26.9857 26.7135 26.5676C27.2961 26.1422 27.7146 25.6233 28.0013 25.1287C28.2925 24.6336 28.4427 24.1545 28.5353 23.7621C28.5796 23.5661 28.6125 23.3871 28.6245 23.2187C28.6433 23.052 28.6543 22.9155 28.6493 22.8263C28.649 22.6334 28.6486 22.5306 28.6486 22.5306ZM21.7328 25.2123C21.4685 25.0062 21.2295 24.7606 21.0116 24.4897C20.8019 24.2123 20.6344 23.8993 20.5028 23.5666C20.3788 23.241 20.3106 22.8496 20.277 22.5306C20.2677 22.0878 20.2884 21.7858 20.373 21.4083C20.4651 21.0497 20.5996 20.6987 20.7866 20.3749C20.7975 20.3561 20.8122 20.3402 20.8234 20.3217C21.6884 20.9975 22.6017 20.9494 23.2386 20.6214V21.3656C23.4487 21.3656 23.6191 21.7915 23.6191 22.3169C23.6191 22.8423 23.4487 23.2682 23.2386 23.2682V23.6486C23.9524 24.6001 23.6249 25.403 23.1863 25.8711C22.9873 25.8278 22.7808 25.7697 22.5876 25.6937C22.2881 25.5773 22.0036 25.4094 21.7328 25.2123ZM27.7219 22.4878C27.7212 22.4934 27.7111 22.5912 27.6918 22.7777C27.686 22.8817 27.663 22.9801 27.6365 23.0891C27.6175 23.1991 27.5773 23.3322 27.5256 23.4832C27.4226 23.7788 27.2676 24.1319 26.9982 24.4702C26.7349 24.8094 26.3796 25.1445 25.9365 25.4067C25.5996 25.6067 25.2036 25.742 24.7851 25.8381C24.3614 25.3658 24.063 24.5792 24.761 23.6487V23.2683C24.5509 23.2683 24.3805 22.8424 24.3805 22.317C24.3805 21.7916 24.5509 21.3657 24.761 21.3657V20.6215C25.3986 20.9499 26.3134 20.9978 27.1793 20.3196C27.1941 20.3445 27.2122 20.3698 27.2262 20.3946C27.4565 20.7969 27.5703 21.1839 27.6416 21.499C27.6756 21.6581 27.7007 21.8001 27.7066 21.9262C27.7197 22.0509 27.7293 22.1565 27.7238 22.2434C27.7225 22.3909 27.722 22.4656 27.7219 22.4878Z" fill="#FF4B55"/>
<path d="M23.9998 28.215C22.5948 28.215 21.3204 27.6677 20.3692 26.7782C20.1945 26.615 19.9183 26.6348 19.7626 26.8163L18.3056 28.5162C18.1507 28.697 18.2791 28.9761 18.517 28.9761H19.4334L20.655 29.587C20.8267 29.6728 21.0354 29.6173 21.1419 29.4577L21.5351 28.8678C22.295 29.1814 23.1267 29.3566 23.9998 29.3566C24.8728 29.3566 25.7045 29.1814 26.4644 28.8678L26.8576 29.4577C26.964 29.6174 27.1727 29.6727 27.3445 29.587L28.5661 28.9761H29.4825C29.7205 28.9761 29.8489 28.697 29.6939 28.5162L28.2369 26.8163C28.0812 26.6347 27.805 26.615 27.6303 26.7782C26.6794 27.6677 25.4051 28.215 23.9998 28.215Z" fill="#FF4B55"/>
<path d="M18.6725 26.6929H16.7699L17.1503 23.2681C17.1503 23.2681 15.8184 22.6021 15.9579 20.6472C15.9749 20.4095 16.1759 20.2238 16.4142 20.2238H16.739C16.9632 20.2238 17.1512 20.3864 17.1883 20.6076C17.2684 21.0848 17.5175 21.8683 18.2919 22.1265L18.6725 26.6929Z" fill="#FF4B55"/>
<path d="M29.3271 26.6929H31.2298L30.8493 23.2681C30.8493 23.2681 32.1812 22.6021 32.0417 20.6472C32.0248 20.4095 31.8238 20.2238 31.5855 20.2238H31.2607C31.0365 20.2238 30.8485 20.3864 30.8114 20.6076C30.7313 21.0848 30.4822 21.8683 29.7077 22.1265L29.3271 26.6929Z" fill="#FF4B55"/>
<path d="M18.8627 27.0734H16.5796C16.4745 27.0734 16.3894 26.9883 16.3894 26.8832C16.3894 26.7781 16.4745 26.6929 16.5796 26.6929H18.8627C18.9678 26.6929 19.0529 26.7781 19.0529 26.8832C19.0529 26.9882 18.9677 27.0734 18.8627 27.0734Z" fill="#FFE15A"/>
<path d="M31.4201 27.0734H29.137C29.0319 27.0734 28.9468 26.9883 28.9468 26.8832C28.9468 26.7781 29.0319 26.6929 29.137 26.6929H31.4201C31.5252 26.6929 31.6103 26.7781 31.6103 26.8832C31.6103 26.9882 31.5252 27.0734 31.4201 27.0734Z" fill="#FFE15A"/>
</svg>
