<svg width="48" height="48" viewBox="0 0 48 48" fill="none" xmlns="http://www.w3.org/2000/svg">
<path d="M0 29.2413H47.9999V38.8965C47.9999 39.3535 47.6293 39.7241 47.1723 39.7241H0.827623C0.370593 39.7241 0 39.3535 0 38.8965V29.2413Z" fill="#73AF00"/>
<path d="M0.827623 8.27597H47.1724C47.6294 8.27597 48 8.64656 48 9.10359V18.7587H0V9.10359C0 8.64656 0.370593 8.27597 0.827623 8.27597Z" fill="#FF4B55"/>
<path d="M47.9999 18.7583H0V29.2405H47.9999V18.7583Z" fill="#FFE15A"/>
<path d="M22.931 19.3083C22.931 19.3083 22.9097 19.335 22.8698 19.3849C22.8365 19.4311 22.7865 19.5019 22.732 19.5962C22.6246 19.7836 22.512 20.0742 22.5089 20.4205C22.5077 20.5893 22.5426 20.7944 22.6002 20.9574C22.6626 21.1374 22.7662 21.3095 22.8972 21.4633C23.0283 21.6184 23.2035 21.738 23.391 21.8264C23.4839 21.8735 23.5859 21.9006 23.687 21.9255C23.7372 21.9408 23.7906 21.9416 23.8421 21.9517C23.868 21.9566 23.8948 21.9544 23.9209 21.9565L23.9605 21.9583L23.9803 21.9593L23.9901 21.9599L23.9951 21.9601L23.9975 21.9602C23.9895 21.9605 24.0188 21.9599 23.9803 21.9609C24.0444 21.9571 24.1222 21.9567 24.1751 21.9502C24.2212 21.9394 24.26 21.9413 24.3129 21.9256C24.4141 21.9007 24.516 21.8736 24.6089 21.8265C24.7963 21.7381 24.9716 21.6185 25.1027 21.4634C25.2337 21.3096 25.3373 21.1375 25.3997 20.9575C25.4595 20.7744 25.4915 20.5992 25.491 20.4197C25.4881 20.0749 25.3754 19.7834 25.268 19.5961C25.2138 19.5022 25.1637 19.4309 25.1279 19.3828C25.0908 19.3354 25.071 19.31 25.071 19.31L25.0661 19.3037C25.0304 19.2582 25.0384 19.1925 25.084 19.1567C25.12 19.1286 25.1687 19.1278 25.205 19.151C25.205 19.151 25.2356 19.1706 25.2929 19.2073C25.347 19.248 25.431 19.3054 25.5215 19.3984C25.7031 19.5782 25.9388 19.8985 26.0238 20.3639C26.0659 20.5866 26.0705 20.8561 26.0125 21.1209C25.9562 21.3885 25.8421 21.6651 25.6579 21.9072C25.477 22.1504 25.2339 22.3654 24.9449 22.5105C24.8023 22.5865 24.6471 22.6417 24.4879 22.6801C24.4116 22.7025 24.3148 22.7118 24.2285 22.7254C24.1477 22.7343 24.0902 22.7345 24.0198 22.7395L23.9925 22.7396L23.9848 22.7392L23.9694 22.7385L23.9386 22.7369L23.877 22.7336C23.8361 22.7303 23.7949 22.7309 23.7543 22.7238C23.6734 22.7096 23.5911 22.7029 23.5122 22.6801C23.353 22.6418 23.1977 22.5865 23.0552 22.5105C22.7662 22.3654 22.5231 22.1503 22.3422 21.9072C22.158 21.665 22.044 21.3884 21.9876 21.1209C21.9274 20.8359 21.9349 20.5963 21.9764 20.363C22.0612 19.8991 22.2971 19.5777 22.4786 19.3982C22.5687 19.3056 22.653 19.2476 22.7095 19.205C22.7639 19.1709 22.7929 19.1526 22.7929 19.1526C22.8422 19.1217 22.9073 19.1365 22.9382 19.1858C22.9626 19.225 22.9582 19.2742 22.931 19.3083Z" fill="#73AF00"/>
<path d="M23.7918 27.5499V28.8597C23.7918 28.9904 23.6339 29.0558 23.5415 28.9635L23.4694 28.8914C23.4095 28.8315 23.3759 28.7503 23.3759 28.6656V27.5499H23.7918Z" fill="#FF4B55"/>
<path d="M23.168 27.342V28.2927C23.168 28.3498 23.1907 28.4047 23.2311 28.4451L23.376 28.5899V27.342H23.168Z" fill="#FFE15A"/>
<path d="M22.9599 27.342V27.8522C22.9599 27.925 22.9889 27.9949 23.0402 28.0463L23.1678 28.1739V27.342H22.9599Z" fill="#73AF00"/>
<path d="M24.2081 27.5499V28.8597C24.2081 28.9904 24.3661 29.0558 24.4584 28.9635L24.5305 28.8914C24.5904 28.8315 24.6241 28.7503 24.6241 28.6656V27.5499H24.2081Z" fill="#FF4B55"/>
<path d="M24.832 27.342V28.2927C24.832 28.3498 24.8093 28.4047 24.7689 28.4451L24.6241 28.5899V27.342H24.832Z" fill="#FFE15A"/>
<path d="M25.0398 27.342V27.8522C25.0398 27.925 25.0108 27.9949 24.9595 28.0463L24.8319 28.1739V27.342H25.0398Z" fill="#73AF00"/>
<path d="M25.0396 23.5982L27.3274 21.9343V25.356C27.3274 26.338 26.5314 27.1339 25.5495 27.1339C25.2164 27.1339 24.8898 27.0402 24.6073 26.8637L23.3759 26.094V23.5693L25.0396 23.5982Z" fill="#FF4B55"/>
<path d="M26.4959 22.5396V24.9403C26.4959 25.9222 25.6999 26.7182 24.718 26.7182C24.5704 26.7182 24.4249 26.6969 24.283 26.661L23.3762 26.0942V23.5695L25.04 23.5983L26.4959 22.5396Z" fill="#FFE15A"/>
<path d="M25.872 22.9932V24.543C25.872 25.5249 25.076 26.3208 24.0941 26.3208C23.9465 26.3208 23.8009 26.2995 23.6591 26.2636L23.3762 26.0868V23.5694L25.04 23.5982L25.872 22.9932Z" fill="#73AF00"/>
<path d="M27.4523 21.56L28.3675 21.1025L27.7018 21.9344H27.3275L27.4523 21.56Z" fill="white"/>
<path d="M26.2875 24.638L28.5753 22.9742V26.3958C28.5753 27.3778 27.7793 28.1737 26.7974 28.1737C26.4642 28.1737 26.1377 28.08 25.8551 27.9035L24.6237 27.1338V24.6093L26.2875 24.638Z" fill="#FF4B55"/>
<path d="M27.1199 24.0331V25.5829C27.1199 26.5649 26.3238 27.3608 25.342 27.3608C25.1943 27.3608 25.0488 27.3395 24.907 27.3036L24.6241 27.1268V24.6093L26.2879 24.6382L27.1199 24.0331Z" fill="#73AF00"/>
<path d="M28.7002 22.5998L29.6153 22.1422L28.9497 22.9742H28.5754L28.7002 22.5998Z" fill="white"/>
<path d="M25.6637 24.2221L27.9515 22.5582V25.9799C27.9515 26.9618 27.1555 27.7577 26.1736 27.7577C25.8405 27.7577 25.5139 27.6641 25.2314 27.4875L24 26.7179V24.1932L25.6637 24.2221Z" fill="#FF4B55"/>
<path d="M27.1196 23.1634V25.5641C27.1196 26.546 26.3236 27.3419 25.3418 27.3419C25.1941 27.3419 25.0486 27.3207 24.9068 27.2847L23.9998 26.718V24.1933L25.6637 24.2222L27.1196 23.1634Z" fill="#FFE15A"/>
<path d="M26.4956 23.6172V25.167C26.4956 26.1489 25.6996 26.9448 24.7178 26.9448C24.5701 26.9448 24.4246 26.9235 24.2828 26.8876L23.9998 26.7109V24.1935L25.6637 24.2223L26.4956 23.6172Z" fill="#73AF00"/>
<path d="M28.0765 22.1839L28.9916 21.7263L28.326 22.5582H27.9517L28.0765 22.1839Z" fill="white"/>
<path d="M22.9602 23.5982L20.6724 21.9343V25.356C20.6724 26.338 21.4684 27.1339 22.4503 27.1339C22.7835 27.1339 23.11 27.0402 23.3926 26.8637L24.624 26.094V23.5693L22.9602 23.5982Z" fill="#FF4B55"/>
<path d="M21.5042 22.5396V24.9403C21.5042 25.9222 22.3002 26.7182 23.2821 26.7182C23.4297 26.7182 23.5752 26.6969 23.7171 26.661L24.6239 26.0942V23.5695L22.9601 23.5983L21.5042 22.5396Z" fill="#FFE15A"/>
<path d="M22.128 22.9932V24.543C22.128 25.5249 22.924 26.3208 23.9058 26.3208C24.0535 26.3208 24.1991 26.2995 24.3408 26.2636L24.6238 26.0868V23.5694L22.9599 23.5982L22.128 22.9932Z" fill="#73AF00"/>
<path d="M20.5473 21.56L19.6322 21.1025L20.2979 21.9344H20.6721L20.5473 21.56Z" fill="white"/>
<path d="M21.7123 24.638L19.4245 22.9742V26.3958C19.4245 27.3778 20.2206 28.1737 21.2024 28.1737C21.5356 28.1737 21.8621 28.08 22.1447 27.9035L23.3761 27.1338V24.6093L21.7123 24.638Z" fill="#FF4B55"/>
<path d="M20.8801 24.0331V25.5829C20.8801 26.5649 21.6761 27.3608 22.658 27.3608C22.8056 27.3608 22.9511 27.3395 23.093 27.3036L23.3759 27.1268V24.6093L21.7121 24.6382L20.8801 24.0331Z" fill="#73AF00"/>
<path d="M19.2995 22.5998L18.3844 22.1422L19.05 22.9742H19.4242L19.2995 22.5998Z" fill="white"/>
<path d="M22.336 24.2221L20.0482 22.5582V25.9799C20.0482 26.9618 20.8442 27.7577 21.8261 27.7577C22.1593 27.7577 22.4858 27.6641 22.7683 27.4875L23.9997 26.7179V24.1932L22.336 24.2221Z" fill="#FF4B55"/>
<path d="M20.8801 23.1634V25.5641C20.8801 26.546 21.6762 27.3419 22.658 27.3419C22.8057 27.3419 22.9512 27.3207 23.093 27.2847L23.9998 26.7179V24.1932L22.336 24.2221L20.8801 23.1634Z" fill="#FFE15A"/>
<path d="M21.5042 23.6172V25.167C21.5042 26.1489 22.3002 26.9448 23.2821 26.9448C23.4297 26.9448 23.5752 26.9235 23.7171 26.8876L24 26.7108V24.1934L22.3361 24.2222L21.5042 23.6172Z" fill="#73AF00"/>
<path d="M21.2761 27.3144L21.0019 27.0402C20.8357 26.874 20.8401 26.603 21.0118 26.4423L25.5509 22.177L26.1392 22.7653L21.874 27.3044C21.7134 27.4763 21.4424 27.4808 21.2761 27.3144Z" fill="#FFBE5A"/>
<path d="M21.1397 27.3853C21.2545 27.3853 21.3476 27.2922 21.3476 27.1774C21.3476 27.0625 21.2545 26.9694 21.1397 26.9694C21.0248 26.9694 20.9317 27.0625 20.9317 27.1774C20.9317 27.2922 21.0248 27.3853 21.1397 27.3853Z" fill="#FFBE5A"/>
<path d="M25.9926 22.3247C25.8302 22.1622 25.6327 22.0964 25.5515 22.1776C25.4703 22.2588 25.5362 22.4563 25.6986 22.6187C25.861 22.7811 26.0585 22.8469 26.1397 22.7657C26.2209 22.6845 26.155 22.4871 25.9926 22.3247Z" fill="white"/>
<path d="M26.7234 27.3144L26.9976 27.0402C27.1638 26.874 27.1594 26.603 26.9877 26.4423L22.4486 22.177L21.8603 22.7653L26.1255 27.3044C26.2862 27.4763 26.5572 27.4808 26.7234 27.3144Z" fill="#FFBE5A"/>
<path d="M26.8603 27.3853C26.9751 27.3853 27.0682 27.2922 27.0682 27.1774C27.0682 27.0625 26.9751 26.9694 26.8603 26.9694C26.7454 26.9694 26.6523 27.0625 26.6523 27.1774C26.6523 27.2922 26.7454 27.3853 26.8603 27.3853Z" fill="#FFBE5A"/>
<path d="M22.3022 22.6189C22.4647 22.4565 22.5305 22.2591 22.4493 22.1779C22.3681 22.0966 22.1706 22.1625 22.0082 22.3249C21.8458 22.4873 21.7799 22.6848 21.8611 22.766C21.9423 22.8472 22.1398 22.7813 22.3022 22.6189Z" fill="white"/>
<path d="M24.0001 27.1346C25.0158 27.1346 25.8391 26.1568 25.8391 24.9508C25.8391 23.7447 25.0158 22.7669 24.0001 22.7669C22.9845 22.7669 22.1611 23.7447 22.1611 24.9508C22.1611 26.1568 22.9845 27.1346 24.0001 27.1346Z" fill="#FFBE5A"/>
<path d="M23.9997 22.9742L24.0974 23.3979L24.3211 23.0251L24.283 23.4582L24.611 23.1728L24.4409 23.5729L24.8411 23.4029L24.5556 23.7309L24.9887 23.6928L24.616 23.9165L25.0396 24.0141L24.616 24.1117L24.9887 24.3355L24.5556 24.2974L24.8411 24.6253L24.4409 24.4553L24.611 24.8554L24.283 24.5701L24.3211 25.0031L24.0974 24.6303L23.9997 25.054L23.9022 24.6303L23.6784 25.0031L23.7165 24.5701L23.3885 24.8554L23.5585 24.4553L23.1585 24.6253L23.4438 24.2974L23.0108 24.3355L23.3835 24.1117L22.9599 24.0141L23.3835 23.9165L23.0108 23.6928L23.4438 23.7309L23.1585 23.4029L23.5585 23.5729L23.3885 23.1728L23.7165 23.4582L23.6784 23.0251L23.9022 23.3979L23.9997 22.9742Z" fill="#FF4B55"/>
<path d="M26.3005 24.9111C26.3005 24.9111 25.6115 25.093 25.1631 24.7161C24.6647 24.2971 24.291 24.0993 24.1309 24.025C24.0761 23.9996 24.0148 23.9996 23.9598 24.0249C23.8451 24.0779 23.6339 24.1877 23.4472 24.3521C23.1742 24.5927 22.3358 25.0671 22.1669 25.0671V26.101L23.4862 27.2444L25.0461 27.1988L26.3005 24.9111Z" fill="#73AF00"/>
<path d="M24 27.6539C22.6811 27.6539 21.6082 26.441 21.6082 24.9502C21.6082 23.4594 22.681 22.2464 24 22.2464C25.319 22.2464 26.3918 23.4594 26.3918 24.9502C26.3918 26.441 25.3189 27.6539 24 27.6539ZM24 22.8703C23.0252 22.8703 22.2322 23.8034 22.2322 24.9502C22.2322 26.0969 23.0252 27.03 24 27.03C24.9748 27.03 25.7678 26.0969 25.7678 24.9502C25.7678 23.8034 24.9748 22.8703 24 22.8703Z" fill="#3CC8FF"/>
<path d="M23.6416 27.0888L23.6874 27.2261L23.8323 27.2273C23.851 27.2274 23.8587 27.2514 23.8437 27.2624L23.7273 27.3485L23.771 27.4866C23.7767 27.5045 23.7563 27.5193 23.741 27.5083L23.6231 27.4241L23.5053 27.5083C23.4901 27.5192 23.4697 27.5044 23.4753 27.4866L23.519 27.3485L23.4025 27.2624C23.3874 27.2513 23.3952 27.2274 23.414 27.2273L23.5588 27.2261L23.6047 27.0888C23.6106 27.071 23.6357 27.071 23.6416 27.0888Z" fill="#FFBE5A"/>
<path d="M22.9915 26.8094L23.0373 26.9467L23.1822 26.9479C23.2009 26.948 23.2086 26.972 23.1936 26.983L23.0772 27.0691L23.1209 27.2072C23.1266 27.2251 23.1062 27.2399 23.0909 27.2289L22.973 27.1447L22.8552 27.2289C22.84 27.2398 22.8196 27.225 22.8252 27.2072L22.8689 27.0691L22.7524 26.983C22.7373 26.9719 22.7451 26.948 22.7639 26.9479L22.9087 26.9467L22.9546 26.8094C22.9605 26.7916 22.9856 26.7916 22.9915 26.8094Z" fill="#FFBE5A"/>
<path d="M22.4693 26.3347L22.5151 26.4721L22.66 26.4732C22.6787 26.4733 22.6864 26.4973 22.6714 26.5084L22.555 26.5944L22.5986 26.7325C22.6044 26.7504 22.5839 26.7652 22.5686 26.7542L22.4508 26.6701L22.333 26.7542C22.3178 26.7651 22.2973 26.7503 22.303 26.7325L22.3466 26.5944L22.2302 26.5084C22.2151 26.4972 22.2229 26.4733 22.2416 26.4732L22.3865 26.4721L22.4323 26.3347C22.4382 26.3169 22.4634 26.3169 22.4693 26.3347Z" fill="#FFBE5A"/>
<path d="M22.1135 25.7032L22.1593 25.8405L22.3042 25.8417C22.3229 25.8418 22.3306 25.8658 22.3156 25.8768L22.1992 25.9629L22.2429 26.101C22.2486 26.1189 22.2282 26.1337 22.2129 26.1227L22.095 26.0385L21.9772 26.1227C21.962 26.1336 21.9416 26.1188 21.9472 26.101L21.9909 25.9629L21.8744 25.8768C21.8594 25.8657 21.8671 25.8418 21.8859 25.8417L22.0307 25.8405L22.0766 25.7032C22.0825 25.6854 22.1076 25.6854 22.1135 25.7032Z" fill="#FFBE5A"/>
<path d="M21.9562 24.969L22.002 25.1063L22.1469 25.1074C22.1656 25.1075 22.1733 25.1315 22.1583 25.1426L22.0419 25.2287L22.0856 25.3667C22.0913 25.3846 22.0708 25.3995 22.0556 25.3885L21.9377 25.3043L21.8199 25.3885C21.8047 25.3994 21.7843 25.3846 21.7899 25.3667L21.8336 25.2287L21.7171 25.1426C21.702 25.1314 21.7098 25.1075 21.7286 25.1074L21.8734 25.1063L21.9193 24.969C21.9251 24.9512 21.9503 24.9512 21.9562 24.969Z" fill="#FFBE5A"/>
<path d="M24.3576 27.0888L24.3117 27.2261L24.1669 27.2273C24.1481 27.2274 24.1403 27.2514 24.1554 27.2624L24.2719 27.3485L24.2282 27.4866C24.2225 27.5045 24.2429 27.5193 24.2582 27.5083L24.376 27.4241L24.4939 27.5083C24.5091 27.5192 24.5295 27.5044 24.5239 27.4866L24.4802 27.3485L24.5966 27.2624C24.6117 27.2513 24.6039 27.2274 24.5852 27.2273L24.4403 27.2261L24.3945 27.0888C24.3886 27.071 24.3635 27.071 24.3576 27.0888Z" fill="#FFBE5A"/>
<path d="M25.0076 26.8094L24.9618 26.9467L24.8169 26.9479C24.7982 26.948 24.7905 26.972 24.8055 26.983L24.9219 27.0691L24.8782 27.2072C24.8725 27.2251 24.893 27.2399 24.9082 27.2289L25.0261 27.1447L25.1439 27.2289C25.1591 27.2398 25.1795 27.225 25.1739 27.2072L25.1302 27.0691L25.2467 26.983C25.2618 26.9719 25.254 26.948 25.2352 26.9479L25.0904 26.9467L25.0445 26.8094C25.0386 26.7916 25.0135 26.7916 25.0076 26.8094Z" fill="#FFBE5A"/>
<path d="M25.5299 26.3347L25.484 26.4721L25.3392 26.4732C25.3204 26.4733 25.3127 26.4973 25.3277 26.5084L25.4442 26.5944L25.4005 26.7325C25.3948 26.7504 25.4152 26.7652 25.4305 26.7542L25.5483 26.6701L25.6662 26.7542C25.6814 26.7651 25.7018 26.7503 25.6962 26.7325L25.6525 26.5944L25.7689 26.5084C25.784 26.4972 25.7762 26.4733 25.7575 26.4732L25.6126 26.4721L25.5668 26.3347C25.561 26.3169 25.5358 26.3169 25.5299 26.3347Z" fill="#FFBE5A"/>
<path d="M25.8856 25.7032L25.8398 25.8405L25.6949 25.8417C25.6762 25.8418 25.6685 25.8658 25.6835 25.8768L25.7999 25.9629L25.7562 26.101C25.7505 26.1189 25.7709 26.1337 25.7862 26.1227L25.9041 26.0385L26.0219 26.1227C26.0371 26.1336 26.0575 26.1188 26.0519 26.101L26.0082 25.9629L26.1247 25.8768C26.1398 25.8657 26.132 25.8418 26.1132 25.8417L25.9684 25.8405L25.9225 25.7032C25.9166 25.6854 25.8915 25.6854 25.8856 25.7032Z" fill="#FFBE5A"/>
<path d="M26.0429 24.969L25.9971 25.1063L25.8522 25.1074C25.8335 25.1075 25.8258 25.1315 25.8408 25.1426L25.9572 25.2287L25.9135 25.3667C25.9078 25.3846 25.9283 25.3995 25.9435 25.3885L26.0614 25.3043L26.1792 25.3885C26.1944 25.3994 26.2149 25.3846 26.2092 25.3667L26.1655 25.2287L26.282 25.1426C26.2971 25.1314 26.2893 25.1075 26.2705 25.1074L26.1257 25.1063L26.0799 24.969C26.074 24.9512 26.0489 24.9512 26.0429 24.969Z" fill="#FFBE5A"/>
<path d="M23.0961 26.2834L23.1652 26.614H23.195V26.3884C23.195 26.3884 23.2442 26.5458 23.3137 26.614H23.37C23.3431 26.5794 23.2947 26.5077 23.2947 26.4334C23.2947 26.3311 23.3761 26.3171 23.3761 26.2077H23.4458V26.6139H23.4866L23.5622 26.2519C23.5622 26.2519 23.6244 26.4784 23.7416 26.6139H23.7937C23.7561 26.5587 23.678 26.4162 23.6924 26.2008C23.6924 26.2008 23.804 26.1449 23.804 25.9938V25.7787C23.804 25.7385 23.8368 25.7058 23.877 25.7058H23.9271C23.9271 25.7058 23.8525 25.561 23.7727 25.54V25.4493L23.7126 25.5401C23.6553 25.5525 23.6214 25.6055 23.6214 25.6624V25.7933C23.6214 25.8335 23.5888 25.8663 23.5485 25.8663H23.2878C23.2106 25.8663 23.0869 25.9434 23.0869 26.0423C23.0869 26.1412 23.1611 26.2061 23.1611 26.2061L23.0961 26.2834Z" fill="white"/>
<path d="M24.2643 25.9541H24.2404C24.0514 25.9644 23.9459 26.0887 23.9459 26.0887L24.1376 26.2804V26.6412H24.367V26.2804L24.5587 26.0887C24.5588 26.0886 24.4533 25.9644 24.2643 25.9541Z" fill="#FFBE5A"/>
<path d="M24.7371 25.364H24.6678V26.6421H24.7371V25.364Z" fill="white"/>
<path d="M24.7043 25.3541L24.3305 25.8059C24.3305 25.8059 24.2818 25.5881 24.4996 25.3737L24.0186 25.4615C24.0186 25.4615 24.1649 25.1885 24.5483 25.2177L24.1551 24.8895C24.1551 24.8895 24.4931 24.8701 24.6653 25.1235C24.6653 25.1235 24.7627 24.8311 25.0357 24.818L24.8104 25.1603C24.8104 25.1603 25.0357 25.0455 25.3477 25.1463L24.883 25.2698C24.883 25.2698 25.143 25.2958 25.2502 25.676L24.8473 25.3999C24.8473 25.3999 24.9708 25.5461 24.9253 25.832L24.7043 25.3541Z" fill="white"/>
<path d="M19.9236 22.1839L19.0085 21.7263L19.6741 22.5582H20.0484L19.9236 22.1839Z" fill="white"/>
<path d="M24.6505 21.6542L27.1196 20.8944L25.8088 20.403C25.5754 20.3153 25.328 20.2706 25.0786 20.2706H24.8318C24.7169 20.2706 24.6238 20.3637 24.6238 20.4786V20.6865H23.9997H23.3758V20.4786C23.3758 20.3637 23.2827 20.2706 23.1679 20.2706H22.9211C22.6717 20.2706 22.4243 20.3155 22.1908 20.403L20.8801 20.8944L23.3492 21.6542C23.472 21.692 23.5315 21.831 23.4741 21.946L23.1679 22.5583H24.8318L24.5256 21.946C24.4681 21.8311 24.5276 21.692 24.6505 21.6542Z" fill="#825546"/>
<path d="M24 21.3098C24.2297 21.3098 24.4159 21.1236 24.4159 20.894C24.4159 20.6643 24.2297 20.4781 24 20.4781C23.7703 20.4781 23.5841 20.6643 23.5841 20.894C23.5841 21.1236 23.7703 21.3098 24 21.3098Z" fill="white"/>
<path d="M24.2079 20.8945C24.2079 21.0093 24.1148 21.1024 24 21.1024H23.168L23.5231 20.7474C23.5621 20.7084 23.6149 20.6865 23.6702 20.6865H23.9999C24.1148 20.6866 24.2079 20.7796 24.2079 20.8945Z" fill="#FFBE5A"/>
</svg>
