<svg width="48" height="48" viewBox="0 0 48 48" fill="none" xmlns="http://www.w3.org/2000/svg">
<path d="M47.1723 39.7238H0.827623C0.370593 39.7238 0 39.3532 0 38.8962V9.10314C0 8.64611 0.370593 8.27551 0.827623 8.27551H47.1724C47.6294 8.27551 48 8.64611 48 9.10314V38.8962C47.9999 39.3533 47.6293 39.7238 47.1723 39.7238Z" fill="#73AF00"/>
<path d="M23.5697 12.676L6.12695 23.2932C5.59717 23.6156 5.59717 24.3845 6.12695 24.707L23.5697 35.3244C23.8339 35.4853 24.1659 35.4853 24.4303 35.3244L41.8731 24.7071C42.4029 24.3847 42.4029 23.6158 41.8731 23.2933L24.4303 12.676C24.166 12.5151 23.8339 12.5151 23.5697 12.676Z" fill="#FFE15A"/>
<path d="M24.0001 30.6208C27.6565 30.6208 30.6207 27.6567 30.6207 24.0002C30.6207 20.3437 27.6565 17.3796 24.0001 17.3796C20.3436 17.3796 17.3795 20.3437 17.3795 24.0002C17.3795 27.6567 20.3436 30.6208 24.0001 30.6208Z" fill="#41479B"/>
<path d="M18.3189 20.613C18.0065 21.1359 17.7653 21.7042 17.6059 22.3077C21.2761 22.0315 26.7055 23.0582 30.1611 26.4114C30.3867 25.8357 30.5355 25.2224 30.5914 24.5812C27.0232 21.5781 22.0902 20.5102 18.3189 20.613Z" fill="white"/>
<path d="M24.2744 26.2592L24.4506 26.7877L25.0078 26.792C25.0799 26.7926 25.1098 26.8846 25.0518 26.9275L24.6036 27.2585L24.7717 27.7897C24.7935 27.8585 24.7151 27.9154 24.6565 27.8734L24.2032 27.5494L23.7499 27.8734C23.6913 27.9154 23.613 27.8585 23.6347 27.7897L23.8028 27.2585L23.3546 26.9275C23.2966 26.8846 23.3265 26.7926 23.3986 26.792L23.9557 26.7877L24.132 26.2592C24.1548 26.1907 24.2515 26.1907 24.2744 26.2592Z" fill="white"/>
<path d="M26.4396 27.6263L26.5155 27.8537L26.7553 27.8556C26.7863 27.8558 26.7993 27.8954 26.7742 27.9139L26.5813 28.0563L26.6536 28.285C26.6629 28.3146 26.6293 28.3391 26.604 28.321L26.4089 28.1816L26.2138 28.321C26.1886 28.3391 26.1548 28.3146 26.1642 28.285L26.2365 28.0563L26.0436 27.9139C26.0186 27.8955 26.0315 27.8559 26.0625 27.8556L26.3023 27.8537L26.3781 27.6263C26.3881 27.5967 26.4298 27.5967 26.4396 27.6263Z" fill="white"/>
<path d="M23.3378 25.2555L23.4136 25.4829L23.6534 25.4848C23.6845 25.485 23.6974 25.5246 23.6724 25.5431L23.4794 25.6855L23.5517 25.9142C23.5611 25.9438 23.5274 25.9683 23.5021 25.9502L23.307 25.8108L23.1119 25.9502C23.0867 25.9683 23.053 25.9438 23.0623 25.9142L23.1346 25.6855L22.9417 25.5431C22.9167 25.5247 22.9296 25.4851 22.9606 25.4848L23.2004 25.4829L23.2763 25.2555C23.2862 25.226 23.3279 25.226 23.3378 25.2555Z" fill="white"/>
<path d="M19.1371 24.9791L19.213 25.2066L19.4528 25.2084C19.4838 25.2086 19.4967 25.2483 19.4717 25.2667L19.2788 25.4092L19.3511 25.6378C19.3604 25.6674 19.3268 25.6919 19.3015 25.6738L19.1064 25.5344L18.9113 25.6738C18.8861 25.6919 18.8523 25.6674 18.8617 25.6378L18.934 25.4092L18.741 25.2667C18.7161 25.2484 18.7289 25.2087 18.76 25.2084L18.9998 25.2066L19.0756 24.9791C19.0857 24.9497 19.1273 24.9497 19.1371 24.9791Z" fill="white"/>
<path d="M22.6513 27.5481L22.7272 27.7755L22.967 27.7774C22.998 27.7776 23.011 27.8172 22.9859 27.8357L22.793 27.9781L22.8653 28.2068C22.8747 28.2364 22.841 28.2608 22.8157 28.2428L22.6206 28.1033L22.4255 28.2428C22.4003 28.2608 22.3665 28.2364 22.3759 28.2068L22.4482 27.9781L22.2553 27.8357C22.2303 27.8173 22.2432 27.7777 22.2742 27.7774L22.514 27.7755L22.5898 27.5481C22.5999 27.5187 22.6416 27.5187 22.6513 27.5481Z" fill="white"/>
<path d="M20.7177 24.8205L20.7798 25.0065L20.9759 25.0081C21.0012 25.0083 21.0118 25.0407 20.9915 25.0558L20.8337 25.1723L20.8929 25.3592C20.9006 25.3834 20.873 25.4034 20.8523 25.3886L20.6927 25.2746L20.5331 25.3886C20.5124 25.4034 20.485 25.3834 20.4926 25.3592L20.5517 25.1723L20.3939 25.0558C20.3736 25.0407 20.384 25.0083 20.4095 25.0081L20.6056 25.0065L20.6677 24.8205C20.6756 24.7964 20.7097 24.7964 20.7177 24.8205Z" fill="white"/>
<path d="M26.608 20.9805L26.6856 21.2132L26.9308 21.215C26.9626 21.2152 26.9757 21.2558 26.9501 21.2747L26.7529 21.4203L26.8269 21.6542C26.8365 21.6845 26.8019 21.7096 26.7761 21.6911L26.5766 21.5484L26.377 21.6911C26.3511 21.7096 26.3167 21.6844 26.3262 21.6542L26.4002 21.4203L26.203 21.2747C26.1774 21.2558 26.1906 21.2153 26.2223 21.215L26.4675 21.2132L26.5451 20.9805C26.5553 20.9503 26.5979 20.9503 26.608 20.9805Z" fill="white"/>
<path d="M19.4073 23.6823L19.4694 23.8683L19.6655 23.8699C19.6908 23.8701 19.7014 23.9025 19.6811 23.9176L19.5233 24.0341L19.5824 24.221C19.5901 24.2452 19.5626 24.2653 19.5418 24.2504L19.3823 24.1364L19.2227 24.2504C19.202 24.2653 19.1745 24.2452 19.1821 24.221L19.2413 24.0341L19.0835 23.9176C19.0632 23.9025 19.0736 23.8702 19.0991 23.8699L19.2952 23.8683L19.3573 23.6823C19.3652 23.6582 19.3993 23.6582 19.4073 23.6823Z" fill="white"/>
<path d="M20.3545 26.3044L20.4484 26.5862L20.7454 26.5884C20.7838 26.5887 20.7998 26.6378 20.7688 26.6606L20.5299 26.8371L20.6195 27.1202C20.6311 27.1569 20.5894 27.1872 20.5581 27.1648L20.3164 26.9921L20.0747 27.1648C20.0435 27.1871 20.0017 27.1569 20.0133 27.1202L20.1029 26.8371L19.864 26.6606C19.833 26.6378 19.849 26.5887 19.8874 26.5884L20.1844 26.5862L20.2783 26.3044C20.2908 26.268 20.3424 26.268 20.3545 26.3044Z" fill="white"/>
<path d="M27.647 27.6852L27.7061 27.8625L27.8929 27.8639C27.9171 27.8641 27.9271 27.8949 27.9077 27.9093L27.7575 28.0203L27.8138 28.1984C27.8211 28.2214 27.7949 28.2405 27.7751 28.2264L27.6231 28.1178L27.4711 28.2264C27.4514 28.2405 27.4251 28.2214 27.4323 28.1984L27.4887 28.0203L27.3384 27.9093C27.319 27.8949 27.329 27.8641 27.3532 27.8639L27.5401 27.8625L27.5991 27.6852C27.6069 27.6622 27.6394 27.6622 27.647 27.6852Z" fill="white"/>
<path d="M28.3009 26.3323L28.3767 26.5598L28.6165 26.5616C28.6475 26.5618 28.6605 26.6015 28.6355 26.62L28.4425 26.7624L28.5148 26.991C28.5242 27.0206 28.4905 27.0451 28.4652 27.027L28.2701 26.8876L28.075 27.027C28.0498 27.0451 28.016 27.0206 28.0254 26.991L28.0977 26.7624L27.9048 26.62C27.8798 26.6016 27.8927 26.5619 27.9237 26.5616L28.1635 26.5598L28.2394 26.3323C28.2493 26.3028 28.291 26.3028 28.3009 26.3323Z" fill="white"/>
</svg>
