<svg width="48" height="48" viewBox="0 0 48 48" fill="none" xmlns="http://www.w3.org/2000/svg">
<path d="M47.9999 18.7587H0V9.10349C0 8.64646 0.370593 8.27586 0.827623 8.27586H47.1724C47.6294 8.27586 48 8.64646 48 9.10349L47.9999 18.7587Z" fill="#82AFFF"/>
<path d="M47.1723 39.7242H0.827623C0.370593 39.7242 0 39.3536 0 38.8966V29.2415H47.9999V38.8966C47.9999 39.3537 47.6293 39.7242 47.1723 39.7242Z" fill="#82AFFF"/>
<path d="M47.9999 18.7584H0V29.2406H47.9999V18.7584Z" fill="#FFE15A"/>
<path d="M0.305249 39.5241L19.3216 24.4289C19.5977 24.2098 19.5977 23.7903 19.3216 23.571L0.305249 8.47601C0.122906 8.62779 0 8.84773 0 9.10348V38.8965C0 39.1524 0.122906 39.3723 0.305249 39.5241Z" fill="#464655"/>
</svg>
