<svg width="48" height="48" viewBox="0 0 48 48" fill="none" xmlns="http://www.w3.org/2000/svg">
<path d="M47.1724 39.7241H0.827625C0.370594 39.7241 0 39.3535 0 38.8965V31.4482H48V38.8965C48 39.3536 47.6294 39.7241 47.1724 39.7241Z" fill="#73AF00"/>
<path d="M47.1724 8.27599H0.827625C0.370594 8.27599 0 8.64658 0 9.10361V31.4484H48V9.10361C48 8.64658 47.6294 8.27599 47.1724 8.27599Z" fill="#FF4B55"/>
<path d="M6.62072 39.7242H0.827625C0.370594 39.7242 0 39.3536 0 38.8966V9.10361C0 8.64658 0.370594 8.27599 0.827625 8.27599H6.62072V39.7242Z" fill="white"/>
<path d="M0.828094 38.3496H1.12078V37.5293H0.828094V38.3496ZM3.16416 38.3496H3.45694V37.5293H3.16416V38.3496ZM5.50172 38.3496H5.79309V37.5293H5.50172V38.3496ZM1.99763 36.1503H2.28741V35.4666H1.99763V36.1503ZM4.33509 36.1503H4.62647V35.4666H4.33509V36.1503ZM0.828094 34.367H1.12078V33.5466H0.828094V34.367ZM3.16416 34.367H3.45694V33.5466H3.16416V34.367ZM5.50172 34.367H5.79309V33.5466H5.50172V34.367ZM1.41506 35.4666H1.70484V34.7769H1.99763V34.0933H2.28741V34.7769H2.58169V35.4666H2.87147V36.1503H2.58169V36.8397H2.28741V37.5291H1.99763V36.8397H1.70484V36.1503H1.41506V35.4666ZM3.75122 35.4666H4.04391V34.7769H4.33519V34.0933H4.62656V34.7769H4.91784V35.4666H5.21053V36.1503H4.91784V36.8397H4.62656V37.5291H4.33519V36.8397H4.04391V36.1503H3.75122V35.4666ZM4.33509 32.7203V33.404H4.041V34.0934H3.75122V34.777H3.45694V35.4667H3.16416V34.777H2.87138V34.0934H2.58159V33.404H2.28731V32.7203H1.99753V33.404H1.70475V34.0934H1.41497V34.777H1.12069V35.4667H0.828094V36.1504H1.12078V36.8398H1.41506V37.5292H1.70484V38.2129H1.99763V38.8966H2.29041V38.2129H2.58169V37.5292H2.87147V36.8398H3.16425V36.1504H3.45703V36.8398H3.75131V37.5292H4.044V38.2129H4.33528V38.8966H4.62666V38.2129H4.91794V37.5292H5.21063V36.8398H5.50341V36.1504H5.79319V35.4667H5.50181V34.777H5.21063V34.0934H4.91794V33.404H4.62666V32.7203H4.33509ZM5.05884 32.0369H5.20453V31.7635H5.35163V32.0369H5.49872V32.3102H5.35163V32.5896H5.20453V32.3102H5.05884V32.0369ZM5.05884 31.0797V31.4841H4.91475V31.9001H4.76766V32.4471H4.91475V32.8571H5.05884V33.2672H5.49881V32.8571H5.6445V32.4471H5.78859V31.9001H5.6445V31.4841H5.49881V31.0797H5.05884ZM1.12078 32.0308H1.26788V31.7575H1.41497V32.0308H1.55756V32.3102H1.41497V32.5836H1.26788V32.3102H1.12078V32.0308ZM1.12078 31.0737V31.484H0.975094V31.894H0.828094V32.4469H0.975094V32.8569H1.12078V33.267H1.55766V32.8569H1.70475V32.4469H1.84753V31.894H1.70475V31.484H1.55766V31.0737H1.12078ZM2.72719 32.0308H2.87128V31.7575H3.01997V32.0308H3.16406V32.3102H3.01997V32.5836H2.87128V32.3102H2.72719V32.0308ZM3.45694 32.0308H3.60403V31.7575H3.75113V32.0308H3.89522V32.3102H3.75113V32.5836H3.60403V32.3102H3.45694V32.0308ZM3.45694 31.0737V31.484H3.16416V31.0737H2.72728V31.484H2.58159V31.894H2.4345V32.4469H2.58159V32.8569H2.72728V33.267H3.16416V32.8569H3.45694V33.267H3.89531V32.8569H4.04391V32.4469H4.18669V31.894H4.04391V31.484H3.89531V31.0737H3.45694ZM0.828094 30.7943H1.12078V29.9741H0.828094V30.7943ZM3.16416 30.7943H3.45694V29.9741H3.16416V30.7943ZM5.50172 30.7943H5.79309V29.9741H5.50172V30.7943ZM0.828094 27.3644H1.12078V26.8176H0.828094V27.3644ZM5.50172 27.3644H5.79309V26.8176H5.50172V27.3644ZM3.16416 25.4444H3.45694V24.7608H3.16416V25.4444ZM0.828094 23.5899V24V24.0059V24.416H1.12078V24.0059V24V23.5899H0.828094ZM2.43441 23.5899V24V24.0059V24.416H2.72719V24.0059V24V23.5899H2.43441ZM3.89531 23.5899V24V24.0059V24.416H4.18659V24.0059V24V23.5899H3.89531ZM5.50172 23.5899V24V24.0059V24.416H5.79309V24.0059V24V23.5899H5.50172ZM3.60403 23.1085V23.3819H3.45694V23.5899H3.16416V23.3819H3.02006V23.1085H2.72728V23.5186H2.87138V23.7266H3.02006V24V24.0059V24.2735H2.87138V24.4815H2.72728V24.8916H3.02006V24.6183H3.16416V24.4161H3.45694V24.6183H3.60403V24.8916H3.89531V24.4815H3.75122V24.2735H3.60413V24.0059V24V23.7266H3.75122V23.5186H3.89531V23.1085H3.60403ZM3.16416 23.245H3.45694V22.5614H3.16416V23.245ZM0.828094 21.1882H1.12078V20.6415H0.828094V21.1882ZM5.50172 21.1882H5.79309V20.6415H5.50172V21.1882ZM0.828094 18.0319H1.12078V17.2057H0.828094V18.0319ZM3.16416 18.0319H3.45694V17.2057H3.16416V18.0319ZM5.50172 18.0319H5.79309V17.2057H5.50172V18.0319ZM1.99763 24.0119V23.9941V23.7265H2.28741V23.2509H2.58169V22.6981H3.02006V22.0503H3.16416V21.7352H3.31134H3.45694V22.0443H3.60403V22.6982H4.04381V22.9716V23.2509H4.33509V23.7265H4.62647V24V24.2734H4.33509V24.7608H4.04381V25.0341V25.3075H3.60403V25.9555H3.45694V26.2646H3.31134H3.16416V25.9555H3.02006V25.3075H2.58169V24.7606H2.28741V24.2732H1.99763V24.0119ZM4.33509 16.3794V17.0689H4.041V17.7525H3.75122V18.4422H3.45694V18.989V19.1257H3.16416V18.4421H2.87138V17.7524H2.58159V17.0688H2.28731V16.3793H1.99753V17.0688H1.70475V17.7524H1.41197V18.4421H1.12069V18.9889V19.1256H0.828094V19.8151H1.12078V20.5045H1.41206V21.1882H1.70484V21.8719H1.99763V21.1882H2.28741V20.5045H2.58169V19.8151H2.28741V18.9888H2.58169V19.1256V19.5416H2.87147V20.6414H3.02016V21.319L2.58178 21.3249V21.8719H2.2875V22.2819H1.99772V22.9714H1.70494V22.2819H1.41216V21.8719H1.12088V21.4616H0.828094V22.698H1.12078V23.2508H1.41206V23.7264H1.70484V24V24.0059V24.2735H1.41206V24.7609H1.12078V25.3078H0.828094V26.5442H1.12078V26.128H1.41206V25.718H1.70484V25.0343H1.99763V25.718H2.28741V26.128H2.58169V26.6809L3.02006 26.6868V27.3644H2.87138V28.4642H2.58159V28.8742V29.017H2.28731V28.1848H2.58159V27.5012H2.28731V26.8176H1.99753V26.1278H1.70475V26.8176H1.41197V27.5012H1.12069V28.1848H0.828094V28.8742H1.12078V29.017V29.5579H1.41506V30.2476H1.70484V30.937H1.99763V31.6206H2.28741V30.937H2.58169V30.2476H2.87147V29.5579H3.16425V28.8742H3.45703V29.017V29.5579H3.75131V30.2476H4.044V30.937H4.33528V31.6206H4.62666V30.937H4.91794V30.2476H5.21063V29.5579H5.50181V28.8742H5.79309V28.1848H5.50172V27.5012H5.21053V26.8176H4.91784V26.1278H4.62656V26.8176H4.33519V27.5012H4.04109V28.1848H4.33519V28.8742V29.017H4.04109V28.8742V28.4642H3.75131V27.3644H3.70959H3.60422V26.6808H3.70959H3.78844H3.89541H4.044V26.1279H4.33528V25.7179H4.62666V25.0342H4.91794V25.7179H5.21063V26.1279H5.50341V26.5441H5.79319V25.3077H5.50331V24.7608H5.21053V24.2734H4.91784V24.0059V24V23.7266H5.21053V23.251H5.50331V22.6982H5.79319V21.4618H5.50331V21.8721H5.21053V22.2821H4.91784V22.9716H4.62656V22.2821H4.33519V21.8721H4.04391V21.3251H3.89531H3.78834H3.7095H3.60413V20.6415H3.7095H3.75122V19.5417H4.041V19.1256V18.9889H4.33509V19.1256V19.8151H4.041V20.5045H4.33509V21.1882H4.62647V21.8719H4.91775V21.1882H5.21044V20.5045H5.50163V19.8151H5.79319V19.1256H5.50181V18.442H5.21063V17.7523H4.91794V17.0687H4.62666V16.3792H4.33509V16.3794ZM1.12078 15.6958H1.26506V15.4224H1.41506V15.6958H1.55766V15.9692H1.41506V16.2486H1.26506V15.9692H1.12078V15.6958ZM1.12078 15.143H0.975094V15.559H0.828094V16.106H0.975094V16.522H1.12078V16.9323H1.55766V16.522H1.70475V16.106H1.84753V15.559H1.70475V15.143H1.55766V14.7388H1.12078V15.143ZM2.72719 15.6958H2.87128V15.4224H3.01997V15.6958H3.16406V15.9692H3.01997V16.2486H2.87128V15.9692H2.72719V15.6958ZM3.45694 15.6958H3.60403V15.4224H3.75113V15.6958H3.89522V15.9692H3.75113V16.2486H3.60403V15.9692H3.45694V15.6958ZM2.72719 15.143H2.5815V15.559H2.43441V16.106H2.5815V16.522H2.72719V16.9323H3.16406V16.522H3.45684V16.9323H3.89522V16.522H4.04381V16.106H4.18659V15.559H4.04381V15.143H3.89522V14.7388H3.45684V15.143H3.16406V14.7388H2.72719V15.143ZM5.05884 15.6899H5.20453V15.4223H5.35163V15.6899H5.49872V15.9693H5.35163V16.2426H5.20453V15.9693H5.05884V15.6899ZM5.05884 14.7329V15.143H4.91475V15.559H4.76766V16.106H4.91475V16.516H5.05884V16.9263H5.49881V16.516H5.6445V16.106H5.78859V15.559H5.6445V15.143H5.49881V14.7329H5.05884ZM0.828094 14.4594H1.12078V13.6391H0.828094V14.4594ZM3.16416 14.4594H3.45694V13.6391H3.16416V14.4594ZM5.50172 14.4594H5.79309V13.6391H5.50172V14.4594ZM1.99763 12.5394H2.28741V11.8497H1.99763V12.5394ZM4.33509 12.5394H4.62647V11.8497H4.33509V12.5394ZM0.828094 10.4767H1.12078V9.65643H0.828094V10.4767ZM3.16416 10.4767H3.45694V9.65643H3.16416V10.4767ZM5.50172 10.4767H5.79309V9.65643H5.50172V10.4767ZM1.41506 11.8498H1.70484V11.1662H1.99763V10.4767H2.28741V11.1662H2.58169V11.8498H2.87147V12.5395H2.58169V13.2231H2.28741V13.9126H1.99763V13.2231H1.70484V12.5395H1.41506V11.8498ZM3.75122 11.8498H4.04391V11.1662H4.33519V10.4767H4.62656V11.1662H4.91784V11.8498H5.21053V12.5395H4.91784V13.2231H4.62656V13.9126H4.33519V13.2231H4.04391V12.5395H3.75122V11.8498ZM4.33509 9.10349V9.79321H4.04381V10.4768H3.75113V11.1663H3.45684V11.8499H3.16406V11.1663H2.87128V10.4768H2.5815V9.79321H2.29031V9.10349H1.99753V9.79321H1.70475V10.4768H1.41497V11.1663H1.12069V11.8499H0.828094V12.5396H1.12078V13.2232H1.41506V13.9127H1.70484V14.6021H1.99763V15.2857H2.28741V14.6021H2.58169V13.9127H2.87147V13.2232H3.16425V12.5396H3.45703V13.2232H3.75131V13.9127H4.04109V14.6021H4.33519V15.2857H4.62656V14.6021H4.91784V13.9127H5.21053V13.2232H5.50172V12.5396H5.79309V11.8499H5.50322V11.1663H5.21044V10.4768H4.91775V9.79321H4.62647V9.10349H4.33509Z" fill="#FF4B55"/>
</svg>
