<svg width="48" height="48" viewBox="0 0 48 48" fill="none" xmlns="http://www.w3.org/2000/svg">
<path d="M47.9999 11.5862H0V9.10347C0 8.64644 0.370593 8.27585 0.827623 8.27585H47.1724C47.6294 8.27585 48 8.64644 48 9.10347L47.9999 11.5862Z" fill="#FF4B55"/>
<path d="M0 36.4137H47.9999V38.8965C47.9999 39.3535 47.6293 39.7241 47.1723 39.7241H0.827623C0.370593 39.7241 0 39.3535 0 38.8965V36.4137Z" fill="#FF4B55"/>
<path d="M47.9999 11.5865H0V36.4143H47.9999V11.5865Z" fill="#41479B"/>
<path d="M24 34.7587C29.9419 34.7587 34.7587 29.9419 34.7587 24C34.7587 18.0581 29.9419 13.2412 24 13.2412C18.0581 13.2412 13.2412 18.0581 13.2412 24C13.2412 29.9419 18.0581 34.7587 24 34.7587Z" fill="white"/>
<path d="M21.9353 29.6572L20.2755 29.9339C20.0664 29.9687 19.8759 29.8075 19.8759 29.5952V28.9708H21.9352L21.9353 29.6572Z" fill="#82AFFF"/>
<path d="M26.0542 29.6572L27.7139 29.9339C27.9231 29.9687 28.1136 29.8075 28.1136 29.5952V28.9708H26.0543V29.6572H26.0542Z" fill="#82AFFF"/>
<path d="M23.6518 18.492H23.5084C23.3361 18.492 23.1813 18.3961 23.1041 18.2422L22.8502 17.7344L23.0805 17.6191L23.3344 18.1269C23.3675 18.1933 23.4343 18.2345 23.5084 18.2345H23.6518V18.492Z" fill="#965032"/>
<path d="M21.4189 18.8124L20.9934 17.9614L20.7631 18.0765L21.1886 18.9275L21.4189 18.8124Z" fill="#965032"/>
<path d="M24.4669 22.4495L23.7636 21.7463C23.6108 21.5935 23.523 21.382 23.523 21.1657V20.929C23.523 20.8422 23.5024 20.755 23.4636 20.6773L23.2883 20.3267C23.2517 20.2536 23.1782 20.208 23.0963 20.208H22.491C22.311 20.208 22.1493 20.108 22.0688 19.9472L21.8205 19.4504L22.0507 19.3351L22.2991 19.8318C22.3357 19.9049 22.4092 19.9505 22.491 19.9505H23.0963C23.2763 19.9505 23.4381 20.0505 23.5185 20.2113L23.6938 20.562C23.7505 20.6756 23.7805 20.8023 23.7805 20.929V21.1657C23.7805 21.3141 23.8407 21.4593 23.9456 21.5639L24.2096 21.828V20.6287C24.2096 20.3036 24.0977 19.9848 23.8945 19.7308C23.6551 19.4311 23.5232 19.0554 23.5232 18.672V17.6768H23.7805V18.672C23.7805 18.9971 23.8925 19.3158 24.0956 19.5699C24.3352 19.8696 24.467 20.2453 24.467 20.6287V22.4495H24.4669Z" fill="#965032"/>
<path d="M23.8546 21.7838H23.4725C23.2368 21.7838 23.0235 21.6354 22.9414 21.4148L22.8447 21.154L23.086 21.0642L23.1827 21.325C23.2275 21.4457 23.3439 21.5264 23.4725 21.5264H23.8546V21.7838Z" fill="#965032"/>
<path d="M25.1435 17.3857L24.9078 17.2817L23.459 20.5672L23.6946 20.6711L25.1435 17.3857Z" fill="#965032"/>
<path d="M25.4966 20.2081H24.2524V19.9507H25.2392V18.7066H25.4966V20.2081Z" fill="#965032"/>
<path d="M23.1369 21.4523H22.1073C21.8229 21.4523 21.5924 21.2219 21.5924 20.9374C21.5924 20.6531 21.8228 20.4225 22.1073 20.4225H23.137C23.4213 20.4225 23.6519 20.653 23.6519 20.9374C23.6518 21.2219 23.4212 21.4523 23.1369 21.4523Z" fill="#73AF00"/>
<path d="M25.5396 21.4523H24.5098C24.2255 21.4523 23.995 21.2219 23.995 20.9374C23.995 20.6531 24.2254 20.4225 24.5098 20.4225H25.5396C25.8239 20.4225 26.0545 20.653 26.0545 20.9374C26.0545 21.2219 25.8238 21.4523 25.5396 21.4523Z" fill="#73AF00"/>
<path d="M26.569 20.4227H25.1961C24.9118 20.4227 24.6813 20.1922 24.6813 19.9078C24.6813 19.6234 24.9117 19.3929 25.1961 19.3929H26.569C26.8534 19.3929 27.0839 19.6234 27.0839 19.9078C27.0838 20.1921 26.8534 20.4227 26.569 20.4227Z" fill="#73AF00"/>
<path d="M26.9125 19.0498H24.5098C24.2255 19.0498 23.995 18.8193 23.995 18.5349C23.995 18.2505 24.2254 18.02 24.5098 18.02H26.9125C27.1968 18.02 27.4273 18.2505 27.4273 18.5349C27.4273 18.8191 27.1968 19.0498 26.9125 19.0498Z" fill="#73AF00"/>
<path d="M25.5395 17.6768H24.853C24.5687 17.6768 24.3382 17.4464 24.3382 17.1619C24.3382 16.8776 24.5686 16.6471 24.853 16.6471H25.5395C25.8238 16.6471 26.0543 16.8775 26.0543 17.1619C26.0543 17.4463 25.8237 17.6768 25.5395 17.6768Z" fill="#73AF00"/>
<path d="M21.0777 18.3632H20.7344C20.4501 18.3632 20.2196 18.1328 20.2196 17.8484C20.2196 17.564 20.45 17.3335 20.7344 17.3335H21.0777C21.362 17.3335 21.5925 17.5639 21.5925 17.8484C21.5924 18.1328 21.3619 18.3632 21.0777 18.3632Z" fill="#73AF00"/>
<path d="M23.4801 18.02H22.4504C22.166 18.02 21.9355 17.7896 21.9355 17.5052C21.9355 17.2208 22.1659 16.9903 22.4504 16.9903H23.4801C23.7645 16.9903 23.995 17.2207 23.995 17.5052C23.9948 17.7896 23.7644 18.02 23.4801 18.02Z" fill="#73AF00"/>
<path d="M23.1368 19.7361H21.0775C20.7932 19.7361 20.5627 19.5057 20.5627 19.2212C20.5627 18.9369 20.7931 18.7064 21.0775 18.7064H23.1368C23.4212 18.7064 23.6517 18.9368 23.6517 19.2212C23.6517 19.5057 23.4212 19.7361 23.1368 19.7361Z" fill="#73AF00"/>
<path d="M29.1432 26.9113H18.8464C18.4673 26.9113 18.16 27.2187 18.16 27.5978C18.16 27.9769 18.4673 28.2842 18.8464 28.2842H21.5922C21.5922 28.6633 21.8996 28.9707 22.2787 28.9707H25.711C26.0901 28.9707 26.3974 28.6633 26.3974 28.2842H29.1432C29.5224 28.2842 29.8297 27.9769 29.8297 27.5978C29.8297 27.2188 29.5224 26.9113 29.1432 26.9113Z" fill="#73AF00"/>
<path d="M30.8378 20.8191C30.8121 20.7676 30.6783 20.8288 30.5947 20.7978C29.5578 20.4124 28.1656 19.7102 27.2557 19.2315L27.073 18.9423L25.3482 18.104C25.2384 18.0507 25.1061 18.0918 25.0458 18.1978L24.9608 18.3472C24.8959 18.4613 24.9388 18.6064 25.0551 18.667L26.6974 19.5214L27.1615 19.4871L28.9653 20.4145C28.9653 20.4145 30.1909 21.0414 30.2561 21.0874C30.3212 21.1335 30.3586 21.3914 30.4801 21.3698C30.5673 21.3544 30.9488 21.0422 30.8378 20.8191Z" fill="#BE7855"/>
<path d="M19.4613 27.4262C19.4613 27.4262 19.5757 27.934 19.4684 27.9912C19.3612 28.0483 18.7891 28.0483 18.8035 27.9268C18.8177 27.8053 18.8965 27.3763 18.8965 27.3763L19.4613 27.4262Z" fill="#FFBE3C"/>
<path d="M20.4121 27.1544C20.4121 27.1544 20.3191 27.5334 20.5051 27.5477C20.691 27.562 21.7421 27.5549 21.7708 27.5264C21.7995 27.4979 21.8351 27.4262 21.8351 27.4262L20.8626 27.1544H20.4121Z" fill="#FFBE3C"/>
<path d="M19.3455 22.428C19.3455 22.428 19.0898 23.0358 18.9968 25.1417C18.9721 25.702 19.0398 25.5707 18.7609 27.3727L19.0918 27.5455C19.1882 27.5957 19.3039 27.5922 19.3969 27.5357L19.719 27.3405C19.719 27.3405 19.5617 25.3242 20.0765 24.1657C20.0765 24.1657 20.3483 24.6663 20.3483 25.038C20.3483 25.4098 20.3341 27.1975 20.3341 27.1975C20.3341 27.1975 20.9347 27.2976 21.2064 27.269C21.2064 27.269 21.0348 23.3898 20.8632 22.4763L19.3455 22.428Z" fill="#EAF3F5"/>
<path d="M19.3935 22.1706C19.3935 22.1706 19.2916 22.2457 19.3452 22.428C19.3452 22.428 20.1282 22.7658 20.863 22.4762C20.863 22.4762 20.9434 22.3582 20.8416 22.2135L19.3935 22.1706Z" fill="#965032"/>
<path d="M18.3459 20.3116C17.9003 20.4772 17.2233 20.8907 17.2662 21.2197C17.3091 21.5487 17.5422 21.4684 17.6149 21.3876C17.6877 21.3068 17.8964 21.0477 17.9616 21.0017C18.0269 20.9556 19.0807 20.4145 19.0807 20.4145L21.8712 18.9798C21.8712 18.9798 21.8926 18.8403 21.7263 18.7277C21.7263 18.7277 20.0192 19.6894 18.3459 20.3116Z" fill="#965032"/>
<path d="M19.6615 18.6955L19.6454 18.8135C19.6454 18.8135 19.6024 19.5697 19.8492 19.7735C19.8492 19.7735 19.9028 19.929 19.817 20.0041C19.7312 20.0793 18.8839 20.5082 18.8839 20.5082C18.8839 20.5082 18.664 20.9641 18.6693 21.2215C18.6693 21.2215 18.4602 21.1411 18.4816 21.0391C18.503 20.9372 18.6265 20.6691 18.5889 20.5404C18.5513 20.4117 18.4119 20.4493 18.4119 20.4493C18.4119 20.4493 18.3421 20.5244 18.4548 20.5726L18.4172 20.7334L17.9613 21.0016L18.0632 21.1248C18.0632 21.1248 18.0686 22.0687 18.6263 22.192C18.6263 22.192 18.9212 22.2134 19.2699 21.5484C19.2699 21.5484 19.4576 21.8808 19.3932 22.1705C19.3932 22.1705 20.0045 22.503 20.8411 22.2135L20.8519 21.6343C20.8519 21.6343 20.9806 22.5245 21.4203 22.4386C21.4203 22.4386 22.6385 21.9697 22.4356 21.7915C21.9637 21.3767 21.3938 21.7273 21.3938 21.7273C21.3661 21.1248 21.3158 20.3456 21.2379 20.2613C21.1092 20.1219 20.7123 20.197 20.6337 20.0182C20.555 19.8394 20.5765 19.5249 20.6623 19.1601C20.7481 18.7954 20.3119 18.538 20.3119 18.538L19.6615 18.6955Z" fill="#FFBE3C"/>
<path d="M19.6454 18.8134C19.6454 18.8134 20.0834 18.9242 20.4266 18.7884L20.5768 19.1602H20.6626C20.6626 19.1602 20.8694 18.4721 20.5948 18.4802C20.5948 18.4802 20.5938 18.2568 20.1143 18.2661C19.7024 18.2742 19.5597 18.5417 19.6454 18.8134Z" fill="#464655"/>
<path d="M28.5851 27.4262C28.5851 27.4262 28.4707 27.934 28.5779 27.9912C28.6852 28.0483 29.2572 28.0483 29.2429 27.9268C29.2286 27.8053 29.1499 27.3763 29.1499 27.3763L28.5851 27.4262Z" fill="#965032"/>
<path d="M27.6339 27.1544C27.6339 27.1544 27.7269 27.5334 27.5409 27.5477C27.355 27.562 26.3039 27.5549 26.2752 27.5264C26.2465 27.4978 26.2109 27.4262 26.2109 27.4262L27.1834 27.1544H27.6339Z" fill="#965032"/>
<path d="M28.7012 22.428C28.7012 22.428 28.9569 23.0358 29.0499 25.1417C29.0746 25.702 29.0069 25.5707 29.2858 27.3727L28.9549 27.5455C28.8585 27.5957 28.7428 27.5922 28.6498 27.5357L28.3277 27.3405C28.3277 27.3405 28.485 25.3242 27.9702 24.1657C27.9702 24.1657 27.6984 24.6663 27.6984 25.038C27.6984 25.4098 27.7126 27.1975 27.7126 27.1975C27.7126 27.1975 27.112 27.2976 26.8403 27.269C26.8403 27.269 27.0119 23.3898 27.1835 22.4763L28.7012 22.428Z" fill="#EAF3F5"/>
<path d="M28.6528 22.1706C28.6528 22.1706 28.7547 22.2457 28.7011 22.428C28.7011 22.428 27.9181 22.7658 27.1834 22.4762C27.1834 22.4762 27.1029 22.3582 27.2047 22.2135L28.6528 22.1706Z" fill="#BE7855"/>
<path d="M28.3846 18.6955L28.4007 18.8135C28.4007 18.8135 28.4436 19.5697 28.1969 19.7735C28.1969 19.7735 28.1433 19.929 28.2291 20.0041C28.3148 20.0793 29.1621 20.5082 29.1621 20.5082C29.1621 20.5082 29.382 20.9641 29.3767 21.2215C29.3767 21.2215 29.5859 21.1411 29.5644 21.0391C29.543 20.9372 29.4196 20.6691 29.4572 20.5404C29.4948 20.4117 29.6342 20.4493 29.6342 20.4493C29.6342 20.4493 29.7039 20.5244 29.5912 20.5726L29.6288 20.7334L30.0847 21.0016L29.9828 21.1248C29.9828 21.1248 29.9775 22.0687 29.4198 22.192C29.4198 22.192 29.1248 22.2134 28.7762 21.5484C28.7762 21.5484 28.5885 21.8808 28.6529 22.1705C28.6529 22.1705 28.0416 22.503 27.2049 22.2135L27.1942 21.6343C27.1942 21.6343 27.0654 22.5245 26.6257 22.4386C26.6257 22.4386 25.4076 21.9697 25.6104 21.7915C26.0824 21.3767 26.6523 21.7273 26.6523 21.7273C26.6799 21.1248 26.7303 20.3456 26.8082 20.2613C26.9369 20.1219 27.3337 20.197 27.4124 20.0182C27.4912 19.8394 27.4696 19.5249 27.3838 19.1601C27.298 18.7954 27.7342 18.538 27.7342 18.538L28.3846 18.6955Z" fill="#965032"/>
<path d="M28.401 18.8134C28.401 18.8134 27.963 18.9242 27.6198 18.7884L27.4696 19.1602H27.3838C27.3838 19.1602 27.177 18.4721 27.4516 18.4802C27.4516 18.4802 27.4526 18.2568 27.932 18.2661C28.344 18.2742 28.4869 18.5417 28.401 18.8134Z" fill="#464655"/>
<path d="M21.0432 19.1C21.0074 19.0129 21.0674 18.989 21.0674 18.989C21.0674 18.989 21.5014 18.7508 21.552 18.7548C21.6354 18.7616 21.7378 18.9082 21.7378 19.0335C21.7378 19.1586 21.9008 19.4836 22.236 19.5644C22.236 19.5644 21.8177 20.1328 21.2371 20.0552C21.2371 20.055 21.276 19.6661 21.0432 19.1Z" fill="#EAF3F5"/>
<path d="M21.6517 21.763C21.5231 21.763 21.4188 21.8742 21.4188 22.0113V24.852C21.4188 25.5384 21.7407 27.941 23.993 28.6274C26.2453 27.9409 26.5672 25.5383 26.5672 24.852V22.0113C26.5672 21.8742 26.4629 21.763 26.3343 21.763H21.6517Z" fill="#82AFFF"/>
<path d="M26.5673 24.8521V22.0114C26.5673 21.8743 26.463 21.7631 26.3344 21.7631H23.9931V24.1657L26.2557 26.4284C26.5062 25.7671 26.5673 25.149 26.5673 24.8521Z" fill="#FFE15A"/>
<path d="M21.4188 24.8521V22.0114C21.4188 21.8743 21.5231 21.7631 21.6517 21.7631H23.993V24.1657L21.7303 26.4284C21.4798 25.7671 21.4188 25.149 21.4188 24.8521Z" fill="#EAF3F5"/>
<path d="M22.4749 26.3548L23.0705 26.9847H24.7295L25.0811 26.5339L24.6766 26.6957H23.3359L22.4749 26.3548Z" fill="#8C5A28"/>
<path d="M23.1164 25.542L23.0255 26.4588L22.6117 26.3009C22.6117 26.3009 22.8021 25.8589 23.1164 25.542Z" fill="white"/>
<path d="M23.9938 25.1784H23.9326V26.7394H23.9938V25.1784Z" fill="#8C5A28"/>
<path d="M24.56 25.3106H24.4989V26.7398H24.56V25.3106Z" fill="#8C5A28"/>
<path d="M23.4301 25.3106H23.369V26.7398H23.4301V25.3106Z" fill="#8C5A28"/>
<path d="M24.1699 26.5918H23.7571C23.7291 26.5918 23.7063 26.569 23.7063 26.541V26.3131C23.7063 26.2851 23.7291 26.2623 23.7571 26.2623H24.1699C24.1979 26.2623 24.2207 26.2851 24.2207 26.3131V26.541C24.2206 26.569 24.1979 26.5918 24.1699 26.5918Z" fill="white"/>
<path d="M24.1699 26.1526H23.7571C23.7291 26.1526 23.7063 26.1298 23.7063 26.1017V25.8739C23.7063 25.8459 23.7291 25.8231 23.7571 25.8231H24.1699C24.1979 25.8231 24.2207 25.8459 24.2207 25.8739V26.1017C24.2206 26.1298 24.1979 26.1526 24.1699 26.1526Z" fill="white"/>
<path d="M24.1699 25.748H23.7571C23.7291 25.748 23.7063 25.7252 23.7063 25.6972V25.4694C23.7063 25.4414 23.7291 25.4186 23.7571 25.4186H24.1699C24.1979 25.4186 24.2207 25.4414 24.2207 25.4694V25.6972C24.2206 25.7252 24.1979 25.748 24.1699 25.748Z" fill="white"/>
<path d="M24.7012 26.5918H24.3579C24.3298 26.5918 24.3071 26.569 24.3071 26.541V26.3131C24.3071 26.2851 24.3298 26.2623 24.3579 26.2623H24.7012C24.7292 26.2623 24.752 26.2851 24.752 26.3131V26.541C24.7519 26.569 24.7292 26.5918 24.7012 26.5918Z" fill="white"/>
<path d="M24.7012 26.1873H24.3579C24.3298 26.1873 24.3071 26.1645 24.3071 26.1365V25.9604C24.3071 25.9323 24.3298 25.9095 24.3579 25.9095H24.7012C24.7292 25.9095 24.752 25.9323 24.752 25.9604V26.1365C24.7519 26.1646 24.7292 26.1873 24.7012 26.1873Z" fill="white"/>
<path d="M24.7012 25.7865H24.3579C24.3298 25.7865 24.3071 25.7638 24.3071 25.7357V25.6041C24.3071 25.5761 24.3298 25.5533 24.3579 25.5533H24.7012C24.7292 25.5533 24.752 25.5761 24.752 25.6041V25.7357C24.7519 25.7638 24.7292 25.7865 24.7012 25.7865Z" fill="white"/>
<path d="M23.5711 26.5918H23.2278C23.1998 26.5918 23.177 26.569 23.177 26.541V26.3131C23.177 26.2851 23.1998 26.2623 23.2278 26.2623H23.5711C23.5991 26.2623 23.6219 26.2851 23.6219 26.3131V26.541C23.6219 26.569 23.5991 26.5918 23.5711 26.5918Z" fill="white"/>
<path d="M23.5711 26.1873H23.2278C23.1998 26.1873 23.177 26.1645 23.177 26.1365V25.9604C23.177 25.9323 23.1998 25.9095 23.2278 25.9095H23.5711C23.5991 25.9095 23.6219 25.9323 23.6219 25.9604V26.1365C23.6219 26.1646 23.5991 26.1873 23.5711 26.1873Z" fill="white"/>
<path d="M23.5711 25.7865H23.2278C23.1998 25.7865 23.177 25.7638 23.177 25.7357V25.6041C23.177 25.5761 23.1998 25.5533 23.2278 25.5533H23.5711C23.5991 25.5533 23.6219 25.5761 23.6219 25.6041V25.7357C23.6219 25.7638 23.5991 25.7865 23.5711 25.7865Z" fill="white"/>
<path d="M24.4985 25.3109V25.4956L24.2267 25.4016L24.4985 25.3109Z" fill="#FF4B55"/>
<path d="M23.3694 25.3109V25.4956L23.0976 25.4016L23.3694 25.3109Z" fill="#FF4B55"/>
<path d="M23.9349 25.1782V25.3629L23.663 25.2688L23.9349 25.1782Z" fill="#FF4B55"/>
<path d="M26.036 26.9113H21.95C22.0108 27.0271 22.0776 27.1417 22.1524 27.2546H25.8334C25.9085 27.1418 25.9751 27.0271 26.036 26.9113Z" fill="#4173CD"/>
<path d="M25.8334 27.2547H22.1523C22.3149 27.4994 22.5142 27.7318 22.7531 27.9411H25.2325C25.4716 27.7318 25.6708 27.4993 25.8334 27.2547Z" fill="#73AF00"/>
<path d="M22.753 27.9411C23.0824 28.2298 23.4867 28.4732 23.9928 28.6275C24.4989 28.4733 24.9031 28.2297 25.2325 27.9411H22.753Z" fill="#FFE15A"/>
<path d="M23.552 24.3673C23.552 24.3673 23.5269 24.3761 23.4999 24.373C23.479 24.364 23.4362 24.3627 23.462 24.2834C23.4745 24.2441 23.5008 24.1886 23.4818 24.1743C23.4664 24.1564 23.4497 24.1371 23.4318 24.1165C23.3961 24.0752 23.356 24.0286 23.312 23.9777C23.2218 23.8784 23.1149 23.7641 22.9902 23.6515C22.9281 23.5951 22.8639 23.5366 22.7984 23.4774C22.7307 23.4204 22.6683 23.3565 22.5946 23.3034C22.5529 23.2815 22.4999 23.2705 22.4536 23.2533C22.4084 23.2351 22.38 23.2007 22.3469 23.1716C22.2821 23.1118 22.2185 23.0529 22.1568 22.9959C22.0316 22.8838 21.9216 22.7726 21.8276 22.677C21.7363 22.5857 21.6626 22.5065 21.6106 22.4487C21.561 22.3936 21.5642 22.3099 21.6175 22.2586L21.7699 22.1115C21.8231 22.0601 21.907 22.0599 21.9601 22.1114C22.016 22.1654 22.0927 22.242 22.1804 22.3364C22.2726 22.4338 22.3798 22.5477 22.4874 22.6768C22.5421 22.7405 22.5985 22.8063 22.6561 22.8731C22.684 22.9072 22.7173 22.9367 22.734 22.9825C22.7496 23.0294 22.7587 23.0827 22.779 23.1252C22.8295 23.2007 22.891 23.2654 22.9457 23.3352C23.0026 23.4025 23.0586 23.4689 23.1128 23.533C23.2209 23.6616 23.3312 23.7724 23.4274 23.8661C23.4766 23.9118 23.5217 23.9536 23.5617 23.9908C23.5817 24.0093 23.6005 24.0267 23.6178 24.0428C23.6315 24.0624 23.6878 24.038 23.7275 24.027C23.8076 24.004 23.8075 24.0468 23.8157 24.068C23.8178 24.0951 23.8081 24.12 23.8081 24.12L23.552 24.3673Z" fill="#BE7855"/>
<path d="M21.8712 24.6376C21.8448 24.6376 21.818 24.6295 21.795 24.6125C21.7379 24.5703 21.7256 24.4897 21.7679 24.4325L22.9907 22.7736C23.0328 22.7166 23.1128 22.7039 23.1707 22.7465C23.2278 22.7887 23.24 22.8692 23.1978 22.9265L21.975 24.5854C21.9497 24.6194 21.9107 24.6376 21.8712 24.6376Z" fill="#965032"/>
<path d="M22.8506 22.664L23.4871 23.0859L23.7587 22.7069L23.1652 22.2278L22.8506 22.664Z" fill="white"/>
<path d="M24.5417 22.5009L26.1726 24.512C26.1726 24.512 26.4018 24.5224 26.3706 24.3401L24.6824 22.3602L24.5417 22.5009Z" fill="#965032"/>
<path d="M24.1771 22.777C24.1771 22.777 24.6357 22.6936 24.8284 22.407L25.0889 22.7144C25.0889 22.7144 24.6617 23.0166 24.62 23.3448C24.62 23.3449 24.271 23.2512 24.1771 22.777Z" fill="#EAF3F5"/>
<path d="M25.9384 22.579C25.9084 22.579 25.8796 22.5628 25.8646 22.5344C25.8182 22.4464 25.8103 22.367 25.8408 22.298C25.8837 22.2013 25.9844 22.1729 25.9957 22.17C26.0411 22.1599 26.0857 22.1857 26.0973 22.2299C26.1087 22.2742 26.0823 22.3196 26.0383 22.3312C26.029 22.3341 26.0016 22.3462 25.993 22.3661C25.9848 22.3857 25.9917 22.4179 26.0122 22.4569C26.0337 22.4976 26.0181 22.548 25.9772 22.5696C25.9648 22.5761 25.9515 22.579 25.9384 22.579Z" fill="#965032"/>
<path d="M24.5986 23.8199C24.5986 23.7899 24.5823 23.7611 24.5539 23.7461C24.466 23.6997 24.3866 23.6917 24.3176 23.7223C24.2208 23.7651 24.1925 23.8659 24.1896 23.8771C24.1795 23.9225 24.2053 23.9671 24.2495 23.9788C24.2938 23.9901 24.3391 23.9638 24.3508 23.9197C24.3537 23.9104 24.3658 23.883 24.3856 23.8744C24.4052 23.8663 24.4375 23.8731 24.4765 23.8936C24.5172 23.9152 24.5676 23.8995 24.5892 23.8587C24.5956 23.8462 24.5986 23.833 24.5986 23.8199Z" fill="#965032"/>
<path d="M25.9937 22.3915L24.4585 23.899L24.8197 24.3019L26.3203 22.7875L25.9937 22.3915Z" fill="#EAF3F5"/>
<path d="M18.1957 20.2186C18.2985 20.1947 18.3887 20.3329 18.2958 20.4332C18.2028 20.5333 17.9342 20.7141 17.8525 20.6978C17.7095 20.669 17.6094 20.3543 18.1957 20.2186Z" fill="#FFBE3C"/>
<path d="M29.8446 20.3633C29.7492 20.3395 29.6656 20.4777 29.7518 20.5779C29.8379 20.678 30.087 20.8589 30.1629 20.8426C30.2954 20.8138 30.3883 20.4991 29.8446 20.3633Z" fill="#965032"/>
<path d="M26.3341 21.763C26.4627 21.763 26.5669 21.8742 26.5669 22.0113V24.852C26.5669 25.5384 26.2451 27.941 23.9928 28.6274C21.7404 27.9409 21.4186 25.5383 21.4186 24.852V22.0113C21.4186 21.8742 21.5228 21.763 21.6514 21.763H26.3341ZM26.3341 21.5913H21.6515C21.4285 21.5913 21.2471 21.7797 21.2471 22.0113V24.852C21.2471 25.0159 21.2692 25.8812 21.7058 26.8126C22.17 27.8027 22.9436 28.487 23.943 28.7917L23.993 28.8069L24.0431 28.7917C25.0425 28.4871 25.8161 27.8027 26.2802 26.8126C26.7168 25.8813 26.739 25.016 26.739 24.852V22.0113C26.7385 21.7799 26.5571 21.5913 26.3341 21.5913Z" fill="#464655"/>
<path d="M28.1134 28.6678C27.3841 28.4233 26.6016 28.536 25.8636 29.0284C24.9204 29.6572 24.2952 29.6572 23.9946 29.6572C23.694 29.6572 23.0688 29.6572 22.1256 29.0284C21.3878 28.5364 20.605 28.4234 19.8758 28.6677V29.4034C20.3354 29.1837 20.9831 29.0918 21.7448 29.5994C22.861 30.3435 23.6554 30.3435 23.9946 30.3435C24.3338 30.3435 25.1282 30.3435 26.2444 29.5994C27.0061 29.0913 27.6538 29.1835 28.1134 29.4033V28.6678Z" fill="#EAF3F5"/>
<path d="M23.9949 32.5747C19.1689 32.5747 15.2427 28.6483 15.2427 23.8225C15.2427 18.9966 19.169 15.0703 23.9949 15.0703C28.8207 15.0703 32.7471 18.9966 32.7471 23.8225C32.7471 28.6483 28.8208 32.5747 23.9949 32.5747ZM23.9949 15.4134C19.3581 15.4134 15.5858 19.1855 15.5858 23.8225C15.5858 28.4594 19.3581 32.2316 23.9949 32.2316C28.6317 32.2316 32.404 28.4594 32.404 23.8225C32.404 19.1855 28.6317 15.4134 23.9949 15.4134Z" fill="#965032"/>
<path d="M14.4203 24.5518C14.4203 24.5518 14.3845 23.4792 15.4142 23.4792C15.4142 23.4792 15.4356 23.9011 15.0639 24.087C14.7632 24.2373 14.4203 24.5518 14.4203 24.5518Z" fill="#73AF00"/>
<path d="M16.4083 24.5518C16.4083 24.5518 16.4441 23.4792 15.4143 23.4792C15.4143 23.4792 15.3929 23.9011 15.7647 24.087C16.0654 24.2373 16.4083 24.5518 16.4083 24.5518Z" fill="#73AF00"/>
<path d="M33.5624 23.4792C33.5624 23.4792 33.5982 24.5518 32.5685 24.5518C32.5685 24.5518 32.5471 24.1299 32.9188 23.944C33.2195 23.7936 33.5624 23.4792 33.5624 23.4792Z" fill="#73AF00"/>
<path d="M31.5742 23.4792C31.5742 23.4792 31.5384 24.5518 32.5681 24.5518C32.5681 24.5518 32.5895 24.1299 32.2178 23.944C31.9169 23.7936 31.5742 23.4792 31.5742 23.4792Z" fill="#73AF00"/>
<path d="M24.5276 33.5865C24.5276 33.5865 23.455 33.6223 23.455 32.5925C23.455 32.5925 23.8769 32.5711 24.0628 32.9429C24.2131 33.2435 24.5276 33.5865 24.5276 33.5865Z" fill="#73AF00"/>
<path d="M24.5276 31.5984C24.5276 31.5984 23.455 31.5626 23.455 32.5923C23.455 32.5923 23.8769 32.6137 24.0628 32.242C24.2131 31.9413 24.5276 31.5984 24.5276 31.5984Z" fill="#73AF00"/>
<path d="M23.4551 14.4445C23.4551 14.4445 24.5277 14.4087 24.5277 15.4385C24.5277 15.4385 24.1058 15.4598 23.9199 15.0881C23.7694 14.7874 23.4551 14.4445 23.4551 14.4445Z" fill="#73AF00"/>
<path d="M23.4551 16.4325C23.4551 16.4325 24.5277 16.4684 24.5277 15.4386C24.5277 15.4386 24.1058 15.4172 23.9199 15.789C23.7694 16.0896 23.4551 16.4325 23.4551 16.4325Z" fill="#73AF00"/>
<path d="M17.6027 31.1624C17.6027 31.1624 16.819 30.4292 17.5471 29.7012C17.5471 29.7012 17.8605 29.9843 17.7291 30.3786C17.623 30.6975 17.6027 31.1624 17.6027 31.1624Z" fill="#73AF00"/>
<path d="M19.0085 29.7567C19.0085 29.7567 18.2754 28.9729 17.5473 29.701C17.5473 29.701 17.8305 30.0144 18.2248 29.8831C18.5436 29.7767 19.0085 29.7567 19.0085 29.7567Z" fill="#73AF00"/>
<path d="M30.3799 16.8686C30.3799 16.8686 31.1637 17.6017 30.4356 18.3298C30.4356 18.3298 30.1222 18.0467 30.2536 17.6524C30.3598 17.3334 30.3799 16.8686 30.3799 16.8686Z" fill="#73AF00"/>
<path d="M28.9738 18.2743C28.9738 18.2743 29.7069 19.058 30.435 18.33C30.435 18.33 30.1519 18.0166 29.7575 18.1479C29.4387 18.2541 28.9738 18.2743 28.9738 18.2743Z" fill="#73AF00"/>
<path d="M31.1381 30.4039C31.1381 30.4039 30.405 31.1876 29.6769 30.4596C29.6769 30.4596 29.9601 30.1462 30.3544 30.2776C30.6733 30.3839 31.1381 30.4039 31.1381 30.4039Z" fill="#73AF00"/>
<path d="M29.7324 28.9982C29.7324 28.9982 28.9487 29.7313 29.6768 30.4594C29.6768 30.4594 29.9902 30.1762 29.8588 29.7819C29.7525 29.463 29.7324 28.9982 29.7324 28.9982Z" fill="#73AF00"/>
<path d="M16.8443 17.6269C16.8443 17.6269 17.5775 16.8432 18.3055 17.5713C18.3055 17.5713 18.0224 17.8847 17.6281 17.7533C17.3091 17.647 16.8443 17.6269 16.8443 17.6269Z" fill="#73AF00"/>
<path d="M18.2501 19.0327C18.2501 19.0327 19.0339 18.2996 18.3058 17.5715C18.3058 17.5715 17.9924 17.8547 18.1237 18.249C18.2301 18.5679 18.2501 19.0327 18.2501 19.0327Z" fill="#73AF00"/>
<path d="M15.3541 28.1736C15.3541 28.1736 14.9106 27.1963 15.8619 26.8023C15.8619 26.8023 16.0431 27.1838 15.7708 27.4979C15.5505 27.7518 15.3541 28.1736 15.3541 28.1736Z" fill="#73AF00"/>
<path d="M17.1909 27.4129C17.1909 27.4129 16.8135 26.4082 15.8622 26.8022C15.8622 26.8022 16.0038 27.2002 16.4185 27.2297C16.7536 27.2535 17.1909 27.4129 17.1909 27.4129Z" fill="#73AF00"/>
<path d="M32.6286 19.8573C32.6286 19.8573 33.072 20.8345 32.1208 21.2285C32.1208 21.2285 31.9396 20.847 32.2119 20.5329C32.4321 20.279 32.6286 19.8573 32.6286 19.8573Z" fill="#73AF00"/>
<path d="M30.7915 20.6181C30.7915 20.6181 31.1688 21.6228 32.1202 21.2287C32.1202 21.2287 31.9786 20.8308 31.5639 20.8013C31.2287 20.7775 30.7915 20.6181 30.7915 20.6181Z" fill="#73AF00"/>
<path d="M28.1492 32.6527C28.1492 32.6527 27.1719 33.0961 26.7779 32.1449C26.7779 32.1449 27.1593 31.9636 27.4735 32.236C27.7275 32.4562 28.1492 32.6527 28.1492 32.6527Z" fill="#73AF00"/>
<path d="M27.3887 30.8159C27.3887 30.8159 26.3841 31.1933 26.7781 32.1447C26.7781 32.1447 27.176 32.003 27.2055 31.5884C27.2294 31.253 27.3887 30.8159 27.3887 30.8159Z" fill="#73AF00"/>
<path d="M19.8331 15.3782C19.8331 15.3782 20.8103 14.9347 21.2043 15.886C21.2043 15.886 20.8228 16.0672 20.5087 15.7949C20.2548 15.5747 19.8331 15.3782 19.8331 15.3782Z" fill="#73AF00"/>
<path d="M20.5941 17.215C20.5941 17.215 21.5987 16.8377 21.2047 15.8863C21.2047 15.8863 20.8067 16.0279 20.7773 16.4426C20.7534 16.7779 20.5941 17.215 20.5941 17.215Z" fill="#73AF00"/>
<path d="M20.8242 33.0632C20.8242 33.0632 19.8196 32.6858 20.2136 31.7344C20.2136 31.7344 20.6116 31.8761 20.641 32.2907C20.6648 32.626 20.8242 33.0632 20.8242 33.0632Z" fill="#73AF00"/>
<path d="M21.5847 31.2264C21.5847 31.2264 20.6075 30.7829 20.2134 31.7342C20.2134 31.7342 20.595 31.9155 20.909 31.6431C21.1629 31.4229 21.5847 31.2264 21.5847 31.2264Z" fill="#73AF00"/>
<path d="M27.1586 14.9678C27.1586 14.9678 28.1632 15.3452 27.7691 16.2966C27.7691 16.2966 27.3712 16.1549 27.3417 15.7402C27.3178 15.4049 27.1586 14.9678 27.1586 14.9678Z" fill="#73AF00"/>
<path d="M26.3975 16.8046C26.3975 16.8046 27.3748 17.248 27.7688 16.2967C27.7688 16.2967 27.3873 16.1155 27.0732 16.3879C26.8193 16.6081 26.3975 16.8046 26.3975 16.8046Z" fill="#73AF00"/>
<path d="M33.0388 27.1827C33.0388 27.1827 32.6615 28.1873 31.7101 27.7933C31.7101 27.7933 31.8517 27.3953 32.2664 27.3659C32.6017 27.342 33.0388 27.1827 33.0388 27.1827Z" fill="#73AF00"/>
<path d="M31.2021 26.4219C31.2021 26.4219 30.7586 27.3991 31.7099 27.7932C31.7099 27.7932 31.8912 27.4117 31.6188 27.0975C31.3985 26.8436 31.2021 26.4219 31.2021 26.4219Z" fill="#73AF00"/>
<path d="M14.9437 20.8482C14.9437 20.8482 15.321 19.8436 16.2724 20.2376C16.2724 20.2376 16.1308 20.6356 15.7161 20.665C15.3808 20.689 14.9437 20.8482 14.9437 20.8482Z" fill="#73AF00"/>
<path d="M16.7804 21.6091C16.7804 21.6091 17.2238 20.6318 16.2725 20.2378C16.2725 20.2378 16.0913 20.6194 16.3637 20.9334C16.584 21.1873 16.7804 21.6091 16.7804 21.6091Z" fill="#73AF00"/>
<path d="M14.7089 26.4087C14.7089 26.4087 14.4646 25.3636 15.4745 25.1627C15.4745 25.1627 15.5778 25.5723 15.2494 25.8271C14.9839 26.0333 14.7089 26.4087 14.7089 26.4087Z" fill="#73AF00"/>
<path d="M16.6587 26.0209C16.6587 26.0209 16.4845 24.9618 15.4746 25.1627C15.4746 25.1627 15.5359 25.5807 15.9368 25.6906C16.2611 25.7793 16.6587 26.0209 16.6587 26.0209Z" fill="#73AF00"/>
<path d="M33.2736 21.6222C33.2736 21.6222 33.5179 22.6672 32.5079 22.8681C32.5079 22.8681 32.4046 22.4585 32.733 22.2037C32.9986 21.9976 33.2736 21.6222 33.2736 21.6222Z" fill="#73AF00"/>
<path d="M31.3238 22.0101C31.3238 22.0101 31.498 23.0691 32.5079 22.8682C32.5079 22.8682 32.4467 22.4503 32.0457 22.3404C31.7215 22.2516 31.3238 22.0101 31.3238 22.0101Z" fill="#73AF00"/>
<path d="M26.3845 33.298C26.3845 33.298 25.3394 33.5423 25.1385 32.5323C25.1385 32.5323 25.5481 32.429 25.8029 32.7574C26.0092 33.023 26.3845 33.298 26.3845 33.298Z" fill="#73AF00"/>
<path d="M25.9967 31.3481C25.9967 31.3481 24.9377 31.5222 25.1386 32.5321C25.1386 32.5321 25.5565 32.4709 25.6664 32.0699C25.7552 31.7457 25.9967 31.3481 25.9967 31.3481Z" fill="#73AF00"/>
<path d="M21.5983 14.733C21.5983 14.733 22.6433 14.4887 22.8442 15.4986C22.8442 15.4986 22.4346 15.6019 22.1798 15.2735C21.9736 15.0079 21.5983 14.733 21.5983 14.733Z" fill="#73AF00"/>
<path d="M21.986 16.6829C21.986 16.6829 23.045 16.5087 22.8441 15.4988C22.8441 15.4988 22.4261 15.5601 22.3162 15.961C22.2275 16.2852 21.986 16.6829 21.986 16.6829Z" fill="#73AF00"/>
<path d="M19.1197 32.2713C19.1197 32.2713 18.208 31.7052 18.7801 30.849C18.7801 30.849 19.1428 31.0656 19.0908 31.478C19.0488 31.8117 19.1197 32.2713 19.1197 32.2713Z" fill="#73AF00"/>
<path d="M20.2242 30.6184C20.2242 30.6184 19.3522 29.9927 18.7801 30.8488C18.7801 30.8488 19.119 31.101 19.4802 30.8951C19.7722 30.7288 20.2242 30.6184 20.2242 30.6184Z" fill="#73AF00"/>
<path d="M28.8626 15.7596C28.8626 15.7596 29.7743 16.3257 29.2023 17.1818C29.2023 17.1818 28.8396 16.9653 28.8916 16.5529C28.9336 16.2194 28.8626 15.7596 28.8626 15.7596Z" fill="#73AF00"/>
<path d="M27.7584 17.4125C27.7584 17.4125 28.6304 18.0382 29.2024 17.1821C29.2024 17.1821 28.8635 16.9299 28.5024 17.1358C28.2104 17.3021 27.7584 17.4125 27.7584 17.4125Z" fill="#73AF00"/>
<path d="M32.2471 28.887C32.2471 28.887 31.6809 29.7986 30.8248 29.2266C30.8248 29.2266 31.0413 28.8639 31.4538 28.9159C31.7872 28.9579 32.2471 28.887 32.2471 28.887Z" fill="#73AF00"/>
<path d="M30.5943 27.7824C30.5943 27.7824 29.9686 28.6544 30.8248 29.2264C30.8248 29.2264 31.0769 28.8875 30.8711 28.5264C30.7047 28.2343 30.5943 27.7824 30.5943 27.7824Z" fill="#73AF00"/>
<path d="M15.7353 19.144C15.7353 19.144 16.3015 18.2323 17.1576 18.8044C17.1576 18.8044 16.9411 19.1671 16.5286 19.115C16.1952 19.073 15.7353 19.144 15.7353 19.144Z" fill="#73AF00"/>
<path d="M17.3883 20.2486C17.3883 20.2486 18.014 19.3766 17.1579 18.8045C17.1579 18.8045 16.9057 19.1434 17.1116 19.5046C17.2779 19.7966 17.3883 20.2486 17.3883 20.2486Z" fill="#73AF00"/>
<path d="M16.3312 29.7788C16.3312 29.7788 15.7055 28.9068 16.5616 28.3347C16.5616 28.3347 16.8138 28.6737 16.6079 29.0348C16.4415 29.3268 16.3312 29.7788 16.3312 29.7788Z" fill="#73AF00"/>
<path d="M17.9842 28.6743C17.9842 28.6743 17.4181 27.7625 16.5619 28.3346C16.5619 28.3346 16.7785 28.6973 17.1909 28.6453C17.5244 28.6033 17.9842 28.6743 17.9842 28.6743Z" fill="#73AF00"/>
<path d="M31.6515 18.2522C31.6515 18.2522 32.2772 19.1241 31.421 19.6962C31.421 19.6962 31.1689 19.3573 31.3747 18.9962C31.541 18.7041 31.6515 18.2522 31.6515 18.2522Z" fill="#73AF00"/>
<path d="M29.9984 19.3567C29.9984 19.3567 30.5646 20.2684 31.4207 19.6964C31.4207 19.6964 31.2041 19.3337 30.7917 19.3857C30.4583 19.4277 29.9984 19.3567 29.9984 19.3567Z" fill="#73AF00"/>
<path d="M29.7546 31.6755C29.7546 31.6755 28.8827 32.3012 28.3106 31.445C28.3106 31.445 28.6495 31.1928 29.0106 31.3987C29.3027 31.5651 29.7546 31.6755 29.7546 31.6755Z" fill="#73AF00"/>
<path d="M28.65 30.0225C28.65 30.0225 27.7383 30.5886 28.3104 31.4447C28.3104 31.4447 28.6731 31.2282 28.6212 30.8158C28.5791 30.4823 28.65 30.0225 28.65 30.0225Z" fill="#73AF00"/>
<path d="M18.228 16.3554C18.228 16.3554 19.0999 15.7297 19.672 16.5859C19.672 16.5859 19.3331 16.8381 18.972 16.6322C18.6799 16.4659 18.228 16.3554 18.228 16.3554Z" fill="#73AF00"/>
<path d="M19.3326 18.0085C19.3326 18.0085 20.2444 17.4424 19.6723 16.5862C19.6723 16.5862 19.3096 16.8028 19.3616 17.2152C19.4036 17.5487 19.3326 18.0085 19.3326 18.0085Z" fill="#73AF00"/>
<path d="M22.65 33.5071C22.65 33.5071 21.591 33.333 21.7919 32.3231C21.7919 32.3231 22.2098 32.3843 22.3197 32.7853C22.4084 33.1095 22.65 33.5071 22.65 33.5071Z" fill="#73AF00"/>
<path d="M23.0378 31.5573C23.0378 31.5573 21.9928 31.313 21.7919 32.3229C21.7919 32.3229 22.2014 32.4262 22.4563 32.0978C22.6624 31.8322 23.0378 31.5573 23.0378 31.5573Z" fill="#73AF00"/>
<path d="M25.3326 14.5237C25.3326 14.5237 26.3916 14.6979 26.1907 15.7078C26.1907 15.7078 25.7728 15.6466 25.6629 15.2456C25.5742 14.9214 25.3326 14.5237 25.3326 14.5237Z" fill="#73AF00"/>
<path d="M24.9445 16.4736C24.9445 16.4736 25.9896 16.7179 26.1905 15.708C26.1905 15.708 25.7809 15.6047 25.5261 15.9331C25.3199 16.1987 24.9445 16.4736 24.9445 16.4736Z" fill="#73AF00"/>
<path d="M33.4831 25.3567C33.4831 25.3567 33.3089 26.4157 32.299 26.2148C32.299 26.2148 32.3602 25.7969 32.7612 25.687C33.0855 25.5982 33.4831 25.3567 33.4831 25.3567Z" fill="#73AF00"/>
<path d="M31.5331 24.9689C31.5331 24.9689 31.2888 26.0139 32.2987 26.2148C32.2987 26.2148 32.402 25.8052 32.0736 25.5504C31.8079 25.3442 31.5331 24.9689 31.5331 24.9689Z" fill="#73AF00"/>
<path d="M14.4994 22.6743C14.4994 22.6743 14.6736 21.6152 15.6835 21.8162C15.6835 21.8162 15.6223 22.2341 15.2213 22.344C14.8971 22.4328 14.4994 22.6743 14.4994 22.6743Z" fill="#73AF00"/>
<path d="M16.4494 23.0621C16.4494 23.0621 16.6938 22.0171 15.6838 21.8162C15.6838 21.8162 15.5805 22.2258 15.9089 22.4806C16.1745 22.6868 16.4494 23.0621 16.4494 23.0621Z" fill="#73AF00"/>
</svg>
