<svg width="48" height="48" viewBox="0 0 48 48" fill="none" xmlns="http://www.w3.org/2000/svg">
<path d="M47.1723 39.7239H0.827623C0.370593 39.7239 0 39.3533 0 38.8963V9.10326C0 8.64623 0.370593 8.27563 0.827623 8.27563H47.1724C47.6294 8.27563 48 8.64623 48 9.10326V38.8963C47.9999 39.3534 47.6293 39.7239 47.1723 39.7239Z" fill="white"/>
<path d="M37.2414 8.27618H10.7589V39.7246H37.2414V8.27618Z" fill="white"/>
<path d="M0.827623 8.27576C0.370593 8.27576 0 8.64626 0 9.10329V38.8963C0 39.3534 0.370593 39.7239 0.827623 39.7239H10.7586V8.27576H0.827623Z" fill="#FF4B55"/>
<path d="M47.1721 8.27576H37.2411V39.7239H47.1721C47.6291 39.7239 47.9997 39.3534 47.9997 38.8963V9.10329C47.9997 8.64626 47.6291 8.27576 47.1721 8.27576Z" fill="#FF4B55"/>
<path d="M29.0222 27.6335L33.9331 24.8273L32.8062 24.2639C32.4902 24.1058 32.3093 23.7646 32.356 23.4142L32.7227 20.6653L30.6436 21.2702C30.1843 21.4039 29.7077 21.1213 29.6044 20.6543L29.4053 19.7543L27.4531 22.039C27.1825 22.3557 26.6669 22.1138 26.7375 21.7032L27.5712 16.8556L26.2948 17.2047C25.922 17.3067 25.5282 17.137 25.3465 16.796L24.0024 14.2768V14.2731L24.0014 14.2749L24.0004 14.2731V14.2768L22.6563 16.796C22.4743 17.1369 22.0806 17.3066 21.7078 17.2047L20.4313 16.8556L21.265 21.7032C21.3356 22.1137 20.8199 22.3556 20.5493 22.039L18.5971 19.7543L18.398 20.6543C18.2947 21.1214 17.8181 21.4038 17.3588 21.2702L15.2797 20.6653L15.6464 23.4142C15.6931 23.7645 15.5122 24.1058 15.1962 24.2639L14.0693 24.8273L18.9802 27.6336C19.4889 27.9243 19.7118 28.5408 19.5066 29.0895L19.0868 30.2123L23.2947 29.8531C23.5276 29.8332 23.7258 30.0207 23.719 30.2542L23.5864 34.7584H24.414L24.2814 30.2541C24.2745 30.0204 24.4727 29.833 24.7056 29.8529L28.9155 30.2123L28.4957 29.0895C28.2907 28.5407 28.5135 27.9241 29.0222 27.6335Z" fill="#FF4B55"/>
</svg>
