<svg width="48" height="48" viewBox="0 0 48 48" fill="none" xmlns="http://www.w3.org/2000/svg">
<path d="M47.1723 39.7238H0.827623C0.370593 39.7238 0 39.3532 0 38.8962V9.10314C0 8.64611 0.370593 8.27551 0.827623 8.27551H47.1724C47.6294 8.27551 48 8.64611 48 9.10314V38.8962C47.9999 39.3533 47.6293 39.7238 47.1723 39.7238Z" fill="#82AFFF"/>
<path d="M47.1723 8.27563H44.7999L0 31.448V33.1031L47.6593 8.45179C47.5211 8.34838 47.3582 8.27563 47.1723 8.27563Z" fill="#FFE15A"/>
<path d="M0.827576 39.7237H3.19992L47.9999 16.5514V14.8962L0.340546 39.5476C0.478733 39.651 0.64167 39.7237 0.827576 39.7237Z" fill="#FFE15A"/>
<path d="M47.6593 8.4519L0 33.1032V38.8963C0 39.1675 0.139031 39.3968 0.340593 39.5477L47.9999 14.8965V9.10328C47.9999 8.83206 47.8609 8.60284 47.6593 8.4519Z" fill="#FF4B55"/>
<path d="M8.68312 11.5294L9.87543 15.1045L13.6441 15.1337C13.8548 15.1354 13.9422 15.4042 13.7727 15.5295L10.7409 17.7683L11.8777 21.3616C11.9413 21.5625 11.7125 21.7287 11.5411 21.6062L8.47499 19.4146L5.4089 21.6062C5.23753 21.7288 5.00869 21.5625 5.07225 21.3616L6.20906 17.7683L3.17728 15.5295C3.00769 15.4043 3.09516 15.1354 3.30591 15.1337L7.07456 15.1045L8.26687 11.5294C8.33371 11.3295 8.61637 11.3295 8.68312 11.5294Z" fill="#FFE15A"/>
</svg>
