<svg width="48" height="48" viewBox="0 0 48 48" fill="none" xmlns="http://www.w3.org/2000/svg">
<path d="M47.1723 39.7239H0.827623C0.370593 39.7239 0 39.3533 0 38.8962V31.8618H47.9999V38.8962C47.9999 39.3535 47.6293 39.7239 47.1723 39.7239Z" fill="#FFE15A"/>
<path d="M47.9999 23.9996H0V31.8615H47.9999V23.9996Z" fill="#73AF00"/>
<path d="M47.9999 16.1378H0V23.9997H47.9999V16.1378Z" fill="white"/>
<path d="M47.9999 16.1377H0V9.10326C0 8.64623 0.370593 8.27563 0.827623 8.27563H47.1724C47.6294 8.27563 48 8.64623 48 9.10326L47.9999 16.1377Z" fill="#41479B"/>
<path d="M27.9308 8.27588H20.069V39.7243H27.9308V8.27588Z" fill="#FF4B55"/>
<path d="M7.17196 9.33466L7.86252 11.4053L10.0452 11.4223C10.2143 11.4236 10.2844 11.6394 10.1483 11.7399L8.3924 13.0365L9.05071 15.1175C9.10171 15.2787 8.91815 15.4122 8.78062 15.3137L7.0049 14.0446L5.22919 15.3137C5.09156 15.4121 4.90809 15.2787 4.95909 15.1175L5.6174 13.0365L3.86175 11.7399C3.72572 11.6395 3.79585 11.4237 3.96488 11.4223L6.14756 11.4053L6.83812 9.33466C6.89156 9.17425 7.11843 9.17425 7.17196 9.33466Z" fill="#FFE15A"/>
</svg>
