<svg width="48" height="48" viewBox="0 0 48 48" fill="none" xmlns="http://www.w3.org/2000/svg">
<path d="M47.1723 39.7243H0.827623C0.370593 39.7243 0 39.3537 0 38.8966V9.10359C0 8.64656 0.370593 8.27597 0.827623 8.27597H47.1724C47.6294 8.27597 48 8.64656 48 9.10359V38.8966C47.9999 39.3538 47.6293 39.7243 47.1723 39.7243Z" fill="#FF4B55"/>
<path d="M33.1034 20.6899H27.3103V14.8968C27.3103 14.4398 26.9398 14.0692 26.4827 14.0692H21.5172C21.0601 14.0692 20.6895 14.4398 20.6895 14.8968V20.6899H14.8965C14.4394 20.6899 14.0688 21.0605 14.0688 21.5175V26.4831C14.0688 26.9401 14.4394 27.3107 14.8965 27.3107H20.6895V33.1038C20.6895 33.5608 21.0601 33.9314 21.5172 33.9314H26.4827C26.9398 33.9314 27.3103 33.5608 27.3103 33.1038V27.3105H33.1034C33.5605 27.3105 33.931 26.9399 33.931 26.4829V21.5174C33.931 21.0604 33.5605 20.6899 33.1034 20.6899Z" fill="white"/>
</svg>
