<svg width="48" height="48" viewBox="0 0 48 48" fill="none" xmlns="http://www.w3.org/2000/svg">
<path d="M47.1723 39.7243H0.827623C0.370593 39.7243 0 39.3537 0 38.8967V9.10362C0 8.64659 0.370593 8.276 0.827623 8.276H47.1724C47.6294 8.276 48 8.64659 48 9.10362V38.8967C47.9999 39.3538 47.6293 39.7243 47.1723 39.7243Z" fill="#FF4B55"/>
<path d="M7.96932 13.1937L8.75831 15.5594L11.2521 15.5787C11.5749 15.5811 11.7088 15.9933 11.449 16.185L9.44297 17.6663L10.1951 20.044C10.2924 20.3519 9.942 20.6064 9.67931 20.4187L7.65057 18.9685L5.62182 20.4186C5.35913 20.6064 5.0087 20.3517 5.10601 20.0439L5.85816 17.6662L3.8521 16.185C3.59232 15.9932 3.7262 15.5811 4.04907 15.5787L6.54282 15.5594L7.33182 13.1937C7.434 12.8873 7.86722 12.8873 7.96932 13.1937Z" fill="#FFE15A"/>
<path d="M17.0249 13.7766L17.5907 14.5482L18.5037 14.2626C18.6219 14.2257 18.7192 14.3605 18.6468 14.4609L18.0878 15.2372L18.6415 16.0173C18.7133 16.1183 18.6151 16.2525 18.4972 16.2147L17.586 15.923L17.0152 16.6907C16.9413 16.7901 16.7833 16.7382 16.7829 16.6144L16.7786 15.6577L15.8721 15.352C15.7548 15.3123 15.7553 15.1462 15.8729 15.1074L16.7814 14.8078L16.792 13.8512C16.7934 13.7275 16.9517 13.6768 17.0249 13.7766Z" fill="#FFE15A"/>
<path d="M13.5804 11.4769L14.5315 11.5802L14.9372 10.7139C14.9898 10.6018 15.1548 10.621 15.1801 10.7422L15.3757 11.6786L16.325 11.7967C16.4479 11.812 16.4806 11.9749 16.3731 12.0365L15.5429 12.5118L15.724 13.4512C15.7474 13.5729 15.6026 13.6543 15.5108 13.5711L14.8021 12.9285L13.9648 13.3908C13.8564 13.4507 13.734 13.338 13.7849 13.2251L14.177 12.3525L13.4784 11.6988C13.388 11.6146 13.4573 11.4636 13.5804 11.4769Z" fill="#FFE15A"/>
<path d="M15.0836 20.7481L14.5179 21.5197L13.6048 21.2341C13.4866 21.1972 13.3894 21.332 13.4618 21.4324L14.0207 22.2088L13.467 22.9888C13.3953 23.0898 13.4935 23.224 13.6114 23.1862L14.5226 22.8945L15.0934 23.6622C15.1673 23.7616 15.3252 23.7097 15.3257 23.5859L15.3299 22.6292L16.2365 22.3235C16.3539 22.2838 16.3533 22.1177 16.2356 22.0789L15.3272 21.7793L15.3165 20.8227C15.315 20.6991 15.1569 20.6482 15.0836 20.7481Z" fill="#FFE15A"/>
<path d="M18.5282 18.587L17.5771 18.6904L17.1713 17.824C17.1187 17.7119 16.9537 17.7311 16.9284 17.8523L16.7328 18.7887L15.7835 18.9068C15.6606 18.9221 15.6278 19.085 15.7354 19.1466L16.5655 19.6219L16.3845 20.5613C16.3611 20.683 16.5059 20.7644 16.5977 20.6812L17.3063 20.0386L18.1437 20.5009C18.2521 20.5608 18.3744 20.4482 18.3236 20.3352L17.9315 19.4626L18.6301 18.8089C18.7207 18.7248 18.6515 18.5737 18.5282 18.587Z" fill="#FFE15A"/>
</svg>
