<svg width="48" height="48" viewBox="0 0 48 48" fill="none" xmlns="http://www.w3.org/2000/svg">
<path d="M47.9999 19.034H0V28.9649H47.9999V19.034Z" fill="#FF4B55"/>
<path d="M0.827623 8.27597H47.1724C47.6294 8.27597 48 8.64656 48 9.10359V13.6553H0V9.10359C0 8.64656 0.370593 8.27597 0.827623 8.27597Z" fill="#41479B"/>
<path d="M47.9999 13.6557H0V19.035H47.9999V13.6557Z" fill="white"/>
<path d="M47.1723 39.724H0.827623C0.370593 39.724 0 39.3535 0 38.8964V34.3447H47.9999V38.8964C47.9999 39.3535 47.6293 39.724 47.1723 39.724Z" fill="#41479B"/>
<path d="M47.9999 28.9648H0V34.3441H47.9999V28.9648Z" fill="white"/>
<path d="M12.974 28.138C15.1118 28.138 16.8449 26.2853 16.8449 23.9999C16.8449 21.7144 15.1118 19.8617 12.974 19.8617C10.8361 19.8617 9.10303 21.7144 9.10303 23.9999C9.10303 26.2853 10.8361 28.138 12.974 28.138Z" fill="white"/>
<path d="M14.9762 22.3988H10.9717V24.401H14.9762V22.3988Z" fill="#3CC8FF"/>
<path d="M11.5062 23.5367L11.552 23.9783L11.7318 23.5725L11.6388 24.0066L11.9354 23.6761L11.7127 24.0603L12.0969 23.8377L11.7665 24.1343L12.2006 24.0412L11.7947 24.2211L12.2364 24.2669L11.7947 24.3126L12.2006 24.4925L11.7665 24.3995L12.0969 24.6961L11.7127 24.4733L11.9354 24.8576L11.6388 24.5271L11.7318 24.9613L11.552 24.5554L11.5062 24.997L11.4605 24.5554L11.2806 24.9613L11.3736 24.5271L11.077 24.8576L11.2996 24.4733L10.9154 24.6961L11.246 24.3995L10.8117 24.4925L11.2177 24.3126L10.776 24.2669L11.2177 24.2211L10.8117 24.0412L11.246 24.1343L10.9154 23.8377L11.2996 24.0603L11.077 23.6761L11.3736 24.0066L11.2806 23.5725L11.4605 23.9783L11.5062 23.5367Z" fill="#FFE15A"/>
<path d="M13.7753 27.2037H12.1735L10.7052 26.0023V24.267H15.3771V26.0023L13.7753 27.2037Z" fill="#41479B"/>
<path d="M14.576 23.7331H14.5759C14.5755 23.6965 14.5459 23.6671 14.5092 23.6671C14.4726 23.6671 14.4431 23.6965 14.4426 23.7331H14.4424C14.4424 23.9648 14.3081 24.2852 14.1435 24.5147C13.9136 24.2244 13.8272 23.8879 13.7946 23.6759C13.779 23.5749 13.6698 23.5188 13.5783 23.5645C13.5342 23.5866 13.5045 23.6296 13.497 23.6783C13.3948 24.3329 13.0862 24.6111 12.8863 24.7254C12.5872 24.4362 12.4885 23.9681 12.4561 23.6914C12.4434 23.5838 12.3283 23.5221 12.2314 23.5704C12.1941 23.5891 12.1664 23.6228 12.1534 23.6624C11.7347 24.9386 10.5714 25.068 10.5714 25.068V25.4684H15.2432V25.335V25.2016V25.0682V24.9348V24.8014C14.7095 24.6674 14.576 23.7331 14.576 23.7331Z" fill="#73AF00"/>
<path d="M15.2435 22.5317C14.7096 22.2647 14.7096 21.9978 14.7096 21.9978C14.7096 21.9978 14.0422 21.7308 13.5083 21.7308C13.5083 21.7308 13.6417 21.4638 13.3749 21.4638C13.1079 21.4638 12.9744 21.4638 12.9744 21.4638C12.9744 21.4638 12.841 21.4638 12.574 21.4638C12.307 21.4638 12.4406 21.7308 12.4406 21.7308C11.9067 21.7308 11.2393 21.9978 11.2393 21.9978C11.2393 21.9978 11.2393 22.2648 10.7054 22.5317C10.1715 22.7987 10.1715 23.3994 10.1715 23.3994C10.1715 23.51 10.2612 23.5996 10.3717 23.5996C10.4823 23.5996 10.5718 23.5098 10.5718 23.3994C10.5718 23.3765 10.5671 23.3551 10.5601 23.3346L10.5718 23.3326L11.9066 22.3983H12.9745H14.0424L15.3773 23.3326L15.389 23.3346C15.3819 23.355 15.3773 23.3766 15.3773 23.3994C15.3773 23.51 15.467 23.5996 15.5774 23.5996C15.6878 23.5996 15.7776 23.5098 15.7776 23.3994C15.7774 23.3993 15.7774 22.7986 15.2435 22.5317Z" fill="#F0AA00"/>
<path d="M15.6442 24.1336C15.5108 24.1336 15.1103 24.1336 15.1103 23.7332C15.1103 23.3328 15.6442 23.3328 15.6442 23.3328L14.8433 23.0658C14.5763 24.0001 15.1103 24.0001 15.1103 25.2015C15.1103 26.2777 13.909 26.9368 13.5085 26.9368C13.1081 26.9368 12.9746 27.2038 12.9746 27.2038C12.9746 27.2038 12.8412 26.9368 12.4407 26.9368C12.0403 26.9368 10.8389 26.2777 10.8389 25.2015C10.8389 24.0002 11.3728 24.0002 11.1059 23.0658L10.3049 23.3328C10.3049 23.3328 10.8389 23.3328 10.8389 23.7332C10.8389 24.1336 10.4384 24.1336 10.3049 24.1336C10.1714 24.1336 9.63754 24.1336 9.63754 24.801C9.63754 25.4684 10.3049 26.2694 11.2394 26.8033C12.1737 27.3372 11.7733 27.8712 12.9746 27.8712C14.1759 27.8712 13.7755 27.3373 14.7098 26.8033C15.6441 26.2694 16.3116 25.4684 16.3116 24.801C16.3116 24.1336 15.7776 24.1336 15.6442 24.1336Z" fill="#F0AA00"/>
<path d="M12.7075 22.0442L12.3846 21.8991C12.331 21.875 12.2715 21.8694 12.2143 21.8827C12.0062 21.9308 11.4899 22.0889 11.1057 22.5317L11.5061 22.6651L12.7075 22.0442Z" fill="#73AF00"/>
<path d="M13.2416 22.0442L13.5645 21.8991C13.6181 21.875 13.6775 21.8694 13.7347 21.8827C13.9428 21.9308 14.4591 22.0889 14.8434 22.5317L14.443 22.6651L13.2416 22.0442Z" fill="#73AF00"/>
<path d="M13.0214 22.1312L13.2648 21.8878C13.2778 21.8748 13.2778 21.8537 13.2648 21.8407C13.2518 21.8277 13.2307 21.8277 13.2177 21.8407L12.9743 22.0841L12.7309 21.8407C12.7179 21.8277 12.6968 21.8277 12.6838 21.8407C12.6707 21.8537 12.6707 21.8748 12.6838 21.8878L12.9271 22.1312L12.6838 22.3746C12.6707 22.3876 12.6707 22.4087 12.6838 22.4218C12.6903 22.4283 12.6988 22.4316 12.7074 22.4316C12.7158 22.4316 12.7244 22.4283 12.731 22.4218L12.9744 22.1784L13.2177 22.4218C13.2243 22.4283 13.2328 22.4316 13.2414 22.4316C13.25 22.4316 13.2584 22.4283 13.265 22.4218C13.278 22.4087 13.278 22.3876 13.265 22.3746L13.0214 22.1312Z" fill="#73AF00"/>
<path d="M15.6441 23.3326C15.6441 23.1056 15.4295 23.0074 15.2437 22.9648V22.859C14.9924 22.8354 14.8521 22.7411 14.6085 22.5751C14.5147 22.511 14.4083 22.4387 14.2797 22.3605C13.8104 22.0754 13.4497 22.0342 13.2415 22.0442V22.2647H12.7075V22.0442C12.4993 22.0342 12.1386 22.0754 11.6693 22.3605C11.5408 22.4386 11.4343 22.511 11.3405 22.5751C11.0968 22.741 10.9567 22.8354 10.7053 22.859V22.9648C10.5194 23.0073 10.3049 23.1055 10.3049 23.3326L10.7053 23.1992V23.2601C11.0842 23.2321 11.3007 23.0868 11.566 22.9062C11.6559 22.845 11.7577 22.7755 11.8771 22.703C12.182 22.5178 12.4189 22.4604 12.574 22.4469V22.6653H13.375V22.4469C13.5301 22.4605 13.767 22.5178 14.0719 22.703C14.1915 22.7757 14.2932 22.845 14.383 22.9062C14.6482 23.0868 14.8648 23.2322 15.2437 23.2601V23.1992L15.6441 23.3326Z" fill="white"/>
<path d="M14.5759 21.2285V21.0634H14.2041C14.2691 21.0076 14.309 20.942 14.309 20.8632C14.309 20.4944 13.47 20.396 12.9742 20.396C12.4785 20.396 11.6394 20.4944 11.6394 20.8632C11.6394 20.942 11.6793 21.0076 11.7443 21.0634H11.3725V21.2285C11.0457 21.3015 10.7786 21.4768 10.7645 21.4863L10.9126 21.7084C10.9162 21.7059 11.2835 21.4638 11.6394 21.4638V21.3304H14.309V21.4638C14.665 21.4638 15.0322 21.7058 15.0359 21.7084L15.1839 21.4863C15.1699 21.4768 14.9027 21.3015 14.5759 21.2285ZM13.5081 21.0264V20.9251C13.5081 20.8597 13.4467 20.8118 13.3833 20.8277L12.9742 20.93L12.5651 20.8277C12.5017 20.8118 12.4403 20.8597 12.4403 20.9251V21.0264C12.1404 20.9824 11.9631 20.909 11.9147 20.8632C11.9869 20.7946 12.3407 20.663 12.9741 20.663C13.6076 20.663 13.9613 20.7948 14.0335 20.8632C13.9853 20.909 13.8079 20.9823 13.5081 21.0264Z" fill="#3CC8FF"/>
<path d="M12.991 22.7155L13.0248 22.8169L13.1317 22.8177C13.1456 22.8178 13.1513 22.8355 13.1401 22.8437L13.0542 22.9072L13.0864 23.0091C13.0906 23.0223 13.0756 23.0332 13.0643 23.0252L12.9773 22.963L12.8903 23.0252C12.8791 23.0332 12.8641 23.0223 12.8682 23.0091L12.9004 22.9072L12.8145 22.8437C12.8033 22.8355 12.8091 22.8178 12.8229 22.8177L12.9298 22.8169L12.9636 22.7155C12.968 22.7023 12.9865 22.7023 12.991 22.7155Z" fill="white"/>
<path d="M12.4675 22.7498L12.5118 22.8471L12.6182 22.8368C12.6319 22.8355 12.6394 22.8524 12.6293 22.8617L12.5505 22.9339L12.5932 23.0319C12.5988 23.0446 12.585 23.057 12.573 23.0502L12.48 22.9975L12.4 23.0684C12.3897 23.0776 12.3736 23.0683 12.3763 23.0547L12.3977 22.9499L12.3055 22.8958C12.2936 22.8888 12.2974 22.8707 12.3112 22.8691L12.4174 22.8571L12.4404 22.7528C12.4432 22.7391 12.4618 22.7371 12.4675 22.7498Z" fill="white"/>
<path d="M11.9302 22.8927L11.9945 22.9781L12.0961 22.9449C12.1092 22.9406 12.1203 22.9556 12.1123 22.9668L12.051 23.0544L12.114 23.1408C12.1222 23.1519 12.1114 23.167 12.0982 23.163L11.996 23.1317L11.9333 23.2183C11.9252 23.2294 11.9074 23.2239 11.9072 23.2101L11.9053 23.1033L11.8036 23.0703C11.7905 23.0661 11.7903 23.0475 11.8034 23.0431L11.9045 23.0083L11.9043 22.9014C11.9042 22.8876 11.9219 22.8816 11.9302 22.8927Z" fill="white"/>
<path d="M11.3918 23.1198L11.4668 23.1959L11.5631 23.1496C11.5756 23.1436 11.5885 23.1569 11.5821 23.1693L11.5329 23.2642L11.6068 23.3414C11.6163 23.3515 11.6077 23.3678 11.594 23.3656L11.4885 23.3482L11.4377 23.4423C11.4312 23.4545 11.4129 23.4513 11.4108 23.4376L11.3949 23.3319L11.2897 23.3128C11.276 23.3103 11.2735 23.2918 11.2859 23.2857L11.3815 23.2378L11.3672 23.1319C11.3654 23.1181 11.382 23.11 11.3918 23.1198Z" fill="white"/>
<path d="M13.4867 22.7498L13.4425 22.8471L13.3361 22.8368C13.3223 22.8355 13.3148 22.8524 13.3249 22.8617L13.4038 22.9339L13.361 23.0319C13.3554 23.0446 13.3693 23.057 13.3813 23.0502L13.4743 22.9975L13.5542 23.0684C13.5646 23.0776 13.5807 23.0683 13.578 23.0547L13.5566 22.9499L13.6487 22.8958C13.6606 22.8888 13.6568 22.8707 13.643 22.8691L13.5368 22.8571L13.5138 22.7528C13.5109 22.7391 13.4924 22.7371 13.4867 22.7498Z" fill="white"/>
<path d="M14.0241 22.8927L13.9598 22.9781L13.8582 22.9449C13.845 22.9406 13.834 22.9556 13.8419 22.9668L13.9033 23.0544L13.8403 23.1408C13.8321 23.1519 13.8429 23.167 13.8561 23.163L13.9583 23.1317L14.021 23.2183C14.0291 23.2294 14.0469 23.2239 14.0471 23.2101L14.0489 23.1033L14.1507 23.0703C14.1638 23.0661 14.164 23.0475 14.1508 23.0431L14.0498 23.0083L14.05 22.9014C14.0501 22.8876 14.0324 22.8816 14.0241 22.8927Z" fill="white"/>
<path d="M14.5627 23.1198L14.4877 23.1959L14.3915 23.1496C14.3789 23.1436 14.3661 23.1569 14.3724 23.1693L14.4216 23.2642L14.3478 23.3414C14.3382 23.3515 14.3468 23.3678 14.3605 23.3656L14.4661 23.3482L14.5168 23.4423C14.5234 23.4545 14.5416 23.4513 14.5437 23.4376L14.5596 23.3319L14.6648 23.3128C14.6785 23.3103 14.681 23.2918 14.6687 23.2857L14.573 23.2378L14.5873 23.1319C14.5891 23.1181 14.5724 23.11 14.5627 23.1198Z" fill="white"/>
<path d="M12.0524 25.9188L12.7324 26.3734H13.5541L13.9338 26.0481L13.6418 26.1649H12.674L12.0524 25.9188Z" fill="#8C5A28"/>
<path d="M12.5157 25.3322L12.4501 25.994L12.1514 25.88C12.1514 25.8799 12.2888 25.5609 12.5157 25.3322Z" fill="white"/>
<path d="M13.1483 25.0697H13.1041V26.1966H13.1483V25.0697Z" fill="#8C5A28"/>
<path d="M13.5571 25.1653H13.513V26.1975H13.5571V25.1653Z" fill="#8C5A28"/>
<path d="M12.7424 25.1653H12.6982V26.1975H12.7424V25.1653Z" fill="#8C5A28"/>
<path d="M13.2621 26.0899H12.9923C12.9643 26.0899 12.9415 26.0672 12.9415 26.0391V25.9029C12.9415 25.8749 12.9643 25.8521 12.9923 25.8521H13.2621C13.2901 25.8521 13.3129 25.8749 13.3129 25.9029V26.0391C13.3129 26.0672 13.2901 26.0899 13.2621 26.0899Z" fill="white"/>
<path d="M13.2621 25.7727H12.9923C12.9643 25.7727 12.9415 25.7499 12.9415 25.7219V25.5857C12.9415 25.5576 12.9643 25.5349 12.9923 25.5349H13.2621C13.2901 25.5349 13.3129 25.5576 13.3129 25.5857V25.7219C13.3129 25.75 13.2901 25.7727 13.2621 25.7727Z" fill="white"/>
<path d="M13.2621 25.4808H12.9923C12.9643 25.4808 12.9415 25.458 12.9415 25.43V25.2938C12.9415 25.2657 12.9643 25.243 12.9923 25.243H13.2621C13.2901 25.243 13.3129 25.2657 13.3129 25.2938V25.43C13.3129 25.458 13.2901 25.4808 13.2621 25.4808Z" fill="white"/>
<path d="M13.6454 26.0899H13.4257C13.3977 26.0899 13.3749 26.0672 13.3749 26.0391V25.9029C13.3749 25.8749 13.3977 25.8521 13.4257 25.8521H13.6454C13.6734 25.8521 13.6962 25.8749 13.6962 25.9029V26.0391C13.6962 26.0672 13.6734 26.0899 13.6454 26.0899Z" fill="white"/>
<path d="M13.6454 25.798H13.4257C13.3977 25.798 13.3749 25.7752 13.3749 25.7471V25.6482C13.3749 25.6202 13.3977 25.5974 13.4257 25.5974H13.6454C13.6734 25.5974 13.6962 25.6202 13.6962 25.6482V25.7471C13.6962 25.7752 13.6734 25.798 13.6454 25.798Z" fill="white"/>
<path d="M13.6454 25.5088H13.4257C13.3977 25.5088 13.3749 25.486 13.3749 25.458V25.3912C13.3749 25.3632 13.3977 25.3404 13.4257 25.3404H13.6454C13.6734 25.3404 13.6962 25.3632 13.6962 25.3912V25.458C13.6962 25.486 13.6734 25.5088 13.6454 25.5088Z" fill="white"/>
<path d="M12.83 26.0899H12.6104C12.5824 26.0899 12.5596 26.0672 12.5596 26.0391V25.9029C12.5596 25.8749 12.5824 25.8521 12.6104 25.8521H12.83C12.8581 25.8521 12.8809 25.8749 12.8809 25.9029V26.0391C12.8808 26.0672 12.8581 26.0899 12.83 26.0899Z" fill="white"/>
<path d="M12.83 25.798H12.6104C12.5824 25.798 12.5596 25.7752 12.5596 25.7471V25.6482C12.5596 25.6202 12.5824 25.5974 12.6104 25.5974H12.83C12.8581 25.5974 12.8809 25.6202 12.8809 25.6482V25.7471C12.8808 25.7752 12.8581 25.798 12.83 25.798Z" fill="white"/>
<path d="M12.83 25.5088H12.6104C12.5824 25.5088 12.5596 25.486 12.5596 25.458V25.3912C12.5596 25.3632 12.5824 25.3404 12.6104 25.3404H12.83C12.8581 25.3404 12.8809 25.3632 12.8809 25.3912V25.458C12.8808 25.486 12.8581 25.5088 12.83 25.5088Z" fill="white"/>
<path d="M12.742 25.1653V25.2987L12.9382 25.2308L12.742 25.1653Z" fill="white"/>
<path d="M13.5572 25.1653V25.2987L13.7534 25.2308L13.5572 25.1653Z" fill="white"/>
<path d="M13.1488 25.0696V25.2029L13.3451 25.1349L13.1488 25.0696Z" fill="white"/>
<path d="M12.6276 24.1688L12.8637 24.3267H13.1493L13.2812 24.2137L13.1797 24.2542H12.8435L12.6276 24.1688Z" fill="#8C5A28"/>
<path d="M12.7882 23.9649L12.7655 24.1949L12.6617 24.1552C12.6616 24.1552 12.7094 24.0444 12.7882 23.9649Z" fill="white"/>
<path d="M13.0082 23.8735H12.9929V24.2651H13.0082V23.8735Z" fill="#8C5A28"/>
<path d="M13.1496 23.9071H13.1343V24.2655H13.1496V23.9071Z" fill="#8C5A28"/>
<path d="M12.8664 23.9071H12.8512V24.2655H12.8664V23.9071Z" fill="#8C5A28"/>
<path d="M13.0477 24.2281H12.9539C12.9442 24.2281 12.9362 24.2203 12.9362 24.2104V24.1632C12.9362 24.1534 12.9441 24.1455 12.9539 24.1455H13.0477C13.0574 24.1455 13.0654 24.1533 13.0654 24.1632V24.2104C13.0654 24.2203 13.0575 24.2281 13.0477 24.2281Z" fill="white"/>
<path d="M13.0477 24.1179H12.9539C12.9442 24.1179 12.9362 24.11 12.9362 24.1002V24.0529C12.9362 24.0432 12.9441 24.0352 12.9539 24.0352H13.0477C13.0574 24.0352 13.0654 24.0431 13.0654 24.0529V24.1002C13.0654 24.1099 13.0575 24.1179 13.0477 24.1179Z" fill="white"/>
<path d="M13.0477 24.0165H12.9539C12.9442 24.0165 12.9362 24.0087 12.9362 23.9988V23.9516C12.9362 23.9418 12.9441 23.9338 12.9539 23.9338H13.0477C13.0574 23.9338 13.0654 23.9417 13.0654 23.9516V23.9988C13.0654 24.0087 13.0575 24.0165 13.0477 24.0165Z" fill="white"/>
<path d="M13.1806 24.2281H13.1043C13.0945 24.2281 13.0866 24.2203 13.0866 24.2104V24.1632C13.0866 24.1534 13.0945 24.1455 13.1043 24.1455H13.1806C13.1904 24.1455 13.1983 24.1533 13.1983 24.1632V24.2104C13.1982 24.2203 13.1903 24.2281 13.1806 24.2281Z" fill="white"/>
<path d="M13.1806 24.1267H13.1043C13.0945 24.1267 13.0866 24.1188 13.0866 24.109V24.0747C13.0866 24.0649 13.0945 24.0569 13.1043 24.0569H13.1806C13.1904 24.0569 13.1983 24.0648 13.1983 24.0747V24.109C13.1982 24.1189 13.1903 24.1267 13.1806 24.1267Z" fill="white"/>
<path d="M13.1806 24.0262H13.1043C13.0945 24.0262 13.0866 24.0183 13.0866 24.0085V23.9853C13.0866 23.9756 13.0945 23.9676 13.1043 23.9676H13.1806C13.1904 23.9676 13.1983 23.9755 13.1983 23.9853V24.0085C13.1982 24.0184 13.1903 24.0262 13.1806 24.0262Z" fill="white"/>
<path d="M12.8972 24.2281H12.8208C12.8111 24.2281 12.8031 24.2203 12.8031 24.2104V24.1632C12.8031 24.1534 12.811 24.1455 12.8208 24.1455H12.8972C12.9069 24.1455 12.9149 24.1533 12.9149 24.1632V24.2104C12.9148 24.2203 12.9069 24.2281 12.8972 24.2281Z" fill="white"/>
<path d="M12.8972 24.1267H12.8208C12.8111 24.1267 12.8031 24.1188 12.8031 24.109V24.0747C12.8031 24.0649 12.811 24.0569 12.8208 24.0569H12.8972C12.9069 24.0569 12.9149 24.0648 12.9149 24.0747V24.109C12.9148 24.1189 12.9069 24.1267 12.8972 24.1267Z" fill="white"/>
<path d="M12.8972 24.0262H12.8208C12.8111 24.0262 12.8031 24.0183 12.8031 24.0085V23.9853C12.8031 23.9756 12.811 23.9676 12.8208 23.9676H12.8972C12.9069 23.9676 12.9149 23.9755 12.9149 23.9853V24.0085C12.9148 24.0184 12.9069 24.0262 12.8972 24.0262Z" fill="white"/>
<path d="M12.8669 23.9069V23.9532L12.9351 23.9297L12.8669 23.9069Z" fill="white"/>
<path d="M13.1501 23.9069V23.9532L13.2182 23.9297L13.1501 23.9069Z" fill="white"/>
<path d="M13.0084 23.8737V23.9199L13.0765 23.8963L13.0084 23.8737Z" fill="white"/>
<path d="M12.4602 23.466H12.287C12.2245 23.466 12.1733 23.4149 12.1733 23.3523C12.1733 23.2899 12.2244 23.2387 12.287 23.2387H12.4602C12.5227 23.2387 12.5738 23.2898 12.5738 23.3523C12.5739 23.4149 12.5227 23.466 12.4602 23.466Z" fill="white"/>
<path d="M13.7778 23.466H13.6635C13.6008 23.466 13.5499 23.415 13.5499 23.3523C13.5499 23.2896 13.6008 23.2387 13.6635 23.2387H13.7778C13.8405 23.2387 13.8914 23.2896 13.8914 23.3523C13.8913 23.415 13.8404 23.466 13.7778 23.466Z" fill="white"/>
<path d="M14.5895 23.6369H14.4888C14.4529 23.6369 14.4238 23.6078 14.4238 23.5719V23.5611C14.4238 23.5252 14.4529 23.4962 14.4888 23.4962H14.5895C14.6254 23.4962 14.6544 23.5252 14.6544 23.5611V23.5719C14.6544 23.6078 14.6254 23.6369 14.5895 23.6369Z" fill="white"/>
</svg>
