<svg width="48" height="48" viewBox="0 0 48 48" fill="none" xmlns="http://www.w3.org/2000/svg">
<path d="M47.1723 39.7241H0.827623C0.370593 39.7241 0 39.3536 0 38.8965V9.10349C0 8.64646 0.370593 8.27586 0.827623 8.27586H47.1724C47.6294 8.27586 48 8.64646 48 9.10349V38.8965C47.9999 39.3536 47.6293 39.7241 47.1723 39.7241Z" fill="#41479B"/>
<path d="M47.9999 29.7928H0V33.9309H47.9999V29.7928Z" fill="#FFE15A"/>
<path d="M11.1509 16.019L10.3368 18.4596L7.76407 18.4796C7.51732 18.4815 7.41504 18.7964 7.61351 18.9429L9.68322 20.4712L8.90716 22.9242C8.83282 23.1594 9.10057 23.354 9.30129 23.2105L11.3944 21.7144L13.4876 23.2105C13.6883 23.3539 13.9562 23.1594 13.8817 22.9242L13.1057 20.4712L15.1754 18.9429C15.3739 18.7963 15.2716 18.4816 15.0248 18.4796L12.452 18.4596L11.638 16.019C11.56 15.7849 11.229 15.7849 11.1509 16.019Z" fill="white"/>
<path d="M5.28676 11.515L4.81567 12.9277L3.32654 12.9393C3.18376 12.9404 3.12451 13.1226 3.23945 13.2074L4.43739 14.0921L3.98823 15.5119C3.9452 15.648 4.10017 15.7607 4.21632 15.6776L5.42776 14.8117L6.6392 15.6776C6.75535 15.7607 6.91041 15.648 6.86729 15.5119L6.41813 14.0921L7.61607 13.2074C7.73091 13.1226 7.67176 12.9403 7.52898 12.9393L6.03985 12.9277L5.56876 11.515C5.52357 11.3795 5.33195 11.3795 5.28676 11.515Z" fill="white"/>
</svg>
