<svg width="48" height="48" viewBox="0 0 48 48" fill="none" xmlns="http://www.w3.org/2000/svg">
<g clip-path="url(#clip0_11_5040)">
<path d="M48 8H0V40H48V8Z" fill="white"/>
<path d="M24.6987 35.0262C24.6916 35.0232 24.6853 35.0187 24.6802 35.0131L24.6735 35.0069C24.6439 34.9792 24.6157 34.9499 24.5891 34.9192C24.5181 34.8385 24.4228 34.7204 24.339 34.616C24.1729 34.4089 24.0356 34.2305 24.0097 34.1969L23.9674 34.1419L23.5532 34.0142L23.2507 33.8732L23.4123 33.6915L23.9674 33.9292L24.3817 34.0142L25.1477 34.5776L25.1471 34.5781C25.1456 34.5793 25.0357 34.6708 24.9265 34.7701C24.8778 34.8143 24.8164 34.8714 24.7731 34.9185C24.7552 34.9376 24.7386 34.958 24.7235 34.9793C24.7144 34.9944 24.7061 35.0101 24.6987 35.0262V35.0262ZM21.8539 34.1718C21.4802 34.1684 21.114 34.066 20.7928 33.8749H20.7924V33.8745C20.8315 33.8093 20.8838 33.753 20.9459 33.7092C21.0494 33.6332 21.2362 33.5423 21.5379 33.5412H21.5442C21.9015 33.5412 22.3388 33.6627 22.8441 33.9023C22.5445 34.0803 22.2023 34.1734 21.8539 34.1718L21.8544 34.1724L21.8539 34.1718ZM20.2875 33.8246C20.2236 33.8259 20.1622 33.8 20.1184 33.7535C20.0806 33.7096 20.0546 33.6567 20.0427 33.6C20.0256 33.5263 20.0193 33.4505 20.024 33.3751C20.0503 33.3637 20.0786 33.3573 20.1073 33.3562H20.1132C20.2472 33.3562 20.3527 33.4724 20.3979 33.5875C20.4226 33.6384 20.4278 33.6966 20.4125 33.7511C20.3898 33.7987 20.3404 33.8276 20.2877 33.8241L20.2875 33.8246ZM23.0437 33.5052C22.1179 33.3729 21.7255 33.0382 21.5593 32.7807C21.4541 32.6245 21.4046 32.4374 21.4188 32.2495V32.2488H21.4195C21.466 32.2381 21.5136 32.2328 21.5613 32.2332C21.8076 32.2332 22.4376 32.3571 23.044 33.5047L23.0443 33.5055L23.0433 33.5049L23.0437 33.5052ZM21.1461 33.3217C20.7506 33.3217 20.4495 33.2534 20.2511 33.119C20.1667 33.065 20.0988 32.9889 20.0545 32.899C20.0384 32.8649 20.0277 32.8285 20.0228 32.7911C20.1546 32.7377 20.2948 32.7079 20.437 32.7031C20.4574 32.7022 20.478 32.7016 20.4996 32.7015C20.8053 32.7015 21.2701 32.8013 21.7607 33.2765L21.7612 33.2769H21.7606C21.5568 33.3051 21.3514 33.32 21.1457 33.3217L21.1461 33.3217ZM19.2309 33.2481C18.8139 33.2481 18.2409 33.1207 17.8836 32.7635L17.8832 32.763H17.8843C18.1559 32.6989 18.4332 32.662 18.7122 32.6531C18.7382 32.6524 18.7644 32.6521 18.7908 32.652C19.1819 32.652 19.4812 32.7279 19.6805 32.8774C19.7362 32.9108 19.7776 32.9637 19.7967 33.0258C19.8011 33.0716 19.7793 33.116 19.7404 33.1405C19.6506 33.2083 19.4901 33.2444 19.2633 33.248L19.2313 33.2491L19.2309 33.2481ZM17.8795 32.5548C17.8283 32.5549 17.7798 32.532 17.7473 32.4925C17.7172 32.453 17.6969 32.4069 17.6882 32.358C17.6746 32.2936 17.6693 32.2278 17.6726 32.1621V32.1611C17.693 32.1517 17.7152 32.1467 17.7376 32.1464C17.7899 32.1484 17.8394 32.1705 17.8756 32.2082C17.916 32.2478 17.9468 32.296 17.9657 32.3493C17.9845 32.3937 17.988 32.4432 17.9753 32.4898C17.9597 32.5291 17.9216 32.5548 17.8793 32.5543L17.8795 32.5548ZM21.0011 32.4844C20.9372 32.4856 20.8758 32.4598 20.832 32.4133C20.7942 32.3693 20.7681 32.3165 20.7562 32.2598C20.7391 32.1861 20.7328 32.1103 20.7374 32.0349C20.7638 32.0235 20.7921 32.0171 20.8208 32.016H20.8267C20.9606 32.016 21.0662 32.1322 21.1114 32.2473C21.1361 32.2982 21.1413 32.3564 21.126 32.4109C21.1034 32.4585 21.0539 32.4875 21.0012 32.4839L21.0011 32.4844ZM19.4805 32.4214C18.6412 32.3919 18.2059 32.1533 17.9881 31.9583C17.8949 31.8767 17.8182 31.7781 17.7619 31.6678C17.741 31.6264 17.7248 31.5828 17.7135 31.5378L17.7146 31.5373C17.7818 31.517 17.8516 31.5066 17.9218 31.5064H17.9414C18.2245 31.5064 18.8007 31.6253 19.4802 32.4213V32.4218L19.4805 32.4214ZM20.392 32.3366C19.7168 32.2338 19.3342 31.9439 19.1322 31.7188C19.0075 31.5849 18.9127 31.426 18.8541 31.2527C18.9224 31.2371 18.9921 31.2287 19.0621 31.2277C19.0712 31.2277 19.0805 31.2274 19.0901 31.2274C19.0996 31.2274 19.1096 31.2274 19.1196 31.2277C19.4592 31.2351 20.0761 31.389 20.3918 32.3363H20.3924L20.392 32.3366ZM16.9253 32.0124C16.7104 32.0131 16.4962 31.9874 16.2875 31.936C15.9339 31.8476 15.7822 31.7126 15.7173 31.6149C15.6893 31.5744 15.6706 31.5283 15.6623 31.4797C15.6594 31.4608 15.6588 31.4416 15.6606 31.4225L15.6623 31.4219C15.8449 31.3766 16.0322 31.3528 16.2204 31.3511C16.2331 31.3511 16.246 31.3508 16.259 31.3508C16.4124 31.3505 16.5654 31.3653 16.7158 31.395C17.057 31.4663 17.361 31.6584 17.572 31.9358V31.9363H17.5713C17.3597 31.988 17.1426 32.0135 16.9249 32.012L16.9253 32.0124ZM18.4928 31.4428C18.4292 31.4445 18.3677 31.4193 18.3236 31.3734C18.2857 31.329 18.2596 31.2756 18.2479 31.2183C18.2308 31.1453 18.2245 31.0701 18.2292 30.9951C18.2555 30.9837 18.2838 30.9773 18.3125 30.9763H18.3185C18.4521 30.9763 18.5578 31.0925 18.6032 31.2076C18.6274 31.2581 18.632 31.3157 18.6162 31.3694C18.5945 31.4173 18.5454 31.4467 18.493 31.443L18.4928 31.4428ZM17.3141 31.2812C17.0897 31.2176 16.875 31.1239 16.6759 31.0025C16.3802 30.8205 16.0185 30.4985 15.9744 29.9982H15.9751C15.9976 29.9934 16.0204 29.9907 16.0433 29.99C16.0486 29.99 16.0549 29.9897 16.0611 29.9897C16.1494 29.9897 16.3302 30.0146 16.549 30.1808C16.8274 30.3931 17.0844 30.7632 17.3143 31.2822L17.3141 31.2812ZM18.0837 31.2529C17.9006 31.1697 17.7305 31.0604 17.5787 30.9284C17.1865 30.5908 16.8808 30.1642 16.6872 29.6842C16.7355 29.6615 16.7878 29.6485 16.8411 29.6459C16.8465 29.6455 16.8518 29.6454 16.8574 29.6454C16.8654 29.6454 16.8737 29.6454 16.8821 29.6459C17.0107 29.6495 17.2066 29.7029 17.4237 29.9372C17.6731 30.2064 17.8957 30.6487 18.085 31.2519L18.0856 31.2536L18.084 31.2531L18.0837 31.2529ZM16.0896 31.1948C15.8325 31.1948 15.7445 31.0553 15.7186 30.9953C15.6927 30.9328 15.6826 30.8649 15.689 30.7976V30.7965C15.7309 30.7861 15.7739 30.7805 15.817 30.7798H15.8258C15.9939 30.7757 16.154 30.8517 16.257 30.9846C16.2706 31.0048 16.3123 31.075 16.2778 31.1298C16.25 31.173 16.1871 31.1948 16.0895 31.1948L16.0896 31.1948ZM15.52 30.4763C15.3209 30.4768 15.122 30.4598 14.9258 30.4255C14.6968 30.3839 14.567 30.1892 14.4985 30.0332C14.4524 29.9266 14.4201 29.8145 14.4025 29.6997H14.4031C15.1115 29.7205 15.446 29.9275 15.6019 30.0974C15.6985 30.1979 15.7587 30.3279 15.7729 30.4666H15.7724C15.7714 30.4666 15.6716 30.4762 15.5196 30.4762L15.52 30.4763ZM16.2576 29.7392C16.2566 29.7381 16.1757 29.6379 16.0958 29.5138C16.0119 29.3834 15.9344 29.2471 15.9344 29.1359C15.9344 29.0284 15.9091 28.8018 15.894 28.6763C15.8749 28.5171 15.8556 28.3808 15.854 28.3692H15.8547C15.8726 28.3758 16.2978 28.5353 16.2978 28.9341C16.2978 29.3329 16.2584 29.7348 16.258 29.7388V29.7394H16.2575L16.2576 29.7392ZM15.7067 29.7014C15.7022 29.7014 15.6978 29.701 15.6933 29.7003C15.5677 29.6793 15.3467 29.5833 15.1028 29.4433C14.8317 29.2879 14.6116 29.1214 14.483 28.9745C14.3657 28.8405 14.2964 28.6301 14.2761 28.3491C14.2671 28.2218 14.2687 28.094 14.2807 27.967C14.3034 27.9597 14.3271 27.9561 14.3509 27.9564C14.445 27.9579 14.5454 28.0003 14.681 28.0937C14.8045 28.1816 14.9203 28.28 15.0271 28.3877C15.1627 28.5224 15.2908 28.6643 15.4111 28.8129L15.4128 28.815C15.4269 28.8403 15.5481 29.0588 15.6425 29.2714C15.6897 29.3693 15.7259 29.472 15.7505 29.5779C15.7597 29.6088 15.7597 29.6419 15.7505 29.6728C15.7465 29.6829 15.7393 29.6913 15.7299 29.6967C15.7225 29.6999 15.7145 29.7016 15.7065 29.7015L15.7067 29.7014Z" fill="#4E5B31"/>
<path d="M38.7804 13.5449L38.6548 13.595L38.6056 13.6146L38.4534 13.6062L38.3108 13.6746L38.058 13.8474L38.0468 13.8554L37.9526 13.88L37.8651 13.8422L37.8154 13.8648L37.7983 13.9672L37.751 14.0408L37.6927 14.0817L37.491 14.1023L37.3208 14.19L37.0995 14.1308L36.9967 14.1711L36.778 14.368L36.6663 14.4209L36.6272 14.4186L36.4791 14.411L36.4165 14.4315L36.3231 14.5218L36.1463 14.5355L36.0912 14.5737L36.0049 14.7475L35.9114 14.844L35.858 14.8553L35.8001 14.8339L35.7565 14.8416L35.7368 14.9529L35.6945 14.9995L35.5761 15.0402L35.4816 15.119L35.3986 15.1617L35.2874 15.1589H35.2619L35.1512 15.22L34.9432 15.2383L34.8565 15.3209L34.8375 15.3385L34.797 15.363L34.7309 15.4024L34.7149 15.4122L34.6349 15.398L34.5416 15.435L34.5038 15.3769L34.4392 15.4156L34.3539 15.4193L34.2472 15.3719L34.166 15.3358L34.1067 15.3443L34.086 15.4478L34.084 15.4588L34.0216 15.5418L33.9051 15.6124L33.8891 15.633L33.7565 15.8041L33.5047 16.069L33.2917 16.1771L33.071 16.2443L32.9163 16.3712L32.511 16.5721L31.8713 16.8907L31.7404 16.9326L31.5527 16.9626L31.2179 17.0859L30.9225 17.175L30.906 17.18L30.8474 17.1977L30.4308 17.3238L30.237 17.3033L30.1221 17.345L29.8232 17.3118L29.6152 17.3159L29.4836 17.3433L29.2363 17.4619L28.8189 17.6625L28.681 17.7887L28.4662 17.9007L28.2147 17.9803L28.2153 17.8747L28.2138 17.8702L28.1266 17.8978L28.0636 17.9177L27.8596 17.9491H27.7461L27.6756 17.9287L27.665 17.9323L27.248 18.0694L26.783 18.1143L26.5503 18.1889L26.3764 18.1862L26.2677 18.2185L26.0544 18.2446L25.9783 18.2242L25.9611 18.2195L25.3344 18.2467L25.0479 18.2144L24.9112 18.2455L24.6818 18.1683L24.3475 18.1296L24.2693 18.1062L24.0933 18.054L24.0138 18.0998L23.9543 18.1062L23.8121 18.0546L23.7609 18.0533L23.6435 18.096L23.576 18.0786L23.5132 18.0286L23.3659 18.0067L23.2762 17.9313L22.7749 17.9977L22.6388 17.9577L22.1826 17.8248L22.11 17.8285L22.0194 17.8963L21.8835 17.9458L21.7655 17.9765L21.6049 17.9818L21.4182 17.9329L21.2259 17.8396L21.1548 17.8227L20.9962 17.8387L20.9476 17.8431L20.6561 17.6867L20.2805 17.4521L20.0257 17.3294L19.93 17.3139L19.9172 17.3594L19.9646 17.5087L19.9806 17.6567L19.9758 17.7934L19.9732 17.878L19.997 17.954L20.089 18.056L20.1273 18.1584L20.1554 18.4402L20.155 18.7262L20.1103 19.1822L20.0952 19.2515L20.0419 19.4878L19.9931 19.7048L19.804 20.2826L19.7521 20.3542L19.6245 20.4412L19.3355 20.6379L19.1227 20.7606L19.0554 20.7884L18.8826 20.8015L18.775 20.7962L18.641 20.7236L18.5094 20.6897L18.337 20.5658L18.145 20.5261L17.9348 20.4046L17.8801 20.3388L17.7657 20.3282L17.6069 20.2806V20.2803L17.5486 20.2628L17.5084 20.2511L17.3057 20.2458L17.1169 20.1586L17.0175 20.1346L16.8817 20.1278L16.7395 20.1938L16.6674 20.2274L16.5764 20.1912L16.5105 20.1953L16.4358 20.3081L16.4267 20.3254L16.3753 20.3526L16.3113 20.3516L16.2612 20.3503L16.207 20.374L16.134 20.4056L16.0696 20.4337L16.0381 20.4473L16.0376 20.4468L16.0182 20.4507L15.9838 20.4567L15.9412 20.4648L15.866 20.4209L15.826 20.3973L15.7589 20.3836L15.7228 20.4097L15.7157 20.5324L15.6828 20.6059L15.5782 20.6984L15.4719 20.792L15.3978 20.9011L15.2018 21.3486L15.0791 21.5291L15.041 21.5712L14.912 21.7131L14.7981 21.8015L14.5356 22.0049L14.2871 22.0978L14.0731 22.1415L13.969 22.1419L13.7717 22.1157L13.5945 22.0613L13.3998 21.9396L13.1865 21.768L12.8774 21.4627L12.8337 21.4364L12.8246 21.4304L12.7273 21.3681L12.655 21.37L12.6268 21.4166L12.6113 21.484L12.5982 21.5437L12.5628 21.8833L12.5654 21.903L12.5841 22.0428L12.8187 22.3708L12.8911 22.545L12.903 22.5649L12.9515 22.6463L12.9883 22.7083L12.992 22.7146L13.072 22.9539L13.0156 23.0891L13.0441 23.1798L12.9729 23.2351L12.9598 23.3132L13.1705 23.5774L13.2165 23.6939L13.1651 23.8554L13.0832 23.9446L13.0603 23.9689L13.0718 24.0372L13.1688 24.1244L13.3335 24.2711L13.4214 24.489L13.4882 24.5476L13.5659 24.5311L13.6091 24.5641L13.6746 24.563L13.739 24.6274L13.7807 24.6476L13.8466 24.6804L13.8987 24.7483L13.9102 24.9569L14.0074 25.2161L14.0089 25.3566L14.0094 25.3766L14.0699 25.4804L14.0889 25.5625L14.0569 25.7795L14.134 25.8491L14.2175 25.8321L14.2715 25.8406L14.3582 25.9128L14.4633 26.0728L14.566 26.0578L14.6312 26.0892L14.9458 26.3737L15.0172 26.4097L15.0212 26.412L15.0725 26.4377L15.1365 26.5022L15.2355 26.4364L15.2465 26.4353L15.3541 26.4258L15.4014 26.4578L15.4921 26.5191L15.6112 26.5176L15.8695 26.5968L15.9826 26.6257L16.2098 26.767L16.3064 26.8267L16.3636 26.8731L16.4395 26.9351L16.5913 27.0003L16.7214 27.0315L16.7919 27.0482L16.8452 27.0687L16.8466 27.0654H16.8473L16.846 27.0688L17.1278 27.1767L17.2805 27.2123L17.4217 27.2643L17.5245 27.3016L17.5999 27.3028L17.7066 27.2131L17.8099 27.2072L17.8957 27.2285L17.9794 27.2145L18.112 27.1328L18.1378 27.0945L18.2318 27.0497L18.5488 27.0104L18.6414 27.0404L18.8793 26.937L19.0387 26.9813L19.1797 26.9313L19.488 26.9998L19.5699 27.0574L19.6614 27.1622L19.6726 27.1627L19.7746 27.1647L19.732 27.2356L19.8665 27.3768L19.9881 27.5606L19.9963 27.5848L20.0846 27.8442L20.1504 27.9361L20.1963 28.0644L20.1986 28.148L20.1271 28.2025L20.1154 28.2336L20.1113 28.2451L20.1258 28.2801L20.1528 28.2654L20.2042 28.2369L20.2667 28.2272L20.3769 28.239L20.4496 28.2466L20.5645 28.1896L20.6406 28.1517L20.7629 28.2043L20.8973 28.2028L20.9537 28.228L21.1137 28.3004L21.1953 28.3081L21.2254 28.2883L21.2446 28.2426L21.2347 28.1893L21.1733 28.119L21.0384 27.9623L20.9831 27.8817L20.941 27.7651L20.928 27.616L20.9187 27.5155L20.9355 27.3834L20.9717 27.3362L20.9984 27.2313H20.9989L21.0058 27.2038L21.0808 27.1043L21.2794 26.9767L21.4927 26.7856L21.6613 26.6744L21.8352 26.5991L21.8398 26.5778L21.8592 26.5856L22.3014 26.4352L22.3088 26.4344L22.5057 26.4001L23.8347 26.4937L23.884 26.4788V26.4785L23.9283 26.3542L23.9521 26.3312L23.9681 26.3161L24.1142 26.2518L24.1826 26.242L24.3722 26.2889L24.4499 26.308L24.5742 26.2383L24.6625 26.2398L24.8447 26.1403L24.9573 26.1431L25 26.126L25.2193 25.9684L25.4305 25.9079L25.4854 25.8786L25.5048 25.868L25.7213 25.7536L25.8589 25.648L25.9776 25.5849L26.1076 25.5513L26.4479 25.5274L26.5163 25.4134L26.6627 25.3938L26.751 25.2941L26.8524 25.253L26.9249 25.1486L26.9856 25.061L27.0705 25.0119L27.3425 24.9948L27.6649 25.0348L27.7075 25.0089L27.7804 24.7489L27.8567 24.7001L28.062 24.4008L28.0627 24.2918V24.2007L28.0965 24.071L28.0736 23.8368L28.1008 23.5996L28.2284 23.2983L28.3409 23.1768L28.5223 23.0541L28.6145 23.0139L28.7451 22.992V22.992L28.7643 22.9888L28.7976 22.9831L29.2473 22.9769C29.2536 22.9722 29.4109 22.9746 29.4109 22.9746L29.5609 22.9726L29.9404 23.04L29.9674 23.0447L30.0954 23.0863L30.2433 23.2013L30.4 23.3543L30.4294 23.3828L30.5307 23.4255L30.5614 23.4389L30.6452 23.4255L30.7645 23.3634L30.8545 23.2873L30.9772 23.2202L30.9802 23.216L31.0492 23.1121L31.0513 23.1099L31.0528 23.1103V23.1097H31.0516L31.0789 23.0684L31.3161 22.976L31.595 22.96L31.6264 22.943L31.6438 22.9337L31.7175 22.8471L31.7866 22.8466L31.9538 22.9071L32.0711 22.8837L32.1644 22.921L32.237 22.9124L32.3738 22.8964L32.5207 22.9998L32.6063 23.0104L32.908 23.187L32.9237 23.1895L32.9318 23.191L32.9491 23.1939L32.9849 23.1832L33.0382 23.1678L33.0452 23.1657L33.052 23.1751L33.0863 23.2234L33.1333 23.2302L33.189 23.1559L33.1668 23.1222L33.1585 23.1099L33.0507 23.088L32.9539 22.9226L33.046 22.8234L32.9015 22.646L32.8775 22.6166L32.8693 22.6041L32.8193 22.5282L32.5662 22.1424L32.2365 21.8792L32.121 21.7868L32.1203 21.7863L32.0799 21.7543L31.9039 21.5752L31.7781 21.4082L31.7616 21.3723L31.7356 21.3156L31.6603 21.1515L31.529 21.0502L31.422 20.9333L31.4167 20.9264L31.1959 20.6264L31.1596 20.5761L31.1074 20.5459L30.9972 20.5452L30.9866 20.5345L30.9804 20.5281L30.9841 20.5241L31.037 20.4716L31.0959 20.4568L31.1213 20.3987L31.0089 20.0734L31.0081 20.062L30.9997 19.958L31.0914 19.4857L31.1031 19.4282L31.2593 19.1104L31.356 19.0312L31.4616 18.8236L31.5523 18.6909L31.6389 18.6065L31.6541 18.5976L31.8106 18.5028L31.942 18.4843L32.0673 18.4667L32.2859 18.5341L32.4939 18.53L32.5345 18.5257L32.6289 18.5151L32.7842 18.4662L32.8575 18.4209L32.8955 18.3626L32.9748 18.0967L33.0003 18.012L33.0492 17.9201L33.3322 17.5943L33.5461 17.3964L34.0271 17.0438L34.2626 16.903L34.3828 16.8312L35.4562 16.354L35.7351 16.0714L35.8804 15.9243L36.1376 15.7518L36.4384 15.6285L36.6973 15.4236L36.7538 15.3524L36.8251 15.1231L36.8844 15.1088L36.9378 14.9928L36.953 14.9599L37.1643 14.811L37.1882 14.7991L38.0089 14.3879L38.1281 14.4042L38.1921 14.3086L38.4309 14.2686L38.4748 14.2611L38.5335 14.2317L38.5836 14.1464V14.1295L38.5905 13.9016L38.6415 13.84L38.6692 13.6898L38.6954 13.6552L38.7228 13.6191L38.7904 13.5716L38.7787 13.5433L38.7804 13.5449Z" fill="#D57800"/>
</g>
<defs>
<clipPath id="clip0_11_5040">
<rect y="8" width="48" height="32" rx="1" fill="white"/>
</clipPath>
</defs>
</svg>
