<svg width="48" height="48" viewBox="0 0 48 48" fill="none" xmlns="http://www.w3.org/2000/svg">
<path d="M0.30525 39.524L24 24L0.30525 8.47592C0.122906 8.6277 0 8.84764 0 9.10339V38.8965C0 39.1523 0.122906 39.3723 0.30525 39.524Z" fill="white"/>
<path d="M0.305161 39.5241C0.448598 39.6435 0.626254 39.7241 0.827441 39.7241H47.1723C47.6293 39.7241 47.9999 39.3535 47.9999 38.8965V24H23.9999L0.305161 39.5241Z" fill="#73AF00"/>
<path d="M0.305161 8.47594C0.448598 8.3565 0.626254 8.27588 0.827441 8.27588H47.1723C47.6293 8.27588 47.9999 8.64647 47.9999 9.1035V24H23.9999L0.305161 8.47594Z" fill="#82AFFF"/>
<path d="M8.60302 20.2627L7.76489 22.7757L5.1158 22.7964C4.97058 22.7975 4.9104 22.9829 5.02712 23.0692L7.15824 24.643L6.35921 27.1688C6.31543 27.3073 6.47311 27.4218 6.59124 27.3373L8.74646 25.7969L10.9017 27.3373C11.0198 27.4217 11.1775 27.3072 11.1337 27.1688L10.3347 24.643L12.4655 23.0691C12.5823 22.9828 12.5221 22.7974 12.3768 22.7963L9.72774 22.7756L8.88961 20.2626C8.84386 20.1249 8.64896 20.1249 8.60302 20.2627Z" fill="#FF4B55"/>
</svg>
