<svg width="48" height="48" viewBox="0 0 48 48" fill="none" xmlns="http://www.w3.org/2000/svg">
<path d="M47.1723 39.7242H0.827623C0.370593 39.7242 0 39.3536 0 38.8965V9.1035C0 8.64647 0.370593 8.27588 0.827623 8.27588H47.1724C47.6294 8.27588 48 8.64647 48 9.1035V38.8965C47.9999 39.3537 47.6293 39.7242 47.1723 39.7242Z" fill="white"/>
<path d="M19.862 20.6898H0.827623C0.370593 20.6898 0 20.3192 0 19.8621V9.1035C0 8.64647 0.370593 8.27588 0.827623 8.27588H19.862C20.3191 8.27588 20.6896 8.64647 20.6896 9.1035V19.8621C20.6896 20.3192 20.3191 20.6898 19.862 20.6898Z" fill="#41479B"/>
<path d="M47.1722 39.7242H28.1378C27.6808 39.7242 27.3102 39.3536 27.3102 38.8965V28.138C27.3102 27.681 27.6808 27.3104 28.1378 27.3104H47.1722C47.6293 27.3104 47.9999 27.681 47.9999 28.138V38.8966C47.9999 39.3537 47.6293 39.7242 47.1722 39.7242Z" fill="#41479B"/>
<path d="M47.1722 20.6898H28.1378C27.6808 20.6898 27.3102 20.3192 27.3102 19.8621V9.1035C27.3102 8.64647 27.6808 8.27588 28.1378 8.27588H47.1722C47.6293 8.27588 47.9999 8.64647 47.9999 9.1035V19.8621C47.9999 20.3192 47.6293 20.6898 47.1722 20.6898Z" fill="#FF4B55"/>
<path d="M19.862 39.7242H0.827623C0.370593 39.7242 0 39.3536 0 38.8965V28.138C0 27.681 0.370593 27.3104 0.827623 27.3104H19.862C20.3191 27.3104 20.6896 27.681 20.6896 28.138V38.8966C20.6896 39.3537 20.3191 39.7242 19.862 39.7242Z" fill="#FF4B55"/>
<path d="M23.5247 26.3599C23.5247 26.3599 24.0192 26.5409 23.9547 27.1616L24.1545 27.1579C24.1545 27.1579 24.0284 26.4406 23.9242 26.3546C23.8199 26.2687 23.5247 26.3599 23.5247 26.3599Z" fill="#64B496"/>
<path d="M24.0204 26.264C23.8106 26.264 23.4441 26.2638 23.0586 26.1597C23.1446 26.0703 23.2633 25.8901 23.2633 25.5759C23.2633 25.0839 22.9243 25.3978 22.9243 25.3978C22.9243 25.3978 22.7014 25.5854 22.8362 26.0869C22.7048 26.0367 22.5744 25.972 22.45 25.8891C22.5274 25.792 22.6817 25.5657 22.7713 25.2068C22.7713 25.2068 22.2064 25.0952 22.0519 25.5206C21.9572 25.4005 21.8762 25.2654 21.8086 25.1159C21.9538 25.1177 22.1564 25.0219 22.1564 24.4689C22.1564 24.4689 21.7875 24.4696 21.689 24.7895C21.6502 24.6558 21.6206 24.5124 21.5989 24.3609C21.7462 24.4037 22.127 24.4343 22.127 23.6079C22.127 23.6079 21.6698 23.6088 21.5639 24.0138C21.5581 23.9102 21.5559 23.8031 21.5569 23.6927C21.7789 23.5766 22.0853 23.321 22.0535 22.7964C22.0535 22.7964 21.8426 22.8442 21.6493 23.0063C21.6874 22.8075 21.6716 22.5164 21.3667 22.2735C21.3667 22.2735 21.0865 22.7694 21.4958 23.1721C21.4601 23.2222 21.4291 23.2791 21.4035 23.3424C21.3115 23.2024 21.1641 23.0722 20.9265 22.993C20.9265 22.993 20.8172 23.6572 21.4374 23.9351C21.4521 24.323 21.5127 24.6658 21.617 24.9638C21.4393 24.8074 21.2956 24.5919 21.2956 24.5919C21.2956 23.8539 20.6906 23.8353 20.6906 23.8353C20.5777 24.6776 21.2005 24.7116 21.2005 24.7116L21.5416 25.0838C20.8036 24.9608 20.8036 25.5758 20.8036 25.5758C21.2956 25.6988 21.5416 25.4528 21.5416 25.4528L21.8077 25.5896C21.3357 25.6034 21.1726 26.0678 21.1726 26.0678C21.7658 26.1667 22.1995 26.0272 22.3469 25.9687C22.9443 26.3864 23.6806 26.3869 24.0206 26.3869V26.264H24.0204Z" fill="#64B496"/>
<path d="M23.9786 26.264C24.1883 26.264 24.5549 26.2638 24.9404 26.1597C24.8544 26.0703 24.7356 25.8901 24.7356 25.5759C24.7356 25.0839 25.0746 25.3978 25.0746 25.3978C25.0746 25.3978 25.2976 25.5854 25.1628 26.0869C25.2942 26.0367 25.4246 25.972 25.5489 25.8891C25.4716 25.792 25.3173 25.5657 25.2276 25.2068C25.2276 25.2068 25.7926 25.0952 25.9471 25.5206C26.0418 25.4005 26.1228 25.2654 26.1904 25.1159C26.0451 25.1177 25.8425 25.0219 25.8425 24.4689C25.8425 24.4689 26.2114 24.4696 26.3102 24.7895C26.349 24.6558 26.3785 24.5124 26.4003 24.3609C26.253 24.4037 25.8722 24.4343 25.8722 23.6079C25.8722 23.6079 26.3294 23.6088 26.4352 24.0138C26.441 23.9102 26.4433 23.8031 26.4423 23.6927C26.2203 23.5766 25.9139 23.321 25.9457 22.7964C25.9457 22.7964 26.1565 22.8442 26.3498 23.0063C26.3118 22.8075 26.3275 22.5164 26.6325 22.2735C26.6325 22.2735 26.9127 22.7694 26.5034 23.1721C26.539 23.2222 26.57 23.2791 26.5956 23.3424C26.6876 23.2024 26.8351 23.0722 27.0726 22.993C27.0726 22.993 27.1819 23.6572 26.5618 23.9351C26.5471 24.323 26.4864 24.6658 26.3822 24.9638C26.5598 24.8074 26.7035 24.5919 26.7035 24.5919C26.7035 23.8539 27.3085 23.8353 27.3085 23.8353C27.4215 24.6776 26.7986 24.7116 26.7986 24.7116L26.4575 25.0838C27.1955 24.9608 27.1955 25.5758 27.1955 25.5758C26.7035 25.6988 26.4575 25.4528 26.4575 25.4528L26.1915 25.5896C26.6634 25.6034 26.8265 26.0678 26.8265 26.0678C26.2334 26.1667 25.7997 26.0272 25.6522 25.9687C25.0549 26.3864 24.3185 26.3869 23.9786 26.3869V26.264Z" fill="#64B496"/>
<path d="M21.9246 20.902C21.492 21.1793 21.1107 21.5322 20.8035 21.9489C20.9355 22.0463 21.0675 22.1437 21.1995 22.241C21.4707 21.8732 21.8071 21.5618 22.1887 21.317L21.9246 20.902Z" fill="#41479B"/>
<path d="M24.0013 24.1H25.7232V25.084C25.7232 25.3558 25.503 25.576 25.2312 25.576H24.4932C24.2911 25.576 24.1133 25.6748 24.0012 25.8253L24.0013 24.1Z" fill="#FF6B71"/>
<path d="M24.3703 22.993V21.64H26.2153L25.7233 22.132V23.485H24.3703V22.993Z" fill="#5F64B9"/>
<path d="M25.723 23.4844H25.108V24.0994H25.723V23.4844Z" fill="white"/>
<path d="M24.0013 24.1H22.2794V25.084C22.2794 25.3558 22.4996 25.576 22.7714 25.576H23.5094C23.7115 25.576 23.8893 25.6748 24.0014 25.8253L24.0013 24.1Z" fill="#FF6B71"/>
<path d="M23.6938 25.6056C23.8165 25.6448 23.9224 25.7212 23.9985 25.8219H24.0042C24.0803 25.7211 24.1861 25.6449 24.3089 25.6056V24.5919H23.6938L23.6938 25.6056Z" fill="white"/>
<path d="M23.6324 22.993V21.64H21.7874L22.2794 22.132V23.485H23.6324V22.993Z" fill="#5F64B9"/>
<path d="M22.8947 23.4844H22.2797V24.0994H22.8947V23.4844Z" fill="white"/>
<path d="M22.8943 22.255V22.624L23.2633 22.87V22.624L22.8943 22.255Z" fill="#41479B"/>
<path d="M23.2633 22.624V22.993L23.7553 23.239V23.116L23.2633 22.624Z" fill="white"/>
<path d="M25.1083 22.255V22.624L24.7393 22.87V22.624L25.1083 22.255Z" fill="#41479B"/>
<path d="M24.7393 22.624V22.993L24.2473 23.239V23.116L24.7393 22.624Z" fill="white"/>
<path d="M24.7437 24.9609H23.2597C22.9224 24.9609 22.6489 24.6855 22.6489 24.3459V22.4436L24.0106 23.3619L25.3543 22.4436V24.3459C25.3543 24.6856 25.081 24.9609 24.7437 24.9609Z" fill="#FF4B55"/>
<path d="M23.1403 22.747L22.6483 22.378V23.731L23.1403 23.977V22.747Z" fill="#41479B"/>
<path d="M24.8623 22.747L25.3543 22.378V23.731L24.8623 23.977V22.747Z" fill="#41479B"/>
<path d="M24.739 23.9775H23.263V24.5926H24.739V23.9775Z" fill="#41479B"/>
<path d="M23.2633 22.87L24.0012 23.239L24.7392 22.87V23.977H23.2633V22.87Z" fill="#FF4B55"/>
<path d="M24.5549 22.9862V24.223C24.5549 24.3247 24.4721 24.4074 24.3705 24.4074H23.6325C23.5307 24.4074 23.4481 24.3246 23.4481 24.223V22.9913L23.0791 22.7442V24.223C23.0791 24.5281 23.3273 24.7764 23.6325 24.7764H24.3705C24.6756 24.7764 24.9239 24.5281 24.9239 24.223V22.7358L24.5549 22.9862Z" fill="white"/>
<path d="M24.6836 23.8454C24.4764 23.864 24.2432 23.8849 24.0013 23.9691C23.7594 23.8849 23.5261 23.864 23.319 23.8454C22.9723 23.8143 22.7666 23.784 22.6488 23.5748V23.9298C22.8297 24.0474 23.0587 24.069 23.2969 24.0904C23.5108 24.1097 23.7318 24.1294 23.9578 24.215L24.0014 24.2314L24.0449 24.215C24.2708 24.1294 24.4919 24.1098 24.7058 24.0904C24.9442 24.0691 25.1736 24.0478 25.3544 23.93V23.574C25.2366 23.784 25.0307 23.8143 24.6836 23.8454Z" fill="white"/>
<path d="M24.2472 22.6855H24.0628V22.501H23.9398V22.6855H23.7553V22.8085H23.9398V23.362H24.0628V22.8085H24.2472V22.6855Z" fill="#FFE15A"/>
<path d="M22.8564 22.1274L22.7889 22.1949L23.8697 23.2757L23.9372 23.2082L22.8564 22.1274Z" fill="#464655"/>
<path d="M22.6197 21.9582L22.7548 22.2284L22.8899 22.0933L22.6197 21.9582Z" fill="#FFE15A"/>
<path d="M23.1045 21.9523L23.0273 22.0085L23.9274 23.2441L24.0046 23.1879L23.1045 21.9523Z" fill="#464655"/>
<path d="M22.8962 21.7484L22.9878 22.0363L23.1422 21.9238L22.8962 21.7484Z" fill="#FFE15A"/>
<path d="M22.6416 22.353L22.5869 22.4313L23.8401 23.3063L23.8948 23.2281L22.6416 22.353Z" fill="#464655"/>
<path d="M22.3791 22.2289L22.5593 22.4712L22.6687 22.3147L22.3791 22.2289Z" fill="#FFE15A"/>
<path d="M24.0653 23.2075L24.1328 23.275L25.2136 22.1942L25.1461 22.1267L24.0653 23.2075Z" fill="#464655"/>
<path d="M25.3823 21.9582L25.2472 22.2284L25.1121 22.0933L25.3823 21.9582Z" fill="#FFE15A"/>
<path d="M23.9984 23.1868L24.0757 23.243L24.9757 22.0075L24.8984 21.9512L23.9984 23.1868Z" fill="#464655"/>
<path d="M25.1057 21.7484L25.0141 22.0363L24.8598 21.9238L25.1057 21.7484Z" fill="#FFE15A"/>
<path d="M24.1091 23.2294L24.1637 23.3076L25.4169 22.4326L25.3623 22.3543L24.1091 23.2294Z" fill="#464655"/>
<path d="M25.6231 22.2289L25.4428 22.4712L25.3334 22.3147L25.6231 22.2289Z" fill="#FFE15A"/>
<path d="M23.939 25.5409C23.939 25.5409 23.4633 25.03 23.5557 24.5611C23.6298 24.1839 23.8549 23.7681 24.0311 23.667C24.0311 23.667 24.2802 23.6516 24.2177 23.868C24.1553 24.0844 24.0792 24.1401 24.1015 24.3534C24.1398 24.7226 24.1993 25.1601 23.939 25.5409Z" fill="white"/>
<path d="M24.0832 23.6698C24.0534 23.6658 24.0308 23.6671 24.0308 23.6671C23.8547 23.7683 23.6296 24.1841 23.5554 24.5612C23.5134 24.7745 23.5893 24.996 23.6841 25.1746C23.6241 24.4014 23.8498 24.1271 24.0832 23.6698Z" fill="#41479B"/>
<path d="M24.1013 24.3537C24.0791 24.1404 24.1551 24.0846 24.2176 23.8682C24.2613 23.7168 24.1526 23.679 24.0833 23.6699C24.0833 23.6699 23.9245 24.0347 23.9143 24.2795C23.9053 24.4949 23.9604 25.3711 23.939 25.5412C24.1994 25.1601 24.1398 24.7227 24.1013 24.3537Z" fill="#FF4B55"/>
<path d="M23.7785 23.8521C23.8776 23.7555 24.0169 23.7123 24.1534 23.7357C24.0888 23.5275 24.0241 23.3193 23.9594 23.1109C23.8231 23.0876 23.6837 23.1308 23.5845 23.2274C23.6491 23.4357 23.7138 23.6439 23.7785 23.8521Z" fill="#F5F0F0"/>
<path d="M24.1536 23.7358C24.2527 23.6391 24.392 23.5959 24.5285 23.6194C24.4638 23.4111 24.3992 23.2029 24.3345 22.9946C24.1982 22.9713 24.0588 23.0145 23.9596 23.1111C24.0242 23.3193 24.0888 23.5275 24.1536 23.7358Z" fill="white"/>
<path d="M23.4396 21.0332C22.7719 21.0178 22.1124 21.182 21.5299 21.5085C21.4497 21.3654 21.3695 21.2224 21.2892 21.0794C21.9486 20.7097 22.6951 20.5238 23.4509 20.5413C23.4471 20.7053 23.4432 20.8692 23.4396 21.0332Z" fill="#5F64B9"/>
<path d="M26.078 20.902C26.5106 21.1793 26.8919 21.5322 27.1991 21.9489C27.0671 22.0463 26.9351 22.1437 26.8031 22.241C26.532 21.8732 26.1955 21.5618 25.8139 21.317L26.078 20.902Z" fill="#41479B"/>
<path d="M24.5632 21.0332C25.2309 21.0178 25.8903 21.182 26.4729 21.5085C26.5531 21.3654 26.6333 21.2224 26.7136 21.0794C26.0542 20.7097 25.3077 20.5238 24.5519 20.5413C24.5557 20.7053 24.5596 20.8692 24.5632 21.0332Z" fill="#5F64B9"/>
<path d="M24.9852 20.9021C24.3411 20.7259 23.6614 20.7259 23.0173 20.9021C22.9741 20.744 22.9307 20.5858 22.8875 20.4276C23.6166 20.2282 24.3859 20.2282 25.1151 20.4276C25.0719 20.5857 25.0286 20.7439 24.9852 20.9021Z" fill="#41479B"/>
<path d="M22.3529 26.4147C21.822 26.5534 21.303 26.7404 20.8033 26.9758C20.8732 27.1241 20.9432 27.2725 21.013 27.4209C21.4952 27.1936 21.9964 27.0143 22.5093 26.8825L22.3529 26.4147Z" fill="#FF6B71"/>
<path d="M25.6496 26.4147C26.1805 26.5534 26.6995 26.7404 27.1992 26.9758C27.1293 27.1241 27.0593 27.2725 26.9895 27.4209C26.5073 27.1936 26.0061 27.0143 25.4932 26.8825L25.6496 26.4147Z" fill="#FF6B71"/>
<path d="M25.98 26.7952C24.6863 26.4846 23.3377 26.4846 22.0441 26.7952C22.0058 26.6356 21.9675 26.4763 21.9292 26.3169C23.2982 25.9882 24.7258 25.9882 26.0948 26.3169C26.0567 26.4763 26.0183 26.6358 25.98 26.7952Z" fill="#FF4B55"/>
<path d="M24.0014 26.9289L23.6622 27.0138C23.5846 27.0332 23.5094 26.9745 23.5094 26.8945V26.7176C23.5094 26.6376 23.5846 26.5789 23.6622 26.5984L24.0014 26.6832V26.9289Z" fill="#FF4B55"/>
<path d="M24.0014 26.6829L24.3405 26.5981C24.4182 26.5787 24.4934 26.6374 24.4934 26.7173V26.8942C24.4934 26.9742 24.4182 27.033 24.3405 27.0135L24.0014 26.9287V26.6829Z" fill="#FF4B55"/>
<path d="M24.0278 26.929H23.975C23.9217 26.929 23.8784 26.8857 23.8784 26.8323V26.7795C23.8784 26.7262 23.9216 26.6829 23.975 26.6829H24.0278C24.0811 26.6829 24.1245 26.7261 24.1245 26.7795V26.8323C24.1244 26.8857 24.0811 26.929 24.0278 26.929Z" fill="#FF6B71"/>
</svg>
