<svg width="48" height="48" viewBox="0 0 48 48" fill="none" xmlns="http://www.w3.org/2000/svg">
<path d="M23.9999 39.7241H0.827625C0.370594 39.7241 0 39.3535 0 38.8965V9.1035C0 8.64646 0.370594 8.27587 0.827625 8.27587H24V39.7241H23.9999Z" fill="#73AF00"/>
<path d="M23.9999 8.27599H47.1723C47.6293 8.27599 47.9999 8.64658 47.9999 9.10361V38.8966C47.9999 39.3536 47.6293 39.7242 47.1723 39.7242H23.9999V8.27599Z" fill="white"/>
<path d="M27.9943 20.9912L26.5594 22.8682L24.3191 22.1183C24.1938 22.0763 24.0872 22.218 24.1622 22.3267L25.504 24.2713L24.0984 26.1703C24.0197 26.2764 24.1216 26.4216 24.2482 26.3838L26.5123 25.7086L27.884 27.6323C27.9607 27.7399 28.1302 27.6878 28.1334 27.5558L28.1909 25.1939L30.4442 24.4838C30.5702 24.444 30.5731 24.2668 30.4485 24.2229L28.22 23.4383L28.2409 21.0758C28.2422 20.9438 28.0744 20.8863 27.9943 20.9912Z" fill="#FF4B55"/>
<path d="M25.4873 29.6839C22.3506 29.6839 19.8061 27.1394 19.8061 23.9998C19.8061 20.8659 22.3506 18.3157 25.4873 18.3157C26.6543 18.3157 27.7306 18.6747 28.6275 19.2821C28.7648 19.3751 28.9216 19.1947 28.8066 19.0751C27.4661 17.6814 25.5689 16.8313 23.4655 16.9031C19.8517 17.0264 16.86 19.9239 16.6291 23.5325C16.3645 27.6658 19.6374 31.1007 23.7123 31.1007C25.7195 31.1007 27.5234 30.2615 28.8116 28.9199C28.9254 28.8013 28.7683 28.6236 28.6324 28.7158C27.7344 29.3245 26.6564 29.6839 25.4873 29.6839Z" fill="#FF4B55"/>
</svg>
