<svg width="48" height="48" viewBox="0 0 48 48" fill="none" xmlns="http://www.w3.org/2000/svg">
<path d="M47.9999 31.8621H0V38.8965C0 39.3535 0.370593 39.7241 0.827623 39.7241H47.1724C47.6294 39.7241 48 39.3535 48 38.8965L47.9999 31.8621Z" fill="#FF4B55"/>
<path d="M47.9999 24H0V9.10347C0 8.64644 0.370593 8.27585 0.827623 8.27585H47.1724C47.6294 8.27585 48 8.64644 48 9.10347L47.9999 24Z" fill="#FFE15A"/>
<path d="M47.9999 24.0001H0V31.8619H47.9999V24.0001Z" fill="#41479B"/>
<path d="M23.1363 24.4644L29.1813 19.283V26.7818C29.1813 28.0456 28.1567 29.07 26.893 29.07C26.3277 29.07 25.7824 28.8608 25.3622 28.4827L23.1363 26.4794V24.4644Z" fill="#FFE15A"/>
<path d="M26.3249 27.4129L24.5756 25.8385V23.2308L27.742 20.5168V22.4125V26.7819C27.742 27.25 27.3611 27.6309 26.893 27.6309C26.6829 27.6309 26.4811 27.5534 26.3249 27.4129Z" fill="#FF4B55"/>
<path d="M25.4391 22.4907V25.4548L26.8783 26.7543V22.3945V21.2571L27.742 20.5169V22.4126V26.782C27.742 27.2501 27.3611 27.631 26.893 27.631C26.6829 27.631 26.4811 27.5537 26.3249 27.413L24.5756 25.8386V23.2309L25.4391 22.4907Z" fill="#41479B"/>
<path d="M24.8636 24.4644L18.8186 19.283V26.7818C18.8186 28.0456 19.8432 29.07 21.1069 29.07C21.6722 29.07 22.2175 28.8608 22.6377 28.4827L24.8636 26.4794V24.4644Z" fill="#FFE15A"/>
<path d="M21.6749 27.4129L23.4242 25.8385V23.2308L20.2578 20.5168V22.4125V26.7819C20.2578 27.25 20.6387 27.6309 21.1068 27.6309C21.3169 27.6309 21.5187 27.5534 21.6749 27.4129Z" fill="#FF4B55"/>
<path d="M22.5607 22.4907V25.4548L21.1215 26.7543V22.3945V21.2571L20.2578 20.5169V22.4126V26.782C20.2578 27.2501 20.6387 27.631 21.1068 27.631C21.3169 27.631 21.5187 27.5537 21.6749 27.413L23.4242 25.8386V23.2309L22.5607 22.4907Z" fill="#41479B"/>
<path d="M29.3866 19.3088H28.9728V21.7884H29.3866V19.3088Z" fill="#41479B"/>
<path d="M19.0243 19.3088H18.6105V21.7884H19.0243V19.3088Z" fill="#41479B"/>
<path d="M23.1364 18.1317C23.1364 18.1317 23.7121 15.397 21.6972 15.7568C19.6822 16.1166 19.6822 16.6922 17.3793 17.8438C17.3793 17.8438 19.97 18.4195 21.1215 18.1317C21.1215 18.1317 21.9851 19.283 22.8486 19.5709H23.7122L23.1364 18.1317Z" fill="#5A4646"/>
<path d="M24.8637 18.1317C24.8637 18.1317 24.288 15.397 26.303 15.7568C28.318 16.1166 28.318 16.6922 30.6208 17.8438C30.6208 17.8438 28.0301 18.4195 26.8787 18.1317C26.8787 18.1317 26.0151 19.283 25.1516 19.5709H24.2879L24.8637 18.1317Z" fill="#5A4646"/>
<path d="M24.8635 19.5709H23.1364V18.121C23.1364 17.6499 23.5182 17.2681 23.9893 17.2681H24.0106C24.4817 17.2681 24.8635 17.6499 24.8635 18.121V19.5709Z" fill="#5A4646"/>
<path d="M24.0001 18.707C24.318 18.707 24.5758 18.4493 24.5758 18.1313C24.5758 17.8133 24.318 17.5556 24.0001 17.5556C23.6821 17.5556 23.4243 17.8133 23.4243 18.1313C23.4243 18.4493 23.6821 18.707 24.0001 18.707Z" fill="#E6E1CD"/>
<path d="M22.7644 17.7599L23.8468 18.3379C23.9377 18.3865 24.0495 18.3698 24.1222 18.297C24.2135 18.2057 24.2135 18.0577 24.1222 17.9663L23.4239 17.2681H23.256C22.9845 17.2681 22.7644 17.4882 22.7644 17.7599Z" fill="#FFD0AF"/>
<path d="M23.1399 17.8438H22.2728L22.6522 17.3996C22.7235 17.3163 22.8276 17.2682 22.9374 17.2682H23.4241V17.5596C23.4241 17.7165 23.2968 17.8438 23.1399 17.8438Z" fill="#FFAF94"/>
<path d="M26.4551 19.5717C26.2608 19.3412 26.2194 19.0357 26.3141 18.771C26.591 18.7226 26.8851 18.8151 27.0793 19.0457C27.2452 19.2427 27.2933 19.4931 27.2465 19.7275C27.3041 19.8252 27.3744 19.9508 27.4517 20.0991C27.4556 20.078 27.4547 20.0571 27.4607 20.036C27.5286 19.7973 27.7179 19.6284 27.9422 19.5712C28.1027 19.7379 28.1749 19.9812 28.1071 20.2198C28.0487 20.4251 27.8982 20.5739 27.7152 20.6492C27.7875 20.8151 27.859 20.9939 27.9258 21.1827C27.9297 21.1716 27.93 21.1603 27.9345 21.1494C28.0282 20.9196 28.235 20.7726 28.4642 20.7404C28.6053 20.9237 28.6503 21.1735 28.5567 21.4033C28.4747 21.6043 28.3045 21.7368 28.1101 21.7896C28.2102 22.1846 28.2765 22.6036 28.2765 23.0255H27.9886C27.9886 22.6578 27.9321 22.2896 27.8469 21.9373C27.6693 21.9946 27.4708 21.9823 27.2989 21.8772C27.0893 21.7487 26.9787 21.523 26.9838 21.2938C27.1858 21.185 27.4371 21.181 27.6468 21.3095C27.6543 21.3141 27.6594 21.3208 27.6667 21.3257C27.605 21.1485 27.5394 20.9804 27.472 20.8228C27.2992 20.9044 27.0959 20.917 26.9093 20.8294C26.6868 20.7248 26.552 20.5126 26.5319 20.2843C26.7199 20.1543 26.9685 20.1229 27.1903 20.2261C27.1111 20.0738 27.0395 19.9462 26.9835 19.8509C26.7852 19.8281 26.5942 19.7368 26.4551 19.5717Z" fill="#8CB400"/>
<path d="M21.5451 19.5717C21.7394 19.3412 21.7808 19.0357 21.6861 18.771C21.4092 18.7226 21.1151 18.8151 20.9209 19.0457C20.755 19.2427 20.7069 19.4931 20.7537 19.7275C20.6961 19.8252 20.6258 19.9508 20.5485 20.0991C20.5446 20.078 20.5455 20.0571 20.5395 20.036C20.4716 19.7973 20.2823 19.6284 20.0581 19.5712C19.8975 19.7379 19.8253 19.9812 19.8932 20.2198C19.9515 20.4251 20.102 20.5739 20.285 20.6492C20.2128 20.8151 20.1412 20.9939 20.0744 21.1827C20.0705 21.1716 20.0703 21.1603 20.0658 21.1494C19.972 20.9196 19.7652 20.7726 19.5361 20.7404C19.3949 20.9237 19.3499 21.1735 19.4436 21.4033C19.5257 21.6043 19.6958 21.7368 19.8903 21.7896C19.7901 22.1846 19.7239 22.6036 19.7239 23.0255H20.0118C20.0118 22.6578 20.0682 22.2896 20.1534 21.9373C20.3311 21.9946 20.5295 21.9823 20.7014 21.8772C20.9111 21.7487 21.0216 21.523 21.0165 21.2938C20.8145 21.185 20.5632 21.181 20.3536 21.3095C20.346 21.3141 20.3409 21.3208 20.3336 21.3257C20.3953 21.1485 20.4609 20.9804 20.5283 20.8228C20.7011 20.9044 20.9044 20.917 21.091 20.8294C21.3136 20.7248 21.4483 20.5126 21.4684 20.2843C21.2804 20.1543 21.0319 20.1229 20.81 20.2261C20.8893 20.0738 20.9608 19.9462 21.0169 19.8509C21.215 19.8281 21.406 19.7368 21.5451 19.5717Z" fill="#8CB400"/>
<path d="M24 25.9037L17.955 20.7224V28.2211C17.955 29.485 18.9795 30.5094 20.2432 30.5094C20.8085 30.5094 21.3539 30.3001 21.7741 29.922L24 27.9188V25.9037Z" fill="#FFE15A"/>
<path d="M20.8112 28.8522L22.5605 27.2777V24.6701L19.3941 21.956V23.8517V28.2211C19.3941 28.6892 19.775 29.0701 20.2431 29.0701C20.4533 29.0701 20.655 28.9928 20.8112 28.8522Z" fill="#FF4B55"/>
<path d="M21.697 23.93V26.894L20.2578 28.1936V23.8338V22.6964L19.3941 21.9561V23.8519V28.2213C19.3941 28.6894 19.775 29.0703 20.2431 29.0703C20.4532 29.0703 20.655 28.9929 20.8112 28.8523L22.5605 27.2779V24.6702L21.697 23.93Z" fill="#41479B"/>
<path d="M23.9999 25.9037L30.0449 20.7224V28.2211C30.0449 29.485 29.0203 30.5094 27.7567 30.5094C27.1914 30.5094 26.646 30.3001 26.2258 29.922L23.9999 27.9188V25.9037Z" fill="#FFE15A"/>
<path d="M27.1886 28.8522L25.4393 27.2777V24.6701L28.6057 21.956V23.8517V28.2211C28.6057 28.6892 28.2248 29.0701 27.7567 29.0701C27.5464 29.0701 27.3448 28.9928 27.1886 28.8522Z" fill="#FF4B55"/>
<path d="M26.3028 23.93V26.894L27.742 28.1936V23.8338V22.6964L28.6057 21.9561V23.8519V28.2213C28.6057 28.6894 28.2248 29.0703 27.7567 29.0703C27.5466 29.0703 27.3448 28.9929 27.1886 28.8523L25.4393 27.2779V24.6702L26.3028 23.93Z" fill="#41479B"/>
<path d="M24 28.2066C25.5898 28.2066 26.8786 26.2734 26.8786 23.8885C26.8786 21.5037 25.5898 19.5704 24 19.5704C22.4102 19.5704 21.1214 21.5037 21.1214 23.8885C21.1214 26.2734 22.4102 28.2066 24 28.2066Z" fill="#69C3FF"/>
<path d="M21.4091 25.0402H26.5905L26.8784 23.8888L25.5665 24.1075C25.3034 24.1514 25.0342 24.0764 24.8316 23.9028L23.3425 22.6264C23.2095 22.5123 23.0399 22.4496 22.8646 22.4496C22.6699 22.4496 22.4831 22.5269 22.3455 22.6646L21.4091 23.601V25.0402Z" fill="#009B64"/>
<path d="M23.7271 23.6954L24.2215 23.3794L23.3427 22.6262C23.2097 22.5122 23.0401 22.4494 22.8649 22.4494C22.6702 22.4494 22.4833 22.5268 22.3457 22.6645L21.4093 23.6009V23.8888L22.8486 23.6009L23.103 23.7281C23.3025 23.8278 23.5394 23.8153 23.7271 23.6954Z" fill="white"/>
<path d="M21.4091 25.0402L21.6969 26.7673L23.1361 28.2066H23.9998L25.1511 27.9188L26.3026 26.7673L26.5905 25.0402H21.4091Z" fill="#5AA0E6"/>
<path d="M23.9999 28.4944C22.2539 28.4944 20.8335 26.4283 20.8335 23.8887C20.8335 21.3491 22.2539 19.2829 23.9999 19.2829C25.7459 19.2829 27.1663 21.3491 27.1663 23.8887C27.1663 26.4283 25.7459 28.4944 23.9999 28.4944ZM23.9999 19.8588C22.5715 19.8588 21.4092 21.6667 21.4092 23.8889C21.4092 26.111 22.5714 27.9189 23.9999 27.9189C25.4283 27.9189 26.5905 26.111 26.5905 23.8889C26.5905 21.6667 25.4282 19.8588 23.9999 19.8588Z" fill="#FFC88C"/>
<path d="M21.9691 28.1808C21.7278 27.8476 21.3685 27.6309 20.9617 27.6309C20.5548 27.6309 20.1955 27.8476 19.9542 28.1808C20.3658 28.2949 20.7025 28.629 20.862 29.0694C20.9262 29.2468 20.9618 29.4414 20.9618 29.646C20.9617 28.9339 21.3919 28.3408 21.9691 28.1808Z" fill="#E1E1E1"/>
<path d="M21.1903 29.0889C21.1903 29.0889 21.1678 29.4727 20.971 29.6526L20.9627 29.6459C20.7659 29.466 20.7434 29.0822 20.7434 29.0822L21.1903 29.0889Z" fill="#E1E1E1"/>
<path d="M27.6 29.214H20.4C20.3214 29.214 20.2578 29.1504 20.2578 29.0719V29.0683C20.2578 28.9898 20.3215 28.9262 20.4 28.9262H27.6C27.6785 28.9262 27.7421 28.9899 27.7421 29.0683V29.0719C27.7421 29.1504 27.6785 29.214 27.6 29.214Z" fill="#966446"/>
<path d="M25.4465 29.6459H22.5537C22.2396 29.6459 21.985 29.3912 21.985 29.0772V29.063C21.985 28.7489 22.2396 28.4943 22.5537 28.4943H25.4465C25.7605 28.4943 26.0151 28.7489 26.0151 29.063V29.0772C26.0151 29.3912 25.7604 29.6459 25.4465 29.6459Z" fill="#BE915A"/>
<path d="M21.4093 28.9262H20.4019C20.3225 28.9262 20.258 28.9906 20.258 29.0701C20.258 29.1496 20.3224 29.214 20.4019 29.214H21.4093V28.9262Z" fill="#B9B9B9"/>
<path d="M24.0002 29.6458V32.2759L22.8488 31.9487L23.4245 29.6458H24.0002Z" fill="#FF4B55"/>
<path d="M23.7122 29.6458L23.1365 31.6609L21.9851 31.373L22.8488 29.6458H23.7122Z" fill="#41479B"/>
<path d="M22.5607 29.6458L21.6971 30.7972L22.5607 31.0851L23.1363 29.6458H22.5607Z" fill="#FFE15A"/>
<path d="M23.9999 29.6458V32.2759L25.1513 31.9487L24.5757 29.6458H23.9999Z" fill="#FF4B55"/>
<path d="M24.2881 29.6458L24.8638 31.6609L26.0151 31.373L25.1515 29.6458H24.2881Z" fill="#41479B"/>
<path d="M25.4393 29.6458L26.3029 30.7972L25.4393 31.0851L24.8636 29.6458H25.4393Z" fill="#FFE15A"/>
<path d="M18.162 23.2015L17.7482 22.7845V20.7221H18.162V23.2015Z" fill="#41479B"/>
<path d="M30.248 22.7845L29.8342 23.2015V20.7221H30.248V22.7845Z" fill="#41479B"/>
</svg>
