<svg width="48" height="48" viewBox="0 0 48 48" fill="none" xmlns="http://www.w3.org/2000/svg">
<path d="M47.9999 18.7588H0V9.10359C0 8.64656 0.370593 8.27597 0.827623 8.27597H47.1724C47.6294 8.27597 48 8.64656 48 9.10359L47.9999 18.7588Z" fill="#FF4B55"/>
<path d="M47.1723 39.7242H0.827623C0.370593 39.7242 0 39.3536 0 38.8966V29.2415H47.9999V38.8966C47.9999 39.3537 47.6293 39.7242 47.1723 39.7242Z" fill="#464655"/>
<path d="M47.9999 18.7584H0V29.2406H47.9999V18.7584Z" fill="white"/>
<path d="M26.6424 22.366C26.6424 21.9556 26.2403 21.6658 25.851 21.7956L25.1194 22.0394L24.9418 20.9666C24.8355 20.3266 24.2871 19.8622 23.6381 19.8622H22.9538L22.2381 20.7431H23.1858L22.9206 22.0529L22.1488 21.7957C21.7594 21.6658 21.3574 21.9557 21.3574 22.3661V26.8168L22.4227 25.7516L21.9208 27.2573H21.3575V28.1381H26.6425V27.2573H26.0792L25.5773 25.7516L26.6426 26.8168V22.366H26.6424ZM23.5596 27.2571H22.8496L23.3378 25.9531L23.5596 26.2363V27.2571ZM24.4403 27.2571V26.2363L24.6621 25.9531L25.1504 27.2571H24.4403ZM24 25.6606C24 25.6606 22.6374 24.7385 22.6925 23.0182C22.6925 23.0182 23.5321 22.8806 24 22.1373C24.4679 22.8805 25.3075 23.0182 25.3075 23.0182C25.3625 24.7386 24 25.6606 24 25.6606Z" fill="#F0C727"/>
</svg>
