<svg width="48" height="48" viewBox="0 0 48 48" fill="none" xmlns="http://www.w3.org/2000/svg">
<path d="M47.9999 23.9999H0V9.10338C0 8.64635 0.370593 8.27576 0.827623 8.27576H47.1724C47.6294 8.27576 48 8.64635 48 9.10338L47.9999 23.9999Z" fill="#73AF00"/>
<path d="M0 23.9999H47.9999V38.8965C47.9999 39.3535 47.6293 39.7241 47.1723 39.7241H0.827623C0.370593 39.7241 0 39.3535 0 38.8965V23.9999Z" fill="#4173CD"/>
<path d="M0 9.10335V38.8964C0 39.1956 0.16725 39.446 0.405093 39.5913L47.9999 23.9999L0.405093 8.40857C0.167156 8.55388 0 8.8041 0 9.10335Z" fill="#FF4B55"/>
<path d="M17.7009 28.724C17.7009 28.724 20.0317 27.874 20.6898 25.3238C20.6898 25.3238 19.6751 26.6401 18.9622 27.024C18.9622 27.024 20.5252 24.9399 20.1961 22.9108C20.1961 22.9108 20.0041 23.7335 19.6202 24.0625C19.6202 24.0625 20.3058 21.1284 19.4282 19.8945C19.4282 19.8945 19.4556 20.9365 19.0718 21.9786C19.0718 21.9786 19.218 18.6787 17.719 17.8379C17.719 17.8379 18.304 18.8799 18.0571 19.7573C18.0571 19.7573 17.6458 17.8927 15.7354 17.1523C15.7354 17.1523 15.6165 17.2894 15.644 17.7007C15.644 17.7007 15.123 17.07 13.8342 17.0975C13.8342 17.0975 13.8615 17.5636 14.1906 18.0023C14.1906 18.0023 13.6696 18.2766 13.3406 18.1943C13.3406 18.1943 13.8615 18.7702 15.6987 18.7153C15.6987 18.7153 15.4519 18.9347 14.9584 18.9895C14.9584 18.9895 15.709 19.3342 16.4483 19.4008C17.4629 19.4921 17.8651 20.0864 18.057 20.8267C18.057 20.8267 17.2618 20.3606 16.9601 19.8944C16.9601 19.8944 16.9053 20.6896 18.4135 22.2252L17.6456 21.8962C17.6456 21.8962 18.1392 23.3221 18.7425 24.9399L18.1118 24.2543C18.1118 24.2543 17.9747 25.4061 17.8649 27.545L17.4262 26.5303C17.4262 26.5303 16.6584 29.0531 15.4793 29.4644C14.5562 29.7864 13.5353 30.0068 13.1341 30.0877C13.0965 28.6763 13.6969 28.3675 13.6969 28.3675C14.7663 28.4224 15.0132 27.2433 15.0132 27.2433C14.7938 27.4626 14.3824 27.4626 14.3824 27.4626C15.0131 26.8045 15.0132 25.8723 15.0132 25.8723C14.6292 26.6126 14.026 26.7223 14.026 26.7223L14.0808 25.982C12.9655 26.7931 13.0451 27.743 13.0635 27.8823C13.0384 27.7047 12.8397 26.3154 12.7372 25.982C12.6275 25.6255 12.8742 24.9126 13.2582 25.0221C14.5008 25.3772 14.7938 24.4738 14.7938 24.4738C14.1357 24.7755 13.7517 24.556 13.7517 24.556C14.6018 23.7334 14.2453 22.9656 14.2453 22.9656C13.9711 23.7608 13.2033 23.898 13.2033 23.898L13.1759 23.0206C12.8195 23.2126 12.4903 24.0626 12.4903 24.0626C12.4903 24.0626 12.4081 23.377 12.6548 22.7737C12.9016 22.1705 13.5322 22.4721 13.5322 22.4721C14.6564 22.6914 15.013 21.622 15.013 21.622L14.2726 21.7317C15.0953 21.1284 14.8485 20.388 14.8485 20.388C14.6565 20.8541 13.9711 20.9364 13.9711 20.9364L14.3002 20.059C13.5872 20.059 13.1759 20.9914 13.1759 20.9914L13.1211 20.0865C13.4502 18.9074 12.6823 18.3863 12.6823 18.3863C12.5179 18.6057 12.6001 19.0719 12.6001 19.0719C11.9145 18.4687 11.3936 19.1816 11.3936 19.1816C11.9145 19.7301 12.4082 19.6752 12.4082 19.6752C12.2438 19.7849 11.6404 19.8397 11.6404 19.8397C12.326 20.4156 12.7098 20.3058 12.7098 20.3058C13.0389 21.7043 12.1614 22.335 12.1614 22.335C11.9969 21.293 11.3662 20.7994 11.3662 20.7994L11.3936 21.485C10.9823 21.2381 10.6532 20.4978 10.6532 20.4978C10.379 21.5398 11.1193 22.4447 11.1193 22.4447L10.4338 22.3898C11.037 23.7884 11.9967 23.3496 11.9967 23.3496C11.9145 24.3368 12.2436 25.9547 12.2436 25.9547C12.1065 25.7902 10.6532 24.4191 10.6532 24.4191C10.5984 24.9674 11.1193 25.6804 11.1193 25.6804C10.8451 25.6255 10.0499 25.0222 10.0499 25.0222C10.1322 25.8996 11.2839 26.4756 11.2839 26.4756C10.8451 26.5304 9.995 26.0368 9.995 26.0368C10.4886 28.1482 12.2983 27.2159 12.2983 27.2159L12.4372 30.0719C12.0549 29.9801 11.2189 29.767 10.3514 29.4645C9.17235 29.0532 8.40454 26.5304 8.40454 26.5304L7.96579 27.5451C7.8561 25.4061 7.71895 24.2544 7.71895 24.2544L7.0882 24.94C7.69148 23.3222 8.18507 21.8962 8.18507 21.8962L7.41726 22.2253C8.92597 20.6895 8.87104 19.8943 8.87104 19.8943C8.56935 20.3604 7.77416 20.8267 7.77416 20.8267C7.96616 20.0863 8.56935 19.3185 9.30979 19.2637C10.0502 19.2088 10.8728 18.9894 10.8728 18.9894C10.3792 18.9346 10.1324 18.7152 10.1324 18.7152C12.2713 18.5232 12.4906 17.9474 12.4906 17.9474C12.1616 18.0296 11.1469 17.92 11.1469 17.92C11.9969 17.4539 13.3955 17.0152 13.3955 17.0152C11.6679 16.7135 10.1872 17.7007 10.1872 17.7007C10.434 17.2346 10.8728 16.7136 10.8728 16.7136C8.76135 17.6459 7.77407 19.7573 7.77407 19.7573C7.52723 18.8799 8.11223 17.8378 8.11223 17.8378C6.61317 18.6787 6.75942 21.9785 6.75942 21.9785C6.37551 20.9364 6.40298 19.8944 6.40298 19.8944C5.52557 21.1283 6.21098 24.0624 6.21098 24.0624C5.82707 23.7334 5.63507 22.9107 5.63507 22.9107C5.30601 24.9399 6.86901 27.0239 6.86901 27.0239C6.15604 26.64 5.14139 25.3237 5.14139 25.3237C5.79951 27.8739 8.13032 28.724 8.13032 28.724C6.84145 28.2304 6.2931 28.6417 6.2931 28.6417C7.19798 28.8337 8.07548 29.3821 8.78844 29.903C9.50141 30.424 10.4612 30.5338 11.3113 30.6434C11.6624 30.6887 11.9534 30.7477 12.1788 30.8017C11.7142 31.0291 11.3936 31.505 11.3936 32.0571H14.1906C14.1906 31.5259 13.8943 31.0638 13.4579 30.827C13.7388 30.767 14.113 30.6958 14.5197 30.6433C15.3697 30.5336 16.2578 30.308 17.0425 29.903C17.8925 29.4642 18.6328 28.8335 19.5378 28.6416C19.5381 28.6418 18.9895 28.2306 17.7009 28.724Z" fill="#FFE15A"/>
</svg>
