<svg width="48" height="48" viewBox="0 0 48 48" fill="none" xmlns="http://www.w3.org/2000/svg">
<path d="M0.827623 39.7243H47.1724C47.6294 39.7243 48 39.3537 48 38.8966V9.10359C48 8.64656 47.6294 8.27597 47.1724 8.27597H0.827623C0.370593 8.27606 0 8.64656 0 9.10359V38.8966C0 39.3538 0.370593 39.7243 0.827623 39.7243Z" fill="#C8414B"/>
<path d="M47.9999 14.897H0V33.1042H47.9999V14.897Z" fill="#FFD250"/>
<path d="M20.2758 24.0002L20.9775 20.8426C21.0422 20.5518 20.8209 20.2759 20.5229 20.2759H20.0287C19.7308 20.2759 19.5096 20.5518 19.5741 20.8426L20.2758 24.0002Z" fill="#C8414B"/>
<path d="M21.1036 22.3444H19.4484V29.3784H21.1036V22.3444Z" fill="white"/>
<path d="M21.5168 21.5176H19.034V22.3452H21.5168V21.5176Z" fill="#FAB446"/>
<path d="M21.5176 24.0001H17.3795V24.8277H21.5176V24.0001Z" fill="#C8414B"/>
<path d="M21.5172 27.3106L19.0345 26.483V25.6554L21.5172 26.483V27.3106Z" fill="#C8414B"/>
<path d="M7.86207 24.0002L8.56379 20.8426C8.62847 20.5518 8.40713 20.2759 8.10919 20.2759H7.61494C7.3171 20.2759 7.09585 20.5518 7.16035 20.8426L7.86207 24.0002Z" fill="#C8414B"/>
<path d="M10.7587 21.5172C10.3017 21.5172 9.93109 21.8878 9.93109 22.3448V27.7241C9.93109 28.7296 10.8695 30.6207 14.069 30.6207C17.2685 30.6207 18.207 28.7297 18.207 27.7241V22.3448C18.207 21.8878 17.8364 21.5172 17.3793 21.5172H10.7587Z" fill="white"/>
<path d="M14.069 25.6551H9.93109V22.3448C9.93109 21.8878 10.3017 21.5172 10.7587 21.5172H14.069V25.6551Z" fill="#C8414B"/>
<path d="M14.0691 25.6552H18.207V27.7242C18.207 28.8669 17.2808 29.7931 16.138 29.7931C14.9953 29.7931 14.0691 28.8669 14.0691 27.7242V25.6552Z" fill="#C8414B"/>
<path d="M9.93109 25.6552H14.069V27.7242C14.069 28.8669 13.1428 29.7931 12.0001 29.7931C10.8573 29.7931 9.93109 28.8669 9.93109 27.7242V25.6552Z" fill="#FAB446"/>
<path d="M13.2412 29.37V25.6552H12.4136V29.7514C12.7215 29.689 12.9997 29.5527 13.2412 29.37Z" fill="#C8414B"/>
<path d="M11.5861 29.7514V25.6552H10.7585V29.37C11.0002 29.5527 11.2783 29.689 11.5861 29.7514Z" fill="#C8414B"/>
<path d="M13.2415 24.0001H10.7587V24.8277H13.2415V24.0001Z" fill="#FFB441"/>
<path d="M13.2415 22.3444H10.7587V23.172H13.2415V22.3444Z" fill="#FAB446"/>
<path d="M12.8274 22.8366H11.1722V24.3358H12.8274V22.8366Z" fill="#FAB446"/>
<path d="M8.68918 22.3444H7.03403V29.3784H8.68918V22.3444Z" fill="white"/>
<path d="M9.10329 28.966H6.62051V29.7937H9.10329V28.966Z" fill="#FAB446"/>
<path d="M9.10329 21.5176H6.62051V22.3452H9.10329V21.5176Z" fill="#FAB446"/>
<path d="M9.51752 29.7928H6.20721V30.6204H9.51752V29.7928Z" fill="#5064AA"/>
<path d="M21.9312 28.966H19.4484V29.7937H21.9312V28.966Z" fill="#FAB446"/>
<path d="M21.9308 29.7928H18.6205V30.6204H21.9308V29.7928Z" fill="#5064AA"/>
<path d="M16.552 20.6898H11.5865V21.5174H16.552V20.6898Z" fill="#FAB446"/>
<path d="M14.4833 18.2073H13.6557V20.6901H14.4833V18.2073Z" fill="#FFB441"/>
<path d="M13.2413 19.4483C12.5567 19.4483 12 18.8914 12 18.2069C12 17.5224 12.5568 16.9656 13.2413 16.9656C13.9259 16.9656 14.4827 17.5225 14.4827 18.2069C14.4827 18.8914 13.9259 19.4483 13.2413 19.4483ZM13.2413 17.7931C13.013 17.7931 12.8275 17.9786 12.8275 18.2069C12.8275 18.4352 13.0129 18.6207 13.2413 18.6207C13.4697 18.6207 13.6551 18.4353 13.6551 18.2069C13.6551 17.9786 13.4697 17.7931 13.2413 17.7931Z" fill="white"/>
<path d="M14.8966 19.4483C14.212 19.4483 13.6552 18.8914 13.6552 18.2069C13.6552 17.5224 14.2121 16.9656 14.8966 16.9656C15.5811 16.9656 16.1379 17.5225 16.1379 18.2069C16.1379 18.8914 15.581 19.4483 14.8966 19.4483ZM14.8966 17.7931C14.6683 17.7931 14.4828 17.9786 14.4828 18.2069C14.4828 18.4352 14.6682 18.6207 14.8966 18.6207C15.1248 18.6207 15.3104 18.4353 15.3104 18.2069C15.3103 17.9786 15.1248 17.7931 14.8966 17.7931Z" fill="white"/>
<path d="M16.5517 20.276C15.8671 20.276 15.3103 19.7191 15.3103 19.0347C15.3103 18.3501 15.8672 17.7933 16.5517 17.7933C17.2363 17.7933 17.793 18.3502 17.793 19.0347C17.793 19.7191 17.2362 20.276 16.5517 20.276ZM16.5517 18.6208C16.3234 18.6208 16.1379 18.8063 16.1379 19.0347C16.1379 19.2629 16.3233 19.4485 16.5517 19.4485C16.78 19.4485 16.9655 19.263 16.9655 19.0347C16.9655 18.8063 16.78 18.6208 16.5517 18.6208Z" fill="white"/>
<path d="M11.5862 20.276C10.9016 20.276 10.3448 19.7191 10.3448 19.0347C10.3448 18.3501 10.9017 17.7933 11.5862 17.7933C12.2708 17.7933 12.8275 18.3502 12.8275 19.0347C12.8276 19.7191 12.2708 20.276 11.5862 20.276ZM11.5862 18.6208C11.3579 18.6208 11.1724 18.8063 11.1724 19.0347C11.1724 19.2629 11.3578 19.4485 11.5862 19.4485C11.8146 19.4485 12 19.2629 12 19.0346C12 18.8063 11.8146 18.6208 11.5862 18.6208Z" fill="white"/>
<path d="M16.5517 27.3105V27.7243C16.5517 27.9525 16.3661 28.1381 16.1379 28.1381C15.9097 28.1381 15.7241 27.9525 15.7241 27.7243V27.3105H16.5517ZM17.3792 26.4829H14.8965V27.7243C14.8965 28.4088 15.4533 28.9656 16.1378 28.9656C16.8224 28.9656 17.3792 28.4087 17.3792 27.7243V26.4829H17.3792Z" fill="#FAB446"/>
<path d="M16.1378 24.8277C15.6808 24.8277 15.3102 24.4571 15.3102 24.0001V23.1725C15.3102 22.7154 15.6808 22.3448 16.1378 22.3448C16.5949 22.3448 16.9655 22.7154 16.9655 23.1725V24.0001C16.9655 24.4571 16.5949 24.8277 16.1378 24.8277Z" fill="#FFA0D2"/>
<path d="M14.0689 26.8962C14.7545 26.8962 15.3103 26.3404 15.3103 25.6548C15.3103 24.9692 14.7545 24.4135 14.0689 24.4135C13.3834 24.4135 12.8276 24.9692 12.8276 25.6548C12.8276 26.3404 13.3834 26.8962 14.0689 26.8962Z" fill="#5064AA"/>
<path d="M14.4833 16.5516H13.6557V19.0344H14.4833V16.5516Z" fill="#FAB446"/>
<path d="M11.5861 20.6897L10.7585 19.8621L11.2433 19.3773C11.9926 18.628 13.0091 18.207 14.0689 18.207C15.1287 18.207 16.1451 18.628 16.8945 19.3773L17.3793 19.8621L16.5517 20.6897H11.5861Z" fill="#C8414B"/>
<path d="M14.069 20.2757C14.2976 20.2757 14.4828 20.0905 14.4828 19.8619C14.4828 19.6334 14.2976 19.4481 14.069 19.4481C13.8405 19.4481 13.6552 19.6334 13.6552 19.8619C13.6552 20.0905 13.8405 20.2757 14.069 20.2757Z" fill="#FFD250"/>
<path d="M12.4133 20.2757C12.6419 20.2757 12.8271 20.0905 12.8271 19.8619C12.8271 19.6334 12.6419 19.4481 12.4133 19.4481C12.1848 19.4481 11.9995 19.6334 11.9995 19.8619C11.9995 20.0905 12.1848 20.2757 12.4133 20.2757Z" fill="#FFD250"/>
<path d="M15.7236 20.2757C15.9521 20.2757 16.1374 20.0905 16.1374 19.8619C16.1374 19.6334 15.9521 19.4481 15.7236 19.4481C15.495 19.4481 15.3098 19.6334 15.3098 19.8619C15.3098 20.0905 15.495 20.2757 15.7236 20.2757Z" fill="#FFD250"/>
<path d="M10.7586 24.0001H6.62051V24.8277H10.7586V24.0001Z" fill="#C8414B"/>
<path d="M6.62064 27.3104L9.10332 26.4828V25.6552L6.62064 26.4828V27.3104Z" fill="#C8414B"/>
</svg>
