<svg width="48" height="48" viewBox="0 0 48 48" fill="none" xmlns="http://www.w3.org/2000/svg">
<path d="M47.9999 18.7583H0V9.10314C0 8.64611 0.370593 8.27551 0.827623 8.27551H47.1724C47.6294 8.27551 48 8.64611 48 9.10314L47.9999 18.7583Z" fill="#73AF00"/>
<path d="M47.1723 39.724H0.827623C0.370593 39.724 0 39.3534 0 38.8964V29.2413H47.9999V38.8964C47.9999 39.3535 47.6293 39.724 47.1723 39.724Z" fill="#FF4B55"/>
<path d="M47.9999 18.7587H0V29.2408H47.9999V18.7587Z" fill="#FFE15A"/>
<path d="M33.9321 24.009C33.9321 29.4864 29.4851 33.9413 23.9998 33.9413C18.5145 33.9413 14.0675 29.4864 14.0675 24.009C14.0675 18.5158 18.5145 14.0688 23.9998 14.0688C29.4851 14.0688 33.9321 18.5158 33.9321 24.009Z" fill="#4173CD"/>
<path d="M16.4457 21.5121H22.2165L23.5224 17.4933L23.8692 18.5713L21.9728 24.4134L21.4078 24.0013L21.9986 22.1861H17.3574L16.4457 21.5121ZM19.329 30.3982L21.1126 24.9129L17.6943 22.4237H18.8218L23.79 26.0306L23.2253 26.4427L21.6776 25.317L20.2408 29.7403L19.329 30.3982ZM28.6708 30.3982L24 27.0057L20.5836 29.4867L20.9324 28.4246L25.8967 24.8098L26.1087 25.4756L24.5649 26.5933L28.3202 29.3282L28.6708 30.3982ZM31.5542 21.5121L26.8872 24.9128L28.1933 28.9318L27.2817 28.2658L25.3871 22.4236H26.0807L26.6712 24.2469L30.4286 21.512H31.5541V21.5121H31.5542ZM24 16.0268L25.7836 21.5121H30.0106L29.097 22.1861H22.9576L23.1737 21.5121H25.0879L23.6512 17.0969L24 16.0268Z" fill="#F2DD30"/>
<path d="M24.1662 31.9523H23.8353V27.6481H24.1662V31.9523ZM31.5046 26.6094L27.4123 25.2857L27.5155 24.9766L31.6097 26.3003L31.5046 26.6094ZM16.4931 26.6094L16.39 26.3003L20.4861 24.9766L20.5874 25.2857L16.4931 26.6094ZM26.2769 21.1557L26.0072 20.9656L28.538 17.4856L28.8016 17.6759L26.2769 21.1557ZM21.7288 21.1557L19.194 17.6759L19.4617 17.4856L21.9904 20.9656L21.7288 21.1557Z" fill="#F2DD30"/>
</svg>
