<svg width="48" height="48" viewBox="0 0 48 48" fill="none" xmlns="http://www.w3.org/2000/svg">
<path d="M47.1723 39.7242H0.827623C0.370593 39.7242 0 39.3536 0 38.8966V9.10362C0 8.64659 0.370593 8.276 0.827623 8.276H47.1724C47.6294 8.276 48 8.64659 48 9.10362V38.8966C47.9999 39.3537 47.6293 39.7242 47.1723 39.7242Z" fill="#41479B"/>
<path d="M23.1723 8.276H21.7349L14.0689 13.2985V8.276H9.93101V13.2985L2.26509 8.276H0.827623C0.370593 8.276 0 8.64659 0 9.10362V9.76006L6.57702 14.0691H0V18.207H6.57702L0 22.5161V23.1725C0 23.6295 0.370593 24.0001 0.827623 24.0001H2.26509L9.93101 18.9776V24.0001H14.0689V18.9776L21.7348 24.0001H23.1722C23.6293 24.0001 23.9999 23.6295 23.9999 23.1725V22.516L17.4229 18.207H23.9999V14.0691H17.4228L23.9999 9.76006V9.10362C23.9999 8.64659 23.6295 8.276 23.1723 8.276Z" fill="white"/>
<path d="M23.9999 14.8967H13.2413V8.276H10.7585V14.8967H0V17.3794H10.7585V24.0001H13.2413V17.3794H23.9999V14.8967Z" fill="#FF4B55"/>
<path d="M9.10339 14.0689L0.394405 8.41571C0.162656 8.56243 0 8.8088 0 9.10346V9.1464L7.58333 14.0689H9.10339Z" fill="#FF4B55"/>
<path d="M15.5892 14.0691L23.8742 8.69103C23.7302 8.44738 23.4761 8.276 23.1725 8.276H22.9935L14.0691 14.0691H15.5892Z" fill="#FF4B55"/>
<path d="M8.38813 18.2068L0.118927 23.5746C0.26152 23.8242 0.51952 23.9999 0.827582 23.9999H0.983675L9.90819 18.2068H8.38813Z" fill="#FF4B55"/>
<path d="M23.9867 23.2375L16.2368 18.207H14.7169L23.5174 23.9195C23.7812 23.7972 23.9619 23.5408 23.9867 23.2375Z" fill="#FF4B55"/>
<path d="M31.0036 33.0367L30.6152 32.1303L30.8093 32.5835L30.6129 32.1314C30.6948 32.0953 32.6173 31.2182 32.6173 28.6389H33.6034C33.6034 31.8851 31.1098 32.9911 31.0036 33.0367Z" fill="#E67346"/>
<path d="M31.3894 30.8311L30.6921 30.1339C32.0252 28.8009 32.7179 28.4352 32.7925 28.3978L33.2336 29.2799L33.013 28.8388L33.2374 29.278C33.2311 29.2813 32.6067 29.6138 31.3894 30.8311Z" fill="#EB7D4B"/>
<path d="M41.137 33.0367L41.5254 32.1303L41.3312 32.5835L41.5276 32.1314C41.4458 32.0953 39.5232 31.2182 39.5232 28.6389H38.5371C38.5371 31.8851 41.0307 32.9911 41.137 33.0367Z" fill="#E67346"/>
<path d="M40.7513 30.8311L41.4485 30.1339C40.1155 28.8009 39.4228 28.4352 39.3481 28.3978L38.907 29.2799L39.1276 28.8388L38.9033 29.278C38.9095 29.2813 39.5339 29.6138 40.7513 30.8311Z" fill="#EB7D4B"/>
<path d="M36.069 15.8188H30.8096C30.8096 15.8188 30.8096 22.0645 30.8096 23.7081C30.8096 25.3516 31.1383 29.625 36.069 31.2685C40.9998 29.6249 41.3285 25.3516 41.3285 23.7081C41.3285 22.0645 41.3285 15.8188 41.3285 15.8188H36.069Z" fill="#4173CD"/>
<path d="M38.3699 17.791H35.5439C35.2453 17.791 34.9557 17.6894 34.7225 17.5029L33.6192 16.6202C33.5026 16.527 33.3578 16.4761 33.2085 16.4761H33.1104C32.7473 16.4761 32.453 16.7704 32.453 17.1334H31.96C31.6878 17.1334 31.467 17.3542 31.467 17.6265C31.467 17.8987 31.6878 18.1195 31.96 18.1195H32.453C32.6346 18.1195 32.7818 18.2667 32.7818 18.4483V20.0919C32.7818 20.7039 33.2018 21.2137 33.768 21.3603V22.3929H34.4254L34.6719 21.4068H37.7126L38.0414 21.7355V22.3929H38.3702V21.4068H38.6989V22.3929H39.0277V21.3156C39.2235 21.2017 39.3565 20.9922 39.3565 20.7494V18.7771C39.356 18.2326 38.9146 17.791 38.3699 17.791Z" fill="#C8C8C8"/>
<path d="M32.4529 22.0645L33.1104 24.0367H39.0274L39.6847 22.0645H32.4529Z" fill="#73AF00"/>
<path d="M39.5709 23.3793C38.6945 23.3793 38.6945 24.0367 37.8181 24.0367C36.942 24.0367 36.942 23.3793 36.0658 23.3793C35.1898 23.3793 35.1898 24.0367 34.3137 24.0367C33.4375 24.0367 33.4375 23.3793 32.5611 23.3793C31.6867 23.3793 31.6844 24.0337 30.8138 24.0365C30.8244 24.4027 30.8557 24.8505 30.9366 25.3455C31.6858 25.2843 31.7303 24.6943 32.5612 24.6943C33.4375 24.6943 33.4375 25.3516 34.3138 25.3516C35.1898 25.3516 35.1898 24.6943 36.0659 24.6943C36.942 24.6943 36.942 25.3516 37.8182 25.3516C38.6946 25.3516 38.6946 24.6943 39.571 24.6943C40.4041 24.6943 40.4479 25.2855 41.2008 25.3456C41.2816 24.8507 41.313 24.4028 41.3236 24.0366C40.4488 24.0351 40.4477 23.3793 39.5709 23.3793Z" fill="white"/>
<path d="M39.5708 24.6943C38.6944 24.6943 38.6944 25.3517 37.818 25.3517C36.9419 25.3517 36.9419 24.6943 36.0657 24.6943C35.1897 24.6943 35.1897 25.3517 34.3136 25.3517C33.4374 25.3517 33.4374 24.6943 32.561 24.6943C31.7301 24.6943 31.6857 25.2844 30.9364 25.3456C31.0007 25.7396 31.0974 26.1633 31.2387 26.5988C31.7182 26.4313 31.8582 26.0091 32.5609 26.0091C33.4372 26.0091 33.4372 26.6665 34.3136 26.6665C35.1896 26.6665 35.1896 26.0091 36.0656 26.0091C36.9417 26.0091 36.9417 26.6665 37.8179 26.6665C38.6943 26.6665 38.6943 26.0091 39.5707 26.0091C40.2759 26.0091 40.4154 26.433 40.8978 26.5998C41.0394 26.164 41.136 25.7399 41.2005 25.3457C40.4478 25.2855 40.404 24.6943 39.5708 24.6943Z" fill="#4173CD"/>
<path d="M39.5711 26.0089C38.6948 26.0089 38.6948 26.6662 37.8184 26.6662C36.9423 26.6662 36.9423 26.0089 36.0661 26.0089C35.1901 26.0089 35.1901 26.6662 34.314 26.6662C33.4378 26.6662 33.4378 26.0089 32.5614 26.0089C31.8586 26.0089 31.7187 26.431 31.2392 26.5985C31.3526 26.9477 31.4961 27.3042 31.6756 27.6595C31.8979 27.4928 32.1169 27.3237 32.5614 27.3237C33.4377 27.3237 33.4377 27.9811 34.314 27.9811C35.19 27.9811 35.19 27.3237 36.0661 27.3237C36.9422 27.3237 36.9422 27.9811 37.8184 27.9811C38.6948 27.9811 38.6948 27.3237 39.5711 27.3237C40.0181 27.3237 40.2376 27.4941 40.4612 27.6616C40.6411 27.3059 40.7848 26.949 40.8983 26.5996C40.4158 26.4328 40.2765 26.0089 39.5711 26.0089Z" fill="white"/>
<path d="M39.5709 27.3239C38.6945 27.3239 38.6945 27.9813 37.8182 27.9813C36.9421 27.9813 36.9421 27.3239 36.0659 27.3239C35.1899 27.3239 35.1899 27.9813 34.3138 27.9813C33.4375 27.9813 33.4375 27.3239 32.5611 27.3239C32.1168 27.3239 31.8976 27.4929 31.6754 27.6597C31.8465 27.9983 32.051 28.3353 32.2953 28.6633C32.3748 28.6483 32.4617 28.6389 32.5611 28.6389C33.4374 28.6389 33.4374 29.2963 34.3138 29.2963C35.1898 29.2963 35.1898 28.6389 36.0659 28.6389C36.942 28.6389 36.942 29.2963 37.8182 29.2963C38.6945 29.2963 38.6945 28.6389 39.5709 28.6389C39.6722 28.6389 39.7608 28.6485 39.8416 28.664C40.0856 28.3365 40.29 28 40.461 27.6619C40.2375 27.4944 40.018 27.3239 39.5709 27.3239Z" fill="#4173CD"/>
<path d="M39.8417 28.6638C39.7611 28.6484 39.6725 28.6388 39.5711 28.6388C38.6947 28.6388 38.6947 29.2962 37.8183 29.2962C36.9422 29.2962 36.9422 28.6388 36.0661 28.6388C35.1901 28.6388 35.1901 29.2962 34.314 29.2962C33.4377 29.2962 33.4377 28.6388 32.5613 28.6388C32.4619 28.6388 32.375 28.6482 32.2955 28.6632C32.8283 29.3783 33.5509 30.0489 34.5289 30.5944C35.1949 30.4962 35.269 29.9536 36.0659 29.9536C36.8646 29.9536 36.9372 30.4985 37.6073 30.595C38.5859 30.0496 39.3088 29.3791 39.8417 28.6638Z" fill="white"/>
<path d="M36.2331 23.3795H35.9043V28.9679H36.2331V23.3795Z" fill="#FF965A"/>
<path d="M37.0546 24.201H35.0822V24.5298H37.0546V24.201Z" fill="#FF965A"/>
<path d="M37.0546 26.1733H35.0822V26.5021H37.0546V26.1733Z" fill="#FF965A"/>
<path d="M37.0546 24.5287H35.0822V25.829H37.0546V24.5287Z" fill="#FFE15A"/>
<path d="M35.9046 23.3793V24.0368L34.9185 23.7081L35.9046 23.3793Z" fill="#FF4B55"/>
<path d="M38.4251 23.3795H38.0963V27.2419H38.4251V23.3795Z" fill="#FF965A"/>
<path d="M39.2466 24.201H37.2741V24.5298H39.2466V24.201Z" fill="#FF965A"/>
<path d="M39.2466 26.1733H37.2741V26.5021H39.2466V26.1733Z" fill="#FF965A"/>
<path d="M39.2466 24.5287H37.2741V25.829H39.2466V24.5287Z" fill="#FFE15A"/>
<path d="M38.096 23.3793V24.0368L37.1099 23.7081L38.096 23.3793Z" fill="#FF4B55"/>
<path d="M34.0281 23.3795H33.6993V27.2143H34.0281V23.3795Z" fill="#FF965A"/>
<path d="M34.8504 24.201H32.8779V24.5298H34.8504V24.201Z" fill="#FF965A"/>
<path d="M34.8504 26.1733H32.8779V26.5021H34.8504V26.1733Z" fill="#FF965A"/>
<path d="M34.8504 24.5287H32.8779V25.829H34.8504V24.5287Z" fill="#FFE15A"/>
<path d="M33.6995 23.3793V24.0368L32.7133 23.7081L33.6995 23.3793Z" fill="#FF4B55"/>
<path d="M37.7122 26.9952C37.7122 27.9014 36.9749 28.6388 36.0686 28.6388C35.1623 28.6388 34.425 27.9015 34.425 26.9952H34.0962H33.7702L31.5439 26.4924L31.4714 26.8131L32.4527 27.0348V27.3239L33.1762 27.6132C33.4613 28.9486 34.6493 29.9535 36.0685 29.9535C37.4736 29.9535 38.6507 28.9679 38.9508 27.6525H40.013V26.6663L37.7122 26.9952Z" fill="#FF965A"/>
<path d="M41.3284 15.8187C41.3284 15.8187 41.3284 22.0644 41.3284 23.708C41.3284 25.3515 40.9996 29.6249 36.0689 31.2684C31.1381 29.6248 30.8094 25.3515 30.8094 23.708C30.8094 22.0644 30.8094 15.8187 30.8094 15.8187H36.0689H41.3284ZM41.657 15.4901H41.3282H36.0688H30.8093H30.4805V15.8188V23.7081C30.4805 27.6058 32.4283 30.4015 35.9648 31.5804L36.0688 31.6151L36.1727 31.5804C39.7094 30.4015 41.657 27.6057 41.657 23.7081V15.8188V15.4901Z" fill="white"/>
<path d="M36.0689 32.9122C33.6495 32.9122 31.4057 32.1017 30.067 30.744L31.0031 29.8208C32.1001 30.933 33.994 31.5973 36.069 31.5973C38.1441 31.5973 40.0379 30.9331 41.135 29.8208L42.0711 30.744C40.7322 32.1016 38.4884 32.9122 36.0689 32.9122Z" fill="#FF965A"/>
</svg>
