<svg width="48" height="48" viewBox="0 0 48 48" fill="none" xmlns="http://www.w3.org/2000/svg">
<path d="M47.1723 39.7242H0.827623C0.370593 39.7242 0 39.3536 0 38.8965V9.1035C0 8.64647 0.370593 8.27588 0.827623 8.27588H47.1724C47.6294 8.27588 48 8.64647 48 9.1035V38.8965C47.9999 39.3537 47.6293 39.7242 47.1723 39.7242Z" fill="#82AFFF"/>
<path d="M23.891 12.8034L23.2534 14.7151L21.2383 14.7308C21.1278 14.7316 21.082 14.8726 21.1709 14.9384L22.792 16.1354L22.1841 18.0568C22.1508 18.162 22.2708 18.2493 22.3606 18.185L24 17.0131L25.6396 18.185C25.7295 18.2492 25.8494 18.1621 25.816 18.0568L25.2081 16.1354L26.8292 14.9384C26.9181 14.8727 26.8723 14.7317 26.7618 14.7308L24.7467 14.7151L24.1091 12.8034C24.0742 12.6987 23.9259 12.6987 23.891 12.8034Z" fill="white"/>
<path d="M23.891 29.8718L23.2534 31.7835L21.2383 31.7992C21.1278 31.8 21.082 31.941 21.1709 32.0067L22.792 33.2038L22.1841 35.1251C22.1508 35.2304 22.2708 35.3177 22.3606 35.2534L24 34.0815L25.6396 35.2534C25.7295 35.3176 25.8494 35.2305 25.816 35.1251L25.2081 33.2038L26.8292 32.0067C26.9181 31.9411 26.8723 31.8001 26.7618 31.7992L24.7467 31.7835L24.1091 29.8718C24.0742 29.7669 23.9259 29.7669 23.891 29.8718Z" fill="white"/>
<path d="M35.1967 23.8909L33.2849 23.2533L33.2693 21.2382C33.2684 21.1278 33.1274 21.0819 33.0617 21.1708L31.8646 22.7919L29.9433 22.184C29.838 22.1508 29.7508 22.2707 29.8151 22.3605L30.9869 23.9999L29.8151 25.6395C29.7508 25.7294 29.8379 25.8493 29.9433 25.8159L31.8646 25.208L33.0617 26.8291C33.1273 26.918 33.2683 26.8722 33.2693 26.7617L33.2849 24.7466L35.1967 24.109C35.3014 24.0741 35.3014 23.9258 35.1967 23.8909Z" fill="white"/>
<path d="M12.8034 23.8909L14.7151 23.2533L14.7308 21.2382C14.7316 21.1278 14.8726 21.0819 14.9383 21.1708L16.1354 22.7919L18.0567 22.184C18.162 22.1508 18.2493 22.2707 18.185 22.3605L17.0131 24L18.185 25.6395C18.2492 25.7295 18.1621 25.8494 18.0567 25.816L16.1354 25.2081L14.9383 26.8292C14.8727 26.9181 14.7317 26.8723 14.7308 26.7618L14.7151 24.7467L12.8034 24.1091C12.6986 24.0741 12.6986 23.9258 12.8034 23.8909Z" fill="white"/>
</svg>
