<svg width="48" height="48" viewBox="0 0 48 48" fill="none" xmlns="http://www.w3.org/2000/svg">
<g clip-path="url(#clip0_2751_28073)">
<path d="M48 8.00024H0V39.9998H48V8.00024Z" fill="black"/>
<g clip-path="url(#clip1_2751_28073)">
<path d="M17.0496 15.0492C16.6207 15.1899 16.3043 15.5801 16.2445 16.0406L16.2234 16.2235L16.0336 16.2481C15.6398 16.2973 15.2566 16.575 15.0949 16.9301C14.9789 17.1762 14.9859 17.591 15.109 17.8477C15.225 18.0903 15.4183 18.2836 15.668 18.4102C15.9914 18.5719 16.1918 18.6035 16.8316 18.6L17.4187 18.593L18.0937 19.2715L18.7723 19.95L18.6422 20.2699C18.368 20.9414 18.2836 21.525 18.3152 22.4883C18.3398 23.1914 18.4207 23.7188 18.6105 24.4219C18.7336 24.8789 18.7371 24.9035 18.6949 25.1531C18.6457 25.4766 18.5648 25.6664 18.3539 25.9442C18.0797 26.3133 17.9883 26.5594 17.9812 26.9461C17.9742 27.4031 18.1394 27.716 18.5051 27.9516L18.7301 28.0922L18.0691 28.7567L17.4082 29.4176L16.9863 29.393C15.9914 29.3403 15.3762 29.5899 15.109 30.1524C15.0351 30.3106 15.0176 30.3949 15.0176 30.627C15.0211 30.8625 15.0351 30.9399 15.1195 31.1086C15.2883 31.4496 15.6855 31.7309 16.0019 31.7344C16.0793 31.7344 16.1637 31.7485 16.1883 31.766C16.2129 31.7801 16.248 31.8891 16.2656 32.0051C16.3183 32.3953 16.5504 32.7153 16.8914 32.884C17.1726 33.0211 17.5664 33.0246 17.8476 32.891C18.4101 32.6239 18.6598 32.0086 18.6035 31.0137L18.5824 30.5918L19.616 29.5582C20.7726 28.4051 20.6637 28.4684 20.7937 28.8867C20.8816 29.1785 20.9625 29.611 21.0117 30.0821C21.0644 30.5672 21.1629 30.7852 21.3773 30.8871C21.8414 31.1121 21.9996 30.866 22.1191 29.7199C22.1402 29.5477 22.1578 29.509 22.2246 29.4774C22.4039 29.3965 22.4883 29.5969 22.4883 30.1031C22.4883 30.4617 22.5515 30.6973 22.6816 30.8203C22.7836 30.9188 23.0508 30.968 23.1668 30.9117C23.3285 30.8309 23.4586 30.4196 23.5254 29.7586C23.5535 29.516 23.6449 29.3754 23.7433 29.4352C23.8101 29.4774 23.8277 29.5371 23.9086 30.0504C23.9719 30.4442 24.0738 30.743 24.2004 30.8906C24.2742 30.9821 24.3129 30.9961 24.4605 30.9961C24.6012 30.9961 24.6504 30.9785 24.7558 30.8871C24.907 30.7535 24.9703 30.5496 24.9984 30.0926C25.0301 29.6672 25.118 29.4176 25.2375 29.4141C25.3078 29.4141 25.3746 29.6602 25.4062 30.0539C25.4519 30.5918 25.4906 30.736 25.6172 30.8625C25.7508 30.9926 25.9336 30.9961 26.1023 30.8696C26.3308 30.6938 26.5277 30.1172 26.5312 29.625C26.5312 29.1399 26.6648 28.6617 26.8547 28.4473C27.0551 28.2153 26.9918 28.1696 28.2609 29.4352L29.4176 30.5918L29.3965 31.0137C29.3402 32.0086 29.5898 32.6239 30.1523 32.891C30.4336 33.0246 30.8273 33.0211 31.1086 32.884C31.4496 32.7153 31.6746 32.4024 31.7379 32.0051C31.759 31.8856 31.7765 31.7871 31.7801 31.7801C31.7871 31.7766 31.8855 31.759 32.0051 31.7379C32.4023 31.6746 32.7117 31.4531 32.8805 31.1086C32.9648 30.9399 32.9789 30.8625 32.9824 30.627C32.9824 30.3949 32.9648 30.3106 32.891 30.1524C32.6238 29.5899 32.0051 29.3403 31.0172 29.3965L30.5988 29.4211L29.85 28.6723L29.1012 27.9235L29.2101 27.7863C29.4351 27.5051 29.516 26.9496 29.3965 26.5383C29.3402 26.3485 29.1609 26.011 29.0133 25.8176C28.8199 25.5645 28.7988 24.5168 28.9676 23.7891C29.1117 23.1844 29.1433 22.8891 29.1433 22.2774C29.1433 21.6199 29.1012 21.2684 28.957 20.7129L28.8551 20.3262L29.7199 19.4578L30.5848 18.593L31.1683 18.5965C31.8082 18.6035 32.0086 18.5719 32.332 18.4102C32.5816 18.2836 32.775 18.0903 32.891 17.8477C32.9648 17.6895 32.9824 17.6051 32.9824 17.3731C32.9789 17.1375 32.9648 17.0602 32.8805 16.8914C32.7117 16.5434 32.3531 16.2938 31.9594 16.2446C31.7625 16.2199 31.7344 16.1883 31.7344 15.9633C31.7344 15.8051 31.541 15.4465 31.3758 15.2988C31.1473 15.0914 30.9539 15.0176 30.6269 15.0176C30.3949 15.0176 30.3105 15.0352 30.1523 15.109C29.5898 15.3762 29.3402 15.9914 29.3965 16.9863L29.4176 17.4082L28.7215 18.1043L28.0219 18.8004L27.723 18.5086C26.7281 17.5383 25.3992 17.0742 23.6203 17.0742C22.1121 17.0742 20.8465 17.5067 19.9676 18.3188L19.7215 18.5473L19.1519 17.9742L18.5789 17.4012L18.6035 16.9828C18.6598 15.9985 18.4101 15.3727 17.8512 15.1125C17.6226 15.0071 17.2676 14.9789 17.0496 15.0492ZM21.648 23.8524C22.1648 23.9965 22.6043 24.3516 22.8152 24.7981C22.9172 25.016 22.9277 25.0688 22.9277 25.3711C22.9277 25.6699 22.9172 25.7262 22.8258 25.916C22.3476 26.8934 20.8887 27.0656 20.0133 26.25C19.1414 25.4344 19.4789 24.1793 20.6601 23.8418C20.8992 23.7715 21.3773 23.7785 21.648 23.8524ZM26.7457 23.8524C27.5859 24.0844 28.0324 24.8156 27.8004 25.575C27.5754 26.3133 26.7351 26.8406 25.8984 26.7633C25.4519 26.7246 25.0723 26.5489 24.8015 26.2571C24.5941 26.0356 24.5062 25.8598 24.457 25.5715C24.3269 24.8297 24.9 24.0703 25.7578 23.8453C26.032 23.7715 26.468 23.775 26.7457 23.8524ZM23.9683 26.2395C24.3726 26.6613 24.5273 26.9461 24.5273 27.2731C24.5273 27.5613 24.4113 27.7582 24.1863 27.8531C24.0562 27.9094 23.9297 27.8742 23.7996 27.7547L23.7187 27.6809L23.6414 27.7547C23.5219 27.8637 23.3883 27.9024 23.2617 27.8672C23.114 27.825 23.0613 27.7758 22.9734 27.6106C22.8328 27.3293 22.8961 26.9567 23.1527 26.5946C23.2758 26.4188 23.6695 26.0039 23.7117 26.0039C23.7293 26.0039 23.8453 26.1094 23.9683 26.2395Z" fill="white"/>
</g>
</g>
<defs>
<clipPath id="clip0_2751_28073">
<rect y="8" width="48" height="32" rx="1" fill="white"/>
</clipPath>
<clipPath id="clip1_2751_28073">
<rect width="18" height="18" fill="white" transform="translate(15 15)"/>
</clipPath>
</defs>
</svg>
