<svg width="48" height="48" viewBox="0 0 48 48" fill="none" xmlns="http://www.w3.org/2000/svg">
<path d="M47.1723 39.7238H0.827623C0.370593 39.7238 0 39.3532 0 38.8962V9.10314C0 8.64611 0.370593 8.27551 0.827623 8.27551H47.1724C47.6294 8.27551 48 8.64611 48 9.10314V38.8962C47.9999 39.3533 47.6293 39.7238 47.1723 39.7238Z" fill="white"/>
<path d="M47.9999 21.517H26.4827V8.27563H21.5172V21.517H0V26.4825H21.5172V39.7238H26.4827V26.4825H47.9999V21.517Z" fill="#FF4B55"/>
<path d="M14.0688 13.7657C13.249 13.8481 12.446 13.9307 11.6418 14.0134C11.7245 13.2091 11.807 12.4061 11.8895 11.5864C11.1378 11.6836 10.3792 11.6836 9.62746 11.5864C9.70986 12.4061 9.79246 13.2092 9.87524 14.0134C9.07096 13.9308 8.2678 13.8482 7.44824 13.7657C7.54546 14.5174 7.54546 15.276 7.44824 16.0277C8.26799 15.9453 9.07105 15.8627 9.87524 15.78C9.79255 16.5843 9.70996 17.3874 9.62746 18.207C10.3792 18.1098 11.1378 18.1098 11.8895 18.207C11.8071 17.3874 11.7245 16.5842 11.6418 15.78C12.446 15.8626 13.2491 15.9452 14.0688 16.0277C13.9716 15.276 13.9716 14.5173 14.0688 13.7657Z" fill="#FF4B55"/>
<path d="M40.5516 13.7657C39.7318 13.8481 38.9288 13.9307 38.1246 14.0134C38.2073 13.2091 38.2898 12.4061 38.3724 11.5864C37.6206 11.6836 36.8621 11.6836 36.1103 11.5864C36.1927 12.4061 36.2753 13.2092 36.3581 14.0134C35.5538 13.9308 34.7506 13.8482 33.9311 13.7657C34.0283 14.5174 34.0283 15.276 33.9311 16.0277C34.7508 15.9453 35.5539 15.8627 36.3581 15.78C36.2754 16.5843 36.1928 17.3874 36.1103 18.207C36.8621 18.1098 37.6206 18.1098 38.3724 18.207C38.29 17.3874 38.2073 16.5842 38.1246 15.78C38.9289 15.8626 39.7319 15.9452 40.5516 16.0277C40.4545 15.276 40.4545 14.5173 40.5516 13.7657Z" fill="#FF4B55"/>
<path d="M14.0688 31.9725C13.249 32.0549 12.446 32.1375 11.6418 32.2201C11.7245 31.4159 11.807 30.6128 11.8895 29.7932C11.1378 29.8904 10.3792 29.8904 9.62746 29.7932C9.70986 30.6128 9.79246 31.416 9.87524 32.2201C9.07096 32.1376 8.2678 32.055 7.44824 31.9725C7.54546 32.7241 7.54546 33.4828 7.44824 34.2345C8.26799 34.1521 9.07105 34.0695 9.87524 33.9868C9.79255 34.791 9.70996 35.5941 9.62746 36.4138C10.3792 36.3165 11.1378 36.3165 11.8895 36.4138C11.8071 35.5941 11.7245 34.791 11.6418 33.9868C12.446 34.0694 13.2491 34.152 14.0688 34.2345C13.9716 33.4829 13.9716 32.7241 14.0688 31.9725Z" fill="#FF4B55"/>
<path d="M40.5516 31.9725C39.7318 32.0549 38.9288 32.1375 38.1246 32.2201C38.2073 31.4159 38.2898 30.6128 38.3724 29.7932C37.6206 29.8904 36.8621 29.8904 36.1103 29.7932C36.1927 30.6128 36.2753 31.416 36.3581 32.2201C35.5538 32.1376 34.7506 32.055 33.9311 31.9725C34.0283 32.7241 34.0283 33.4828 33.9311 34.2345C34.7508 34.1521 35.5539 34.0695 36.3581 33.9868C36.2754 34.791 36.1928 35.5941 36.1103 36.4138C36.8621 36.3165 37.6206 36.3165 38.3724 36.4138C38.29 35.5941 38.2073 34.791 38.1246 33.9868C38.9289 34.0694 39.7319 34.152 40.5516 34.2345C40.4545 33.4829 40.4545 32.7241 40.5516 31.9725Z" fill="#FF4B55"/>
</svg>
