<svg width="48" height="48" viewBox="0 0 48 48" fill="none" xmlns="http://www.w3.org/2000/svg">
<path d="M47.9999 18.7587H0V9.1035C0 8.64647 0.370593 8.27588 0.827623 8.27588H47.1724C47.6294 8.27588 48 8.64647 48 9.1035L47.9999 18.7587Z" fill="#FF4B55"/>
<path d="M47.1723 39.7242H0.827623C0.370593 39.7242 0 39.3536 0 38.8966V29.2415H47.9999V38.8966C47.9999 39.3537 47.6293 39.7242 47.1723 39.7242Z" fill="#73AF00"/>
<path d="M47.9999 18.7584H0V29.2406H47.9999V18.7584Z" fill="#FFE15A"/>
<path d="M24.3491 20.054L25.2128 22.6437L27.9426 22.6648C28.2959 22.6676 28.4426 23.1186 28.1583 23.3286L25.9623 24.9503L26.7857 27.5531C26.8924 27.89 26.5087 28.1688 26.2211 27.9632L24.0001 26.3756L21.7792 27.963C21.4918 28.1686 21.108 27.8898 21.2145 27.5529L22.0379 24.9501L19.8419 23.3284C19.5577 23.1184 19.7041 22.6675 20.0577 22.6647L22.7875 22.6435L23.6512 20.0538C23.763 19.7188 24.2372 19.7188 24.3491 20.054Z" fill="#464655"/>
</svg>
