<svg width="48" height="48" viewBox="0 0 48 48" fill="none" xmlns="http://www.w3.org/2000/svg">
<path d="M47.9999 23.9999H0V9.10336C0 8.64633 0.370593 8.27574 0.827623 8.27574H47.1724C47.6294 8.27574 48 8.64633 48 9.10336L47.9999 23.9999Z" fill="white"/>
<path d="M0 24H47.9999V38.8965C47.9999 39.3535 47.6293 39.7241 47.1723 39.7241H0.827623C0.370593 39.7241 0 39.3535 0 38.8965V24Z" fill="#FF4B55"/>
<path d="M16.5517 13.2413C10.6099 13.2413 5.79311 18.0582 5.79311 24H27.3103C27.3103 18.0582 22.4936 13.2413 16.5517 13.2413Z" fill="#FF4B55"/>
<path d="M16.5517 34.7586C22.4936 34.7586 27.3104 29.9417 27.3104 24H5.79311C5.79311 29.9418 10.61 34.7586 16.5517 34.7586Z" fill="white"/>
</svg>
