<svg width="48" height="48" viewBox="0 0 48 48" fill="none" xmlns="http://www.w3.org/2000/svg">
<path d="M47.9999 18.7588H0V9.10359C0 8.64656 0.370593 8.27597 0.827623 8.27597H47.1724C47.6294 8.27597 48 8.64656 48 9.10359L47.9999 18.7588Z" fill="#73AF00"/>
<path d="M47.1723 39.724H0.827623C0.370593 39.724 0 39.3534 0 38.8963V29.2412H47.9999V38.8963C47.9999 39.3535 47.6293 39.724 47.1723 39.724Z" fill="#FF4B55"/>
<path d="M47.9999 18.7587H0V29.2408H47.9999V18.7587Z" fill="white"/>
<path d="M12.0089 24.513C12.2463 24.2123 12.2463 23.788 12.0089 23.4873L0.218906 8.55328C0.0862498 8.7001 0 8.89022 0 9.10359V38.8966C0 39.11 0.0862498 39.3002 0.218906 39.4469L12.0089 24.513Z" fill="#4173CD"/>
<path d="M23.8013 24.7403C23.8013 24.7605 23.7947 26.706 23.2971 27.6631H24.6952C24.1976 26.7061 24.191 24.7605 24.191 24.7403C24.191 24.07 24.8858 23.5373 24.8929 23.532L24.6588 23.2206C24.6406 23.2343 24.409 23.4118 24.1911 23.7V23.1816H23.8014V23.7C23.5835 23.4118 23.3521 23.2342 23.3338 23.2206L23.0997 23.532C23.1067 23.5373 23.8013 24.0699 23.8013 24.7403Z" fill="#B46446"/>
<path d="M25.9448 22.4021C25.9329 22.4021 25.9219 22.4052 25.9101 22.4059C25.8307 22.1774 25.6157 22.0124 25.3601 22.0124C25.268 22.0124 25.182 22.0356 25.1045 22.0736C25.0219 21.9218 24.8631 21.8176 24.6782 21.8176C24.625 21.8176 24.5749 21.8283 24.527 21.8439C24.4233 21.5993 24.1811 21.4279 23.8989 21.4279C23.5519 21.4279 23.2687 21.6879 23.2257 22.0231C23.1908 22.0176 23.1558 22.0124 23.1195 22.0124C22.7428 22.0124 22.4375 22.3177 22.4375 22.6944C22.4375 22.7387 22.4425 22.7817 22.4505 22.8236C22.2779 22.8804 22.1422 23.0138 22.0826 23.185C22.0709 23.184 22.0597 23.1814 22.0478 23.1814C21.8325 23.1814 21.6581 23.356 21.6581 23.5712C21.6581 23.7864 21.8326 23.9609 22.0478 23.9609C22.1472 23.9609 22.237 23.9225 22.3058 23.8611C22.399 23.924 22.5114 23.9609 22.6324 23.9609C22.7395 23.9609 22.8384 23.93 22.9246 23.8798C23.0109 23.9299 23.1099 23.9609 23.2168 23.9609C23.5397 23.9609 23.8015 23.6991 23.8015 23.3763C23.8015 23.3515 23.7971 23.3281 23.7942 23.3042C23.885 23.3489 23.9857 23.3763 24.0939 23.3763C24.2294 23.3763 24.3549 23.3356 24.461 23.2674C24.5606 23.4476 24.7502 23.5711 24.9707 23.5711C25.0181 23.5711 25.0636 23.5639 25.1077 23.5533C25.2149 23.6822 25.3745 23.766 25.5552 23.766C25.7299 23.766 25.885 23.6879 25.992 23.5664C26.2924 23.5421 26.5296 23.2933 26.5296 22.9865C26.5293 22.6639 26.2676 22.4021 25.9448 22.4021Z" fill="#73AF00"/>
<path d="M25.3602 22.8892C25.3602 22.869 25.3644 22.8498 25.3662 22.83C25.262 22.9264 25.1238 22.9867 24.9705 22.9867C24.7669 22.9867 24.5881 22.8825 24.4834 22.7246C24.3787 22.8825 24.1998 22.9867 23.9963 22.9867C23.8397 22.9867 23.6984 22.9244 23.5934 22.8241C23.5327 23.1386 23.2567 23.3763 22.9245 23.3763C22.8908 23.3763 22.8585 23.3712 22.8262 23.3664C22.8263 23.3698 22.8272 23.373 22.8272 23.3763C22.8272 23.6311 22.6632 23.8455 22.4358 23.9256C22.4974 23.9476 22.5631 23.9609 22.6324 23.9609C22.7394 23.9609 22.8384 23.93 22.9246 23.8798C23.0109 23.9299 23.1099 23.9609 23.2168 23.9609C23.5397 23.9609 23.8014 23.6991 23.8014 23.3762C23.8014 23.3515 23.7971 23.328 23.7942 23.3041C23.885 23.3489 23.9857 23.3762 24.0939 23.3762C24.2294 23.3762 24.3548 23.3355 24.461 23.2674C24.5606 23.4476 24.7502 23.571 24.9707 23.571C25.018 23.571 25.0636 23.5639 25.1077 23.5532C25.2149 23.6821 25.3745 23.766 25.5551 23.766C25.7298 23.766 25.8848 23.6879 25.9919 23.5664L25.9931 23.5662C25.6398 23.5405 25.3602 23.249 25.3602 22.8892Z" fill="#5FA000"/>
<path d="M23.9963 28.9053C23.965 28.9053 23.9372 28.8854 23.927 28.8559C23.9196 28.834 23.7362 28.321 23.0221 28.321H22.0478C21.4702 28.321 21.0005 27.8511 21.0005 27.2737V20.8436C21.0005 20.8033 21.0333 20.7706 21.0736 20.7706H27.114C27.1543 20.7706 27.187 20.8033 27.187 20.8436V27.2737C27.187 27.8513 26.7171 28.321 26.1397 28.321H24.9706C24.2522 28.321 24.0674 28.8501 24.0657 28.8556C24.0557 28.8855 24.0279 28.9054 23.9965 28.9054L23.9963 28.9053ZM21.1465 20.9164V27.2735C21.1465 27.7704 21.5508 28.1747 22.0477 28.1747H23.022C23.6003 28.1747 23.8802 28.4853 23.9962 28.6719C24.1122 28.4851 24.3921 28.1747 24.9705 28.1747H26.1396C26.6366 28.1747 27.0408 27.7704 27.0408 27.2735V20.9164H21.1465Z" fill="#464655"/>
<path d="M23.2482 19.1059L23.4335 19.4023L23.7827 19.4144L23.6185 19.7229L23.7827 20.0314L23.4335 20.0435L23.2482 20.34L23.0631 20.0435L22.7139 20.0314L22.878 19.7229L22.7139 19.4144L23.0631 19.4023L23.2482 19.1059Z" fill="#FFE15A"/>
<path d="M21.6024 19.3745L21.8517 19.6194L22.1941 19.5496L22.1065 19.8879L22.3382 20.1496L22.0014 20.2429L21.8907 20.5743L21.6414 20.3294L21.2991 20.3992L21.3865 20.0609L21.155 19.7992L21.4917 19.7059L21.6024 19.3745Z" fill="#FFE15A"/>
<path d="M20.0229 19.842L20.3191 20.0274L20.6384 19.8853L20.626 20.2345L20.9086 20.44L20.6 20.6039L20.5634 20.9514L20.2671 20.766L19.9479 20.9081L19.9603 20.5589L19.6776 20.3534L19.9862 20.1895L20.0229 19.842Z" fill="#FFE15A"/>
<path d="M24.7516 19.1059L24.5664 19.4023L24.2172 19.4144L24.3813 19.7229L24.2172 20.0314L24.5664 20.0435L24.7516 20.34L24.9367 20.0435L25.2859 20.0314L25.1218 19.7229L25.2859 19.4144L24.9367 19.4023L24.7516 19.1059Z" fill="#FFE15A"/>
<path d="M26.3976 19.3745L26.1483 19.6194L25.8059 19.5496L25.8935 19.8879L25.6618 20.1496L25.9986 20.2429L26.1093 20.5743L26.3586 20.3294L26.7009 20.3992L26.6135 20.0609L26.845 19.7992L26.5083 19.7059L26.3976 19.3745Z" fill="#FFE15A"/>
<path d="M27.9769 19.842L27.6807 20.0274L27.3614 19.8853L27.3738 20.2345L27.0912 20.44L27.3998 20.6039L27.4364 20.9514L27.7327 20.766L28.0519 20.9081L28.0395 20.5589L28.3222 20.3534L28.0136 20.1895L27.9769 19.842Z" fill="#FFE15A"/>
</svg>
