<svg width="48" height="48" viewBox="0 0 48 48" fill="none" xmlns="http://www.w3.org/2000/svg">
<path d="M47.9999 11.7706H0V15.2646H47.9999V11.7706Z" fill="white"/>
<path d="M47.9999 18.7587H0V22.2527H47.9999V18.7587Z" fill="white"/>
<path d="M47.9999 25.7479H0V29.2419H47.9999V25.7479Z" fill="white"/>
<path d="M47.9999 29.2415H0V32.7355H47.9999V29.2415Z" fill="#41479B"/>
<path d="M47.9999 32.7355H0V36.2296H47.9999V32.7355Z" fill="white"/>
<path d="M0.827623 39.7244H47.1724C47.6294 39.7244 48 39.3538 48 38.8968V36.2301H0V38.8968C0 39.3539 0.370593 39.7244 0.827623 39.7244Z" fill="#41479B"/>
<path d="M47.9999 11.7703V9.10359C47.9999 8.64656 47.6293 8.27597 47.1723 8.27597H0.827623C0.370593 8.27606 0 8.64656 0 9.10359V15.2646V18.7587V25.7473H47.9999V22.253H16.5517V18.7588H47.9999V15.2646H16.5517V11.7703H47.9999Z" fill="#41479B"/>
<path d="M16.5517 15.2646H10.023V8.27609H6.52874V15.2646H0V18.7588H6.52874V25.7473H10.023V18.7588H16.5517V15.2646Z" fill="white"/>
</svg>
