<svg width="48" height="48" viewBox="0 0 48 48" fill="none" xmlns="http://www.w3.org/2000/svg">
<path d="M16 39.7239H0.827625C0.370594 39.7239 0 39.3533 0 38.8962V9.10314C0 8.64611 0.370594 8.27551 0.827625 8.27551H16V39.7239Z" fill="#82AFFF"/>
<path d="M32.0007 8.276H16.0004V39.7244H32.0007V8.276Z" fill="white"/>
<path d="M47.1724 39.7238H32V8.27557H47.1724C47.6294 8.27557 48 8.64617 48 9.1032V38.8963C48 39.3534 47.6294 39.7238 47.1724 39.7238Z" fill="#82AFFF"/>
<path d="M23.7913 19.885L23.3167 20.1224L23.7533 20.3026L23.7913 19.885Z" fill="#FFC855"/>
<path d="M24 28.6548C21.3623 28.6548 19.2166 26.5088 19.2166 23.8713C19.2166 22.2328 20.0413 20.7262 21.4226 19.8411L21.5454 20.0329C20.2297 20.876 19.4444 22.311 19.4444 23.8713C19.4444 26.3834 21.4881 28.427 24.0001 28.427L24 28.6548Z" fill="#73AF00"/>
<path d="M21.2625 28.9531C21.4447 28.9903 21.7259 28.9422 22.0146 28.8077C22.3035 28.6731 22.521 28.4888 22.6098 28.3254C22.4276 28.2883 22.1464 28.3363 21.8577 28.4708C21.569 28.6055 21.3513 28.7897 21.2625 28.9531Z" fill="#73AF00"/>
<path d="M22.6099 28.3254C22.6471 28.1432 22.599 27.862 22.4645 27.5733C22.3299 27.2844 22.1456 27.0669 21.9822 26.9781C21.9451 27.1603 21.9931 27.4415 22.1276 27.7302C22.2621 28.0188 22.4464 28.2365 22.6099 28.3254Z" fill="#73AF00"/>
<path d="M20.3095 28.3682C20.4844 28.4318 20.7695 28.4254 21.0749 28.3348C21.3802 28.2442 21.6227 28.0937 21.7345 27.9451C21.5597 27.8815 21.2745 27.8879 20.9691 27.9785C20.6638 28.0691 20.4214 28.2195 20.3095 28.3682Z" fill="#73AF00"/>
<path d="M21.7346 27.9449C21.7981 27.7701 21.7917 27.4849 21.7012 27.1796C21.6104 26.8741 21.4601 26.6318 21.3115 26.5199C21.2479 26.6948 21.2543 26.98 21.3448 27.2853C21.4355 27.5908 21.586 27.8332 21.7346 27.9449Z" fill="#73AF00"/>
<path d="M19.4279 27.5706C19.5885 27.6645 19.8702 27.7096 20.1869 27.6752C20.5037 27.6409 20.7691 27.5364 20.9058 27.4103C20.7452 27.3165 20.4636 27.2714 20.1468 27.3057C19.83 27.34 19.5646 27.4445 19.4279 27.5706Z" fill="#73AF00"/>
<path d="M20.9058 27.4102C20.9996 27.2496 21.0447 26.968 21.0104 26.6512C20.9761 26.3344 20.8716 26.069 20.7455 25.9323C20.6516 26.0929 20.6065 26.3745 20.6408 26.6913C20.6752 27.0081 20.7797 27.2736 20.9058 27.4102Z" fill="#73AF00"/>
<path d="M18.6992 26.4691C18.8405 26.5899 19.1098 26.6841 19.4276 26.7064C19.7454 26.7286 20.0253 26.6728 20.182 26.5729C20.0406 26.4521 19.7714 26.3579 19.4536 26.3357C19.1358 26.3134 18.856 26.3692 18.6992 26.4691Z" fill="#73AF00"/>
<path d="M20.1822 26.5729C20.3031 26.4316 20.3973 26.1623 20.4195 25.8445C20.4417 25.5267 20.3859 25.2469 20.2861 25.0901C20.1653 25.2315 20.071 25.5007 20.0488 25.8185C20.0265 26.1364 20.0823 26.4161 20.1822 26.5729Z" fill="#73AF00"/>
<path d="M18.2727 25.2558C18.3855 25.4036 18.6288 25.5524 18.9349 25.641C19.241 25.7296 19.5261 25.7339 19.7006 25.6692C19.5877 25.5214 19.3444 25.3726 19.0383 25.284C18.7322 25.1954 18.447 25.191 18.2727 25.2558Z" fill="#73AF00"/>
<path d="M19.7004 25.6693C19.8482 25.5564 19.997 25.3131 20.0856 25.007C20.1743 24.7009 20.1785 24.4158 20.1138 24.2414C19.9659 24.3542 19.8172 24.5975 19.7286 24.9036C19.64 25.2098 19.6358 25.4948 19.7004 25.6693Z" fill="#73AF00"/>
<path d="M18.0921 23.8391C18.1632 24.011 18.3601 24.2173 18.6331 24.3817C18.9061 24.5461 19.1805 24.6236 19.3657 24.6059C19.2946 24.434 19.0978 24.2277 18.8248 24.0633C18.5519 23.8989 18.2773 23.8216 18.0921 23.8391Z" fill="#73AF00"/>
<path d="M19.3657 24.6059C19.5377 24.5348 19.7439 24.3379 19.9083 24.0649C20.0727 23.7919 20.1502 23.5175 20.1325 23.3323C19.9606 23.4033 19.7543 23.6002 19.5899 23.8732C19.4256 24.1463 19.348 24.4207 19.3657 24.6059Z" fill="#73AF00"/>
<path d="M18.2633 22.5015C18.2967 22.6845 18.446 22.9275 18.6784 23.1455C18.9108 23.3635 19.1631 23.4967 19.3477 23.5183C19.3143 23.3353 19.165 23.0923 18.9326 22.8744C18.7001 22.6565 18.4481 22.5231 18.2633 22.5015Z" fill="#73AF00"/>
<path d="M19.3478 23.5185C19.5308 23.4851 19.7738 23.3357 19.9917 23.1033C20.2097 22.8709 20.3429 22.6186 20.3646 22.4341C20.1816 22.4674 19.9386 22.6168 19.7206 22.8492C19.5027 23.0815 19.3692 23.3336 19.3478 23.5185Z" fill="#73AF00"/>
<path d="M18.9354 21.0543C18.8972 21.2363 18.9434 21.5177 19.0761 21.8074C19.2089 22.0971 19.3919 22.3158 19.5547 22.4057C19.593 22.2238 19.5467 21.9423 19.414 21.6526C19.2812 21.3629 19.0983 21.144 18.9354 21.0543Z" fill="#73AF00"/>
<path d="M19.5543 22.4057C19.7363 22.444 20.0177 22.3978 20.3074 22.265C20.5971 22.1323 20.8158 21.9493 20.9057 21.7864C20.7237 21.7482 20.4423 21.7944 20.1526 21.9272C19.8629 22.0599 19.6441 22.2429 19.5543 22.4057Z" fill="#73AF00"/>
<path d="M19.7388 19.9825C19.653 20.1475 19.6218 20.431 19.6718 20.7457C19.7218 21.0604 19.8392 21.3204 19.9719 21.4506C20.0577 21.2856 20.0888 21.002 20.0389 20.6874C19.9889 20.3727 19.8714 20.1128 19.7388 19.9825Z" fill="#73AF00"/>
<path d="M19.9718 21.4507C20.1368 21.5365 20.4204 21.5676 20.735 21.5176C21.0497 21.4677 21.3097 21.3503 21.4399 21.2175C21.2749 21.1318 20.9913 21.1006 20.6767 21.1506C20.362 21.2006 20.102 21.318 19.9718 21.4507Z" fill="#73AF00"/>
<path d="M20.5267 19.2365C20.4176 19.3872 20.345 19.6629 20.3481 19.9815C20.3512 20.3002 20.4291 20.5745 20.5411 20.7229C20.6503 20.5723 20.7228 20.2965 20.7197 19.9779C20.7167 19.6593 20.6388 19.3848 20.5267 19.2365Z" fill="#73AF00"/>
<path d="M20.5411 20.7229C20.6918 20.832 20.9675 20.9046 21.2861 20.9015C21.6048 20.8984 21.8791 20.8205 22.0275 20.7085C21.8769 20.5993 21.6011 20.5268 21.2825 20.5299C20.9639 20.533 20.6896 20.611 20.5411 20.7229Z" fill="#73AF00"/>
<path d="M20.9233 20.3322C21.1087 20.3472 21.3821 20.2659 21.6527 20.0976C21.9233 19.9294 22.1173 19.7203 22.1859 19.5475C22.0006 19.5325 21.7271 19.6138 21.4566 19.782C21.186 19.9501 20.992 20.1592 20.9233 20.3322Z" fill="#73AF00"/>
<path d="M24 28.6547V28.4269C26.5119 28.4269 28.5557 26.3833 28.5557 23.8712C28.5557 22.3108 27.7703 20.8758 26.4547 20.0328L26.5775 19.841C27.9588 20.7261 28.7835 22.2328 28.7835 23.8712C28.7834 26.5087 26.6377 28.6547 24 28.6547Z" fill="#73AF00"/>
<path d="M26.7376 28.9531C26.5554 28.9903 26.2742 28.9422 25.9854 28.8077C25.6966 28.6731 25.479 28.4888 25.3902 28.3254C25.5725 28.2883 25.8536 28.3363 26.1424 28.4708C26.431 28.6055 26.6487 28.7897 26.7376 28.9531Z" fill="#73AF00"/>
<path d="M25.3901 28.3254C25.353 28.1432 25.4011 27.862 25.5355 27.5733C25.6702 27.2844 25.8545 27.0669 26.0179 26.9781C26.055 27.1603 26.0069 27.4415 25.8725 27.7302C25.7379 28.0188 25.5536 28.2365 25.3901 28.3254Z" fill="#73AF00"/>
<path d="M27.6907 28.3682C27.5158 28.4318 27.2306 28.4254 26.9253 28.3348C26.6199 28.2442 26.3775 28.0937 26.2657 27.9451C26.4405 27.8815 26.7257 27.8879 27.031 27.9785C27.3364 28.0691 27.5788 28.2195 27.6907 28.3682Z" fill="#73AF00"/>
<path d="M26.2653 27.9449C26.2018 27.7701 26.2081 27.4849 26.2987 27.1796C26.3894 26.8741 26.5398 26.6318 26.6884 26.5199C26.752 26.6948 26.7456 26.98 26.655 27.2853C26.5645 27.5908 26.414 27.8332 26.2653 27.9449Z" fill="#73AF00"/>
<path d="M28.5722 27.5706C28.4116 27.6645 28.13 27.7096 27.8132 27.6752C27.4964 27.6409 27.231 27.5364 27.0943 27.4103C27.2549 27.3165 27.5365 27.2714 27.8533 27.3057C28.1701 27.34 28.4355 27.4445 28.5722 27.5706Z" fill="#73AF00"/>
<path d="M27.0945 27.4102C27.0006 27.2496 26.9555 26.968 26.9898 26.6512C27.0242 26.3344 27.1287 26.069 27.2548 25.9323C27.3486 26.0929 27.3937 26.3745 27.3594 26.6913C27.3251 27.0081 27.2206 27.2736 27.0945 27.4102Z" fill="#73AF00"/>
<path d="M29.3007 26.4691C29.1594 26.5899 28.8901 26.6841 28.5723 26.7064C28.2545 26.7286 27.9747 26.6728 27.8179 26.5729C27.9593 26.4521 28.2285 26.3579 28.5463 26.3357C28.8641 26.3134 29.1439 26.3692 29.3007 26.4691Z" fill="#73AF00"/>
<path d="M27.818 26.5729C27.6972 26.4316 27.6029 26.1623 27.5807 25.8445C27.5585 25.5267 27.6143 25.2469 27.7141 25.0901C27.835 25.2315 27.9292 25.5007 27.9514 25.8185C27.9737 26.1364 27.9179 26.4161 27.818 26.5729Z" fill="#73AF00"/>
<path d="M29.7275 25.2558C29.6146 25.4036 29.3714 25.5524 29.0653 25.641C28.7593 25.7297 28.4741 25.7339 28.2996 25.6692C28.4125 25.5214 28.6558 25.3726 28.9619 25.284C29.2679 25.1954 29.5531 25.191 29.7275 25.2558Z" fill="#73AF00"/>
<path d="M28.2997 25.6693C28.1519 25.5564 28.0031 25.3131 27.9145 25.007C27.8258 24.7009 27.8216 24.4158 27.8863 24.2414C28.0341 24.3542 28.1829 24.5975 28.2715 24.9036C28.3601 25.2098 28.3643 25.4948 28.2997 25.6693Z" fill="#73AF00"/>
<path d="M29.9079 23.8391C29.8368 24.011 29.6399 24.2173 29.3669 24.3817C29.0939 24.5461 28.8195 24.6236 28.6343 24.6059C28.7053 24.434 28.9022 24.2277 29.1752 24.0633C29.4481 23.8989 29.7227 23.8216 29.9079 23.8391Z" fill="#73AF00"/>
<path d="M28.6344 24.6059C28.4624 24.5348 28.2562 24.3379 28.0917 24.0649C27.9274 23.7919 27.8499 23.5175 27.8676 23.3323C28.0395 23.4033 28.2458 23.6002 28.4102 23.8732C28.5746 24.1463 28.6521 24.4207 28.6344 24.6059Z" fill="#73AF00"/>
<path d="M29.7369 22.5015C29.7035 22.6845 29.5542 22.9275 29.3217 23.1455C29.0893 23.3635 28.8371 23.4967 28.6525 23.5183C28.6858 23.3353 28.8352 23.0923 29.0676 22.8744C29.3 22.6564 29.5521 22.5231 29.7369 22.5015Z" fill="#73AF00"/>
<path d="M28.6524 23.5185C28.4694 23.4851 28.2264 23.3357 28.0084 23.1033C27.7905 22.8709 27.6573 22.6186 27.6356 22.4341C27.8186 22.4674 28.0616 22.6168 28.2796 22.8492C28.4975 23.0815 28.6309 23.3336 28.6524 23.5185Z" fill="#73AF00"/>
<path d="M29.0648 21.0543C29.1031 21.2363 29.0568 21.5177 28.9241 21.8074C28.7913 22.0971 28.6083 22.3158 28.4455 22.4057C28.4072 22.2238 28.4534 21.9423 28.5862 21.6526C28.719 21.3629 28.902 21.144 29.0648 21.0543Z" fill="#73AF00"/>
<path d="M28.4457 22.4057C28.2638 22.444 27.9823 22.3978 27.6926 22.265C27.403 22.1323 27.1842 21.9493 27.0943 21.7864C27.2763 21.7482 27.5577 21.7944 27.8474 21.9272C28.1371 22.0599 28.3559 22.2429 28.4457 22.4057Z" fill="#73AF00"/>
<path d="M28.2615 19.9825C28.3472 20.1475 28.3784 20.431 28.3284 20.7457C28.2784 21.0604 28.1611 21.3204 28.0283 21.4506C27.9425 21.2856 27.9114 21.002 27.9614 20.6874C28.0114 20.3727 28.1288 20.1128 28.2615 19.9825Z" fill="#73AF00"/>
<path d="M28.0279 21.4507C27.8629 21.5365 27.5793 21.5676 27.2647 21.5176C26.95 21.4677 26.69 21.3503 26.5598 21.2175C26.7248 21.1318 27.0084 21.1006 27.323 21.1506C27.6377 21.2006 27.8977 21.318 28.0279 21.4507Z" fill="#73AF00"/>
<path d="M27.4735 19.2365C27.5827 19.3872 27.6552 19.6629 27.6521 19.9815C27.649 20.3002 27.5711 20.5745 27.4591 20.7229C27.35 20.5723 27.2774 20.2965 27.2805 19.9779C27.2836 19.6593 27.3614 19.3848 27.4735 19.2365Z" fill="#73AF00"/>
<path d="M27.4589 20.7229C27.3082 20.832 27.0325 20.9046 26.7138 20.9015C26.3952 20.8984 26.1209 20.8205 25.9725 20.7085C26.1231 20.5993 26.3988 20.5268 26.7175 20.5299C27.0362 20.533 27.3104 20.611 27.4589 20.7229Z" fill="#73AF00"/>
<path d="M27.0765 20.3322C26.8911 20.3472 26.6177 20.2659 26.3471 20.0976C26.0765 19.9294 25.8825 19.7203 25.8139 19.5475C25.9992 19.5325 26.2727 19.6138 26.5432 19.782C26.8138 19.9501 27.0078 20.1592 27.0765 20.3322Z" fill="#73AF00"/>
<path d="M21.3888 27.5952L20.5596 28.4244L20.1508 27.6066L21.3774 26.3799L21.7863 26.7888L21.6681 27.1431C21.6113 27.3135 21.5157 27.4683 21.3888 27.5952Z" fill="#966446"/>
<path d="M25.8746 21.4737L21.3773 25.9711C21.2644 26.084 21.2644 26.2671 21.3773 26.38L21.5816 26.5843L22.3994 25.7665L25.6703 22.0868L26.0791 21.6779L25.8746 21.4737Z" fill="#B9B9B9"/>
<path d="M22.4843 25.2732C22.4301 25.3274 22.3995 25.401 22.3995 25.4776V25.7667L25.6703 22.0869L22.4843 25.2732Z" fill="#966446"/>
<path d="M26.0792 21.6781L25.8748 21.4737L25.6703 21.6781L25.8748 21.8826L26.0792 22.0871L28.328 19.4296L26.0792 21.6781Z" fill="#A0A0A0"/>
<path d="M26.8392 27.5952L27.6683 28.4244L28.0772 27.6066L26.8505 26.3799L26.4417 26.7888L26.5598 27.1431C26.6166 27.3135 26.7122 27.4683 26.8392 27.5952Z" fill="#966446"/>
<path d="M22.3531 21.4737L26.8505 25.9711C26.9634 26.084 26.9634 26.2671 26.8505 26.38L26.6461 26.5843L25.8284 25.7665L22.5575 22.0868L22.1487 21.6779L22.3531 21.4737Z" fill="#B9B9B9"/>
<path d="M25.7436 25.2732C25.7977 25.3274 25.8283 25.401 25.8283 25.4776V25.7667L22.5574 22.0869L25.7436 25.2732Z" fill="#966446"/>
<path d="M22.1486 21.6781L22.353 21.4737L22.5575 21.6781L22.353 21.8826L22.1486 22.0871L19.8998 19.4296L22.1486 21.6781Z" fill="#A0A0A0"/>
<path d="M22.4358 27.4251L22.639 27.6103C23.3802 26.7977 24.6772 25.3756 26.7333 23.5294C26.7334 23.5295 25.03 24.581 22.4358 27.4251Z" fill="#B9B9B9"/>
<path d="M21.8609 28.2592C21.7879 28.1926 21.7828 28.0796 21.8493 28.0066L22.2846 27.5292C22.3512 27.4563 22.4642 27.4511 22.5372 27.5176C22.6101 27.5842 22.6153 27.6972 22.5488 27.7702L22.1134 28.2476C22.0469 28.3206 21.9338 28.3258 21.8609 28.2592Z" fill="#FFE15A"/>
<path d="M22.2707 27.2747L22.1528 27.3273C22.0479 27.3796 21.7719 27.5357 21.7244 27.7581C21.7017 27.8635 21.7336 27.9662 21.8155 28.0633C21.8233 28.0432 21.8339 28.0237 21.8493 28.0069L21.9042 27.9468C21.8671 27.893 21.8475 27.8402 21.8586 27.7871C21.8884 27.648 22.074 27.5237 22.1907 27.4622L22.7123 27.9379L22.842 27.7957L22.2707 27.2747Z" fill="#FFC855"/>
<path d="M25.7901 27.6501L25.5869 27.8353C24.8457 27.0227 23.5487 25.6006 21.4925 23.7545C21.4924 23.7546 23.1959 24.8059 25.7901 27.6501Z" fill="#B9B9B9"/>
<path d="M26.3649 28.4843C26.4379 28.4177 26.443 28.3047 26.3766 28.2317L25.9412 27.7543C25.8746 27.6814 25.7615 27.6762 25.6886 27.7427C25.6157 27.8093 25.6105 27.9223 25.677 27.9953L26.1124 28.4727C26.1789 28.5457 26.292 28.5508 26.3649 28.4843Z" fill="#FFE15A"/>
<path d="M25.955 27.4996L26.073 27.5522C26.1779 27.6044 26.4539 27.7605 26.5014 27.983C26.5241 28.0884 26.4921 28.191 26.4103 28.2881C26.4025 28.2681 26.3919 28.2487 26.3764 28.2318L26.3216 28.1717C26.3586 28.1179 26.3783 28.065 26.3672 28.012C26.3374 27.8728 26.1517 27.7486 26.0351 27.687L25.5135 28.1628L25.3837 28.0206L25.955 27.4996Z" fill="#FFC855"/>
<path d="M24.2025 20.1266C24.2184 20.0871 24.2277 20.0442 24.2277 19.9989C24.2277 19.8102 24.0747 19.6572 23.886 19.6572C23.6973 19.6572 23.5443 19.8102 23.5443 19.9989C23.5443 20.1114 23.5993 20.2103 23.6832 20.2726C23.5596 21.2649 24.5381 21.3408 24.9109 21.4795C25.4766 21.6899 26.1862 22.1158 26.1416 23.3062C26.0983 24.4632 25.3666 25.5797 25.3666 25.5797L25.974 24.7539C25.7519 25.6933 25.2333 26.8899 23.9999 28.313C23.9999 28.313 24.8432 27.4881 25.5469 26.4243C25.0291 27.6424 24.4554 28.7685 24.4554 28.7685C24.4554 28.7685 25.471 27.4493 26.292 25.1667C27.2872 22.3994 25.1936 20.7369 24.2025 20.1266Z" fill="#69B469"/>
<path d="M23.3174 24.2126H22.4062V24.6682H23.3174V24.2126Z" fill="#F4E08F"/>
<path d="M22.4061 25.1239C22.6578 25.1239 22.8618 24.9199 22.8618 24.6682C22.8618 24.4166 22.6578 24.2126 22.4061 24.2126C22.1545 24.2126 21.9505 24.4166 21.9505 24.6682C21.9505 24.9199 22.1545 25.1239 22.4061 25.1239Z" fill="#ECD077"/>
<path d="M22.4061 22.1633C22.6578 22.1633 22.8618 21.9593 22.8618 21.7076C22.8618 21.456 22.6578 21.252 22.4061 21.252C22.1545 21.252 21.9505 21.456 21.9505 21.7076C21.9505 21.9593 22.1545 22.1633 22.4061 22.1633Z" fill="#ECD077"/>
<path d="M25.139 22.1629C25.3907 22.1629 25.5947 21.9589 25.5947 21.7072C25.5947 21.4556 25.3907 21.2516 25.139 21.2516H22.4057C22.6573 21.2516 22.8613 21.4556 22.8613 21.7072C22.8613 21.9589 22.6573 22.1629 22.4057 22.1629C22.154 22.1629 21.95 21.9589 21.95 21.7072C21.95 22.472 22.59 23.3965 22.7963 24.2129C22.7963 24.2129 22.8612 24.4169 22.8612 24.6685C22.8612 24.9201 22.6572 25.1241 22.4056 25.1241H25.1389C25.3906 25.1241 25.5946 24.9201 25.5946 24.6685C25.5946 23.9038 24.9546 22.9792 24.7483 22.1629H25.139Z" fill="#FCF0A8"/>
<path d="M22.861 21.7074C22.861 21.9591 22.657 22.1631 22.4053 22.1631H25.1387C25.3903 22.1631 25.5943 21.9591 25.5943 21.7074H22.861Z" fill="#F4E08F"/>
<path d="M22.861 24.6685C22.861 24.9201 22.657 25.1241 22.4053 25.1241H25.1387C25.3903 25.1241 25.5943 24.9201 25.5943 24.6685H22.861Z" fill="#F4E08F"/>
</svg>
