<svg width="48" height="48" viewBox="0 0 48 48" fill="none" xmlns="http://www.w3.org/2000/svg">
<path d="M47.1723 39.7242H0.827623C0.370593 39.7242 0 39.3536 0 38.8966V9.10362C0 8.64659 0.370593 8.276 0.827623 8.276H47.1724C47.6294 8.276 48 8.64659 48 9.10362V38.8966C47.9999 39.3537 47.6293 39.7242 47.1723 39.7242Z" fill="#41479B"/>
<path d="M23.9999 15.724C20.8547 17.3788 18.7335 21.3199 18.7335 23.9999C18.7335 26.6798 20.8547 30.621 23.9999 32.2757C27.1451 30.6209 29.2663 26.6798 29.2663 23.9999C29.2663 21.3199 27.1452 17.3788 23.9999 15.724Z" fill="#3CC8FF"/>
<path d="M24.6791 21.1662C25.1872 20.8984 26.0548 20.6037 27.0406 20.9654C27.0406 20.9654 26.0912 19.9078 24.7736 20.7695C25.1281 20.3397 25.6604 19.8075 26.2369 19.6593C26.2369 19.6593 25.0896 19.2309 24.3955 20.7608C24.53 19.9891 24.5055 18.7741 23.2617 18.0688C23.2617 18.0688 23.9571 19.5613 24.0255 20.7997C23.9851 20.5799 23.9042 20.3502 23.6906 20.1275C23.033 19.4413 22.4612 19.3842 22.4612 19.3842C22.4612 19.3842 23.373 20.3946 23.821 21.3506C23.5629 21.0417 23.1081 20.6463 22.3754 20.6707C20.6598 20.7279 20.2881 21.7572 20.2881 21.7572C20.9993 21.4577 22.128 21.3086 23.003 21.3825C21.8734 21.5816 21.472 22.9888 21.472 22.9888C22.3791 21.8578 23.3691 21.6741 23.7643 21.6472C23.0422 22.2445 23.0862 23.3444 23.0862 23.3444C23.254 22.7252 23.9041 22.0195 24.2209 21.7032C25.0738 22.6259 25.1748 23.6632 25.1748 23.6632C25.1748 23.6632 25.3614 23.3511 25.2754 22.7159C25.194 22.1163 24.8177 21.7227 24.5305 21.4914C26.0365 21.6989 27.0192 22.7913 27.0192 22.7913C26.5266 21.3539 25.2935 21.1667 24.6791 21.1662Z" fill="#73AF00"/>
<path d="M46.3447 9.93115V38.0689H1.65515V9.93115H46.3447ZM47.1723 8.276H0.827623C0.370593 8.276 0 8.64659 0 9.10362V38.8966C0 39.3536 0.370593 39.7242 0.827623 39.7242H47.1724C47.6294 39.7242 48 39.3536 48 38.8966V9.10362C47.9999 8.64659 47.6293 8.276 47.1723 8.276Z" fill="#FF4B55"/>
<path d="M22.3189 26.0003L23.0777 24.6899L29.3104 24.552L28.8966 26.2761L22.3189 26.0003Z" fill="#FF965A"/>
<path d="M18.9608 25.6553C19.5855 28.1071 21.4574 30.9384 23.9998 32.276C26.5422 30.9384 28.4141 28.1071 29.0389 25.6553H18.9608Z" fill="#4173CD"/>
<path d="M19.862 28.1377C19.862 28.1377 21.6671 28.0484 22.7516 28.4937C23.0226 28.6049 23.0576 28.9709 22.8129 29.1318C22.2847 29.4795 21.5171 30.0778 21.5171 30.6205L19.862 28.1377Z" fill="#FFE15A"/>
<path d="M23.0344 31.448C22.9654 30.7583 23.5756 30.2567 24.4137 29.9307C25.4999 29.5084 24.905 28.8359 24.3619 28.3963C23.7142 27.8721 24.5516 27.724 28.0688 27.655L26.3446 30.3446L23.9999 32.2757L23.0344 31.448Z" fill="#FFE15A"/>
<path d="M23.9999 32.7439L23.8072 32.6421C20.5248 30.9158 18.3195 26.7796 18.3195 24.0002C18.3195 21.2209 20.5246 17.0844 23.8072 15.3582L23.9999 15.2564L24.1927 15.3582C27.4751 17.0845 29.6802 21.2208 29.6802 24.0002C29.6802 26.7795 27.4751 30.9159 24.1927 32.6421L23.9999 32.7439ZM23.9999 16.1955C21.0884 17.8394 19.1471 21.5166 19.1471 24.0001C19.1471 26.4835 21.0884 30.1609 23.9999 31.8046C26.9114 30.1607 28.8527 26.4835 28.8527 24.0001C28.8527 21.5166 26.9115 17.8393 23.9999 16.1955Z" fill="#FF4B55"/>
<path d="M25.7586 28.7241C25.7206 28.7241 25.6827 28.714 25.6486 28.6925C24.524 27.9857 23.8792 26.8158 23.8792 25.4828V21.6726C23.8792 21.5583 23.9718 21.4657 24.0861 21.4657C24.2004 21.4657 24.293 21.5583 24.293 21.6726V25.4828C24.293 26.6704 24.8672 27.7126 25.8685 28.3418C25.9655 28.4028 25.9946 28.5305 25.9339 28.6271C25.8944 28.6898 25.8273 28.7241 25.7586 28.7241Z" fill="#A54B37"/>
<path d="M24.0862 22.138C24.3362 22.138 24.5388 21.9353 24.5388 21.6854C24.5388 21.4354 24.3362 21.2327 24.0862 21.2327C23.8362 21.2327 23.6335 21.4354 23.6335 21.6854C23.6335 21.9353 23.8362 22.138 24.0862 22.138Z" fill="#A54B37"/>
</svg>
