<svg width="48" height="48" viewBox="0 0 48 48" fill="none" xmlns="http://www.w3.org/2000/svg">
<path d="M47.9999 23.9999H0V9.10338C0 8.64635 0.370593 8.27576 0.827623 8.27576H47.1724C47.6294 8.27576 48 8.64635 48 9.10338L47.9999 23.9999Z" fill="#FFE15A"/>
<path d="M0 23.9999H47.9999V38.8965C47.9999 39.3535 47.6293 39.7241 47.1723 39.7241H0.827623C0.370593 39.7241 0 39.3535 0 38.8965V23.9999Z" fill="#73AF00"/>
<path d="M15.7241 8.27585V39.724H0.827623C0.370593 39.724 0 39.3534 0 38.8964V9.10338C0 8.64635 0.370593 8.27576 0.827623 8.27576H15.7241V8.27585Z" fill="#FF4B55"/>
<path d="M7.70595 19.8711L6.79367 22.6067L3.91002 22.629C3.75195 22.6302 3.68633 22.832 3.81364 22.9259L6.13339 24.6389L5.26358 27.3882C5.21586 27.539 5.38751 27.6636 5.51614 27.5718L7.86213 25.895L10.2081 27.5719C10.3368 27.6639 10.5083 27.5391 10.4607 27.3884L9.59088 24.6391L11.9106 22.9261C12.0378 22.8322 11.9723 22.6304 11.8143 22.6292L8.9306 22.6069L8.01832 19.8713C7.96807 19.7212 7.75601 19.7212 7.70595 19.8711Z" fill="#464655"/>
</svg>
