<svg width="48" height="48" viewBox="0 0 48 48" fill="none" xmlns="http://www.w3.org/2000/svg">
<path d="M47.1723 39.7243H0.827623C0.370593 39.7243 0 39.3537 0 38.8966V9.10359C0 8.64656 0.370593 8.27597 0.827623 8.27597H47.1724C47.6294 8.27597 48 8.64656 48 9.10359V38.8966C47.9999 39.3538 47.6293 39.7243 47.1723 39.7243Z" fill="#FF4B55"/>
<path d="M21.0445 25.2117C20.0013 25.2225 18.8298 24.8884 17.8033 23.7569C17.7325 23.6789 17.7425 23.556 17.8229 23.4879L17.8232 23.4876C17.9012 23.4215 18.0165 23.4317 18.0854 23.5074C19.6501 25.2255 21.5894 24.9247 22.7481 24.5095C22.32 24.5286 21.7822 24.4964 21.4362 24.2691C19.9911 23.3191 20.6456 22.3085 19.6858 21.0868C18.7321 19.873 17.8739 19.9027 16.5226 20.1075C15.1848 20.3102 14.7586 19.3289 14.626 18.7843C14.6022 18.6867 14.4661 18.6806 14.4312 18.7747C12.7638 23.2797 17.7775 28.8541 22.9251 24.846C22.4171 25.033 21.7629 25.2044 21.0445 25.2117ZM17.2883 23.6829C17.259 23.7634 17.1442 23.7602 17.1193 23.6783L16.9273 23.0455L16.2665 23.0224C16.1809 23.0194 16.1485 22.9092 16.2187 22.8603L16.7611 22.4822L16.579 21.8465C16.5553 21.7643 16.6501 21.6993 16.7184 21.7509L17.2456 22.1499L17.7939 21.7801C17.8648 21.7322 17.9559 21.8022 17.9278 21.8831L17.7113 22.5079L18.2323 22.915C18.2997 22.9678 18.2613 23.076 18.1757 23.0743L17.5146 23.0614L17.2883 23.6829Z" fill="white"/>
<path d="M24.7375 22.2185C25.5659 21.5842 26.7036 21.1491 28.2036 21.4387C28.307 21.4587 28.3728 21.563 28.3494 21.6657L28.3493 21.6661C28.3265 21.7658 28.2281 21.8268 28.1276 21.8075C25.8451 21.3709 24.4736 22.7747 23.7955 23.8017C24.1266 23.5297 24.5763 23.2329 24.9895 23.2075C26.7156 23.1009 26.7978 24.3023 28.2987 24.7042C29.7898 25.1035 30.4587 24.5652 31.4174 23.5908C32.3663 22.6263 33.2959 23.1559 33.7286 23.5122C33.806 23.576 33.9186 23.4993 33.8901 23.4032C32.5227 18.7982 25.1674 17.3444 23.4521 23.6388C23.7462 23.1847 24.167 22.6552 24.7375 22.2185ZM28.6602 21.1892C28.6353 21.1072 28.7292 21.0409 28.7982 21.0915L29.3312 21.4826L29.8739 21.1048C29.9442 21.0559 30.0362 21.1246 30.0095 21.2059L29.8022 21.8338L30.3292 22.2332C30.3974 22.2849 30.3605 22.3938 30.275 22.3933L29.6138 22.3902L29.3969 23.0149C29.3687 23.0958 29.2539 23.0943 29.2278 23.0128L29.0265 22.383L28.3653 22.3697C28.2797 22.3679 28.2456 22.2583 28.3152 22.2083L28.852 21.8222L28.6602 21.1892Z" fill="white"/>
<path d="M21.9747 22.6525C21.5679 21.6918 21.431 20.4814 22.0868 19.1016C22.132 19.0064 22.2494 18.9688 22.343 19.0173L22.3434 19.0175C22.4342 19.0644 22.4685 19.1751 22.4249 19.2675C21.4313 21.3683 22.4475 23.0473 23.2722 23.9607C23.0917 23.572 22.9169 23.0625 22.9955 22.656C23.3241 20.9581 24.5078 21.1789 25.2723 19.8263C26.0319 18.4824 25.6779 17.7001 24.9744 16.5283C24.2778 15.3683 25.0232 14.6007 25.4764 14.2709C25.5575 14.2119 25.5114 14.0837 25.4112 14.0873C20.6106 14.2595 17.3633 21.0173 23.0285 24.2524C22.6624 23.8539 22.255 23.3141 21.9747 22.6525ZM21.9593 18.5971C21.8737 18.6007 21.833 18.4932 21.8993 18.4391L22.4113 18.0208L22.1813 17.4009C22.1515 17.3206 22.2411 17.2486 22.313 17.2949L22.8691 17.6527L23.3875 17.2423C23.4547 17.1892 23.5508 17.2521 23.5289 17.3349L23.3605 17.9743L23.911 18.3406C23.9822 18.388 23.9521 18.4989 23.8667 18.5037L23.2065 18.5411L23.0283 19.1779C23.0052 19.2603 22.8905 19.2659 22.8595 19.1861L22.6198 18.5699L21.9593 18.5971Z" fill="white"/>
<path d="M25.7153 24.8326C26.5776 25.4199 27.3482 26.3634 27.5441 27.8785C27.5577 27.983 27.4793 28.0782 27.3744 28.0882H27.3738C27.272 28.0979 27.1832 28.0235 27.1699 27.9222C26.8675 25.6181 25.1039 24.7569 23.9158 24.4356C24.278 24.6646 24.701 24.9983 24.855 25.3826C25.4983 26.9879 24.3836 27.4434 24.4734 28.9945C24.5625 30.5355 25.2839 31.0015 26.51 31.6056C27.7238 32.2036 27.5129 33.2524 27.3104 33.7752C27.2742 33.8689 27.3823 33.9516 27.4646 33.8943C31.407 31.1497 30.4772 23.7102 23.9626 24.0586C24.4868 24.1951 25.1215 24.4283 25.7153 24.8326ZM27.9247 28.2335C27.9947 28.1842 28.087 28.2525 28.0607 28.3338L27.8568 28.9628L28.3859 29.3594C28.4544 29.4107 28.4182 29.5198 28.3326 29.5199L27.6714 29.5202L27.4577 30.146C27.43 30.227 27.3151 30.2262 27.2887 30.1448L27.0839 29.516L26.4228 29.5062C26.3371 29.5049 26.3025 29.3954 26.3717 29.345L26.9064 28.9559L26.7115 28.3241C26.6862 28.2422 26.7796 28.1754 26.8489 28.2257L27.3841 28.614L27.9247 28.2335Z" fill="white"/>
<path d="M23.5585 26.7023C23.2615 27.7024 22.5972 28.7235 21.2135 29.3712C21.1181 29.416 21.0036 29.3702 20.9622 29.2734L20.962 29.273C20.9218 29.179 20.9656 29.0718 21.0581 29.0282C23.1609 28.039 23.4447 26.0971 23.3892 24.8676C23.2813 25.2823 23.0921 25.7867 22.773 26.0504C21.4396 27.1517 20.6664 26.2285 19.2162 26.786C17.7752 27.3399 17.5509 28.1688 17.3485 29.5206C17.1482 30.8588 16.0848 30.977 15.5253 30.9433C15.4252 30.9373 15.3792 31.0655 15.4588 31.1265C19.2729 34.0468 26.0767 30.8974 23.7626 24.7977C23.792 25.3379 23.7631 26.0135 23.5585 26.7023ZM20.9911 29.8416C21.0593 29.8933 21.0225 30.002 20.9369 30.0017L20.2757 29.9988L20.059 30.6236C20.031 30.7045 19.916 30.703 19.89 30.6215L19.6883 29.9917L19.0272 29.9785C18.9416 29.9769 18.9074 29.8672 18.9769 29.8172L19.5136 29.4309L19.3217 28.798C19.2969 28.7161 19.3906 28.6497 19.4596 28.7004L19.9929 29.0913L20.5355 28.7133C20.6057 28.6644 20.6978 28.7331 20.6711 28.8144L20.4641 29.4423L20.9911 29.8416Z" fill="white"/>
</svg>
