<svg width="48" height="48" viewBox="0 0 48 48" fill="none" xmlns="http://www.w3.org/2000/svg">
<path d="M47.9999 18.7588H0V9.10362C0 8.64659 0.370593 8.276 0.827623 8.276H47.1724C47.6294 8.276 48 8.64659 48 9.10362L47.9999 18.7588Z" fill="#4173CD"/>
<path d="M47.1723 39.7242H0.827623C0.370593 39.7242 0 39.3537 0 38.8966V29.2415H47.9999V38.8966C47.9999 39.3537 47.6293 39.7242 47.1723 39.7242Z" fill="#4173CD"/>
<path d="M47.9999 18.7584H0V29.2406H47.9999V18.7584Z" fill="white"/>
<path d="M24.1197 22.6479L24.4158 23.536L25.3519 23.5432C25.4731 23.5442 25.5233 23.6989 25.4259 23.7709L24.6728 24.327L24.9552 25.2196C24.9916 25.3352 24.8602 25.4307 24.7615 25.3603L24 24.8159L23.2383 25.3602C23.1397 25.4306 23.0082 25.3351 23.0446 25.2195L23.327 24.3269L22.5739 23.7708C22.4765 23.6988 22.5267 23.5441 22.6479 23.5431L23.584 23.5359L23.8801 22.6478C23.9187 22.533 24.0812 22.533 24.1197 22.6479Z" fill="#4173CD"/>
<path d="M15.6658 25.0314L15.962 25.9195L16.8981 25.9267C17.0193 25.9276 17.0694 26.0823 16.972 26.1543L16.2189 26.7104L16.5013 27.603C16.5379 27.7186 16.4063 27.8142 16.3076 27.7438L15.546 27.1994L14.7844 27.7438C14.6858 27.8142 14.5542 27.7186 14.5907 27.603L14.8731 26.7104L14.12 26.1543C14.0226 26.0823 14.0727 25.9276 14.1939 25.9267L15.13 25.9195L15.4262 25.0314C15.4648 24.9165 15.6275 24.9165 15.6658 25.0314Z" fill="#4173CD"/>
<path d="M15.6658 20.2644L15.962 21.1525L16.8981 21.1597C17.0193 21.1607 17.0694 21.3153 16.972 21.3873L16.2189 21.9435L16.5013 22.8361C16.5379 22.9517 16.4063 23.0472 16.3076 22.9768L15.546 22.4325L14.7844 22.9768C14.6858 23.0472 14.5542 22.9517 14.5907 22.8361L14.8731 21.9435L14.12 21.3873C14.0226 21.3153 14.0727 21.1607 14.1939 21.1597L15.13 21.1525L15.4262 20.2644C15.4648 20.1496 15.6275 20.1496 15.6658 20.2644Z" fill="#4173CD"/>
<path d="M32.573 25.0314L32.8691 25.9195L33.8052 25.9267C33.9264 25.9276 33.9766 26.0823 33.8792 26.1543L33.1261 26.7104L33.4085 27.603C33.445 27.7186 33.3135 27.8142 33.2148 27.7438L32.4531 27.1994L31.6915 27.7438C31.5929 27.8142 31.4614 27.7186 31.4978 27.603L31.7802 26.7104L31.0271 26.1543C30.9295 26.0823 30.9799 25.9276 31.1011 25.9267L32.0372 25.9195L32.3333 25.0314C32.372 24.9165 32.5346 24.9165 32.573 25.0314Z" fill="#4173CD"/>
<path d="M32.573 20.2644L32.8691 21.1525L33.8052 21.1597C33.9264 21.1607 33.9766 21.3153 33.8792 21.3873L33.1261 21.9435L33.4085 22.8361C33.445 22.9517 33.3135 23.0472 33.2148 22.9768L32.4531 22.4325L31.6915 22.9768C31.5929 23.0472 31.4614 22.9517 31.4978 22.8361L31.7802 21.9435L31.0271 21.3873C30.9295 21.3153 30.9799 21.1607 31.1011 21.1597L32.0372 21.1525L32.3333 20.2644C32.372 20.1496 32.5346 20.1496 32.573 20.2644Z" fill="#4173CD"/>
</svg>
