<svg width="48" height="48" viewBox="0 0 48 48" fill="none" xmlns="http://www.w3.org/2000/svg">
<path d="M0 29.2413H47.9999V38.8965C47.9999 39.3535 47.6293 39.7241 47.1723 39.7241H0.827623C0.370593 39.7241 0 39.3535 0 38.8965V29.2413Z" fill="#41479B"/>
<path d="M0.827623 8.27597H47.1724C47.6294 8.27597 48 8.64656 48 9.10359V18.7587H0V9.10359C0 8.64656 0.370593 8.27597 0.827623 8.27597Z" fill="#FF4B55"/>
<path d="M47.9999 18.7583H0V29.2405H47.9999V18.7583Z" fill="white"/>
<path d="M20.5244 19.034H18.2072V21.6824H20.5244V19.034Z" fill="#FF4B55"/>
<path d="M25.1583 19.034H22.8411V21.6824H25.1583V19.034Z" fill="#FF4B55"/>
<path d="M22.841 21.6824H20.5238V24.3309H22.841V21.6824Z" fill="#FF4B55"/>
<path d="M29.7926 19.034H27.4754V21.6824H29.7926V19.034Z" fill="#FF4B55"/>
<path d="M27.476 21.6824H25.1588V24.3309H27.476V21.6824Z" fill="#FF4B55"/>
<path d="M22.841 19.034H20.5238V21.6824H22.841V19.034Z" fill="white"/>
<path d="M27.476 19.034H25.1588V21.6824H27.476V19.034Z" fill="white"/>
<path d="M20.5244 21.6824H18.2072V24.3309H20.5244V21.6824Z" fill="white"/>
<path d="M25.1583 21.6824H22.8411V24.3309H25.1583V21.6824Z" fill="white"/>
<path d="M29.7926 21.6824H27.4754V24.3309H29.7926V21.6824Z" fill="white"/>
<path d="M25.1583 24.3309H22.8411V26.9793H25.1583V24.3309Z" fill="#FF4B55"/>
<path d="M22.841 26.9793H20.5238V29.6277H22.841V26.9793Z" fill="#FF4B55"/>
<path d="M27.476 26.9793H25.1588V29.6277H27.476V26.9793Z" fill="#FF4B55"/>
<path d="M22.841 24.3309H20.5238V26.9793H22.841V24.3309Z" fill="white"/>
<path d="M27.476 24.3309H25.1588V26.9793H27.476V24.3309Z" fill="white"/>
<path d="M25.1583 26.9793H22.8411V29.6277H25.1583V26.9793Z" fill="white"/>
<path d="M29.793 19.0344V26.4827C29.793 29.6821 27.1993 32.2757 23.9999 32.2757C20.8005 32.2757 18.2068 29.6821 18.2068 26.4827V19.0344H29.793ZM30.2068 18.6206H29.793H18.2068H17.793V19.0344V26.4827C17.793 29.9051 20.5774 32.6895 23.9999 32.6895C27.4224 32.6895 30.2068 29.9052 30.2068 26.4827V19.0344V18.6206Z" fill="#FF4B55"/>
<path d="M20.5241 26.9792V24.331H18.2068V26.4827C18.2068 26.6505 18.2179 26.8152 18.2319 26.9793H20.5241V26.9792Z" fill="#FF4B55"/>
<path d="M29.7678 26.9792H27.4756V29.6274H28.8606C29.3633 28.8522 29.6852 27.9506 29.7678 26.9792Z" fill="white"/>
<path d="M19.1389 29.6283H20.524V26.9802H18.2318C18.3144 27.9515 18.6363 28.8531 19.1389 29.6283Z" fill="white"/>
<path d="M27.476 26.9792H29.7682C29.7821 26.8152 29.7932 26.6503 29.7932 26.4826V24.3309H27.476V26.9792Z" fill="#FF4B55"/>
<path d="M20.5242 31.1092V29.6274H19.1391C19.5103 30.1999 19.9803 30.7 20.5242 31.1092Z" fill="#FF4B55"/>
<path d="M28.8611 29.6274H27.476V31.1092C28.0199 30.7 28.49 30.1999 28.8611 29.6274Z" fill="#FF4B55"/>
<path d="M20.5242 31.1092C21.1987 31.6169 21.9836 31.9853 22.8414 32.1594V29.6274H20.5242V31.1092Z" fill="white"/>
<path d="M25.1586 32.1594C26.0164 31.9853 26.8014 31.6168 27.4758 31.1092V29.6274H25.1586V32.1594Z" fill="white"/>
<path d="M25.1584 29.6274H22.8412V32.1594C23.2155 32.2354 23.603 32.2757 23.9998 32.2757C24.3967 32.2757 24.7841 32.2354 25.1585 32.1594V29.6274H25.1584Z" fill="#FF4B55"/>
<path d="M19.8067 14.6522C19.3025 14.5742 18.7867 14.5179 18.2609 14.4854C17.8542 14.8202 17.4665 15.1692 17.0985 15.5307C17.4681 16.4227 17.8376 17.3148 18.2069 18.2068C18.9488 17.8996 19.7089 17.6537 20.4801 17.4694C20.2557 16.5303 20.0312 15.5912 19.8067 14.6522Z" fill="#4173CD"/>
<path d="M25.4065 14.2129C24.9534 13.9836 24.4842 13.7717 24 13.5786C23.5158 13.7718 23.0466 13.9837 22.5936 14.2129C22.6689 15.1753 22.7442 16.1379 22.8195 17.1006C23.6053 17.039 24.3949 17.039 25.1807 17.1006C25.2558 16.138 25.3312 15.1755 25.4065 14.2129Z" fill="#4173CD"/>
<path d="M30.9015 15.5307C30.5336 15.1693 30.1458 14.8203 29.7392 14.4854C29.2134 14.5178 28.6976 14.5742 28.1934 14.6522C27.9689 15.5913 27.7444 16.5303 27.52 17.4693C28.2912 17.6537 29.0513 17.8995 29.7931 18.2067C30.1626 17.3147 30.5321 16.4226 30.9015 15.5307Z" fill="#4173CD"/>
<path d="M22.5934 14.2129C22.1102 14.057 21.6132 13.9206 21.1034 13.8055C20.6535 14.0718 20.2211 14.3547 19.8066 14.6523C20.031 15.5914 20.2556 16.5304 20.4802 17.4694C21.2514 17.285 22.0335 17.1622 22.8195 17.1007C22.7441 16.1381 22.6687 15.1755 22.5934 14.2129Z" fill="#41479B"/>
<path d="M28.1935 14.6523C27.779 14.3547 27.3464 14.0717 26.8967 13.8055C26.3869 13.9206 25.8898 14.0572 25.4067 14.2129C25.3314 15.1754 25.256 16.138 25.1807 17.1007C25.9666 17.1621 26.7488 17.285 27.52 17.4694C27.7445 16.5304 27.969 15.5913 28.1935 14.6523Z" fill="#41479B"/>
<path d="M22.6837 15.3679C21.8076 15.4364 20.9356 15.5733 20.0758 15.779C20.0309 15.5912 19.986 15.4034 19.9411 15.2156C20.8303 15.0032 21.7322 14.8614 22.6384 14.7904C22.6536 14.983 22.6687 15.1755 22.6837 15.3679Z" fill="#FF4B55"/>
<path d="M22.7741 16.523C21.9582 16.5868 21.1461 16.7144 20.3454 16.9059C20.3004 16.7181 20.2555 16.5302 20.2106 16.3425C21.0408 16.144 21.8829 16.0117 22.7289 15.9456C22.744 16.1379 22.759 16.3305 22.7741 16.523Z" fill="#FF4B55"/>
<path d="M26.7492 16.7176C26.5472 16.6817 26.3446 16.6497 26.1415 16.6218C25.8076 16.5756 25.5589 16.2921 25.5878 15.9735C25.6167 15.6549 25.9359 15.4238 26.2994 15.4741C26.5174 15.5041 26.7349 15.5383 26.9518 15.5769C27.3136 15.6409 27.5478 15.9596 27.4772 16.2712C27.4068 16.5835 27.0819 16.7762 26.7492 16.7176Z" fill="#FFE15A"/>
<path d="M30.0147 17.6716C29.2446 17.3526 28.4551 17.0974 27.6546 16.9059C27.6996 16.7181 27.7444 16.5302 27.7893 16.3425C28.6194 16.5409 29.4379 16.8057 30.2364 17.1364C30.1626 17.3148 30.0887 17.4932 30.0147 17.6716Z" fill="#FF4B55"/>
<path d="M29.808 15.9337C29.7261 16.1594 29.4501 16.2667 29.1893 16.1819C28.9286 16.0969 28.769 15.8491 28.835 15.6183C28.901 15.3874 29.1806 15.2653 29.4572 15.3552C29.734 15.4449 29.8898 15.7081 29.808 15.9337Z" fill="#FFE15A"/>
<path d="M19.1648 15.6184C19.2307 15.8494 19.071 16.0974 18.8105 16.1821C18.5498 16.2664 18.2738 16.1591 18.1919 15.9339C18.1099 15.7082 18.2659 15.4451 18.5427 15.3555C18.8191 15.2658 19.099 15.3877 19.1648 15.6184Z" fill="#FFE15A"/>
<path d="M23.8679 15.239C23.8684 15.4309 23.6959 15.5872 23.4822 15.5937C23.2685 15.6006 23.0864 15.4549 23.0751 15.2637C23.064 15.0725 23.2363 14.9069 23.4605 14.8997C23.6848 14.8927 23.8669 15.0471 23.8679 15.239Z" fill="#FFE15A"/>
<path d="M24.9246 15.2638C24.9133 15.4554 24.731 15.6006 24.5176 15.5938C24.3039 15.5872 24.1314 15.4309 24.1319 15.239C24.1327 15.0473 24.315 14.8924 24.5391 14.8997C24.7635 14.9065 24.9357 15.0724 24.9246 15.2638Z" fill="#FFE15A"/>
<path d="M24.3756 16.1326C24.3703 16.3245 24.2022 16.4755 23.9998 16.4755C23.7977 16.4754 23.6296 16.3246 23.6241 16.1326C23.6188 15.9413 23.7869 15.7806 23.9998 15.7811C24.2128 15.7807 24.3808 15.9412 24.3756 16.1326Z" fill="#FFE15A"/>
</svg>
