<svg width="48" height="48" viewBox="0 0 48 48" fill="none" xmlns="http://www.w3.org/2000/svg">
<path d="M47.9999 18.7588H0V9.10362C0 8.64659 0.370593 8.276 0.827623 8.276H47.1724C47.6294 8.276 48 8.64659 48 9.10362L47.9999 18.7588Z" fill="#FAB446"/>
<path d="M47.1723 39.724H0.827623C0.370593 39.724 0 39.3534 0 38.8964V29.2413H47.9999V38.8964C47.9999 39.3535 47.6293 39.724 47.1723 39.724Z" fill="#73AF00"/>
<path d="M47.9999 18.7587H0V29.2408H47.9999V18.7587Z" fill="white"/>
<path d="M24.0002 28.448C21.5473 28.448 19.5519 26.4527 19.5519 23.9998C19.5519 21.5469 21.5473 19.5516 24.0002 19.5516C26.4531 19.5516 28.4484 21.5469 28.4484 23.9998C28.4484 26.4527 26.4531 28.448 24.0002 28.448ZM24.0002 20.3791C22.0035 20.3791 20.3795 22.0031 20.3795 23.9998C20.3795 25.9965 22.0035 27.6205 24.0002 27.6205C25.9969 27.6205 27.6209 25.9965 27.6209 23.9998C27.6209 22.0031 25.9969 20.3791 24.0002 20.3791Z" fill="#41479B"/>
<path d="M24.0003 24.5042C24.2788 24.5042 24.5046 24.2785 24.5046 24C24.5046 23.7214 24.2788 23.4957 24.0003 23.4957C23.7218 23.4957 23.496 23.7214 23.496 24C23.496 24.2785 23.7218 24.5042 24.0003 24.5042Z" fill="#41479B"/>
<path d="M24.0001 24.0752L22.7186 24.2046L19.9657 24.0752V23.9239L22.7186 23.7946L24.0001 23.9239V24.0752Z" fill="#41479B"/>
<path d="M24 24.0752L25.2815 24.2046L28.0344 24.0752V23.9239L25.2815 23.7946L24 23.9239V24.0752Z" fill="#41479B"/>
<path d="M23.9243 23.9998L23.795 22.7182L23.9243 19.9653H24.0756L24.205 22.7182L24.0756 23.9998H23.9243Z" fill="#41479B"/>
<path d="M23.9243 23.9996L23.795 25.2812L23.9243 28.0341H24.0756L24.205 25.2812L24.0756 23.9996H23.9243Z" fill="#41479B"/>
<path d="M23.9465 24.0531L22.9488 23.2385L21.0937 21.2004L21.2007 21.0934L23.2388 22.9485L24.0534 23.9462L23.9465 24.0531Z" fill="#41479B"/>
<path d="M23.9468 24.0533L24.7614 25.051L26.7995 26.9062L26.9065 26.7992L25.0514 24.7611L24.0537 23.9465L23.9468 24.0533Z" fill="#41479B"/>
<path d="M23.9468 23.9462L24.7614 22.9485L26.7995 21.0934L26.9065 21.2004L25.0514 23.2385L24.0537 24.0531L23.9468 23.9462Z" fill="#41479B"/>
<path d="M23.9465 23.9465L22.9488 24.7611L21.0937 26.7992L21.2007 26.9062L23.2388 25.051L24.0534 24.0533L23.9465 23.9465Z" fill="#41479B"/>
<path d="M24.0293 24.0696L22.8947 24.6796L20.302 25.6135L20.244 25.4737L22.7379 24.3007L23.9713 23.9297L24.0293 24.0696Z" fill="#41479B"/>
<path d="M24.029 24.0699L25.2625 23.6989L27.7563 22.5259L27.6984 22.3861L25.1056 23.3201L23.9711 23.93L24.029 24.0699Z" fill="#41479B"/>
<path d="M23.9304 24.0289L23.3204 22.8943L22.3865 20.3016L22.5263 20.2437L23.6993 22.7375L24.0702 23.971L23.9304 24.0289Z" fill="#41479B"/>
<path d="M23.9301 24.0286L24.3011 25.2621L25.4741 27.7559L25.6139 27.698L24.6799 25.1053L24.07 23.9707L23.9301 24.0286Z" fill="#41479B"/>
<path d="M23.9713 24.0699L22.7379 23.6989L20.244 22.5259L20.302 22.3861L22.8947 23.3201L24.0293 23.93L23.9713 24.0699Z" fill="#41479B"/>
<path d="M23.9711 24.0696L25.1056 24.6796L27.6984 25.6135L27.7563 25.4737L25.2625 24.3007L24.029 23.9297L23.9711 24.0696Z" fill="#41479B"/>
<path d="M23.9301 23.971L24.3011 22.7375L25.4741 20.2437L25.6139 20.3016L24.6799 22.8943L24.07 24.0289L23.9301 23.971Z" fill="#41479B"/>
<path d="M23.9304 23.9707L23.3204 25.1053L22.3865 27.698L22.5263 27.7559L23.6993 25.2621L24.0702 24.0286L23.9304 23.9707Z" fill="#41479B"/>
<path d="M23.9998 24.6802C24.3755 24.6802 24.6801 24.3756 24.6801 24C24.6801 23.6243 24.3755 23.3197 23.9998 23.3197C23.6241 23.3197 23.3196 23.6243 23.3196 24C23.3196 24.3756 23.6241 24.6802 23.9998 24.6802Z" fill="white"/>
<path d="M24 24.408C24.2253 24.408 24.408 24.2254 24.408 24.0001C24.408 23.7749 24.2253 23.5922 24 23.5922C23.7748 23.5922 23.5921 23.7749 23.5921 24.0001C23.5921 24.2254 23.7748 24.408 24 24.408Z" fill="#41479B"/>
</svg>
