<svg width="48" height="48" viewBox="0 0 48 48" fill="none" xmlns="http://www.w3.org/2000/svg">
<path d="M47.1723 39.724H0.827623C0.370593 39.724 0 39.3534 0 38.8964V9.10347C0 8.64644 0.370593 8.27585 0.827623 8.27585H47.1724C47.6294 8.27585 48 8.64644 48 9.10347V38.8964C47.9999 39.3535 47.6293 39.724 47.1723 39.724Z" fill="white"/>
<path d="M48 33.1033C45.5973 33.1033 45.5973 32.2757 43.1947 32.2757C40.792 32.2757 40.792 33.1033 38.3895 33.1033C35.9885 33.1033 35.9885 32.2757 33.5875 32.2757C31.1886 32.2757 31.1886 33.1033 28.7897 33.1033C26.3895 33.1033 26.3895 32.2757 23.9893 32.2757C21.5897 32.2757 21.5897 33.1033 19.1902 33.1033C16.7907 33.1033 16.7906 32.2757 14.3911 32.2757C11.9917 32.2757 11.9915 33.1033 9.59198 33.1033C7.19339 33.1033 7.19339 32.2757 4.79499 32.2757C2.39771 32.2757 2.39771 33.1033 0.000343323 33.1033V30.6206C2.39762 30.6206 2.39762 29.7929 4.79499 29.7929C7.19349 29.7929 7.19349 30.6206 9.59198 30.6206C11.9916 30.6206 11.9916 29.7929 14.3911 29.7929C16.7907 29.7929 16.7907 30.6206 19.1902 30.6206C21.5898 30.6206 21.5898 29.7929 23.9893 29.7929C26.3895 29.7929 26.3895 30.6206 28.7897 30.6206C31.1887 30.6206 31.1887 29.7929 33.5875 29.7929C35.9886 29.7929 35.9886 30.6206 38.3895 30.6206C40.7922 30.6206 40.7922 29.7929 43.1947 29.7929C45.5974 29.7929 45.5974 30.6206 48 30.6206V33.1033Z" fill="#41479B"/>
<path d="M48 23.1723C45.5973 23.1723 45.5973 22.3447 43.1947 22.3447C40.792 22.3447 40.792 23.1723 38.3895 23.1723C35.9885 23.1723 35.9885 22.3447 33.5875 22.3447C31.1886 22.3447 31.1886 23.1723 28.7897 23.1723C26.3895 23.1723 26.3895 22.3447 23.9893 22.3447C21.5897 22.3447 21.5897 23.1723 19.1902 23.1723C16.7907 23.1723 16.7906 22.3447 14.3911 22.3447C11.9917 22.3447 11.9915 23.1723 9.59198 23.1723C7.19339 23.1723 7.19339 22.3447 4.79499 22.3447C2.39771 22.3447 2.39771 23.1723 0.000343323 23.1723V20.6896C2.39762 20.6896 2.39762 19.862 4.79499 19.862C7.19349 19.862 7.19349 20.6896 9.59198 20.6896C11.9916 20.6896 11.9916 19.862 14.3911 19.862C16.7907 19.862 16.7907 20.6896 19.1902 20.6896C21.5898 20.6896 21.5898 19.862 23.9893 19.862C26.3895 19.862 26.3895 20.6896 28.7897 20.6896C31.1887 20.6896 31.1887 19.862 33.5875 19.862C35.9886 19.862 35.9886 20.6896 38.3895 20.6896C40.7922 20.6896 40.7922 19.862 43.1947 19.862C45.5974 19.862 45.5974 20.6896 48 20.6896V23.1723Z" fill="#41479B"/>
<path d="M48 18.2069C45.5973 18.2069 45.5973 17.3792 43.1947 17.3792C40.792 17.3792 40.792 18.2069 38.3895 18.2069C35.9885 18.2069 35.9885 17.3792 33.5875 17.3792C31.1886 17.3792 31.1886 18.2069 28.7897 18.2069C26.3895 18.2069 26.3895 17.3792 23.9893 17.3792C21.5897 17.3792 21.5897 18.2069 19.1902 18.2069C16.7907 18.2069 16.7906 17.3792 14.3911 17.3792C11.9917 17.3792 11.9915 18.2069 9.59198 18.2069C7.19339 18.2069 7.19339 17.3792 4.79499 17.3792C2.39771 17.3792 2.39771 18.2069 0.000343323 18.2069V15.7241C2.39762 15.7241 2.39762 14.8965 4.79499 14.8965C7.19349 14.8965 7.19349 15.7241 9.59198 15.7241C11.9916 15.7241 11.9916 14.8965 14.3911 14.8965C16.7907 14.8965 16.7907 15.7241 19.1902 15.7241C21.5898 15.7241 21.5898 14.8965 23.9893 14.8965C26.3895 14.8965 26.3895 15.7241 28.7897 15.7241C31.1887 15.7241 31.1887 14.8965 33.5875 14.8965C35.9886 14.8965 35.9886 15.7241 38.3895 15.7241C40.7922 15.7241 40.7922 14.8965 43.1947 14.8965C45.5974 14.8965 45.5974 15.7241 48 15.7241V18.2069Z" fill="#41479B"/>
<path d="M48 13.2414C45.5973 13.2414 45.5973 12.4137 43.1947 12.4137C40.792 12.4137 40.792 13.2414 38.3895 13.2414C35.9885 13.2414 35.9885 12.4137 33.5875 12.4137C31.1886 12.4137 31.1886 13.2414 28.7897 13.2414C26.3895 13.2414 26.3895 12.4137 23.9893 12.4137C21.5897 12.4137 21.5897 13.2414 19.1902 13.2414C16.7907 13.2414 16.7906 12.4137 14.3911 12.4137C11.9917 12.4137 11.9915 13.2414 9.59198 13.2414C7.19339 13.2414 7.19339 12.4137 4.79499 12.4137C2.39771 12.4137 2.39771 13.2414 0.000343323 13.2414V10.7586C2.39762 10.7586 2.39762 9.93097 4.79499 9.93097C7.19349 9.93097 7.19349 10.7586 9.59198 10.7586C11.9916 10.7586 11.9916 9.93097 14.3911 9.93097C16.7907 9.93097 16.7907 10.7586 19.1902 10.7586C21.5898 10.7586 21.5898 9.93097 23.9893 9.93097C26.3895 9.93097 26.3895 10.7586 28.7897 10.7586C31.1887 10.7586 31.1887 9.93097 33.5875 9.93097C35.9886 9.93097 35.9886 10.7586 38.3895 10.7586C40.7922 10.7586 40.7922 9.93097 43.1947 9.93097C45.5974 9.93097 45.5974 10.7586 48 10.7586V13.2414Z" fill="#41479B"/>
<path d="M48 28.1379C45.5973 28.1379 45.5973 27.3102 43.1947 27.3102C40.792 27.3102 40.792 28.1379 38.3895 28.1379C35.9885 28.1379 35.9885 27.3102 33.5875 27.3102C31.1886 27.3102 31.1886 28.1379 28.7897 28.1379C26.3895 28.1379 26.3895 27.3102 23.9893 27.3102C21.5897 27.3102 21.5897 28.1379 19.1902 28.1379C16.7907 28.1379 16.7906 27.3102 14.3911 27.3102C11.9917 27.3102 11.9915 28.1379 9.59198 28.1379C7.19339 28.1379 7.19339 27.3102 4.79499 27.3102C2.39771 27.3102 2.39771 28.1379 0.000343323 28.1379V25.6551C2.39762 25.6551 2.39762 24.8275 4.79499 24.8275C7.19349 24.8275 7.19349 25.6551 9.59198 25.6551C11.9916 25.6551 11.9916 24.8275 14.3911 24.8275C16.7907 24.8275 16.7907 25.6551 19.1902 25.6551C21.5898 25.6551 21.5898 24.8275 23.9893 24.8275C26.3895 24.8275 26.3895 25.6551 28.7897 25.6551C31.1887 25.6551 31.1887 24.8275 33.5875 24.8275C35.9886 24.8275 35.9886 25.6551 38.3895 25.6551C40.7922 25.6551 40.7922 24.8275 43.1947 24.8275C45.5974 24.8275 45.5974 25.6551 48 25.6551V28.1379Z" fill="#41479B"/>
<path d="M48 38.0689C45.5973 38.0689 45.5973 37.2413 43.1947 37.2413C40.792 37.2413 40.792 38.0689 38.3895 38.0689C35.9885 38.0689 35.9885 37.2413 33.5875 37.2413C31.1886 37.2413 31.1886 38.0689 28.7897 38.0689C26.3895 38.0689 26.3895 37.2413 23.9893 37.2413C21.5897 37.2413 21.5897 38.0689 19.1902 38.0689C16.7907 38.0689 16.7906 37.2413 14.3911 37.2413C11.9917 37.2413 11.9915 38.0689 9.59198 38.0689C7.19339 38.0689 7.19339 37.2413 4.79499 37.2413C2.39771 37.2413 2.39771 38.0689 0.000343323 38.0689V35.5861C2.39762 35.5861 2.39762 34.7585 4.79499 34.7585C7.19349 34.7585 7.19349 35.5861 9.59198 35.5861C11.9916 35.5861 11.9916 34.7585 14.3911 34.7585C16.7907 34.7585 16.7907 35.5861 19.1902 35.5861C21.5898 35.5861 21.5898 34.7585 23.9893 34.7585C26.3895 34.7585 26.3895 35.5861 28.7897 35.5861C31.1887 35.5861 31.1887 34.7585 33.5875 34.7585C35.9886 34.7585 35.9886 35.5861 38.3895 35.5861C40.7922 35.5861 40.7922 34.7585 43.1947 34.7585C45.5974 34.7585 45.5974 35.5861 48 35.5861V38.0689Z" fill="#41479B"/>
<path d="M23.1723 23.9999H0.827623C0.370593 23.9999 0 23.6293 0 23.1723V9.10347C0 8.64644 0.370593 8.27585 0.827623 8.27585H23.1723C23.6294 8.27585 24 8.64644 24 9.10347V23.1724C23.9999 23.6295 23.6295 23.9999 23.1723 23.9999Z" fill="#41479B"/>
<path d="M23.1723 8.27585H21.7349L14.0689 13.2983V8.27585H9.93101V13.2983L2.26509 8.27585H0.827623C0.370593 8.27585 0 8.64644 0 9.10347V9.75991L6.57702 14.0689H0V18.2069H6.57702L0 22.516V23.1723C0 23.6293 0.370593 23.9999 0.827623 23.9999H2.26509L9.93101 18.9775V23.9999H14.0689V18.9775L21.7348 23.9999H23.1722C23.6293 23.9999 23.9999 23.6293 23.9999 23.1723V22.5159L17.4229 18.2069H23.9999V14.0689H17.4228L23.9999 9.75991V9.10347C23.9999 8.64644 23.6295 8.27585 23.1723 8.27585Z" fill="white"/>
<path d="M23.9999 14.8966H13.2413V8.27585H10.7585V14.8966H0V17.3792H10.7585V23.9999H13.2413V17.3792H23.9999V14.8966Z" fill="#FF4B55"/>
<path d="M9.10339 14.0689L0.394405 8.41571C0.162656 8.56243 0 8.8088 0 9.10346V9.1464L7.58333 14.0689H9.10339Z" fill="#FF4B55"/>
<path d="M15.5891 14.0689L23.8742 8.69088C23.7302 8.44722 23.4761 8.27585 23.1725 8.27585H22.9935L14.0691 14.0689H15.5891Z" fill="#FF4B55"/>
<path d="M8.38813 18.2068L0.118927 23.5746C0.26152 23.8242 0.51952 23.9999 0.827582 23.9999H0.983675L9.90819 18.2068H8.38813Z" fill="#FF4B55"/>
<path d="M23.9867 23.2375L16.2368 18.2069H14.7169L23.5174 23.9195C23.7812 23.7971 23.9619 23.5407 23.9867 23.2375Z" fill="#FF4B55"/>
<path d="M36.4139 36.3175C36.0975 36.3175 35.841 36.0609 35.841 35.7446V17.4116H36.9868V35.7447C36.9869 36.0611 36.7303 36.3175 36.4139 36.3175Z" fill="#965032"/>
<path d="M44.4345 19.7031L43.2887 19.1302L39.07 18.603L41.6802 15.247L42.0852 14.0316L40.87 14.4368L37.514 17.0469L36.9868 12.8284L36.4138 11.6825L35.8409 12.8284L35.3136 17.0469L31.9576 14.4368L30.7424 14.0316L31.1475 15.247L33.7576 18.603L29.5389 19.1302L28.3931 19.7031L29.5389 20.276L33.7576 20.8035L31.1475 24.1593L30.7424 25.3747L31.9576 24.9696L35.6036 22.1339L36.4138 20.849L37.2239 22.1339L40.87 24.9696L42.0852 25.3747L41.6802 24.1593L39.07 20.8035L43.2887 20.276L44.4345 19.7031Z" fill="#73AF00"/>
<path d="M38.908 26.3756C38.3931 25.8617 37.2906 26.0506 36.7002 26.1996V25.7188C36.7002 25.5606 36.572 25.4324 36.4138 25.4324C36.2557 25.4324 36.1274 25.5606 36.1274 25.7188V26.1995C35.5372 26.0501 34.4348 25.8612 33.9197 26.3756C33.4286 26.8664 33.7844 28.0498 34.1223 28.8725V29.6343C34.1223 29.845 34.293 30.0155 34.5035 30.0155H38.3244C38.5349 30.0155 38.7055 29.8448 38.7055 29.6343V28.8725C39.0432 28.0498 39.399 26.8663 38.908 26.3756ZM38.5029 26.7807C38.7216 26.9996 38.4766 27.9588 38.0819 28.8698H36.7001V26.7914C37.3434 26.6092 38.2244 26.5016 38.5029 26.7807ZM34.3247 26.7807C34.603 26.5017 35.484 26.6093 36.1274 26.7914V28.8697H34.7456C34.351 27.9588 34.106 26.9996 34.3247 26.7807Z" fill="#FFE15A"/>
</svg>
