<svg width="48" height="48" viewBox="0 0 48 48" fill="none" xmlns="http://www.w3.org/2000/svg">
<g clip-path="url(#clip0_11_3017)">
<path d="M47.9999 18.7587H0V9.10359C0 8.64656 0.370593 8.27597 0.827623 8.27597H47.1724C47.6294 8.27597 48 8.64656 48 9.10359L47.9999 18.7587Z" fill="#73AF00"/>
<path d="M47.1723 39.7242H0.827623C0.370593 39.7242 0 39.3536 0 38.8966V29.2415H47.9999V38.8966C47.9999 39.3536 47.6293 39.7242 47.1723 39.7242Z" fill="#FF4B55"/>
<path d="M47.9999 18.7581H0V29.2403H47.9999V18.7581Z" fill="white"/>
<path d="M0.130219 18.2039H0.137437C0.209343 18.2039 0.267656 18.1457 0.267656 18.0737V17.7917C0.267656 17.7198 0.325874 17.6615 0.397874 17.6615H0.944155C1.01606 17.6615 1.07437 17.7197 1.07437 17.7917V18.0737C1.07437 18.1456 1.13259 18.2039 1.20459 18.2039H2.2829C2.35481 18.2039 2.41312 18.1457 2.41312 18.0737V17.517C2.41312 17.4451 2.3549 17.3868 2.2829 17.3868H1.74009C1.66818 17.3868 1.60987 17.445 1.60987 17.517V17.5312C1.60987 17.6031 1.66809 17.6615 1.74009 17.6615H2.01525C2.08715 17.6615 2.14546 17.7197 2.14546 17.7917V17.8058C2.14546 17.8777 2.08725 17.9361 2.01525 17.9361H1.47225C1.40034 17.9361 1.34203 17.8778 1.34203 17.8058V17.517C1.34203 17.4451 1.28381 17.3868 1.21181 17.3868H0.130219C0.0583124 17.3868 0 17.445 0 17.517V18.0737C0 18.1455 0.0582186 18.2039 0.130219 18.2039ZM0.669093 18.2039H0.676499C0.748405 18.2039 0.806717 18.1457 0.806717 18.0737V18.0663C0.806717 17.9944 0.748499 17.9361 0.676499 17.9361H0.669093C0.597186 17.9361 0.538874 17.9943 0.538874 18.0663V18.0737C0.538874 18.1455 0.597186 18.2039 0.669093 18.2039ZM0.130219 17.1122H3.35737C3.42928 17.1122 3.48759 17.054 3.48759 16.982V16.9677C3.48759 16.8958 3.42937 16.8375 3.35737 16.8375H0.130219C0.0583124 16.8375 0 16.8957 0 16.9677V16.982C0 17.054 0.0582186 17.1122 0.130219 17.1122ZM3.35728 18.2039H2.81446C2.74256 18.2039 2.68425 18.1457 2.68425 18.0737V17.517C2.68425 17.4451 2.74246 17.3868 2.81446 17.3868H3.62521C3.69712 17.3868 3.75543 17.3286 3.75543 17.2566V16.9677C3.75543 16.8958 3.81365 16.8375 3.88565 16.8375H3.89287C3.96477 16.8375 4.02309 16.8957 4.02309 16.9677V17.8058C4.02309 17.8777 4.08131 17.9361 4.1533 17.9361H4.16071C4.23262 17.9361 4.29093 17.8778 4.29093 17.8058V16.9677C4.29093 16.8958 4.34915 16.8375 4.42115 16.8375H4.42837C4.50027 16.8375 4.55859 16.8957 4.55859 16.9677V17.8058C4.55859 17.8777 4.6168 17.9361 4.6888 17.9361H4.69959C4.77149 17.9361 4.8298 17.8778 4.8298 17.8058V16.9677C4.8298 16.8958 4.88802 16.8375 4.96002 16.8375H4.96396C5.03587 16.8375 5.09418 16.8957 5.09418 16.9677V18.0737C5.09418 18.1456 5.03596 18.2039 4.96396 18.2039H3.88565C3.81374 18.2039 3.75543 18.1457 3.75543 18.0737V17.7917C3.75543 17.7198 3.69721 17.6615 3.62521 17.6615H3.0824C3.01049 17.6615 2.95218 17.7197 2.95218 17.7917V17.8058C2.95218 17.8777 3.0104 17.9361 3.0824 17.9361H3.35737C3.42928 17.9361 3.48759 17.9943 3.48759 18.0663V18.0737C3.48759 18.1455 3.42918 18.2039 3.35728 18.2039Z" fill="white"/>
<path d="M5.49542 18.2039H5.5062C5.57811 18.2039 5.63642 18.1457 5.63642 18.0737V17.7917C5.63642 17.7198 5.69464 17.6615 5.76664 17.6615H6.30608C6.37798 17.6615 6.43629 17.7197 6.43629 17.7917V18.0737C6.43629 18.1456 6.49451 18.2039 6.56651 18.2039H7.64482C7.71673 18.2039 7.77504 18.1457 7.77504 18.0737V17.517C7.77504 17.4451 7.71682 17.3868 7.64482 17.3868H7.10201C7.03011 17.3868 6.97179 17.445 6.97179 17.517V17.5312C6.97179 17.6031 7.03001 17.6615 7.10201 17.6615H7.37717C7.44907 17.6615 7.50739 17.7197 7.50739 17.7917V17.8058C7.50739 17.8777 7.44917 17.9361 7.37717 17.9361H6.83436C6.76245 17.9361 6.70414 17.8778 6.70414 17.8058V17.517C6.70414 17.4451 6.64592 17.3868 6.57392 17.3868H5.49542C5.42352 17.3868 5.3652 17.445 5.3652 17.517V18.0737C5.3653 18.1455 5.42361 18.2039 5.49542 18.2039ZM6.03101 18.2039H6.03823C6.11014 18.2039 6.16845 18.1457 6.16845 18.0737V18.0663C6.16845 17.9944 6.11023 17.9361 6.03823 17.9361H6.03101C5.95911 17.9361 5.9008 17.9943 5.9008 18.0663V18.0737C5.90089 18.1455 5.95911 18.2039 6.03101 18.2039ZM5.49542 17.1122H8.71929C8.79119 17.1122 8.84951 17.054 8.84951 16.982V16.9677C8.84951 16.8958 8.79129 16.8375 8.71929 16.8375H5.49542C5.42352 16.8375 5.3652 16.8957 5.3652 16.9677V16.982C5.3653 17.054 5.42361 17.1122 5.49542 17.1122ZM8.71929 18.2039H8.17301C8.1011 18.2039 8.04279 18.1457 8.04279 18.0737V17.517C8.04279 17.4451 8.10101 17.3868 8.17301 17.3868H8.98376C9.05566 17.3868 9.11398 17.3286 9.11398 17.2566V16.9677C9.11398 16.8958 9.17219 16.8375 9.24419 16.8375H9.25498C9.32688 16.8375 9.38519 16.8957 9.38519 16.9677V17.8058C9.38519 17.8777 9.44341 17.9361 9.51541 17.9361H9.52619C9.5981 17.9361 9.65641 17.8778 9.65641 17.8058V16.9677C9.65641 16.8958 9.71463 16.8375 9.78663 16.8375H9.79057C9.86247 16.8375 9.92079 16.8957 9.92079 16.9677V17.8058C9.92079 17.8777 9.979 17.9361 10.051 17.9361H10.0618C10.1337 17.9361 10.192 17.8778 10.192 17.8058V16.9677C10.192 16.8958 10.2502 16.8375 10.3222 16.8375H10.3294C10.4013 16.8375 10.4597 16.8957 10.4597 16.9677V18.0737C10.4597 18.1456 10.4014 18.2039 10.3294 18.2039H9.24438C9.17248 18.2039 9.11416 18.1457 9.11416 18.0737V17.7917C9.11416 17.7198 9.05594 17.6615 8.98394 17.6615H8.44451C8.3726 17.6615 8.31429 17.7197 8.31429 17.7917V17.8058C8.31429 17.8777 8.37251 17.9361 8.44451 17.9361H8.71966C8.79157 17.9361 8.84988 17.9943 8.84988 18.0663V18.0737C8.84941 18.1455 8.79119 18.2039 8.71929 18.2039Z" fill="white"/>
<path d="M10.8577 18.2039H10.8649C10.9369 18.2039 10.9952 18.1457 10.9952 18.0737V17.7917C10.9952 17.7198 11.0534 17.6615 11.1254 17.6615H11.6684C11.7403 17.6615 11.7986 17.7197 11.7986 17.7917V18.0737C11.7986 18.1456 11.8568 18.2039 11.9288 18.2039H13.0105C13.0824 18.2039 13.1407 18.1457 13.1407 18.0737V17.517C13.1407 17.4451 13.0825 17.3868 13.0105 17.3868H12.4677C12.3958 17.3868 12.3375 17.445 12.3375 17.517V17.5312C12.3375 17.6031 12.3957 17.6615 12.4677 17.6615H12.7428C12.8148 17.6615 12.8731 17.7197 12.8731 17.7917V17.8058C12.8731 17.8777 12.8148 17.9361 12.7428 17.9361H12.1966C12.1247 17.9361 12.0663 17.8778 12.0663 17.8058V17.517C12.0663 17.4451 12.0081 17.3868 11.9361 17.3868H10.8578C10.7859 17.3868 10.7276 17.445 10.7276 17.517V18.0737C10.7274 18.1455 10.7858 18.2039 10.8577 18.2039ZM11.3932 18.2039H11.4004C11.4724 18.2039 11.5307 18.1457 11.5307 18.0737V18.0663C11.5307 17.9944 11.4724 17.9361 11.4004 17.9361H11.3932C11.3213 17.9361 11.263 17.9943 11.263 18.0663V18.0737C11.263 18.1455 11.3213 18.2039 11.3932 18.2039ZM10.8577 17.1122H14.085C14.1569 17.1122 14.2152 17.054 14.2152 16.982V16.9677C14.2152 16.8958 14.157 16.8375 14.085 16.8375H10.8577C10.7858 16.8375 10.7275 16.8957 10.7275 16.9677V16.982C10.7274 17.054 10.7858 17.1122 10.8577 17.1122ZM14.085 18.2039H13.5387C13.4668 18.2039 13.4085 18.1457 13.4085 18.0737V17.517C13.4085 17.4451 13.4667 17.3868 13.5387 17.3868H14.3493C14.4212 17.3868 14.4795 17.3286 14.4795 17.2566V16.9677C14.4795 16.8958 14.5377 16.8375 14.6097 16.8375H14.6171C14.689 16.8375 14.7473 16.8957 14.7473 16.9677V17.8058C14.7473 17.8777 14.8055 17.9361 14.8775 17.9361H14.8883C14.9602 17.9361 15.0185 17.8778 15.0185 17.8058V16.9677C15.0185 16.8958 15.0768 16.8375 15.1488 16.8375H15.1595C15.2314 16.8375 15.2898 16.8957 15.2898 16.9677V17.8058C15.2898 17.8777 15.348 17.9361 15.42 17.9361H15.4239C15.4958 17.9361 15.5541 17.8778 15.5541 17.8058V16.9677C15.5541 16.8958 15.6123 16.8375 15.6843 16.8375H15.6916C15.7635 16.8375 15.8218 16.8957 15.8218 16.9677V18.0737C15.8218 18.1456 15.7636 18.2039 15.6916 18.2039H14.6097C14.5378 18.2039 14.4795 18.1457 14.4795 18.0737V17.7917C14.4795 17.7198 14.4213 17.6615 14.3493 17.6615H13.8064C13.7345 17.6615 13.6762 17.7197 13.6762 17.7917V17.8058C13.6762 17.8777 13.7344 17.9361 13.8064 17.9361H14.0852C14.1571 17.9361 14.2154 17.9943 14.2154 18.0663V18.0737C14.2152 18.1455 14.1569 18.2039 14.085 18.2039Z" fill="white"/>
<path d="M16.2192 18.2039H16.2264C16.2983 18.2039 16.3566 18.1457 16.3566 18.0737V17.7917C16.3566 17.7198 16.4149 17.6615 16.4869 17.6615H17.0297C17.1016 17.6615 17.1599 17.7197 17.1599 17.7917V18.0737C17.1599 18.1456 17.2181 18.2039 17.2901 18.2039H18.372C18.4439 18.2039 18.5022 18.1457 18.5022 18.0737V17.517C18.5022 17.4451 18.444 17.3868 18.372 17.3868H17.8257C17.7538 17.3868 17.6955 17.445 17.6955 17.517V17.5312C17.6955 17.6031 17.7537 17.6615 17.8257 17.6615H18.1009C18.1728 17.6615 18.2311 17.7197 18.2311 17.7917V17.8058C18.2311 17.8777 18.1729 17.9361 18.1009 17.9361H17.558C17.4861 17.9361 17.4278 17.8778 17.4278 17.8058V17.517C17.4278 17.4451 17.3696 17.3868 17.2976 17.3868H16.2193C16.1474 17.3868 16.0891 17.445 16.0891 17.517V18.0737C16.0891 18.1455 16.1474 18.2039 16.2192 18.2039ZM16.7548 18.2039H16.762C16.8339 18.2039 16.8922 18.1457 16.8922 18.0737V18.0663C16.8922 17.9944 16.834 17.9361 16.762 17.9361H16.7548C16.6829 17.9361 16.6246 17.9943 16.6246 18.0663V18.0737C16.6247 18.1455 16.6829 18.2039 16.7548 18.2039ZM16.2192 17.1122H19.4431C19.515 17.1122 19.5733 17.054 19.5733 16.982V16.9677C19.5733 16.8958 19.5151 16.8375 19.4431 16.8375H16.2192C16.1473 16.8375 16.089 16.8957 16.089 16.9677V16.982C16.0891 17.054 16.1474 17.1122 16.2192 17.1122ZM19.4431 18.2039H18.8968C18.8249 18.2039 18.7666 18.1457 18.7666 18.0737V17.517C18.7666 17.4451 18.8248 17.3868 18.8968 17.3868H19.7144C19.7863 17.3868 19.8446 17.3286 19.8446 17.2566V16.9677C19.8446 16.8958 19.9028 16.8375 19.9748 16.8375H19.982C20.0539 16.8375 20.1123 16.8957 20.1123 16.9677V17.8058C20.1123 17.8777 20.1705 17.9361 20.2425 17.9361H20.2464C20.3183 17.9361 20.3766 17.8778 20.3766 17.8058V16.9677C20.3766 16.8958 20.4349 16.8375 20.5069 16.8375H20.5176C20.5895 16.8375 20.6479 16.8957 20.6479 16.9677V17.8058C20.6479 17.8777 20.7061 17.9361 20.7781 17.9361H20.7855C20.8574 17.9361 20.9157 17.8778 20.9157 17.8058V16.9677C20.9157 16.8958 20.9739 16.8375 21.0459 16.8375H21.0531C21.125 16.8375 21.1834 16.8957 21.1834 16.9677V18.0737C21.1834 18.1456 21.1251 18.2039 21.0531 18.2039H19.9744C19.9025 18.2039 19.8441 18.1457 19.8441 18.0737V17.7917C19.8441 17.7198 19.7859 17.6615 19.7139 17.6615H19.1676C19.0957 17.6615 19.0374 17.7197 19.0374 17.7917V17.8058C19.0374 17.8777 19.0956 17.9361 19.1676 17.9361H19.4428C19.5147 17.9361 19.573 17.9943 19.573 18.0663V18.0737C19.5732 18.1455 19.515 18.2039 19.4431 18.2039Z" fill="white"/>
<path d="M21.5812 18.2039H21.5886C21.6605 18.2039 21.7188 18.1457 21.7188 18.0737V17.7917C21.7188 17.7198 21.777 17.6615 21.849 17.6615H22.3918C22.4637 17.6615 22.522 17.7197 22.522 17.7917V18.0737C22.522 18.1456 22.5803 18.2039 22.6523 18.2039H23.7341C23.806 18.2039 23.8644 18.1457 23.8644 18.0737V17.517C23.8644 17.4451 23.8061 17.3868 23.7341 17.3868H23.1879C23.116 17.3868 23.0576 17.445 23.0576 17.517V17.5312C23.0576 17.6031 23.1159 17.6615 23.1879 17.6615H23.4663C23.5382 17.6615 23.5965 17.7197 23.5965 17.7917V17.8058C23.5965 17.8777 23.5383 17.9361 23.4663 17.9361H22.9235C22.8516 17.9361 22.7933 17.8778 22.7933 17.8058V17.517C22.7933 17.4451 22.735 17.3868 22.663 17.3868H21.5812C21.5093 17.3868 21.451 17.445 21.451 17.517V18.0737C21.4511 18.1455 21.5093 18.2039 21.5812 18.2039ZM22.1202 18.2039H22.1242C22.1961 18.2039 22.2544 18.1457 22.2544 18.0737V18.0663C22.2544 17.9944 22.1962 17.9361 22.1242 17.9361H22.1202C22.0483 17.9361 21.99 17.9943 21.99 18.0663V18.0737C21.99 18.1455 22.0483 18.2039 22.1202 18.2039ZM21.5812 17.1122H24.8085C24.8804 17.1122 24.9387 17.054 24.9387 16.982V16.9677C24.9387 16.8958 24.8805 16.8375 24.8085 16.8375H21.5812C21.5093 16.8375 21.451 16.8957 21.451 16.9677V16.982C21.4511 17.054 21.5093 17.1122 21.5812 17.1122ZM24.8086 18.2039H24.2623C24.1904 18.2039 24.1321 18.1457 24.1321 18.0737V17.517C24.1321 17.4451 24.1903 17.3868 24.2623 17.3868H25.0765C25.1484 17.3868 25.2067 17.3286 25.2067 17.2566V16.9677C25.2067 16.8958 25.2649 16.8375 25.3369 16.8375H25.3441C25.416 16.8375 25.4743 16.8957 25.4743 16.9677V17.8058C25.4743 17.8777 25.5325 17.9361 25.6045 17.9361H25.6119C25.6839 17.9361 25.7422 17.8778 25.7422 17.8058V16.9677C25.7422 16.8958 25.8004 16.8375 25.8724 16.8375H25.8796C25.9515 16.8375 26.0098 16.8957 26.0098 16.9677V17.8058C26.0098 17.8777 26.068 17.9361 26.14 17.9361H26.1473C26.2192 17.9361 26.2775 17.8778 26.2775 17.8058V16.9677C26.2775 16.8958 26.3357 16.8375 26.4077 16.8375H26.4151C26.487 16.8375 26.5453 16.8957 26.5453 16.9677V18.0737C26.5453 18.1456 26.4871 18.2039 26.4151 18.2039H25.3368C25.2649 18.2039 25.2066 18.1457 25.2066 18.0737V17.7917C25.2066 17.7198 25.1484 17.6615 25.0764 17.6615H24.5301C24.4582 17.6615 24.3999 17.7197 24.3999 17.7917V17.8058C24.3999 17.8777 24.4581 17.9361 24.5301 17.9361H24.8085C24.8804 17.9361 24.9387 17.9943 24.9387 18.0663V18.0737C24.9387 18.1455 24.8805 18.2039 24.8086 18.2039Z" fill="white"/>
<path d="M26.9434 18.2039H26.9508C27.0227 18.2039 27.081 18.1457 27.081 18.0737V17.7917C27.081 17.7198 27.1392 17.6615 27.2112 17.6615H27.754C27.8259 17.6615 27.8842 17.7197 27.8842 17.7917V18.0737C27.8842 18.1456 27.9425 18.2039 28.0145 18.2039H29.0963C29.1682 18.2039 29.2265 18.1457 29.2265 18.0737V17.517C29.2265 17.4451 29.1683 17.3868 29.0963 17.3868H28.5533C28.4814 17.3868 28.4231 17.445 28.4231 17.517V17.5312C28.4231 17.6031 28.4813 17.6615 28.5533 17.6615H28.8251C28.897 17.6615 28.9553 17.7197 28.9553 17.7917V17.8058C28.9553 17.8777 28.8971 17.9361 28.8251 17.9361H28.2857C28.2138 17.9361 28.1555 17.8778 28.1555 17.8058V17.517C28.1555 17.4451 28.0972 17.3868 28.0252 17.3868H26.9434C26.8715 17.3868 26.8131 17.445 26.8131 17.517V18.0737C26.8131 18.1455 26.8715 18.2039 26.9434 18.2039ZM27.4823 18.2039H27.4863C27.5582 18.2039 27.6165 18.1457 27.6165 18.0737V18.0663C27.6165 17.9944 27.5583 17.9361 27.4863 17.9361H27.4823C27.4104 17.9361 27.3521 17.9943 27.3521 18.0663V18.0737C27.3522 18.1455 27.4104 18.2039 27.4823 18.2039ZM26.9434 17.1122H30.1706C30.2425 17.1122 30.3008 17.054 30.3008 16.982V16.9677C30.3008 16.8958 30.2426 16.8375 30.1706 16.8375H26.9434C26.8715 16.8375 26.8131 16.8957 26.8131 16.9677V16.982C26.8131 17.054 26.8715 17.1122 26.9434 17.1122ZM30.1707 18.2039H29.6279C29.556 18.2039 29.4977 18.1457 29.4977 18.0737V17.517C29.4977 17.4451 29.5559 17.3868 29.6279 17.3868H30.4384C30.5104 17.3868 30.5687 17.3286 30.5687 17.2566V16.9677C30.5687 16.8958 30.6269 16.8375 30.6989 16.8375H30.7063C30.7782 16.8375 30.8365 16.8957 30.8365 16.9677V17.8058C30.8365 17.8777 30.8947 17.9361 30.9667 17.9361H30.9739C31.0459 17.9361 31.1042 17.8778 31.1042 17.8058V16.9677C31.1042 16.8958 31.1624 16.8375 31.2344 16.8375H31.2418C31.3137 16.8375 31.372 16.8957 31.372 16.9677V17.8058C31.372 17.8777 31.4302 17.9361 31.5022 17.9361H31.5094C31.5814 17.9361 31.6397 17.8778 31.6397 17.8058V16.9677C31.6397 16.8958 31.6979 16.8375 31.7699 16.8375H31.7773C31.8492 16.8375 31.9075 16.8957 31.9075 16.9677V18.0737C31.9075 18.1456 31.8493 18.2039 31.7773 18.2039H30.6987C30.6268 18.2039 30.5685 18.1457 30.5685 18.0737V17.7917C30.5685 17.7198 30.5103 17.6615 30.4383 17.6615H29.8921C29.8202 17.6615 29.7619 17.7197 29.7619 17.7917V17.8058C29.7619 17.8777 29.8201 17.9361 29.8921 17.9361H30.1705C30.2424 17.9361 30.3007 17.9943 30.3007 18.0663V18.0737C30.3009 18.1455 30.2425 18.2039 30.1707 18.2039Z" fill="white"/>
<path d="M32.305 18.2039H32.3124C32.3843 18.2039 32.4426 18.1457 32.4426 18.0737V17.7917C32.4426 17.7198 32.5008 17.6615 32.5728 17.6615H33.119C33.1909 17.6615 33.2492 17.7197 33.2492 17.7917V18.0737C33.2492 18.1456 33.3075 18.2039 33.3795 18.2039H34.458C34.53 18.2039 34.5883 18.1457 34.5883 18.0737V17.517C34.5883 17.4451 34.53 17.3868 34.458 17.3868H33.9151C33.8431 17.3868 33.7848 17.445 33.7848 17.517V17.5312C33.7848 17.6031 33.8431 17.6615 33.9151 17.6615H34.1938C34.2657 17.6615 34.324 17.7197 34.324 17.7917V17.8058C34.324 17.8777 34.2658 17.9361 34.1938 17.9361H33.6439C33.572 17.9361 33.5137 17.8778 33.5137 17.8058V17.517C33.5137 17.4451 33.4555 17.3868 33.3835 17.3868H32.3052C32.2333 17.3868 32.175 17.445 32.175 17.517V18.0737C32.1749 18.1455 32.2331 18.2039 32.305 18.2039ZM32.8406 18.2039H32.8514C32.9233 18.2039 32.9816 18.1457 32.9816 18.0737V18.0663C32.9816 17.9944 32.9234 17.9361 32.8514 17.9361H32.8406C32.7687 17.9361 32.7104 17.9943 32.7104 18.0663V18.0737C32.7104 18.1455 32.7687 18.2039 32.8406 18.2039ZM32.305 17.1122H35.5322C35.6041 17.1122 35.6625 17.054 35.6625 16.982V16.9677C35.6625 16.8958 35.6042 16.8375 35.5322 16.8375H32.305C32.2331 16.8375 32.1748 16.8957 32.1748 16.9677V16.982C32.1749 17.054 32.2331 17.1122 32.305 17.1122ZM35.5324 18.2039H34.9896C34.9177 18.2039 34.8594 18.1457 34.8594 18.0737V17.517C34.8594 17.4451 34.9176 17.3868 34.9896 17.3868H35.8002C35.8721 17.3868 35.9304 17.3286 35.9304 17.2566V16.9677C35.9304 16.8958 35.9886 16.8375 36.0606 16.8375H36.068C36.1399 16.8375 36.1982 16.8957 36.1982 16.9677V17.8058C36.1982 17.8777 36.2565 17.9361 36.3285 17.9361H36.3357C36.4076 17.9361 36.4659 17.8778 36.4659 17.8058V16.9677C36.4659 16.8958 36.5241 16.8375 36.5961 16.8375H36.6035C36.6754 16.8375 36.7337 16.8957 36.7337 16.9677V17.8058C36.7337 17.8777 36.7919 17.9361 36.8639 17.9361H36.8747C36.9466 17.9361 37.0049 17.8778 37.0049 17.8058V16.9677C37.0049 16.8958 37.0632 16.8375 37.1352 16.8375H37.1389C37.2108 16.8375 37.2691 16.8957 37.2691 16.9677V18.0737C37.2691 18.1456 37.2109 18.2039 37.1389 18.2039H36.0606C35.9887 18.2039 35.9304 18.1457 35.9304 18.0737V17.7917C35.9304 17.7198 35.8722 17.6615 35.8002 17.6615H35.2607C35.1888 17.6615 35.1305 17.7197 35.1305 17.7917V17.8058C35.1305 17.8777 35.1887 17.9361 35.2607 17.9361H35.5325C35.6044 17.9361 35.6627 17.9943 35.6627 18.0663V18.0737C35.6625 18.1455 35.6043 18.2039 35.5324 18.2039Z" fill="white"/>
<path d="M37.6704 18.2039H37.6743C37.7463 18.2039 37.8046 18.1457 37.8046 18.0737V17.7917C37.8046 17.7198 37.8628 17.6615 37.9348 17.6615H38.4778C38.5497 17.6615 38.608 17.7197 38.608 17.7917V18.0737C38.608 18.1456 38.6662 18.2039 38.7382 18.2039H39.8199C39.8918 18.2039 39.9501 18.1457 39.9501 18.0737V17.517C39.9501 17.4451 39.8919 17.3868 39.8199 17.3868H39.2807C39.2088 17.3868 39.1504 17.445 39.1504 17.517V17.5312C39.1504 17.6031 39.2087 17.6615 39.2807 17.6615H39.5556C39.6275 17.6615 39.6858 17.7197 39.6858 17.7917V17.8058C39.6858 17.8777 39.6276 17.9361 39.5556 17.9361H39.0094C38.9375 17.9361 38.8792 17.8778 38.8792 17.8058V17.517C38.8792 17.4451 38.821 17.3868 38.749 17.3868H37.6704C37.5985 17.3868 37.5402 17.445 37.5402 17.517V18.0737C37.5401 18.1455 37.5985 18.2039 37.6704 18.2039ZM38.2059 18.2039H38.2133C38.2852 18.2039 38.3435 18.1457 38.3435 18.0737V18.0663C38.3435 17.9944 38.2853 17.9361 38.2133 17.9361H38.2059C38.134 17.9361 38.0757 17.9943 38.0757 18.0663V18.0737C38.0757 18.1455 38.134 18.2039 38.2059 18.2039ZM37.6704 17.1122H40.9012C40.9731 17.1122 41.0314 17.054 41.0314 16.982V16.9677C41.0314 16.8958 40.9732 16.8375 40.9012 16.8375H37.6704C37.5985 16.8375 37.5402 16.8957 37.5402 16.9677V16.982C37.5401 17.054 37.5985 17.1122 37.6704 17.1122ZM40.9011 18.2039H40.3513C40.2794 18.2039 40.2211 18.1457 40.2211 18.0737V17.517C40.2211 17.4451 40.2793 17.3868 40.3513 17.3868H41.162C41.2339 17.3868 41.2922 17.3286 41.2922 17.2566V16.9677C41.2922 16.8958 41.3505 16.8375 41.4225 16.8375H41.4332C41.5052 16.8375 41.5635 16.8957 41.5635 16.9677V17.8058C41.5635 17.8777 41.6217 17.9361 41.6937 17.9361H41.7009C41.7728 17.9361 41.8311 17.8778 41.8311 17.8058V16.9677C41.8311 16.8958 41.8893 16.8375 41.9613 16.8375H41.9653C42.0372 16.8375 42.0955 16.8957 42.0955 16.9677V17.8058C42.0955 17.8777 42.1537 17.9361 42.2257 17.9361H42.2365C42.3084 17.9361 42.3667 17.8778 42.3667 17.8058V16.9677C42.3667 16.8958 42.4249 16.8375 42.4969 16.8375H42.5043C42.5762 16.8375 42.6346 16.8957 42.6346 16.9677V18.0737C42.6346 18.1456 42.5763 18.2039 42.5043 18.2039H41.4225C41.3506 18.2039 41.2922 18.1457 41.2922 18.0737V17.7917C41.2922 17.7198 41.234 17.6615 41.162 17.6615H40.6192C40.5473 17.6615 40.489 17.7197 40.489 17.7917V17.8058C40.489 17.8777 40.5472 17.9361 40.6192 17.9361H40.9012C40.9731 17.9361 41.0314 17.9943 41.0314 18.0663V18.0737C41.0314 18.1455 40.973 18.2039 40.9011 18.2039Z" fill="white"/>
<path d="M43.0324 18.2039H43.0398C43.1117 18.2039 43.17 18.1457 43.17 18.0737V17.7917C43.17 17.7198 43.2282 17.6615 43.3002 17.6615H43.843C43.9149 17.6615 43.9732 17.7197 43.9732 17.7917V18.0737C43.9732 18.1456 44.0314 18.2039 44.1034 18.2039H45.1853C45.2572 18.2039 45.3155 18.1457 45.3155 18.0737V17.517C45.3155 17.4451 45.2573 17.3868 45.1853 17.3868H44.6459C44.574 17.3868 44.5157 17.445 44.5157 17.517V17.5312C44.5157 17.6031 44.5739 17.6615 44.6459 17.6615H44.921C44.993 17.6615 45.0513 17.7197 45.0513 17.7917V17.8058C45.0513 17.8777 44.993 17.9361 44.921 17.9361H44.3712C44.2993 17.9361 44.241 17.8778 44.241 17.8058V17.517C44.241 17.4451 44.1828 17.3868 44.1108 17.3868H43.0324C42.9605 17.3868 42.9022 17.445 42.9022 17.517V18.0737C42.9022 18.1455 42.9605 18.2039 43.0324 18.2039ZM43.5679 18.2039H43.5754C43.6473 18.2039 43.7056 18.1457 43.7056 18.0737V18.0663C43.7056 17.9944 43.6474 17.9361 43.5754 17.9361H43.5679C43.496 17.9361 43.4377 17.9943 43.4377 18.0663V18.0737C43.4378 18.1455 43.496 18.2039 43.5679 18.2039ZM43.0324 17.1122H46.2562C46.3281 17.1122 46.3865 17.054 46.3865 16.982V16.9677C46.3865 16.8958 46.3282 16.8375 46.2562 16.8375H43.0324C42.9604 16.8375 42.9021 16.8957 42.9021 16.9677V16.982C42.9022 17.054 42.9605 17.1122 43.0324 17.1122ZM46.2562 18.2039H45.7134C45.6415 18.2039 45.5832 18.1457 45.5832 18.0737V17.517C45.5832 17.4451 45.6414 17.3868 45.7134 17.3868H46.531C46.6029 17.3868 46.6612 17.3286 46.6612 17.2566V16.9677C46.6612 16.8958 46.7195 16.8375 46.7915 16.8375H46.7918C46.8637 16.8375 46.9221 16.8957 46.9221 16.9677V17.8058C46.9221 17.8777 46.9803 17.9361 47.0523 17.9361H47.0665C47.1384 17.9361 47.1967 17.8778 47.1967 17.8058V16.9677C47.1967 16.8958 47.255 16.8375 47.327 16.8375H47.3273C47.3992 16.8375 47.4576 16.8957 47.4576 16.9677V17.8058C47.4576 17.8777 47.5158 17.9361 47.5878 17.9361H47.5952C47.6671 17.9361 47.7254 17.8778 47.7254 17.8058V16.9677C47.7254 16.8958 47.7836 16.8375 47.8556 16.8375H47.8698C47.9417 16.8375 48 16.8957 48 16.9677V18.0737C48 18.1456 47.9418 18.2039 47.8698 18.2039H46.7915C46.7196 18.2039 46.6612 18.1457 46.6612 18.0737V17.7917C46.6612 17.7198 46.603 17.6615 46.531 17.6615H45.9813C45.9094 17.6615 45.851 17.7197 45.851 17.7917V17.8058C45.851 17.8777 45.9093 17.9361 45.9813 17.9361H46.2562C46.3281 17.9361 46.3865 17.9943 46.3865 18.0663V18.0737C46.3865 18.1455 46.3281 18.2039 46.2562 18.2039Z" fill="white"/>
<path d="M0.130219 19.0345H2.283C2.3549 19.0345 2.41321 18.9762 2.41321 18.9042V18.6154C2.41321 18.5435 2.355 18.4852 2.283 18.4852H0.130219C0.0583124 18.4852 0 18.5434 0 18.6154V18.9042C0 18.9762 0.0582186 19.0345 0.130219 19.0345ZM2.81456 19.0345H4.96396C5.03587 19.0345 5.09418 18.9762 5.09418 18.9042V18.6154C5.09418 18.5435 5.03596 18.4852 4.96396 18.4852H2.81456C2.74265 18.4852 2.68434 18.5434 2.68434 18.6154V18.9042C2.68434 18.9762 2.74265 19.0345 2.81456 19.0345Z" fill="white"/>
<path d="M5.49542 19.0345H7.64482C7.71673 19.0345 7.77504 18.9762 7.77504 18.9042V18.6154C7.77504 18.5435 7.71682 18.4852 7.64482 18.4852H5.49542C5.42352 18.4852 5.3652 18.5434 5.3652 18.6154V18.9042C5.3653 18.9762 5.42361 19.0345 5.49542 19.0345ZM8.17301 19.0345H10.3293C10.4012 19.0345 10.4595 18.9762 10.4595 18.9042V18.6154C10.4595 18.5435 10.4013 18.4852 10.3293 18.4852H8.17301C8.1011 18.4852 8.04279 18.5434 8.04279 18.6154V18.9042C8.04279 18.9762 8.1011 19.0345 8.17301 19.0345Z" fill="white"/>
<path d="M10.8577 19.0345H13.0105C13.0824 19.0345 13.1407 18.9762 13.1407 18.9042V18.6154C13.1407 18.5435 13.0825 18.4852 13.0105 18.4852H10.8577C10.7858 18.4852 10.7275 18.5434 10.7275 18.6154V18.9042C10.7274 18.9762 10.7858 19.0345 10.8577 19.0345ZM13.5386 19.0345H15.6914C15.7633 19.0345 15.8216 18.9762 15.8216 18.9042V18.6154C15.8216 18.5435 15.7634 18.4852 15.6914 18.4852H13.5386C13.4667 18.4852 13.4084 18.5434 13.4084 18.6154V18.9042C13.4085 18.9762 13.4668 19.0345 13.5386 19.0345Z" fill="white"/>
<path d="M16.2192 19.0345H18.372C18.4439 19.0345 18.5022 18.9762 18.5022 18.9042V18.6154C18.5022 18.5435 18.444 18.4852 18.372 18.4852H16.2192C16.1473 18.4852 16.089 18.5434 16.089 18.6154V18.9042C16.0891 18.9762 16.1474 19.0345 16.2192 19.0345ZM18.8968 19.0345H21.053C21.1249 19.0345 21.1833 18.9762 21.1833 18.9042V18.6154C21.1833 18.5435 21.125 18.4852 21.053 18.4852H18.8968C18.8249 18.4852 18.7666 18.5434 18.7666 18.6154V18.9042C18.7666 18.9762 18.8248 19.0345 18.8968 19.0345Z" fill="white"/>
<path d="M21.5812 19.0345H23.7341C23.806 19.0345 23.8644 18.9762 23.8644 18.9042V18.6154C23.8644 18.5435 23.8061 18.4852 23.7341 18.4852H21.5812C21.5093 18.4852 21.451 18.5434 21.451 18.6154V18.9042C21.4511 18.9762 21.5093 19.0345 21.5812 19.0345ZM24.2621 19.0345H26.4151C26.487 19.0345 26.5453 18.9762 26.5453 18.9042V18.6154C26.5453 18.5435 26.4871 18.4852 26.4151 18.4852H24.2621C24.1902 18.4852 24.1319 18.5434 24.1319 18.6154V18.9042C24.132 18.9762 24.1902 19.0345 24.2621 19.0345Z" fill="white"/>
<path d="M26.9434 19.0345H29.0963C29.1682 19.0345 29.2265 18.9762 29.2265 18.9042V18.6154C29.2265 18.5435 29.1683 18.4852 29.0963 18.4852H26.9434C26.8715 18.4852 26.8131 18.5434 26.8131 18.6154V18.9042C26.8131 18.9762 26.8715 19.0345 26.9434 19.0345ZM29.6279 19.0345H31.7773C31.8492 19.0345 31.9075 18.9762 31.9075 18.9042V18.6154C31.9075 18.5435 31.8493 18.4852 31.7773 18.4852H29.6279C29.556 18.4852 29.4977 18.5434 29.4977 18.6154V18.9042C29.4977 18.9762 29.556 19.0345 29.6279 19.0345Z" fill="white"/>
<path d="M32.305 19.0345H34.458C34.5299 19.0345 34.5882 18.9762 34.5882 18.9042V18.6154C34.5882 18.5435 34.53 18.4852 34.458 18.4852H32.305C32.2331 18.4852 32.1748 18.5434 32.1748 18.6154V18.9042C32.1749 18.9762 32.2331 19.0345 32.305 19.0345ZM34.9895 19.0345H37.1387C37.2106 19.0345 37.269 18.9762 37.269 18.9042V18.6154C37.269 18.5435 37.2107 18.4852 37.1387 18.4852H34.9895C34.9176 18.4852 34.8593 18.5434 34.8593 18.6154V18.9042C34.8594 18.9762 34.9176 19.0345 34.9895 19.0345Z" fill="white"/>
<path d="M37.6704 19.0345H39.8198C39.8917 19.0345 39.95 18.9762 39.95 18.9042V18.6154C39.95 18.5435 39.8918 18.4852 39.8198 18.4852H37.6704C37.5985 18.4852 37.5402 18.5434 37.5402 18.6154V18.9042C37.5401 18.9762 37.5985 19.0345 37.6704 19.0345ZM40.3514 19.0345H42.5043C42.5762 19.0345 42.6346 18.9762 42.6346 18.9042V18.6154C42.6346 18.5435 42.5763 18.4852 42.5043 18.4852H40.3514C40.2795 18.4852 40.2212 18.5434 40.2212 18.6154V18.9042C40.2212 18.9762 40.2795 19.0345 40.3514 19.0345Z" fill="white"/>
<path d="M43.0324 19.0345H45.1853C45.2572 19.0345 45.3155 18.9762 45.3155 18.9042V18.6154C45.3155 18.5435 45.2573 18.4852 45.1853 18.4852H43.0324C42.9604 18.4852 42.9021 18.5434 42.9021 18.6154V18.9042C42.9022 18.9762 42.9605 19.0345 43.0324 19.0345ZM45.7135 19.0345H47.8698C47.9417 19.0345 48 18.9762 48 18.9042V18.6154C48 18.5435 47.9418 18.4852 47.8698 18.4852H45.7135C45.6416 18.4852 45.5833 18.5434 45.5833 18.6154V18.9042C45.5832 18.9762 45.6415 19.0345 45.7135 19.0345Z" fill="white"/>
<path d="M47.8696 29.796H47.8624C47.7904 29.796 47.7321 29.8542 47.7321 29.9262V30.2082C47.7321 30.2801 47.6739 30.3384 47.6019 30.3384H47.0556C46.9837 30.3384 46.9254 30.2802 46.9254 30.2082V29.9262C46.9254 29.8543 46.8672 29.796 46.7952 29.796H45.7169C45.645 29.796 45.5867 29.8542 45.5867 29.9262V30.483C45.5867 30.5549 45.6449 30.6132 45.7169 30.6132H46.2597C46.3316 30.6132 46.3899 30.555 46.3899 30.483V30.4687C46.3899 30.3968 46.3317 30.3385 46.2597 30.3385H45.9845C45.9126 30.3385 45.8543 30.2803 45.8543 30.2083V30.1941C45.8543 30.1222 45.9125 30.0639 45.9845 30.0639H46.5275C46.5994 30.0639 46.6578 30.1221 46.6578 30.1941V30.483C46.6578 30.5549 46.716 30.6132 46.788 30.6132H47.8697C47.9416 30.6132 47.9999 30.555 47.9999 30.483V29.9262C47.9998 29.8543 47.9416 29.796 47.8696 29.796ZM47.3307 29.796H47.3233C47.2514 29.796 47.1931 29.8542 47.1931 29.9262V29.9336C47.1931 30.0055 47.2513 30.0638 47.3233 30.0638H47.3307C47.4026 30.0638 47.4609 30.0056 47.4609 29.9336V29.9262C47.4609 29.8543 47.4026 29.796 47.3307 29.796ZM47.8696 30.8877H44.6424C44.5705 30.8877 44.5122 30.9459 44.5122 31.0179V31.0321C44.5122 31.1041 44.5704 31.1624 44.6424 31.1624H47.8696C47.9415 31.1624 47.9998 31.1041 47.9998 31.0321V31.0179C47.9998 30.9459 47.9416 30.8877 47.8696 30.8877ZM44.6425 29.796H45.1853C45.2572 29.796 45.3155 29.8542 45.3155 29.9262V30.483C45.3155 30.5549 45.2573 30.6132 45.1853 30.6132H44.3746C44.3027 30.6132 44.2444 30.6714 44.2444 30.7434V31.0322C44.2444 31.1041 44.1861 31.1625 44.1141 31.1625H44.1069C44.035 31.1625 43.9767 31.1042 43.9767 31.0322V30.1941C43.9767 30.1222 43.9185 30.0639 43.8465 30.0639H43.8391C43.7672 30.0639 43.7089 30.1221 43.7089 30.1941V31.0322C43.7089 31.1041 43.6506 31.1625 43.5786 31.1625H43.5714C43.4995 31.1625 43.4412 31.1042 43.4412 31.0322V30.1941C43.4412 30.1222 43.383 30.0639 43.311 30.0639H43.3002C43.2283 30.0639 43.17 30.1221 43.17 30.1941V31.0322C43.17 31.1041 43.1118 31.1625 43.0398 31.1625H43.0358C42.9639 31.1625 42.9056 31.1042 42.9056 31.0322V29.9263C42.9056 29.8544 42.9638 29.7961 43.0358 29.7961H44.1141C44.186 29.7961 44.2444 29.8543 44.2444 29.9263V30.2083C44.2444 30.2802 44.3026 30.3385 44.3746 30.3385H44.9174C44.9893 30.3385 45.0476 30.2803 45.0476 30.2083V30.1941C45.0476 30.1222 44.9894 30.0639 44.9174 30.0639H44.6424C44.5705 30.0639 44.5122 30.0057 44.5122 29.9337V29.9263C44.5122 29.8543 44.5706 29.796 44.6425 29.796Z" fill="white"/>
<path d="M42.5043 29.796H42.4935C42.4216 29.796 42.3633 29.8542 42.3633 29.9262V30.2082C42.3633 30.2801 42.3051 30.3384 42.2331 30.3384H41.6937C41.6218 30.3384 41.5634 30.2802 41.5634 30.2082V29.9262C41.5634 29.8543 41.5052 29.796 41.4332 29.796H40.3549C40.283 29.796 40.2247 29.8542 40.2247 29.9262V30.483C40.2247 30.5549 40.2829 30.6132 40.3549 30.6132H40.8977C40.9696 30.6132 41.0279 30.555 41.0279 30.483V30.4687C41.0279 30.3968 40.9697 30.3385 40.8977 30.3385H40.6226C40.5507 30.3385 40.4923 30.2803 40.4923 30.2083V30.1941C40.4923 30.1222 40.5506 30.0639 40.6226 30.0639H41.1656C41.2375 30.0639 41.2958 30.1221 41.2958 30.1941V30.483C41.2958 30.5549 41.354 30.6132 41.426 30.6132H42.5043C42.5762 30.6132 42.6345 30.555 42.6345 30.483V29.9262C42.6344 29.8543 42.5761 29.796 42.5043 29.796ZM41.9687 29.796H41.9615C41.8896 29.796 41.8313 29.8542 41.8313 29.9262V29.9336C41.8313 30.0055 41.8895 30.0638 41.9615 30.0638H41.9687C42.0406 30.0638 42.0989 30.0056 42.0989 29.9336V29.9262C42.0988 29.8543 42.0406 29.796 41.9687 29.796ZM42.5043 30.8877H39.2804C39.2085 30.8877 39.1502 30.9459 39.1502 31.0179V31.0321C39.1502 31.1041 39.2084 31.1624 39.2804 31.1624H42.5043C42.5762 31.1624 42.6345 31.1041 42.6345 31.0321V31.0179C42.6344 30.9459 42.5761 30.8877 42.5043 30.8877ZM39.2804 29.796H39.8267C39.8986 29.796 39.9569 29.8542 39.9569 29.9262V30.483C39.9569 30.5549 39.8987 30.6132 39.8267 30.6132H39.016C38.9441 30.6132 38.8858 30.6714 38.8858 30.7434V31.0322C38.8858 31.1041 38.8275 31.1625 38.7555 31.1625H38.7448C38.6729 31.1625 38.6145 31.1042 38.6145 31.0322V30.1941C38.6145 30.1222 38.5563 30.0639 38.4843 30.0639H38.4735C38.4016 30.0639 38.3433 30.1221 38.3433 30.1941V31.0322C38.3433 31.1041 38.2851 31.1625 38.2131 31.1625H38.2092C38.1373 31.1625 38.0789 31.1042 38.0789 31.0322V30.1941C38.0789 30.1222 38.0207 30.0639 37.9487 30.0639H37.9379C37.866 30.0639 37.8077 30.1221 37.8077 30.1941V31.0322C37.8077 31.1041 37.7495 31.1625 37.6775 31.1625H37.6703C37.5984 31.1625 37.5401 31.1042 37.5401 31.0322V29.9263C37.5401 29.8544 37.5983 29.7961 37.6703 29.7961H38.7554C38.8274 29.7961 38.8857 29.8543 38.8857 29.9263V30.2083C38.8857 30.2802 38.9439 30.3385 39.0159 30.3385H39.5553C39.6272 30.3385 39.6855 30.2803 39.6855 30.2083V30.1941C39.6855 30.1222 39.6273 30.0639 39.5553 30.0639H39.2802C39.2083 30.0639 39.1499 30.0057 39.1499 29.9337V29.9263C39.1502 29.8543 39.2085 29.796 39.2804 29.796Z" fill="white"/>
<path d="M37.1425 29.796H37.1353C37.0634 29.796 37.0051 29.8542 37.0051 29.9262V30.2082C37.0051 30.2801 36.9469 30.3384 36.8749 30.3384H36.3319C36.26 30.3384 36.2016 30.2802 36.2016 30.2082V29.9262C36.2016 29.8543 36.1434 29.796 36.0714 29.796H34.9897C34.9178 29.796 34.8595 29.8542 34.8595 29.9262V30.483C34.8595 30.5549 34.9177 30.6132 34.9897 30.6132H35.5326C35.6045 30.6132 35.6628 30.555 35.6628 30.483V30.4687C35.6628 30.3968 35.6046 30.3385 35.5326 30.3385H35.2574C35.1855 30.3385 35.1272 30.2803 35.1272 30.2083V30.1941C35.1272 30.1222 35.1854 30.0639 35.2574 30.0639H35.8037C35.8756 30.0639 35.9339 30.1221 35.9339 30.1941V30.483C35.9339 30.5549 35.9921 30.6132 36.0641 30.6132H37.1424C37.2143 30.6132 37.2726 30.555 37.2726 30.483V29.9262C37.2728 29.8543 37.2144 29.796 37.1425 29.796ZM36.607 29.796H36.5998C36.5279 29.796 36.4696 29.8542 36.4696 29.9262V29.9336C36.4696 30.0055 36.5278 30.0638 36.5998 30.0638H36.607C36.6789 30.0638 36.7372 30.0056 36.7372 29.9336V29.9262C36.7372 29.8543 36.6789 29.796 36.607 29.796ZM37.1425 30.8877H33.9152C33.8433 30.8877 33.785 30.9459 33.785 31.0179V31.0321C33.785 31.1041 33.8432 31.1624 33.9152 31.1624H37.1425C37.2144 31.1624 37.2727 31.1041 37.2727 31.0321V31.0179C37.2728 30.9459 37.2144 30.8877 37.1425 30.8877ZM33.9153 29.796H34.4616C34.5335 29.796 34.5918 29.8542 34.5918 29.9262V30.483C34.5918 30.5549 34.5336 30.6132 34.4616 30.6132H33.651C33.5791 30.6132 33.5208 30.6714 33.5208 30.7434V31.0322C33.5208 31.1041 33.4626 31.1625 33.3906 31.1625H33.3832C33.3112 31.1625 33.2529 31.1042 33.2529 31.0322V30.1941C33.2529 30.1222 33.1947 30.0639 33.1227 30.0639H33.1119C33.04 30.0639 32.9817 30.1221 32.9817 30.1941V31.0322C32.9817 31.1041 32.9235 31.1625 32.8515 31.1625H32.8407C32.7688 31.1625 32.7105 31.1042 32.7105 31.0322V30.1941C32.7105 30.1222 32.6523 30.0639 32.5803 30.0639H32.5763C32.5044 30.0639 32.4461 30.1221 32.4461 30.1941V31.0322C32.4461 31.1041 32.3879 31.1625 32.3159 31.1625H32.3087C32.2368 31.1625 32.1785 31.1042 32.1785 31.0322V29.9263C32.1785 29.8544 32.2367 29.7961 32.3087 29.7961H33.3906C33.4625 29.7961 33.5208 29.8543 33.5208 29.9263V30.2083C33.5208 30.2802 33.579 30.3385 33.651 30.3385H34.1938C34.2657 30.3385 34.324 30.2803 34.324 30.2083V30.1941C34.324 30.1222 34.2658 30.0639 34.1938 30.0639H33.9151C33.8432 30.0639 33.7849 30.0057 33.7849 29.9337V29.9263C33.7851 29.8543 33.8434 29.796 33.9153 29.796Z" fill="white"/>
<path d="M31.7805 29.796H31.7733C31.7014 29.796 31.6431 29.8542 31.6431 29.9262V30.2082C31.6431 30.2801 31.5849 30.3384 31.5129 30.3384H30.9701C30.8981 30.3384 30.8398 30.2802 30.8398 30.2082V29.9262C30.8398 29.8543 30.7816 29.796 30.7096 29.796H29.6277C29.5558 29.796 29.4975 29.8542 29.4975 29.9262V30.483C29.4975 30.5549 29.5557 30.6132 29.6277 30.6132H30.174C30.2459 30.6132 30.3042 30.555 30.3042 30.483V30.4687C30.3042 30.3968 30.246 30.3385 30.174 30.3385H29.8989C29.827 30.3385 29.7687 30.2803 29.7687 30.2083V30.1941C29.7687 30.1222 29.8269 30.0639 29.8989 30.0639H30.4417C30.5136 30.0639 30.5719 30.1221 30.5719 30.1941V30.483C30.5719 30.5549 30.6301 30.6132 30.7021 30.6132H31.7804C31.8523 30.6132 31.9107 30.555 31.9107 30.483V29.9262C31.9107 29.8543 31.8523 29.796 31.7805 29.796ZM31.2449 29.796H31.2377C31.1658 29.796 31.1075 29.8542 31.1075 29.9262V29.9336C31.1075 30.0055 31.1657 30.0638 31.2377 30.0638H31.2449C31.3168 30.0638 31.3752 30.0056 31.3752 29.9336V29.9262C31.3751 29.8543 31.3168 29.796 31.2449 29.796ZM31.7805 30.8877H28.5567C28.4847 30.8877 28.4264 30.9459 28.4264 31.0179V31.0321C28.4264 31.1041 28.4847 31.1624 28.5567 31.1624H31.7805C31.8524 31.1624 31.9107 31.1041 31.9107 31.0321V31.0179C31.9106 30.9459 31.8523 30.8877 31.7805 30.8877ZM28.5567 29.796H29.1029C29.1748 29.796 29.2332 29.8542 29.2332 29.9262V30.483C29.2332 30.5549 29.1749 30.6132 29.1029 30.6132H28.2853C28.2134 30.6132 28.1551 30.6714 28.1551 30.7434V31.0322C28.1551 31.1041 28.0969 31.1625 28.0249 31.1625H28.0177C27.9458 31.1625 27.8875 31.1042 27.8875 31.0322V30.1941C27.8875 30.1222 27.8293 30.0639 27.7573 30.0639H27.7533C27.6814 30.0639 27.6231 30.1221 27.6231 30.1941V31.0322C27.6231 31.1041 27.5649 31.1625 27.4929 31.1625H27.4821C27.4102 31.1625 27.3519 31.1042 27.3519 31.0322V30.1941C27.3519 30.1222 27.2937 30.0639 27.2217 30.0639H27.2143C27.1423 30.0639 27.084 30.1221 27.084 30.1941V31.0322C27.084 31.1041 27.0258 31.1625 26.9538 31.1625H26.9466C26.8747 31.1625 26.8164 31.1042 26.8164 31.0322V29.9263C26.8164 29.8544 26.8746 29.7961 26.9466 29.7961H28.0249C28.0968 29.7961 28.1551 29.8543 28.1551 29.9263V30.2083C28.1551 30.2802 28.2133 30.3385 28.2853 30.3385H28.8316C28.9035 30.3385 28.9618 30.2803 28.9618 30.2083V30.1941C28.9618 30.1222 28.9036 30.0639 28.8316 30.0639H28.5565C28.4846 30.0639 28.4262 30.0057 28.4262 29.9337V29.9263C28.4265 29.8543 28.4847 29.796 28.5567 29.796Z" fill="white"/>
<path d="M26.4186 29.796H26.4112C26.3393 29.796 26.281 29.8542 26.281 29.9262V30.2082C26.281 30.2801 26.2227 30.3384 26.1507 30.3384H25.6079C25.536 30.3384 25.4777 30.2802 25.4777 30.2082V29.9262C25.4777 29.8543 25.4195 29.796 25.3475 29.796H24.2656C24.1937 29.796 24.1354 29.8542 24.1354 29.9262V30.483C24.1354 30.5549 24.1936 30.6132 24.2656 30.6132H24.8119C24.8838 30.6132 24.9421 30.555 24.9421 30.483V30.4687C24.9421 30.3968 24.8839 30.3385 24.8119 30.3385H24.5335C24.4616 30.3385 24.4032 30.2803 24.4032 30.2083V30.1941C24.4032 30.1222 24.4615 30.0639 24.5335 30.0639H25.0763C25.1482 30.0639 25.2065 30.1221 25.2065 30.1941V30.483C25.2065 30.5549 25.2647 30.6132 25.3367 30.6132H26.4186C26.4905 30.6132 26.5488 30.555 26.5488 30.483V29.9262C26.5487 29.8543 26.4905 29.796 26.4186 29.796ZM25.8795 29.796H25.8756C25.8037 29.796 25.7454 29.8542 25.7454 29.9262V29.9336C25.7454 30.0055 25.8036 30.0638 25.8756 30.0638H25.8795C25.9514 30.0638 26.0097 30.0056 26.0097 29.9336V29.9262C26.0097 29.8543 25.9514 29.796 25.8795 29.796ZM26.4186 30.8877H23.1912C23.1193 30.8877 23.061 30.9459 23.061 31.0179V31.0321C23.061 31.1041 23.1192 31.1624 23.1912 31.1624H26.4186C26.4905 31.1624 26.5488 31.1041 26.5488 31.0321V31.0179C26.5487 30.9459 26.4905 30.8877 26.4186 30.8877ZM23.1912 29.796H23.7374C23.8093 29.796 23.8677 29.8542 23.8677 29.9262V30.483C23.8677 30.5549 23.8094 30.6132 23.7374 30.6132H22.9233C22.8514 30.6132 22.7931 30.6714 22.7931 30.7434V31.0322C22.7931 31.1041 22.7349 31.1625 22.6629 31.1625H22.6557C22.5837 31.1625 22.5254 31.1042 22.5254 31.0322V30.1941C22.5254 30.1222 22.4672 30.0639 22.3952 30.0639H22.3878C22.3159 30.0639 22.2576 30.1221 22.2576 30.1941V31.0322C22.2576 31.1041 22.1994 31.1625 22.1274 31.1625H22.1202C22.0482 31.1625 21.9899 31.1042 21.9899 31.0322V30.1941C21.9899 30.1222 21.9317 30.0639 21.8597 30.0639H21.8525C21.7806 30.0639 21.7223 30.1221 21.7223 30.1941V31.0322C21.7223 31.1041 21.6641 31.1625 21.5921 31.1625H21.5847C21.5128 31.1625 21.4544 31.1042 21.4544 31.0322V29.9263C21.4544 29.8544 21.5127 29.7961 21.5847 29.7961H22.663C22.7349 29.7961 22.7932 29.8543 22.7932 29.9263V30.2083C22.7932 30.2802 22.8514 30.3385 22.9234 30.3385H23.4697C23.5416 30.3385 23.5999 30.2803 23.5999 30.2083V30.1941C23.5999 30.1222 23.5417 30.0639 23.4697 30.0639H23.1912C23.1193 30.0639 23.061 30.0057 23.061 29.9337V29.9263C23.061 29.8543 23.1192 29.796 23.1912 29.796Z" fill="white"/>
<path d="M21.0569 29.796H21.0495C20.9775 29.796 20.9192 29.8542 20.9192 29.9262V30.2082C20.9192 30.2801 20.861 30.3384 20.789 30.3384H20.2462C20.1743 30.3384 20.116 30.2802 20.116 30.2082V29.9262C20.116 29.8543 20.0578 29.796 19.9858 29.796H18.9039C18.832 29.796 18.7737 29.8542 18.7737 29.9262V30.483C18.7737 30.5549 18.8319 30.6132 18.9039 30.6132H19.4469C19.5188 30.6132 19.5771 30.555 19.5771 30.483V30.4687C19.5771 30.3968 19.5189 30.3385 19.4469 30.3385H19.1751C19.1032 30.3385 19.0449 30.2803 19.0449 30.2083V30.1941C19.0449 30.1222 19.1031 30.0639 19.1751 30.0639H19.7145C19.7865 30.0639 19.8448 30.1221 19.8448 30.1941V30.483C19.8448 30.5549 19.903 30.6132 19.975 30.6132H21.0569C21.1288 30.6132 21.1871 30.555 21.1871 30.483V29.9262C21.1871 29.8543 21.1288 29.796 21.0569 29.796ZM20.5179 29.796H20.514C20.442 29.796 20.3837 29.8542 20.3837 29.9262V29.9336C20.3837 30.0055 20.442 30.0638 20.514 30.0638H20.5179C20.5898 30.0638 20.6481 30.0056 20.6481 29.9336V29.9262C20.648 29.8543 20.5898 29.796 20.5179 29.796ZM21.0569 30.8877H17.8295C17.7576 30.8877 17.6993 30.9459 17.6993 31.0179V31.0321C17.6993 31.1041 17.7575 31.1624 17.8295 31.1624H21.0568C21.1287 31.1624 21.187 31.1041 21.187 31.0321V31.0179C21.1871 30.9459 21.1288 30.8877 21.0569 30.8877ZM17.8295 29.796H18.3723C18.4442 29.796 18.5025 29.8542 18.5025 29.9262V30.483C18.5025 30.5549 18.4443 30.6132 18.3723 30.6132H17.5618C17.4899 30.6132 17.4316 30.6714 17.4316 30.7434V31.0322C17.4316 31.1041 17.3733 31.1625 17.3013 31.1625H17.2939C17.222 31.1625 17.1637 31.1042 17.1637 31.0322V30.1941C17.1637 30.1222 17.1055 30.0639 17.0335 30.0639H17.0263C16.9544 30.0639 16.8961 30.1221 16.8961 30.1941V31.0322C16.8961 31.1041 16.8378 31.1625 16.7658 31.1625H16.7584C16.6865 31.1625 16.6282 31.1042 16.6282 31.0322V30.1941C16.6282 30.1222 16.57 30.0639 16.498 30.0639H16.4908C16.4189 30.0639 16.3606 30.1221 16.3606 30.1941V31.0322C16.3606 31.1041 16.3023 31.1625 16.2303 31.1625H16.2229C16.151 31.1625 16.0927 31.1042 16.0927 31.0322V29.9263C16.0927 29.8544 16.1509 29.7961 16.2229 29.7961H17.3015C17.3734 29.7961 17.4317 29.8543 17.4317 29.9263V30.2083C17.4317 30.2802 17.49 30.3385 17.562 30.3385H18.1081C18.1801 30.3385 18.2384 30.2803 18.2384 30.2083V30.1941C18.2384 30.1222 18.1801 30.0639 18.1081 30.0639H17.8297C17.7578 30.0639 17.6995 30.0057 17.6995 29.9337V29.9263C17.6993 29.8543 17.7577 29.796 17.8295 29.796Z" fill="white"/>
<path d="M15.6948 29.796H15.6874C15.6155 29.796 15.5571 29.8542 15.5571 29.9262V30.2082C15.5571 30.2801 15.4989 30.3384 15.4269 30.3384H14.8807C14.8088 30.3384 14.7505 30.2802 14.7505 30.2082V29.9262C14.7505 29.8543 14.6923 29.796 14.6203 29.796H13.5417C13.4698 29.796 13.4115 29.8542 13.4115 29.9262V30.483C13.4115 30.5549 13.4697 30.6132 13.5417 30.6132H14.0847C14.1566 30.6132 14.2149 30.555 14.2149 30.483V30.4687C14.2149 30.3968 14.1567 30.3385 14.0847 30.3385H13.806C13.7341 30.3385 13.6758 30.2803 13.6758 30.2083V30.1941C13.6758 30.1222 13.734 30.0639 13.806 30.0639H14.3558C14.4277 30.0639 14.4861 30.1221 14.4861 30.1941V30.483C14.4861 30.5549 14.5443 30.6132 14.6163 30.6132H15.6946C15.7665 30.6132 15.8248 30.555 15.8248 30.483V29.9262C15.8249 29.8543 15.7667 29.796 15.6948 29.796ZM15.1592 29.796H15.1484C15.0765 29.796 15.0182 29.8542 15.0182 29.9262V29.9336C15.0182 30.0055 15.0764 30.0638 15.1484 30.0638H15.1592C15.2311 30.0638 15.2894 30.0056 15.2894 29.9336V29.9262C15.2894 29.8543 15.2311 29.796 15.1592 29.796ZM15.6948 30.8877H12.4675C12.3956 30.8877 12.3373 30.9459 12.3373 31.0179V31.0321C12.3373 31.1041 12.3955 31.1624 12.4675 31.1624H15.6948C15.7667 31.1624 15.825 31.1041 15.825 31.0321V31.0179C15.8249 30.9459 15.7667 30.8877 15.6948 30.8877ZM12.4673 29.796H13.0101C13.0821 29.796 13.1404 29.8542 13.1404 29.9262V30.483C13.1404 30.5549 13.0821 30.6132 13.0101 30.6132H12.1996C12.1277 30.6132 12.0694 30.6714 12.0694 30.7434V31.0322C12.0694 31.1041 12.0112 31.1625 11.9392 31.1625H11.9317C11.8598 31.1625 11.8015 31.1042 11.8015 31.0322V30.1941C11.8015 30.1222 11.7433 30.0639 11.6713 30.0639H11.6641C11.5922 30.0639 11.5339 30.1221 11.5339 30.1941V31.0322C11.5339 31.1041 11.4757 31.1625 11.4037 31.1625H11.3962C11.3243 31.1625 11.266 31.1042 11.266 31.0322V30.1941C11.266 30.1222 11.2078 30.0639 11.1358 30.0639H11.125C11.0531 30.0639 10.9948 30.1221 10.9948 30.1941V31.0322C10.9948 31.1041 10.9366 31.1625 10.8646 31.1625H10.8607C10.7888 31.1625 10.7305 31.1042 10.7305 31.0322V29.9263C10.7305 29.8544 10.7887 29.7961 10.8607 29.7961H11.9391C12.011 29.7961 12.0693 29.8543 12.0693 29.9263V30.2083C12.0693 30.2802 12.1275 30.3385 12.1995 30.3385H12.7389C12.8108 30.3385 12.8692 30.2803 12.8692 30.2083V30.1941C12.8692 30.1222 12.8109 30.0639 12.7389 30.0639H12.4672C12.3952 30.0639 12.3369 30.0057 12.3369 29.9337V29.9263C12.3372 29.8543 12.3954 29.796 12.4673 29.796Z" fill="white"/>
<path d="M10.3293 29.796H10.3254C10.2535 29.796 10.1952 29.8542 10.1952 29.9262V30.2082C10.1952 30.2801 10.137 30.3384 10.065 30.3384H9.52198C9.45007 30.3384 9.39176 30.2802 9.39176 30.2082V29.9262C9.39176 29.8543 9.33354 29.796 9.26154 29.796H8.18004C8.10813 29.796 8.04982 29.8542 8.04982 29.9262V30.483C8.04982 30.5549 8.10804 30.6132 8.18004 30.6132H8.71929C8.7912 30.6132 8.84951 30.555 8.84951 30.483V30.4687C8.84951 30.3968 8.79129 30.3385 8.71929 30.3385H8.44432C8.37242 30.3385 8.3141 30.2803 8.3141 30.2083V30.1941C8.3141 30.1222 8.37232 30.0639 8.44432 30.0639H8.9906C9.06251 30.0639 9.12082 30.1221 9.12082 30.1941V30.483C9.12082 30.5549 9.17904 30.6132 9.25104 30.6132H10.3296C10.4015 30.6132 10.4598 30.555 10.4598 30.483V29.9262C10.4597 29.8543 10.4013 29.796 10.3293 29.796ZM9.79385 29.796H9.78644C9.71454 29.796 9.65622 29.8542 9.65622 29.9262V29.9336C9.65622 30.0055 9.71444 30.0638 9.78644 30.0638H9.79385C9.86576 30.0638 9.92407 30.0056 9.92407 29.9336V29.9262C9.92407 29.8543 9.86576 29.796 9.79385 29.796ZM10.3293 30.8877H7.09864C7.02673 30.8877 6.96842 30.9459 6.96842 31.0179V31.0321C6.96842 31.1041 7.02664 31.1624 7.09864 31.1624H10.3294C10.4013 31.1624 10.4597 31.1041 10.4597 31.0321V31.0179C10.4597 30.9459 10.4013 30.8877 10.3293 30.8877ZM7.09864 29.796H7.64848C7.72039 29.796 7.7787 29.8542 7.7787 29.9262V30.483C7.7787 30.5549 7.72048 30.6132 7.64848 30.6132H6.83773C6.76583 30.6132 6.70751 30.6714 6.70751 30.7434V31.0322C6.70751 31.1041 6.64929 31.1625 6.57729 31.1625H6.56651C6.49461 31.1625 6.43629 31.1042 6.43629 31.0322V30.1941C6.43629 30.1222 6.37808 30.0639 6.30608 30.0639H6.29886C6.22695 30.0639 6.16864 30.1221 6.16864 30.1941V31.0322C6.16864 31.1041 6.11042 31.1625 6.03842 31.1625H6.03448C5.96258 31.1625 5.90427 31.1042 5.90427 31.0322V30.1941C5.90427 30.1222 5.84605 30.0639 5.77405 30.0639H5.76327C5.69136 30.0639 5.63305 30.1221 5.63305 30.1941V31.0322C5.63305 31.1041 5.57483 31.1625 5.50283 31.1625H5.49542C5.42352 31.1625 5.3652 31.1042 5.3652 31.0322V29.9263C5.3652 29.8544 5.42342 29.7961 5.49542 29.7961H6.57729C6.6492 29.7961 6.70751 29.8543 6.70751 29.9263V30.2083C6.70751 30.2802 6.76573 30.3385 6.83773 30.3385H7.38054C7.45245 30.3385 7.51076 30.2803 7.51076 30.2083V30.1941C7.51076 30.1222 7.45254 30.0639 7.38054 30.0639H7.09882C7.02692 30.0639 6.96861 30.0057 6.96861 29.9337V29.9263C6.96833 29.8543 7.02673 29.796 7.09864 29.796Z" fill="white"/>
<path d="M4.96743 29.796H4.96002C4.88812 29.796 4.8298 29.8542 4.8298 29.9262V30.2082C4.8298 30.2801 4.77158 30.3384 4.69958 30.3384H4.15677C4.08487 30.3384 4.02656 30.2802 4.02656 30.2082V29.9262C4.02656 29.8543 3.96834 29.796 3.89634 29.796H2.81456C2.74265 29.796 2.68434 29.8542 2.68434 29.9262V30.483C2.68434 30.5549 2.74256 30.6132 2.81456 30.6132H3.35399C3.4259 30.6132 3.48421 30.555 3.48421 30.483V30.4687C3.48421 30.3968 3.42599 30.3385 3.35399 30.3385H3.07884C3.00693 30.3385 2.94862 30.2803 2.94862 30.2083V30.1941C2.94862 30.1222 3.00684 30.0639 3.07884 30.0639H3.62868C3.70059 30.0639 3.7589 30.1221 3.7589 30.1941V30.483C3.7589 30.5549 3.81712 30.6132 3.88912 30.6132H4.96743C5.03933 30.6132 5.09765 30.555 5.09765 30.483V29.9262C5.09765 29.8543 5.03933 29.796 4.96743 29.796ZM4.43193 29.796H4.42452C4.35262 29.796 4.2943 29.8542 4.2943 29.9262V29.9336C4.2943 30.0055 4.35252 30.0638 4.42452 30.0638H4.43193C4.50384 30.0638 4.56215 30.0056 4.56215 29.9336V29.9262C4.56205 29.8543 4.50384 29.796 4.43193 29.796ZM4.96743 30.8877H1.74365C1.67175 30.8877 1.61343 30.9459 1.61343 31.0179V31.0321C1.61343 31.1041 1.67165 31.1624 1.74365 31.1624H4.96752C5.03943 31.1624 5.09774 31.1041 5.09774 31.0321V31.0179C5.09765 30.9459 5.03933 30.8877 4.96743 30.8877ZM1.74365 29.796H2.28646C2.35837 29.796 2.41668 29.8542 2.41668 29.9262V30.483C2.41668 30.5549 2.35846 30.6132 2.28646 30.6132H1.46906C1.39715 30.6132 1.33884 30.6714 1.33884 30.7434V31.0322C1.33884 31.1041 1.28062 31.1625 1.20862 31.1625H1.20825C1.13634 31.1625 1.07803 31.1042 1.07803 31.0322V30.1941C1.07803 30.1222 1.01981 30.0639 0.947811 30.0639H0.933373C0.861467 30.0639 0.803155 30.1221 0.803155 30.1941V31.0322C0.803155 31.1041 0.744936 31.1625 0.672936 31.1625H0.672655C0.600749 31.1625 0.542436 31.1042 0.542436 31.0322V30.1941C0.542436 30.1222 0.484218 30.0639 0.412218 30.0639H0.404718C0.332812 30.0639 0.274499 30.1221 0.274499 30.1941V31.0322C0.274499 31.1041 0.216281 31.1625 0.144281 31.1625H0.130219C0.0583124 31.1625 0 31.1042 0 31.0322V29.9263C0 29.8544 0.0582186 29.7961 0.130219 29.7961H1.20853C1.28044 29.7961 1.33875 29.8543 1.33875 29.9263V30.2083C1.33875 30.2802 1.39697 30.3385 1.46897 30.3385H2.01871C2.09062 30.3385 2.14893 30.2803 2.14893 30.2083V30.1941C2.14893 30.1222 2.09071 30.0639 2.01871 30.0639H1.74375C1.67184 30.0639 1.61353 30.0057 1.61353 29.9337V29.9263C1.61343 29.8543 1.67175 29.796 1.74365 29.796Z" fill="white"/>
<path d="M47.8696 28.9655H45.7168C45.6449 28.9655 45.5866 29.0237 45.5866 29.0957V29.3845C45.5866 29.4564 45.6448 29.5147 45.7168 29.5147H47.8696C47.9415 29.5147 47.9998 29.4565 47.9998 29.3845V29.0957C47.9998 29.0237 47.9416 28.9655 47.8696 28.9655ZM45.1852 28.9655H43.0358C42.9639 28.9655 42.9056 29.0237 42.9056 29.0957V29.3845C42.9056 29.4564 42.9638 29.5147 43.0358 29.5147H45.1852C45.2571 29.5147 45.3155 29.4565 45.3155 29.3845V29.0957C45.3155 29.0237 45.2571 28.9655 45.1852 28.9655Z" fill="white"/>
<path d="M42.5044 28.9655H40.355C40.2831 28.9655 40.2247 29.0237 40.2247 29.0957V29.3845C40.2247 29.4564 40.283 29.5147 40.355 29.5147H42.5044C42.5763 29.5147 42.6346 29.4565 42.6346 29.3845V29.0957C42.6345 29.0237 42.5762 28.9655 42.5044 28.9655ZM39.8268 28.9655H37.6705C37.5986 28.9655 37.5403 29.0237 37.5403 29.0957V29.3845C37.5403 29.4564 37.5985 29.5147 37.6705 29.5147H39.8268C39.8987 29.5147 39.957 29.4565 39.957 29.3845V29.0957C39.957 29.0237 39.8988 28.9655 39.8268 28.9655Z" fill="white"/>
<path d="M37.1426 28.9655H34.9898C34.9179 28.9655 34.8596 29.0237 34.8596 29.0957V29.3845C34.8596 29.4564 34.9178 29.5147 34.9898 29.5147H37.1426C37.2145 29.5147 37.2728 29.4565 37.2728 29.3845V29.0957C37.2729 29.0237 37.2145 28.9655 37.1426 28.9655ZM34.4617 28.9655H32.3089C32.237 28.9655 32.1787 29.0237 32.1787 29.0957V29.3845C32.1787 29.4564 32.2369 29.5147 32.3089 29.5147H34.4617C34.5336 29.5147 34.5919 29.4565 34.5919 29.3845V29.0957C34.5919 29.0237 34.5335 28.9655 34.4617 28.9655Z" fill="white"/>
<path d="M31.7806 28.9655H29.6278C29.5559 28.9655 29.4976 29.0237 29.4976 29.0957V29.3845C29.4976 29.4564 29.5558 29.5147 29.6278 29.5147H31.7806C31.8525 29.5147 31.9108 29.4565 31.9108 29.3845V29.0957C31.9107 29.0237 31.8524 28.9655 31.7806 28.9655ZM29.103 28.9655H26.9467C26.8748 28.9655 26.8165 29.0237 26.8165 29.0957V29.3845C26.8165 29.4564 26.8747 29.5147 26.9467 29.5147H29.103C29.1749 29.5147 29.2332 29.4565 29.2332 29.3845V29.0957C29.2332 29.0237 29.175 28.9655 29.103 28.9655Z" fill="white"/>
<path d="M26.4186 28.9655H24.2656C24.1937 28.9655 24.1354 29.0237 24.1354 29.0957V29.3845C24.1354 29.4564 24.1936 29.5147 24.2656 29.5147H26.4186C26.4905 29.5147 26.5488 29.4565 26.5488 29.3845V29.0957C26.5487 29.0237 26.4905 28.9655 26.4186 28.9655ZM23.7376 28.9655H21.5847C21.5128 28.9655 21.4544 29.0237 21.4544 29.0957V29.3845C21.4544 29.4564 21.5127 29.5147 21.5847 29.5147H23.7376C23.8095 29.5147 23.8678 29.4565 23.8678 29.3845V29.0957C23.8677 29.0237 23.8095 28.9655 23.7376 28.9655Z" fill="white"/>
<path d="M21.0569 28.9655H18.9039C18.832 28.9655 18.7737 29.0237 18.7737 29.0957V29.3845C18.7737 29.4564 18.8319 29.5147 18.9039 29.5147H21.0569C21.1288 29.5147 21.1871 29.4565 21.1871 29.3845V29.0957C21.1871 29.0237 21.1288 28.9655 21.0569 28.9655ZM18.3723 28.9655H16.2229C16.151 28.9655 16.0927 29.0237 16.0927 29.0957V29.3845C16.0927 29.4564 16.1509 29.5147 16.2229 29.5147H18.3723C18.4442 29.5147 18.5025 29.4565 18.5025 29.3845V29.0957C18.5025 29.0237 18.4442 28.9655 18.3723 28.9655Z" fill="white"/>
<path d="M15.6948 28.9655H13.5419C13.47 28.9655 13.4116 29.0237 13.4116 29.0957V29.3845C13.4116 29.4564 13.4699 29.5147 13.5419 29.5147H15.6948C15.7667 29.5147 15.8251 29.4565 15.8251 29.3845V29.0957C15.825 29.0237 15.7667 28.9655 15.6948 28.9655ZM13.0103 28.9655H10.8611C10.7892 28.9655 10.7309 29.0237 10.7309 29.0957V29.3845C10.7309 29.4564 10.7891 29.5147 10.8611 29.5147H13.0103C13.0822 29.5147 13.1405 29.4565 13.1405 29.3845V29.0957C13.1404 29.0237 13.0822 28.9655 13.0103 28.9655Z" fill="white"/>
<path d="M10.3293 28.9655H8.18004C8.10813 28.9655 8.04982 29.0237 8.04982 29.0957V29.3845C8.04982 29.4564 8.10804 29.5147 8.18004 29.5147H10.3294C10.4013 29.5147 10.4597 29.4565 10.4597 29.3845V29.0957C10.4597 29.0237 10.4013 28.9655 10.3293 28.9655ZM7.64839 28.9655H5.49542C5.42352 28.9655 5.3652 29.0237 5.3652 29.0957V29.3845C5.3652 29.4564 5.42342 29.5147 5.49542 29.5147H7.64839C7.72029 29.5147 7.7786 29.4565 7.7786 29.3845V29.0957C7.7786 29.0237 7.72029 28.9655 7.64839 28.9655Z" fill="white"/>
<path d="M4.96743 28.9655H2.81456C2.74265 28.9655 2.68434 29.0237 2.68434 29.0957V29.3845C2.68434 29.4564 2.74256 29.5147 2.81456 29.5147H4.96752C5.03943 29.5147 5.09774 29.4565 5.09774 29.3845V29.0957C5.09765 29.0237 5.03933 28.9655 4.96743 28.9655ZM2.28637 28.9655H0.130219C0.0582186 28.9655 0 29.0237 0 29.0957V29.3845C0 29.4564 0.0582186 29.5147 0.130219 29.5147H2.28646C2.35837 29.5147 2.41668 29.4565 2.41668 29.3845V29.0957C2.41668 29.0237 2.35837 28.9655 2.28637 28.9655Z" fill="white"/>
<path d="M23.3153 20.0882C23.5607 20.1536 23.8228 20.0815 24.0028 19.8983C24.2745 20.1733 24.7197 20.1799 25.0013 19.9115C25.1847 19.7347 25.26 19.4662 25.1945 19.2239C24.9556 19.6103 24.4515 19.7347 24.0652 19.4923C24.0455 19.4791 24.0193 19.4661 24.003 19.453C23.6397 19.7214 23.1258 19.6494 22.8507 19.2894C22.8408 19.2696 22.8213 19.2434 22.8081 19.2239C22.7097 19.6039 22.9389 19.9965 23.3153 20.0882Z" fill="#FF4B55"/>
<path d="M24.8407 27.7365C25.7207 27.2534 26.455 26.4922 26.8577 25.4897C27.5434 23.7712 27.1115 21.8315 25.7999 20.5734C25.7548 20.5302 25.6863 20.588 25.719 20.6413C27.0126 22.7509 26.503 25.5232 24.5012 27.0423L24.5969 20.9142C24.5982 20.831 24.5611 20.7518 24.4965 20.6994L24.1709 20.4363C24.0711 20.3556 23.9286 20.3561 23.8295 20.4372L23.5086 20.6994C23.4446 20.7517 23.4081 20.8305 23.4094 20.9132L23.5024 27.0456C21.5002 25.5273 20.9895 22.7524 22.2812 20.6414C22.3138 20.5881 22.2453 20.5303 22.2003 20.5736C20.8911 21.8317 20.4566 23.7713 21.1422 25.4897C21.5449 26.492 22.2791 27.2533 23.1593 27.7364C22.5992 27.9284 22.0104 28.0302 21.4151 28.0131C21.3522 28.0113 21.3396 28.0998 21.3998 28.118C22.1562 28.3476 22.9341 28.3634 23.6656 28.1994L23.9527 28.7566C23.9726 28.795 24.0276 28.7952 24.0476 28.7567L24.3367 28.1997C25.0682 28.3634 25.8464 28.3473 26.6033 28.1178C26.6635 28.0996 26.651 28.0111 26.588 28.0128C25.992 28.0302 25.4018 27.9284 24.8407 27.7365Z" fill="#FF4B55"/>
<path d="M28.4224 22.0394C27.972 21.1979 27.2241 20.5602 26.3337 20.2477C26.2779 20.2281 26.2344 20.3018 26.28 20.3394C28.2456 21.9585 28.6396 24.8424 27.1196 26.9302C27.041 27.035 26.9558 27.1463 26.874 27.2378C28.7401 26.2361 29.4308 23.9053 28.4224 22.0394Z" fill="#FF4B55"/>
<path d="M20.8833 26.9302C19.3632 24.8424 19.7542 21.9586 21.7193 20.3395C21.765 20.3018 21.7214 20.2283 21.6656 20.2478C20.7764 20.5604 20.0336 21.1979 19.5803 22.0394C18.5656 23.9053 19.2629 26.2361 21.1321 27.2377C21.0438 27.1462 20.9587 27.035 20.8833 26.9302Z" fill="#FF4B55"/>
</g>
<defs>
<clipPath id="clip0_11_3017">
<rect width="48" height="48" fill="white"/>
</clipPath>
</defs>
</svg>
