<svg width="48" height="48" viewBox="0 0 48 48" fill="none" xmlns="http://www.w3.org/2000/svg">
<path d="M47.1723 39.7241H0.827623C0.370593 39.7241 0 39.3535 0 38.8965V9.10347C0 8.64644 0.370593 8.27585 0.827623 8.27585H47.1724C47.6294 8.27585 48 8.64644 48 9.10347V38.8965C47.9999 39.3536 47.6293 39.7241 47.1723 39.7241Z" fill="#41479B"/>
<path d="M47.9999 19.8621H21.5172V8.27594H13.2413V19.8621H0V28.138H13.2413V39.7241H21.5172V28.138H47.9999V19.8621Z" fill="white"/>
<path d="M47.9999 21.5173H19.862V8.27594H14.8966V21.5173H0V26.4828H14.8966V39.7241H19.862V26.4828H47.9999V21.5173Z" fill="#FF4B55"/>
</svg>
