<svg width="48" height="48" viewBox="0 0 48 48" fill="none" xmlns="http://www.w3.org/2000/svg">
<path d="M47.1723 8.276H0.827623C0.370593 8.276 0 8.6465 0 9.10353V38.8966C0 39.3536 0.370593 39.7242 0.827623 39.7242H47.1724C47.6294 39.7242 48 39.3536 48 38.8966V9.10353C47.9999 8.6465 47.6293 8.276 47.1723 8.276Z" fill="#73AF00"/>
<path d="M47.9999 9.1035C47.9999 8.64647 47.6293 8.27588 47.1723 8.27588H43.4691L24 21.0317L4.53084 8.27597H0.827623C0.370593 8.27597 0 8.64647 0 9.1035V11.2444L19.4691 24.0001L0 36.7558V38.8966C0 39.3537 0.370593 39.7243 0.827623 39.7243H4.53084L24 26.9685L43.4691 39.7242H47.1723C47.6293 39.7242 47.9999 39.3536 47.9999 38.8965V36.7557L28.5308 24.0001L47.9999 11.2444V9.1035Z" fill="#FFE15A"/>
<path d="M47.9998 11.2443V36.7557L28.5307 24L47.9998 11.2443Z" fill="#464655"/>
<path d="M0 36.7557V11.2443L19.4691 24L0 36.7557Z" fill="#464655"/>
</svg>
