<svg width="48" height="48" viewBox="0 0 48 48" fill="none" xmlns="http://www.w3.org/2000/svg">
<path d="M47.9999 18.7587H0V9.10347C0 8.64644 0.370593 8.27585 0.827623 8.27585H47.1724C47.6294 8.27585 48 8.64644 48 9.10347L47.9999 18.7587Z" fill="#464655"/>
<path d="M47.1723 39.7242H0.827623C0.370593 39.7242 0 39.3536 0 38.8965V29.2414H47.9999V38.8965C47.9999 39.3537 47.6293 39.7242 47.1723 39.7242Z" fill="#73AF00"/>
<path d="M47.9999 18.7585H0V29.2407H47.9999V18.7585Z" fill="white"/>
<path d="M0.305249 39.5241L28.3469 24.335C28.613 24.1909 28.613 23.8091 28.3469 23.665L0.305249 8.47601C0.122906 8.62779 0 8.84773 0 9.10348V38.8965C0 39.1524 0.122906 39.3723 0.305249 39.5241Z" fill="#FF4B55"/>
<path d="M8.94358 21.8592L9.43548 22.9262L10.5763 22.6455C10.6476 22.628 10.7065 22.7019 10.6736 22.7675L10.1462 23.8174L11.0769 24.5344C11.1351 24.5792 11.114 24.6714 11.0422 24.6865L9.89251 24.9287L9.9123 26.1035C9.91351 26.1768 9.8282 26.2178 9.77167 26.1712L8.86558 25.4234L7.95949 26.1712C7.90286 26.2179 7.81765 26.1769 7.81886 26.1035L7.83864 24.9287L6.68899 24.6865C6.61718 24.6714 6.59618 24.5792 6.65421 24.5344L7.58496 23.8174L7.05752 22.7675C7.02462 22.7019 7.08358 22.6279 7.15483 22.6455L8.29568 22.9262L8.78758 21.8592C8.81814 21.7926 8.91283 21.7926 8.94358 21.8592Z" fill="white"/>
</svg>
