<svg width="48" height="48" viewBox="0 0 48 48" fill="none" xmlns="http://www.w3.org/2000/svg">
<path d="M0 29.2413H47.9999V38.8964C47.9999 39.3535 47.6293 39.7241 47.1723 39.7241H0.827623C0.370593 39.7241 0 39.3535 0 38.8964V29.2413Z" fill="#73AF00"/>
<path d="M0.827623 8.27585H47.1724C47.6294 8.27585 48 8.64644 48 9.10347V18.7586H0V9.10338C0 8.64635 0.370593 8.27585 0.827623 8.27585Z" fill="#464655"/>
<path d="M47.9999 18.7584H0V29.2406H47.9999V18.7584Z" fill="#C8414B"/>
<path d="M47.9999 18.2072H0V19.8623H47.9999V18.2072Z" fill="white"/>
<path d="M47.9999 28.1382H0V29.7933H47.9999V28.1382Z" fill="white"/>
<path d="M28.4313 17.0267C29.0977 15.6526 29.793 12.4695 29.793 12.4695C29.793 12.4695 27.7238 14.9862 27.0572 16.3602C26.9176 16.6482 26.9768 16.9794 27.1786 17.2035L19.5879 32.8535L20.1032 33.1034L27.6938 17.4534C27.9949 17.4732 28.2917 17.3147 28.4313 17.0267Z" fill="white"/>
<path d="M19.5686 17.0267C18.9022 15.6526 18.2068 12.4695 18.2068 12.4695C18.2068 12.4695 20.2761 14.9862 20.9427 16.3602C21.0823 16.6482 21.0231 16.9794 20.8213 17.2035L28.412 32.8535L27.8967 33.1034L20.3061 17.4534C20.005 17.4732 19.7082 17.3147 19.5686 17.0267Z" fill="white"/>
<path d="M28.1378 23.9999C28.1378 28.5706 24.7617 32.2758 23.9999 32.2758C23.2381 32.2758 19.862 28.5706 19.862 23.9999C19.862 19.4293 23.2381 15.7241 23.9999 15.7241C24.7617 15.7241 28.1378 19.4293 28.1378 23.9999Z" fill="#C8414B"/>
<path d="M27.3103 27.9928C27.7977 26.8087 28.1379 25.4485 28.1379 23.9999C28.1379 22.5514 27.7978 21.1913 27.3103 20.007C26.8229 21.1912 26.4827 22.5514 26.4827 23.9999C26.4827 25.4485 26.8229 26.8087 27.3103 27.9928Z" fill="#464655"/>
<path d="M20.6896 20.007C20.2022 21.1912 19.862 22.5514 19.862 23.9999C19.862 25.4485 20.2021 26.8086 20.6896 27.9928C21.177 26.8087 21.5172 25.4485 21.5172 23.9999C21.5172 22.5514 21.177 21.1913 20.6896 20.007Z" fill="#464655"/>
<path d="M24.0001 25.2413C24.4571 25.2413 24.8277 24.6855 24.8277 23.9999C24.8277 23.3143 24.4571 22.7586 24.0001 22.7586C23.543 22.7586 23.1724 23.3143 23.1724 23.9999C23.1724 24.6855 23.543 25.2413 24.0001 25.2413Z" fill="white"/>
<path d="M24.1241 15.7241V22.7585C24.3498 22.2888 24.75 20.9009 24.75 19.2413C24.75 17.5816 24.3498 16.1938 24.1241 15.7241Z" fill="white"/>
<path d="M23.8758 15.7241C23.6502 16.1938 23.25 17.5816 23.25 19.2413C23.25 20.901 23.6502 22.2889 23.8758 22.7585V15.7241Z" fill="white"/>
<path d="M24.1241 25.2413V32.2758C24.3498 31.8061 24.75 30.4181 24.75 28.7585C24.75 27.0989 24.3498 25.711 24.1241 25.2413Z" fill="white"/>
<path d="M23.8758 25.2413C23.6502 25.711 23.25 27.0989 23.25 28.7585C23.25 30.4182 23.6502 31.8062 23.8758 32.2758V25.2413Z" fill="white"/>
</svg>
