<svg width="48" height="48" viewBox="0 0 48 48" fill="none" xmlns="http://www.w3.org/2000/svg">
<path d="M47.1723 39.7243H0.827623C0.370593 39.7243 0 39.3537 0 38.8966V9.10359C0 8.64656 0.370593 8.27597 0.827623 8.27597H47.1724C47.6294 8.27597 48 8.64656 48 9.10359V38.8966C47.9999 39.3538 47.6293 39.7243 47.1723 39.7243Z" fill="#FF4B55"/>
<path d="M32.7538 26.4682C32.7538 26.4682 31.1051 26.1933 29.8838 25.1805C29.5235 24.8817 29.0007 24.6534 28.4915 24.4847C28.9009 24.4665 29.3351 24.478 29.7455 24.5609C31.4453 24.9046 33.0935 24.0795 33.0935 24.0795C33.0935 24.0795 31.4305 24.2473 29.9862 23.5908C29.5955 23.4132 29.0889 23.3296 28.5944 23.2944C28.9501 23.1921 29.3275 23.112 29.7002 23.0914C31.4318 22.9954 32.8188 21.7814 32.8188 21.7814C32.8188 21.7814 31.2518 22.363 29.6886 22.0918C29.2334 22.0128 28.6746 22.072 28.1545 22.1765C28.4966 21.9616 28.8733 21.7608 29.2641 21.6315C30.9106 21.0867 31.9324 19.5527 31.9324 19.5527C31.9324 19.5527 30.5717 20.5233 28.9919 20.6696C28.5228 20.713 27.9885 20.9237 27.5063 21.1662C27.7845 20.8613 28.102 20.5594 28.4536 20.3261C29.8985 19.3672 30.4806 17.6183 30.4806 17.6183C30.4806 17.6183 29.4234 18.9129 27.9378 19.4699C27.5328 19.6218 27.1131 19.9259 26.7361 20.2537C26.9163 19.9261 27.1281 19.5985 27.3797 19.317C28.5355 18.0241 28.6567 16.1849 28.6567 16.1849C28.6567 16.1849 27.9608 17.7046 26.6643 18.619C26.2863 18.8856 25.933 19.3232 25.6392 19.7655C25.729 19.3712 25.8531 18.9623 26.038 18.5937C26.8161 17.0438 26.4528 15.2367 26.4528 15.2367C26.4528 15.2367 26.1779 16.8854 25.1651 18.1067C24.8663 18.467 24.6381 18.9898 24.4693 19.4993C24.4511 19.0899 24.4626 18.6556 24.5455 18.2453C24.8892 16.5454 24.0641 14.8972 24.0641 14.8972C24.0641 14.8972 24.2319 16.5602 23.5753 18.0045C23.3977 18.3952 23.3141 18.9018 23.2789 19.3963C23.1766 19.0406 23.0965 18.6632 23.0759 18.2905C22.9799 16.5589 21.7659 15.172 21.7659 15.172C21.7659 15.172 22.3476 16.7389 22.0763 18.3021C21.9973 18.7573 22.0565 19.3162 22.161 19.8363C21.9461 19.4942 21.7453 19.1175 21.616 18.7266C21.0713 17.0801 19.5372 16.0583 19.5372 16.0583C19.5372 16.0583 20.5078 17.4191 20.6542 18.9988C20.6976 19.468 20.9082 20.0024 21.1508 20.4845C20.8459 20.2063 20.544 19.8888 20.3107 19.5371C19.3517 18.0922 17.6028 17.5102 17.6028 17.5102C17.6028 17.5102 18.8974 18.5674 19.4544 20.053C19.6063 20.458 19.9104 20.8779 20.2382 21.2547C19.9106 21.0745 19.583 20.8628 19.3015 20.6111C18.0086 19.4553 16.1694 19.3341 16.1694 19.3341C16.1694 19.3341 17.6891 20.03 18.6035 21.3266C18.8699 21.7045 19.3076 22.0579 19.7498 22.3517C19.3555 22.2619 18.9466 22.1379 18.5782 21.9529C17.0282 21.1749 15.2212 21.5381 15.2212 21.5381C15.2212 21.5381 16.8699 21.813 18.0911 22.8258C18.4514 23.1246 18.9743 23.3529 19.4837 23.5216C19.0743 23.5398 18.64 23.5284 18.2297 23.4454C16.5298 23.1017 14.8816 23.9268 14.8816 23.9268C14.8816 23.9268 16.5446 23.759 17.9889 24.4156C18.3796 24.5932 18.8862 24.6768 19.3808 24.712C19.0251 24.8143 18.6476 24.8944 18.275 24.915C16.5433 25.011 15.1564 26.225 15.1564 26.225C15.1564 26.225 16.7233 25.6434 18.2865 25.9146C18.7418 25.9936 19.3006 25.9344 19.8207 25.8299C19.4786 26.0448 19.1019 26.2456 18.711 26.3749C17.0646 26.9197 16.0427 28.4537 16.0427 28.4537C16.0427 28.4537 17.4035 27.4831 18.9833 27.3368C19.4524 27.2934 19.9868 27.0827 20.4689 26.8401C20.1908 27.145 19.8732 27.4469 19.5216 27.6803C18.0766 28.6392 17.4945 30.3881 17.4945 30.3881C17.4945 30.3881 18.5517 29.0935 20.0374 28.5365C20.4423 28.3846 20.8621 28.0805 21.239 27.7527C21.0589 28.0802 20.847 28.4079 20.5956 28.6893C19.4397 29.9822 19.3185 31.8214 19.3185 31.8214C19.3185 31.8214 20.0144 30.3017 21.3111 29.3874C21.6891 29.1207 22.0423 28.6831 22.3361 28.241C22.2463 28.6353 22.1223 29.0441 21.9373 29.4127C21.1593 30.9626 21.5226 32.7697 21.5226 32.7697C21.5226 32.7697 21.7974 31.121 22.8102 29.8997C23.109 29.5394 23.3373 29.0166 23.506 28.5071C23.5242 28.9167 23.5128 29.3509 23.4298 29.7612C23.0861 31.4611 23.9112 33.1092 23.9112 33.1092C23.9112 33.1092 23.7434 31.4463 24.4 30.002C24.5776 29.6113 24.6612 29.1046 24.6965 28.6102C24.7987 28.9659 24.8788 29.3433 24.8994 29.7159C24.9954 31.4476 26.2094 32.8345 26.2094 32.8345C26.2094 32.8345 25.6278 31.2675 25.899 29.7044C25.978 29.2492 25.9189 28.6903 25.8143 28.1703C26.0292 28.5124 26.23 28.889 26.3593 29.2799C26.9041 30.9263 28.4381 31.9482 28.4381 31.9482C28.4381 31.9482 27.4675 30.5874 27.3212 29.0076C27.2778 28.5384 27.0671 28.004 26.8245 27.5219C27.1295 27.8001 27.4313 28.1176 27.6647 28.4693C28.6236 29.9142 30.3725 30.4963 30.3725 30.4963C30.3725 30.4963 29.078 29.4391 28.5209 27.9534C28.369 27.5485 28.0649 27.1287 27.7371 26.7519C28.0646 26.9319 28.3923 27.1438 28.6737 27.3953C29.9666 28.5511 31.8058 28.6723 31.8058 28.6723C31.8058 28.6723 30.2861 27.9764 29.3718 26.6798C29.1051 26.3018 28.6675 25.9484 28.2252 25.6547C28.6195 25.7445 29.0284 25.8685 29.3969 26.0535C30.9468 26.8314 32.7538 26.4682 32.7538 26.4682ZM23.9981 28.2023C21.6775 28.2023 19.7963 26.3211 19.7963 24.0005C19.7963 21.6799 21.6775 19.7987 23.9981 19.7987C26.3187 19.7987 28.1999 21.6799 28.1999 24.0005C28.1999 26.3211 26.3187 28.2023 23.9981 28.2023Z" fill="#FFE15A"/>
<path d="M22.6662 22.3001C22.7558 22.2301 22.8449 22.1599 22.9355 22.0975C22.3402 21.8267 21.8043 21.6967 21.4284 21.6385C21.3686 21.7035 21.3146 21.7734 21.2597 21.8427C21.6289 21.9145 22.1249 22.0513 22.6662 22.3001Z" fill="#FFE15A"/>
<path d="M21.6091 21.453C22.0131 21.4986 22.5979 21.6189 23.2467 21.898C23.3555 21.8331 23.4636 21.7757 23.572 21.7203C22.8714 21.4327 22.239 21.3256 21.8037 21.2925C21.7383 21.3455 21.6704 21.3954 21.6091 21.453Z" fill="#FFE15A"/>
<path d="M23.7125 23.4006C23.6287 23.3215 23.5438 23.2466 23.4582 23.1758C22.6716 23.9245 21.9834 25.0164 21.6727 26.6007C21.7856 26.7017 21.8978 26.8039 22.0231 26.8899C22.2514 25.2786 22.9205 24.1665 23.7125 23.4006Z" fill="#FFE15A"/>
<path d="M23.4074 22.7048C23.4965 22.633 23.5856 22.561 23.676 22.4969C23.5659 22.4267 23.4562 22.365 23.3469 22.3049C23.2533 22.369 23.1595 22.4311 23.067 22.5032C23.1802 22.5655 23.2935 22.6319 23.4074 22.7048Z" fill="#FFE15A"/>
<path d="M25.5814 22.5017C26.2558 23.0941 26.8723 23.9283 27.311 25.0848C27.4236 24.7414 27.4997 24.3814 27.4997 24.0004C27.4997 23.277 27.2799 22.6051 26.904 22.0471C26.5562 22.1163 26.0892 22.2515 25.5814 22.5017Z" fill="#FFE15A"/>
<path d="M23.7379 22.9297C23.8258 22.995 23.9119 23.0687 23.9983 23.1411C24.0846 23.0686 24.1707 22.995 24.2586 22.9297C24.1722 22.8577 24.0859 22.7868 23.9983 22.7222C23.9106 22.7869 23.8245 22.8577 23.7379 22.9297Z" fill="#FFE15A"/>
<path d="M23.9983 21.9159C23.8883 21.9717 23.7783 22.0346 23.6676 22.1C23.7777 22.1578 23.8876 22.2199 23.9983 22.2879C24.109 22.22 24.219 22.1579 24.3289 22.1C24.2183 22.0345 24.1083 21.9717 23.9983 21.9159Z" fill="#FFE15A"/>
<path d="M21.2912 26.1961C21.6617 24.6834 22.3599 23.6471 23.1413 22.9343C23.0321 22.8571 22.9232 22.7863 22.8141 22.7209C22.0622 23.3821 21.3817 24.3376 20.9625 25.7142C21.0591 25.885 21.1683 26.0449 21.2912 26.1961Z" fill="#FFE15A"/>
<path d="M22.4149 22.5019C21.9071 22.2516 21.4401 22.1166 21.0922 22.0472C20.7164 22.6052 20.4965 23.2771 20.4965 24.0005C20.4965 24.3815 20.5726 24.7415 20.6852 25.0849C21.124 23.9284 21.7404 23.0943 22.4149 22.5019Z" fill="#FFE15A"/>
<path d="M23.9982 21.523C24.7432 21.2152 25.4304 21.1059 25.9191 21.077C25.3672 20.7137 24.7084 20.4991 23.9982 20.4991C23.2881 20.4991 22.6293 20.7138 22.0774 21.077C22.5661 21.1059 23.2533 21.2151 23.9982 21.523Z" fill="#FFE15A"/>
<path d="M23.9982 23.6967C23.2999 24.4706 22.7235 25.5817 22.5365 27.173C22.9825 27.3791 23.4746 27.5019 23.9982 27.5019C24.5219 27.5019 25.0139 27.3791 25.46 27.173C25.2729 25.5818 24.6966 24.4706 23.9982 23.6967Z" fill="#FFE15A"/>
<path d="M25.1825 22.7209C25.0734 22.7865 24.9646 22.8571 24.8553 22.9343C25.6366 23.647 26.3349 24.6834 26.7053 26.1961C26.8282 26.0448 26.9375 25.885 27.0341 25.7142C26.615 24.3377 25.9344 23.3821 25.1825 22.7209Z" fill="#FFE15A"/>
<path d="M26.3234 26.6007C26.0128 25.0164 25.3245 23.9246 24.5379 23.1758C24.4522 23.2466 24.3674 23.3215 24.2836 23.4006C25.0756 24.1665 25.7447 25.2786 25.9729 26.8898C26.0983 26.8039 26.2105 26.7017 26.3234 26.6007Z" fill="#FFE15A"/>
<path d="M24.4244 21.7202C24.5328 21.7756 24.641 21.8331 24.7497 21.8979C25.3985 21.6188 25.9833 21.4985 26.3873 21.4528C26.326 21.3953 26.2581 21.3454 26.1927 21.2922C25.7574 21.3255 25.125 21.4327 24.4244 21.7202Z" fill="#FFE15A"/>
<path d="M24.5887 22.7048C24.7026 22.6319 24.8158 22.5656 24.9291 22.5032C24.8366 22.4311 24.7428 22.369 24.6491 22.3049C24.5398 22.3651 24.4302 22.4267 24.3201 22.4969C24.4104 22.561 24.4995 22.6331 24.5887 22.7048Z" fill="#FFE15A"/>
<path d="M25.3302 22.3001C25.8714 22.0513 26.3674 21.9145 26.7364 21.8428C26.6816 21.7735 26.6277 21.7035 26.5678 21.6386C26.1918 21.6968 25.656 21.8267 25.0607 22.0976C25.1514 22.1598 25.2407 22.2301 25.3302 22.3001Z" fill="#FFE15A"/>
</svg>
