<svg width="48" height="48" viewBox="0 0 48 48" fill="none" xmlns="http://www.w3.org/2000/svg">
<path d="M47.1723 39.7242H0.827623C0.370593 39.7242 0 39.3536 0 38.8965V9.10359C0 8.64656 0.370593 8.27597 0.827623 8.27597H47.1724C47.6294 8.27597 48 8.64656 48 9.10359V38.8965C47.9999 39.3537 47.6293 39.7242 47.1723 39.7242Z" fill="#41479B"/>
<path d="M47.9999 15.7238H0V32.2753H47.9999V15.7238Z" fill="#FF4B55"/>
<path d="M34.9515 30.275V29.1015H34.5603V28.3192H34.1691V27.5371H33.778V26.7548H32.6046V24.4081H32.6045L32.9957 24.017V22.8436H32.6046V22.0613H32.2135V20.888H31.8225V20.1057H31.4313V19.3235H31.0402V18.9323H30.2579V19.3235H29.8668V20.1057H29.4756V20.888H29.0846V22.0613H28.6935V22.8436H26.3466V21.6702H25.9556V20.4968H25.5645V19.3235H25.1734V18.5412H24.7822V17.759H24.3911V17.3679H24.1955V16.9767H23.8044V17.3679H23.6088V17.759H23.2177V18.5412H22.8266V19.3235H22.4355V20.4968H22.0444V21.6702H21.6532V22.8436H19.3065V22.0613H18.9154V20.888H18.5242V20.1057H18.1331V19.3235H17.742V18.9323H16.9597V19.3235H16.5686V20.1057H16.1775V20.888H15.7864V22.0613H15.3952V22.8436H15.0041V24.017L15.3951 24.4081H15.3952V26.7548H14.222V27.5371H13.8308V28.3192H13.4396V29.1015H13.0485V30.275H12.6574V31.4482H35.3425V30.275H34.9515Z" fill="white"/>
</svg>
