<svg width="48" height="48" viewBox="0 0 48 48" fill="none" xmlns="http://www.w3.org/2000/svg">
<path d="M0.827623 8.276H47.1724C47.6294 8.276 48 8.64659 48 9.10362V16.138H0V9.10362C0 8.64659 0.370593 8.276 0.827623 8.276Z" fill="#FFE15A"/>
<path d="M47.9999 16.1382H0V24H47.9999V16.1382Z" fill="white"/>
<path d="M47.9999 23.9999H0V31.8618H47.9999V23.9999Z" fill="#FF4B55"/>
<path d="M0 31.8619H47.9999V38.8964C47.9999 39.3534 47.6293 39.724 47.1723 39.724H0.827623C0.370593 39.724 0 39.3534 0 38.8964V31.8619Z" fill="#4173CD"/>
<path d="M0.305249 39.5242L23.4974 24.3293C23.7345 24.1739 23.7345 23.8262 23.4974 23.6707L0.305249 8.47601C0.122906 8.6277 0 8.84773 0 9.10357V38.8965C0 39.1524 0.122906 39.3724 0.305249 39.5242Z" fill="#73AF00"/>
<path d="M4.57787 24.0001C4.57787 21.0076 6.53396 18.4757 9.2362 17.6036C9.37823 17.5577 9.35845 17.3504 9.21042 17.331C8.93226 17.2946 8.64886 17.2749 8.36067 17.2749C4.64649 17.2749 1.63553 20.2859 1.63553 24.0001C1.63553 27.7142 4.64649 30.7252 8.36067 30.7252C8.64886 30.7252 8.93226 30.7055 9.21042 30.6691C9.35845 30.6497 9.37823 30.4424 9.2362 30.3965C6.53396 29.5245 4.57787 26.9926 4.57787 24.0001Z" fill="white"/>
<path d="M9.27053 18.8634L9.45568 19.4185L10.0408 19.4231C10.1165 19.4237 10.1479 19.5203 10.087 19.5653L9.61628 19.9129L9.79271 20.4708C9.81559 20.543 9.73337 20.6028 9.67168 20.5588L9.19562 20.2185L8.71956 20.5588C8.65787 20.6028 8.57565 20.543 8.59853 20.4708L8.77496 19.9129L8.30425 19.5653C8.24331 19.5203 8.27481 19.4235 8.35047 19.4231L8.93556 19.4185L9.12071 18.8634C9.14481 18.7915 9.24653 18.7915 9.27053 18.8634Z" fill="white"/>
<path d="M9.27053 21.6764L9.45568 22.2314L10.0408 22.236C10.1165 22.2367 10.1479 22.3333 10.087 22.3783L9.61628 22.7259L9.79271 23.2838C9.81559 23.356 9.73337 23.4158 9.67168 23.3717L9.19562 23.0315L8.71956 23.3717C8.65787 23.4158 8.57565 23.356 8.59853 23.2838L8.77496 22.7259L8.30425 22.3783C8.24331 22.3333 8.27481 22.2365 8.35047 22.236L8.93556 22.2314L9.12071 21.6764C9.14481 21.6045 9.24653 21.6045 9.27053 21.6764Z" fill="white"/>
<path d="M9.27053 24.4895L9.45568 25.0446L10.0408 25.0492C10.1165 25.0499 10.1479 25.1465 10.087 25.1915L9.61628 25.5391L9.79271 26.097C9.81559 26.1692 9.73337 26.229 9.67168 26.1849L9.19562 25.8447L8.71956 26.1849C8.65787 26.229 8.57565 26.1692 8.59853 26.097L8.77496 25.5391L8.30425 25.1915C8.24331 25.1465 8.27481 25.0497 8.35047 25.0492L8.93556 25.0446L9.12071 24.4895C9.14481 24.4176 9.24653 24.4176 9.27053 24.4895Z" fill="white"/>
<path d="M9.27053 27.3026L9.45568 27.8577L10.0408 27.8623C10.1165 27.8629 10.1479 27.9595 10.087 28.0045L9.61628 28.3521L9.79271 28.91C9.81559 28.9822 9.73337 29.042 9.67168 28.998L9.19562 28.6578L8.71956 28.998C8.65787 29.042 8.57565 28.9822 8.59853 28.91L8.77496 28.3521L8.30425 28.0045C8.24331 27.9595 8.27481 27.8627 8.35047 27.8623L8.93556 27.8577L9.12071 27.3026C9.14481 27.2307 9.24653 27.2307 9.27053 27.3026Z" fill="white"/>
</svg>
