<svg width="48" height="48" viewBox="0 0 48 48" fill="none" xmlns="http://www.w3.org/2000/svg">
<path d="M47.1723 39.7242H0.827623C0.370593 39.7242 0 39.3536 0 38.8966V9.10362C0 8.64659 0.370593 8.276 0.827623 8.276H47.1724C47.6294 8.276 48 8.64659 48 9.10362V38.8966C47.9999 39.3537 47.6293 39.7242 47.1723 39.7242Z" fill="#73AF00"/>
<path d="M35.1642 8.276L0 31.3146V33.7881L38.9395 8.276H35.1642Z" fill="#FFE15A"/>
<path d="M47.9999 16.6857V14.2122L9.06032 39.7243H12.8355L47.9999 16.6857Z" fill="#FFE15A"/>
<path d="M47.9999 14.2121V9.10362C47.9999 8.64659 47.6293 8.276 47.1723 8.276H38.9395L0 33.7881V38.8966C0 39.3536 0.370593 39.7242 0.827623 39.7242H9.06045L47.9999 14.2121Z" fill="#464655"/>
<path d="M14.6265 25.8655L16.3251 27.2333L18.1692 26.0689C18.408 25.9182 18.7012 26.1581 18.6006 26.422L17.8247 28.4601L19.5019 29.8541C19.719 30.0346 19.5815 30.3875 19.2995 30.3736L17.1213 30.2655L16.3138 32.2914C16.2092 32.5536 15.831 32.532 15.7571 32.2594L15.1869 30.1544L13.0107 30.0124C12.7289 29.9941 12.6327 29.6276 12.8691 29.4732L14.6948 28.2803L14.1573 26.1666C14.0879 25.8931 14.4066 25.6883 14.6265 25.8655Z" fill="white"/>
<path d="M30.2819 15.5897L31.9805 16.9575L33.8246 15.7931C34.0634 15.6424 34.3566 15.8823 34.256 16.1462L33.48 18.1843L35.1572 19.5783C35.3744 19.7588 35.2368 20.1117 34.9548 20.0978L32.7766 19.9896L31.9692 22.0156C31.8646 22.2778 31.4864 22.2561 31.4125 21.9836L30.8423 19.8785L28.6661 19.7366C28.3843 19.7182 28.2881 19.3518 28.5244 19.1974L30.3502 18.0045L29.8127 15.8908C29.7432 15.6174 30.0619 15.4126 30.2819 15.5897Z" fill="white"/>
<path d="M47.9998 38.8964V16.6855L12.8355 39.724H47.1721C47.6293 39.724 47.9998 39.3535 47.9998 38.8964Z" fill="#FF4B55"/>
</svg>
