<svg width="48" height="48" viewBox="0 0 48 48" fill="none" xmlns="http://www.w3.org/2000/svg">
<path d="M47.1723 39.7243H0.827623C0.370593 39.7243 0 39.3537 0 38.8967V9.10362C0 8.64659 0.370593 8.276 0.827623 8.276H47.1724C47.6294 8.276 48 8.64659 48 9.10362V38.8967C47.9999 39.3538 47.6293 39.7243 47.1723 39.7243Z" fill="#41479B"/>
<path d="M47.9999 12.4136H0V14.0687H47.9999V12.4136Z" fill="white"/>
<path d="M47.9999 33.931H0V35.5862H47.9999V33.931Z" fill="white"/>
<path d="M47.9999 14.0691H0V33.9309H47.9999V14.0691Z" fill="#FF4B55"/>
<path d="M13.2411 30.6206C16.8976 30.6206 19.8617 27.6564 19.8617 24C19.8617 20.3435 16.8976 17.3793 13.2411 17.3793C9.58466 17.3793 6.62051 20.3435 6.62051 24C6.62051 27.6564 9.58466 30.6206 13.2411 30.6206Z" fill="white"/>
<path d="M13.4175 17.9724L14.7456 21.9547L18.9434 21.9873C19.122 21.9886 19.1961 22.2166 19.0524 22.3227L15.6754 24.8164L16.9416 28.8188C16.9955 28.989 16.8016 29.1299 16.6563 29.0261L13.2412 26.5849L9.826 29.026C9.68078 29.1299 9.48691 28.9889 9.54072 28.8187L10.8069 24.8163L7.42994 22.3226C7.28622 22.2166 7.36028 21.9886 7.53888 21.9872L11.7367 21.9546L13.0649 17.9723C13.1214 17.803 13.3609 17.803 13.4175 17.9724Z" fill="#FF4B55"/>
</svg>
