<svg width="48" height="48" viewBox="0 0 48 48" fill="none" xmlns="http://www.w3.org/2000/svg">
<path d="M47.1723 39.7241H0.827623C0.370593 39.7241 0 39.3535 0 38.8964V9.1035C0 8.64647 0.370593 8.27588 0.827623 8.27588H47.1724C47.6294 8.27588 48 8.64647 48 9.1035V38.8964C47.9999 39.3536 47.6293 39.7241 47.1723 39.7241Z" fill="#41479B"/>
<path d="M23.1723 8.27588H21.7349L14.0689 13.2983V8.27588H9.93101V13.2983L2.26509 8.27588H0.827623C0.370593 8.27588 0 8.64647 0 9.1035V9.75994L6.57702 14.069H0V18.2069H6.57702L0 22.516V23.1723C0 23.6294 0.370593 24 0.827623 24H2.26509L9.93101 18.9775V24H14.0689V18.9775L21.7348 24H23.1722C23.6293 24 23.9999 23.6294 23.9999 23.1723V22.5159L17.4229 18.2069H23.9999V14.069H17.4228L23.9999 9.75994V9.1035C23.9999 8.64647 23.6295 8.27588 23.1723 8.27588Z" fill="white"/>
<path d="M23.9999 14.8966H13.2413V8.27588H10.7585V14.8966H0V17.3793H10.7585V24H13.2413V17.3793H23.9999V14.8966Z" fill="#FF4B55"/>
<path d="M9.10339 14.069L0.394405 8.41577C0.162656 8.56249 0 8.80886 0 9.10352V9.14646L7.58333 14.069H9.10339Z" fill="#FF4B55"/>
<path d="M15.5891 14.069L23.8742 8.69091C23.7302 8.44725 23.4761 8.27588 23.1725 8.27588H22.9935L14.0691 14.069H15.5891Z" fill="#FF4B55"/>
<path d="M8.38813 18.2068L0.118931 23.5746C0.261524 23.8242 0.519524 23.9999 0.827586 23.9999H0.983679L9.90819 18.2068H8.38813Z" fill="#FF4B55"/>
<path d="M23.9867 23.2375L16.2368 18.207H14.7169L23.5174 23.9195C23.7812 23.7972 23.9619 23.5408 23.9867 23.2375Z" fill="#FF4B55"/>
<path d="M35.9837 16.1456C35.9837 16.1456 35.6377 14.7612 34.5994 14.0691C34.5994 14.0691 35.6376 15.7994 35.6376 17.1838L35.9837 16.1456Z" fill="#FFE15A"/>
<path d="M34.3831 14.6422C34.3831 14.6422 35.1078 15.0855 35.497 15.8102L35.1833 16.5349C35.1835 16.5349 34.9239 15.5075 34.3831 14.6422Z" fill="#FFE15A"/>
<path d="M33.583 14.8044C33.583 14.8044 34.8375 15.1938 35.4323 16.0049L35.0754 16.5457C35.0755 16.5457 34.5996 15.6264 33.583 14.8044Z" fill="#FFE15A"/>
<path d="M33.3991 15.4317C33.3991 15.4317 34.7185 15.6371 35.3134 16.2645L35.1619 16.8593C35.1619 16.8592 34.4374 15.994 33.3991 15.4317Z" fill="#FFE15A"/>
<path d="M33.4424 15.8643C33.4424 15.8643 34.7186 15.9941 35.3026 16.6645C35.8866 17.3351 35.0863 17.1295 35.0863 17.1295C35.0863 17.1295 34.4158 16.3618 33.4424 15.8643Z" fill="#FFE15A"/>
<path d="M35.984 16.1456C35.984 16.1456 36.33 14.7612 37.3683 14.0691C37.3683 14.0691 36.3301 15.7994 36.3301 17.1838L35.984 16.1456Z" fill="#FFE15A"/>
<path d="M37.5844 14.6422C37.5844 14.6422 36.8597 15.0855 36.4704 15.8102L36.7841 16.5349C36.784 16.5349 37.0436 15.5075 37.5844 14.6422Z" fill="#FFE15A"/>
<path d="M38.3847 14.8044C38.3847 14.8044 37.1301 15.1938 36.5354 16.0049L36.8923 16.5457C36.8922 16.5457 37.3681 15.6264 38.3847 14.8044Z" fill="#FFE15A"/>
<path d="M38.5686 15.4317C38.5686 15.4317 37.2492 15.6371 36.6543 16.2645L36.8057 16.8593C36.8057 16.8592 37.5303 15.994 38.5686 15.4317Z" fill="#FFE15A"/>
<path d="M38.5251 15.8643C38.5251 15.8643 37.249 15.9941 36.6649 16.6645C36.081 17.3351 36.8812 17.1295 36.8812 17.1295C36.8812 17.1295 37.5518 16.3618 38.5251 15.8643Z" fill="#FFE15A"/>
<path d="M35.9837 14.069C35.9837 14.069 35.6377 14.7971 35.9837 15.1612C36.3299 14.7972 35.9837 14.069 35.9837 14.069Z" fill="#FFE15A"/>
<path d="M35.639 14.2499C35.639 14.2499 35.5926 15.0548 36.0502 15.2618C36.2339 14.7942 35.639 14.2499 35.639 14.2499Z" fill="#FFE15A"/>
<path d="M36.3289 14.2499C36.3289 14.2499 36.3753 15.0548 35.9177 15.2618C35.734 14.7942 36.3289 14.2499 36.3289 14.2499Z" fill="#FFE15A"/>
<path d="M36.4421 14.7141C36.4421 14.7141 36.1401 15.4617 35.6379 15.4532C35.6717 14.952 36.4421 14.7141 36.4421 14.7141Z" fill="#FFE15A"/>
<path d="M35.5256 14.7141C35.5256 14.7141 35.8276 15.4617 36.3298 15.4532C36.296 14.952 35.5256 14.7141 35.5256 14.7141Z" fill="#FFE15A"/>
<path d="M35.9828 17.8758C36.5565 17.8758 37.0216 17.256 37.0216 16.4915C37.0216 15.727 36.5565 15.1072 35.9828 15.1072C35.4092 15.1072 34.9441 15.727 34.9441 16.4915C34.9441 17.256 35.4092 17.8758 35.9828 17.8758Z" fill="#FFD255"/>
<path d="M33.6114 17.9047L33.3735 17.5369C33.3735 17.5369 32.6813 17.7028 32.5155 17.1837L32.2487 17.162C32.2487 17.162 32.2847 16.8088 32.5947 16.7583C32.5947 16.7583 32.7821 16.5275 33.1138 16.5708C33.4455 16.6141 33.6186 16.8952 33.8096 16.9674C34.0007 17.0395 34.0223 17.2774 34.0223 17.2774L35.4787 18.7698C35.4787 18.7698 35.0606 19.3035 34.6856 19.4764C34.3106 19.6493 32.9336 18.8059 33.6114 17.9047Z" fill="#73AF00"/>
<path d="M38.3414 18.1786C38.3414 18.1786 38.9471 18.5896 38.9686 19.7252H37.9628C37.9628 19.7252 37.9737 18.9573 37.779 18.5464L38.3414 18.1786Z" fill="#73AF00"/>
<path d="M38.2114 18.222C38.2114 18.222 38.9685 18.4708 39.4335 17.8759L38.6441 17.7678L38.2114 18.222Z" fill="#73AF00"/>
<path d="M37.9844 17.3892L38.7532 17.6483C38.8501 17.681 38.8843 17.801 38.8163 17.8775C38.5247 18.2061 37.6541 18.9934 36.2504 18.9934C34.4227 18.9934 33.9505 17.8434 33.9288 17.7569C33.9071 17.6705 33.8098 16.9675 33.8098 16.9675L34.5885 16.881L37.9844 17.3892Z" fill="#73AF00"/>
<path d="M30.5097 27.9777H32.5228L31.4845 29.9887L30.4463 28.6043L30.5097 27.9777Z" fill="#FF4B55"/>
<path d="M41.4574 27.9777H39.4444L40.4826 29.9887L41.5208 28.6043L41.4574 27.9777Z" fill="#FF4B55"/>
<path d="M30.5016 31.373C29.5085 31.373 28.7486 30.8401 28.7094 30.8123L29.5096 29.6824C29.5163 29.6868 30.1868 30.1424 30.8705 29.9353C31.5624 29.7264 32.0166 28.9099 32.2759 28.2613L33.5612 28.7756C33.016 30.1389 32.2382 30.9768 31.2502 31.2664C30.9918 31.3423 30.7399 31.373 30.5016 31.373Z" fill="#FFD25A"/>
<path d="M41.4659 31.373C42.459 31.373 43.219 30.8401 43.2582 30.8123L42.4579 29.6824C42.4513 29.6868 41.7808 30.1424 41.097 29.9353C40.4052 29.7264 39.9509 28.9099 39.6916 28.2613L38.4063 28.7756C38.9516 30.1389 39.7293 30.9768 40.7174 31.2664C40.9757 31.3423 41.2277 31.373 41.4659 31.373Z" fill="#FFD25A"/>
<path d="M40.4828 24.1053H31.4847V20.78C31.4847 20.3229 31.8553 19.9523 32.3124 19.9523H39.6553C40.1123 19.9523 40.4829 20.3229 40.4829 20.78V24.1053H40.4828Z" fill="#FF4B55"/>
<path d="M33.9395 22.3749L33.8314 21.6828C33.3231 21.6611 33.0312 21.0663 33.0312 21.0663L32.6202 21.2934C33.0526 22.3317 33.9395 22.3749 33.9395 22.3749Z" fill="#FFE15A"/>
<path d="M39.3581 21.6611C39.5095 21.5458 39.8411 21.5024 39.8411 21.5024C39.6032 21.2573 39.3437 21.4304 39.3437 21.4304C39.56 21.2285 39.4375 20.9401 39.4375 20.9401C39.4375 21.0339 39.2861 21.0988 39.2861 21.0988C39.2933 20.9114 39.0986 20.731 39.0986 20.731L38.9977 20.8968C38.9328 20.7382 38.7021 20.6157 38.7021 20.6157L38.6083 21.005C38.3921 20.8176 38.0099 20.8319 38.0099 20.8319L38.082 21.0122C37.8513 21.0194 37.224 21.1492 36.8563 21.1924C36.4885 21.2356 36.193 21.1348 36.193 20.969C36.193 20.8301 36.5143 20.8129 36.6534 20.8109C36.7517 20.8328 36.8754 20.8682 37.0492 20.9204C37.3736 21.0178 37.5636 20.8768 37.5636 20.8768C37.45 20.8335 37.4374 20.783 37.4374 20.783C37.6807 20.6424 37.909 20.6771 37.909 20.6771C37.8279 20.4987 37.4763 20.5095 37.4763 20.5095C37.5683 20.4608 37.6385 20.3094 37.6385 20.3094C37.6168 20.331 37.4171 20.3801 37.1442 20.4166C36.9389 20.4443 36.7461 20.6004 36.6664 20.6726C36.4499 20.656 35.8843 20.6491 35.9838 21.0413C36.1064 21.5244 37.0798 21.3513 37.6782 21.2576C38.2766 21.1638 38.5866 21.2432 38.7163 21.3224C38.8462 21.4018 38.6611 21.6704 38.0531 21.5604C37.5276 21.4653 37.2382 21.4626 37.0793 21.4793C36.9031 21.4905 36.7529 21.538 36.6471 21.5604C36.4092 21.6108 35.4934 21.9353 35.3204 21.4666C35.1474 20.9979 34.3038 22.2309 34.3038 22.2309L34.3697 22.3093L34.1452 22.2561C33.8424 22.6617 32.934 22.7861 32.934 22.7861C32.934 22.7861 32.7988 22.5428 32.6851 22.5103C32.5715 22.4778 32.523 22.6562 32.523 22.6562C32.523 22.6562 32.3878 22.6616 32.377 22.7861C32.3661 22.9104 32.4743 22.9213 32.4743 22.9213C32.4743 22.9213 32.3445 23.1105 32.5607 23.1645C32.5607 23.1645 32.5445 23.4295 32.8635 23.2456C33.8114 23.3651 34.5025 22.8784 34.8017 22.6129C34.9974 22.6255 35.3023 22.6192 35.5366 22.4976C35.9115 22.3029 36.3441 22.0577 36.5965 22.1516C36.5965 22.1516 36.7984 22.7716 36.0053 22.786C36.0053 22.786 35.888 22.6377 35.77 22.6377C35.7191 22.6377 35.6661 22.6988 35.6824 22.7537C35.6824 22.7537 35.544 22.7456 35.5196 22.827C35.4996 22.8934 35.548 22.9695 35.6498 22.9573C35.6498 22.9573 35.5806 23.0591 35.6498 23.1201C35.719 23.1811 35.8046 23.1201 35.8046 23.1201C35.8046 23.1201 35.7679 23.2463 35.8534 23.2585C35.9265 23.2689 36.0234 23.1495 36.0511 23.1132C36.1781 23.133 37.044 23.2328 37.2311 22.3245C37.2311 22.3245 37.6637 22.5119 38.0891 22.4759C38.5144 22.4399 38.9327 22.5047 38.8966 22.7138C38.8495 22.8654 38.7565 22.8554 38.7565 22.8554C38.6547 22.8146 38.4837 22.8187 38.4593 22.9653C38.4349 23.112 38.6343 23.116 38.6343 23.116C38.6913 23.2503 38.8541 23.1933 38.8541 23.1933C38.9966 23.2951 39.0903 23.1852 39.0903 23.1852C39.1514 23.2381 39.2144 23.248 39.2735 23.1974C39.3305 23.1485 39.2985 22.8227 39.2931 22.7065C39.2841 22.5131 39.257 22.0072 38.9758 21.9999C38.6947 21.9927 38.3341 22.1585 37.8367 21.7403C37.8107 21.7185 37.7854 21.7046 37.7597 21.686C37.9951 21.7079 38.1638 21.7717 38.327 21.7979C38.5506 21.8341 39.2067 21.7765 39.3581 21.6611Z" fill="#FFE15A"/>
<path d="M32.6202 21.2935C32.6202 21.2935 32.4823 21.2972 32.4148 21.2772C32.2991 21.2431 32.285 21.061 32.4095 21.0284C32.4095 21.0284 32.2598 20.9267 32.3284 20.8121C32.3833 20.7204 32.5233 20.7207 32.572 20.7748C32.572 20.7748 32.5263 20.624 32.6583 20.5742C32.7633 20.5345 32.8476 20.6553 32.8476 20.8121C32.8476 20.8121 33.0045 20.6844 33.0855 20.7689C33.142 20.8278 33.1257 20.9051 33.0314 21.0663C32.9351 21.2307 32.6202 21.2935 32.6202 21.2935Z" fill="#FFE15A"/>
<path d="M32.4493 21.2268C32.4493 21.2268 32.3761 21.353 32.1643 21.2756C32.1643 21.2756 32.3475 21.19 32.372 21.1168L32.4493 21.2268Z" fill="#41479B"/>
<path d="M32.3721 20.8561C32.3721 20.8561 32.2581 20.7829 32.132 20.7869C32.132 20.7869 32.3192 20.6486 32.478 20.7707L32.3721 20.8561Z" fill="#41479B"/>
<path d="M32.6367 20.6608C32.6367 20.6608 32.6733 20.5264 32.6 20.4531C32.6 20.4531 32.7507 20.5183 32.771 20.6403L32.6367 20.6608Z" fill="#41479B"/>
<path d="M32.9708 20.7991C32.9708 20.7991 33.044 20.6363 32.979 20.559C32.979 20.559 33.1743 20.673 33.093 20.8603L32.9708 20.7991Z" fill="#41479B"/>
<path d="M32.5893 22.6088C32.5893 22.6088 32.5109 22.4483 32.4098 22.4489C32.4098 22.4489 32.6224 22.3716 32.7144 22.5539L32.5893 22.6088Z" fill="#41479B"/>
<path d="M32.4179 22.8131C32.4179 22.8131 32.2781 22.7019 32.187 22.746C32.187 22.746 32.3458 22.5847 32.5071 22.7098L32.4179 22.8131Z" fill="#41479B"/>
<path d="M32.5162 23.1015C32.5162 23.1015 32.3376 23.0996 32.2928 23.1902C32.2928 23.1902 32.319 22.9655 32.5232 22.9652L32.5162 23.1015Z" fill="#41479B"/>
<path d="M32.6794 23.287C32.6794 23.287 32.6062 23.4132 32.3944 23.3359C32.3944 23.3359 32.5776 23.2503 32.602 23.1771L32.6794 23.287Z" fill="#41479B"/>
<path d="M35.8976 23.2229C35.8976 23.2229 35.8376 23.3262 35.6641 23.2629C35.6641 23.2629 35.805 23.2127 35.8249 23.1526L35.8976 23.2229Z" fill="#41479B"/>
<path d="M34.0659 20.9906C34.0659 20.9906 33.6764 21.6539 33.7701 22.6129C33.7701 22.6129 34.9182 22.4452 35.4158 21.2989C35.4158 21.2989 35.537 21.2498 35.5843 21.1321C35.6245 21.032 35.6213 20.8671 35.4284 20.868C35.4284 20.868 35.4862 20.7527 35.5564 20.7256C35.5564 20.7256 35.4321 20.6769 35.286 20.7094C35.286 20.7094 35.3996 20.5957 35.3996 20.4498C35.3996 20.4498 35.2266 20.5634 35.1185 20.5741C35.1185 20.5741 35.1076 20.3957 35.1509 20.374C35.1509 20.374 34.9239 20.3957 34.8102 20.5146C34.8102 20.5146 34.7345 20.4119 34.7399 20.3037C34.7399 20.3037 34.529 20.3957 34.4479 20.5308C34.4479 20.5308 34.383 20.4605 34.3885 20.3901C34.3885 20.3901 34.237 20.574 34.2046 20.6713C34.2046 20.6713 34.0619 20.6321 33.9992 20.7471C33.9537 20.8301 33.9641 20.9213 34.0659 20.9906Z" fill="#FFD255"/>
<path d="M35.7247 22.7399C35.7247 22.7399 35.6786 22.653 35.5401 22.6341C35.5401 22.6341 35.7165 22.5527 35.8278 22.6693L35.7247 22.7399Z" fill="#41479B"/>
<path d="M38.5867 23.0697C38.5867 23.0697 38.4855 23.1017 38.4381 23.2447C38.4381 23.2447 38.3863 23.0416 38.5319 22.9464L38.5867 23.0697Z" fill="#41479B"/>
<path d="M38.7989 23.1443C38.7989 23.1443 38.7031 23.2374 38.7077 23.3882C38.7077 23.3882 38.5895 23.2151 38.6938 23.0758L38.7989 23.1443Z" fill="#41479B"/>
<path d="M39.2572 23.1361C39.2572 23.1361 39.2283 23.2348 39.3158 23.3399C39.3158 23.3399 39.1346 23.2823 39.1311 23.1245L39.2572 23.1361Z" fill="#41479B"/>
<path d="M39.0418 23.1746C39.0418 23.1746 38.9649 23.2477 38.9854 23.3971C38.9854 23.3971 38.8424 23.2715 38.9315 23.1221L39.0418 23.1746Z" fill="#41479B"/>
<path d="M35.577 22.9177C35.577 22.9177 35.4843 22.8845 35.3692 22.9637C35.3692 22.9637 35.4449 22.7847 35.6056 22.796L35.577 22.9177Z" fill="#41479B"/>
<path d="M35.7036 23.1147C35.7036 23.1147 35.6085 23.0898 35.5007 23.1787C35.5007 23.1787 35.5173 23.006 35.6785 23.0034L35.7036 23.1147Z" fill="#41479B"/>
<path d="M40.4828 24.6631C39.7324 24.6631 39.7324 25.34 38.9818 25.34C38.2314 25.34 38.2314 24.6631 37.4808 24.6631C36.7308 24.6631 36.7308 25.34 35.9808 25.34C35.2315 25.34 35.2315 24.6631 34.4821 24.6631C33.7328 24.6631 33.7329 25.34 32.9837 25.34C32.2343 25.34 32.2343 24.6631 31.4847 24.6631V23.4132C32.2342 23.4132 32.2342 24.0902 32.9837 24.0902C33.733 24.0902 33.733 23.4132 34.4821 23.4132C35.2315 23.4132 35.2315 24.0902 35.9808 24.0902C36.7308 24.0902 36.7308 23.4132 37.4808 23.4132C38.2314 23.4132 38.2314 24.0902 38.9818 24.0902C39.7324 24.0902 39.7324 23.4132 40.4828 23.4132V24.6631Z" fill="white"/>
<path d="M38.9819 25.34C38.2314 25.34 38.2314 24.663 37.4808 24.663C36.7308 24.663 36.7308 25.34 35.9809 25.34C35.2315 25.34 35.2315 24.663 34.4822 24.663C33.7328 24.663 33.7329 25.34 32.9838 25.34C32.2358 25.34 32.2338 24.6663 31.489 24.6634C31.4993 24.9626 31.5337 25.4068 31.6214 25.9287C32.2302 26.0094 32.2856 26.5898 32.9837 26.5898C33.7329 26.5898 33.7329 25.9127 34.4821 25.9127C35.2314 25.9127 35.2314 26.5898 35.9808 26.5898C36.7308 26.5898 36.7308 25.9127 37.4808 25.9127C38.2312 25.9127 38.2312 26.5898 38.9818 26.5898C39.6809 26.5898 39.7365 26.0092 40.3461 25.9287C40.4339 25.4068 40.4682 24.9626 40.4785 24.6634C39.7329 24.6663 39.7308 25.34 38.9819 25.34Z" fill="#41479B"/>
<path d="M38.9818 26.5898C38.2314 26.5898 38.2314 25.9128 37.4808 25.9128C36.7308 25.9128 36.7308 26.5898 35.9808 26.5898C35.2315 26.5898 35.2315 25.9128 34.4821 25.9128C33.7328 25.9128 33.7329 26.5898 32.9837 26.5898C32.2856 26.5898 32.2301 26.0094 31.6214 25.9288C31.691 26.3424 31.7947 26.8036 31.9476 27.2805C32.285 27.4742 32.4319 27.8397 32.9837 27.8397C33.733 27.8397 33.733 27.1627 34.4821 27.1627C35.2315 27.1627 35.2315 27.8397 35.9808 27.8397C36.7308 27.8397 36.7308 27.1627 37.4808 27.1627C38.2313 27.1627 38.2313 27.8397 38.9818 27.8397C39.5348 27.8397 39.6817 27.4734 40.0202 27.2799C40.173 26.8032 40.2766 26.3422 40.3463 25.9288C39.7365 26.0093 39.6809 26.5898 38.9818 26.5898Z" fill="white"/>
<path d="M38.9818 27.8397C38.2313 27.8397 38.2313 27.1627 37.4808 27.1627C36.7308 27.1627 36.7308 27.8397 35.9808 27.8397C35.2314 27.8397 35.2314 27.1627 34.4821 27.1627C33.7327 27.1627 33.7328 27.8397 32.9837 27.8397C32.432 27.8397 32.285 27.4741 31.9476 27.2805C32.138 27.8747 32.4054 28.4909 32.7787 29.0656C32.8417 29.0785 32.9065 29.0896 32.9837 29.0896C33.7329 29.0896 33.7329 28.4125 34.4821 28.4125C35.2314 28.4125 35.2314 29.0896 35.9808 29.0896C36.7308 29.0896 36.7308 28.4125 37.4808 28.4125C38.2312 28.4125 38.2312 29.0896 38.9818 29.0896C39.0598 29.0896 39.1255 29.0785 39.189 29.0654C39.5623 28.4905 39.8298 27.8742 40.0202 27.28C39.6817 27.4733 39.5348 27.8397 38.9818 27.8397Z" fill="#41479B"/>
<path d="M38.9816 29.0897C38.2312 29.0897 38.2312 28.4126 37.4806 28.4126C36.7306 28.4126 36.7306 29.0897 35.9806 29.0897C35.2313 29.0897 35.2313 28.4126 34.4819 28.4126C33.7326 28.4126 33.7327 29.0897 32.9835 29.0897C32.9064 29.0897 32.8415 29.0786 32.7786 29.0657C33.0158 29.4308 33.2966 29.7781 33.6274 30.0923C33.8565 29.8987 34.0386 29.6625 34.482 29.6625C35.2314 29.6625 35.2314 30.3394 35.9807 30.3394C36.7307 30.3394 36.7307 29.6625 37.4807 29.6625C37.9259 29.6625 38.108 29.8998 38.3384 30.0937C38.6698 29.779 38.9513 29.4313 39.1888 29.0655C39.1253 29.0785 39.0596 29.0897 38.9816 29.0897Z" fill="white"/>
<path d="M38.3385 30.0937C38.1082 29.8998 37.9261 29.6624 37.4808 29.6624C36.7308 29.6624 36.7308 30.3394 35.9808 30.3394C35.2315 30.3394 35.2315 29.6624 34.4821 29.6624C34.0387 29.6624 33.8567 29.8987 33.6275 30.0923C34.2303 30.6651 34.9989 31.1267 35.9837 31.373C36.9678 31.127 37.7359 30.6659 38.3385 30.0937Z" fill="#41479B"/>
<path d="M37.4808 23.4132C36.7308 23.4132 36.7308 24.0902 35.9808 24.0902C35.2315 24.0902 35.2315 23.4132 34.4821 23.4132C33.7328 23.4132 33.7329 24.0902 32.9837 24.0902C32.2343 24.0902 32.2343 23.4132 31.4847 23.4132C31.4847 23.8402 31.4847 24.2111 31.4847 24.4514C31.4847 24.51 31.4861 24.5822 31.4889 24.6635C32.2336 24.6664 32.2358 25.34 32.9836 25.34C33.7329 25.34 33.7329 24.6631 34.482 24.6631C35.2314 24.6631 35.2314 25.34 35.9807 25.34C36.7307 25.34 36.7307 24.6631 37.4807 24.6631C38.2313 24.6631 38.2313 25.34 38.9817 25.34C39.7307 25.34 39.7328 24.6664 40.4786 24.6635C40.4814 24.5821 40.4828 24.5099 40.4828 24.4514C40.4828 24.2111 40.4828 23.8401 40.4828 23.4132C39.7322 23.4132 39.7322 24.0902 38.9817 24.0902C38.2314 24.0902 38.2314 23.4132 37.4808 23.4132Z" fill="white"/>
<path d="M40.1368 19.9523C40.328 19.9523 40.4829 20.1073 40.4829 20.2983V23.4131V24.1052C40.4829 24.2364 40.4829 24.3563 40.4829 24.4513C40.4829 24.5099 40.4816 24.582 40.4788 24.6633C40.4684 24.9626 40.434 25.4068 40.3464 25.9287C40.2768 26.342 40.1731 26.8031 40.0203 27.2798C39.8299 27.8741 39.5624 28.4905 39.1891 29.0652C38.9515 29.4311 38.67 29.7789 38.3387 30.0934C37.7361 30.6656 36.968 31.1267 35.984 31.3727C34.9992 31.1265 34.2306 30.6648 33.6278 30.092C33.297 29.7778 33.0162 29.4306 32.779 29.0654C32.4057 28.4906 32.1382 27.8744 31.9478 27.2803C31.7949 26.8034 31.6911 26.3421 31.6216 25.9286C31.5339 25.4067 31.4996 24.9625 31.4893 24.6632C31.4865 24.5819 31.4851 24.5097 31.4851 24.4512C31.4851 24.3562 31.4851 24.2362 31.4851 24.1051V23.413V20.2982C31.4851 20.1071 31.6401 19.9522 31.8312 19.9522H40.137L40.1368 19.9523ZM40.1368 19.6928H31.8309C31.497 19.6928 31.2252 19.9645 31.2252 20.2985V23.4133V24.1054V24.4515C31.2252 24.5125 31.2265 24.5877 31.2295 24.6725C31.2393 24.955 31.2708 25.4097 31.3653 25.9719C31.4458 26.4506 31.5585 26.9175 31.7003 27.3598C31.9197 28.044 32.2093 28.6656 32.561 29.207C32.82 29.6057 33.1187 29.9669 33.4486 30.2804C34.137 30.9345 34.9687 31.3868 35.9207 31.6248L35.9837 31.6406L36.0466 31.6248C36.9979 31.387 37.8291 30.9351 38.5172 30.2819C38.848 29.9679 39.1472 29.6061 39.4066 29.2067C39.7585 28.6651 40.048 28.0436 40.2673 27.359C40.4091 26.9171 40.5217 26.4503 40.6022 25.9718C40.6968 25.4096 40.7283 24.9548 40.7381 24.6724C40.741 24.5876 40.7424 24.5124 40.7424 24.4514V24.1053V23.4132V20.2984C40.7425 19.9645 40.4708 19.6928 40.1368 19.6928Z" fill="white"/>
<path d="M35.9837 29.2802L35.034 29.9409L35.3691 28.8335L34.4473 28.1347L35.6037 28.1111L35.9837 27.0182L36.3637 28.1111L37.5202 28.1347L36.5984 28.8335L36.9335 29.9409L35.9837 29.2802Z" fill="#73AF00"/>
<path d="M35.9837 27.2318L36.3135 28.1801L37.3173 28.2006L36.5172 28.8072L36.808 29.7682L35.9838 29.1947L35.1597 29.7682L35.4505 28.8072L34.6504 28.2007L35.6543 28.1802L35.9837 27.2318ZM35.9837 26.8048L35.8514 27.1858L35.5537 28.042L34.6474 28.0606L34.2442 28.0687L34.5656 28.3125L35.2878 28.8602L35.0254 29.7278L34.9086 30.1139L35.2397 29.8836L35.9837 29.3658L36.7277 29.8836L37.0589 30.1139L36.9421 29.7278L36.6796 28.8602L37.4019 28.3125L37.7233 28.0687L37.3201 28.0606L36.4138 28.042L36.1161 27.1858L35.9837 26.8048Z" fill="#FFE15A"/>
<path d="M33.8981 26.5808L32.9484 27.2414L33.2835 26.1341L32.3616 25.4352L33.5182 25.4117L33.8981 24.3188L34.278 25.4117L35.4347 25.4352L34.5127 26.1341L34.8478 27.2414L33.8981 26.5808Z" fill="#73AF00"/>
<path d="M33.8981 24.5322L34.2279 25.4805L35.2317 25.5009L34.4317 26.1075L34.7225 27.0685L33.8983 26.4949L33.0742 27.0685L33.365 26.1075L32.5649 25.5009L33.5688 25.4805L33.8981 24.5322ZM33.8981 24.1052L33.7658 24.4862L33.4681 25.3424L32.5618 25.3609L32.1586 25.3691L32.48 25.6128L33.2022 26.1605L32.9398 27.0282L32.823 27.4143L33.1541 27.1839L33.8981 26.6661L34.6421 27.1839L34.9733 27.4143L34.8565 27.0282L34.594 26.1605L35.3163 25.6128L35.6377 25.3691L35.2345 25.3609L34.3282 25.3424L34.0305 24.4862L33.8981 24.1052Z" fill="#FFE15A"/>
<path d="M38.0508 26.5808L37.1012 27.2414L37.4361 26.1341L36.5143 25.4352L37.6708 25.4117L38.0508 24.3188L38.4307 25.4117L39.5873 25.4352L38.6655 26.1341L39.0005 27.2414L38.0508 26.5808Z" fill="#73AF00"/>
<path d="M38.0508 24.5322L38.3805 25.4805L39.3843 25.5009L38.5842 26.1075L38.875 27.0685L38.0509 26.4949L37.2267 27.0685L37.5175 26.1075L36.7175 25.5009L37.7213 25.4805L38.0508 24.5322ZM38.0508 24.1052L37.9184 24.4862L37.6207 25.3424L36.7145 25.3609L36.3112 25.3691L36.6326 25.6128L37.3549 26.1605L37.0925 27.0282L36.9756 27.4143L37.3068 27.1839L38.0508 26.6661L38.7948 27.1839L39.1259 27.4143L39.0091 27.0282L38.7467 26.1605L39.4689 25.6128L39.7903 25.3691L39.3871 25.3609L38.4808 25.3424L38.1831 24.4862L38.0508 24.1052Z" fill="#FFE15A"/>
<path d="M41.4574 27.9775C40.5986 30.1643 38.4715 31.7189 35.9835 31.7189C33.4956 31.7189 31.3685 30.1643 30.5097 27.9775L29.2217 28.4814C30.2827 31.1828 32.9102 33.1033 35.9835 33.1033C39.0569 33.1033 41.6844 31.1828 42.7453 28.4814L41.4574 27.9775Z" fill="#FFE15A"/>
<path d="M36.676 19.9523H35.6378L35.2917 18.9141H36.33L36.676 19.9523Z" fill="white"/>
<path d="M38.4066 19.9523H37.7144L37.4837 19.2601H37.7996C38.0243 19.2601 38.2237 19.4039 38.2948 19.617L38.4066 19.9523Z" fill="white"/>
<path d="M34.5995 19.9523H33.9073L33.8284 19.7156C33.7537 19.4915 33.9205 19.2601 34.1567 19.2601H34.3687L34.5995 19.9523Z" fill="white"/>
<path d="M37.714 19.9523H36.6758L36.3298 18.9141H37.1186C37.2676 18.9141 37.3998 19.0094 37.4469 19.1508L37.714 19.9523Z" fill="#41479B"/>
<path d="M35.6378 19.9523H34.5996L34.3658 19.2511C34.3106 19.0853 34.434 18.9141 34.6087 18.9141H35.2918L35.6378 19.9523Z" fill="#41479B"/>
<path d="M38.5251 17.5515C38.2547 17.9408 37.4977 18.4058 36.2648 18.4058C35.2489 18.4058 34.5956 17.7924 34.3774 17.5505C34.3243 17.4917 34.2965 17.4164 34.2965 17.337V17.1009C34.2965 16.9993 34.3492 16.9069 34.437 16.8559C34.6567 16.728 35.1647 16.524 36.1674 16.524C37.4113 16.524 38.5251 17.5515 38.5251 17.5515Z" fill="#509664"/>
</svg>
