<svg width="48" height="48" viewBox="0 0 48 48" fill="none" xmlns="http://www.w3.org/2000/svg">
<path d="M47.1723 8.27585H0.827623C0.370593 8.27585 0 8.64635 0 9.10338V38.8964C0 39.3534 0.370593 39.724 0.827623 39.724H47.1724C47.6294 39.724 48 39.3534 48 38.8964V9.10338C47.9999 8.64635 47.6293 8.27585 47.1723 8.27585Z" fill="#82C3D2"/>
<path d="M5.57966 12.0419C5.50475 11.7247 5.4861 11.6078 5.62841 11.4656C5.69779 11.3962 5.69779 11.2838 5.62841 11.2144C5.55904 11.1451 5.44663 11.1451 5.37725 11.2144C5.08926 11.5025 5.15797 11.8015 5.23251 12.1181C5.00544 12.0439 4.76994 12.099 4.64376 12.2582C4.58113 12.3376 4.46001 12.5603 4.68698 12.916C4.73976 12.9986 4.84888 13.0229 4.93222 12.9706C5.01501 12.9178 5.0391 12.8078 4.98632 12.7253C4.90119 12.5914 4.89866 12.5088 4.92247 12.4786C4.9506 12.4429 5.03779 12.424 5.1291 12.4564C5.18807 12.4768 5.32513 12.5476 5.32513 12.7613C5.32513 12.932 5.24619 13.0885 5.10857 13.1901C4.97066 13.2921 4.79216 13.3209 4.62013 13.2675C4.40769 13.2026 4.25929 12.9788 4.25929 12.7232C4.25929 12.5403 4.29848 12.3554 4.37048 12.1934C4.38191 12.1695 4.65341 11.6071 4.72335 11.3974C4.86163 10.9828 4.7211 10.7743 4.62519 10.6872C4.49685 10.5703 4.30926 10.5411 4.14782 10.6119C4.12326 10.6228 4.10301 10.6385 4.08173 10.6532C4.06044 10.6385 4.0401 10.6228 4.01563 10.6119C3.85429 10.5411 3.66679 10.5703 3.53826 10.6872C3.44235 10.7743 3.30182 10.9829 3.4401 11.3974C3.51004 11.6071 3.78145 12.1695 3.79045 12.1882C3.86479 12.3555 3.90407 12.5404 3.90407 12.7233C3.90407 12.979 3.75576 13.2027 3.54323 13.2676C3.37054 13.3209 3.1926 13.2925 3.05479 13.1902C2.91717 13.0885 2.83823 12.9321 2.83823 12.7614C2.83823 12.5477 2.97529 12.477 3.03426 12.4564C3.12585 12.4242 3.21257 12.4429 3.24088 12.4787C3.2647 12.5089 3.26217 12.5914 3.17704 12.7254C3.12426 12.808 3.14835 12.918 3.23113 12.9707C3.31457 13.0234 3.42407 12.9988 3.47638 12.9161C3.70326 12.5604 3.58223 12.3378 3.5196 12.2583C3.39332 12.0991 3.15792 12.044 2.93085 12.1182C3.00548 11.8018 3.0741 11.5026 2.7861 11.2145C2.71673 11.1452 2.60432 11.1452 2.53495 11.2145C2.46557 11.2839 2.46557 11.3963 2.53495 11.4657C2.67717 11.6079 2.6587 11.7248 2.5837 12.042C2.5387 12.232 2.48282 12.469 2.48282 12.7611C2.48282 12.9555 2.55117 13.1414 2.6661 13.2941H2.66039C2.56223 13.2941 2.48273 13.3735 2.48273 13.4718C2.48273 13.5699 2.56214 13.6494 2.66039 13.6494H2.6661C2.55117 13.8021 2.48282 13.9879 2.48282 14.1823C2.48282 14.4744 2.5387 14.7114 2.5836 14.9015C2.65851 15.2187 2.67717 15.3356 2.53485 15.4778C2.46548 15.5472 2.46548 15.6596 2.53485 15.729C2.56954 15.7637 2.61501 15.781 2.66048 15.781C2.70585 15.781 2.75142 15.7637 2.7861 15.729C3.0741 15.4409 3.00538 15.1418 2.93085 14.8253C3.15792 14.8992 3.39341 14.8444 3.5196 14.6853C3.58223 14.6058 3.70335 14.3831 3.47638 14.0274C3.42379 13.9448 3.31401 13.9203 3.23113 13.9729C3.14835 14.0256 3.12426 14.1356 3.17704 14.2181C3.26217 14.3521 3.2647 14.4347 3.24088 14.4648C3.21267 14.5002 3.12585 14.5189 3.03426 14.4871C2.97529 14.4666 2.83823 14.3958 2.83823 14.1821C2.83823 14.0114 2.91717 13.8549 3.05479 13.7533C3.1927 13.6513 3.37101 13.6221 3.54323 13.6759C3.75566 13.7408 3.90407 13.9646 3.90407 14.2203C3.90407 14.4032 3.86488 14.588 3.79045 14.7553L2.62692 17.3729C2.53129 17.5879 2.48273 17.8167 2.48273 18.0522C2.48273 18.3553 2.62054 18.632 2.83748 18.801C2.62064 18.9699 2.48273 19.2467 2.48273 19.5497C2.48273 19.7853 2.53139 20.014 2.62692 20.2291L3.79026 22.8465C3.8646 23.0137 3.90388 23.1986 3.90388 23.3815C3.90388 23.6372 3.75557 23.8609 3.54304 23.9258C3.37035 23.9796 3.19242 23.9507 3.0546 23.8485C2.91698 23.7467 2.83804 23.5904 2.83804 23.4196C2.83804 23.2059 2.9751 23.1352 3.03407 23.1147C3.12567 23.0827 3.21238 23.1011 3.2407 23.1369C3.26451 23.1671 3.26198 23.2497 3.17685 23.3836C3.12407 23.4662 3.14817 23.5762 3.23095 23.6289C3.31438 23.6817 3.42388 23.6573 3.4762 23.5743C3.70307 23.2186 3.58204 22.996 3.51941 22.9165C3.39313 22.7573 3.15773 22.7025 2.93067 22.7764C3.00529 22.46 3.07392 22.1609 2.78592 21.8728C2.71654 21.8034 2.60414 21.8034 2.53476 21.8728C2.46539 21.9421 2.46539 22.0546 2.53476 22.1239C2.67698 22.2661 2.65851 22.3831 2.58351 22.7002C2.5386 22.8903 2.48273 23.1273 2.48273 23.4195C2.48273 23.6138 2.55107 23.7997 2.66601 23.9524H2.66029C2.56214 23.9524 2.48264 24.0318 2.48264 24.1301C2.48264 24.2283 2.56204 24.3077 2.66029 24.3077H2.66601C2.55098 24.4605 2.48273 24.6463 2.48273 24.8407C2.48273 25.1328 2.5386 25.3698 2.58351 25.56C2.65842 25.8771 2.67707 25.994 2.53476 26.1362C2.46539 26.2056 2.46539 26.318 2.53476 26.3874C2.56945 26.4221 2.61492 26.4394 2.66039 26.4394C2.70576 26.4394 2.75132 26.4221 2.78601 26.3874C3.07401 26.0993 3.00529 25.8002 2.93076 25.4837C3.15782 25.5576 3.39332 25.5029 3.51951 25.3437C3.58213 25.2643 3.70326 25.0415 3.47629 24.6858C3.4237 24.6032 3.31392 24.5787 3.23104 24.6313C3.14826 24.684 3.12417 24.794 3.17695 24.8765C3.26207 25.0105 3.2646 25.0931 3.24079 25.1233C3.21257 25.159 3.12576 25.1778 3.03417 25.1455C2.9752 25.125 2.83813 25.0543 2.83813 24.8405C2.83813 24.6698 2.91707 24.5133 3.0547 24.4117C3.1926 24.3097 3.37091 24.2805 3.54313 24.3344C3.75557 24.3992 3.90398 24.623 3.90398 24.8787C3.90398 25.0616 3.86479 25.2465 3.79035 25.4137L2.62692 28.0316C2.53129 28.2466 2.48273 28.4754 2.48273 28.7109C2.48273 29.014 2.62054 29.2907 2.83748 29.4597C2.62064 29.6286 2.48273 29.9053 2.48273 30.2084C2.48273 30.444 2.53139 30.6727 2.62692 30.8878L3.79026 33.5052C3.8646 33.6724 3.90388 33.8573 3.90388 34.0402C3.90388 34.2959 3.75557 34.5196 3.54304 34.5845C3.37035 34.6383 3.19242 34.6092 3.0546 34.5072C2.91698 34.4054 2.83804 34.2491 2.83804 34.0783C2.83804 33.8646 2.9751 33.7939 3.03407 33.7734C3.12567 33.7414 3.21238 33.7598 3.2407 33.7956C3.26451 33.8258 3.26198 33.9084 3.17685 34.0423C3.12407 34.1249 3.14817 34.2348 3.23095 34.2876C3.31438 34.3404 3.42388 34.316 3.4762 34.233C3.70307 33.8773 3.58204 33.6547 3.51941 33.5752C3.39313 33.4155 3.15773 33.361 2.93067 33.4351C3.00529 33.1187 3.07392 32.8196 2.78592 32.5315C2.71654 32.4621 2.60414 32.4621 2.53476 32.5315C2.46539 32.6008 2.46539 32.7133 2.53476 32.7826C2.67698 32.9248 2.65851 33.0418 2.58351 33.3589C2.5386 33.549 2.48273 33.7859 2.48273 34.0781C2.48273 34.3565 2.61614 34.6216 2.83917 34.7887C2.61614 34.9557 2.48273 35.2209 2.48273 35.4993C2.48273 35.7914 2.5386 36.0284 2.58351 36.2186C2.65842 36.5356 2.67707 36.6526 2.53476 36.7948C2.46539 36.8642 2.46539 36.9766 2.53476 37.046C2.56945 37.0807 2.61492 37.098 2.66039 37.098C2.70576 37.098 2.75132 37.0807 2.78601 37.046C3.07401 36.7579 3.00529 36.4588 2.93076 36.1423C3.15782 36.2162 3.39332 36.1615 3.51951 36.0023C3.58213 35.9229 3.70326 35.7001 3.47629 35.3444C3.4237 35.2618 3.31392 35.2376 3.23104 35.2899C3.14826 35.3427 3.12417 35.4526 3.17695 35.5351C3.26207 35.6691 3.2646 35.7517 3.24079 35.7819C3.21257 35.8176 3.12576 35.836 3.03417 35.8041C2.9752 35.7837 2.83813 35.7129 2.83813 35.4991C2.83813 35.3284 2.91707 35.1719 3.0547 35.0703C3.1926 34.9683 3.37091 34.9395 3.54313 34.993C3.75557 35.0578 3.90398 35.2816 3.90398 35.5373C3.90398 35.7202 3.86479 35.9051 3.79279 36.0671C3.78135 36.091 3.50985 36.6534 3.43992 36.863C3.30163 37.2776 3.44216 37.4861 3.53807 37.5732C3.6201 37.6479 3.72576 37.6871 3.83376 37.6871C3.89498 37.6871 3.95704 37.6742 4.01554 37.6486C4.0401 37.6377 4.06035 37.622 4.08163 37.6074C4.10291 37.6221 4.12326 37.6377 4.14773 37.6486C4.20613 37.6743 4.26829 37.6871 4.32951 37.6871C4.43723 37.6871 4.54307 37.6479 4.62519 37.5732C4.7211 37.4861 4.86163 37.2776 4.72335 36.863C4.65341 36.6534 4.38201 36.091 4.37301 36.0722C4.29866 35.905 4.25938 35.7201 4.25938 35.5372C4.25938 35.2814 4.40769 35.0577 4.62023 34.9929C4.79301 34.9394 4.97085 34.9682 5.10866 35.0702C5.24629 35.1719 5.32522 35.3283 5.32522 35.499C5.32522 35.7128 5.18816 35.7835 5.12919 35.804C5.03797 35.836 4.9506 35.8176 4.92257 35.7818C4.89876 35.7516 4.90129 35.669 4.98641 35.535C5.03919 35.4524 5.0151 35.3426 4.93232 35.2898C4.84935 35.2377 4.73994 35.262 4.68707 35.3443C4.46019 35.7 4.58123 35.9227 4.64385 36.0022C4.77013 36.1614 5.00554 36.2162 5.2326 36.1422C5.15797 36.4587 5.08935 36.7578 5.37735 37.0459C5.41204 37.0806 5.45751 37.0979 5.50297 37.0979C5.54844 37.0979 5.59391 37.0806 5.6286 37.0459C5.69797 36.9765 5.69797 36.8641 5.6286 36.7947C5.48638 36.6525 5.50485 36.5356 5.57985 36.2185C5.62475 36.0283 5.68063 35.7913 5.68063 35.4992C5.68063 35.2208 5.54722 34.9557 5.32419 34.7886C5.54722 34.6215 5.68063 34.3565 5.68063 34.078C5.68063 33.7858 5.62475 33.5488 5.57985 33.3587C5.50494 33.0417 5.48629 32.9247 5.6286 32.7824C5.69797 32.7131 5.69797 32.6007 5.6286 32.5313C5.55922 32.4619 5.44682 32.4619 5.37744 32.5313C5.08944 32.8194 5.15816 33.1183 5.23269 33.4349C5.00563 33.3608 4.77013 33.4153 4.64394 33.575C4.58132 33.6544 4.46019 33.8772 4.68716 34.2328C4.73994 34.3154 4.84907 34.3397 4.93241 34.2874C5.01519 34.2346 5.03929 34.1247 4.98651 34.0422C4.90138 33.9082 4.89885 33.8256 4.92266 33.7954C4.95079 33.7597 5.03797 33.7413 5.12929 33.7732C5.18826 33.7936 5.32532 33.8644 5.32532 34.0782C5.32532 34.2489 5.24638 34.4053 5.10876 34.507C4.97085 34.609 4.79235 34.6381 4.62032 34.5843C4.40788 34.5194 4.25948 34.2957 4.25948 34.04C4.25948 33.8571 4.29866 33.6722 4.3731 33.505L5.53644 30.8876C5.63207 30.6725 5.68063 30.4438 5.68063 30.2083C5.68063 29.9052 5.54282 29.6284 5.32588 29.4595C5.54272 29.2905 5.68063 29.0138 5.68063 28.7107C5.68063 28.4751 5.63197 28.2464 5.53644 28.0314L4.37319 25.4142C4.29885 25.2469 4.25957 25.062 4.25957 24.8791C4.25957 24.6234 4.40788 24.3997 4.62041 24.3348C4.79319 24.2814 4.97104 24.3102 5.10885 24.4122C5.24647 24.5139 5.32541 24.6703 5.32541 24.841C5.32541 25.0547 5.18835 25.1254 5.12938 25.146C5.03816 25.1782 4.95079 25.1595 4.92276 25.1237C4.89894 25.0935 4.90147 25.011 4.9866 24.877C5.03938 24.7944 5.01529 24.6845 4.93251 24.6317C4.84954 24.5797 4.74013 24.604 4.68726 24.6863C4.46038 25.042 4.58141 25.2646 4.64404 25.3441C4.77032 25.5033 5.00572 25.5582 5.23279 25.4842C5.15816 25.8006 5.08954 26.0998 5.37754 26.3879C5.41222 26.4225 5.45769 26.4399 5.50316 26.4399C5.54863 26.4399 5.5941 26.4225 5.62879 26.3879C5.69816 26.3185 5.69816 26.2061 5.62879 26.1367C5.48657 25.9945 5.50504 25.8776 5.58004 25.5604C5.62494 25.3703 5.68082 25.1333 5.68082 24.8412C5.68082 24.6468 5.61247 24.4609 5.49754 24.3082H5.50326C5.60141 24.3082 5.68091 24.2288 5.68091 24.1305C5.68091 24.0324 5.6015 23.9529 5.50326 23.9529H5.49754C5.61257 23.8002 5.68082 23.6145 5.68082 23.4199C5.68082 23.1278 5.62494 22.8908 5.58004 22.7007C5.50513 22.3835 5.48647 22.2666 5.62879 22.1244C5.69816 22.055 5.69816 21.9426 5.62879 21.8732C5.55941 21.8039 5.44701 21.8039 5.37763 21.8732C5.08963 22.1613 5.15835 22.4604 5.23288 22.7769C5.00582 22.703 4.77032 22.7578 4.64413 22.917C4.58151 22.9964 4.46038 23.2191 4.68735 23.5748C4.74013 23.6574 4.84926 23.6814 4.9326 23.6294C5.01538 23.5766 5.03947 23.4666 4.98669 23.3841C4.90157 23.2501 4.89904 23.1676 4.92285 23.1374C4.95097 23.1016 5.03816 23.0833 5.12947 23.1151C5.18844 23.1356 5.32551 23.2064 5.32551 23.4201C5.32551 23.5908 5.24657 23.7473 5.10894 23.8489C4.97104 23.9509 4.79254 23.9797 4.62051 23.9263C4.40807 23.8614 4.25966 23.6376 4.25966 23.382C4.25966 23.1991 4.29885 23.0142 4.37329 22.8469L5.53663 20.2295C5.63225 20.0145 5.68082 19.7857 5.68082 19.5502C5.68082 19.2471 5.543 18.9704 5.32607 18.8014C5.54291 18.6325 5.68082 18.3557 5.68082 18.0527C5.68082 17.8171 5.63216 17.5884 5.53663 17.3733L4.37329 14.7559C4.29894 14.5887 4.25966 14.4038 4.25966 14.2209C4.25966 13.9652 4.40798 13.7415 4.62051 13.6766C4.79329 13.6232 4.97113 13.6519 5.10894 13.7539C5.24657 13.8557 5.32551 14.012 5.32551 14.1828C5.32551 14.3965 5.18844 14.4672 5.12947 14.4877C5.03826 14.5197 4.95088 14.5008 4.92285 14.4655C4.89904 14.4353 4.90157 14.3527 4.98669 14.2188C5.03947 14.1362 5.01538 14.0262 4.9326 13.9735C4.84963 13.9215 4.74023 13.9454 4.68735 14.028C4.46048 14.3837 4.58151 14.6063 4.64413 14.6858C4.77041 14.845 5.00582 14.8998 5.23288 14.8259C5.15826 15.1423 5.08963 15.4414 5.37763 15.7295C5.41232 15.7642 5.45779 15.7816 5.50326 15.7816C5.54872 15.7816 5.59419 15.7642 5.62888 15.7295C5.69825 15.6602 5.69825 15.5478 5.62888 15.4784C5.48666 15.3362 5.50513 15.2193 5.58013 14.9021C5.62504 14.712 5.68091 14.475 5.68091 14.1828C5.68091 13.9885 5.61257 13.8026 5.49763 13.6499H5.50335C5.6015 13.6499 5.681 13.5705 5.681 13.4722C5.681 13.3741 5.6016 13.2946 5.50335 13.2946H5.49763C5.61266 13.1419 5.68091 12.9561 5.68091 12.7616C5.68035 12.469 5.62447 12.232 5.57966 12.0419ZM3.77685 11.2849C3.71376 11.0955 3.73579 10.9876 3.77741 10.9497C3.8046 10.924 3.84585 10.925 3.87201 10.9369C3.90407 10.9511 3.90407 10.9737 3.90407 10.9848C3.90407 11.0829 3.98348 11.1624 4.08173 11.1624C4.17988 11.1624 4.25938 11.083 4.25938 10.9848C4.25938 10.9737 4.25938 10.9511 4.29144 10.9369C4.31713 10.925 4.3581 10.924 4.38604 10.9497C4.42766 10.9876 4.44969 11.0955 4.3866 11.2849C4.34066 11.4222 4.17444 11.7798 4.08182 11.9738C3.99107 11.7843 3.82307 11.4231 3.77685 11.2849ZM4.08163 18.6147C4.13263 18.684 4.19029 18.7485 4.26041 18.801C4.19029 18.8536 4.13263 18.918 4.08163 18.9872C4.03063 18.918 3.97298 18.8535 3.90285 18.801C3.97298 18.7484 4.03063 18.6841 4.08163 18.6147ZM4.08163 29.2733C4.13263 29.3426 4.19029 29.4071 4.26041 29.4596C4.19029 29.5122 4.13263 29.5766 4.08163 29.6458C4.03063 29.5766 3.97298 29.5121 3.90285 29.4596C3.97298 29.407 4.03063 29.3428 4.08163 29.2733ZM4.38632 36.9758C4.44941 37.1651 4.42738 37.2731 4.38576 37.3109C4.35782 37.3362 4.31685 37.3352 4.29116 37.3238C4.2591 37.3095 4.2591 37.287 4.2591 37.2759C4.2591 37.1777 4.17969 37.0982 4.08144 37.0982C3.9832 37.0982 3.90379 37.1776 3.90379 37.2759C3.90379 37.2869 3.90379 37.3095 3.87173 37.3238C3.84566 37.3352 3.80441 37.3363 3.77713 37.3109C3.73551 37.2731 3.71348 37.1651 3.77657 36.9758C3.82251 36.8384 3.98873 36.4809 4.08135 36.2868C4.1721 36.4763 4.3401 36.8375 4.38632 36.9758ZM4.25873 34.7889C4.19151 34.8412 4.13188 34.9038 4.08163 34.9746C4.03148 34.9038 3.97176 34.8413 3.90454 34.7889C3.97176 34.7366 4.03138 34.6739 4.08163 34.6032C4.13179 34.6739 4.19141 34.7366 4.25873 34.7889ZM5.21141 30.7433L4.08154 33.2854L2.95167 30.7433C2.87732 30.576 2.83804 30.3912 2.83804 30.2083C2.83804 29.9525 2.98635 29.7287 3.19888 29.6639C3.37157 29.6105 3.5497 29.6393 3.68732 29.7413C3.82495 29.843 3.90388 29.9994 3.90388 30.1701C3.90388 30.3839 3.76682 30.4545 3.70785 30.4751C3.61626 30.507 3.52916 30.4887 3.50123 30.4528C3.47741 30.4227 3.47995 30.3401 3.56507 30.2061C3.61785 30.1235 3.59376 30.0135 3.51098 29.9609C3.42801 29.9088 3.3186 29.9331 3.26573 30.0154C3.03885 30.3711 3.15988 30.5938 3.22251 30.6733C3.35113 30.8356 3.5931 30.8915 3.82448 30.8106C3.85082 30.8015 3.87754 30.7902 3.90388 30.7768V31.226C3.90388 31.2259 3.9036 31.2257 3.9036 31.2257C3.89826 31.1322 3.82082 31.0584 3.72632 31.0584C3.62816 31.0584 3.54866 31.1378 3.54866 31.236C3.54866 31.3519 3.62966 31.5529 3.90388 31.6152V31.9466C3.90388 32.0447 3.98329 32.1242 4.08154 32.1242C4.17979 32.1242 4.25919 32.0448 4.25919 31.9466V31.6152C4.53341 31.5529 4.61441 31.3519 4.61441 31.236C4.61441 31.1379 4.53519 31.0526 4.43713 31.0526C4.33898 31.0526 4.25985 31.1262 4.25985 31.2243C4.25976 31.2246 4.25919 31.2251 4.2591 31.2253V30.7769C4.28544 30.7903 4.31216 30.8017 4.33851 30.8108C4.56988 30.8916 4.81176 30.8357 4.94047 30.6734C5.0031 30.594 5.12422 30.3713 4.89726 30.0156C4.84447 29.933 4.73488 29.9087 4.65201 29.961C4.56923 30.0138 4.54513 30.1238 4.59791 30.2063C4.68304 30.3403 4.68557 30.4228 4.66176 30.453C4.63363 30.4888 4.54654 30.5071 4.45513 30.4753C4.39616 30.4548 4.2591 30.384 4.2591 30.1703C4.2591 29.9996 4.33804 29.8431 4.47566 29.7415C4.61357 29.6395 4.79207 29.6103 4.9641 29.6641C5.17654 29.729 5.32494 29.9528 5.32494 30.2084C5.32513 30.3912 5.28594 30.5761 5.21141 30.7433ZM5.21141 28.1759C5.28576 28.3431 5.32504 28.528 5.32504 28.7109C5.32504 28.9666 5.17672 29.1903 4.96419 29.2552C4.79179 29.309 4.61338 29.2799 4.47576 29.1779C4.33813 29.0761 4.25919 28.9198 4.25919 28.749C4.25919 28.5353 4.39626 28.4646 4.45523 28.4441C4.54663 28.4121 4.63382 28.4305 4.66185 28.4663C4.68566 28.4965 4.68313 28.5791 4.59801 28.713C4.54523 28.7956 4.56932 28.9055 4.6521 28.9583C4.73554 29.0111 4.84504 28.9867 4.89735 28.9037C5.12422 28.548 5.00319 28.3254 4.94057 28.2459C4.81185 28.0835 4.56998 28.0283 4.3386 28.1085C4.31226 28.1176 4.28554 28.1291 4.25919 28.1424V27.693L4.25948 27.6936C4.26482 27.7869 4.34226 27.8609 4.43676 27.8609C4.53491 27.8609 4.61441 27.7814 4.61441 27.6832C4.61441 27.5673 4.53341 27.3663 4.25919 27.3041V26.9727C4.25919 26.8745 4.17979 26.795 4.08154 26.795C3.98329 26.795 3.90388 26.8744 3.90388 26.9727V27.3041C3.62966 27.3663 3.54866 27.5673 3.54866 27.6832C3.54866 27.7814 3.62788 27.8667 3.72595 27.8667C3.8241 27.8667 3.90323 27.7931 3.90323 27.6949C3.90332 27.6946 3.90388 27.6942 3.90388 27.6942L3.90398 28.1423C3.87763 28.1289 3.85091 28.1175 3.82457 28.1084C3.5932 28.0283 3.35123 28.0835 3.2226 28.2458C3.15998 28.3252 3.03885 28.5479 3.26582 28.9036C3.3186 28.9862 3.4282 29.0102 3.51107 28.9582C3.59385 28.9054 3.61795 28.7954 3.56516 28.7129C3.48004 28.579 3.47751 28.4964 3.50132 28.4662C3.52926 28.4305 3.61635 28.4121 3.70795 28.444C3.76691 28.4644 3.90398 28.5352 3.90398 28.7489C3.90398 28.9197 3.82504 29.0761 3.68741 29.1778C3.54951 29.2798 3.37138 29.3089 3.19898 29.2551C2.98654 29.1902 2.83813 28.9664 2.83813 28.7108C2.83813 28.5279 2.87732 28.343 2.95176 28.1758L4.08163 25.6336L5.21141 28.1759ZM4.25873 24.1304C4.19151 24.1827 4.13188 24.2453 4.08163 24.3161C4.03148 24.2453 3.97176 24.1828 3.90454 24.1304C3.97176 24.078 4.03138 24.0154 4.08163 23.9446C4.13179 24.0153 4.19141 24.078 4.25873 24.1304ZM5.21141 20.0848L4.08154 22.6269L2.95167 20.0848C2.87732 19.9175 2.83804 19.7327 2.83804 19.5497C2.83804 19.294 2.98635 19.0703 3.19888 19.0054C3.37157 18.952 3.5497 18.9808 3.68732 19.0828C3.82495 19.1845 3.90388 19.3409 3.90388 19.5116C3.90388 19.7253 3.76682 19.796 3.70785 19.8166C3.61626 19.8488 3.52916 19.8302 3.50123 19.7943C3.47741 19.7642 3.47995 19.6816 3.56507 19.5476C3.61785 19.465 3.59376 19.355 3.51098 19.3023C3.42801 19.25 3.3186 19.2742 3.26573 19.3569C3.03885 19.7126 3.15988 19.9352 3.22251 20.0147C3.35113 20.1771 3.5931 20.2326 3.82448 20.1521C3.85082 20.143 3.87754 20.1317 3.90388 20.1182V20.5675L3.9036 20.5669C3.89826 20.4736 3.82082 20.3997 3.72632 20.3997C3.62816 20.3997 3.54866 20.4791 3.54866 20.5773C3.54866 20.6932 3.62966 20.8942 3.90388 20.9565V21.2879C3.90388 21.386 3.98329 21.4655 4.08154 21.4655C4.17979 21.4655 4.25919 21.3861 4.25919 21.2879V20.9565C4.53341 20.8942 4.61441 20.6932 4.61441 20.5773C4.61441 20.4792 4.53519 20.3938 4.43713 20.3938C4.33898 20.3938 4.25985 20.4674 4.25985 20.5655C4.25976 20.5658 4.25919 20.5663 4.25919 20.5663L4.2591 20.1182C4.28544 20.1316 4.31216 20.1429 4.33851 20.152C4.56988 20.2324 4.81176 20.1769 4.94047 20.0147C5.0031 19.9352 5.12422 19.7125 4.89726 19.3568C4.84447 19.2738 4.73488 19.2497 4.65201 19.3022C4.56923 19.355 4.54513 19.465 4.59791 19.5475C4.68304 19.6815 4.68557 19.7641 4.66176 19.7942C4.63363 19.83 4.54654 19.8488 4.45513 19.8165C4.39616 19.796 4.2591 19.7252 4.2591 19.5115C4.2591 19.3408 4.33804 19.1843 4.47566 19.0827C4.61357 18.9807 4.79207 18.9519 4.9641 19.0053C5.17654 19.0702 5.32494 19.294 5.32494 19.5497C5.32513 19.7327 5.28594 19.9175 5.21141 20.0848ZM5.21141 17.5172C5.28576 17.6845 5.32504 17.8694 5.32504 18.0523C5.32504 18.308 5.17672 18.5317 4.96419 18.5966C4.79179 18.6504 4.61338 18.6212 4.47576 18.5192C4.33813 18.4175 4.25919 18.2612 4.25919 18.0904C4.25919 17.8767 4.39626 17.806 4.45523 17.7855C4.54663 17.7535 4.63382 17.7719 4.66185 17.8077C4.68566 17.8379 4.68313 17.9205 4.59801 18.0544C4.54523 18.137 4.56932 18.2469 4.6521 18.2997C4.73554 18.352 4.84504 18.3281 4.89735 18.2451C5.12422 17.8894 5.00319 17.6668 4.94057 17.5873C4.81185 17.4249 4.56998 17.3694 4.3386 17.4499C4.31226 17.459 4.28554 17.4704 4.25919 17.4838V17.0345C4.25919 17.0346 4.25948 17.0348 4.25948 17.0348C4.26482 17.1284 4.34226 17.2022 4.43676 17.2022C4.53491 17.2022 4.61441 17.1228 4.61441 17.0245C4.61441 16.9086 4.53341 16.7076 4.25919 16.6454V16.314C4.25919 16.2158 4.17979 16.1363 4.08154 16.1363C3.98329 16.1363 3.90388 16.2157 3.90388 16.314V16.6454C3.62966 16.7076 3.54866 16.9086 3.54866 17.0245C3.54866 17.1227 3.62788 17.2081 3.72595 17.2081C3.8241 17.2081 3.90323 17.1345 3.90323 17.0363C3.90332 17.036 3.90388 17.0356 3.90398 17.0353V17.4837C3.87763 17.4703 3.85091 17.4589 3.82457 17.4498C3.5932 17.3694 3.35123 17.4249 3.2226 17.5872C3.15998 17.6666 3.03885 17.8893 3.26582 18.245C3.3186 18.3276 3.4282 18.3516 3.51107 18.2996C3.59385 18.2468 3.61795 18.1368 3.56516 18.0543C3.48004 17.9204 3.47751 17.8378 3.50132 17.8076C3.52926 17.7719 3.61635 17.7535 3.70795 17.7854C3.76691 17.8058 3.90398 17.8766 3.90398 18.0903C3.90398 18.2611 3.82504 18.4175 3.68741 18.5192C3.54951 18.6212 3.37138 18.6503 3.19898 18.5965C2.98654 18.5316 2.83813 18.3078 2.83813 18.0522C2.83813 17.8693 2.87732 17.6844 2.95176 17.5172L4.08163 14.975L5.21141 17.5172ZM3.90445 13.4718C3.97166 13.4194 4.03129 13.3568 4.08154 13.286C4.13169 13.3568 4.19141 13.4194 4.25863 13.4718C4.19141 13.5241 4.13179 13.5867 4.08154 13.6575C4.03138 13.5867 3.97176 13.5241 3.90445 13.4718Z" fill="#FFE15A"/>
<path d="M25.382 26.3095C27.7434 26.3095 29.6576 24.3953 29.6576 22.034C29.6576 19.6727 27.7434 17.7585 25.382 17.7585C23.0207 17.7585 21.1065 19.6727 21.1065 22.034C21.1065 24.3953 23.0207 26.3095 25.382 26.3095Z" fill="#FFE15A"/>
<path d="M25.703 16.5827C25.703 16.7598 25.5593 16.9034 25.3822 16.9034C25.2051 16.9034 25.0615 16.7598 25.0615 16.5827C25.0615 16.4056 25.3822 15.6207 25.3822 15.6207C25.3822 15.6207 25.703 16.4056 25.703 16.5827Z" fill="#FFE15A"/>
<path d="M25.0616 27.4861C25.0616 27.309 25.2052 27.1654 25.3823 27.1654C25.5594 27.1654 25.703 27.309 25.703 27.4861C25.703 27.6632 25.3823 28.4482 25.3823 28.4482C25.3823 28.4482 25.0616 27.6633 25.0616 27.4861Z" fill="#FFE15A"/>
<path d="M30.8341 22.3551C30.657 22.3551 30.5134 22.2115 30.5134 22.0344C30.5134 21.8573 30.657 21.7137 30.8341 21.7137C31.0112 21.7137 31.7961 22.0344 31.7961 22.0344C31.7961 22.0344 31.0112 22.3551 30.8341 22.3551Z" fill="#FFE15A"/>
<path d="M19.9308 21.7138C20.1078 21.7138 20.2515 21.8574 20.2515 22.0345C20.2515 22.2116 20.1078 22.3552 19.9308 22.3552C19.7537 22.3552 18.9687 22.0345 18.9687 22.0345C18.9687 22.0345 19.7537 21.7138 19.9308 21.7138Z" fill="#FFE15A"/>
<path d="M29.4644 18.4063C29.3392 18.5315 29.1362 18.5315 29.0109 18.4063C28.8855 18.281 28.8856 18.0781 29.0109 17.9527C29.1361 17.8274 29.9179 17.4991 29.9179 17.4991C29.9179 17.4991 29.5898 18.281 29.4644 18.4063Z" fill="#FFE15A"/>
<path d="M21.3007 25.6626C21.426 25.5374 21.629 25.5374 21.7543 25.6626C21.8796 25.7878 21.8795 25.9908 21.7543 26.1162C21.629 26.2415 20.8473 26.5696 20.8473 26.5696C20.8473 26.5696 21.1755 25.7879 21.3007 25.6626Z" fill="#FFE15A"/>
<path d="M29.0109 26.1162C28.8856 25.9909 28.8856 25.7879 29.0109 25.6626C29.1361 25.5373 29.3391 25.5374 29.4644 25.6626C29.5898 25.7879 29.918 26.5696 29.918 26.5696C29.918 26.5696 29.1361 26.2413 29.0109 26.1162Z" fill="#FFE15A"/>
<path d="M21.7542 17.9527C21.8794 18.078 21.8794 18.2809 21.7542 18.4063C21.6289 18.5316 21.426 18.5315 21.3006 18.4063C21.1753 18.281 20.847 17.4993 20.847 17.4993C20.847 17.4993 21.6289 17.8276 21.7542 17.9527Z" fill="#FFE15A"/>
<path d="M23.5926 16.875C23.6604 17.0386 23.5827 17.2261 23.419 17.2939C23.2553 17.3617 23.0678 17.284 23 17.1203C22.9322 16.9566 22.9281 16.1087 22.9281 16.1087C22.9281 16.1087 23.5248 16.7113 23.5926 16.875Z" fill="#FFE15A"/>
<path d="M27.1727 27.1939C27.1049 27.0302 27.1826 26.8427 27.3463 26.775C27.51 26.7072 27.6975 26.7849 27.7653 26.9486C27.833 27.1123 27.8372 27.9601 27.8372 27.9601C27.8372 27.9601 27.2404 27.3576 27.1727 27.1939Z" fill="#FFE15A"/>
<path d="M30.5419 20.2446C30.3782 20.3123 30.1907 20.2346 30.1229 20.0709C30.0552 19.9072 30.1329 19.7197 30.2966 19.652C30.4603 19.5842 31.308 19.58 31.308 19.58C31.308 19.58 30.7056 20.1767 30.5419 20.2446Z" fill="#FFE15A"/>
<path d="M20.223 23.8244C20.3867 23.7566 20.5742 23.8343 20.642 23.998C20.7097 24.1617 20.632 24.3492 20.4683 24.417C20.3047 24.4848 19.4568 24.4889 19.4568 24.4889C19.4568 24.4889 20.0593 23.8923 20.223 23.8244Z" fill="#FFE15A"/>
<path d="M27.7651 17.1204C27.6973 17.2841 27.5097 17.3617 27.3461 17.294C27.1824 17.2263 27.1048 17.0387 27.1725 16.8751C27.2403 16.7115 27.8369 16.1089 27.8369 16.1089C27.8369 16.1089 27.8329 16.9568 27.7651 17.1204Z" fill="#FFE15A"/>
<path d="M23 26.9485C23.0678 26.7848 23.2554 26.7072 23.419 26.7749C23.5827 26.8426 23.6603 27.0302 23.5926 27.1938C23.5249 27.3575 22.9282 27.9599 22.9282 27.9599C22.9282 27.9599 22.9323 27.1122 23 26.9485Z" fill="#FFE15A"/>
<path d="M30.2965 24.4169C30.1328 24.3492 30.0552 24.1616 30.1228 23.998C30.1906 23.8343 30.3782 23.7567 30.5418 23.8244C30.7054 23.892 31.3079 24.4888 31.3079 24.4888C31.3079 24.4888 30.46 24.4848 30.2965 24.4169Z" fill="#FFE15A"/>
<path d="M20.4684 19.652C20.6321 19.7197 20.7097 19.9073 20.642 20.0709C20.5742 20.2345 20.3866 20.3122 20.223 20.2445C20.0594 20.1768 19.4569 19.5801 19.4569 19.5801C19.4569 19.5801 20.3049 19.5841 20.4684 19.652Z" fill="#FFE15A"/>
<path d="M24.6336 16.625C24.6682 16.7987 24.5554 16.9675 24.3816 17.002C24.2079 17.0366 24.039 16.9238 24.0045 16.75C23.9699 16.5763 24.1314 15.7439 24.1314 15.7439C24.1314 15.7439 24.599 16.4512 24.6336 16.625Z" fill="#FFE15A"/>
<path d="M26.1316 27.4439C26.097 27.2702 26.2098 27.1014 26.3836 27.0669C26.5574 27.0323 26.7262 27.1451 26.7607 27.3189C26.7952 27.4926 26.6338 28.325 26.6338 28.325C26.6338 28.325 26.1661 27.6177 26.1316 27.4439Z" fill="#FFE15A"/>
<path d="M30.7922 21.2854C30.6185 21.32 30.4496 21.2072 30.4151 21.0334C30.3805 20.8595 30.4933 20.6908 30.6671 20.6563C30.8408 20.6217 31.6732 20.7831 31.6732 20.7831C31.6732 20.7831 30.9659 21.2509 30.7922 21.2854Z" fill="#FFE15A"/>
<path d="M19.973 22.7835C20.1467 22.7489 20.3155 22.8617 20.35 23.0355C20.3846 23.2093 20.2719 23.3781 20.098 23.4126C19.9243 23.4472 19.0919 23.2857 19.0919 23.2857C19.0919 23.2857 19.7993 22.818 19.973 22.7835Z" fill="#FFE15A"/>
<path d="M28.6779 17.6797C28.5795 17.827 28.3803 17.8665 28.233 17.7681C28.0858 17.6697 28.0462 17.4705 28.1446 17.3233C28.243 17.176 28.9457 16.7015 28.9457 16.7015C28.9457 16.7015 28.7762 17.5323 28.6779 17.6797Z" fill="#FFE15A"/>
<path d="M22.0872 26.3892C22.1855 26.2419 22.3847 26.2023 22.532 26.3008C22.6793 26.3991 22.7189 26.5983 22.6204 26.7456C22.5221 26.8929 21.8193 27.3674 21.8193 27.3674C21.8193 27.3674 21.9888 26.5365 22.0872 26.3892Z" fill="#FFE15A"/>
<path d="M29.7372 25.3299C29.5899 25.2316 29.5504 25.0323 29.6488 24.8851C29.7473 24.7378 29.9464 24.6982 30.0937 24.7966C30.241 24.895 30.7154 25.5978 30.7154 25.5978C30.7154 25.5978 29.8845 25.4283 29.7372 25.3299Z" fill="#FFE15A"/>
<path d="M21.0279 18.739C21.1752 18.8373 21.2147 19.0366 21.1163 19.1838C21.0179 19.3311 20.8187 19.3707 20.6714 19.2722C20.5242 19.1738 20.0497 18.4712 20.0497 18.4712C20.0497 18.4712 20.8807 18.6407 21.0279 18.739Z" fill="#FFE15A"/>
<path d="M22.6204 17.3233C22.7188 17.4706 22.6792 17.6697 22.532 17.7681C22.3848 17.8666 22.1856 17.8269 22.0872 17.6797C21.9888 17.5324 21.8193 16.7016 21.8193 16.7016C21.8193 16.7016 22.5221 17.1761 22.6204 17.3233Z" fill="#FFE15A"/>
<path d="M28.1447 26.7456C28.0464 26.5984 28.0859 26.3992 28.2331 26.3008C28.3803 26.2024 28.5795 26.242 28.678 26.3892C28.7763 26.5365 28.9458 27.3673 28.9458 27.3673C28.9458 27.3673 28.2431 26.8928 28.1447 26.7456Z" fill="#FFE15A"/>
<path d="M30.0937 19.2723C29.9464 19.3706 29.7473 19.331 29.6489 19.1838C29.5505 19.0366 29.5901 18.8374 29.7373 18.739C29.8846 18.6407 30.7154 18.4712 30.7154 18.4712C30.7154 18.4712 30.241 19.1739 30.0937 19.2723Z" fill="#FFE15A"/>
<path d="M20.6716 24.7966C20.8189 24.6983 21.018 24.7378 21.1164 24.885C21.2148 25.0323 21.1752 25.2314 21.028 25.3299C20.8807 25.4282 20.0499 25.5977 20.0499 25.5977C20.0499 25.5977 20.5243 24.895 20.6716 24.7966Z" fill="#FFE15A"/>
<path d="M26.7607 16.75C26.7261 16.9237 26.5573 17.0366 26.3836 17.002C26.2099 16.9674 26.097 16.7987 26.1316 16.625C26.1662 16.4512 26.6338 15.7439 26.6338 15.7439C26.6338 15.7439 26.7952 16.5763 26.7607 16.75Z" fill="#FFE15A"/>
<path d="M24.0046 27.3189C24.0392 27.1452 24.208 27.0323 24.3817 27.0669C24.5554 27.1015 24.6683 27.2702 24.6337 27.444C24.5991 27.6177 24.1315 28.325 24.1315 28.325C24.1315 28.325 23.9701 27.4926 24.0046 27.3189Z" fill="#FFE15A"/>
<path d="M30.667 23.4126C30.4933 23.378 30.3804 23.2093 30.415 23.0355C30.4496 22.8618 30.6184 22.749 30.7921 22.7835C30.9658 22.8181 31.6731 23.2858 31.6731 23.2858C31.6731 23.2858 30.8407 23.4471 30.667 23.4126Z" fill="#FFE15A"/>
<path d="M20.0981 20.6563C20.2719 20.6909 20.3847 20.8596 20.3501 21.0333C20.3155 21.2071 20.1468 21.3199 19.9731 21.2853C19.7994 21.2507 19.092 20.7831 19.092 20.7831C19.092 20.7831 19.9244 20.6218 20.0981 20.6563Z" fill="#FFE15A"/>
<path d="M35.4401 23.1594C35.3148 23.1067 35.1717 23.167 35.1195 23.2915C35.1195 23.2921 35.1195 23.2921 35.1195 23.2921C35.1185 23.2945 35.1136 23.306 35.1053 23.3257C34.92 23.7586 34.5365 24.3913 34.1493 24.9865C34.51 23.8256 34.8397 22.5857 34.8627 22.4985C34.8971 22.3683 34.82 22.2346 34.69 22.1993C34.5598 22.1643 34.4259 22.24 34.3894 22.3697C34.2211 22.9727 33.877 23.7663 33.5595 24.4381C33.6177 23.689 33.6286 22.9951 33.6294 22.9449C33.6314 22.8122 33.5274 22.7025 33.3947 22.6962C33.27 22.7001 33.1496 22.7911 33.1397 22.9237C32.8258 27.2425 28.6699 29.1745 28.2653 29.3523C28.0536 29.3734 27.0675 29.4845 26.1724 29.7953C26.071 29.8305 25.9846 29.8658 25.8985 29.9009C25.8665 29.8889 25.8322 29.8822 25.7961 29.8843C23.0491 30.0831 20.8587 28.9562 19.2845 26.5419C18.0951 24.7178 17.722 22.803 17.7184 22.7839C17.6932 22.6508 17.5657 22.565 17.4321 22.5885C17.2989 22.6138 17.2115 22.7417 17.2367 22.8748C17.2466 22.9277 17.4103 23.7635 17.8611 24.8635C17.258 23.9114 16.8377 22.7581 16.6897 22.1575C16.6867 22.1455 16.6791 22.1364 16.6746 22.1253C16.6676 22.1083 16.6618 22.0913 16.6516 22.0765C16.6444 22.0661 16.6349 22.0585 16.6264 22.0495C16.613 22.0353 16.6001 22.0214 16.5837 22.0108C16.5743 22.0047 16.5638 22.0017 16.5536 21.997C16.5355 21.9885 16.5178 21.9802 16.4977 21.9763C16.4837 21.9736 16.4694 21.9754 16.4549 21.9751C16.4402 21.9749 16.4263 21.9712 16.4112 21.9738C16.4079 21.9744 16.4054 21.9766 16.4021 21.9774C16.3989 21.978 16.3959 21.977 16.3927 21.9776C16.3796 21.9808 16.3696 21.9891 16.3576 21.9942C16.3423 22.0009 16.3267 22.0059 16.3132 22.0151C16.3 22.0242 16.2902 22.036 16.2792 22.0474C16.2682 22.0586 16.2568 22.0686 16.2482 22.0816C16.2395 22.0948 16.2348 22.1097 16.2286 22.1245C16.2227 22.1388 16.2158 22.1523 16.2127 22.1678C16.2096 22.1836 16.211 22.1999 16.2111 22.2165C16.2111 22.2297 16.2074 22.2424 16.2097 22.2559C16.2107 22.2617 16.2126 22.2675 16.2136 22.2731V22.2741C16.2139 22.2751 16.2142 22.2765 16.2145 22.2776C16.3662 23.1714 16.7277 24.0978 17.0546 24.8043C16.5355 24.2153 16.1017 23.5366 15.948 23.1347C15.9436 23.123 15.9347 23.1148 15.9287 23.1043C15.9196 23.0881 15.9116 23.0715 15.8993 23.0581C15.8906 23.0485 15.88 23.0424 15.8701 23.0344C15.8552 23.0224 15.841 23.0103 15.8238 23.002C15.8127 22.9968 15.8007 22.9951 15.789 22.9915C15.7709 22.986 15.7534 22.98 15.7342 22.9788C15.7191 22.9778 15.7041 22.9816 15.6888 22.9836C15.6746 22.9854 15.6607 22.9836 15.6466 22.988C15.6439 22.9888 15.642 22.991 15.6395 22.9919C15.6368 22.9928 15.6342 22.9922 15.6316 22.9932C15.6183 22.9983 15.6088 23.0081 15.5969 23.0152C15.5829 23.0234 15.568 23.0303 15.5561 23.041C15.5439 23.0519 15.5355 23.0655 15.5259 23.0785C15.5168 23.0908 15.5067 23.1018 15.5 23.1155C15.4929 23.1298 15.4903 23.1454 15.4863 23.1609C15.4823 23.176 15.4769 23.19 15.4759 23.2059C15.4748 23.2217 15.4787 23.2375 15.4808 23.2536C15.4825 23.2675 15.4807 23.2812 15.485 23.2949C15.7518 24.1555 16.3934 25.1795 16.8961 25.9008C16.4772 25.578 16.1693 25.2289 16.08 25.1235C16.0703 25.1121 16.0609 25.1005 16.0512 25.0891C15.9648 24.9851 15.8121 24.9703 15.7073 25.0551C15.603 25.1403 15.5866 25.2937 15.671 25.3984C15.6756 25.4042 15.6939 25.4272 15.7247 25.4631C16.0926 25.9008 16.4933 26.3093 16.8564 26.6542L16.3597 26.4425C16.2465 26.3936 16.1134 26.4377 16.0514 26.5454C15.9893 26.6532 16.0174 26.7896 16.1167 26.8644C16.1651 26.9003 17.0447 27.5574 17.8061 27.9458C17.7343 27.9501 17.65 27.9448 17.5557 27.9376C17.4406 27.9265 17.3273 28.0089 17.2993 28.1258C17.2717 28.243 17.3331 28.3629 17.4444 28.4088C17.4632 28.4165 17.6952 28.5122 17.9817 28.6142C17.9149 28.6415 17.8617 28.6975 17.8397 28.7703C17.8067 28.879 17.8531 28.9969 17.9517 29.0533C17.9774 29.0682 18.324 29.267 18.7529 29.4431C18.7415 29.4608 18.7321 29.48 18.7251 29.5011C18.6915 29.604 18.7298 29.7171 18.8192 29.7788C18.8936 29.83 20.5591 30.9603 22.5042 30.9603C22.6319 30.9603 22.7609 30.9555 22.8906 30.945C23.0255 30.9344 23.1263 30.8162 23.1155 30.6811C23.1048 30.546 22.9877 30.444 22.8515 30.4565C21.6295 30.5561 20.4523 30.0973 19.7522 29.7467C19.8446 29.7241 19.8978 29.7036 19.911 29.6983C20.019 29.6543 20.0812 29.5407 20.0601 29.4263C20.0391 29.3119 19.9404 29.228 19.8238 29.2255C19.5396 29.2197 19.1459 29.0814 18.8068 28.9329C18.9349 28.8687 19.0097 28.8073 19.0162 28.8021C19.09 28.7403 19.1211 28.6417 19.096 28.5488C19.0707 28.4563 18.9935 28.3869 18.8988 28.3716C18.7946 28.3543 18.6648 28.3208 18.5288 28.2796C18.661 28.2035 18.7173 28.1197 18.7388 28.077C18.7729 28.009 18.7736 27.9294 18.741 27.861C18.7082 27.7926 18.6457 27.7432 18.5714 27.7273C18.5073 27.7134 18.4346 27.69 18.3562 27.6594C18.3705 27.645 18.3837 27.6287 18.3944 27.61C18.4568 27.5042 18.4311 27.3682 18.3341 27.292C18.3291 27.2882 18.1387 27.1389 17.8506 26.8902C17.8963 26.8734 17.9367 26.8423 17.966 26.8002C18.0277 26.7112 18.0235 26.5919 17.9557 26.5075C17.9502 26.5008 17.7596 26.2612 17.4969 25.8972C17.5837 25.9645 17.6703 26.0334 17.7569 26.089C17.7977 26.1149 17.8438 26.1279 17.8896 26.1279C17.9516 26.1279 18.0128 26.1044 18.06 26.0589C18.0794 26.0401 18.0946 26.0185 18.1066 25.9956C18.2554 26.1545 18.4117 26.2988 18.5758 26.4219C18.5972 26.4379 18.6231 26.4376 18.6471 26.4457C18.7167 26.5623 18.7891 26.6791 18.865 26.7959C20.3541 29.087 22.4536 30.3142 24.9717 30.3878C24.7399 30.5287 24.4881 30.6742 24.0896 30.8294C24.0026 30.8633 23.9257 30.8973 23.8485 30.9313C23.8112 30.9386 23.7762 30.9521 23.747 30.9753C23.0514 31.2973 22.7634 31.6155 22.6466 31.8381C22.53 32.0593 22.6306 32.2863 22.773 32.4041C22.8172 32.4405 22.8736 32.4592 22.93 32.4592C22.9688 32.4592 23.0076 32.4505 23.0428 32.4328C23.1295 32.3897 23.1875 32.2982 23.1836 32.202C23.1936 32.191 23.2363 32.1556 23.3699 32.1512C23.4673 32.143 23.6723 32.1651 23.9116 32.1842C24.1392 32.2029 24.4122 32.2242 24.7024 32.2391C24.5209 32.4508 24.3098 32.6962 24.3098 32.6962C24.2464 32.7699 24.2325 32.8743 24.2747 32.9619C24.317 33.0501 24.4084 33.1047 24.5041 33.1012C24.6979 33.0945 24.8295 33.0907 24.9159 33.0889C24.9913 33.1876 25.0838 33.2268 25.1434 33.2421C25.3121 33.2852 25.4802 33.2177 25.6068 33.1377C25.7026 33.2067 25.7984 33.2359 25.8743 33.2469C26.0455 33.2704 26.204 33.2206 26.3187 33.1641C26.4375 33.2407 26.5538 33.2603 26.6425 33.2603C26.6437 33.2603 26.6451 33.2603 26.6465 33.2603C26.8379 33.2594 27.0053 33.167 27.1237 33.0764C27.2284 33.1387 27.3285 33.1587 27.4058 33.1622C27.5814 33.1684 27.7269 33.1009 27.8237 33.0376C28.1692 33.107 28.4671 32.9442 28.6639 32.7646C28.7537 32.8168 28.8392 32.8297 28.9072 32.8264C29.0822 32.8202 29.2156 32.7138 29.3012 32.6185C29.6929 32.6659 29.9741 32.5936 30.1366 32.4007C30.2252 32.2958 30.2612 32.1775 30.2709 32.0697C31.3578 32.0635 31.4562 31.4701 31.4642 31.3968C31.4713 31.3301 31.451 31.2637 31.4077 31.2125C31.3646 31.1613 31.3021 31.1296 31.2353 31.1258L28.3857 30.9544C28.2664 30.9458 28.16 31.0257 28.1324 31.1422C28.1318 31.144 28.0833 31.3251 27.9313 31.4698C27.7267 31.6651 27.3974 31.7682 27.0392 31.8229C27.0405 31.7901 27.0359 31.7567 27.0233 31.7241C26.9745 31.5977 26.8323 31.5363 26.7063 31.5838C26.118 31.8121 25.1655 31.7834 24.4204 31.7316C24.5346 31.6382 24.6723 31.5457 24.7822 31.4853C24.8751 31.4341 24.925 31.3292 24.9053 31.2248C24.8911 31.149 24.8362 31.0962 24.77 31.0623C24.9772 30.9577 25.1471 30.8566 25.3083 30.7583C25.588 30.587 25.8523 30.4254 26.3336 30.2584C27.2627 29.9356 28.3379 29.8374 28.3487 29.8364C28.373 29.8344 28.397 29.8283 28.4197 29.8192C28.458 29.8033 31.4908 28.5328 32.9196 25.6013C32.9009 25.6899 32.8808 25.7709 32.859 25.8416C32.8216 25.9624 32.8819 26.0912 32.9983 26.1399C33.0883 26.1778 33.1906 26.1581 33.2598 26.094C33.1696 26.332 33.0879 26.5193 33.0212 26.6299C32.9533 26.7425 32.9861 26.8885 33.0955 26.9613C33.1212 26.9781 33.1486 26.9895 33.1769 26.9963C33.0662 27.1582 32.9541 27.3114 32.8423 27.4517C32.7678 27.5451 32.7721 27.6783 32.85 27.7664C32.658 27.9675 32.4877 28.1333 32.3583 28.2386C32.2739 28.3071 32.2463 28.4215 32.2851 28.5193C32.1603 28.5907 32.0579 28.641 31.9868 28.6625C31.8676 28.6984 31.7943 28.8186 31.8168 28.9412C31.8286 29.0059 31.8649 29.0604 31.9152 29.0963C31.7653 29.1366 31.6012 29.1754 31.4231 29.2107C31.3228 29.2308 31.2453 29.3108 31.2289 29.4118C31.2127 29.5129 31.2606 29.6135 31.3493 29.6642C31.357 29.6685 31.4407 29.7159 31.569 29.7705C31.0946 29.9616 30.2477 30.2111 28.8578 30.3481C28.7232 30.3615 28.6246 30.4818 28.638 30.6163C28.6511 30.7509 28.7675 30.8443 28.9062 30.8366C31.5445 30.5756 32.3592 29.9153 32.3925 29.8869C32.4686 29.8232 32.4988 29.7193 32.4686 29.6245C32.4485 29.5618 32.4045 29.5111 32.3478 29.4818C33.1907 29.2164 33.5526 28.9228 33.5716 28.9071C33.664 28.8304 33.6872 28.6978 33.6264 28.5939C33.5651 28.4899 33.4375 28.4449 33.3261 28.4899C33.2948 28.5019 33.2447 28.5143 33.1815 28.5267C33.7471 28.1394 34.3476 27.678 34.6117 27.4721C34.6581 27.4377 34.7003 27.4045 34.7374 27.3734C34.84 27.2873 34.8543 27.1348 34.7697 27.031C34.6857 26.9276 34.5326 26.9103 34.4277 26.9932C34.3894 27.0234 34.3496 27.0545 34.3084 27.0865C34.1865 27.1771 34.0306 27.2796 33.8606 27.3849C34.5026 26.6559 35.1489 25.8657 35.3335 25.6388C35.3503 25.6181 35.3668 25.5976 35.3835 25.577C35.4683 25.4716 35.4518 25.3174 35.3464 25.2326C35.2408 25.1465 35.0864 25.1642 35.0018 25.269L35.0012 25.2696L35.001 25.2701C34.9965 25.2754 34.9757 25.3013 34.9408 25.3444C34.7474 25.5804 34.5437 25.809 34.3428 26.0225C34.9968 24.8372 35.492 23.6705 35.5646 23.4976C35.5672 23.4914 35.5696 23.4852 35.5723 23.4789C35.6242 23.3548 35.5651 23.2111 35.4401 23.1594ZM23.9473 31.425L24.0142 31.4337C23.9321 31.5105 23.8653 31.5966 23.8122 31.6854C23.6958 31.6761 23.5901 31.6678 23.5073 31.6642C23.6214 31.5896 23.7682 31.5087 23.9473 31.425Z" fill="#FFE15A"/>
</svg>
