<svg width="48" height="48" viewBox="0 0 48 48" fill="none" xmlns="http://www.w3.org/2000/svg">
<path d="M47.9999 14.8967H0V9.10349C0 8.64646 0.370593 8.27586 0.827623 8.27586H47.1724C47.6294 8.27586 48 8.64646 48 9.10349L47.9999 14.8967Z" fill="#FF4B55"/>
<path d="M47.1723 39.7241H0.827623C0.370593 39.7241 0 39.3536 0 38.8965V33.1034H47.9999V38.8965C47.9999 39.3536 47.6293 39.7241 47.1723 39.7241Z" fill="#FF4B55"/>
<path d="M47.9999 14.8969H0V33.1041H47.9999V14.8969Z" fill="#41479B"/>
<path d="M24.0001 30.6207C27.6565 30.6207 30.6207 27.6565 30.6207 24.0001C30.6207 20.3436 27.6565 17.3795 24.0001 17.3795C20.3436 17.3795 17.3795 20.3436 17.3795 24.0001C17.3795 27.6565 20.3436 30.6207 24.0001 30.6207Z" fill="white"/>
</svg>
