<svg width="48" height="48" viewBox="0 0 48 48" fill="none" xmlns="http://www.w3.org/2000/svg">
<path d="M47.9999 14.8968H0V9.10362C0 8.64659 0.370593 8.276 0.827623 8.276H47.1724C47.6294 8.276 48 8.64659 48 9.10362L47.9999 14.8968Z" fill="#FF4B55"/>
<path d="M47.1723 39.7242H0.827623C0.370593 39.7242 0 39.3536 0 38.8965V33.1035H47.9999V38.8965C47.9999 39.3537 47.6293 39.7242 47.1723 39.7242Z" fill="#FF4B55"/>
<path d="M47.9999 14.897H0V33.1042H47.9999V14.897Z" fill="white"/>
<path d="M25.7683 29.5667L33.4165 28.037C33.9685 27.9267 34.2149 27.277 33.875 26.8282C33.7556 26.6706 33.5798 26.5655 33.3844 26.5351L25.2365 25.2647C25.0113 25.2295 24.8517 25.018 24.8896 24.7843C24.9263 24.558 25.1557 24.4137 25.3829 24.4437L31.0322 25.187C31.4914 25.2474 31.773 24.6988 31.4562 24.3609L31.0027 23.8772C30.8329 23.696 30.6103 23.5731 30.3666 23.526L25.6473 22.612L29.6711 22.9019C29.9796 22.9241 30.1583 22.5595 29.9517 22.3293L29.7454 22.0993C29.6206 21.9604 29.4549 21.8647 29.2721 21.8266L25.2772 20.9917L28.1163 20.9096C28.3674 20.9024 28.495 20.6046 28.3272 20.4178L28.1999 20.276C28.1002 20.1649 27.9712 20.0841 27.8277 20.0429L25.2956 19.3159H27.2855C27.4824 19.3159 27.6147 19.1141 27.5365 18.9336L27.4693 18.7787C27.3888 18.5929 27.2335 18.4497 27.0419 18.3846L25.2017 17.7585L26.1068 17.7556C26.3757 17.7547 26.5561 17.4789 26.4491 17.2323C26.363 17.0334 26.2109 16.8704 26.0186 16.7706L24 15.7241L21.9812 16.7708C21.7889 16.8706 21.6368 17.0336 21.5506 17.2325C21.4437 17.4793 21.624 17.755 21.893 17.7558L22.7981 17.7588L20.9578 18.3848C20.7661 18.45 20.6109 18.5931 20.5304 18.779L20.4633 18.9338C20.385 19.1145 20.5174 19.3161 20.7143 19.3161H22.7042L20.172 20.0432C20.0286 20.0843 19.8996 20.1651 19.7998 20.2762L19.6725 20.4181C19.5048 20.605 19.6325 20.9027 19.8835 20.9099L22.7226 20.992L18.7276 21.8269C18.5448 21.865 18.379 21.9606 18.2544 22.0996L18.048 22.3295C17.8414 22.5597 18.0201 22.9244 18.3286 22.9022L22.3525 22.6123L17.6332 23.5263C17.3894 23.5734 17.1669 23.6963 16.9971 23.8774L16.5435 24.3612C16.2268 24.6991 16.5085 25.2478 16.9676 25.1873L22.6168 24.444C22.8441 24.4141 23.0736 24.5583 23.1102 24.7846C23.148 25.0185 22.9885 25.2299 22.7633 25.2649L14.6154 26.5353C14.4201 26.5657 14.2442 26.6709 14.1248 26.8284C13.7849 27.2771 14.0312 27.9268 14.5832 28.0372L22.2314 29.5669V30.5215C22.2314 31.0426 22.0244 31.5423 21.656 31.9108L20.4634 33.1036H24H27.5367L26.3439 31.9107C25.9754 31.5422 25.7684 31.0425 25.7684 30.5214V29.5667H25.7683Z" fill="#73AF00"/>
</svg>
