<svg width="48" height="48" viewBox="0 0 48 48" fill="none" xmlns="http://www.w3.org/2000/svg">
<path d="M47.1723 39.7242H0.827623C0.370593 39.7242 0 39.3536 0 38.8965V9.10359C0 8.64656 0.370593 8.27597 0.827623 8.27597H47.1724C47.6294 8.27597 48 8.64656 48 9.10359V38.8965C47.9999 39.3537 47.6293 39.7242 47.1723 39.7242Z" fill="#3CC8FF"/>
<path d="M23.9998 10.7588L12.4137 37.2415H35.586L23.9998 10.7588Z" fill="#464655"/>
<path d="M23.9998 14.8883L33.0552 35.5863H14.9444L23.9998 14.8883ZM23.9998 10.7588L12.4137 37.2415H35.5861L23.9998 10.7588Z" fill="white"/>
<path d="M12.4137 37.2413L23.9998 24L35.586 37.2413H12.4137Z" fill="#FFE15A"/>
</svg>
