<svg width="48" height="48" viewBox="0 0 48 48" fill="none" xmlns="http://www.w3.org/2000/svg">
<path d="M47.9999 24H0V9.10348C0 8.64645 0.370593 8.27586 0.827623 8.27586H47.1724C47.6294 8.27586 48 8.64645 48 9.10348L47.9999 24Z" fill="#41479B"/>
<path d="M0 24H47.9999V38.8965C47.9999 39.3535 47.6293 39.7241 47.1723 39.7241H0.827623C0.370593 39.7241 0 39.3535 0 38.8965V24Z" fill="#FF4B55"/>
<path d="M15.3778 17.6895C15.367 17.6577 15.3427 17.6318 15.3114 17.6192C15.3082 17.618 15.2433 17.5933 15.139 17.5639C15.1849 17.5019 15.2172 17.4291 15.2172 17.3462C15.2172 17.2752 15.192 17.2125 15.1574 17.1558C15.272 17.0918 15.3527 16.974 15.3527 16.8338C15.3527 16.7227 15.3017 16.6256 15.2244 16.557C15.317 16.489 15.3812 16.3845 15.3812 16.2611C15.3812 16.1234 15.3028 16.0078 15.1915 15.9429C15.2499 15.8769 15.2884 15.7925 15.2884 15.6976C15.2884 15.5326 15.179 15.3965 15.0301 15.3472C15.064 15.291 15.0889 15.2286 15.0889 15.1582C15.0889 14.9553 14.9258 14.7914 14.724 14.7862C14.7323 14.7551 14.7432 14.7248 14.7432 14.6911C14.7432 14.4849 14.5755 14.3172 14.3692 14.3172C14.3345 14.3172 14.3031 14.3281 14.2712 14.3371C14.2717 14.3288 14.276 14.3218 14.276 14.3132C14.276 14.1071 14.1082 13.9394 13.9021 13.9394C13.8312 13.9394 13.7688 13.9644 13.7121 13.9987C13.6685 13.8406 13.5296 13.7218 13.358 13.7218C13.2549 13.7218 13.1615 13.7637 13.0939 13.8314C13.0306 13.7146 12.911 13.6321 12.7691 13.6321C12.6396 13.6321 12.5309 13.7024 12.4638 13.8026C12.3955 13.73 12.3004 13.6834 12.1931 13.6834C12.0547 13.6834 11.9385 13.7625 11.8739 13.8744C11.8055 13.7977 11.7086 13.7473 11.5979 13.7473C11.461 13.7473 11.3463 13.8247 11.2811 13.9346C11.2175 13.8845 11.1409 13.8498 11.0539 13.8498C10.8967 13.8498 10.7631 13.9479 10.7079 14.0856C10.6406 14.0206 10.5498 13.9795 10.4489 13.9795C10.3063 13.9795 10.1862 14.0626 10.1232 14.1802C10.0956 14.1631 10.0675 14.1496 10.0359 14.1402C10.1148 14.0237 10.1608 13.8833 10.1608 13.7324C10.1608 13.4394 9.98624 13.188 9.73659 13.0718L9.8414 12.8621C9.85762 12.8297 9.85762 12.7913 9.8414 12.7589L9.71521 12.5065C9.7244 12.4981 9.73312 12.4894 9.74146 12.4802L9.99412 12.6064C10.0103 12.6145 10.0279 12.6184 10.0455 12.6184C10.0631 12.6184 10.0807 12.6142 10.0969 12.6062L10.7113 12.2989C10.7505 12.2793 10.7751 12.2396 10.7751 12.196C10.7751 12.1524 10.7504 12.1127 10.7113 12.0931L10.0969 11.7858C10.0645 11.7696 10.0263 11.7696 9.99393 11.7858L9.74156 11.912C9.73312 11.9027 9.72431 11.8939 9.71512 11.8854L9.84131 11.633C9.85752 11.6007 9.85752 11.5622 9.84131 11.5298L9.53409 10.9154C9.49509 10.8374 9.36693 10.8374 9.32793 10.9154L9.02071 11.5298C9.00449 11.5622 9.00449 11.6007 9.02071 11.633L9.1469 11.8854C9.13771 11.8937 9.12899 11.9025 9.12065 11.9117L8.86799 11.7855C8.83565 11.7692 8.7974 11.7695 8.76506 11.7857L8.15062 12.093C8.11143 12.1126 8.08687 12.1523 8.08687 12.1959C8.08687 12.2395 8.11153 12.2792 8.15062 12.2988L8.76506 12.6061C8.78128 12.6141 8.79881 12.6183 8.81643 12.6183C8.83415 12.6183 8.85168 12.6141 8.86781 12.6061L9.12018 12.4799C9.12862 12.4892 9.13743 12.498 9.14662 12.5065L9.02043 12.7589C9.00421 12.7912 9.00421 12.8297 9.02043 12.8621L9.12524 13.0718C8.87559 13.1879 8.70103 13.4394 8.70103 13.7324C8.70103 13.8802 8.74593 14.0175 8.82178 14.1325C8.77612 14.1412 8.73478 14.1565 8.69653 14.1803C8.63353 14.0626 8.51343 13.9796 8.37084 13.9796C8.27006 13.9796 8.17912 14.0206 8.11181 14.0857C8.05668 13.948 7.92309 13.8499 7.76587 13.8499C7.67878 13.8499 7.60209 13.8846 7.53862 13.9347C7.47347 13.8248 7.35862 13.7474 7.22184 13.7474C7.11112 13.7474 7.01428 13.7978 6.94584 13.8745C6.88116 13.7625 6.765 13.6835 6.62662 13.6835C6.51947 13.6835 6.42422 13.7302 6.35597 13.8027C6.28884 13.7025 6.18009 13.6322 6.05063 13.6322C5.90869 13.6322 5.78925 13.7146 5.72588 13.8315C5.65819 13.7638 5.56481 13.7219 5.46178 13.7219C5.29003 13.7219 5.1511 13.8407 5.1076 13.9988C5.05116 13.9645 4.98853 13.9395 4.91766 13.9395C4.7115 13.9395 4.54378 14.1072 4.54378 14.3133C4.54378 14.3217 4.548 14.3289 4.54857 14.3371C4.5166 14.3282 4.48529 14.3173 4.4505 14.3173C4.24425 14.3173 4.07654 14.485 4.07654 14.6911C4.07654 14.7249 4.08741 14.7552 4.09575 14.7863C3.89391 14.7915 3.73088 14.9554 3.73088 15.1583C3.73088 15.2287 3.75572 15.2911 3.78966 15.3473C3.64079 15.3966 3.53138 15.5326 3.53138 15.6977C3.53138 15.7926 3.56972 15.877 3.62822 15.943C3.51704 16.0079 3.43857 16.1234 3.43857 16.2612C3.43857 16.3847 3.50269 16.4891 3.59532 16.5571C3.51807 16.6258 3.46707 16.7228 3.46707 16.8339C3.46707 16.974 3.54788 17.0919 3.66235 17.1559C3.62776 17.2126 3.60254 17.2753 3.60254 17.3463C3.60254 17.4336 3.63732 17.5105 3.68757 17.5741C3.60432 17.5988 3.55322 17.6182 3.55041 17.6193C3.5191 17.632 3.49472 17.6577 3.48404 17.6895C3.47326 17.7216 3.4771 17.7568 3.49435 17.7858C3.50344 17.8008 4.40935 19.322 4.70925 20.8213C4.71666 20.8584 4.74357 20.8823 4.77525 20.8973C5.0056 21.2084 7.00144 21.4516 9.43087 21.4516C11.8603 21.4516 13.856 21.2084 14.0865 20.8973C14.1182 20.8822 14.1452 20.8584 14.1525 20.8213C14.4521 19.3231 15.3582 17.8008 15.3674 17.7858C15.3847 17.7568 15.3886 17.7216 15.3778 17.6895Z" fill="#FFE15A"/>
<path d="M15.3778 17.6895C15.367 17.6577 15.3427 17.6318 15.3114 17.6192C15.3082 17.618 15.2433 17.5933 15.139 17.5639C15.1849 17.5019 15.2172 17.4291 15.2172 17.3462C15.2172 17.2752 15.192 17.2125 15.1574 17.1558C15.272 17.0918 15.3527 16.974 15.3527 16.8338C15.3527 16.7227 15.3017 16.6256 15.2244 16.557C15.317 16.489 15.3812 16.3845 15.3812 16.2611C15.3812 16.1234 15.3028 16.0078 15.1915 15.9429C15.2499 15.8769 15.2884 15.7925 15.2884 15.6976C15.2884 15.5326 15.179 15.3965 15.0301 15.3472C15.064 15.291 15.0889 15.2286 15.0889 15.1582C15.0889 14.9553 14.9258 14.7914 14.724 14.7862C14.7323 14.7551 14.7432 14.7248 14.7432 14.6911C14.7432 14.4849 14.5755 14.3172 14.3692 14.3172C14.3345 14.3172 14.3031 14.3281 14.2712 14.3371C14.2717 14.3288 14.276 14.3218 14.276 14.3132C14.276 14.1071 14.1082 13.9394 13.9021 13.9394C13.8312 13.9394 13.7688 13.9644 13.7121 13.9987C13.6685 13.8406 13.5296 13.7218 13.358 13.7218C13.2549 13.7218 13.1615 13.7637 13.0939 13.8314C13.0306 13.7146 12.911 13.6321 12.7691 13.6321C12.6396 13.6321 12.5309 13.7024 12.4638 13.8026C12.3955 13.73 12.3004 13.6834 12.1931 13.6834C12.0547 13.6834 11.9385 13.7625 11.8739 13.8744C11.8055 13.7977 11.7086 13.7473 11.5979 13.7473C11.461 13.7473 11.3463 13.8247 11.2811 13.9346C11.2175 13.8845 11.1409 13.8498 11.0539 13.8498C10.8967 13.8498 10.7631 13.9479 10.7079 14.0856C10.6406 14.0206 10.5498 13.9795 10.4489 13.9795C10.3063 13.9795 10.1862 14.0626 10.1232 14.1802C10.0956 14.1631 10.0675 14.1496 10.0359 14.1402C10.1148 14.0237 10.1608 13.8833 10.1608 13.7324C10.1608 13.4394 9.98624 13.188 9.73659 13.0718L9.8414 12.8621C9.85762 12.8297 9.85762 12.7913 9.8414 12.7589L9.71521 12.5065C9.7244 12.4981 9.73312 12.4894 9.74146 12.4802L9.99412 12.6064C10.0103 12.6145 10.0279 12.6184 10.0455 12.6184C10.0631 12.6184 10.0807 12.6142 10.0969 12.6062L10.7113 12.2989C10.7505 12.2793 10.7751 12.2396 10.7751 12.196C10.7751 12.1524 10.7504 12.1127 10.7113 12.0931L10.0969 11.7858C10.0645 11.7696 10.0263 11.7696 9.99393 11.7858L9.74156 11.912C9.73312 11.9027 9.72431 11.8939 9.71512 11.8854L9.84131 11.633C9.85752 11.6007 9.85752 11.5622 9.84131 11.5298L9.53409 10.9154C9.49509 10.8374 9.36693 10.8374 9.32793 10.9154L9.02071 11.5298C9.00449 11.5622 9.00449 11.6007 9.02071 11.633L9.1469 11.8854C9.13771 11.8937 9.12899 11.9025 9.12065 11.9117L8.86799 11.7855C8.83565 11.7692 8.7974 11.7695 8.76506 11.7857L8.15062 12.093C8.11143 12.1126 8.08687 12.1523 8.08687 12.1959C8.08687 12.2395 8.11153 12.2792 8.15062 12.2988L8.76506 12.6061C8.78128 12.6141 8.79881 12.6183 8.81643 12.6183C8.83415 12.6183 8.85168 12.6141 8.86781 12.6061L9.12018 12.4799C9.12862 12.4892 9.13743 12.498 9.14662 12.5065L9.02043 12.7589C9.00421 12.7912 9.00421 12.8297 9.02043 12.8621L9.12524 13.0718C8.87559 13.1879 8.70103 13.4394 8.70103 13.7324C8.70103 13.8802 8.74593 14.0175 8.82178 14.1325C8.77612 14.1412 8.73478 14.1565 8.69653 14.1803C8.63353 14.0626 8.51343 13.9796 8.37084 13.9796C8.27006 13.9796 8.17912 14.0206 8.11181 14.0857C8.05668 13.948 7.92309 13.8499 7.76587 13.8499C7.67878 13.8499 7.60209 13.8846 7.53862 13.9347C7.47347 13.8248 7.35862 13.7474 7.22184 13.7474C7.11112 13.7474 7.01428 13.7978 6.94584 13.8745C6.88116 13.7625 6.765 13.6835 6.62662 13.6835C6.51947 13.6835 6.42422 13.7302 6.35597 13.8027C6.28884 13.7025 6.18009 13.6322 6.05063 13.6322C5.90869 13.6322 5.78925 13.7146 5.72588 13.8315C5.65819 13.7638 5.56481 13.7219 5.46178 13.7219C5.29003 13.7219 5.1511 13.8407 5.1076 13.9988C5.05116 13.9645 4.98853 13.9395 4.91766 13.9395C4.7115 13.9395 4.54378 14.1072 4.54378 14.3133C4.54378 14.3217 4.548 14.3289 4.54857 14.3371C4.5166 14.3282 4.48529 14.3173 4.4505 14.3173C4.24425 14.3173 4.07654 14.485 4.07654 14.6911C4.07654 14.7249 4.08741 14.7552 4.09575 14.7863C3.89391 14.7915 3.73088 14.9554 3.73088 15.1583C3.73088 15.2287 3.75572 15.2911 3.78966 15.3473C3.64079 15.3966 3.53138 15.5326 3.53138 15.6977C3.53138 15.7926 3.56972 15.877 3.62822 15.943C3.51704 16.0079 3.43857 16.1234 3.43857 16.2612C3.43857 16.3847 3.50269 16.4891 3.59532 16.5571C3.51807 16.6258 3.46707 16.7228 3.46707 16.8339C3.46707 16.974 3.54788 17.0919 3.66235 17.1559C3.62776 17.2126 3.60254 17.2753 3.60254 17.3463C3.60254 17.4336 3.63732 17.5105 3.68757 17.5741C3.60432 17.5988 3.55322 17.6182 3.55041 17.6193C3.5191 17.632 3.49472 17.6577 3.48404 17.6895C3.47326 17.7216 3.4771 17.7568 3.49435 17.7858C3.50344 17.8008 4.40935 19.322 4.70925 20.8213C4.71666 20.8584 4.74357 20.8823 4.77525 20.8973C5.0056 21.2084 7.00144 21.4516 9.43087 21.4516C11.8603 21.4516 13.856 21.2084 14.0865 20.8973C14.1182 20.8822 14.1452 20.8584 14.1525 20.8213C14.4521 19.3231 15.3582 17.8008 15.3674 17.7858C15.3847 17.7568 15.3886 17.7216 15.3778 17.6895ZM12.1207 16.9473V15.1442C12.2669 15.1316 12.409 15.1276 12.5457 15.1323V17.0055C12.4186 16.944 12.2751 16.9261 12.1207 16.9473ZM10.7946 14.4915C10.7977 14.4946 10.8022 14.4959 10.8055 14.4989C10.8006 14.4999 10.7958 14.5009 10.7908 14.5021C10.7924 14.4985 10.7932 14.4949 10.7946 14.4915ZM14.8432 17.2028C14.9223 17.2028 14.9866 17.267 14.9866 17.3461C14.9866 17.4254 14.9223 17.4895 14.8432 17.4895C14.7642 17.4895 14.6999 17.4253 14.6999 17.3461C14.6999 17.267 14.7642 17.2028 14.8432 17.2028ZM14.9785 16.9771C14.8995 16.9771 14.8352 16.9129 14.8352 16.8338C14.8352 16.7546 14.8995 16.6905 14.9785 16.6905C15.0577 16.6905 15.1221 16.7547 15.1221 16.8338C15.1221 16.913 15.0578 16.9771 14.9785 16.9771ZM14.8639 16.261C14.8639 16.1818 14.9282 16.1176 15.0072 16.1176C15.0862 16.1176 15.1505 16.1819 15.1505 16.261C15.1505 16.3402 15.0862 16.4043 15.0072 16.4043C14.9282 16.4043 14.8639 16.3402 14.8639 16.261ZM10.5794 17.6895C10.4418 17.1662 10.2632 16.3786 10.1878 15.5913C10.267 15.5636 10.4031 15.5181 10.5794 15.4648V17.6895ZM8.65884 15.6007C8.57775 16.4385 8.37984 17.2778 8.24043 17.7945V15.4646C8.43806 15.5244 8.58628 15.5749 8.65884 15.6007ZM9.5744 14.654C9.5744 14.7332 9.51009 14.7974 9.43106 14.7974C9.35203 14.7974 9.28771 14.7331 9.28771 14.654C9.28771 14.5748 9.35203 14.5107 9.43106 14.5107C9.51009 14.5105 9.5744 14.5748 9.5744 14.654ZM8.02537 14.4922L8.02443 14.492C8.02443 14.492 8.025 14.4917 8.02518 14.4915C8.02528 14.4917 8.02528 14.492 8.02537 14.4922ZM3.81254 16.1176C3.89157 16.1176 3.95588 16.1819 3.95588 16.261C3.95588 16.3402 3.89157 16.4043 3.81254 16.4043C3.73351 16.4043 3.66919 16.3401 3.66919 16.261C3.6691 16.1818 3.73351 16.1176 3.81254 16.1176ZM3.98457 16.8338C3.98457 16.913 3.92025 16.9771 3.84122 16.9771C3.76201 16.9771 3.6976 16.9129 3.6976 16.8338C3.6976 16.7546 3.76191 16.6905 3.84122 16.6905C3.92025 16.6904 3.98457 16.7545 3.98457 16.8338ZM3.9765 17.2028C4.05554 17.2028 4.11985 17.267 4.11985 17.3461C4.11985 17.4254 4.05554 17.4895 3.9765 17.4895C3.89747 17.4895 3.83316 17.4253 3.83316 17.3461C3.83307 17.267 3.89747 17.2028 3.9765 17.2028ZM4.56816 15.2616C4.79372 14.8967 5.23397 14.4619 6.05128 14.4619C6.84928 14.4619 7.97522 14.7058 8.69634 14.885C8.69662 15.0414 8.6895 15.2017 8.67843 15.363C8.18643 15.1917 6.22959 14.5653 5.39728 15.135C4.45538 15.7809 4.75303 17.013 4.929 17.5233C4.77919 17.4827 4.62769 17.4644 4.48266 17.4615C4.14244 16.7789 4.17657 15.8953 4.56816 15.2616ZM5.21719 17.6351C5.13619 17.4467 4.61822 16.144 5.38819 15.4395V17.738C5.33288 17.6985 5.2755 17.665 5.21719 17.6351ZM5.61863 15.2772C5.74031 15.2141 5.88375 15.1732 6.04359 15.1515V17.2018C5.8125 17.436 5.70975 17.7585 5.66447 18.0009C5.64984 17.9825 5.63372 17.9677 5.61853 17.9505V15.2772H5.61863ZM6.27412 15.1321C6.41081 15.1274 6.55294 15.1314 6.69909 15.1441V16.9453C6.67397 16.943 6.64772 16.9365 6.62316 16.9365C6.50991 16.9365 6.40359 16.9603 6.30703 17.0088C6.29513 17.0147 6.28547 17.0228 6.27403 17.0291V15.1321H6.27412V15.1321ZM6.92953 15.1688C7.07231 15.1877 7.21481 15.2126 7.3545 15.2405V17.2127C7.20825 17.1119 7.06594 17.0389 6.92953 16.9944V15.1688ZM7.58503 15.29C7.73606 15.3248 7.87865 15.3613 8.01 15.3979V17.8365C7.88297 17.6758 7.73662 17.5237 7.58503 17.3914V15.29ZM8.92575 14.9432C9.09899 14.9882 9.23568 15.0256 9.31584 15.0482V17.0024C9.00356 17.034 8.76496 17.1934 8.5829 17.3895C8.74509 16.7139 8.91974 15.792 8.92575 14.9432ZM9.54618 15.0482C9.62427 15.0263 9.75534 14.9903 9.92202 14.947C9.9284 15.7871 10.0997 16.698 10.2604 17.371C10.0806 17.1839 9.84824 17.033 9.54628 17.0025V15.0483H9.54618V15.0482ZM10.8098 15.3981C10.9413 15.3616 11.0838 15.325 11.2348 15.2902V17.4095C11.2348 17.4149 11.2371 17.4195 11.2379 17.4248C11.0827 17.565 10.9358 17.7257 10.8098 17.8925V15.3981ZM11.4652 15.2407C11.605 15.2128 11.7474 15.1879 11.8902 15.169V17.0052C11.7535 17.0553 11.6109 17.1349 11.4652 17.2402V15.2407ZM12.7761 15.1516C12.9361 15.1734 13.0794 15.2141 13.2011 15.2773V17.9761C13.2011 17.9821 13.2035 17.9874 13.2045 17.9931C13.2022 17.996 13.1996 17.9982 13.1974 18.001C13.1495 17.7449 13.0357 17.4012 12.7761 17.1648V15.1516ZM13.4315 15.4396C14.2565 16.1949 13.5994 17.6432 13.5922 17.6586C13.5915 17.6602 13.5917 17.6618 13.5911 17.6634C13.5364 17.6945 13.4834 17.7311 13.4315 17.7713V15.4396ZM13.4224 15.135C12.6066 14.5762 10.7061 15.1687 10.1684 15.3536C10.1578 15.1967 10.151 15.0409 10.1512 14.8887C10.8716 14.709 12.0073 14.4619 12.8105 14.4619C13.6279 14.4619 14.0682 14.8967 14.2937 15.2616C14.6853 15.8954 14.7195 16.7789 14.3793 17.4615C14.219 17.4647 14.051 17.4873 13.886 17.5375C14.0612 17.0358 14.3728 15.7867 13.4224 15.135ZM14.9144 15.841C14.8354 15.841 14.771 15.7768 14.771 15.6976C14.771 15.6184 14.8354 15.5543 14.9144 15.5543C14.9936 15.5543 15.058 15.6185 15.058 15.6976C15.058 15.7768 14.9935 15.841 14.9144 15.841ZM14.8584 15.158C14.8584 15.2372 14.7941 15.3017 14.7148 15.3017C14.6358 15.3017 14.5715 15.2371 14.5715 15.158C14.5715 15.0788 14.6358 15.0147 14.7148 15.0147C14.7941 15.0147 14.8584 15.0788 14.8584 15.158ZM14.5129 14.6909C14.5129 14.7701 14.4485 14.8342 14.3692 14.8342C14.2902 14.8342 14.2259 14.77 14.2259 14.6909C14.2259 14.6116 14.2902 14.5475 14.3692 14.5475C14.4484 14.5474 14.5129 14.6117 14.5129 14.6909ZM13.9021 14.1697C13.9811 14.1697 14.0454 14.2339 14.0454 14.3131C14.0454 14.3923 13.9811 14.4568 13.9021 14.4568C13.8229 14.4568 13.7585 14.3922 13.7585 14.3131C13.7585 14.2339 13.8229 14.1697 13.9021 14.1697ZM13.358 13.9521C13.437 13.9521 13.5013 14.0163 13.5013 14.0955C13.5013 14.1747 13.437 14.2388 13.358 14.2388C13.2789 14.2388 13.2146 14.1746 13.2146 14.0955C13.2145 14.0163 13.2789 13.9521 13.358 13.9521ZM12.7691 13.8624C12.8481 13.8624 12.9125 13.9266 12.9125 14.0057C12.9125 14.085 12.8481 14.1495 12.7691 14.1495C12.6899 14.1495 12.6255 14.0849 12.6255 14.0057C12.6255 13.9267 12.6899 13.8624 12.7691 13.8624ZM12.193 13.9138C12.2721 13.9138 12.3364 13.978 12.3364 14.0571C12.3364 14.1362 12.2721 14.2005 12.193 14.2005C12.1138 14.2005 12.0494 14.1362 12.0494 14.0571C12.0494 13.978 12.1138 13.9138 12.193 13.9138ZM11.5978 13.9777C11.6768 13.9777 11.7411 14.0419 11.7411 14.1211C11.7411 14.2003 11.6768 14.2648 11.5978 14.2648C11.5186 14.2648 11.4542 14.2002 11.4542 14.1211C11.4542 14.0419 11.5185 13.9777 11.5978 13.9777ZM11.0536 14.0803C11.1326 14.0803 11.1969 14.1445 11.1969 14.2236C11.1969 14.3027 11.1326 14.367 11.0536 14.367C10.9746 14.367 10.9102 14.3027 10.9102 14.2236C10.9102 14.1445 10.9746 14.0803 11.0536 14.0803ZM10.4488 14.2099C10.5278 14.2099 10.5921 14.2741 10.5921 14.3533C10.5921 14.4324 10.5278 14.4966 10.4488 14.4966C10.3698 14.4966 10.3055 14.4324 10.3055 14.3533C10.3055 14.2741 10.3696 14.2099 10.4488 14.2099ZM9.93027 14.6359C9.85124 14.6359 9.78693 14.5717 9.78693 14.4926C9.78693 14.4134 9.85124 14.3492 9.93027 14.3492C10.0093 14.3492 10.0736 14.4135 10.0736 14.4926C10.0736 14.5718 10.0093 14.6359 9.93027 14.6359ZM9.23896 12.196C9.23896 12.0901 9.32503 12.004 9.43096 12.004C9.5369 12.004 9.62296 12.0901 9.62296 12.196C9.62296 12.3019 9.5369 12.388 9.43096 12.388C9.32512 12.3881 9.23896 12.3019 9.23896 12.196ZM10.0454 12.0175L10.4023 12.1961L10.0454 12.3747L9.84543 12.2747C9.85031 12.2491 9.8534 12.223 9.8534 12.1961C9.8534 12.1692 9.85031 12.143 9.84543 12.1174L10.0454 12.0175ZM9.25256 11.5815L9.43087 11.2247L9.60918 11.5815L9.50915 11.7814C9.48374 11.7766 9.45759 11.7735 9.43078 11.7735C9.40387 11.7735 9.37781 11.7766 9.3524 11.7814L9.25256 11.5815ZM8.81643 12.3745L8.45953 12.1959L8.81643 12.0173L9.0164 12.1173C9.01153 12.1429 9.00843 12.169 9.00843 12.1959C9.00843 12.2228 9.01153 12.249 9.0164 12.2746L8.81643 12.3745ZM9.25256 12.8104L9.35259 12.6105C9.37799 12.6153 9.40415 12.6184 9.43096 12.6184C9.45778 12.6184 9.48393 12.6153 9.50934 12.6105L9.60937 12.8104L9.50943 13.0104C9.48337 13.0076 9.45787 13.0024 9.43106 13.0024C9.40415 13.0024 9.37874 13.0075 9.35268 13.0104L9.25256 12.8104ZM9.43096 13.233C9.70621 13.233 9.93018 13.4568 9.93018 13.7322C9.93018 14.0076 9.70621 14.2314 9.43096 14.2314C9.15571 14.2314 8.93174 14.0075 8.93174 13.7322C8.93174 13.4568 9.15562 13.233 9.43096 13.233ZM8.88956 14.3491C8.96859 14.3491 9.0329 14.4134 9.0329 14.4925C9.0329 14.5717 8.96859 14.6358 8.88956 14.6358C8.81053 14.6358 8.74621 14.5716 8.74621 14.4925C8.74612 14.4133 8.81043 14.3491 8.88956 14.3491ZM8.37112 14.2099C8.45015 14.2099 8.51446 14.2741 8.51446 14.3533C8.51446 14.4324 8.45015 14.4966 8.37112 14.4966C8.29209 14.4966 8.22778 14.4324 8.22778 14.3533C8.22778 14.2741 8.292 14.2099 8.37112 14.2099ZM7.76615 14.0803C7.84518 14.0803 7.9095 14.1445 7.9095 14.2236C7.9095 14.3027 7.84518 14.367 7.76615 14.367C7.68712 14.367 7.62281 14.3027 7.62281 14.2236C7.62281 14.1445 7.68712 14.0803 7.76615 14.0803ZM7.22212 13.9777C7.30134 13.9777 7.36575 14.0419 7.36575 14.1211C7.36575 14.2003 7.30144 14.2648 7.22212 14.2648C7.14309 14.2648 7.07878 14.2002 7.07878 14.1211C7.07859 14.0419 7.143 13.9777 7.22212 13.9777ZM6.62681 13.9138C6.70603 13.9138 6.77044 13.978 6.77044 14.0571C6.77044 14.1362 6.70612 14.2005 6.62681 14.2005C6.54778 14.2005 6.48347 14.1362 6.48347 14.0571C6.48347 13.978 6.54778 13.9138 6.62681 13.9138ZM6.05063 13.8624C6.12984 13.8624 6.19425 13.9266 6.19425 14.0057C6.19425 14.085 6.12994 14.1495 6.05063 14.1495C5.97159 14.1495 5.90728 14.0849 5.90728 14.0057C5.90728 13.9267 5.97159 13.8624 6.05063 13.8624ZM5.46188 13.9521C5.54091 13.9521 5.60522 14.0163 5.60522 14.0955C5.60522 14.1747 5.54091 14.2388 5.46188 14.2388C5.38285 14.2388 5.31853 14.1746 5.31853 14.0955C5.31844 14.0163 5.38285 13.9521 5.46188 13.9521ZM4.91775 14.1697C4.99697 14.1697 5.06138 14.2339 5.06138 14.3131C5.06138 14.3923 4.99707 14.4568 4.91775 14.4568C4.83872 14.4568 4.77441 14.3922 4.77441 14.3131C4.77432 14.2339 4.83863 14.1697 4.91775 14.1697ZM4.4506 14.5474C4.52963 14.5474 4.59394 14.6116 4.59394 14.6908C4.59394 14.77 4.52963 14.8341 4.4506 14.8341C4.37138 14.8341 4.30697 14.7699 4.30697 14.6908C4.30707 14.6117 4.37138 14.5474 4.4506 14.5474ZM4.10494 15.0147C4.18397 15.0147 4.24829 15.0789 4.24829 15.158C4.24829 15.2372 4.18397 15.3017 4.10494 15.3017C4.02572 15.3017 3.96132 15.2371 3.96132 15.158C3.96132 15.0788 4.02582 15.0147 4.10494 15.0147ZM3.90535 15.5541C3.98438 15.5541 4.04869 15.6183 4.04869 15.6975C4.04869 15.7767 3.98438 15.8408 3.90535 15.8408C3.82613 15.8408 3.76172 15.7766 3.76172 15.6975C3.76191 15.6182 3.82622 15.5541 3.90535 15.5541ZM13.948 20.6793C13.4167 20.4165 11.5986 20.2227 9.43106 20.2227C7.26347 20.2227 5.44528 20.4165 4.914 20.6793C4.63922 19.4072 3.98222 18.1765 3.76322 17.7897C4.1281 17.6777 5.17266 17.4557 5.64103 18.3925C5.66503 18.4402 5.71894 18.4654 5.77059 18.4531C5.82263 18.4409 5.85947 18.3944 5.85947 18.3409C5.85947 18.3326 5.86575 17.4872 6.41025 17.2149C6.9494 16.9467 7.82165 17.8371 8.09915 18.3926C8.09915 18.3926 8.09943 18.3928 8.09943 18.393C8.10853 18.411 8.12371 18.425 8.14125 18.4363C8.1449 18.4385 8.14828 18.4406 8.15222 18.4424C8.15718 18.4448 8.16112 18.4486 8.16656 18.4504C8.17847 18.4544 8.19046 18.4561 8.20218 18.4561C8.20434 18.4561 8.20612 18.4543 8.20828 18.4542C8.21053 18.4542 8.21231 18.4556 8.21465 18.4555C8.22553 18.4543 8.2335 18.4469 8.24325 18.4428C8.25356 18.4387 8.26396 18.4367 8.27268 18.4299C8.28337 18.4215 8.289 18.4095 8.29631 18.3977C8.30109 18.39 8.30906 18.3854 8.31206 18.3764C8.31543 18.3658 8.32978 18.321 8.35096 18.2513C8.45165 17.9602 8.77068 17.2273 9.43134 17.2273C9.99205 17.2273 10.3066 17.7554 10.4507 18.0932C10.4976 18.2555 10.5307 18.3595 10.5363 18.3764C10.5522 18.4253 10.5973 18.4561 10.646 18.4561C10.6577 18.4561 10.6697 18.4544 10.6816 18.4504C10.6836 18.4497 10.6851 18.4481 10.6872 18.4473C10.7193 18.4392 10.7482 18.4231 10.7635 18.3926C11.0412 17.8368 11.9142 16.9485 12.4524 17.2149C12.4886 17.233 12.5221 17.254 12.5536 17.2768C12.5848 17.3031 12.6059 17.3226 12.6415 17.3512C12.9964 17.6975 13.0032 18.3335 13.0032 18.3409C13.0033 18.3943 13.0401 18.4409 13.0921 18.4531C13.1444 18.4651 13.1977 18.4402 13.2216 18.3925C13.6891 17.4578 14.7338 17.6784 15.0994 17.79C14.8796 18.1771 14.2228 19.4076 13.948 20.6793Z" fill="#464655"/>
<path d="M9.88555 18.1464C9.87064 18.1587 9.85611 18.1717 9.84168 18.1852C9.72993 18.2904 9.54608 18.2078 9.54608 18.0542V18.0335C9.54608 17.9698 9.49443 17.9183 9.43087 17.9183C9.3673 17.9183 9.31565 17.9699 9.31565 18.0335V18.0542C9.31565 18.2078 9.1319 18.2904 9.02006 18.1852C9.00581 18.1718 8.99109 18.1588 8.97618 18.1464C8.92724 18.1062 8.85449 18.1122 8.81399 18.1617C8.77331 18.2106 8.78006 18.2832 8.82909 18.3239C9.1439 18.5847 9.31546 19.2012 9.31546 19.4449V19.5698C9.31546 19.6334 9.36712 19.685 9.43068 19.685C9.49424 19.685 9.5459 19.6333 9.5459 19.5698V19.4449C9.5459 19.2012 9.71755 18.5847 10.0323 18.3239C10.0813 18.2832 10.088 18.2106 10.0474 18.1617C10.0071 18.1126 9.93449 18.1062 9.88555 18.1464Z" fill="#464655"/>
<path d="M12.4977 18.6305C12.4841 18.6294 12.4707 18.6291 12.4571 18.6294C12.3492 18.6368 12.2438 18.4837 12.2961 18.3648C12.2983 18.3598 12.3005 18.3548 12.3028 18.3497C12.3229 18.3038 12.3076 18.2286 12.2691 18.1797C12.2308 18.131 12.181 18.1336 12.1572 18.1876C12.1548 18.1934 12.1521 18.199 12.1495 18.2049C12.0951 18.3285 11.9385 18.2916 11.9138 18.11C11.9107 18.0866 11.9075 18.0629 11.9039 18.0393C11.8918 17.9625 11.8476 17.9093 11.8006 17.9305C11.7538 17.951 11.7222 18.0371 11.7334 18.1151C11.8001 18.6302 11.7237 19.1734 11.6364 19.3709C11.6211 19.4058 11.6057 19.4407 11.5904 19.4756C11.5667 19.5294 11.5969 19.5711 11.6587 19.5666C11.7206 19.5619 11.7878 19.5194 11.8081 19.4736C11.8215 19.4432 11.8349 19.4127 11.8482 19.3823C11.9309 19.1938 12.2773 18.776 12.5611 18.7976C12.6067 18.7973 12.6261 18.7676 12.6079 18.723C12.5898 18.6788 12.5418 18.6342 12.4977 18.6305Z" fill="#464655"/>
<path d="M14.2071 18.9889C14.1958 18.9889 14.1847 18.9895 14.1733 18.9909C14.0828 19.006 14.006 18.8654 14.0583 18.7465C14.0604 18.7416 14.0627 18.7365 14.0649 18.7315C14.0851 18.6855 14.0778 18.6138 14.0493 18.5695C14.0209 18.5251 13.9792 18.5312 13.9554 18.5853C13.9529 18.5911 13.9503 18.5967 13.9477 18.6025C13.8933 18.7261 13.7653 18.7017 13.7579 18.5278C13.7571 18.5054 13.756 18.4827 13.7548 18.4601C13.7504 18.3867 13.7174 18.3384 13.6765 18.3625C13.6359 18.3857 13.6034 18.4714 13.6072 18.546C13.6252 19.0398 13.5219 19.5711 13.4346 19.7686C13.4193 19.8035 13.4038 19.8384 13.3885 19.8733C13.3648 19.9271 13.3871 19.9652 13.439 19.9564C13.491 19.9473 13.5502 19.9014 13.5703 19.8554C13.5837 19.825 13.5971 19.7946 13.6104 19.7641C13.6931 19.5757 14.0126 19.146 14.2478 19.1463C14.2859 19.1426 14.3042 19.1125 14.2924 19.0706C14.2806 19.0289 14.2436 18.9892 14.2071 18.9889Z" fill="#464655"/>
<path d="M7.22332 19.3711C7.13604 19.1737 7.05963 18.6304 7.12629 18.1154C7.13754 18.0375 7.10594 17.9514 7.05916 17.9308C7.0121 17.9095 6.96785 17.9627 6.95585 18.0395C6.95219 18.0631 6.94901 18.0867 6.94591 18.1102C6.92116 18.2918 6.7646 18.3285 6.71022 18.2052C6.7076 18.1994 6.70516 18.1935 6.70254 18.1878C6.67872 18.1337 6.62913 18.1312 6.5906 18.18C6.55225 18.2288 6.53679 18.3039 6.55694 18.3499C6.5591 18.355 6.56135 18.36 6.5636 18.365C6.61591 18.4839 6.51044 18.6371 6.40263 18.6297C6.38903 18.6293 6.37563 18.6297 6.36203 18.6307C6.31797 18.6345 6.26978 18.6789 6.2516 18.7233C6.23341 18.768 6.25282 18.7976 6.29847 18.798C6.58225 18.7762 6.92866 19.1941 7.01135 19.3826C7.02466 19.413 7.03816 19.4434 7.05147 19.4739C7.07163 19.5198 7.13885 19.5622 7.20082 19.5669C7.26269 19.5715 7.29288 19.5299 7.26916 19.476C7.25398 19.4409 7.23869 19.406 7.22332 19.3711Z" fill="#464655"/>
<path d="M5.42527 19.7684C5.33808 19.5709 5.23468 19.0396 5.25268 18.5458C5.25643 18.4712 5.22371 18.3856 5.1833 18.3622C5.14243 18.3381 5.10943 18.3865 5.10502 18.4599C5.10371 18.4825 5.10277 18.5051 5.10193 18.5276C5.09462 18.7015 4.96665 18.7258 4.91218 18.6023C4.90955 18.5965 4.90712 18.5907 4.90449 18.5851C4.88068 18.531 4.83905 18.5249 4.81055 18.5692C4.78215 18.6136 4.77465 18.6853 4.7949 18.7312C4.79705 18.7363 4.7993 18.7413 4.80155 18.7463C4.85387 18.8652 4.77699 19.0057 4.68652 18.9906C4.67518 18.9893 4.66393 18.9887 4.65277 18.9887C4.61621 18.9889 4.57937 19.0286 4.56737 19.0703C4.55546 19.1121 4.57393 19.1423 4.61199 19.146C4.84712 19.1457 5.16671 19.5753 5.2493 19.7638C5.26262 19.7942 5.27612 19.8246 5.28943 19.8551C5.30958 19.901 5.36883 19.947 5.42077 19.9561C5.47271 19.965 5.49493 19.9269 5.47121 19.873C5.45602 19.8382 5.44065 19.8033 5.42527 19.7684Z" fill="#464655"/>
</svg>
