<svg width="48" height="48" viewBox="0 0 48 48" fill="none" xmlns="http://www.w3.org/2000/svg">
<path d="M47.1723 8.27597H0.827623C0.370593 8.27597 0 8.64647 0 9.1035V38.8965C0 39.3536 0.370593 39.7242 0.827623 39.7242H47.1724C47.6294 39.7242 48 39.3536 48 38.8965V9.1035C47.9999 8.64647 47.6293 8.27597 47.1723 8.27597Z" fill="#FFD250"/>
<path d="M17.3793 11.5861V36.4137C17.3793 36.8707 17.7499 37.2413 18.207 37.2413H44.6897C45.1467 37.2413 45.5173 36.8707 45.5173 36.4137V11.5861C45.5173 11.1291 45.1467 10.7585 44.6897 10.7585H18.207C17.7499 10.7586 17.3793 11.1291 17.3793 11.5861Z" fill="#963C3C"/>
<path d="M8.68975 10.7586H3.31038C2.85335 10.7586 2.48276 11.1292 2.48276 11.5862V36.4138C2.48276 36.8708 2.85335 37.2414 3.31038 37.2414H8.68975V10.7586Z" fill="#5AA587"/>
<path d="M14.069 10.7586H8.68973V37.2413H14.069C14.526 37.2413 14.8966 36.8707 14.8966 36.4137V11.5861C14.8966 11.1291 14.526 10.7586 14.069 10.7586Z" fill="#FF7350"/>
<path d="M36.8956 30.6315C36.8678 30.4465 37.0307 30.2076 37.2823 29.8644C37.3733 29.7404 37.5048 29.5606 37.5403 29.4746C37.5168 29.4729 37.4846 29.4748 37.4606 29.476C37.3214 29.4827 37.1107 29.4923 36.9267 29.288C36.8547 29.208 36.82 29.1078 36.8268 28.9984C36.8405 28.7762 37.022 28.5576 37.1346 28.442C36.8443 28.2381 36.5669 28.0263 36.311 27.7706C35.8222 27.2817 35.2647 27.0463 34.6491 27.0592C34.5921 27.6715 34.9077 28.0741 35.2444 28.498C35.3437 28.6228 35.4426 28.7474 35.5325 28.8776C35.9755 29.5189 35.8829 30.7572 35.8267 30.8883C35.7631 31.037 35.4128 31.3666 34.9323 31.3024C34.7114 31.2734 34.457 31.3477 34.2967 31.4878C34.2278 31.5481 34.1456 31.6484 34.1456 31.7828C34.1456 31.7896 34.1462 31.8236 34.1567 31.8299C34.2213 31.8689 34.4625 31.7927 34.635 31.6995C34.6826 31.6735 34.7418 31.6812 34.782 31.7185C35.1216 32.0365 35.4626 31.7617 35.5002 31.7294C35.5468 31.6895 35.6155 31.6882 35.6629 31.7264C36.0106 32.0065 36.3729 31.7003 36.3882 31.6871C36.4308 31.6502 36.4934 31.6458 36.5408 31.6769C36.6917 31.7758 36.8296 31.804 36.9527 31.7618C37.0601 31.7245 37.1171 31.6437 37.1237 31.6242C37.1268 31.5728 37.0578 31.3078 37.0121 31.1323C36.9641 30.9481 36.9146 30.7577 36.8956 30.6315Z" fill="#FFD250"/>
<path d="M40.6599 18.906C40.5552 18.898 40.4793 18.9207 40.4275 18.9721C40.3323 19.0661 40.3401 19.2355 40.3403 19.2372C40.3423 19.2749 40.3274 19.3116 40.2999 19.3373C40.2722 19.3629 40.2349 19.3761 40.1973 19.3705C40.009 19.3459 39.7306 19.1472 39.214 18.7686C38.3932 18.167 37.1527 17.2578 35.9692 17.1082C34.5935 16.9335 33.3693 17.3723 33.0583 18.1501C32.712 19.016 33.448 19.8049 33.4554 19.8128C33.4928 19.8525 33.5011 19.9116 33.4754 19.9597C33.2813 20.3254 33.4283 20.5952 33.5608 20.743C33.6023 20.621 33.6644 20.5376 33.7499 20.4863C33.9563 20.363 34.2259 20.465 34.5988 20.6062C34.8191 20.6895 35.0688 20.784 35.3599 20.8553C36.1066 21.0383 37.0172 20.8752 37.8207 20.7313C38.1047 20.6804 38.3785 20.6315 38.6331 20.599C39.2739 20.5174 39.9163 20.8013 40.0928 21.2465C40.1784 21.4621 40.2241 21.8947 39.5696 22.3708C38.3925 23.227 33.0244 22.8319 32.7082 22.8078C32.7012 22.8084 32.6943 22.809 32.6794 22.81C32.7968 22.9418 32.9345 23.0704 32.9945 23.0864C33.0557 23.1027 33.0955 23.1616 33.0877 23.2245C33.0799 23.2873 33.0271 23.3348 32.9638 23.3358L32.4139 23.3441L32.4645 23.8733C32.4681 23.9123 32.4536 23.9509 32.4249 23.9777C32.3963 24.0046 32.3568 24.0158 32.3183 24.0107C32.2968 24.0071 31.8221 23.9313 31.494 23.7488L30.8729 24.1406C30.8525 24.1535 30.8288 24.16 30.8051 24.16C30.7913 24.16 30.7774 24.1579 30.7643 24.1533C30.728 24.1409 30.6993 24.1129 30.686 24.0769L30.449 23.4326L30.1681 23.9947C30.1475 24.0359 30.1064 24.0626 30.0607 24.0648C30.0151 24.0695 29.9716 24.0445 29.947 24.0055L29.7062 23.6216C29.596 23.7592 29.4194 23.9596 29.2387 24.0846C29.2057 24.1078 29.1639 24.1134 29.1256 24.1005C29.0874 24.0874 29.0577 24.0571 29.0456 24.0187L28.9194 23.6204C28.8078 23.7616 28.6462 23.9487 28.4752 24.089C28.4387 24.1194 28.388 24.1264 28.3443 24.1073C28.3006 24.0883 28.2712 24.0465 28.2683 23.9991L28.2276 23.3587C28.0831 23.4324 27.8863 23.5284 27.7773 23.5625C27.7277 23.578 27.673 23.5614 27.6405 23.5206C27.6078 23.4799 27.6035 23.4234 27.6296 23.378C27.8253 23.0383 28.0048 22.6141 28.0185 22.4031C27.8887 22.5585 27.7071 22.7072 27.5042 22.8723C27.0724 23.2238 26.5351 23.661 26.1395 24.4263C25.8634 24.9611 25.665 25.8941 26.0148 26.7639C26.3134 27.5059 26.9559 28.0596 27.9186 28.4153C27.8865 28.2749 27.8617 28.1369 27.8592 28.0072C27.8466 27.3483 27.9834 26.7469 27.9893 26.7216C28.0051 26.6533 28.073 26.6101 28.1413 26.6267C28.2096 26.6424 28.2521 26.7105 28.2365 26.7786C28.2351 26.7845 28.1011 27.3759 28.1129 28.0023C28.1188 28.309 28.2507 28.6874 28.3781 29.0532C28.5474 29.5396 28.7227 30.0424 28.6465 30.4656C28.5427 31.0409 27.8266 31.1868 27.1617 31.0758C26.9727 31.044 26.8008 31.0907 26.6773 31.2059C26.552 31.3228 26.4876 31.502 26.5054 31.6854C26.5137 31.7717 26.546 31.7892 26.5565 31.795C26.6365 31.8382 26.8247 31.7794 26.9264 31.7263C26.9776 31.6994 27.0409 31.7104 27.08 31.7542C27.3467 32.0529 27.7057 31.7549 27.7208 31.7418C27.7723 31.6984 27.8492 31.7024 27.8955 31.7518C27.9959 31.8588 28.1023 31.9121 28.2207 31.9148C28.4372 31.928 28.6428 31.7352 28.6448 31.7336C28.6822 31.6971 28.7385 31.6877 28.7859 31.7092C29.2043 31.9007 29.4239 31.7895 29.4329 31.7842C29.796 31.4747 29.5862 30.7401 29.584 30.7326C29.5741 30.6991 29.5785 30.6629 29.5962 30.6329C29.6139 30.6027 29.6433 30.5811 29.6773 30.5733C30.1859 30.4566 30.4701 30.1303 30.6076 29.9139C30.3563 29.9115 30.1566 29.8233 30.039 29.6396C29.8496 29.3429 29.9405 28.8962 30.2709 28.5014C30.8361 27.826 31.1817 26.4591 31.1299 25.9024C31.1235 25.8327 31.1748 25.771 31.2445 25.7644C31.3124 25.7574 31.3759 25.8093 31.3826 25.879C31.4279 26.3666 31.208 27.3779 30.8068 28.1404C31.3151 27.9998 31.7791 27.794 32.2631 27.5732C32.7442 27.3536 33.2419 27.1267 33.84 26.9393C34.8507 26.6229 35.7422 26.8422 36.4907 27.591C36.8533 27.9536 37.2491 28.2191 37.7075 28.5269C37.9088 28.662 38.1184 28.8026 38.3357 28.9592C38.9249 29.3833 38.9145 29.7375 38.9034 30.1124C38.9001 30.2267 38.8965 30.3448 38.9093 30.4728C38.9702 31.0817 38.486 31.1779 38.2533 31.2242C38.2214 31.2304 38.1915 31.2363 38.1654 31.2428C38.1325 31.2511 38.0932 31.2591 38.0497 31.2679C37.8134 31.3158 37.4563 31.3883 37.3685 31.6908C37.3527 31.745 37.3588 31.764 37.3588 31.764C37.3961 31.7809 37.5896 31.7371 37.7436 31.667C37.7764 31.652 37.8135 31.6518 37.8464 31.6659C37.8793 31.68 37.9047 31.7074 37.9164 31.7412C37.9613 31.8729 38.0314 31.8953 38.0543 31.9028C38.2141 31.9527 38.4754 31.8057 38.5542 31.7497C38.6032 31.7151 38.6693 31.7188 38.7136 31.7594C38.8445 31.879 38.9657 31.9316 39.0745 31.917C39.2202 31.8967 39.3086 31.7596 39.3095 31.7581C39.3305 31.7242 39.3663 31.7021 39.4059 31.6984C39.4462 31.6963 39.4849 31.7105 39.5117 31.7399C39.5119 31.7404 39.6229 31.8575 39.8501 31.9292C39.9991 31.9758 40.0367 31.9221 40.0489 31.9043C40.1118 31.8124 40.0893 31.5781 39.9665 31.4248C39.8057 31.2236 39.7309 30.9177 39.7763 30.6455C39.8179 30.3949 39.9531 30.1907 40.1668 30.0545C40.5585 29.8053 40.6479 29.5367 40.6229 29.4855C40.6157 29.4819 40.5731 29.4764 40.5391 29.4719C40.3643 29.4487 40.0718 29.4101 39.771 28.8546C39.5053 28.3644 39.7624 27.5883 40.0599 26.6893C40.2108 26.2339 40.3668 25.7629 40.4629 25.3009C40.7292 24.0229 39.8924 23.0081 39.8839 22.9981C39.8407 22.9465 39.8451 22.8701 39.8943 22.824C40.4817 22.2729 40.7343 21.7621 40.6445 21.3057C40.5513 20.8298 40.0904 20.4971 39.7242 20.3569C39.2678 20.1819 38.4351 20.2813 37.6295 20.3771C36.9564 20.4571 36.3202 20.5329 35.9095 20.4471C35.6979 20.4027 35.5429 20.3024 35.4489 20.1491C35.3715 20.0227 35.3525 19.8843 35.3532 19.7763C35.1492 19.853 35.0114 20.042 35.0098 20.0442C34.9865 20.0768 34.9489 20.0965 34.909 20.0973C34.8589 20.0953 34.8306 20.0798 34.8063 20.0482C34.7025 19.9141 34.6607 19.7661 34.6825 19.6082C34.7104 19.404 34.8423 19.2284 34.9503 19.1151C34.478 18.9493 34.1161 19.3451 34.0994 19.364C34.0581 19.4097 33.9903 19.4194 33.938 19.388C33.7102 19.2479 33.569 18.973 33.5779 18.6877C33.5866 18.4184 33.7255 18.1926 33.959 18.0685C34.1191 17.9836 34.2726 17.9679 34.4149 18.0216C34.5503 18.0726 34.6453 18.178 34.7051 18.2675C34.8779 18.0704 34.8924 17.7303 34.8924 17.7263C34.8934 17.6923 34.9077 17.6601 34.9327 17.637C34.9576 17.6138 34.992 17.5993 35.0246 17.603C35.325 17.6153 35.5583 17.7239 35.7177 17.9254C35.9356 18.2011 35.956 18.584 35.9433 18.8211C36.4232 18.5761 36.3623 18.0107 36.3592 17.9842C36.3542 17.9406 36.3718 17.8975 36.406 17.8701C36.4402 17.843 36.4858 17.8344 36.5276 17.8497C37.0369 18.0294 37.2222 18.4836 37.2658 18.8215C37.41 18.6839 37.4121 18.5074 37.4121 18.5051C37.4121 18.4472 37.4514 18.3966 37.5076 18.3822C37.5643 18.3681 37.6225 18.3935 37.6504 18.4443C37.8468 18.8033 38.1464 19.0269 38.3656 19.1519L38.2146 18.786C38.1942 18.7364 38.207 18.6793 38.2468 18.6434C38.2867 18.6074 38.345 18.6005 38.392 18.626C38.6433 18.7612 38.8423 18.9143 39.0529 19.0766C39.307 19.2723 39.5698 19.4744 39.9399 19.6483C40.3013 19.8183 40.5451 19.7859 40.6853 19.7291C40.8306 19.6704 40.9137 19.5669 40.9407 19.4961C40.9917 19.3621 41.0066 19.1697 40.9247 19.0421C40.872 18.9597 40.7829 18.9141 40.6599 18.906Z" fill="#FFD250"/>
<path d="M25.6828 20.7301C25.6831 20.7302 25.6832 20.7304 25.6832 20.7304C25.6838 20.7306 25.6842 20.7305 25.6845 20.7306C25.6939 20.7337 26.6424 21.0331 27.5036 21.0843C27.5508 21.0872 27.5927 21.1162 27.6119 21.1595C27.631 21.2029 27.6246 21.2536 27.5949 21.2905L27.5648 21.3279C27.7356 21.3023 27.9505 21.2786 28.1612 21.2777C28.0749 21.175 27.9675 21.0443 27.8572 20.9073C27.6269 20.9031 26.7842 20.8665 26.0983 20.536C25.9317 20.4552 25.6437 20.3157 25.5067 20.3863C25.4831 20.3985 25.4441 20.4556 25.4506 20.5259C25.4591 20.6149 25.5413 20.6876 25.6828 20.7301Z" fill="#FFD250"/>
<path d="M28.5408 18.8966C28.5276 18.8966 28.5156 18.898 28.505 18.9013C28.4497 18.9179 28.4217 18.9804 28.4142 19.0292C28.405 19.0916 28.4208 19.1755 28.4933 19.224C28.588 19.2869 28.6892 19.2439 28.7469 19.187C28.7651 19.1692 28.8521 19.0761 28.7879 18.9743L28.7877 18.9741C28.6886 18.9284 28.6017 18.8966 28.5408 18.8966Z" fill="#FFD250"/>
<path d="M27.296 21.9549C27.3574 22.1014 27.4527 22.2149 27.5316 22.291C27.5615 22.2263 27.6071 22.159 27.6763 22.1086C27.744 22.0593 27.8614 22.0112 28.0333 22.047C28.036 22.0472 28.0384 22.0478 28.0411 22.048C28.0461 22.0492 28.0499 22.0487 28.055 22.0499C28.0594 22.0509 28.0622 22.0545 28.0666 22.0557C28.0727 22.0579 28.0791 22.0581 28.085 22.0613C28.0894 22.0637 28.0921 22.0677 28.096 22.0705C28.1607 22.0981 28.2147 22.1423 28.2433 22.2093C28.3394 22.4335 28.1703 22.8689 28.021 23.1787C28.1265 23.1264 28.2275 23.0736 28.282 23.0444C28.32 23.024 28.3659 23.0242 28.4036 23.0454C28.4415 23.0664 28.4659 23.1053 28.4686 23.1482L28.5044 23.7141C28.7028 23.505 28.859 23.2778 28.861 23.2748C28.8884 23.2347 28.9358 23.2146 28.9842 23.2209C29.0323 23.2281 29.072 23.2619 29.0866 23.3081L29.2313 23.7652C29.4339 23.5789 29.6105 23.3294 29.6125 23.3262C29.6372 23.2915 29.6773 23.2731 29.7196 23.2723C29.762 23.2734 29.8012 23.2957 29.8238 23.3317L30.042 23.6797L30.3533 23.0571C30.376 23.0117 30.4187 22.9831 30.474 22.987C30.5246 22.9898 30.5684 23.0224 30.586 23.07L30.8701 23.8426L31.4245 23.4927C31.4665 23.4659 31.5198 23.4667 31.5618 23.494C31.7426 23.6124 32.0205 23.6888 32.1956 23.7281L32.1483 23.2315C32.145 23.1962 32.1565 23.1612 32.1801 23.1349C32.2038 23.1085 32.2372 23.0931 32.2727 23.0926L32.5899 23.0878C32.5136 23.0106 32.4505 22.9358 32.4197 22.898C32.3989 22.8728 32.3908 22.842 32.3921 22.8118C32.1584 22.8019 31.8327 22.7602 31.507 22.6196L31.3132 22.9185C31.2947 22.9471 31.2656 22.9669 31.2323 22.9736C31.224 22.9755 31.2154 22.9763 31.2069 22.9763C31.182 22.9763 31.1573 22.9689 31.1362 22.9548L30.4035 22.4632L30.2689 22.8297C30.2534 22.8718 30.2168 22.9026 30.1728 22.9106C30.1287 22.9193 30.0837 22.903 30.0542 22.8694C29.9283 22.725 29.7305 22.5037 29.613 22.3823C29.507 22.4843 29.3212 22.6491 29.1226 22.7593C29.0902 22.7773 29.0515 22.7801 29.017 22.7674C28.9823 22.7546 28.955 22.7274 28.942 22.6927L28.7411 22.1535C28.7167 22.0879 28.75 22.0148 28.8158 21.9903C28.8812 21.9659 28.9546 21.9995 28.979 22.065L29.1255 22.4583C29.3381 22.3106 29.5155 22.1205 29.5176 22.1182C29.5629 22.0694 29.6383 22.0636 29.6899 22.1052C29.7637 22.1644 29.9642 22.3852 30.1041 22.5421L30.221 22.224C30.2343 22.1874 30.2639 22.159 30.3009 22.1472C30.3376 22.1345 30.3784 22.1405 30.4108 22.1624L31.1706 22.6722L31.3544 22.3891C31.3897 22.3345 31.4604 22.3155 31.5174 22.3447C31.8547 22.5133 32.2189 22.5541 32.4514 22.5603C32.3095 22.2953 32.297 21.9593 32.2962 21.8803C32.1063 21.7965 31.8729 21.6699 31.6381 21.4769L31.5468 21.7026C31.532 21.7386 31.5017 21.7659 31.464 21.7767C31.4266 21.7871 31.386 21.7804 31.3547 21.7576L30.9881 21.4916L30.9524 21.7663C30.9468 21.809 30.9202 21.8457 30.8813 21.8643C30.8429 21.8828 30.7974 21.881 30.7606 21.8584C30.7478 21.8508 30.4462 21.6665 30.2665 21.4643C30.2199 21.4119 30.2247 21.3317 30.2771 21.2852C30.3289 21.2386 30.4092 21.2431 30.4562 21.2958C30.5321 21.3812 30.6385 21.466 30.7272 21.5303L30.764 21.2474C30.7699 21.203 30.7986 21.165 30.8397 21.1473C30.8809 21.1295 30.9284 21.1349 30.9645 21.1611L31.3725 21.457L31.4702 21.216C31.4859 21.1773 31.5198 21.1488 31.5607 21.1399C31.6014 21.1311 31.6444 21.1427 31.6747 21.1715C31.991 21.4691 32.3333 21.6298 32.5461 21.7087C32.4734 21.37 32.4457 20.9453 32.4443 20.923C32.4441 20.9198 32.4455 20.9171 32.4455 20.914C32.2478 20.805 31.9684 20.6171 31.7268 20.3219C31.7256 20.4783 31.7129 20.6375 31.6745 20.738C31.6613 20.7727 31.6338 20.7998 31.5989 20.8123C31.5638 20.8244 31.5252 20.8212 31.4934 20.8032C31.4781 20.7944 31.202 20.636 30.9965 20.4044C30.9611 20.532 30.9184 20.6663 30.8825 20.7263C30.8482 20.7832 30.7765 20.8042 30.717 20.7745C30.7049 20.7686 30.5104 20.6702 30.3372 20.5196C30.3203 20.6886 30.2943 20.8794 30.2571 20.9724C30.2438 21.0062 30.2165 21.0324 30.1823 21.0447C30.1481 21.0564 30.1104 21.0538 30.0785 21.0367C30.0669 21.0304 29.8468 20.9096 29.6412 20.7565L29.5855 20.9681C29.5759 21.0043 29.5509 21.0345 29.5172 21.0505C29.4831 21.0663 29.4444 21.0667 29.4103 21.0514C29.395 21.0444 29.0322 20.8776 28.8256 20.6251C28.7811 20.5709 28.789 20.4909 28.8434 20.4468C28.8974 20.4023 28.9775 20.4102 29.0217 20.4646C29.1205 20.5853 29.2716 20.6861 29.3807 20.7494L29.4457 20.5022C29.4571 20.4593 29.4898 20.4254 29.5324 20.4128C29.5746 20.3996 29.6207 20.4107 29.6536 20.4405C29.7748 20.5502 29.9389 20.6581 30.0555 20.7295C30.0803 20.5729 30.0995 20.3465 30.1078 20.1997C30.1111 20.1429 30.1515 20.0953 30.2067 20.083C30.2626 20.0705 30.319 20.0966 30.3459 20.1463C30.4157 20.2748 30.5833 20.3999 30.7097 20.479C30.7444 20.3705 30.7871 20.2104 30.8193 20.0723C30.8316 20.0193 30.8763 19.9802 30.9304 19.9749C30.9846 19.9682 31.0362 19.9992 31.0584 20.0489C31.1376 20.2245 31.3296 20.385 31.4667 20.4833C31.4816 20.2983 31.4678 20.0354 31.4509 19.871C31.4446 19.8099 31.4829 19.753 31.5419 19.736C31.6022 19.7197 31.6638 19.7468 31.6909 19.8018C31.946 20.3194 32.3973 20.6061 32.632 20.7266C32.76 19.3266 32.3496 18.7909 32.3452 18.7854C32.3223 18.7566 32.3126 18.7187 32.3194 18.6824C32.3264 18.6462 32.3483 18.6144 32.3803 18.5958C32.6082 18.4639 32.7465 18.2229 32.8313 17.9891C32.3155 18.4892 31.4983 18.6813 31.1002 18.7478L31.2946 18.9847C31.3242 19.0209 31.3316 19.0704 31.3137 19.1137C31.2957 19.1569 31.2556 19.1867 31.209 19.1913C30.7212 19.24 30.3652 19.1754 30.1256 19.0946L30.2086 19.2477C30.2304 19.2879 30.2288 19.3368 30.2046 19.3754C30.1805 19.4142 30.1363 19.4404 30.0917 19.4349C29.6943 19.4179 29.3465 19.2541 29.0608 19.1094C29.0472 19.2027 29.0012 19.2936 28.9246 19.3685C28.8307 19.4601 28.7114 19.5074 28.593 19.5074C28.5092 19.5074 28.426 19.4836 28.353 19.4349C28.2096 19.3391 28.1371 19.1692 28.1637 18.9914C28.1884 18.8281 28.2914 18.7004 28.4328 18.6581C28.6219 18.602 28.8378 18.7113 29.1109 18.8504C29.3276 18.9609 29.5861 19.0924 29.8679 19.1514L29.7109 18.8613C29.6816 18.8073 29.6951 18.7403 29.743 18.7017C29.7911 18.6639 29.8593 18.6649 29.9058 18.7053C29.9086 18.7077 30.2243 18.9671 30.9409 18.9537L30.7602 18.7334C30.7305 18.6972 30.7232 18.6474 30.7412 18.6041C30.7594 18.5609 30.7999 18.5311 30.8465 18.5267C30.8602 18.5255 31.9013 18.4198 32.5418 17.9037C32.3332 17.9648 32.1718 17.9551 32.1594 17.9549C32.1243 17.9521 32.0918 17.9349 32.07 17.9073C31.7765 17.5386 31.4763 17.4246 31.3249 17.3893C31.2398 17.6573 31.0339 17.8741 31.0239 17.8845C30.9967 17.9127 30.9578 17.9266 30.9192 17.9228C30.8802 17.9186 30.8453 17.8968 30.8245 17.8635C30.5982 17.4987 30.272 17.4028 30.0824 17.3791C30.1056 17.6487 29.9172 17.8702 29.7918 17.9623C29.743 17.9977 29.6765 17.9945 29.632 17.9547C29.0876 17.4681 28.6671 17.6121 28.4971 17.7093C28.5508 17.8427 28.5255 17.9517 28.4891 18.0254C28.2291 18.5522 26.621 18.6581 26.3012 18.674C26.2615 18.6768 26.2218 18.6587 26.1963 18.6271C26.1707 18.5955 26.162 18.5538 26.1723 18.5147C26.1957 18.4269 26.1801 18.3324 26.1283 18.2478C26.0754 18.1614 25.9907 18.0985 25.9019 18.0795C25.8183 18.0618 25.6588 18.0732 25.5635 18.1778C25.4544 18.2977 25.447 18.5194 25.5419 18.8191C25.7121 19.3571 26.2367 19.8872 26.5632 20.1777C26.5602 20.1108 26.5622 20.0616 26.5629 20.0493C26.5657 19.9951 26.6026 19.9487 26.6548 19.9339C26.7071 19.9186 26.7627 19.9387 26.7937 19.9832C26.9019 20.1386 27.0309 20.2436 27.1279 20.3079L27.1915 19.9021C27.2004 19.8459 27.2455 19.8024 27.302 19.7958C27.3581 19.791 27.4124 19.8209 27.4341 19.8736C27.549 20.1528 28.2767 21.0268 28.5473 21.34C28.582 21.38 28.5881 21.4373 28.5626 21.4838C28.5372 21.53 28.4858 21.5549 28.4333 21.5485C27.9696 21.4824 27.2885 21.6368 27.2817 21.6383C27.2291 21.6504 27.1746 21.6278 27.1458 21.5821C27.1172 21.5363 27.1206 21.4775 27.1544 21.4352L27.2482 21.3184C26.6045 21.2514 25.9776 21.0822 25.7242 21.0082L25.5113 21.5866L26.0851 21.5293C26.1283 21.5239 26.1728 21.5439 26.1992 21.5797C26.226 21.6154 26.2319 21.6623 26.215 21.7036L26.1068 21.968L26.5794 21.8429C26.6421 21.8256 26.7063 21.859 26.73 21.9188C26.7926 22.0775 26.8694 22.1816 26.9307 22.2462L27.0638 21.9519C27.0848 21.906 27.1306 21.8739 27.1812 21.8775C27.2312 21.8778 27.2764 21.9083 27.296 21.9549Z" fill="#FFD250"/>
<path d="M25.6531 28.4422C26.1534 28.7763 26.5578 28.3951 26.7739 28.1016C26.313 27.7653 25.9773 27.3516 25.7792 26.8589C25.7145 26.6979 25.6724 26.5352 25.6395 26.3727C25.5924 26.3358 24.8963 25.7844 24.3133 25.1399C24.2835 25.2176 24.2444 25.2793 24.2127 25.321C24.2537 25.4876 24.2138 25.6237 24.1625 25.7108C24.1979 25.8296 24.1695 25.9475 24.1283 26.0334C24.2165 26.1666 24.2326 26.2969 24.176 26.4221C24.1631 26.4508 24.1457 26.4773 24.1275 26.5032C24.2 26.5908 24.3141 26.7912 24.3141 27.1945C24.3141 27.4658 24.4145 27.6285 24.4895 27.7121C24.5333 27.6743 24.5812 27.653 24.6339 27.6474C24.7939 27.6295 24.9254 27.7664 25.1051 27.9552C25.2458 28.1033 25.4208 28.2874 25.6531 28.4422Z" fill="#FFD250"/>
<path d="M23.1643 25.0028C23.1549 25.0028 23.1454 25.0026 23.136 25.0026C22.9536 25.001 22.7868 24.9828 22.6332 24.9532C22.6184 24.9956 22.6499 25.1188 22.6828 25.1441C22.7151 25.169 22.7368 25.21 22.7356 25.2508C22.7345 25.2915 22.717 25.3314 22.6833 25.3544C22.6617 25.3696 22.5973 25.4271 22.5964 25.4832C22.5956 25.5379 22.6602 25.5945 22.6988 25.6235C22.727 25.6446 22.7452 25.6767 22.7489 25.7118C22.7525 25.7469 22.7414 25.782 22.7181 25.8086C22.7018 25.8279 22.6552 25.8985 22.6633 25.9578C22.6649 25.9703 22.6702 26.0087 22.7363 26.0536C22.7649 26.073 22.7844 26.1034 22.7902 26.1377C22.7958 26.1719 22.7872 26.2068 22.7664 26.2346C22.7666 26.2346 22.7309 26.2866 22.7445 26.3384C22.7597 26.3957 22.8312 26.4397 22.8882 26.4665C22.9949 26.5168 23.1486 26.5491 23.3088 26.5554C23.3137 26.5546 23.3187 26.5553 23.3236 26.5551C23.4586 26.5591 23.5973 26.5459 23.7157 26.5023C23.8318 26.4594 23.9089 26.3973 23.9448 26.3177C23.9561 26.2928 23.9794 26.2413 23.8796 26.1247C23.8406 26.0791 23.8388 26.0127 23.8752 25.965C23.8753 25.9647 23.9599 25.8484 23.9078 25.7555C23.8798 25.7058 23.8884 25.6437 23.9286 25.6036C23.936 25.5953 24.0147 25.5026 23.9524 25.3362C23.9344 25.2883 23.947 25.2343 23.9843 25.1992C23.9889 25.1946 24.1036 25.0752 24.1011 24.8936C24.0855 24.8747 24.07 24.8556 24.0549 24.8366C23.8092 24.9408 23.5081 25.0028 23.1643 25.0028Z" fill="#FFD250"/>
<path d="M24.3247 16.1601C23.8117 16.436 22.7177 17.3011 22.6861 19.6692L22.7143 23.6599C22.7177 23.6655 22.7225 23.6713 22.7253 23.6767C22.7915 23.8016 22.7602 23.9635 22.7231 24.0756C23.0401 24.1889 23.4353 24.1424 23.6047 24.1005C23.5709 24.0015 23.5442 23.8417 23.6588 23.6608C23.641 18.9017 24.0949 16.877 24.3247 16.1601Z" fill="#FFD250"/>
<path d="M24.3774 24.1569C24.3774 23.954 24.2244 23.7961 24.0732 23.745C24.0419 23.7342 23.9351 23.7045 23.8861 23.7688C23.7945 23.8887 23.827 23.9734 23.8582 24.0555C23.8757 24.1012 23.8936 24.1483 23.8801 24.2021C23.863 24.2708 23.8004 24.299 23.7797 24.3084C23.6076 24.3865 22.9531 24.489 22.5009 24.2555C22.4397 24.2237 22.4148 24.1488 22.4452 24.0867C22.4929 23.9889 22.5276 23.8454 22.5011 23.7955C22.4989 23.7914 22.493 23.78 22.4573 23.7752C22.4236 23.7705 22.39 23.7683 22.3567 23.7683C22.2023 23.7683 22.0591 23.8169 21.9816 23.8997C21.9194 23.9665 21.8999 24.0514 21.9222 24.1591C21.9974 24.5222 22.452 24.7426 23.1382 24.7488C23.6236 24.7471 24.0412 24.6326 24.2496 24.4259C24.3346 24.342 24.3774 24.2515 24.3774 24.1569Z" fill="#FFD250"/>
<path d="M23.2854 27.1669C23.3148 27.1281 23.3633 27.1096 23.4111 27.1195C23.4993 27.138 23.7185 27.1845 23.8443 27.0869C23.8883 27.0531 23.8982 26.9612 23.8644 26.9012C23.8528 26.8805 23.8177 26.8182 23.6856 26.8688C23.5605 26.917 23.381 26.9692 23.2682 26.8678C23.2456 26.8475 23.2314 26.8238 23.2205 26.7995C23.1865 26.7966 23.1528 26.7948 23.1195 26.7897C23.1087 26.8176 23.0938 26.8448 23.0683 26.8678C22.956 26.969 22.7763 26.917 22.6511 26.8688C22.5194 26.8188 22.4837 26.8805 22.4723 26.9012C22.4385 26.9612 22.4483 27.0531 22.4921 27.0866C22.6181 27.1837 22.8375 27.1378 22.9095 27.1226C22.9563 27.1132 23.0136 27.1294 23.0435 27.1677C23.0732 27.2064 23.0858 27.2569 23.0639 27.3004C23.0353 27.3575 22.9111 27.6004 22.7897 27.752C22.9483 27.984 23.0857 28.3973 22.7639 28.7651C22.7377 28.7948 22.6969 28.8097 22.659 28.808C22.6193 28.805 22.5832 28.7837 22.5618 28.7501C22.5435 28.7224 22.479 28.6454 22.4078 28.6315C22.3863 28.6274 22.3524 28.6257 22.3032 28.6593C22.27 28.6822 22.2514 28.7582 22.2794 28.8413C22.3295 28.99 22.4851 29.0725 22.7046 29.0623C22.7544 29.0573 22.8084 29.0916 22.8286 29.1421C22.8486 29.1924 22.8344 29.25 22.7933 29.2852L22.5864 29.4626L22.9241 29.5448C22.9689 29.5557 23.0042 29.5901 23.0165 29.6345C23.017 29.6367 23.0675 29.8166 23.1684 29.9684C23.2692 29.8166 23.3198 29.6367 23.3202 29.6345C23.3324 29.5901 23.3679 29.5557 23.4126 29.5448L23.7503 29.4626L23.5433 29.2852C23.5021 29.2501 23.4879 29.1924 23.5079 29.1421C23.5279 29.0917 23.5782 29.0579 23.6319 29.0623C23.8489 29.0719 24.007 28.99 24.0573 28.8411C24.0853 28.7582 24.0667 28.6822 24.0335 28.6593C23.9836 28.6254 23.9493 28.6271 23.9281 28.6316C23.8545 28.6465 23.7885 28.7288 23.7748 28.75C23.7533 28.7836 23.7172 28.805 23.6776 28.808C23.6364 28.8101 23.5988 28.795 23.5727 28.765C23.251 28.3973 23.3886 27.9839 23.5471 27.752C23.4257 27.6003 23.3015 27.3575 23.2729 27.3003C23.2511 27.2572 23.2561 27.2053 23.2854 27.1669Z" fill="#FFD250"/>
<path d="M41.1382 18.9047C41.0704 18.7991 40.9353 18.6699 40.6765 18.653C40.4965 18.6401 40.3524 18.6885 40.2475 18.7934C40.1631 18.8775 40.1224 18.9816 40.1031 19.0697C39.93 18.9786 39.6531 18.7757 39.364 18.5639C38.522 17.9468 37.2497 17.0143 36.0009 16.8563C34.988 16.7276 33.8359 16.9296 33.2024 17.5174C33.212 17.4397 33.2148 17.3877 33.2152 17.3788C33.2153 17.3771 33.2139 17.3759 33.2139 17.3741C33.2141 17.3504 33.2075 17.3282 33.1955 17.3085C33.1929 17.3042 33.1901 17.3011 33.1871 17.2971C33.173 17.2788 33.1554 17.2631 33.1321 17.2545C33.1317 17.2543 33.1315 17.2537 33.131 17.2536H33.1306C33.1067 17.2453 33.0826 17.2466 33.0596 17.252C33.0552 17.2531 33.0514 17.2538 33.0471 17.2552C33.025 17.263 33.0055 17.276 32.9905 17.2948C32.9894 17.296 32.9876 17.2961 32.9867 17.2974C32.7236 17.6507 32.3625 17.6972 32.2294 17.7016C31.7544 17.1375 31.2523 17.1199 31.2307 17.1195C31.1579 17.1242 31.1117 17.1646 31.1023 17.2277C31.0825 17.3616 31.0046 17.4943 30.9387 17.5863C30.5201 17.0659 29.9307 17.1181 29.9045 17.1202C29.8637 17.1242 29.8275 17.1476 29.8071 17.1831C29.7868 17.2185 29.7847 17.2615 29.8016 17.2989C29.8771 17.465 29.7855 17.6098 29.7125 17.6902C28.8884 17.0298 28.2543 17.5679 28.2477 17.5738C28.1993 17.6162 28.1902 17.6883 28.2268 17.7412C28.2882 17.8303 28.2775 17.8794 28.2611 17.9126C28.1277 18.1828 27.1604 18.359 26.436 18.4108C26.4322 18.3089 26.4012 18.2074 26.3443 18.1144C26.2544 17.9677 26.1124 17.8644 25.9546 17.8305C25.7792 17.7923 25.5325 17.8326 25.3753 18.0062C25.1995 18.1995 25.1743 18.4984 25.2997 18.8949C25.4958 19.5143 26.0846 20.0971 26.428 20.397C26.3443 20.366 26.2614 20.3323 26.181 20.2937C25.9789 20.1952 25.6404 20.0305 25.3903 20.1605C25.2641 20.2258 25.1833 20.3892 25.198 20.5488C25.2054 20.6288 25.2501 20.8085 25.4842 20.9233L25.2026 21.6883C25.1876 21.7292 25.1946 21.7752 25.2214 21.8097C25.248 21.8443 25.2906 21.863 25.3343 21.8582L25.8999 21.8018L25.7751 22.1069C25.7569 22.1515 25.7654 22.2026 25.7972 22.2387C25.829 22.2747 25.8773 22.2907 25.9251 22.2775L26.5391 22.1149C26.6977 22.4407 26.9092 22.5547 26.9191 22.5598C26.9503 22.5764 26.9863 22.5788 27.0192 22.5674C27.0522 22.556 27.0792 22.5316 27.0936 22.4998L27.1914 22.2832C27.2928 22.4251 27.4024 22.5193 27.4702 22.5712C27.4289 22.6053 27.3882 22.6389 27.3435 22.6753C26.9173 23.0221 26.3335 23.4974 25.9138 24.3097C25.7031 24.7176 25.5389 25.3399 25.588 26.0018C25.2823 25.7449 24.7062 25.2354 24.2819 24.7139C24.333 24.679 24.3873 24.6461 24.4284 24.6056C24.561 24.4743 24.6311 24.3188 24.6311 24.1564C24.6311 23.8191 24.3839 23.5817 24.1544 23.5041C24.069 23.4753 23.9868 23.471 23.912 23.4838C23.9046 17.9545 24.5343 16.2618 24.6622 15.9767C24.6823 15.9316 24.6746 15.8787 24.642 15.8414C24.6097 15.8043 24.5581 15.7892 24.5108 15.8031C24.4277 15.8275 22.4752 16.4374 22.4322 19.6681L22.4593 23.5223C22.1943 23.4944 21.9427 23.5697 21.7962 23.7262C21.7129 23.8153 21.6242 23.9715 21.6735 24.2105C21.7393 24.5277 21.9951 24.7618 22.3877 24.8904C22.3769 24.932 22.3733 24.9791 22.3785 25.0318C22.3846 25.0937 22.4039 25.1704 22.4398 25.2369C22.3918 25.294 22.3448 25.3756 22.3423 25.4762C22.3401 25.5732 22.3786 25.6642 22.4573 25.7475C22.4263 25.8102 22.3992 25.8948 22.4111 25.9887C22.4183 26.0445 22.4418 26.1187 22.508 26.1904C22.4893 26.2457 22.4778 26.3181 22.4978 26.3977C22.5181 26.4799 22.5692 26.5506 22.6451 26.611C22.4508 26.575 22.3143 26.6626 22.2505 26.7766C22.1545 26.9477 22.1934 27.177 22.3371 27.2876C22.4542 27.3776 22.5934 27.4064 22.7203 27.3997C22.6557 27.509 22.5874 27.6101 22.5445 27.6436C22.5165 27.6653 22.4988 27.6975 22.4959 27.7327C22.4928 27.7679 22.5045 27.8027 22.5283 27.829C22.5415 27.8436 22.8181 28.1553 22.6534 28.4792C22.6025 28.4374 22.5366 28.3983 22.4582 28.3824C22.3563 28.3617 22.2532 28.3852 22.1593 28.4496C22.0254 28.5415 21.9756 28.7355 22.0384 28.9216C22.0865 29.0642 22.2064 29.2104 22.4111 29.2778L22.233 29.4304C22.1968 29.4614 22.1812 29.5101 22.1923 29.5563C22.2033 29.6025 22.2393 29.6387 22.2855 29.65L22.7945 29.774C22.8335 29.8859 22.9227 30.1018 23.0716 30.2507C23.0954 30.2745 23.1406 30.2879 23.1744 30.2879C23.2081 30.2879 23.2403 30.2745 23.2641 30.2507C23.4131 30.1018 23.5023 29.8859 23.5412 29.774L24.0502 29.65C24.0964 29.6387 24.1324 29.6026 24.1435 29.5563C24.1545 29.5099 24.1387 29.4614 24.1027 29.4304L23.9247 29.2778C24.1292 29.2102 24.2493 29.0641 24.2973 28.9216C24.3601 28.7354 24.3103 28.5413 24.1764 28.4496C24.0823 28.385 23.9787 28.3619 23.8774 28.3824C23.7991 28.3982 23.7334 28.4372 23.6823 28.479C23.5203 28.1569 23.7946 27.8432 23.8079 27.8286C23.8314 27.8024 23.843 27.7675 23.8398 27.7325C23.8367 27.6974 23.8191 27.6652 23.7914 27.6436C23.7486 27.6103 23.6806 27.5094 23.616 27.4001C23.7428 27.4012 23.8813 27.3781 23.9988 27.2874C24.0246 27.2676 24.0429 27.2404 24.0617 27.2141C24.0707 27.7709 24.4236 27.9912 24.4389 28.0004C24.499 28.0363 24.5761 28.0173 24.6123 27.9576C24.6422 27.9089 24.66 27.8995 24.6597 27.8989C24.7043 27.9014 24.8294 28.0332 24.9209 28.1293C25.0702 28.2863 25.2562 28.4819 25.5119 28.6524C25.6993 28.7774 25.8765 28.8267 26.0393 28.8267C26.496 28.8267 26.8381 28.4413 26.9841 28.2433C27.2685 28.4217 27.591 28.5765 27.9587 28.7022C27.9713 28.7065 27.984 28.7082 27.9967 28.7084C28.0406 28.8509 28.0885 28.9942 28.138 29.1363C28.2967 29.5917 28.4607 30.0627 28.3962 30.4202C28.3129 30.8836 27.5797 30.8883 27.2029 30.8249C26.9348 30.7813 26.6861 30.8499 26.5035 31.02C26.321 31.1906 26.227 31.4482 26.2525 31.7095C26.2702 31.892 26.3616 31.9779 26.4354 32.0177C26.6047 32.1088 26.8336 32.0407 26.958 31.9898C27.2437 32.2386 27.5853 32.1342 27.792 32.0027C27.9192 32.1089 28.0609 32.1646 28.2144 32.168C28.2194 32.1682 28.2244 32.1682 28.2296 32.1682C28.4615 32.1682 28.6566 32.0461 28.7542 31.9714C29.2455 32.1703 29.5265 32.022 29.5757 31.9916C29.9746 31.655 29.909 31.0502 29.857 30.7873C30.6768 30.539 30.941 29.8265 30.9524 29.7949C30.9683 29.7505 30.9582 29.7009 30.9264 29.6661C30.8942 29.6315 30.8451 29.6175 30.8 29.6296C30.5472 29.6975 30.3477 29.6513 30.2526 29.5025C30.1239 29.3012 30.2073 28.9718 30.4652 28.6637C30.5193 28.599 30.5705 28.5275 30.6206 28.453C31.2541 28.3113 31.7952 28.0649 32.3682 27.8037C32.8423 27.5875 33.3328 27.3638 33.9158 27.1811C34.0792 27.1298 34.238 27.0997 34.3946 27.0794C34.3472 27.7666 34.6997 28.2194 35.0459 28.6551C35.1416 28.7753 35.2372 28.8954 35.3238 29.0208C35.6951 29.5585 35.6238 30.6857 35.5937 30.7874C35.5674 30.8453 35.3186 31.0986 34.9659 31.0502C34.6728 31.0112 34.3448 31.1078 34.1297 31.296C33.9763 31.4303 33.8919 31.603 33.8919 31.782C33.8919 31.9347 33.9652 32.0104 34.0269 32.0472C34.2106 32.1563 34.5146 32.0396 34.6776 31.9616C34.8298 32.0792 34.9862 32.1226 35.1307 32.1226C35.3104 32.1226 35.4719 32.0557 35.5853 31.9814C35.9254 32.1963 36.2816 32.0705 36.4802 31.935C36.729 32.07 36.929 32.0433 37.0579 31.9926C37.0998 31.9762 37.1381 31.9554 37.1728 31.9319C37.178 31.9373 37.1827 31.9445 37.1879 31.9489C37.3229 32.0651 37.5727 32.0032 37.7325 31.9453C37.8053 32.0656 37.9015 32.1199 37.9775 32.1441C38.2124 32.2189 38.4821 32.0902 38.6179 32.0098C38.7826 32.1372 38.9462 32.1907 39.1097 32.1677C39.2539 32.1478 39.3626 32.0703 39.4327 32.0024C39.5074 32.0562 39.6208 32.1223 39.774 32.1707C39.8416 32.1923 39.901 32.2009 39.9532 32.2009C40.13 32.2009 40.2222 32.1001 40.2584 32.0475C40.4051 31.8333 40.3286 31.4706 40.1649 31.2658C40.0682 31.1451 39.988 30.9191 40.0267 30.6868C40.0474 30.5628 40.1119 30.3898 40.303 30.2682C40.6476 30.049 40.8737 29.7522 40.879 29.5123C40.8812 29.4132 40.8436 29.3314 40.7727 29.2819C40.7102 29.2381 40.6402 29.2289 40.5724 29.2199C40.4215 29.2 40.2334 29.1751 39.9941 28.7333C39.781 28.3394 40.0334 27.5765 40.3011 26.7686C40.4541 26.3063 40.6124 25.8283 40.7115 25.3522C40.957 24.1739 40.3653 23.2245 40.1511 22.9289C40.7469 22.3428 40.9967 21.7804 40.8938 21.2562C40.7805 20.6785 40.2419 20.2828 39.8154 20.1194C39.2996 19.9217 38.4355 20.0245 37.5998 20.1246C36.9481 20.2026 36.332 20.2766 35.962 20.1982C35.8221 20.169 35.7226 20.1082 35.6664 20.0175C35.5686 19.8597 35.621 19.6523 35.6215 19.6502C35.6317 19.6113 35.6228 19.5695 35.5976 19.5383C35.5724 19.5071 35.5307 19.4871 35.4938 19.491C35.2507 19.5007 35.057 19.6362 34.9374 19.748C34.9304 19.714 34.9293 19.679 34.9343 19.6428C34.9672 19.399 35.248 19.1859 35.2507 19.1838C35.2842 19.1586 35.3034 19.1182 35.3013 19.0761C35.2993 19.0341 35.2766 18.9959 35.2406 18.9739C34.7239 18.6592 34.2415 18.8923 33.9945 19.1112C33.8902 19.009 33.8273 18.8526 33.8321 18.6952C33.8352 18.5918 33.8718 18.4019 34.0784 18.292C34.1719 18.2422 34.2522 18.2313 34.3251 18.2582C34.447 18.3035 34.528 18.4533 34.549 18.5074C34.5623 18.542 34.5905 18.5692 34.6254 18.5814C34.6604 18.5942 34.6993 18.5903 34.7313 18.5715C35.0141 18.4065 35.1046 18.0599 35.1333 17.8676C35.2996 17.8947 35.4265 17.9653 35.5186 18.0815C35.7772 18.4076 35.6714 18.9819 35.6704 18.9877C35.6621 19.0307 35.6767 19.0747 35.7086 19.1045C35.7404 19.1342 35.7855 19.1453 35.8278 19.1342C36.4019 18.9804 36.5857 18.5142 36.614 18.1696C37.053 18.4429 37.0231 19.0083 37.0214 19.0349C37.0186 19.0786 37.0384 19.1207 37.0737 19.1461C37.1092 19.1717 37.1551 19.1771 37.1956 19.161C37.4057 19.0757 37.522 18.9371 37.5865 18.8091C37.9861 19.3332 38.5417 19.5151 38.5683 19.5238C38.6154 19.5381 38.6665 19.5251 38.7001 19.4887C38.7335 19.4524 38.743 19.4 38.7241 19.3545L38.6001 19.0538C38.701 19.125 38.7983 19.1999 38.8982 19.2768C39.1631 19.4807 39.4369 19.6915 39.832 19.8771C40.2761 20.0858 40.5926 20.039 40.7806 19.9637C40.968 19.8879 41.1166 19.7465 41.178 19.5855C41.2496 19.3979 41.2766 19.1202 41.1382 18.9047ZM40.9408 19.4957C40.9139 19.5665 40.8309 19.67 40.6855 19.7287C40.5452 19.7855 40.3015 19.8179 39.94 19.6479C39.5699 19.474 39.307 19.2718 39.0531 19.0762C38.8424 18.914 38.6434 18.7609 38.3921 18.6256C38.3453 18.6002 38.287 18.607 38.2469 18.643C38.2071 18.6788 38.1942 18.736 38.2148 18.7856L38.3657 19.1515C38.1465 19.0264 37.8469 18.8029 37.6505 18.4439C37.6227 18.393 37.5644 18.3676 37.5077 18.3818C37.4516 18.3962 37.4123 18.4468 37.4123 18.5047C37.4123 18.507 37.4101 18.6836 37.2659 18.8211C37.2222 18.4832 37.037 18.0291 36.5277 17.8493C36.4859 17.8341 36.4404 17.8426 36.4061 17.8697C36.3719 17.8971 36.3543 17.9403 36.3594 17.9838C36.3625 18.0102 36.4233 18.5757 35.9434 18.8207C35.9563 18.5837 35.9358 18.2007 35.7178 17.925C35.5585 17.7234 35.3252 17.6149 35.0247 17.6026C34.9921 17.5989 34.9577 17.6134 34.9329 17.6366C34.9079 17.6597 34.8936 17.6919 34.8926 17.7259C34.8926 17.7299 34.8779 18.07 34.7052 18.2671C34.6454 18.1777 34.5505 18.0722 34.4151 18.0212C34.2728 17.9675 34.1192 17.9833 33.9592 18.0681C33.7256 18.1922 33.5866 18.418 33.5781 18.6873C33.5692 18.9726 33.7104 19.2475 33.9382 19.3876C33.9904 19.4192 34.0583 19.4094 34.0995 19.3636C34.1162 19.3447 34.4782 18.9489 34.9504 19.1147C34.8424 19.228 34.7106 19.4037 34.6826 19.6078C34.6608 19.7657 34.7026 19.9137 34.8064 20.0478C34.8307 20.0794 34.8591 20.0949 34.9091 20.0969C34.9491 20.0962 34.9866 20.0764 35.0099 20.0438C35.0116 20.0416 35.1493 19.8526 35.3533 19.7759C35.3525 19.8839 35.3715 20.0222 35.4491 20.1487C35.5431 20.302 35.698 20.4023 35.9096 20.4467C36.3204 20.5325 36.9566 20.4567 37.6297 20.3767C38.4353 20.2809 39.268 20.1815 39.7243 20.3565C40.0905 20.4967 40.5514 20.8293 40.6447 21.3053C40.7344 21.7617 40.4818 22.2726 39.8945 22.8236C39.8453 22.8696 39.8408 22.9462 39.8841 22.9977C39.8924 23.0077 40.7293 24.0225 40.4631 25.3005C40.367 25.7625 40.211 26.2335 40.06 26.6889C39.7625 27.5878 39.5056 28.364 39.7711 28.8542C40.072 29.4098 40.3645 29.4483 40.5392 29.4715C40.5732 29.4759 40.6156 29.4815 40.623 29.4851C40.6481 29.5363 40.5586 29.8049 40.1669 30.0541C39.9532 30.1903 39.8181 30.3945 39.7765 30.6451C39.7312 30.9173 39.8058 31.2233 39.9667 31.4244C40.0894 31.5777 40.112 31.8121 40.0491 31.9038C40.0367 31.9216 39.9992 31.9753 39.8502 31.9288C39.6231 31.8568 39.5121 31.7398 39.5118 31.7394C39.485 31.71 39.4465 31.6957 39.406 31.6978C39.3662 31.7015 39.3305 31.7236 39.3097 31.7575C39.3086 31.7589 39.2203 31.8961 39.0746 31.9164C38.9658 31.9311 38.8447 31.8784 38.7137 31.7588C38.6695 31.7184 38.6034 31.7147 38.5543 31.7491C38.4755 31.8051 38.2142 31.9521 38.0545 31.9022C38.0315 31.8948 37.9615 31.8723 37.9165 31.7406C37.9048 31.7068 37.8794 31.6794 37.8465 31.6653C37.8136 31.6513 37.7765 31.6514 37.7438 31.6664C37.5896 31.7365 37.3961 31.7804 37.3589 31.7636C37.3589 31.7636 37.3528 31.7444 37.3687 31.6903C37.4564 31.3877 37.8135 31.3153 38.0499 31.2674C38.0933 31.2585 38.1326 31.2505 38.1656 31.2422C38.1916 31.2358 38.2215 31.2298 38.2534 31.2236C38.4862 31.1773 38.9703 31.081 38.9095 30.4722C38.8965 30.3442 38.9003 30.2261 38.9035 30.1118C38.9146 29.7368 38.9251 29.3827 38.3358 28.9586C38.1185 28.8019 37.909 28.6614 37.7077 28.5263C37.2493 28.2185 36.8534 27.953 36.4908 27.5904C35.7424 26.8416 34.8509 26.6222 33.8401 26.9387C33.2422 27.126 32.7445 27.353 32.2632 27.5726C31.7792 27.7934 31.3152 27.9992 30.8069 28.1399C31.2082 27.3772 31.4279 26.3659 31.3827 25.8784C31.3761 25.8087 31.3125 25.7568 31.2447 25.7638C31.1749 25.7704 31.1236 25.8321 31.13 25.9019C31.1818 26.4585 30.8363 27.8254 30.2711 28.5008C29.9408 28.8956 29.8497 29.3424 30.0391 29.639C30.1568 29.8229 30.3564 29.9109 30.6077 29.9133C30.4704 30.1297 30.1859 30.4561 29.6774 30.5727C29.6434 30.5806 29.6141 30.602 29.5963 30.6323C29.5786 30.6624 29.5742 30.6985 29.5842 30.732C29.5863 30.7394 29.7961 31.4741 29.433 31.7836C29.4239 31.7889 29.2044 31.9001 28.7861 31.7086C28.7387 31.6871 28.6825 31.6965 28.645 31.733C28.6428 31.7347 28.4373 31.9273 28.2208 31.9142C28.1024 31.9115 27.996 31.8583 27.8956 31.7512C27.8494 31.7019 27.7725 31.6978 27.721 31.7413C27.706 31.7543 27.3468 32.0523 27.0802 31.7536C27.0411 31.7098 26.9778 31.6988 26.9265 31.7257C26.8247 31.7788 26.6367 31.8377 26.5567 31.7944C26.5461 31.7886 26.5138 31.7713 26.5055 31.6848C26.4878 31.5015 26.5521 31.3222 26.6774 31.2053C26.801 31.09 26.973 31.0434 27.1618 31.0752C27.8267 31.1862 28.5429 31.0403 28.6467 30.465C28.7228 30.0419 28.5476 29.5391 28.3782 29.0526C28.2507 28.6867 28.1189 28.3083 28.113 28.0018C28.1011 27.3754 28.2353 26.784 28.2366 26.778C28.2523 26.7099 28.2098 26.6418 28.1414 26.6261C28.0731 26.6095 28.0052 26.6527 27.9895 26.721C27.9836 26.7463 27.8467 27.3478 27.8593 28.0066C27.862 28.1363 27.8865 28.2743 27.9188 28.4147C26.9561 28.059 26.3135 27.5055 26.0149 26.7633C25.665 25.8935 25.8635 24.9605 26.1397 24.4257C26.5351 23.6604 27.0725 23.2232 27.5043 22.8717C27.7073 22.7066 27.889 22.5579 28.0186 22.4026C28.0049 22.6135 27.8255 23.0377 27.6298 23.3775C27.6037 23.4227 27.6079 23.4793 27.6406 23.5201C27.6733 23.5608 27.7278 23.5773 27.7774 23.5619C27.8864 23.5278 28.0833 23.4318 28.2278 23.3581L28.2685 23.9985C28.2715 24.0459 28.3008 24.0877 28.3444 24.1067C28.3882 24.1259 28.4388 24.1188 28.4754 24.0885C28.6464 23.9482 28.8078 23.7611 28.9196 23.6198L29.0457 24.0181C29.0578 24.0564 29.0876 24.0869 29.1257 24.0999C29.164 24.1128 29.2058 24.1071 29.2389 24.0841C29.4196 23.959 29.5962 23.7586 29.7064 23.621L29.9472 24.0049C29.9716 24.0439 30.0153 24.069 30.061 24.0642C30.1067 24.062 30.1479 24.0353 30.1683 23.9941L30.4493 23.432L30.6863 24.0764C30.6995 24.1124 30.7283 24.1403 30.7646 24.1527C30.7778 24.1574 30.7917 24.1594 30.8053 24.1594C30.829 24.1594 30.8526 24.1528 30.8731 24.14L31.4942 23.7482C31.8224 23.9306 32.2972 24.0065 32.3186 24.0101C32.3568 24.0151 32.3966 24.004 32.4252 23.9771C32.4537 23.9503 32.4683 23.9117 32.4647 23.8727L32.4141 23.3435L32.964 23.3352C33.0273 23.3341 33.0802 23.2866 33.088 23.2239C33.0957 23.161 33.0559 23.1021 32.9948 23.0858C32.9348 23.0698 32.7972 22.9411 32.6797 22.8094C32.6946 22.8084 32.7014 22.8077 32.7085 22.8072C33.0247 22.8313 38.3927 23.2264 39.5698 22.3702C40.2245 21.8941 40.1787 21.4614 40.093 21.2459C39.9164 20.8007 39.274 20.5168 38.6334 20.5984C38.3786 20.6311 38.1047 20.6798 37.8209 20.7307C37.0175 20.8746 36.1069 21.0377 35.3602 20.8547C35.069 20.7834 34.8193 20.6889 34.599 20.6056C34.2262 20.4645 33.9566 20.3624 33.7501 20.4857C33.6645 20.5369 33.6025 20.6204 33.561 20.7424C33.4285 20.5946 33.2815 20.3247 33.4756 19.9591C33.5012 19.9111 33.4931 19.852 33.4556 19.8122C33.4482 19.8043 32.7121 19.0154 33.0585 18.1495C33.3696 17.3718 34.5939 16.9329 35.9695 17.1077C37.1531 17.2574 38.3935 18.1665 39.2142 18.768C39.731 19.1466 40.0092 19.3453 40.1975 19.3699C40.2352 19.3754 40.2723 19.3623 40.3001 19.3367C40.3278 19.3112 40.3425 19.2743 40.3405 19.2366C40.3404 19.2349 40.3326 19.0655 40.4277 18.9715C40.4796 18.9201 40.5554 18.8975 40.6601 18.9054C40.7832 18.9135 40.8722 18.9591 40.925 19.0411C41.0067 19.1692 40.9919 19.3617 40.9408 19.4957ZM36.9527 31.7615C36.8296 31.8038 36.6917 31.7756 36.5409 31.6766C36.4935 31.6455 36.4309 31.6499 36.3882 31.6868C36.373 31.7 36.0104 32.0062 35.663 31.7261C35.6156 31.6879 35.5469 31.6892 35.5002 31.7291C35.4626 31.7614 35.1216 32.0361 34.782 31.7182C34.7419 31.6809 34.6826 31.6733 34.635 31.6992C34.4623 31.7924 34.2212 31.8686 34.1567 31.8296C34.1461 31.8233 34.1456 31.7893 34.1456 31.7825C34.1456 31.6481 34.2279 31.5478 34.2968 31.4875C34.457 31.3474 34.7114 31.2731 34.9324 31.3021C35.413 31.3664 35.7633 31.0367 35.8268 30.888C35.8829 30.7569 35.9756 29.5187 35.5326 28.8773C35.4427 28.7472 35.3438 28.6224 35.2445 28.4977C34.9076 28.0739 34.5922 27.6713 34.6492 27.0589C35.2647 27.046 35.8223 27.2815 36.3111 27.7703C36.5669 28.0261 36.8442 28.238 37.1347 28.4417C37.0221 28.5574 36.8406 28.7759 36.8268 28.9981C36.8201 29.1074 36.8547 29.2076 36.9267 29.2877C37.1108 29.492 37.3214 29.4825 37.4606 29.4757C37.4846 29.4744 37.5168 29.4726 37.5403 29.4743C37.5049 29.5604 37.3734 29.7401 37.2823 29.8641C37.0307 30.2073 36.868 30.4462 36.8956 30.6312C36.9146 30.7573 36.9642 30.9476 37.0122 31.1317C37.058 31.3071 37.1271 31.5723 37.1239 31.6236C37.1172 31.6433 37.0602 31.7241 36.9527 31.7615ZM37.4869 30.0141C37.7307 29.6814 37.8546 29.5012 37.7829 29.3579C37.7093 29.2106 37.5589 29.2169 37.4488 29.2226C37.3307 29.2282 37.2188 29.2332 37.1153 29.1182C37.0884 29.0883 37.0774 29.0563 37.0799 29.0144C37.0887 28.8694 37.2522 28.6814 37.3464 28.5891C37.4192 28.6385 37.4916 28.6879 37.5659 28.7378C37.7651 28.8715 37.9722 29.0105 38.1871 29.1652C38.667 29.5108 38.66 29.7473 38.6497 30.1052C38.6461 30.2218 38.6423 30.354 38.6568 30.4983C38.692 30.8506 38.4911 30.9184 38.2037 30.9755C38.1674 30.9827 38.1335 30.9896 38.1036 30.9971C38.0739 31.0045 38.0383 31.0117 37.999 31.0198C37.8157 31.0569 37.5227 31.1196 37.319 31.3095C37.3022 31.2408 37.2818 31.1612 37.2574 31.0682C37.2112 30.8905 37.1633 30.7068 37.1462 30.594C37.1322 30.4982 37.363 30.1834 37.4869 30.0141ZM24.634 27.6473C24.5813 27.6529 24.5334 27.6742 24.4896 27.7121C24.4146 27.6285 24.3142 27.4658 24.3142 27.1945C24.3142 26.7912 24.2001 26.5906 24.1275 26.5032C24.1456 26.4772 24.1632 26.4509 24.1761 26.4221C24.2325 26.2969 24.2165 26.1665 24.1284 26.0334C24.1695 25.9473 24.1979 25.8296 24.1626 25.7108C24.214 25.6236 24.2537 25.4875 24.2128 25.321C24.2445 25.2793 24.2836 25.2176 24.3133 25.1399C24.8964 25.7842 25.5925 26.3356 25.6395 26.3727C25.6724 26.535 25.7145 26.6978 25.7793 26.8589C25.9774 27.3515 26.313 27.7651 26.774 28.1015C26.5579 28.3949 26.1536 28.7762 25.6531 28.4421C25.4209 28.2873 25.2458 28.1031 25.1053 27.9552C24.9254 27.7664 24.794 27.6294 24.634 27.6473ZM23.5726 28.7652C23.5987 28.7953 23.6364 28.8103 23.6775 28.8081C23.7172 28.8051 23.7534 28.7837 23.7748 28.7502C23.7885 28.7291 23.8545 28.6466 23.928 28.6318C23.9491 28.6271 23.9834 28.6255 24.0334 28.6594C24.0666 28.6824 24.0853 28.7583 24.0572 28.8413C24.0071 28.9902 23.8488 29.0721 23.6319 29.0624C23.5782 29.058 23.5278 29.0918 23.5078 29.1422C23.4879 29.1926 23.502 29.2502 23.5432 29.2854L23.7502 29.4628L23.4125 29.545C23.3677 29.5559 23.3324 29.5903 23.3202 29.6347C23.3196 29.6369 23.2692 29.8168 23.1684 29.9685C23.0674 29.8168 23.017 29.6369 23.0164 29.6347C23.0042 29.5903 22.9688 29.5559 22.9241 29.545L22.5864 29.4628L22.7932 29.2854C22.8343 29.25 22.8485 29.1926 22.8285 29.1422C22.8084 29.0919 22.7544 29.0575 22.7045 29.0624C22.4849 29.0727 22.3294 28.9902 22.2793 28.8415C22.2513 28.7584 22.27 28.6824 22.3032 28.6594C22.3522 28.6259 22.3862 28.6275 22.4078 28.6317C22.4789 28.6455 22.5434 28.7225 22.5617 28.7503C22.5833 28.7838 22.6194 28.8053 22.6589 28.8082C22.6968 28.8099 22.7376 28.795 22.7638 28.7653C23.0856 28.3976 22.9482 27.9841 22.7896 27.7522C22.911 27.6005 23.0353 27.3578 23.0638 27.3005C23.0857 27.2571 23.073 27.2065 23.0434 27.1679C23.0135 27.1296 22.9562 27.1133 22.9094 27.1228C22.8374 27.1379 22.6181 27.1839 22.4921 27.0868C22.4483 27.0532 22.4386 26.9611 22.4722 26.9013C22.4835 26.8806 22.5194 26.8189 22.6511 26.869C22.7762 26.9172 22.956 26.9692 23.0683 26.868C23.0938 26.845 23.1087 26.8178 23.1194 26.7899C23.1527 26.7949 23.1865 26.7967 23.2204 26.7997C23.2313 26.8241 23.2455 26.8477 23.2681 26.868C23.381 26.9693 23.5604 26.9172 23.6855 26.869C23.8176 26.8184 23.8528 26.8807 23.8644 26.9013C23.8981 26.9613 23.8882 27.0533 23.8442 27.087C23.7183 27.1844 23.4991 27.138 23.411 27.1197C23.3633 27.1097 23.3149 27.1285 23.2854 27.167C23.256 27.2055 23.2511 27.2573 23.2726 27.3007C23.3012 27.3578 23.4254 27.6007 23.5468 27.7524C23.3884 27.984 23.2511 28.3976 23.5726 28.7652ZM23.9841 25.1993C23.9468 25.2344 23.9342 25.2884 23.9522 25.3363C24.0147 25.5029 23.9359 25.5954 23.9284 25.6036C23.8881 25.6438 23.8797 25.7058 23.9076 25.7556C23.9598 25.8484 23.8753 25.9647 23.875 25.965C23.8387 26.0128 23.8404 26.0791 23.8794 26.1248C23.9791 26.2412 23.9558 26.2929 23.9446 26.3177C23.9088 26.3974 23.8317 26.4595 23.7155 26.5023C23.5969 26.5461 23.4583 26.5591 23.3234 26.5552C23.3185 26.5554 23.3135 26.5546 23.3086 26.5555C23.1485 26.5491 22.9948 26.5169 22.888 26.4666C22.831 26.4398 22.7596 26.3957 22.7443 26.3385C22.7306 26.2867 22.7663 26.2347 22.7662 26.2347C22.787 26.2069 22.7955 26.1719 22.79 26.1377C22.7842 26.1035 22.7648 26.0731 22.7361 26.0536C22.67 26.0087 22.6648 25.9704 22.6631 25.9578C22.655 25.8986 22.7015 25.828 22.7179 25.8087C22.7412 25.782 22.7522 25.747 22.7487 25.7118C22.745 25.6768 22.7268 25.6448 22.6986 25.6236C22.6599 25.5945 22.5954 25.5378 22.5962 25.4833C22.5971 25.4271 22.6615 25.3695 22.6831 25.3545C22.7169 25.3315 22.7343 25.2915 22.7354 25.2509C22.7366 25.2101 22.715 25.1689 22.6826 25.1442C22.6496 25.1189 22.6183 24.9958 22.633 24.9533C22.7866 24.9829 22.9533 25.0011 23.1358 25.0027C23.1452 25.0027 23.1547 25.0029 23.1641 25.0029C23.5079 25.0029 23.809 24.9408 24.0543 24.8367C24.0695 24.8557 24.0851 24.8747 24.1005 24.8937C24.1034 25.0753 23.9887 25.1948 23.9841 25.1993ZM23.1384 24.749C22.4521 24.7427 21.9974 24.5223 21.9223 24.1593C21.9 24.0514 21.9195 23.9666 21.9818 23.8999C22.0592 23.817 22.2025 23.7685 22.3569 23.7685C22.3901 23.7685 22.4238 23.7707 22.4575 23.7754C22.4932 23.7802 22.4991 23.7915 22.5013 23.7957C22.5279 23.8455 22.4932 23.9891 22.4454 24.0869C22.415 24.1489 22.4398 24.2239 22.5011 24.2557C22.9533 24.489 23.6078 24.3867 23.7799 24.3086C23.8006 24.2992 23.8632 24.2709 23.8803 24.2023C23.8939 24.1484 23.8759 24.1013 23.8584 24.0558C23.8272 23.9737 23.7946 23.889 23.8863 23.7691C23.9353 23.7048 24.0419 23.7345 24.0733 23.7452C24.2247 23.7964 24.3776 23.9543 24.3776 24.1572C24.3776 24.2516 24.3346 24.3421 24.2499 24.4262C24.0414 24.6328 23.6238 24.7473 23.1384 24.749ZM23.6047 24.1005C23.4354 24.1425 23.04 24.189 22.7231 24.0756C22.7602 23.9635 22.7917 23.8016 22.7253 23.6767C22.7224 23.6714 22.7176 23.6656 22.7143 23.6599L22.686 19.6692C22.7176 17.301 23.8116 16.4359 24.3247 16.1601C24.0948 16.877 23.641 18.9016 23.6588 23.6607C23.5441 23.8417 23.5709 24.0015 23.6047 24.1005ZM27.0633 21.9516L26.9302 22.2459C26.869 22.1813 26.7921 22.0771 26.7295 21.9185C26.7058 21.8587 26.6416 21.8252 26.579 21.8426L26.1064 21.9676L26.2146 21.7033C26.2315 21.662 26.2255 21.6151 26.1988 21.5793C26.1724 21.5435 26.1279 21.5235 26.0847 21.529L25.5109 21.5863L25.7238 21.0078C25.9771 21.0818 26.604 21.2511 27.2478 21.3181L27.154 21.4349C27.1201 21.4771 27.1168 21.5359 27.1453 21.5818C27.1741 21.6275 27.2287 21.6501 27.2813 21.6379C27.288 21.6365 27.9692 21.4821 28.4329 21.5482C28.4855 21.5546 28.5368 21.5296 28.5622 21.4834C28.5876 21.437 28.5815 21.3796 28.5469 21.3397C28.2762 21.0266 27.5486 20.1525 27.4336 19.8733C27.412 19.8206 27.3576 19.7907 27.3015 19.7955C27.2451 19.8022 27.1999 19.8456 27.1911 19.9018L27.1274 20.3076C27.0305 20.2434 26.9015 20.1383 26.7933 19.9829C26.7623 19.9382 26.7067 19.9181 26.6544 19.9336C26.6022 19.9485 26.5653 19.9948 26.5625 20.049C26.5618 20.0613 26.5598 20.1107 26.5628 20.1774C26.2362 19.8868 25.7118 19.3567 25.5415 18.8188C25.4465 18.519 25.4539 18.2973 25.5629 18.1774C25.6582 18.0728 25.8178 18.0615 25.9015 18.0792C25.9903 18.0982 26.0751 18.1611 26.1279 18.2475C26.1796 18.3321 26.1952 18.4266 26.1718 18.5144C26.1614 18.5535 26.1702 18.5953 26.1958 18.6268C26.2213 18.6584 26.2611 18.6766 26.3007 18.6737C26.6205 18.6578 28.2287 18.5519 28.4887 18.0251C28.525 17.9514 28.5504 17.8424 28.4967 17.709C28.6668 17.6118 29.0871 17.4678 29.6316 17.9544C29.676 17.9942 29.7426 17.9973 29.7913 17.962C29.9167 17.8698 30.1052 17.6483 30.082 17.3788C30.2716 17.4026 30.5979 17.4986 30.8241 17.8632C30.8449 17.8966 30.8798 17.9183 30.9188 17.9224C30.9575 17.9263 30.9962 17.9124 31.0235 17.8842C31.0335 17.8738 31.2394 17.6569 31.3244 17.389C31.4758 17.4243 31.7761 17.5382 32.0696 17.907C32.0915 17.9346 32.1238 17.9518 32.159 17.9546C32.1714 17.9548 32.3329 17.9644 32.5414 17.9034C31.9008 18.4195 30.8597 18.5251 30.8461 18.5264C30.7993 18.5308 30.7589 18.5606 30.7407 18.6038C30.7227 18.647 30.73 18.697 30.7598 18.7331L30.9405 18.9534C30.2238 18.9667 29.9082 18.7074 29.9053 18.705C29.8589 18.6647 29.7907 18.6637 29.7426 18.7014C29.6947 18.7398 29.6812 18.807 29.7104 18.861L29.8675 19.151C29.5857 19.0921 29.3272 18.9606 29.1104 18.8501C28.8374 18.7111 28.6215 18.6017 28.4323 18.6578C28.291 18.7001 28.1879 18.8278 28.1633 18.9911C28.1367 19.169 28.2092 19.339 28.3526 19.4345C28.4256 19.4833 28.5088 19.5071 28.5926 19.5071C28.7108 19.5071 28.8303 19.4597 28.9242 19.3682C29.0008 19.2933 29.0469 19.2024 29.0604 19.1091C29.3461 19.2539 29.6939 19.4175 30.0912 19.4345C30.1359 19.44 30.1801 19.4138 30.2042 19.3751C30.2285 19.3364 30.23 19.2875 30.2082 19.2474L30.1252 19.0943C30.3649 19.1751 30.7209 19.2396 31.2086 19.191C31.2552 19.1863 31.2953 19.1567 31.3133 19.1133C31.3311 19.0701 31.3237 19.0205 31.2942 18.9843L31.0998 18.7474C31.498 18.6812 32.3152 18.4889 32.8309 17.9888C32.7461 18.2226 32.6078 18.4636 32.3799 18.5955C32.348 18.614 32.326 18.6458 32.319 18.6821C32.3123 18.7184 32.3218 18.7562 32.3448 18.7851C32.3491 18.7906 32.7596 19.3262 32.6316 20.7263C32.3968 20.6056 31.9456 20.319 31.6904 19.8015C31.6633 19.7466 31.6017 19.7193 31.5415 19.7357C31.4825 19.7526 31.4442 19.8095 31.4504 19.8707C31.4674 20.0351 31.4812 20.298 31.4663 20.4829C31.3292 20.3847 31.1372 20.2241 31.058 20.0486C31.0357 19.9988 30.9841 19.9678 30.93 19.9746C30.8758 19.9799 30.8312 20.0191 30.8188 20.072C30.7868 20.2101 30.744 20.3702 30.7092 20.4787C30.583 20.3996 30.4152 20.2745 30.3455 20.146C30.3186 20.0962 30.2622 20.0702 30.2063 20.0827C30.151 20.0949 30.1107 20.1427 30.1074 20.1993C30.0991 20.3462 30.0797 20.5726 30.0551 20.7292C29.9384 20.6578 29.7744 20.5499 29.6532 20.4402C29.6202 20.4105 29.5742 20.3994 29.5319 20.4125C29.4896 20.4251 29.4567 20.4589 29.4453 20.5019L29.3802 20.7491C29.2712 20.6858 29.1201 20.5849 29.0213 20.4643C28.977 20.41 28.897 20.402 28.843 20.4465C28.7887 20.4907 28.7807 20.5707 28.8252 20.6248C29.0319 20.8773 29.3945 21.0441 29.4099 21.0511C29.4441 21.0663 29.4827 21.066 29.5167 21.0502C29.5506 21.0342 29.5755 21.004 29.5851 20.9678L29.6408 20.7562C29.8465 20.9093 30.0666 21.0301 30.0781 21.0363C30.11 21.0535 30.1477 21.0562 30.1819 21.0444C30.2161 21.032 30.2433 21.0057 30.2567 20.9721C30.2938 20.8791 30.32 20.6883 30.3368 20.5193C30.51 20.6699 30.7045 20.7682 30.7166 20.7742C30.776 20.8038 30.8477 20.7828 30.8821 20.726C30.9179 20.666 30.9605 20.5317 30.9961 20.4041C31.2015 20.6355 31.4777 20.7941 31.493 20.8029C31.5249 20.8209 31.5636 20.824 31.5986 20.812C31.6334 20.7994 31.661 20.7723 31.6742 20.7376C31.7125 20.6371 31.7252 20.478 31.7264 20.3216C31.968 20.6167 32.2476 20.8047 32.4452 20.9137C32.4452 20.9168 32.4438 20.9195 32.444 20.9227C32.4453 20.945 32.4731 21.3697 32.5458 21.7083C32.3329 21.6295 31.9906 21.4689 31.6744 21.1711C31.644 21.1424 31.6011 21.1308 31.5604 21.1396C31.5194 21.1485 31.4856 21.177 31.4698 21.2157L31.3722 21.4567L30.9642 21.1607C30.9282 21.1347 30.8808 21.1291 30.8394 21.147C30.7982 21.1647 30.7695 21.2026 30.7637 21.2471L30.7269 21.53C30.6382 21.4658 30.5318 21.3809 30.4558 21.2955C30.409 21.2428 30.3285 21.2384 30.2768 21.2849C30.2245 21.3315 30.2197 21.4116 30.2662 21.4639C30.4459 21.6661 30.7475 21.8504 30.7602 21.8581C30.7971 21.8807 30.8425 21.8824 30.881 21.864C30.9198 21.8454 30.9463 21.8086 30.9521 21.766L30.9878 21.4913L31.3543 21.7573C31.3857 21.7801 31.4262 21.7869 31.4637 21.7764C31.5013 21.7656 31.5317 21.7382 31.5464 21.7022L31.6377 21.4766C31.8726 21.6696 32.1059 21.7963 32.2959 21.88C32.2968 21.9589 32.3092 22.2949 32.451 22.56C32.2186 22.5539 31.8544 22.5131 31.5171 22.3443C31.4601 22.3153 31.3894 22.3343 31.3541 22.3888L31.1703 22.6719L30.4105 22.1621C30.3781 22.1401 30.3373 22.1341 30.3006 22.1469C30.2636 22.1588 30.234 22.1872 30.2206 22.2237L30.1038 22.5418C29.9639 22.3848 29.7634 22.164 29.6895 22.1049C29.6378 22.0633 29.5625 22.0691 29.5173 22.1178C29.5152 22.1201 29.3377 22.3102 29.1252 22.458L28.9787 22.0647C28.9543 21.9993 28.8809 21.9656 28.8155 21.99C28.7498 22.0143 28.7164 22.0876 28.7408 22.1532L28.9417 22.6923C28.9546 22.727 28.982 22.7543 29.0167 22.7671C29.0513 22.7798 29.0898 22.777 29.1222 22.759C29.321 22.6486 29.5068 22.4839 29.6127 22.3819C29.7303 22.5033 29.9279 22.7247 30.0538 22.8691C30.0835 22.9028 30.1283 22.9189 30.1724 22.9103C30.2165 22.9022 30.2531 22.8715 30.2685 22.8294L30.4032 22.4628L31.1359 22.9545C31.157 22.9685 31.1817 22.976 31.2066 22.976C31.2149 22.976 31.2236 22.9752 31.232 22.9733C31.2654 22.9666 31.2945 22.9467 31.3129 22.9182L31.5067 22.6193C31.8324 22.7599 32.1581 22.8016 32.3918 22.8115C32.3905 22.8417 32.3986 22.8724 32.4193 22.8976C32.4503 22.9355 32.5134 23.0101 32.5896 23.0875L32.2723 23.0923C32.237 23.0928 32.2034 23.1081 32.1799 23.1346C32.1563 23.1608 32.1447 23.1958 32.148 23.2312L32.1954 23.7278C32.0202 23.6885 31.7425 23.6121 31.5615 23.4937C31.5195 23.4663 31.4663 23.4657 31.4243 23.4924L30.8698 23.8423L30.5858 23.0697C30.5683 23.0221 30.5244 22.9896 30.4737 22.9867C30.4186 22.9828 30.3758 23.0114 30.3531 23.0567L30.0417 23.6793L29.8236 23.3314C29.8009 23.2954 29.7618 23.2731 29.7193 23.272C29.6771 23.2726 29.6369 23.2911 29.6123 23.3259C29.6101 23.329 29.4335 23.5784 29.2311 23.7648L29.0863 23.3078C29.0716 23.2616 29.0321 23.2277 28.984 23.2206C28.9356 23.2142 28.8882 23.2344 28.8608 23.2745C28.8588 23.2775 28.7025 23.5046 28.5042 23.7137L28.4683 23.1479C28.4656 23.1049 28.4412 23.0661 28.4034 23.0451C28.3657 23.024 28.3197 23.0236 28.2818 23.0441C28.2272 23.0733 28.1263 23.1262 28.0208 23.1783C28.17 22.8685 28.3393 22.4332 28.2431 22.209C28.2144 22.142 28.1604 22.0977 28.0958 22.0702C28.0917 22.0674 28.089 22.0634 28.0847 22.061C28.0788 22.0578 28.0724 22.0576 28.0663 22.0554C28.062 22.0542 28.0592 22.0506 28.0547 22.0496C28.0497 22.0484 28.0458 22.0487 28.0408 22.0477C28.0382 22.0474 28.0358 22.0469 28.0331 22.0467C27.861 22.0109 27.7437 22.0589 27.6761 22.1083C27.6069 22.1589 27.5612 22.226 27.5313 22.2907C27.4525 22.2146 27.3572 22.1011 27.2957 21.9546C27.2763 21.908 27.2309 21.8775 27.1806 21.8768C27.1301 21.8736 27.0843 21.9057 27.0633 21.9516ZM26.0986 20.536C26.7844 20.8666 27.6272 20.9031 27.8576 20.9073C27.9678 21.0443 28.0753 21.1751 28.1616 21.2777C27.9508 21.2786 27.7359 21.3024 27.5652 21.3279L27.5952 21.2905C27.625 21.2535 27.6314 21.2029 27.6122 21.1595C27.5931 21.1163 27.5511 21.0872 27.5039 21.0843C26.6428 21.0331 25.6942 20.7339 25.6848 20.7306C25.6844 20.7305 25.6841 20.7306 25.6837 20.7305C25.6837 20.7305 25.6833 20.7302 25.6829 20.7301C25.5416 20.6875 25.4593 20.6148 25.451 20.5259C25.4446 20.4556 25.4836 20.3986 25.5072 20.3863C25.644 20.3156 25.932 20.4552 26.0986 20.536ZM27.2971 20.6075C27.3245 20.5878 27.3448 20.5596 27.3501 20.5259L27.3872 20.288C27.4633 20.3987 27.5554 20.5211 27.6505 20.6445C27.5523 20.6377 27.4317 20.6261 27.2971 20.6075ZM27.0738 20.5716C27.0119 20.5602 26.9483 20.5468 26.8839 20.532C26.8896 20.5048 26.8862 20.4757 26.8732 20.4496C26.8695 20.4423 26.8663 20.4346 26.863 20.4268C26.9432 20.4926 27.0174 20.5397 27.0738 20.5716ZM28.7469 19.1867C28.6892 19.2436 28.588 19.2867 28.4933 19.2238C28.4207 19.1754 28.405 19.0915 28.4142 19.029C28.4216 18.9802 28.4496 18.9177 28.505 18.9011C28.5156 18.898 28.5277 18.8964 28.5408 18.8964C28.6017 18.8964 28.6885 18.9283 28.7877 18.9737L28.7878 18.9739C28.8522 19.0759 28.7651 19.169 28.7469 19.1867ZM33.5703 21.0857C33.6066 21.1089 33.6525 21.1117 33.6921 21.0935C33.7312 21.0752 33.7583 21.0379 33.764 20.9951C33.7851 20.8355 33.8241 20.7376 33.8801 20.7041C33.9811 20.6434 34.226 20.7362 34.509 20.8435C34.7247 20.9252 34.9933 21.0268 35.2993 21.1018C36.098 21.2974 37.0369 21.1294 37.8651 20.981C38.1449 20.931 38.4145 20.8828 38.6651 20.8507C39.189 20.784 39.7232 21.0033 39.8569 21.3401C39.9579 21.5942 39.8027 21.8875 39.4201 22.1657C38.3595 22.9369 33.2812 22.5945 32.7634 22.5574C32.6257 22.4263 32.5718 22.1578 32.5557 21.9809C32.6395 22.0076 32.6956 22.0209 32.7028 22.0225C32.7115 22.0244 32.7202 22.0252 32.7289 22.0252C32.7652 22.0252 32.8003 22.0095 32.8249 21.9814C32.855 21.9464 32.8639 21.8981 32.8481 21.8547C32.7689 21.6388 32.7254 21.2399 32.7073 21.0357C32.7409 21.0449 32.7763 21.0416 32.8062 21.0231C32.8392 21.0029 32.861 20.9684 32.8656 20.9299C33.0156 19.6555 32.7539 18.991 32.6168 18.7421C32.6501 18.7167 32.6812 18.6892 32.7109 18.6605C32.7201 19.2629 33.0695 19.7473 33.2124 19.9202C32.9573 20.4979 33.3277 20.9319 33.5703 21.0857Z" fill="#464655"/>
<path d="M20.8458 14.5538C20.7966 13.5318 20.554 11.879 19.7785 11.8411C19.3414 11.821 19.1261 12.09 19.1172 12.1015C19.0916 12.1347 19.0496 12.1534 19.0089 12.1513L18.7125 12.1335L18.7656 12.3299C18.7783 12.3773 18.7623 12.4282 18.7248 12.46C18.7068 12.4751 18.2878 12.8391 18.5428 13.3026C18.737 13.6557 19.3649 13.8229 19.8232 13.9448C20.0279 13.9993 20.2048 14.0464 20.3195 14.1025C20.5241 14.2026 20.7032 14.3713 20.8458 14.5538Z" fill="#FFD250"/>
<path d="M19.7906 11.5877C19.3446 11.5659 19.067 11.7882 18.9626 11.8944L18.5516 11.8697C18.5126 11.8666 18.4715 11.8847 18.4456 11.9163C18.4198 11.9479 18.4107 11.99 18.4213 12.0295L18.5003 12.3223C18.2987 12.528 18.0617 12.9552 18.3201 13.4247C18.5665 13.8731 19.2551 14.0562 19.7576 14.19C19.9496 14.241 20.1153 14.2852 20.2079 14.3304C20.5051 14.4757 20.7438 14.8062 20.868 15.0672C20.8893 15.1122 20.9344 15.1395 20.9826 15.1395C20.9917 15.1395 21.0008 15.1385 21.01 15.1365C21.0676 15.1238 21.1088 15.0729 21.1093 15.0139C21.1106 14.8768 21.1269 11.6529 19.7906 11.5877ZM19.8229 13.9447C19.3646 13.8228 18.7367 13.6557 18.5425 13.3025C18.2875 12.8391 18.7065 12.4752 18.7245 12.4599C18.7619 12.4281 18.778 12.3773 18.7653 12.3298L18.7122 12.1334L19.0086 12.1513C19.0494 12.1534 19.0914 12.1347 19.1169 12.1015C19.1258 12.0898 19.3411 11.8208 19.7782 11.841C20.5538 11.8789 20.7963 13.5317 20.8455 14.5537C20.7029 14.3713 20.5238 14.2025 20.3191 14.1025C20.2046 14.0462 20.0276 13.9992 19.8229 13.9447Z" fill="#464655"/>
<path d="M42.0507 14.5538C42.0999 13.5318 42.3426 11.879 43.1181 11.8411C43.5551 11.821 43.7705 12.09 43.7794 12.1015C43.805 12.1347 43.847 12.1534 43.8877 12.1513L44.184 12.1335L44.1309 12.3299C44.1182 12.3773 44.1342 12.4282 44.1717 12.46C44.1897 12.4751 44.6088 12.8391 44.3538 13.3026C44.1595 13.6557 43.5317 13.8229 43.0733 13.9448C42.8687 13.9993 42.6918 14.0464 42.577 14.1025C42.3725 14.2026 42.1932 14.3713 42.0507 14.5538Z" fill="#FFD250"/>
<path d="M41.7871 15.0139C41.7877 15.0729 41.8289 15.1238 41.8864 15.1366C41.8956 15.1385 41.9047 15.1396 41.9138 15.1396C41.9619 15.1396 42.007 15.1122 42.0283 15.0673C42.1525 14.8063 42.3912 14.4757 42.6884 14.3304C42.7811 14.2851 42.9467 14.2411 43.1386 14.1901C43.6413 14.0563 44.3297 13.8731 44.5762 13.4248C44.8345 12.9551 44.5975 12.528 44.396 12.3224L44.475 12.0295C44.4856 11.9899 44.4764 11.9478 44.4507 11.9163C44.4249 11.8847 44.3837 11.8666 44.3447 11.8697L43.9337 11.8944C43.8293 11.7884 43.5517 11.5661 43.1057 11.5877C41.7696 11.6527 41.7858 14.8767 41.7871 15.0139ZM42.5772 14.1022C42.3725 14.2023 42.1933 14.3712 42.0508 14.5534C42.1 13.5315 42.3426 11.8787 43.1181 11.8408C43.5552 11.8206 43.7705 12.0897 43.7794 12.1012C43.805 12.1344 43.847 12.1531 43.8877 12.151L44.1841 12.1332L44.131 12.3296C44.1182 12.3769 44.1343 12.4278 44.1718 12.4596C44.1898 12.4748 44.6088 12.8387 44.3538 13.3022C44.1596 13.6554 43.5317 13.8226 43.0734 13.9444C42.8689 13.999 42.6919 14.0461 42.5772 14.1022Z" fill="#464655"/>
<path d="M42.0507 33.4462C42.0999 34.4682 42.3426 36.121 43.1181 36.1588C43.5551 36.179 43.7705 35.9099 43.7794 35.8983C43.805 35.8651 43.847 35.8465 43.8877 35.8485L44.184 35.8663L44.1309 35.6699C44.1182 35.6226 44.1342 35.5717 44.1717 35.5399C44.1897 35.5247 44.6088 35.1608 44.3538 34.6973C44.1595 34.3441 43.5317 34.177 43.0733 34.0551C42.8687 34.0005 42.6918 33.9535 42.577 33.8973C42.3725 33.7975 42.1932 33.6286 42.0507 33.4462Z" fill="#FFD250"/>
<path d="M43.106 36.4123C43.5519 36.4341 43.8294 36.2118 43.9339 36.1056L44.345 36.1303C44.384 36.1334 44.425 36.1153 44.4509 36.0837C44.4767 36.0521 44.4858 36.01 44.4752 35.9705L44.3962 35.6777C44.5978 35.472 44.8348 35.0448 44.5764 34.5752C44.3301 34.1269 43.6415 33.9438 43.1389 33.81C42.947 33.759 42.7812 33.7148 42.6886 33.6696C42.3914 33.5243 42.1527 33.1937 42.0285 32.9327C42.0072 32.8878 41.9621 32.8605 41.914 32.8605C41.905 32.8605 41.8959 32.8615 41.8867 32.8635C41.829 32.8762 41.7879 32.9271 41.7873 32.9861C41.7859 33.1232 41.7697 36.3471 43.106 36.4123ZM43.0736 34.0553C43.532 34.1772 44.1598 34.3443 44.3541 34.6975C44.6091 35.1609 44.19 35.5248 44.172 35.5401C44.1346 35.5719 44.1186 35.6227 44.1312 35.6702L44.1843 35.8666L43.8879 35.8487C43.8472 35.8466 43.8052 35.8653 43.7797 35.8985C43.7708 35.9102 43.5554 36.1792 43.1183 36.159C42.3428 36.1211 42.1002 34.4683 42.051 33.4463C42.1936 33.6287 42.3728 33.7975 42.5774 33.8975C42.692 33.9538 42.869 34.0008 43.0736 34.0553Z" fill="#464655"/>
<path d="M20.8458 33.4462C20.7966 34.4682 20.554 36.121 19.7785 36.1588C19.3414 36.179 19.1261 35.9099 19.1172 35.8983C19.0916 35.8651 19.0496 35.8465 19.0089 35.8485L18.7125 35.8663L18.7656 35.6699C18.7783 35.6226 18.7623 35.5717 18.7248 35.5399C18.7068 35.5247 18.2878 35.1608 18.5428 34.6973C18.737 34.3441 19.3649 34.177 19.8232 34.0551C20.0279 34.0005 20.2048 33.9535 20.3195 33.8973C20.5241 33.7975 20.7032 33.6286 20.8458 33.4462Z" fill="#FFD250"/>
<path d="M21.1095 32.9859C21.1088 32.9269 21.0676 32.876 21.0101 32.8633C21.0009 32.8613 20.9918 32.8603 20.9827 32.8603C20.9346 32.8603 20.8895 32.8876 20.8681 32.9325C20.7439 33.1935 20.5052 33.5241 20.208 33.6694C20.1153 33.7147 19.9498 33.7588 19.7578 33.8098C19.2551 33.9435 18.5667 34.1267 18.3202 34.575C18.0619 35.0447 18.2989 35.4719 18.5004 35.6774L18.4215 35.9703C18.4109 36.0099 18.4201 36.052 18.4457 36.0835C18.4715 36.1151 18.5127 36.1333 18.5517 36.1301L18.9628 36.1054C19.0671 36.2114 19.3447 36.4337 19.7907 36.4121C21.127 36.3471 21.1108 33.1231 21.1095 32.9859ZM20.3193 33.8977C20.524 33.7976 20.7032 33.6287 20.8457 33.4465C20.7965 34.4684 20.5539 36.1213 19.7784 36.1591C19.3413 36.1793 19.126 35.9102 19.1171 35.8987C19.0915 35.8655 19.0495 35.8469 19.0088 35.8489L18.7125 35.8667L18.7655 35.6703C18.7783 35.623 18.7622 35.5721 18.7247 35.5403C18.7067 35.5251 18.2877 35.1612 18.5427 34.6977C18.7369 34.3445 19.3648 34.1773 19.8231 34.0555C20.0277 34.0008 20.2047 33.9538 20.3193 33.8977Z" fill="#464655"/>
</svg>
