<svg width="48" height="48" viewBox="0 0 48 48" fill="none" xmlns="http://www.w3.org/2000/svg">
<path d="M0 29.2411H47.9999V38.8962C47.9999 39.3533 47.6293 39.7239 47.1723 39.7239H0.827623C0.370593 39.7239 0 39.3533 0 38.8962V29.2411Z" fill="#73AF00"/>
<path d="M0.827623 8.27597H47.1724C47.6294 8.27597 48 8.64656 48 9.10359V18.7587H0V9.1035C0 8.64647 0.370593 8.27597 0.827623 8.27597Z" fill="#41479B"/>
<path d="M47.9999 18.7585H0V29.2407H47.9999V18.7585Z" fill="white"/>
<path d="M26.8572 25.867L26.6649 25.965C26.6387 25.9783 26.6105 25.9898 26.5838 26.0027L24.8844 23.856C25.2337 23.0968 25.4407 22.0605 25.4407 21.5894C25.4407 20.8153 24.9327 20.1704 24.2644 20.034C24.2197 19.933 24.119 19.8623 24.0014 19.8623C23.8839 19.8623 23.7832 19.933 23.7385 20.034C23.0702 20.1704 22.5622 20.8154 22.5622 21.5894C22.5622 22.0605 22.7693 23.0967 23.1185 23.856L21.4192 26.0027C21.3928 25.9899 21.3645 25.9784 21.3385 25.9651L21.1461 25.8672L20.4282 27.2785L20.6205 27.3764C21.6003 27.8747 22.7694 28.1382 24.0014 28.1382C25.2336 28.1382 26.403 27.8745 27.383 27.3763L27.5754 27.2784L26.8572 25.867ZM25.1528 21.5894C25.1528 21.9395 25.0227 22.6755 24.7818 23.3503C24.75 23.4391 24.7175 23.5234 24.6841 23.6033L24.4332 23.2862V22.1651H24.865L24.2892 21.5894V20.3366C24.785 20.481 25.1528 20.987 25.1528 21.5894ZM23.221 23.3502C22.98 22.6755 22.85 21.9394 22.85 21.5893C22.85 20.987 23.2178 20.481 23.7136 20.3365V21.5893L23.1379 22.165H23.5697V23.2861L23.3188 23.6032C23.2853 23.5234 23.2528 23.439 23.221 23.3502ZM21.2852 26.5455L21.344 26.7873L21.133 26.8449L21.2852 26.5455ZM21.0341 27.0958L21.3951 26.9973L21.4614 27.2701C21.3158 27.2163 21.1726 27.1592 21.0341 27.0958ZM21.5815 26.5458C21.7457 26.6108 21.9166 26.6681 22.0923 26.7192L22.1443 26.8784L21.6897 26.9905L21.5815 26.5458ZM21.7843 27.3802L21.7406 27.2003L22.2114 27.0841L22.3573 27.5314C22.1621 27.4889 21.971 27.4382 21.7843 27.3802ZM22.4233 26.8058C22.604 26.8479 22.7879 26.8842 22.9757 26.9116L23.0539 27.0515L22.5542 27.2072L22.4233 26.8058ZM22.6804 27.5938L22.6213 27.4125L23.1615 27.2442L23.4064 27.6821C23.1601 27.6637 22.9179 27.6344 22.6804 27.5938ZM23.3294 26.9541C23.5512 26.9751 23.7756 26.9867 24.0013 26.9867C24.0494 26.9867 24.0972 26.9841 24.1452 26.9831L24.2053 27.0752L23.5412 27.3329L23.3294 26.9541ZM24.0013 27.7064C23.9158 27.7064 23.8313 27.7027 23.7464 27.7001L23.6475 27.5232L24.3258 27.2601L24.6008 27.6817C24.4031 27.6963 24.2037 27.7064 24.0013 27.7064ZM24.4793 26.9685C24.7075 26.9533 24.9329 26.9273 25.1542 26.8906L25.219 26.9734L24.6932 27.2965L24.4793 26.9685ZM24.9244 27.651L24.8112 27.4773L25.3528 27.1445L25.654 27.5295C25.4162 27.5818 25.1727 27.6221 24.9244 27.651ZM25.4725 26.8304C25.6607 26.7898 25.845 26.7421 26.0235 26.6864L26.0906 26.7732L25.7083 27.1319L25.4725 26.8304ZM25.9618 27.4559L25.8418 27.3026L26.2231 26.9447L26.4889 27.2889C26.3171 27.3508 26.142 27.4078 25.9618 27.4559ZM26.3112 26.5878C26.4324 26.5428 26.5515 26.4955 26.6661 26.4434L26.7223 26.5542L26.5384 26.8823L26.3112 26.5878ZM26.7692 27.181L26.6819 27.0679L26.8402 26.7856L26.9928 27.0856C26.9198 27.1194 26.8442 27.1499 26.7692 27.181Z" fill="#464655"/>
</svg>
