<svg width="48" height="48" viewBox="0 0 48 48" fill="none" xmlns="http://www.w3.org/2000/svg">
<path d="M0 31.448H47.9999V38.8962C47.9999 39.3533 47.6293 39.7239 47.1723 39.7239H0.827623C0.370593 39.7239 0 39.3533 0 38.8962V31.448Z" fill="#73AF00"/>
<path d="M0.827623 8.276H47.1724C47.6294 8.276 48 8.64659 48 9.10362V16.5519H0V9.10353C0 8.6465 0.370593 8.276 0.827623 8.276Z" fill="#FF4B55"/>
<path d="M47.9999 16.5517H0V31.4485H47.9999V16.5517Z" fill="#464655"/>
<path d="M28.6928 21.3218L29.9384 22.9511L31.8832 22.3001C31.992 22.2637 32.0844 22.3867 32.0193 22.4811L30.8546 24.1691L32.0746 25.8175C32.1428 25.9097 32.0545 26.0357 31.9446 26.0029L29.9793 25.4168L28.7886 27.0866C28.722 27.18 28.5749 27.1348 28.5721 27.0202L28.5221 24.97L26.5661 24.3536C26.4568 24.3192 26.4541 24.1654 26.5623 24.1272L28.4968 23.4462L28.4787 21.3954C28.4776 21.2807 28.6231 21.2307 28.6928 21.3218Z" fill="white"/>
<path d="M25.3124 28.0216C23.0932 28.0216 21.2928 26.2214 21.2928 24C21.2928 21.7828 23.0931 19.9784 25.3124 19.9784C26.1381 19.9784 26.8996 20.2323 27.5342 20.6622C27.6313 20.728 27.7423 20.6003 27.6609 20.5157C26.7126 19.5298 25.3702 18.9282 23.882 18.979C21.325 19.0662 19.2083 21.1162 19.045 23.6694C18.8579 26.5938 21.1734 29.0242 24.0564 29.0242C25.4766 29.0242 26.7529 28.4305 27.6644 27.4812C27.7448 27.3973 27.6337 27.2715 27.5375 27.3368C26.9022 27.7673 26.1396 28.0216 25.3124 28.0216Z" fill="white"/>
</svg>
