<svg width="48" height="48" viewBox="0 0 48 48" fill="none" xmlns="http://www.w3.org/2000/svg">
<path d="M47.1723 39.7243H0.827623C0.370593 39.7243 0 39.3537 0 38.8966V9.10359C0 8.64656 0.370593 8.27597 0.827623 8.27597H47.1724C47.6294 8.27597 48 8.64656 48 9.10359V38.8966C47.9999 39.3538 47.6293 39.7243 47.1723 39.7243Z" fill="#FF4B55"/>
<path d="M27.9327 26.0589L34.2545 21.4204H26.4255L23.9998 13.9543L21.574 21.4204H13.745L20.0669 26.0589L17.6598 33.4672L23.9936 28.9402L23.9998 28.9446L24.0059 28.9402L30.3397 33.4672L27.9327 26.0589ZM29.2008 23.0755L27.394 24.4013L26.9632 23.0755H29.2008ZM22.0108 25.4323L22.7766 23.0754H25.2229L25.9888 25.4323L23.9998 26.8918L22.0108 25.4323ZM23.9998 19.311L24.6851 21.4204H23.3143L23.9998 19.311ZM18.7987 23.0755H21.0363L20.6055 24.4013L18.7987 23.0755ZM20.7876 29.1968L21.4722 27.09L22.5888 27.9093L20.7876 29.1968ZM26.5274 27.09L27.212 29.1968L25.4109 27.9094L26.5274 27.09Z" fill="#5A8250"/>
</svg>
