<svg width="48" height="48" viewBox="0 0 48 48" fill="none" xmlns="http://www.w3.org/2000/svg">
<path d="M32 8.27563H47.1724C47.6294 8.27563 48 8.64623 48 9.10326V38.8964C48 39.3534 47.6294 39.724 47.1724 39.724H32V8.27563Z" fill="#FF4B55"/>
<path d="M32.0007 8.27612H16.0004V39.7246H32.0007V8.27612Z" fill="#FFE15A"/>
<path d="M0.827625 8.27563H16V39.7239H0.827625C0.370594 39.7239 0 39.3533 0 38.8963V9.10317C0 8.64613 0.370594 8.27563 0.827625 8.27563Z" fill="#41479B"/>
<path d="M26.9328 29.6717L27.3445 29.336L25.4684 27.0351L25.0567 27.3708L26.9328 29.6717Z" fill="#FFCD5A"/>
<path d="M25.6747 28.5519L26.4981 27.881L25.6729 26.868L24.8494 27.5389L25.6747 28.5519Z" fill="#FFBE5A"/>
<path d="M23.1738 27.3707L22.7621 27.035L20.8861 29.3359L21.2977 29.6716L23.1738 27.3707Z" fill="#FFCD5A"/>
<path d="M23.379 27.5391L22.5555 26.8683L21.7303 27.8813L22.5537 28.5521L23.379 27.5391Z" fill="#FFBE5A"/>
<path d="M23.4506 27.8984L22.1228 30.5541L23.9817 31.8819V28.164L23.4506 27.8984Z" fill="#FFE15A"/>
<path d="M24.5127 27.8984L25.8405 30.5541L23.9816 31.8819V28.164L24.5127 27.8984Z" fill="#FFCD5A"/>
<path d="M20.2639 27.8983V20.9937H21.0606C21.0606 20.9937 21.0606 25.5083 21.0606 26.3049C21.0606 27.1016 20.2639 27.8983 20.2639 27.8983Z" fill="#FFBE5A"/>
<path d="M19.7327 29.2262V20.9937H20.5294C20.5294 20.9937 20.5294 26.836 20.5294 27.6327C20.5293 28.4294 19.7327 29.2262 19.7327 29.2262Z" fill="#FFCD5A"/>
<path d="M19.2017 30.2885V20.9938H19.9984C19.9984 20.9938 19.9984 27.8985 19.9984 28.6952C19.9984 29.4918 19.2017 30.2885 19.2017 30.2885Z" fill="#FFE15A"/>
<path d="M21.0606 21.2592C21.0606 21.2592 21.0606 25.0434 21.0606 26.3049C21.0606 27.6328 22.9859 27.4557 23.9817 28.4294C24.9776 27.4556 26.9029 27.6327 26.9029 26.3049C26.9029 25.0435 26.9029 21.2592 26.9029 21.2592H21.0606Z" fill="#FF4B55"/>
<path d="M21.0606 24.1808C21.0606 25.0215 21.0606 25.8371 21.0606 26.3053C21.0606 27.6332 22.9859 27.4561 23.9817 28.4298C24.9776 27.456 26.9029 27.6331 26.9029 26.3052C26.9029 25.8371 26.9029 25.0214 26.9029 24.1807L21.0606 24.1808Z" fill="#41479B"/>
<path d="M23.9816 27.6331L23.1849 27.102V26.8364L23.4505 26.5709V24.9774L22.6539 24.4463L23.4505 23.384H23.716L23.9816 23.6497L24.2472 23.384H24.5128L25.3095 24.4463L24.5128 24.9774V26.5709L24.7783 26.8364V27.102L23.9816 27.6331Z" fill="#FFE15A"/>
<path d="M22.9194 21.5248C22.9194 21.5248 21.8572 21.7904 21.8572 22.8527C21.8572 23.9149 22.9194 24.446 22.9194 24.446L23.4505 23.6493C21.8571 23.1182 22.9194 21.5248 22.9194 21.5248Z" fill="#FFE15A"/>
<path d="M25.0438 21.5248C25.0438 21.5248 26.106 21.7904 26.106 22.8527C26.106 23.9149 25.0438 24.446 25.0438 24.446L24.5127 23.6493C26.106 23.1182 25.0438 21.5248 25.0438 21.5248Z" fill="#FFE15A"/>
<path d="M21.326 24.1808L21.8571 24.4463L22.3883 24.1808L21.8571 23.9152L21.326 24.1808Z" fill="#FFE15A"/>
<path d="M25.5753 24.1808L26.1064 24.4463L26.6376 24.1808L26.1064 23.9152L25.5753 24.1808Z" fill="#FFE15A"/>
<path d="M23.9816 21.6575L24.1747 21.8553L24.451 21.852L24.4478 22.1283L24.6455 22.3215L24.4478 22.5145L24.451 22.7909L24.1747 22.7876L23.9816 22.9854L23.7886 22.7876L23.5121 22.7909L23.5155 22.5145L23.3178 22.3215L23.5155 22.1283L23.5121 21.852L23.7886 21.8553L23.9816 21.6575Z" fill="#FFE15A"/>
<path d="M22.1781 25.3404L22.3696 25.5534L22.6358 25.4478C22.7737 25.3932 22.9031 25.5431 22.8289 25.6715L22.6855 25.9195L22.8682 26.1402C22.9628 26.2543 22.8602 26.4238 22.7151 26.3929L22.435 26.3331L22.2816 26.5751C22.2022 26.7003 22.0094 26.655 21.9939 26.5075L21.9641 26.2226L21.6867 26.1515C21.543 26.1147 21.5265 25.9173 21.662 25.8571L21.9237 25.7409L21.9056 25.455C21.8965 25.3067 22.079 25.23 22.1781 25.3404Z" fill="#FFE15A"/>
<path d="M25.7151 25.9458C25.7737 25.6438 26.0229 25.4299 26.3134 25.3977C26.2538 25.3656 26.1904 25.3391 26.1206 25.3256C25.7486 25.2535 25.3886 25.4966 25.3165 25.8685C25.2444 26.2405 25.4874 26.6005 25.8594 26.6726C25.9293 26.6862 25.9981 26.6853 26.0652 26.6778C25.8078 26.5394 25.6566 26.2479 25.7151 25.9458Z" fill="#FFE15A"/>
<path d="M22.9194 21.2594L23.4505 18.6038L22.3883 17.8071L22.6539 17.5415H23.185C23.185 17.5415 23.4506 17.2759 23.9816 17.2759C24.5127 17.2759 25.0438 17.5415 25.0438 18.3381C25.0438 19.1347 25.3094 21.2592 25.3094 21.2592H22.9194V21.2594Z" fill="#FFE15A"/>
<path d="M21.0606 20.197C20.4739 20.197 19.9984 20.6726 19.9984 21.2591H22.123C22.1229 20.6726 21.6472 20.197 21.0606 20.197Z" fill="#FFAA5A"/>
<path d="M20.7951 21.2593H19.2017V19.4917C19.2017 19.1479 19.4804 18.8693 19.8241 18.8693H20.1727C20.5164 18.8693 20.7951 19.148 20.7951 19.4917V21.2593Z" fill="#FFBE5A"/>
<path d="M27.6998 27.8983V20.9936H26.9031C26.9031 20.9936 26.9031 25.5082 26.9031 26.3048C26.9031 27.1016 27.6998 27.8983 27.6998 27.8983Z" fill="#FFBE5A"/>
<path d="M28.2309 29.2262V20.9937H27.4342C27.4342 20.9937 27.4342 26.836 27.4342 27.6327C27.4342 28.4294 28.2309 29.2262 28.2309 29.2262Z" fill="#FFCD5A"/>
<path d="M28.762 30.2885V20.9938H27.9653C27.9653 20.9938 27.9653 27.8985 27.9653 28.6952C27.9652 29.4918 28.762 30.2885 28.762 30.2885Z" fill="#FFE15A"/>
<path d="M26.9031 20.197C27.4898 20.197 27.9653 20.6726 27.9653 21.2591H25.8408C25.8409 20.6726 26.3164 20.197 26.9031 20.197Z" fill="#FFAA5A"/>
<path d="M27.1687 21.2593H28.7621V19.4917C28.7621 19.1479 28.4834 18.8693 28.1397 18.8693H27.7912C27.4474 18.8693 27.1688 19.148 27.1688 19.4917L27.1687 21.2593Z" fill="#FFBE5A"/>
<path d="M30.2438 24.2841L29.9036 24.0769L26.1847 30.184L26.5249 30.3912L30.2438 24.2841Z" fill="#FFAA5A"/>
<path d="M27.0002 30.0396L27.6635 29.2098L27.0146 28.6911L26.3513 29.5209L27.0002 30.0396Z" fill="#FFE15A"/>
<path d="M30.3531 24.3531L29.7859 24.0079L28.9893 25.3167L29.5564 25.6619L30.3531 24.3531Z" fill="#FFCD5A"/>
<path d="M21.9599 30.1787L18.2114 24.3801L17.9884 24.5243L21.7369 30.3229L21.9599 30.1787Z" fill="#73AF00"/>
<path d="M20.57 27.1299C20.4748 27.2379 20.4116 27.4017 20.3957 27.5905C20.2647 27.4583 20.1143 27.3741 19.9743 27.3515C19.9373 27.4885 19.9523 27.6602 20.0192 27.8339C19.8404 27.7709 19.6653 27.7612 19.5277 27.8038C19.5664 27.9995 19.7259 28.212 19.9703 28.3577C20.2146 28.5036 20.4774 28.543 20.668 28.4841L20.7226 28.4489C20.8545 28.2991 20.9264 28.0435 20.8938 27.7608C20.8609 27.4782 20.7325 27.2456 20.57 27.1299Z" fill="#73AF00"/>
<path d="M20.6953 28.7325C20.842 28.7325 20.9609 28.6136 20.9609 28.4669C20.9609 28.3203 20.842 28.2014 20.6953 28.2014C20.5486 28.2014 20.4297 28.3203 20.4297 28.4669C20.4297 28.6136 20.5486 28.7325 20.6953 28.7325Z" fill="#FF4B55"/>
<path d="M19.5609 25.5685C19.4657 25.6765 19.4025 25.8403 19.3866 26.0291C19.2556 25.897 19.1052 25.8128 18.9652 25.7902C18.9282 25.9271 18.9432 26.0989 19.0101 26.2725C18.8313 26.2095 18.6562 26.1999 18.5186 26.2424C18.5573 26.4382 18.7168 26.6506 18.9612 26.7964C19.2055 26.9423 19.4683 26.9816 19.6589 26.9228L19.7135 26.8875C19.8454 26.7378 19.9173 26.4821 19.8847 26.1995C19.8519 25.9167 19.7235 25.6841 19.5609 25.5685Z" fill="#73AF00"/>
<path d="M19.6864 27.1715C19.833 27.1715 19.9519 27.0526 19.9519 26.9059C19.9519 26.7592 19.833 26.6403 19.6864 26.6403C19.5397 26.6403 19.4208 26.7592 19.4208 26.9059C19.4208 27.0526 19.5397 27.1715 19.6864 27.1715Z" fill="#FF4B55"/>
<path d="M18.5515 24.0073C18.4563 24.1153 18.3931 24.2791 18.3772 24.4679C18.2462 24.3357 18.0958 24.2515 17.9557 24.2289C17.9188 24.3659 17.9338 24.5377 18.0007 24.7113C17.8219 24.6483 17.6467 24.6386 17.5092 24.6812C17.5479 24.877 17.7074 25.0894 17.9518 25.2352C18.1961 25.3811 18.4589 25.4204 18.6495 25.3616L18.7041 25.3263C18.836 25.1766 18.9079 24.9209 18.8752 24.6383C18.8422 24.3555 18.714 24.1229 18.5515 24.0073Z" fill="#73AF00"/>
<path d="M18.6767 25.6105C18.8234 25.6105 18.9423 25.4916 18.9423 25.3449C18.9423 25.1982 18.8234 25.0793 18.6767 25.0793C18.53 25.0793 18.4111 25.1982 18.4111 25.3449C18.4111 25.4916 18.53 25.6105 18.6767 25.6105Z" fill="#FF4B55"/>
<path d="M21.8784 29.5218L21.2151 28.6921L20.5662 29.2108L21.2295 30.0405L21.8784 29.5218Z" fill="#FFE15A"/>
<path d="M22.654 16.7452H22.3884V18.6041H22.654V16.7452Z" fill="#FFE15A"/>
<path d="M22.9191 17.0104H22.1224V17.276H22.9191V17.0104Z" fill="#FFE15A"/>
<path d="M22.3883 17.8071L23.185 18.4046V17.5416H22.6539L22.3883 17.8071Z" fill="#FF875A"/>
<path d="M22.654 16.7448V17.0104H22.9195V17.276H22.654V17.5416H23.185C23.185 17.5416 23.4506 17.276 23.9817 17.276C24.5128 17.276 25.0439 17.5416 25.0439 18.3382C25.0439 19.1349 25.3095 21.2594 25.3095 21.2594H25.8406C25.8406 20.6727 26.3162 20.1972 26.9028 20.1972C26.995 20.1972 27.083 20.2126 27.1684 20.2348V19.6661C27.1684 19.2261 27.5251 18.8694 27.9651 18.8694C28.405 18.8694 28.7618 19.2261 28.7618 19.6661V20.994V21.2596V25.9495L29.1047 25.3862L28.9914 25.3172L29.788 24.0082L29.9014 24.0772L30.0715 24.1809L30.3551 24.3535L29.5585 25.6624L29.445 25.5934L28.7618 26.716V30.2891C28.7618 30.2891 28.1276 29.6532 27.9919 28.9497C27.8949 28.825 27.7831 28.666 27.6848 28.4854L27.3808 28.9847L27.6634 29.2106L27.0001 30.0404L26.824 29.8996L26.5238 30.3928L26.1835 30.1856L26.5103 29.6488L26.3516 29.5219L26.5775 29.2393L25.8806 28.3847L25.6747 28.5525L25.0551 27.7922C24.8902 27.8584 24.7271 27.9313 24.5703 28.0145L25.8403 30.5547L23.9814 31.8826L22.1224 30.5547L23.3924 28.0145C23.2987 27.9647 23.2034 27.9176 23.106 27.8747L22.5537 28.5525L22.3478 28.3847L21.6509 29.2393L21.8768 29.5219L21.6512 29.7022L21.9594 30.179L21.7364 30.3232L21.4427 29.8689L21.2283 30.0403L20.565 29.2105L20.863 28.9723L20.7051 28.7279C20.7013 28.728 20.6977 28.7281 20.6939 28.7281C20.6071 28.7281 20.5221 28.6893 20.4715 28.6111C20.45 28.5778 20.4384 28.5414 20.4332 28.5047C20.3832 28.5017 20.3326 28.4945 20.2799 28.482C20.1812 28.6639 20.0687 28.8242 19.9711 28.9497C19.8354 29.6533 19.2012 30.2891 19.2012 30.2891V26.9014C19.121 26.8762 19.0401 26.8442 18.9605 26.7966C18.7162 26.6507 18.5566 26.4383 18.5179 26.2427C18.5738 26.2254 18.6357 26.2168 18.7017 26.2168C18.7983 26.2168 18.9033 26.2354 19.0094 26.2727C18.9748 26.1827 18.9547 26.0937 18.948 26.0093L18.6868 25.6052C18.6831 25.6053 18.6794 25.6054 18.6757 25.6054C18.5889 25.6054 18.5038 25.5667 18.4533 25.4884C18.4317 25.4552 18.4201 25.4188 18.4149 25.382C18.2679 25.3732 18.1068 25.3282 17.9515 25.2356C17.7071 25.0897 17.5476 24.8773 17.5089 24.6816C17.5647 24.6644 17.6268 24.6557 17.6927 24.6557C17.7893 24.6557 17.8943 24.6743 18.0004 24.7117C17.9335 24.538 17.9185 24.3663 17.9555 24.2294C18.0955 24.252 18.2459 24.3362 18.3769 24.4683C18.3928 24.2795 18.456 24.1157 18.5512 24.0077C18.7137 24.1234 18.842 24.356 18.8746 24.6388C18.8954 24.8186 18.8703 24.9839 18.8179 25.1216C18.8493 25.1416 18.8777 25.167 18.8992 25.2003C18.952 25.282 18.9501 25.3802 18.9098 25.4612L19.171 25.8653C19.1811 25.8709 19.191 25.8777 19.2011 25.884V21.2598V20.9942V19.6664C19.2011 19.2264 19.5579 18.8697 19.9978 18.8697C20.4378 18.8697 20.7945 19.2264 20.7945 19.6664V20.2351C20.8798 20.2129 20.9678 20.1975 21.0601 20.1975C21.6468 20.1975 22.1223 20.6731 22.1223 21.2597H22.919L23.4501 18.604L23.1845 18.4049L22.6534 18.0065V18.6041H22.3878V17.2762H22.1222V17.0106H22.3878V16.745H22.6544L22.654 16.7448ZM26.917 28.8145L27.015 28.6918L27.0672 28.7335L27.4953 28.0303C27.458 27.9002 27.4341 27.7668 27.4341 27.6331C27.4341 27.62 27.4341 27.6021 27.4341 27.5864C27.2023 27.2815 26.903 26.7937 26.903 26.3052C26.903 26.8645 26.5597 27.1559 26.0898 27.3797L26.4985 27.8814L26.2928 28.049L26.917 28.8145ZM21.0721 28.8051L21.214 28.6917L21.3121 28.8144L21.9363 28.0487L21.7305 27.8811L22.0685 27.4664C21.5012 27.2295 21.0605 26.9392 21.0605 26.3051C21.0605 26.6607 20.9018 27.0155 20.7261 27.3003C20.8095 27.4228 20.8724 27.5793 20.8934 27.7607C20.9142 27.9405 20.8891 28.1057 20.8367 28.2435C20.8681 28.2634 20.8965 28.2888 20.918 28.3222C20.9708 28.4039 20.9689 28.5019 20.9286 28.5831L21.0721 28.8051ZM22.654 16.5457H22.3884C22.2784 16.5457 22.1892 16.6349 22.1892 16.7448V16.8112H22.1229C22.0129 16.8112 21.9237 16.9004 21.9237 17.0103V17.2759C21.9237 17.3859 22.0129 17.4751 22.1229 17.4751H22.1892V18.6037C22.1892 18.7137 22.2784 18.8028 22.3884 18.8028H22.654C22.7639 18.8028 22.8531 18.7137 22.8531 18.6037V18.4046L23.0655 18.5639L23.2306 18.6877L22.756 21.0602H22.3061C22.2103 20.4589 21.6882 19.998 21.0604 19.998C21.0384 19.998 21.0163 19.9987 20.994 20V19.666C20.994 19.1169 20.5472 18.6701 19.9981 18.6701C19.449 18.6701 19.0022 19.1169 19.0022 19.666V20.9939V21.2595V24.3137C18.9303 24.1154 18.8134 23.9494 18.6669 23.8451C18.632 23.8202 18.5916 23.8082 18.5515 23.8082C18.4961 23.8082 18.4412 23.8312 18.4021 23.8756C18.3408 23.9452 18.2904 24.03 18.2528 24.1256C18.1656 24.0783 18.0759 24.0465 17.9874 24.0322C17.9767 24.0304 17.9661 24.0296 17.9556 24.0296C17.867 24.0296 17.7873 24.0888 17.7635 24.1769C17.7401 24.2633 17.7324 24.3582 17.7397 24.4571C17.724 24.4563 17.7085 24.456 17.693 24.456C17.6067 24.456 17.5251 24.4677 17.4504 24.4907C17.353 24.5208 17.294 24.6197 17.3137 24.7197C17.3652 24.9799 17.5655 25.2366 17.8495 25.406C17.9806 25.4842 18.1229 25.5378 18.2674 25.564C18.2732 25.575 18.2795 25.5857 18.2862 25.5961C18.3516 25.6972 18.4541 25.7668 18.5714 25.7927L18.7165 26.0173C18.7117 26.0172 18.7069 26.0172 18.7021 26.0172C18.6159 26.0172 18.5342 26.0289 18.4595 26.052C18.3621 26.0821 18.3031 26.1809 18.3228 26.2809C18.3744 26.5412 18.5746 26.7978 18.8587 26.9672C18.904 26.9943 18.9513 27.0183 19.0023 27.04V30.2882C19.0023 30.3689 19.051 30.4415 19.1254 30.4723C19.15 30.4824 19.1758 30.4874 19.2014 30.4874C19.2534 30.4874 19.3044 30.4671 19.3425 30.4288C19.3696 30.4017 19.9943 29.7686 20.1571 29.0339C20.224 28.9458 20.2859 28.8571 20.3422 28.7682C20.4063 28.8422 20.493 28.8933 20.59 28.9149L20.5986 28.9281L20.4413 29.0539C20.4 29.0869 20.3735 29.1349 20.3677 29.1875C20.3618 29.2399 20.377 29.2927 20.41 29.334L21.0733 30.1637C21.1063 30.205 21.1543 30.2315 21.2069 30.2373C21.2142 30.2382 21.2216 30.2386 21.229 30.2386C21.274 30.2386 21.3178 30.2234 21.3533 30.195L21.3956 30.1611L21.5697 30.4305C21.5984 30.4748 21.6435 30.506 21.6952 30.5171C21.709 30.5201 21.723 30.5215 21.737 30.5215C21.775 30.5215 21.8127 30.5106 21.8451 30.4895L21.9739 30.4063L21.9447 30.4647C21.9009 30.5523 21.9274 30.6588 22.0071 30.7158L23.866 32.0437C23.9007 32.0685 23.9412 32.0808 23.9818 32.0808C24.0224 32.0808 24.0629 32.0685 24.0976 32.0437L25.9566 30.7158C26.0364 30.6588 26.0628 30.5524 26.0189 30.4647L24.8379 28.1027C24.888 28.079 24.9402 28.0556 24.9949 28.0321L25.5207 28.6773C25.5601 28.7256 25.6175 28.7507 25.6753 28.7507C25.7196 28.7507 25.7641 28.7359 25.801 28.7058L25.8527 28.6638L26.322 29.2395L26.1966 29.3964C26.1636 29.4377 26.1484 29.4903 26.1542 29.5428C26.1601 29.5954 26.1865 29.6434 26.2278 29.6764L26.2495 29.6938L26.0139 30.0809C25.9567 30.1748 25.9865 30.2972 26.0804 30.3545L26.4206 30.5617C26.452 30.5808 26.488 30.5908 26.5243 30.5908C26.5401 30.5908 26.5559 30.5889 26.5714 30.5851C26.6227 30.5725 26.667 30.5402 26.6945 30.4951L26.877 30.1952C26.9137 30.2241 26.9572 30.2382 27.0006 30.2382C27.059 30.2382 27.1169 30.2125 27.1563 30.1634L27.8196 29.3336C27.844 29.303 27.8579 29.2675 27.862 29.2314C28.0783 29.8786 28.5968 30.4038 28.6213 30.4285C28.6594 30.4667 28.7105 30.4871 28.7624 30.4871C28.7881 30.4871 28.8138 30.4821 28.8384 30.472C28.9129 30.4412 28.9615 30.3686 28.9615 30.288V26.7707L29.5181 25.8565C29.5317 25.8593 29.5453 25.8607 29.5589 25.8607C29.6261 25.8607 29.6918 25.8267 29.7293 25.765L30.5259 24.4561C30.5535 24.411 30.5619 24.3568 30.5493 24.3054C30.5367 24.2541 30.5044 24.2098 30.4593 24.1823L30.1757 24.0097L30.0056 23.9061L29.892 23.837C29.8598 23.8173 29.824 23.8081 29.7888 23.8081C29.7216 23.8081 29.656 23.8421 29.6185 23.9038L28.9616 24.983V21.2588V20.9932V19.6658C28.9616 19.1167 28.5148 18.6699 27.9657 18.6699C27.4166 18.6699 26.9698 19.1167 26.9698 19.6658V19.9998C26.9476 19.9985 26.9255 19.9978 26.9035 19.9978C26.2756 19.9978 25.7535 20.4587 25.6577 21.06H25.4864C25.4236 20.5371 25.2436 18.9812 25.2436 18.3379C25.2436 17.4079 24.592 17.0765 23.9822 17.0765C23.5306 17.0765 23.2392 17.2487 23.1143 17.3421H23.1077C23.115 17.3213 23.119 17.299 23.119 17.2757V17.0102C23.119 16.9002 23.0299 16.811 22.9199 16.811H22.8535V16.7447C22.8531 16.6349 22.7639 16.5457 22.654 16.5457ZM20.9578 27.3001C21.0088 27.2103 21.0533 27.1218 21.0915 27.0347C21.2575 27.2575 21.4964 27.4159 21.7507 27.5414L21.5763 27.7554C21.5429 27.7964 21.5272 27.8489 21.5325 27.9015C21.5379 27.9541 21.5638 28.0023 21.6048 28.0356L21.656 28.0774L21.3011 28.5126C21.2809 28.5027 21.2589 28.4963 21.236 28.4937C21.2287 28.4928 21.2212 28.4925 21.214 28.4925C21.1941 28.4925 21.1746 28.4955 21.1557 28.5012C21.1648 28.4011 21.1411 28.3006 21.0853 28.2141C21.0786 28.2037 21.0714 28.1935 21.0638 28.1837C21.0992 28.0413 21.1088 27.8896 21.0913 27.7379C21.0733 27.5822 21.0277 27.4331 20.9578 27.3001ZM26.398 27.4428C26.5735 27.3406 26.7438 27.211 26.873 27.0369C26.9747 27.2691 27.1084 27.4803 27.235 27.6527C27.2365 27.7637 27.2517 27.8778 27.281 27.9991L26.9786 28.4958C26.9612 28.499 26.944 28.5047 26.9277 28.5126L26.5729 28.0774L26.6241 28.0356C26.665 28.0022 26.691 27.954 26.6964 27.9015C26.7017 27.849 26.686 27.7964 26.6526 27.7554L26.398 27.4428ZM22.554 28.7512C22.6119 28.7512 22.6691 28.7262 22.7086 28.6779L23.0445 28.2658L22.1354 30.084C22.133 30.0794 22.1303 30.0749 22.1274 30.0704L21.917 29.7448L22.0018 29.6769C22.0431 29.6439 22.0696 29.5959 22.0754 29.5433C22.0813 29.4909 22.066 29.4381 22.033 29.397L21.9076 29.24L22.3769 28.6643L22.4286 28.7063C22.4652 28.7367 22.5098 28.7512 22.554 28.7512ZM27.6422 28.9381L27.6855 28.8668C27.7236 28.9229 27.7639 28.9787 27.8063 29.0344C27.81 29.0512 27.8139 29.0678 27.8182 29.0845C27.8094 29.0736 27.7992 29.0636 27.7879 29.0545L27.6422 28.9381Z" fill="#FFAA5A"/>
</svg>
