<svg width="48" height="48" viewBox="0 0 48 48" fill="none" xmlns="http://www.w3.org/2000/svg">
<path d="M46.3447 9.93079H1.65512V38.0689H46.3447V9.93079Z" fill="#C8414B"/>
<path d="M47.1723 8.276H0.827623C0.370593 8.276 0 8.6465 0 9.10353V38.8966C0 39.3536 0.370593 39.7242 0.827623 39.7242H47.1724C47.6294 39.7242 48 39.3536 48 38.8966V9.10353C47.9999 8.6465 47.6293 8.276 47.1723 8.276ZM46.3448 38.069H1.65515V9.93115H46.3448V38.069Z" fill="#E6B432"/>
<path d="M30.7902 30.4502C31.4857 30.4502 32.0495 29.8864 32.0495 29.1909C32.0495 28.4953 31.4857 27.9315 30.7902 27.9315C30.0947 27.9315 29.5309 28.4953 29.5309 29.1909C29.5309 29.8864 30.0947 30.4502 30.7902 30.4502Z" fill="#41479B"/>
<path d="M33.0002 21.9601C32.0734 22.7393 31.45 22.7721 31.45 22.7721C33.0987 22.0995 32.9264 20.82 32.9264 20.82C32.1473 21.8453 31.3516 22.1323 31.3516 22.1323C33.0085 21.0086 32.746 19.4995 32.746 19.4995C32.2046 20.697 31.5198 21.1645 31.5198 21.1645C32.8977 19.3313 32.221 18.1502 32.221 18.1502C31.6797 19.848 31.2245 20.3402 31.2245 20.3402C32.2826 17.5105 31.3763 16.6944 31.3763 16.6944C31.3763 18.2117 30.8103 19.0811 30.8103 19.0811C31.4009 17.0799 30.474 15.9315 30.474 15.9315C30.474 15.9315 30.4653 17.5631 30.1511 18.4178C30.0757 18.3032 30.0311 18.3184 30.0311 18.3184C29.8713 19.3664 29.3081 20.1042 29.0649 20.3818C29.0109 20.1206 28.8485 20.0407 28.8485 20.0407C28.8485 20.0407 28.8192 20.2971 28.5892 20.6753C28.4384 20.923 27.7263 21.5008 27.6115 22.0093C27.5194 22.417 27.9232 22.7557 28.0543 22.8377C28.1856 22.9197 28.325 23.0674 28.2675 23.3051C28.2101 23.543 27.7836 23.5183 27.4801 23.5102C27.1767 23.502 27.1357 24.0023 26.7993 23.9859L26.7423 24.3591L26.6106 24.3879C26.6106 24.3879 25.2327 27.1337 25.1154 28.068L24.1007 28.2018L23.0861 28.068C22.9688 27.1337 21.5908 24.3879 21.5908 24.3879L21.4591 24.3591L21.4021 23.9859C21.0659 24.0024 21.0249 23.502 20.7213 23.5102C20.4178 23.5183 19.9913 23.543 19.9339 23.3051C19.8765 23.0673 20.0159 22.9195 20.1471 22.8377C20.2784 22.7557 20.6821 22.4169 20.59 22.0093C20.4751 21.5007 19.763 20.923 19.6123 20.6753C19.3822 20.2972 19.3529 20.0407 19.3529 20.0407C19.3529 20.0407 19.1906 20.1206 19.1366 20.3818C18.8935 20.104 18.3302 19.3664 18.1705 18.3184C18.1705 18.3184 18.1259 18.3033 18.0505 18.4178C17.7362 17.563 17.7275 15.9315 17.7275 15.9315C17.7275 15.9315 16.8007 17.0798 17.3912 19.0811C17.3912 19.0811 16.8253 18.2118 16.8253 16.6944C16.8253 16.6944 15.919 17.5105 16.977 20.3402C16.977 20.3402 16.5219 19.8481 15.9805 18.1502C15.9805 18.1502 15.3038 19.3313 16.6817 21.1645C16.6817 21.1645 15.9969 20.697 15.4556 19.4995C15.4556 19.4995 15.1932 21.0086 16.8499 22.1323C16.8499 22.1323 16.0543 21.8453 15.2751 20.82C15.2751 20.82 15.1029 22.0996 16.7515 22.7721C16.7515 22.7721 16.1281 22.7393 15.2013 21.9601C15.2013 21.9601 15.0373 23.092 17.1862 23.6743C17.1862 23.6743 16.3085 23.6579 15.4145 23.0591C15.4145 23.0591 15.3899 24.1746 17.2272 24.3961C17.2272 24.3961 16.6202 24.4863 15.9394 24.2403C15.9394 24.2403 15.9641 25.1424 17.5635 25.2573C17.5635 25.2573 16.9319 25.3065 16.5218 25.2081C16.5218 25.2081 16.5628 26.1349 17.826 25.9791C17.826 25.9791 17.3994 26.1185 17.26 26.1594C17.26 26.1594 17.2846 26.9161 18.601 26.6454C18.601 26.6454 18.3672 26.791 18.0473 26.8403C18.0473 26.8403 18.3179 27.4718 19.4171 27.1929L19.1915 27.439C19.1915 27.439 20.0404 27.9311 20.6924 27.2544L20.4586 27.6728C20.4586 27.6728 21.0123 27.8819 21.3568 27.3406C21.3568 27.3406 21.2624 28.1526 20.1141 28.3003C20.1141 28.3003 20.1551 28.4725 20.2043 28.5382C20.2043 28.5382 20.1304 28.6776 19.4661 28.7924C19.4661 28.7924 19.6055 29.0056 19.7532 29.0713C19.7532 29.0713 19.4661 29.3174 19.3103 29.3665C19.3103 29.3665 19.5564 29.4895 19.7122 29.5142C19.7122 29.5142 19.3678 29.8505 18.9412 29.8586C18.5146 29.8668 17.752 29.8176 17.752 29.8176C17.752 29.8176 17.7438 29.4075 17.547 29.0547C17.3501 28.702 17.2845 28.6754 17.2845 28.6754C17.2845 28.6754 17.3276 28.3925 17.2046 28.2756C17.0816 28.1587 17.0139 28.1033 17.0139 28.1033C17.0139 28.1033 17.0795 27.5374 16.899 27.1847C16.7187 26.832 16.0788 26.061 16.046 25.4869C16.0132 24.9128 16.0379 24.6995 16.0379 24.6995L15.841 24.7487L15.7097 24.478L15.9312 24.4534L15.841 24.0433L15.5374 24.1582L15.4964 23.8055L15.1355 23.9531L15.3159 24.273L14.996 24.3632L15.1847 24.7404L15.4308 24.5846L15.4965 24.9127C15.4965 24.9127 15.3488 24.9455 15.2668 25.0767C15.2668 25.0767 15.6726 25.3461 15.7917 25.6674C15.9804 26.1759 15.9229 27.3242 16.1936 27.6686C16.4642 28.0131 16.6775 28.2509 16.6775 28.2509C16.6775 28.2509 16.6017 28.4847 16.6877 28.6138C16.7739 28.743 16.8969 28.7799 16.8969 28.7799C16.8969 28.7799 16.823 29.3029 17.0138 29.6473C17.2045 29.9918 17.3152 30.078 17.3152 30.078C17.3152 30.078 16.62 30.5024 17.1122 30.9946C17.1122 30.9946 17.0466 31.4416 17.5141 31.5483C17.5141 31.5483 17.5388 31.901 17.9407 31.86C17.9407 31.86 18.1376 31.8026 18.1868 31.9011C18.236 31.9994 18.1868 32.5654 18.1868 32.5654C18.1868 32.5654 18.3672 32.549 18.482 32.467L18.8429 32.6474L18.851 32.2455L19.3021 32.0651C19.3021 32.0651 19.1053 32.0979 18.7034 31.7207C18.7034 31.7207 18.769 31.6796 18.8182 31.3598C18.8182 31.3598 19.1381 31.1055 19.2038 30.9005C19.2694 30.6954 19.7205 30.2443 20.2454 30.0967L20.3173 30.4165C20.3173 30.4165 21.0678 29.7522 21.3814 29.7153L21.6398 30.0556C21.6398 30.0556 22.6077 28.6203 23.0341 28.3659C23.0013 28.4808 23.2392 28.4972 22.7101 29.0877C22.1811 29.6783 22.5091 30.1458 22.5091 30.1458C22.1811 30.4164 22.2467 30.6625 22.2056 30.9414C22.1646 31.2203 21.0736 31.9421 21.0736 31.9421C21.4181 32.3768 21.8037 32.2784 21.8037 32.2784C21.5904 32.4178 21.656 32.8853 21.656 32.8853C21.9677 32.9674 22.2793 32.828 22.2793 32.828C22.1727 33.1232 22.3367 33.3282 22.3367 33.3282C22.5336 33.2052 22.9847 33.1313 22.9847 33.1313C22.9273 33.6399 23.2554 33.9105 23.2554 33.9105L23.5424 33.5988C23.5917 34.1729 24.1003 34.501 24.1003 34.501C24.1003 34.501 24.6088 34.1729 24.6581 33.5988L24.9451 33.9105C24.9451 33.9105 25.2732 33.6398 25.2158 33.1313C25.2158 33.1313 25.6669 33.2052 25.8638 33.3282C25.8638 33.3282 26.0278 33.1232 25.9212 32.828C25.9212 32.828 26.2329 32.9674 26.5445 32.8853C26.5445 32.8853 26.6101 32.4178 26.3968 32.2784C26.3968 32.2784 26.7824 32.3768 27.1269 31.9421C27.1269 31.9421 26.036 31.2203 25.9949 30.9414C25.954 30.6625 26.0196 30.4165 25.6914 30.1458C25.6914 30.1458 26.0194 29.6783 25.4904 29.0877C24.9613 28.4971 25.1992 28.4807 25.1664 28.3659C25.5929 28.6202 26.5607 30.0556 26.5607 30.0556L26.8191 29.7153C27.1329 29.7522 27.8832 30.4165 27.8832 30.4165L27.9551 30.0967L27.9687 30.0818C28.36 30.2926 29.0063 30.5776 29.2675 30.7773C29.5464 30.9906 29.7761 31.007 30.4485 30.7773C31.1212 30.5476 32.3725 30.1944 32.1874 29.7766C32.1773 29.7538 32.1658 29.7385 32.1548 29.7207C32.1841 29.6128 32.1962 29.4245 31.9987 29.2598C31.9987 29.2598 32.001 29.3057 31.9994 29.3646L31.3583 29.1256C31.3371 29.0689 31.3054 29.0133 31.2442 28.9646C31.2442 28.9646 31.2451 29.0138 31.2363 29.0802L31.0719 29.0189L31.4001 28.0956C31.3752 28.0817 31.3473 28.0739 31.3215 28.0617C31.3282 27.9781 31.3439 27.8625 31.3684 27.7417C31.4485 27.7697 31.5218 27.8043 31.5748 27.8477L31.6675 27.5096C31.6675 27.5096 31.5678 27.5031 31.4365 27.4785C31.4696 27.3765 31.509 27.2849 31.5558 27.2258L31.1211 27.0945C31.1211 27.0945 31.1323 27.2262 31.1246 27.3906C31.0417 27.3569 30.9626 27.3142 30.8986 27.2594L30.7967 27.6346C30.8317 27.6367 30.9504 27.6469 31.0879 27.6714C31.0631 27.7816 31.0193 27.8793 30.9566 27.9526C30.9411 27.9505 30.9267 27.9449 30.911 27.9434L30.5922 28.8401L29.7279 28.518C29.6908 28.5763 29.6622 28.6399 29.6355 28.7042C29.6401 28.6948 29.6442 28.6802 29.6491 28.6743C29.6491 28.6743 29.3147 28.8492 29.3193 29.1062C29.2577 29.1295 29.2037 29.1758 29.1732 29.2559C29.0749 29.5143 29.6776 30.0925 29.5301 30.1663C29.3851 30.2387 28.6279 29.6151 28.5065 29.5104C28.6626 29.4801 28.8903 29.3666 28.8903 29.3666C28.7344 29.3174 28.4474 29.0714 28.4474 29.0714C28.5951 29.0058 28.7345 28.7925 28.7345 28.7925C28.0702 28.6777 27.9963 28.5383 27.9963 28.5383C28.0455 28.4726 28.0865 28.3004 28.0865 28.3004C26.9382 28.1528 26.8438 27.3407 26.8438 27.3407C27.1883 27.882 27.742 27.6729 27.742 27.6729L27.5082 27.2545C28.1602 27.9312 29.0091 27.4391 29.0091 27.4391L28.7835 27.193C29.8826 27.4719 30.1533 26.8404 30.1533 26.8404C29.8334 26.7911 29.5996 26.6455 29.5996 26.6455C30.9161 26.9162 30.9406 26.1595 30.9406 26.1595C30.8012 26.1185 30.3746 25.9792 30.3746 25.9792C31.6377 26.1351 31.6788 25.2082 31.6788 25.2082C31.2687 25.3065 30.6371 25.2574 30.6371 25.2574C32.2365 25.1425 32.2612 24.2404 32.2612 24.2404C31.5804 24.4865 30.9734 24.3962 30.9734 24.3962C32.8106 24.1748 32.7861 23.0592 32.7861 23.0592C31.8921 23.658 31.0144 23.6744 31.0144 23.6744C33.1643 23.0919 33.0002 21.9601 33.0002 21.9601ZM31.1363 30.074C31.0486 29.9317 31.2575 29.8043 31.3515 29.6689L31.7151 29.8043C31.5916 29.9515 31.2266 30.2207 31.1363 30.074ZM30.8934 29.4982C30.7754 29.6809 30.6934 29.8858 30.3304 29.8956C29.8752 29.9078 29.8014 29.5018 29.703 29.2804C29.6743 29.2158 29.6248 29.167 29.568 29.1336C29.5678 29.0938 29.5699 29.0502 29.5734 29.0062L30.8934 29.4982Z" fill="#E6B432"/>
<path d="M23.9658 20.8325C23.9658 20.8325 23.3815 20.3343 23.2092 20.0636C23.2092 20.0636 23.406 19.9836 23.5044 19.8606C23.5044 19.8606 22.9754 19.5777 22.6924 19.2886C22.6924 19.2886 22.877 19.2578 23.0185 19.1409C23.0185 19.1409 22.5434 19.055 22.3024 18.666C22.8517 18.4784 22.6679 17.9659 22.6679 17.9659C22.5571 18.1136 22.1019 18.2981 21.6098 18.0889C21.1177 17.8798 20.5764 18.0273 20.5764 18.2981C20.5764 18.2981 19.4691 17.9782 19.746 19.0487C19.746 19.0487 19.9243 18.6488 20.318 18.7965C20.7118 18.9441 21.1116 19.4485 21.1116 19.4485C21.1116 19.4485 20.8655 19.5838 20.4104 19.4362C20.4104 19.4362 20.595 20.1436 21.4254 19.7868C21.4254 19.7868 21.7534 19.9632 21.7698 20.4799C21.7698 20.4799 21.9092 20.4061 21.9995 20.2421C21.9995 20.2421 22.1308 20.7423 21.9585 21.1525C21.9585 21.1525 22.1882 21.1115 22.2621 21.0377C22.2621 21.0377 22.3277 21.4724 22.0407 21.8251C22.0407 21.8251 23.3017 22.4259 24.1015 21.7677C24.1015 21.7677 23.8001 21.4232 23.7016 21.1034C23.7013 21.1032 23.8673 21.0355 23.9658 20.8325Z" fill="#E6B432"/>
<path d="M27.6258 18.2981C27.6258 18.0274 27.0845 17.8798 26.5924 18.0889C26.1003 18.2981 25.6451 18.1136 25.5344 17.9659C25.5344 17.9659 25.3504 18.4784 25.8998 18.666C25.6589 19.055 25.1837 19.1409 25.1837 19.1409C25.3253 19.2578 25.5098 19.2886 25.5098 19.2886C25.2269 19.5777 24.6978 19.8606 24.6978 19.8606C24.7962 19.9836 24.9931 20.0636 24.9931 20.0636C24.8208 20.3343 24.2364 20.8325 24.2364 20.8325C24.3347 21.0355 24.501 21.1032 24.501 21.1032C24.4026 21.4231 24.1011 21.7675 24.1011 21.7675C24.9008 22.4257 26.1619 21.8249 26.1619 21.8249C25.8749 21.4722 25.9405 21.0375 25.9405 21.0375C26.0144 21.1113 26.2441 21.1523 26.2441 21.1523C26.0718 20.7423 26.2031 20.2419 26.2031 20.2419C26.2933 20.406 26.4328 20.4798 26.4328 20.4798C26.4492 19.963 26.7772 19.7867 26.7772 19.7867C27.6077 20.1435 27.7923 19.436 27.7923 19.436C27.3371 19.5837 27.091 19.4483 27.091 19.4483C27.091 19.4483 27.4908 18.9439 27.8846 18.7963C28.2783 18.6486 28.4567 19.0485 28.4567 19.0485C28.733 17.9782 27.6258 18.2981 27.6258 18.2981Z" fill="#E6B432"/>
<path d="M27.1246 24.8328C27.0166 24.2041 26.9235 23.6611 27.1947 23.039L27.2454 22.9228L26.1713 21.6895L26.0443 21.7317C26.0334 21.7355 24.9107 22.1025 24.191 21.7425L24.1012 21.6976L24.0114 21.7425C23.295 22.1015 22.1694 21.7355 22.1578 21.7315L22.0308 21.6896L20.9569 22.9228L21.0075 23.039C21.2788 23.6611 21.1857 24.2041 21.0777 24.8328C20.9759 25.4264 20.8605 26.0993 21.0636 26.9199C21.284 27.8107 22.0262 28.1273 22.6808 28.4071C23.1854 28.6224 23.662 28.8259 23.9314 29.2529L24.1011 29.522L24.2708 29.2529C24.5402 28.8259 25.0167 28.6225 25.5214 28.4071C26.1761 28.1274 26.9182 27.8108 27.1386 26.9199C27.3417 26.0993 27.2262 25.4263 27.1246 24.8328ZM21.424 22.9975L22.1611 22.1513C22.4951 22.243 23.3977 22.4416 24.1011 22.143C24.8044 22.4417 25.707 22.243 26.0411 22.1513L26.7782 22.9975C26.5194 23.6793 26.6213 24.2736 26.7289 24.9007C26.8094 25.3705 26.8896 25.8546 26.8223 26.412H21.3799C21.3127 25.8546 21.3928 25.3705 21.4733 24.9007C21.5809 24.2736 21.6828 23.6792 21.424 22.9975ZM25.3639 28.0379C24.9077 28.2327 24.4383 28.433 24.1011 28.8131C23.7639 28.433 23.2945 28.2327 22.8383 28.0379C22.1982 27.7646 21.6459 27.5257 21.4637 26.855H26.7383C26.5563 27.5257 26.004 27.7647 25.3639 28.0379Z" fill="#E6B432"/>
<path d="M21.4237 22.9977L22.1608 22.1514C22.4948 22.2432 23.3974 22.4418 24.1008 22.1432C24.8041 22.4419 25.7067 22.2431 26.0408 22.1514L26.7779 22.9977C26.5191 23.6795 26.621 24.2737 26.7286 24.9008C26.8091 25.3707 26.8893 25.8547 26.822 26.4122H21.3796C21.3124 25.8547 21.3926 25.3707 21.473 24.9008C21.5806 24.2737 21.6825 23.6794 21.4237 22.9977Z" fill="#41479B"/>
<path d="M21.4355 26.7379C21.4418 26.7666 21.4458 26.7943 21.4531 26.8235C21.6255 27.5202 22.1876 27.7601 22.8384 28.0379C23.2946 28.2327 23.764 28.4329 24.1012 28.8131C24.4384 28.4329 24.9078 28.2327 25.364 28.0379C26.0148 27.76 26.5769 27.5201 26.7493 26.8235C26.7565 26.7944 26.7605 26.7666 26.7669 26.7379H21.4355Z" fill="#73AF00"/>
<path d="M26.5086 24.4117C26.5086 24.0488 26.1637 23.9916 25.8502 23.9978C25.5366 24.004 25.078 23.9468 25.0664 23.703C25.0592 23.551 25.3142 23.5369 25.4803 23.5901C25.5767 23.6211 26.1763 23.7281 26.3645 23.3268C26.3645 23.3268 26.1452 23.3338 25.9137 23.2819C25.7354 23.2419 25.0037 23.333 24.872 23.6152C24.7402 23.8974 25.1649 24.179 25.654 24.179C26.1431 24.179 26.2102 24.2769 26.2064 24.3961C26.2013 24.5528 25.8135 24.5972 25.5906 24.5951C25.2396 24.4677 24.4208 24.5675 24.4169 24.552C24.4122 24.5331 24.228 24.2168 24.228 24.2168C24.228 24.2168 24.5632 24.1932 24.6057 24.1318C24.6482 24.0705 24.3514 23.8347 24.3514 23.8347C24.3514 23.8347 24.601 23.7352 24.6105 23.6644C24.6208 23.5865 24.4078 23.4021 24.4078 23.4021C24.4078 23.4021 24.4901 23.321 24.552 23.1825C24.5962 23.0836 24.2448 23.0572 24.2448 23.0572C24.2636 22.982 24.2564 22.909 24.1632 22.8753C24.0912 22.8493 23.8246 22.9505 23.6428 22.9505C23.461 22.9505 23.3919 23.0822 23.3919 23.0822C23.3919 23.0822 23.0722 23.1199 23.0282 23.1574C22.9843 23.1951 23.0407 23.4396 23.0407 23.4396C22.8777 23.4145 22.8025 23.2703 22.8025 23.2703C22.721 23.6402 23.1036 23.6779 23.1036 23.6779L23.1663 23.8786C23.1663 23.8786 23.1663 23.8786 23.323 23.8974C23.4798 23.9163 23.4046 24.0668 23.16 24.0668C22.9154 24.0668 22.8116 24.3585 22.8116 24.3585C22.6417 24.3633 22.5472 24.2263 22.5095 24.0516C22.4678 23.8593 22.4924 23.5638 22.5236 23.3765C22.5614 23.1498 22.4481 23.0837 22.4481 23.0837L22.3725 23.2726C22.3678 23.079 22.1977 23.0602 22.1977 23.0602L22.1694 23.2962C22.0844 23.1404 21.9382 23.2112 21.9382 23.2112C21.9382 23.2112 22.0798 23.7211 22.0751 23.7494C22.0703 23.7777 22.0232 23.8014 21.9571 23.7305C21.891 23.6596 21.8438 23.7069 21.8438 23.7069C21.9147 24.2168 22.1881 24.1419 22.1881 24.1419C22.1881 24.1419 22.2003 24.3017 22.2829 24.626C22.371 24.9722 22.7336 24.907 22.7336 24.907C22.7336 25.0199 22.8215 25.1829 22.8465 25.5592C22.8715 25.9354 22.5267 26.1988 22.5267 26.1988C22.2131 26.1925 22.2445 26.4998 22.2445 26.4998H23.1098C23.1098 25.6997 23.4538 25.5625 23.4538 25.5625C23.9637 25.5862 24.4548 25.3736 24.4548 25.3736C24.3792 25.6806 24.5115 25.808 24.5115 25.808C24.7192 25.7797 24.6154 26.1904 24.554 26.1904C24.4926 26.1904 24.3651 26.1904 24.2896 26.1904C24.2141 26.1904 23.9968 26.4264 23.9968 26.4264H24.8939C24.8939 26.4264 25.0309 26.2282 25.078 26.1291C25.1252 26.0299 24.9741 25.893 24.9648 25.7891C24.9554 25.6853 25.1206 25.6192 25.1206 25.6192C25.2953 25.8646 25.6966 25.8788 25.6966 25.8788L25.6872 25.6947C25.6872 25.6947 25.895 25.7656 25.9422 25.8269C25.9894 25.8882 25.98 26.1716 25.7298 26.2046C25.4796 26.2376 25.4606 26.4171 25.4606 26.4171C25.4606 26.4171 26.0319 26.4171 26.1453 26.4171C26.2586 26.4171 26.3482 26.2046 26.3482 26.1243C26.3482 26.044 26.3482 25.52 26.3482 25.4065C26.3482 25.2933 26.2538 25.3074 26.0319 25.2837C25.8304 25.2623 25.8497 25.0418 25.7666 24.7857C26.058 24.776 26.5086 24.7122 26.5086 24.4117Z" fill="#E6B432"/>
<path d="M26.4558 15.8316C26.3996 15.3365 26.0049 14.706 24.5017 14.4105C24.4967 14.2508 24.3984 14.1154 24.2579 14.0584V13.7825H24.504V13.4873H24.2579V13.2413H23.9627V13.4874H23.7166V13.7826H23.9627V14.0585C23.8223 14.1155 23.7239 14.2509 23.7189 14.4106C22.2157 14.7062 21.821 15.3366 21.7648 15.8317C21.6948 16.449 22.1369 17.0344 22.5355 17.2587V17.572H25.6852V17.2587C26.0837 17.0344 26.5257 16.4489 26.4558 15.8316ZM24.8069 16.7845H24.3661V14.9687C24.7295 15.1329 24.9543 15.3846 25.0197 15.7303C25.1012 16.1608 24.9291 16.5998 24.8069 16.7845ZM23.2008 15.73C23.2662 15.3843 23.4909 15.1327 23.8544 14.9686V16.7845H23.4135C23.2912 16.5998 23.1191 16.1606 23.2008 15.73ZM22.8364 15.2315C22.764 15.3765 22.7178 15.5215 22.6943 15.6548C22.623 16.0581 22.7047 16.468 22.8397 16.7845H22.7363C22.5154 16.6325 22.2316 16.2584 22.2735 15.8893C22.3027 15.631 22.4985 15.4095 22.8364 15.2315ZM25.4843 16.7845H25.3807C25.5157 16.4681 25.5974 16.0583 25.5263 15.655C25.5026 15.5217 25.4565 15.3765 25.384 15.2314C25.722 15.4094 25.9178 15.6311 25.947 15.8892C25.9889 16.2584 25.7051 16.6325 25.4843 16.7845Z" fill="#E6B432"/>
</svg>
