<svg width="48" height="48" viewBox="0 0 48 48" fill="none" xmlns="http://www.w3.org/2000/svg">
<path d="M47.1723 39.7241H0.827623C0.370593 39.7241 0 39.3535 0 38.8965V9.10347C0 8.64644 0.370593 8.27585 0.827623 8.27585H47.1724C47.6294 8.27585 48 8.64644 48 9.10347V38.8965C47.9999 39.3536 47.6293 39.7241 47.1723 39.7241Z" fill="#41479B"/>
<path d="M0.372937 39.5698L47.9999 19.8621V14.069L0 38.8966C0 39.1819 0.153281 39.421 0.372937 39.5698Z" fill="white"/>
<path d="M47.6866 8.47049L0 38.069V38.8966L47.9999 14.069V9.10349C47.9999 8.84408 47.8733 8.62227 47.6866 8.47049Z" fill="#FF9B55"/>
<path d="M13.6785 19.7034L19.0345 19.0345L13.6785 18.3657L16.393 16.7008L13.0155 17.5266L15.071 14.7222L12.2667 16.7777L13.0924 13.4002L11.4276 16.1148L10.7587 10.7587L10.0898 16.1148L8.42492 13.4002L9.25076 16.7777L6.44633 14.7222L8.50188 17.5266L5.12436 16.7008L7.83889 18.3657L2.48286 19.0345L7.83889 19.7034L5.12436 21.3683L8.50188 20.5425L6.44633 23.3469L9.25076 21.2913L8.42492 24.6689L10.0898 21.9543L10.7587 27.3104L11.4276 21.9543L13.0924 24.6689L12.2667 21.2913L15.071 23.3469L13.0155 20.5425L16.393 21.3683L13.6785 19.7034Z" fill="white"/>
</svg>
