<svg width="48" height="48" viewBox="0 0 48 48" fill="none" xmlns="http://www.w3.org/2000/svg">
<path d="M0 29.2413H47.9999V38.8964C47.9999 39.3535 47.6293 39.7241 47.1723 39.7241H0.827623C0.370593 39.7241 0 39.3535 0 38.8964V29.2413Z" fill="#FF4B55"/>
<path d="M0.827623 8.27588H47.1724C47.6294 8.27588 48 8.64647 48 9.1035V18.7586H0V9.10341C0 8.64638 0.370593 8.27588 0.827623 8.27588Z" fill="#FFE15A"/>
<path d="M47.9999 18.7584H0V29.2406H47.9999V18.7584Z" fill="#73AF00"/>
<path d="M24.4716 13.5898L26.9499 21.0207L34.7829 21.0815C35.2608 21.0852 35.4588 21.6949 35.0746 21.9788L28.7733 26.632L31.136 34.1004C31.2801 34.5561 30.7614 34.9328 30.3727 34.6551L23.9999 30.1L17.6272 34.6551C17.2384 34.9329 16.7198 34.5561 16.8639 34.1004L19.2266 26.632L12.9253 21.9788C12.541 21.6949 12.739 21.085 13.217 21.0815L21.05 21.0207L23.5282 13.5898C23.6793 13.1366 24.3205 13.1366 24.4716 13.5898Z" fill="white"/>
</svg>
