<svg width="48" height="48" viewBox="0 0 48 48" fill="none" xmlns="http://www.w3.org/2000/svg">
<path d="M47.1723 39.7242H0.827623C0.370593 39.7242 0 39.3536 0 38.8965V9.10359C0 8.64656 0.370593 8.27597 0.827623 8.27597H47.1724C47.6294 8.27597 48 8.64656 48 9.10359V38.8965C47.9999 39.3537 47.6293 39.7242 47.1723 39.7242Z" fill="#4173CD"/>
<path d="M23.9998 35.9999C17.3833 35.9999 11.9999 30.6166 11.9999 23.9999C11.9999 17.3833 17.3832 12 23.9998 12C30.6165 12 35.9998 17.3833 35.9998 23.9999C35.9998 30.6166 30.6165 35.9999 23.9998 35.9999ZM23.9998 14.4827C18.7518 14.4827 14.4826 18.752 14.4826 23.9999C14.4826 29.2479 18.7519 33.5171 23.9998 33.5171C29.2478 33.5171 33.517 29.2479 33.517 23.9999C33.517 18.752 29.2479 14.4827 23.9998 14.4827Z" fill="white"/>
<path d="M23.9997 35.1722C17.8393 35.1722 12.8274 30.1602 12.8274 23.9998C12.8274 17.8394 17.8393 12.8275 23.9997 12.8275C30.1601 12.8275 35.1722 17.8394 35.1722 23.9998C35.1722 30.1602 30.1602 35.1722 23.9997 35.1722ZM23.9997 13.655C18.2955 13.655 13.6549 18.2955 13.6549 23.9998C13.6549 29.7041 18.2954 34.3447 23.9997 34.3447C29.704 34.3447 34.3446 29.704 34.3446 23.9998C34.3446 18.2956 29.704 13.655 23.9997 13.655Z" fill="#FFDC00"/>
<path d="M13.2411 24.8275C13.6982 24.8275 14.0688 24.4569 14.0688 23.9998C14.0688 23.5428 13.6982 23.1722 13.2411 23.1722C12.784 23.1722 12.4135 23.5428 12.4135 23.9998C12.4135 24.4569 12.784 24.8275 13.2411 24.8275Z" fill="#FFDC00"/>
<path d="M34.7586 24.8275C35.2157 24.8275 35.5862 24.4569 35.5862 23.9998C35.5862 23.5428 35.2157 23.1722 34.7586 23.1722C34.3015 23.1722 33.931 23.5428 33.931 23.9998C33.931 24.4569 34.3015 24.8275 34.7586 24.8275Z" fill="#FFDC00"/>
<path d="M24.0001 14.0687C24.4571 14.0687 24.8277 13.6982 24.8277 13.2411C24.8277 12.784 24.4571 12.4135 24.0001 12.4135C23.543 12.4135 23.1724 12.784 23.1724 13.2411C23.1724 13.6982 23.543 14.0687 24.0001 14.0687Z" fill="#FFDC00"/>
<path d="M16.3922 17.2196C16.8493 17.2196 17.2198 16.849 17.2198 16.392C17.2198 15.9349 16.8493 15.5643 16.3922 15.5643C15.9351 15.5643 15.5646 15.9349 15.5646 16.392C15.5646 16.849 15.9351 17.2196 16.3922 17.2196Z" fill="#FFDC00"/>
<path d="M31.6075 17.2196C32.0646 17.2196 32.4351 16.849 32.4351 16.392C32.4351 15.9349 32.0646 15.5643 31.6075 15.5643C31.1504 15.5643 30.7799 15.9349 30.7799 16.392C30.7799 16.849 31.1504 17.2196 31.6075 17.2196Z" fill="#FFDC00"/>
<path d="M33.9394 20.7099C34.3965 20.7099 34.767 20.3394 34.767 19.8823C34.767 19.4252 34.3965 19.0547 33.9394 19.0547C33.4823 19.0547 33.1118 19.4252 33.1118 19.8823C33.1118 20.3394 33.4823 20.7099 33.9394 20.7099Z" fill="#FFDC00"/>
<path d="M19.8825 14.8881C20.3396 14.8881 20.7101 14.5176 20.7101 14.0605C20.7101 13.6034 20.3396 13.2329 19.8825 13.2329C19.4254 13.2329 19.0549 13.6034 19.0549 14.0605C19.0549 14.5176 19.4254 14.8881 19.8825 14.8881Z" fill="#FFDC00"/>
<path d="M14.0603 20.7099C14.5174 20.7099 14.8879 20.3394 14.8879 19.8823C14.8879 19.4252 14.5174 19.0547 14.0603 19.0547C13.6032 19.0547 13.2327 19.4252 13.2327 19.8823C13.2327 20.3394 13.6032 20.7099 14.0603 20.7099Z" fill="#FFDC00"/>
<path d="M28.1172 14.8881C28.5743 14.8881 28.9448 14.5176 28.9448 14.0605C28.9448 13.6034 28.5743 13.2329 28.1172 13.2329C27.6601 13.2329 27.2896 13.6034 27.2896 14.0605C27.2896 14.5176 27.6601 14.8881 28.1172 14.8881Z" fill="#FFDC00"/>
<path d="M34.5513 22.7283C35.0084 22.7283 35.379 22.3578 35.379 21.9007C35.379 21.4436 35.0084 21.0731 34.5513 21.0731C34.0942 21.0731 33.7237 21.4436 33.7237 21.9007C33.7237 22.3578 34.0942 22.7283 34.5513 22.7283Z" fill="#FFDC00"/>
<path d="M21.9007 14.276C22.3578 14.276 22.7283 13.9054 22.7283 13.4483C22.7283 12.9913 22.3578 12.6207 21.9007 12.6207C21.4436 12.6207 21.0731 12.9913 21.0731 13.4483C21.0731 13.9054 21.4436 14.276 21.9007 14.276Z" fill="#FFDC00"/>
<path d="M15.0544 18.85C15.5115 18.85 15.882 18.4794 15.882 18.0224C15.882 17.5653 15.5115 17.1947 15.0544 17.1947C14.5973 17.1947 14.2268 17.5653 14.2268 18.0224C14.2268 18.4794 14.5973 18.85 15.0544 18.85Z" fill="#FFDC00"/>
<path d="M29.9773 15.8827C30.4344 15.8827 30.805 15.5122 30.805 15.0551C30.805 14.598 30.4344 14.2275 29.9773 14.2275C29.5203 14.2275 29.1497 14.598 29.1497 15.0551C29.1497 15.5122 29.5203 15.8827 29.9773 15.8827Z" fill="#FFDC00"/>
<path d="M32.9446 18.85C33.4017 18.85 33.7722 18.4794 33.7722 18.0224C33.7722 17.5653 33.4017 17.1947 32.9446 17.1947C32.4875 17.1947 32.117 17.5653 32.117 18.0224C32.117 18.4794 32.4875 18.85 32.9446 18.85Z" fill="#FFDC00"/>
<path d="M18.0224 15.8827C18.4795 15.8827 18.85 15.5122 18.85 15.0551C18.85 14.598 18.4795 14.2275 18.0224 14.2275C17.5653 14.2275 17.1947 14.598 17.1947 15.0551C17.1947 15.5122 17.5653 15.8827 18.0224 15.8827Z" fill="#FFDC00"/>
<path d="M13.4483 22.7283C13.9054 22.7283 14.276 22.3578 14.276 21.9007C14.276 21.4436 13.9054 21.0731 13.4483 21.0731C12.9913 21.0731 12.6207 21.4436 12.6207 21.9007C12.6207 22.3578 12.9913 22.7283 13.4483 22.7283Z" fill="#FFDC00"/>
<path d="M26.099 14.276C26.5561 14.276 26.9266 13.9054 26.9266 13.4483C26.9266 12.9913 26.5561 12.6207 26.099 12.6207C25.6419 12.6207 25.2714 12.9913 25.2714 13.4483C25.2714 13.9054 25.6419 14.276 26.099 14.276Z" fill="#FFDC00"/>
<path d="M34.7584 24.4137C34.5296 24.4137 34.3446 24.2286 34.3446 23.9998C34.3446 18.2956 29.704 13.655 23.9997 13.655C18.2954 13.655 13.655 18.2957 13.655 23.9998C13.655 24.2286 13.4699 24.4137 13.2412 24.4137C13.0124 24.4137 12.8274 24.2286 12.8274 23.9998C12.8274 17.8394 17.8393 12.8275 23.9997 12.8275C30.1601 12.8275 35.1722 17.8394 35.1722 23.9998C35.1722 24.2286 34.9871 24.4137 34.7584 24.4137Z" fill="#FFA000"/>
<path d="M26.2994 36.4138H21.7006C20.7179 36.4138 19.9516 35.5627 20.0545 34.5854L21.5172 20.6898H26.4827L27.9454 34.5854C28.0483 35.5627 27.282 36.4138 26.2994 36.4138Z" fill="#B4B4B4"/>
<path d="M26.4594 20.6897H21.5215C21.3039 20.6897 21.1212 20.5258 21.0977 20.3095L20.7893 17.4687C20.7361 16.9792 21.1196 16.5517 21.612 16.5517H26.3881C26.8805 16.5517 27.264 16.979 27.2109 17.4687L26.9045 20.2904C26.8798 20.5175 26.6879 20.6897 26.4594 20.6897Z" fill="#AAAAAA"/>
<path d="M24.1914 17.5157L25.7255 21.9294L30.3972 22.0245C30.5895 22.0285 30.669 22.2728 30.5156 22.3891L26.7921 25.212L28.1452 29.6844C28.2009 29.8685 27.993 30.0195 27.8351 29.9097L23.9998 27.2408L20.1644 29.9097C20.0065 30.0195 19.7986 29.8685 19.8542 29.6844L21.2073 25.212L17.4839 22.3891C17.3306 22.273 17.41 22.0285 17.6023 22.0245L22.2739 21.9294L23.8081 17.5157C23.8712 17.334 24.1282 17.334 24.1914 17.5157Z" fill="white"/>
</svg>
