<svg width="48" height="48" viewBox="0 0 48 48" fill="none" xmlns="http://www.w3.org/2000/svg">
<path d="M47.1723 39.7242H0.827623C0.370593 39.7242 0 39.3536 0 38.8965V9.10359C0 8.64656 0.370593 8.27597 0.827623 8.27597H47.1724C47.6294 8.27597 48 8.64656 48 9.10359V38.8965C47.9999 39.3537 47.6293 39.7242 47.1723 39.7242Z" fill="#41479B"/>
<path d="M47.9999 22.3449H25.6551V8.27597H22.3447V22.3449H0V25.6552H22.3447V39.7242H25.6551V25.6552H47.9999V22.3449Z" fill="white"/>
<path d="M16.1636 19.0426C16.1399 18.9018 16.0865 18.7351 16.019 18.6277C15.8848 18.4423 15.7296 18.3124 15.5792 18.2316C14.3943 17.6873 13.4023 17.794 12.4557 17.7902C11.5208 17.8143 10.6461 17.9756 9.93601 18.131C9.74326 18.1698 9.57629 18.1988 9.39769 18.2324C9.48601 18.0499 9.80973 17.8216 10.2457 17.6833C11.3084 17.3203 12.5215 17.1745 13.7138 16.9422C14.015 16.8832 14.3202 16.8141 14.6328 16.7252C14.8011 16.6676 14.9427 16.6226 15.1409 16.5305C15.268 16.4586 15.3932 16.3682 15.5002 16.2715C15.6142 16.1689 15.6055 16.1402 15.6642 16.0711C15.935 15.5557 15.6786 15.1888 15.4638 14.9972C15.2567 14.8272 15.0822 14.7608 14.9162 14.6925C14.5939 14.5794 14.2953 14.5085 14.0071 14.4484C13.4518 14.3373 12.9059 14.2281 12.3714 14.1212C12.1176 14.0624 11.872 13.9971 11.6566 13.918C11.4664 13.8673 11.1976 13.6793 11.2375 13.7306C10.7464 13.6882 11.9102 13.1404 12.7493 12.8344C12.9724 12.736 13.1941 12.6366 13.4212 12.4964C13.6441 12.3491 13.8737 12.2241 14.1213 11.8116C14.1699 11.726 14.1679 11.7052 14.1934 11.6493L14.2217 11.5781C14.2831 11.3588 14.2493 11.418 14.2636 11.3229C14.2926 11.0928 14.2023 10.8469 14.0594 10.6421C13.7677 10.3269 13.4777 10.2367 13.2622 10.1764C12.3712 9.96523 11.7302 10.023 11.1732 10.0251C10.117 10.0748 9.51338 10.1031 9.51338 10.1031L9.4726 10.105C9.47138 10.1051 9.47026 10.1051 9.46894 10.1052C9.13135 10.125 8.87382 10.4146 8.8936 10.7521C8.89548 10.7851 8.91095 10.8127 8.91779 10.8439C8.43948 10.9758 7.68264 11.1106 6.93386 10.934C6.81986 10.9078 6.71458 10.9763 6.68823 11.0854C6.66198 11.1955 6.73051 11.3055 6.83964 11.3311C7.13383 11.4004 7.42567 11.4276 7.70392 11.4276C8.29501 11.4276 8.79995 11.3073 9.14476 11.2017C9.25594 11.2843 9.39113 11.3363 9.54019 11.3276C9.54019 11.3276 10.1501 11.2919 11.2176 11.2294C11.7173 11.2114 12.389 11.1851 12.9432 11.3153C12.9891 11.3224 13.0136 11.3367 13.044 11.3495C13.0483 11.3004 12.9546 11.4388 12.808 11.5099C12.6658 11.6017 12.4807 11.6897 12.2882 11.777C11.8944 11.9554 11.4439 12.1088 10.9444 12.3776C10.7033 12.5199 10.4051 12.6645 10.1574 13.0874C10.0417 13.2833 9.98672 13.6001 10.0476 13.8234L10.0656 13.9144L10.0758 13.9594L10.0812 13.9817C10.0429 13.9022 10.1395 14.1162 10.1319 14.0969L10.1819 14.1801C10.2263 14.2435 10.2193 14.2698 10.3258 14.3804C10.4112 14.4728 10.5077 14.5613 10.6072 14.6386C10.6943 14.6986 10.7594 14.7269 10.8379 14.7713C10.9925 14.8624 11.1328 14.9046 11.2793 14.9621C11.568 15.0638 11.8492 15.1329 12.1299 15.195C12.6719 15.297 13.2257 15.4011 13.7888 15.5072C14.025 15.5528 14.246 15.6104 14.4502 15.6733C14.1886 15.7676 13.8224 15.8627 13.5066 15.9235C12.3577 16.1659 11.1394 16.3126 9.90029 16.7477C9.59016 16.8658 9.27244 17.0069 8.96091 17.2455C8.66757 17.4677 8.35923 17.9111 8.3987 18.3981C8.2936 18.4128 8.17285 18.4343 8.07573 18.4451C7.02461 18.5842 6.58286 18.3991 6.61136 18.3938C6.47411 18.3128 6.2972 18.3582 6.2162 18.4955C6.13511 18.6327 6.18058 18.8097 6.31783 18.8907C6.31783 18.8907 6.49801 19.013 6.81967 19.0835C7.13973 19.1559 7.59001 19.1891 8.13845 19.1459C8.28948 19.1356 8.46638 19.113 8.63251 19.0954C8.74735 19.261 8.88113 19.4436 9.00573 19.5321C9.29532 19.775 9.60198 19.9304 9.9076 20.0664C11.1379 20.5423 12.3675 20.6422 13.5664 20.5951C14.1682 20.5499 14.7606 20.4796 15.3688 20.2082C15.6524 20.076 16.0416 19.8676 16.1618 19.2651C16.1622 19.188 16.1754 19.1528 16.1636 19.0426ZM15.2788 19.2324C15.2631 19.1433 15.2141 19.3454 14.9844 19.4011C14.5891 19.5748 14.0495 19.6543 13.519 19.6822C12.4493 19.7174 11.2812 19.5925 10.2796 19.1863C10.1222 19.1135 9.99376 19.0219 9.85866 18.9344C9.93291 18.923 9.99732 18.9151 10.0734 18.9031C10.8177 18.7846 11.5935 18.645 12.4846 18.6302C13.3333 18.6147 14.4141 18.6264 15.1317 18.9834C15.2151 19.0283 15.2515 19.0751 15.2791 19.1033C15.2791 19.1033 15.2553 19.0747 15.2818 19.0565C15.2936 19.0747 15.2788 19.1763 15.2788 19.2324Z" fill="white"/>
<path d="M41.8186 19.0426C41.7949 18.9018 41.7414 18.7351 41.6739 18.6277C41.5398 18.4423 41.3845 18.3124 41.2342 18.2316C40.0493 17.6873 39.0573 17.794 38.1107 17.7902C37.1757 17.8143 36.301 17.9756 35.591 18.131C35.3982 18.1698 35.2313 18.1988 35.0527 18.2324C35.141 18.0499 35.4647 17.8216 35.9006 17.6833C36.9634 17.3203 38.1765 17.1745 39.3688 16.9422C39.6699 16.8832 39.9752 16.8141 40.2878 16.7252C40.456 16.6676 40.5977 16.6226 40.7959 16.5305C40.923 16.4586 41.0482 16.3682 41.1552 16.2715C41.2692 16.1689 41.2605 16.1402 41.3192 16.0711C41.5899 15.5557 41.3337 15.1888 41.1187 14.9972C40.9117 14.8272 40.7373 14.7608 40.5712 14.6925C40.2488 14.5794 39.9503 14.5085 39.6621 14.4484C39.1068 14.3373 38.5609 14.2281 38.0264 14.1212C37.7725 14.0624 37.527 13.9971 37.3116 13.918C37.1214 13.8673 36.8526 13.6793 36.8925 13.7306C36.4014 13.6882 37.5652 13.1404 38.4043 12.8344C38.6274 12.736 38.8491 12.6366 39.0762 12.4964C39.2991 12.3491 39.5287 12.2241 39.7763 11.8116C39.8249 11.726 39.8228 11.7052 39.8483 11.6493L39.8767 11.5781C39.9381 11.3588 39.9043 11.418 39.9186 11.3229C39.9475 11.0928 39.8573 10.8469 39.7144 10.6421C39.4227 10.3269 39.1327 10.2367 38.9172 10.1764C38.0262 9.96523 37.3852 10.023 36.8282 10.0251C35.772 10.0748 35.1684 10.1031 35.1684 10.1031L35.1276 10.105C35.1264 10.1051 35.1252 10.1051 35.1239 10.1052C34.7863 10.125 34.5288 10.4146 34.5486 10.7521C34.5505 10.7851 34.5659 10.8127 34.5728 10.8439C34.0945 10.9758 33.3376 11.1106 32.5888 10.934C32.4748 10.9078 32.3696 10.9763 32.3432 11.0854C32.317 11.1955 32.3855 11.3055 32.4946 11.3311C32.7888 11.4004 33.0807 11.4276 33.3589 11.4276C33.95 11.4276 34.4549 11.3073 34.7997 11.2017C34.9109 11.2843 35.0461 11.3363 35.1952 11.3276C35.1952 11.3276 35.8051 11.2919 36.8725 11.2294C37.3723 11.2114 38.0439 11.1851 38.5982 11.3153C38.644 11.3224 38.6686 11.3367 38.699 11.3495C38.7033 11.3004 38.6095 11.4388 38.463 11.5099C38.3208 11.6017 38.1357 11.6897 37.9432 11.777C37.5494 11.9554 37.0989 12.1088 36.5994 12.3776C36.3582 12.5199 36.0601 12.6645 35.8124 13.0874C35.6966 13.2833 35.6417 13.6001 35.7025 13.8234L35.7205 13.9144L35.7308 13.9594L35.7363 13.9817C35.698 13.9022 35.7946 14.1162 35.787 14.0969L35.837 14.1801C35.8813 14.2435 35.8744 14.2698 35.9809 14.3804C36.0663 14.4728 36.1628 14.5613 36.2622 14.6386C36.3494 14.6986 36.4145 14.7269 36.493 14.7713C36.6475 14.8624 36.7879 14.9046 36.9343 14.9621C37.2231 15.0638 37.5042 15.1329 37.785 15.195C38.327 15.297 38.8808 15.4011 39.4439 15.5072C39.6801 15.5528 39.901 15.6104 40.1053 15.6733C39.8437 15.7676 39.4775 15.8627 39.1616 15.9235C38.0127 16.1659 36.7945 16.3126 35.5554 16.7477C35.2452 16.8658 34.9275 17.0069 34.616 17.2455C34.3226 17.4677 34.0143 17.9111 34.0538 18.3981C33.9487 18.4128 33.8279 18.4343 33.7308 18.4451C32.6797 18.5842 32.2379 18.3991 32.2664 18.3938C32.1292 18.3128 31.9523 18.3582 31.8713 18.4955C31.7902 18.6327 31.8357 18.8097 31.9729 18.8907C31.9729 18.8907 32.1531 19.013 32.4747 19.0835C32.7948 19.1559 33.2451 19.1891 33.7935 19.1459C33.9446 19.1356 34.1215 19.113 34.2876 19.0954C34.4024 19.261 34.5362 19.4436 34.6608 19.5321C34.9504 19.775 35.2571 19.9304 35.5627 20.0664C36.793 20.5423 38.0227 20.6422 39.2214 20.5951C39.8233 20.5499 40.4156 20.4796 41.0239 20.2082C41.3075 20.076 41.6967 19.8676 41.8169 19.2651C41.817 19.188 41.8302 19.1528 41.8186 19.0426ZM40.9337 19.2324C40.918 19.1433 40.869 19.3454 40.6393 19.4011C40.244 19.5748 39.7043 19.6543 39.1739 19.6822C38.1042 19.7174 36.9361 19.5925 35.9345 19.1863C35.7771 19.1135 35.6486 19.0219 35.5136 18.9344C35.5878 18.923 35.6522 18.9151 35.7283 18.9031C36.4726 18.7846 37.2484 18.645 38.1395 18.6302C38.9882 18.6147 40.0689 18.6264 40.7866 18.9834C40.8699 19.0283 40.9064 19.0751 40.934 19.1033C40.934 19.1033 40.9102 19.0747 40.9367 19.0565C40.9485 19.0747 40.9338 19.1763 40.9337 19.2324Z" fill="white"/>
<path d="M16.1636 36.4219C16.1399 36.2811 16.0865 36.1143 16.019 36.0069C15.8848 35.8215 15.7296 35.6917 15.5792 35.6108C14.3943 35.0665 13.4023 35.1732 12.4557 35.1695C11.5208 35.1936 10.6461 35.3548 9.93601 35.5102C9.74326 35.5491 9.57629 35.578 9.39769 35.6116C9.48601 35.4292 9.80973 35.2009 10.2457 35.0625C11.3084 34.6995 12.5215 34.5537 13.7138 34.3214C14.015 34.2624 14.3202 34.1933 14.6328 34.1045C14.8011 34.0468 14.9427 34.0018 15.1409 33.9097C15.268 33.8378 15.3932 33.7474 15.5002 33.6507C15.6142 33.5482 15.6055 33.5195 15.6642 33.4503C15.935 32.9349 15.6786 32.568 15.4638 32.3764C15.2567 32.2064 15.0822 32.14 14.9162 32.0717C14.5939 31.9586 14.2953 31.8878 14.0071 31.8277C13.4518 31.7166 12.9059 31.6073 12.3714 31.5004C12.1176 31.4416 11.872 31.3763 11.6566 31.2972C11.4664 31.2465 11.1976 31.0585 11.2375 31.1098C10.7464 31.0674 11.9102 30.5197 12.7493 30.2137C12.9724 30.1152 13.1941 30.0157 13.4212 29.8756C13.6441 29.7283 13.8737 29.6033 14.1213 29.1908C14.1699 29.1052 14.1679 29.0844 14.1934 29.0285L14.2217 28.9573C14.2831 28.738 14.2493 28.7972 14.2636 28.7021C14.2926 28.4721 14.2023 28.2262 14.0594 28.0213C13.7677 27.7061 13.4777 27.6159 13.2622 27.5556C12.3712 27.3444 11.7302 27.4022 11.1732 27.4043C10.117 27.454 9.51338 27.4823 9.51338 27.4823L9.4726 27.4842C9.47138 27.4843 9.47026 27.4843 9.46894 27.4844C9.13135 27.5042 8.87382 27.7938 8.8936 28.1313C8.89548 28.1643 8.91095 28.1919 8.91779 28.2232C8.43948 28.355 7.68264 28.4898 6.93386 28.3133C6.81986 28.287 6.71458 28.3555 6.68823 28.4647C6.66198 28.5747 6.73051 28.6847 6.83964 28.7103C7.13383 28.7797 7.42567 28.8068 7.70392 28.8068C8.29501 28.8068 8.79995 28.6866 9.14476 28.5809C9.25594 28.6635 9.39113 28.7155 9.54019 28.7068C9.54019 28.7068 10.1501 28.6711 11.2176 28.6087C11.7173 28.5907 12.389 28.5643 12.9432 28.6945C12.9891 28.7017 13.0136 28.7159 13.044 28.7287C13.0483 28.6796 12.9546 28.818 12.808 28.8892C12.6658 28.9809 12.4807 29.0689 12.2882 29.1562C11.8944 29.3347 11.4439 29.488 10.9444 29.7567C10.7033 29.899 10.4051 30.0436 10.1574 30.4665C10.0417 30.6624 9.98672 30.9792 10.0476 31.2025L10.0656 31.2936L10.0758 31.3386L10.0812 31.3609C10.0429 31.2813 10.1395 31.4953 10.1319 31.476L10.1819 31.5592C10.2263 31.6226 10.2193 31.6489 10.3258 31.7595C10.4112 31.852 10.5077 31.9404 10.6072 32.0177C10.6943 32.0777 10.7594 32.106 10.8379 32.1504C10.9925 32.2416 11.1328 32.2838 11.2793 32.3412C11.568 32.4429 11.8492 32.512 12.1299 32.5741C12.6719 32.6761 13.2257 32.7802 13.7888 32.8863C14.025 32.9319 14.246 32.9895 14.4502 33.0524C14.1886 33.1467 13.8224 33.2418 13.5066 33.3026C12.3577 33.5451 11.1394 33.6917 9.90029 34.1269C9.59016 34.2449 9.27244 34.386 8.96091 34.6246C8.66757 34.8469 8.35923 35.2902 8.3987 35.7773C8.2936 35.792 8.17285 35.8134 8.07573 35.8242C7.02461 35.9633 6.58286 35.7783 6.61136 35.7729C6.47411 35.6919 6.2972 35.7373 6.2162 35.8747C6.13511 36.0118 6.18058 36.1888 6.31783 36.2698C6.31783 36.2698 6.49801 36.3922 6.81967 36.4627C7.13973 36.535 7.59001 36.5681 8.13845 36.525C8.28948 36.5147 8.46638 36.4921 8.63251 36.4746C8.74735 36.6401 8.88113 36.8227 9.00573 36.9112C9.29532 37.1542 9.60198 37.3095 9.9076 37.4455C11.1379 37.9214 12.3675 38.0213 13.5664 37.9742C14.1682 37.929 14.7606 37.8588 15.3688 37.5874C15.6524 37.4551 16.0416 37.2468 16.1618 36.6442C16.1622 36.5673 16.1754 36.5321 16.1636 36.4219ZM15.2788 36.6117C15.2631 36.5227 15.2141 36.7247 14.9844 36.7804C14.5891 36.9541 14.0495 37.0336 13.519 37.0615C12.4493 37.0967 11.2812 36.9718 10.2796 36.5656C10.1222 36.4928 9.99376 36.4012 9.85866 36.3137C9.93291 36.3023 9.99732 36.2945 10.0734 36.2825C10.8177 36.1639 11.5935 36.0243 12.4846 36.0096C13.3333 35.9941 14.4141 36.0057 15.1317 36.3627C15.2151 36.4076 15.2515 36.4544 15.2791 36.4826C15.2791 36.4826 15.2553 36.454 15.2818 36.4358C15.2936 36.454 15.2788 36.5557 15.2788 36.6117Z" fill="white"/>
<path d="M41.8186 36.4219C41.7949 36.2811 41.7414 36.1143 41.6739 36.0069C41.5398 35.8215 41.3845 35.6917 41.2342 35.6108C40.0493 35.0665 39.0573 35.1732 38.1107 35.1695C37.1757 35.1936 36.301 35.3548 35.591 35.5102C35.3982 35.5491 35.2313 35.578 35.0527 35.6116C35.141 35.4292 35.4647 35.2009 35.9006 35.0625C36.9634 34.6995 38.1765 34.5537 39.3688 34.3214C39.6699 34.2624 39.9752 34.1933 40.2878 34.1045C40.456 34.0468 40.5977 34.0018 40.7959 33.9097C40.923 33.8378 41.0482 33.7474 41.1552 33.6507C41.2692 33.5482 41.2605 33.5195 41.3192 33.4503C41.5899 32.9349 41.3337 32.568 41.1187 32.3764C40.9117 32.2064 40.7373 32.14 40.5712 32.0717C40.2488 31.9586 39.9503 31.8878 39.6621 31.8277C39.1068 31.7166 38.5609 31.6073 38.0264 31.5004C37.7725 31.4416 37.527 31.3763 37.3116 31.2972C37.1214 31.2465 36.8526 31.0585 36.8925 31.1098C36.4014 31.0674 37.5652 30.5197 38.4043 30.2137C38.6274 30.1152 38.8491 30.0157 39.0762 29.8756C39.2991 29.7283 39.5287 29.6033 39.7763 29.1908C39.8249 29.1052 39.8228 29.0844 39.8483 29.0285L39.8767 28.9573C39.9381 28.738 39.9043 28.7972 39.9186 28.7021C39.9475 28.4721 39.8573 28.2262 39.7144 28.0213C39.4227 27.7061 39.1327 27.6159 38.9172 27.5556C38.0262 27.3444 37.3852 27.4022 36.8282 27.4043C35.772 27.454 35.1684 27.4823 35.1684 27.4823L35.1276 27.4842C35.1264 27.4843 35.1252 27.4843 35.1239 27.4844C34.7863 27.5042 34.5288 27.7938 34.5486 28.1313C34.5505 28.1643 34.5659 28.1919 34.5728 28.2232C34.0945 28.355 33.3376 28.4898 32.5888 28.3133C32.4748 28.287 32.3696 28.3555 32.3432 28.4647C32.317 28.5747 32.3855 28.6847 32.4946 28.7103C32.7888 28.7797 33.0807 28.8068 33.3589 28.8068C33.95 28.8068 34.4549 28.6866 34.7997 28.5809C34.9109 28.6635 35.0461 28.7155 35.1952 28.7068C35.1952 28.7068 35.8051 28.6711 36.8725 28.6087C37.3723 28.5907 38.0439 28.5643 38.5982 28.6945C38.644 28.7017 38.6686 28.7159 38.699 28.7287C38.7033 28.6796 38.6095 28.818 38.463 28.8892C38.3208 28.9809 38.1357 29.0689 37.9432 29.1562C37.5494 29.3347 37.0989 29.488 36.5994 29.7567C36.3582 29.899 36.0601 30.0436 35.8124 30.4665C35.6966 30.6624 35.6417 30.9792 35.7025 31.2025L35.7205 31.2936L35.7308 31.3386L35.7363 31.3609C35.698 31.2813 35.7946 31.4953 35.787 31.476L35.837 31.5592C35.8813 31.6226 35.8744 31.6489 35.9809 31.7595C36.0663 31.852 36.1628 31.9404 36.2622 32.0177C36.3494 32.0777 36.4145 32.106 36.493 32.1504C36.6475 32.2416 36.7879 32.2838 36.9343 32.3412C37.2231 32.4429 37.5042 32.512 37.785 32.5741C38.327 32.6761 38.8808 32.7802 39.4439 32.8863C39.6801 32.9319 39.901 32.9895 40.1053 33.0524C39.8437 33.1467 39.4775 33.2418 39.1616 33.3026C38.0127 33.5451 36.7945 33.6917 35.5554 34.1269C35.2452 34.2449 34.9275 34.386 34.616 34.6246C34.3226 34.8469 34.0143 35.2902 34.0538 35.7773C33.9487 35.792 33.8279 35.8134 33.7308 35.8242C32.6797 35.9633 32.2379 35.7783 32.2664 35.7729C32.1292 35.6919 31.9523 35.7373 31.8713 35.8747C31.7902 36.0118 31.8357 36.1888 31.9729 36.2698C31.9729 36.2698 32.1531 36.3922 32.4747 36.4627C32.7948 36.535 33.2451 36.5681 33.7935 36.525C33.9446 36.5147 34.1215 36.4921 34.2876 36.4746C34.4024 36.6401 34.5362 36.8227 34.6608 36.9112C34.9504 37.1542 35.2571 37.3095 35.5627 37.4455C36.793 37.9214 38.0227 38.0213 39.2214 37.9742C39.8233 37.929 40.4156 37.8588 41.0239 37.5874C41.3075 37.4551 41.6967 37.2468 41.8169 36.6442C41.817 36.5673 41.8302 36.5321 41.8186 36.4219ZM40.9337 36.6117C40.918 36.5227 40.869 36.7247 40.6393 36.7804C40.244 36.9541 39.7043 37.0336 39.1739 37.0615C38.1042 37.0967 36.9361 36.9718 35.9345 36.5656C35.7771 36.4928 35.6486 36.4012 35.5136 36.3137C35.5878 36.3023 35.6522 36.2945 35.7283 36.2825C36.4726 36.1639 37.2484 36.0243 38.1395 36.0096C38.9882 35.9941 40.0689 36.0057 40.7866 36.3627C40.8699 36.4076 40.9064 36.4544 40.934 36.4826C40.934 36.4826 40.9102 36.454 40.9367 36.4358C40.9485 36.454 40.9338 36.5557 40.9337 36.6117Z" fill="white"/>
</svg>
