<svg width="48" height="48" viewBox="0 0 48 48" fill="none" xmlns="http://www.w3.org/2000/svg">
<path d="M47.1723 39.7242H0.827623C0.370593 39.7242 0 39.3536 0 38.8965V9.1035C0 8.64647 0.370593 8.27588 0.827623 8.27588H47.1724C47.6294 8.27588 48 8.64647 48 9.1035V38.8965C47.9999 39.3537 47.6293 39.7242 47.1723 39.7242Z" fill="#73AF00"/>
<path d="M32.9106 21.0919C32.8884 20.9505 32.6834 20.9576 32.6673 21.0998C32.1736 25.45 28.4836 28.8298 23.9999 28.8298C19.5176 28.8298 15.8263 25.45 15.3326 21.1C15.3164 20.9578 15.1114 20.9506 15.0893 21.0921C15.0207 21.5297 14.9832 21.9772 14.9832 22.4341C14.9831 27.4093 19.0209 31.4483 23.9999 31.4483C28.9807 31.4483 33.0168 27.4093 33.0168 22.4341C33.0166 21.9772 32.979 21.5296 32.9106 21.0919Z" fill="#FFE15A"/>
<path d="M23.8881 17.3688L23.2361 19.3239L21.1752 19.3398C21.0622 19.3407 21.0153 19.4848 21.1063 19.552L22.7642 20.7762L22.1426 22.7412C22.1085 22.849 22.2312 22.9381 22.3231 22.8724L23.9997 21.674L25.6764 22.8724C25.7684 22.9381 25.891 22.8491 25.857 22.7412L25.2353 20.7762L26.8933 19.552C26.9842 19.4848 26.9373 19.3407 26.8244 19.3398L24.7635 19.3239L24.1114 17.3688C24.0755 17.2617 23.9238 17.2617 23.8881 17.3688Z" fill="#FFE15A"/>
</svg>
