<svg width="48" height="48" viewBox="0 0 48 48" fill="none" xmlns="http://www.w3.org/2000/svg">
<path d="M47.1723 39.7243H0.827623C0.370593 39.7243 0 39.3537 0 38.8967V9.10362C0 8.64659 0.370593 8.276 0.827623 8.276H47.1724C47.6294 8.276 48 8.64659 48 9.10362V38.8967C47.9999 39.3538 47.6293 39.7243 47.1723 39.7243Z" fill="#41479B"/>
<path d="M23.1723 8.27588H21.7348L14.0688 13.2984V8.27588H9.93092V13.2984L2.265 8.27588H0.827623C0.370593 8.27588 0 8.64638 0 9.10341V9.75985L6.57702 14.0689H0V18.2068H6.57702L0 22.5159V23.1723C0 23.6294 0.370593 24 0.827623 24H2.26518L9.93111 18.9774V24H14.069V18.9774L21.7349 24H23.1724C23.6295 24 24 23.6294 24 23.1723V22.5159L17.423 18.2069H24V14.069H17.4229L24 9.75994V9.1035C24 8.64638 23.6294 8.27588 23.1723 8.27588Z" fill="white"/>
<path d="M24 14.8966H13.2413V8.27588H10.7586V14.8966H0V17.3793H10.7586V24H13.2413V17.3793H24V14.8966Z" fill="#FF4B55"/>
<path d="M9.10339 14.069L0.394405 8.41577C0.162656 8.5624 0 8.80886 0 9.10343V9.14636L7.58333 14.069H9.10339Z" fill="#FF4B55"/>
<path d="M15.5891 14.069L23.8742 8.69091C23.7302 8.44725 23.4761 8.27588 23.1725 8.27588H22.9935L14.0691 14.069H15.5891Z" fill="#FF4B55"/>
<path d="M8.38813 18.207L0.118927 23.5747C0.26152 23.8243 0.51952 24.0001 0.827582 24.0001H0.983675L9.90828 18.207H8.38813Z" fill="#FF4B55"/>
<path d="M23.9868 23.2374L16.2369 18.207H14.7169L23.5175 23.9196C23.7812 23.7973 23.962 23.5409 23.9868 23.2374Z" fill="#FF4B55"/>
<path d="M41.4966 17.5538H30.5025V26.0504H41.4966V17.5538Z" fill="#82AFFF"/>
<path d="M30.5028 26.0502C30.5028 28.9483 33.7511 31.2976 36.0001 31.2976C37.9991 31.2976 41.4974 28.9482 41.4974 26.0502H30.5028Z" fill="#C86464"/>
<path d="M37.468 20.657C37.645 20.6882 37.947 20.7299 37.9782 21.1568C38.0094 21.5836 37.8532 23.1038 37.6971 23.2911C37.6971 23.2911 38.2073 24.4468 38.2281 25.1339C38.2489 25.8211 38.1553 27.8773 38.2177 28.2052C38.2802 28.5332 38.5144 29.2048 38.5144 29.2048C38.5144 29.2048 37.796 28.7831 37.515 29.0486C37.2339 29.314 36.2031 29.6734 35.797 29.2517C35.797 29.2517 36.2811 27.8774 36.2811 26.3156C36.2811 24.7538 36.2811 20.8964 36.2811 20.8964C36.2811 20.8964 36.4842 20.7351 36.7496 20.7298C37.0151 20.7247 37.468 20.657 37.468 20.657Z" fill="#73AF00"/>
<path d="M37.5718 28.9132C37.603 29.111 37.6863 29.2568 37.6447 29.3296C37.603 29.4026 37.3324 30.0689 37.4885 30.0689C37.6446 30.0689 37.9153 29.9856 37.9883 29.8398C38.0611 29.694 38.0923 29.4754 38.1341 29.413C38.1758 29.3505 38.0611 29.0382 37.9675 28.9861C37.8738 28.934 37.5718 28.9132 37.5718 28.9132Z" fill="#FFF5E1"/>
<path d="M35.7708 21.0942L35.1982 21.1671C35.1982 21.1671 35.271 20.7923 35.2814 20.532C35.2918 20.2717 35.3127 19.7928 35.3127 19.7928C35.3127 19.7928 35.7187 19.5429 35.7291 19.5012C35.7342 19.4804 35.7824 19.3503 35.7447 19.2826C35.7071 19.2149 35.5834 19.2097 35.5834 19.2097C35.5834 19.2097 35.1044 19.4595 35.1044 19.5012C35.1044 19.5429 35.1044 19.7928 35.0524 19.8864C35.0004 19.9802 34.7088 20.761 34.688 20.9692C34.6672 21.1775 34.636 21.6148 34.7192 21.6356C34.8025 21.6564 35.6666 21.7502 35.7604 21.7085C35.8541 21.6668 35.7708 21.0942 35.7708 21.0942Z" fill="#FFF5E1"/>
<path d="M38.3652 19.038H36.281V18.0541H35.5627V19.038H33.4786V19.7564H35.5627V29.205H36.281V19.7564H38.3652V19.038Z" fill="#464655"/>
<path d="M37.1349 20.3133C37.1349 20.3133 37.8325 20.5142 37.9262 20.2821C38.0355 20.0113 37.6711 19.975 37.6034 19.6887C37.5958 19.6566 37.5305 19.2722 37.2494 19.1994C36.9683 19.1264 36.708 19.1994 36.6976 19.3868C36.6873 19.5742 37.1349 20.3133 37.1349 20.3133Z" fill="#963C3C"/>
<path d="M36.7598 21.1983C36.7391 21.2017 36.7077 20.9901 36.7494 20.7298C36.7911 20.4695 36.7494 20.3862 36.7494 20.3862C36.7494 20.3862 36.4579 20.4174 36.4579 20.3029C36.4579 20.1885 36.5203 19.6574 36.6973 19.3867C36.6973 19.3867 36.8223 19.5429 37.0513 19.5429C37.0513 19.5429 37.0409 19.7303 37.1659 19.8552C37.1659 19.8552 37.0097 19.9905 37.0826 20.0842C37.1556 20.178 37.2909 20.2924 37.2909 20.2924C37.2909 20.2924 37.3013 20.5112 37.4679 20.6568C37.4678 20.657 37.2595 21.1151 36.7598 21.1983Z" fill="#FFF5E1"/>
<path d="M33.9697 25.7175H33.9073V26.9564H33.9697V25.7175Z" fill="#464655"/>
<path d="M34.2208 25.4775H34.1584V27.1963H34.2208V25.4775Z" fill="#464655"/>
<path d="M34.4723 25.2582H34.4099V27.4154H34.4723V25.2582Z" fill="#464655"/>
<path d="M34.7234 24.9441H34.661V27.7273H34.7234V24.9441Z" fill="#464655"/>
<path d="M34.9745 24.5345H34.9121V28.1367H34.9745V24.5345Z" fill="#464655"/>
<path d="M35.226 24.5345H35.1636V28.3051H35.226V24.5345Z" fill="#464655"/>
<path d="M36.2914 26.5082C36.0153 25.0724 35.2503 24.2384 34.9796 24.1969C34.7088 24.1553 34.5111 24.3739 34.4903 24.5301C34.4695 24.6863 34.3237 25.1548 34.0217 25.3733C33.7198 25.5921 33.1576 25.7169 33.0327 26.123C32.9077 26.529 33.2409 26.706 33.4387 26.6643C33.4535 26.6612 33.4681 26.6554 33.4829 26.6505L35.6113 29.2686C35.6885 29.3637 35.8391 29.3482 35.893 29.238C36.1117 28.791 36.5269 27.7324 36.2914 26.5082ZM33.6616 26.5372C33.745 26.4476 33.7803 26.3241 33.6887 26.1959C33.5325 25.9772 33.3555 26.2896 33.3555 26.2896C33.3555 26.2896 33.3034 26.0189 33.7095 25.8836C34.1155 25.7483 34.5737 25.5193 34.7819 25.0298C34.9901 24.5406 34.9797 24.6341 34.9797 24.6341C34.9797 24.6341 35.8127 25.1027 35.9271 26.5707C36.0417 28.0387 35.6357 28.6323 35.6357 28.6323L33.6616 26.5372Z" fill="#FFE15A"/>
<path d="M35.5627 23.3671C35.467 23.4283 35.3809 23.4809 35.3206 23.5123C35.1254 23.6138 34.8911 23.7154 34.8677 23.8091C34.8444 23.9028 34.7115 23.9809 34.7194 24.0901C34.7273 24.1994 34.7194 24.5274 34.7194 24.5274C34.8365 24.504 35.0708 24.4648 35.149 24.3243C35.2271 24.1837 35.2973 23.9104 35.5472 23.7933C35.5516 23.7913 35.5582 23.7891 35.5629 23.787V23.3671H35.5627Z" fill="#FFF5E1"/>
<path d="M37.6319 21.3729C37.5148 21.4276 37.1635 21.8493 37.1088 22.0445C37.0542 22.2397 36.8824 22.7005 36.8824 22.7005C36.8824 22.7005 36.5276 22.7468 36.2812 22.8847V23.5667C36.4178 23.5271 36.5385 23.4881 36.6091 23.4502C36.8122 23.3409 37.101 23.1379 37.2494 23.0988C37.3978 23.0598 37.5227 22.8099 37.5774 22.6616C37.632 22.5133 37.8038 22.0759 37.8272 21.7792C37.8507 21.4822 37.749 21.3183 37.6319 21.3729Z" fill="#FFF5E1"/>
<path d="M35.9998 31.4747L35.9726 31.4704C30.3917 30.5892 30.3276 25.7556 30.3276 25.5505V17.3793H41.6722V25.5504C41.6722 25.7556 41.6081 30.5891 36.0272 31.4703L35.9998 31.4747ZM30.6776 17.7292V25.5503C30.6776 25.7431 30.7379 30.274 35.9998 31.1203C41.2618 30.274 41.3221 25.7431 41.3221 25.5503V17.7292H30.6776Z" fill="white"/>
</svg>
