<svg width="48" height="48" viewBox="0 0 48 48" fill="none" xmlns="http://www.w3.org/2000/svg">
<path d="M47.1724 8.276H24V39.7243H47.1724C47.6294 39.7243 48 39.3537 48 38.8966V9.10353C48 8.6465 47.6294 8.276 47.1724 8.276Z" fill="#FF4B55"/>
<path d="M0.827625 39.7243H24V8.276H0.827625C0.370594 8.276 0 8.6465 0 9.10353V38.8966C0 39.3538 0.370594 39.7243 0.827625 39.7243Z" fill="white"/>
<path d="M6.89682 10.2068V12.4212C7.01879 12.426 7.15482 12.4813 7.26788 12.5943C7.38094 12.7074 7.43644 12.8434 7.44104 12.9654H9.65541V15.1723H7.44094C7.43616 15.2943 7.38085 15.4303 7.26779 15.5433C7.15473 15.6564 7.01869 15.7117 6.89673 15.7165V17.9309H4.68985V15.7165C4.56788 15.7117 4.43185 15.6564 4.31879 15.5433C4.20572 15.4303 4.15041 15.2943 4.14563 15.1723H1.93126V12.9655H4.14563C4.15041 12.8435 4.20572 12.7075 4.31879 12.5944C4.43185 12.4814 4.56788 12.4261 4.68985 12.4213V10.2069H6.89682V10.2068ZM7.17254 9.93091H6.89663H4.68976H4.41394V10.2068V12.204C4.30866 12.2471 4.20985 12.3132 4.12369 12.3993C4.03754 12.4854 3.97154 12.5842 3.92832 12.6895H1.93126H1.65535V12.9654V15.1723V15.4482H1.93126H3.92841C3.97163 15.5535 4.03763 15.6524 4.12379 15.7384C4.20985 15.8245 4.30866 15.8906 4.41394 15.9337V17.9309V18.2067H4.68985H6.89673H7.17263V17.9308V15.9336C7.27791 15.8905 7.37672 15.8244 7.46288 15.7383C7.54894 15.6522 7.61504 15.5534 7.65816 15.4481H9.65532H9.93113V15.1722V12.9653V12.6894H9.65522H7.65826C7.61513 12.5841 7.54904 12.4853 7.46288 12.3992C7.37682 12.3131 7.27801 12.247 7.17263 12.2039V10.2068L7.17254 9.93091Z" fill="#FF4B55"/>
<path d="M9.655 12.9654H6.8965V10.2069H4.68953V12.9654H1.93094V15.1724H4.68953V17.931H6.8965V15.1724H9.655V12.9654Z" fill="#CDCDCD"/>
<path d="M5.79313 15.1727C6.40254 15.1727 6.89657 14.6787 6.89657 14.0693C6.89657 13.4598 6.40254 12.9658 5.79313 12.9658C5.18372 12.9658 4.6897 13.4598 4.6897 14.0693C4.6897 14.6787 5.18372 15.1727 5.79313 15.1727Z" fill="#B4A08C"/>
<path d="M4.80428 15.058C4.61266 14.8664 4.3486 14.8198 4.2145 14.9539C4.08039 15.088 4.12701 15.3521 4.31864 15.5437C4.51026 15.7353 4.77432 15.7819 4.90843 15.6478C5.04253 15.5137 4.99591 15.2497 4.80428 15.058Z" fill="#B4A08C"/>
<path d="M7.26813 15.5429C7.45975 15.3513 7.50638 15.0872 7.37227 14.9531C7.23816 14.819 6.97411 14.8657 6.78248 15.0573C6.59086 15.2489 6.54423 15.513 6.67834 15.6471C6.81245 15.7812 7.0765 15.7345 7.26813 15.5429Z" fill="#B4A08C"/>
<path d="M6.78136 13.0807C6.97299 13.2723 7.23705 13.319 7.37115 13.1849C7.50526 13.0508 7.45863 12.7867 7.26701 12.5951C7.07539 12.4034 6.81133 12.3568 6.67722 12.4909C6.54311 12.625 6.58974 12.8891 6.78136 13.0807Z" fill="#B4A08C"/>
<path d="M4.31848 12.5947C4.12686 12.7863 4.08023 13.0504 4.21434 13.1845C4.34845 13.3186 4.6125 13.272 4.80413 13.0803C4.99575 12.8887 5.04238 12.6247 4.90827 12.4905C4.77416 12.3564 4.51011 12.4031 4.31848 12.5947Z" fill="#B4A08C"/>
<path d="M5.79337 15.58C4.9604 15.58 4.28278 14.9025 4.28278 14.0694C4.28278 13.2362 4.9604 12.5588 5.79337 12.5588C6.62634 12.5588 7.30396 13.2364 7.30396 14.0694C7.30396 14.9023 6.62634 15.58 5.79337 15.58ZM5.79337 12.6968C5.03662 12.6968 4.42078 13.3126 4.42078 14.0694C4.42078 14.8261 5.03662 15.442 5.79337 15.442C6.55012 15.442 7.16596 14.8261 7.16596 14.0694C7.16596 13.3126 6.55012 12.6968 5.79337 12.6968Z" fill="#B4A08C"/>
</svg>
