<svg width="48" height="48" viewBox="0 0 48 48" fill="none" xmlns="http://www.w3.org/2000/svg">
<path d="M47.1723 39.7243H0.827623C0.370593 39.7243 0 39.3537 0 38.8967V9.10362C0 8.64659 0.370593 8.276 0.827623 8.276H47.1724C47.6294 8.276 48 8.64659 48 9.10362V38.8967C47.9999 39.3538 47.6293 39.7243 47.1723 39.7243Z" fill="#FF4B55"/>
<path d="M41.3791 14.8967V33.1036H6.62064V14.8967H41.3791Z" fill="#73AF00"/>
<path d="M22.348 24.0026C22.348 20.869 24.4824 18.2447 27.3718 17.4846C27.468 17.4593 27.4611 17.3202 27.3624 17.3075C27.1003 17.2738 26.8337 17.2545 26.5625 17.2545C22.8326 17.2545 19.8132 20.2734 19.8132 24.0026C19.8132 27.7156 22.8326 30.7428 26.5625 30.7428C26.8342 30.7428 27.1011 30.7232 27.3635 30.6895C27.4621 30.6767 27.4689 30.5377 27.3728 30.5124C24.4829 29.751 22.348 27.1229 22.348 24.0026Z" fill="white"/>
</svg>
