<svg width="48" height="48" viewBox="0 0 48 48" fill="none" xmlns="http://www.w3.org/2000/svg">
<path d="M0 29.2411H47.9999V38.8963C47.9999 39.3533 47.6293 39.7239 47.1723 39.7239H0.827623C0.370593 39.7239 0 39.3533 0 38.8963V29.2411Z" fill="#73AF00"/>
<path d="M0.827623 8.276H47.1724C47.6294 8.276 48 8.64659 48 9.10362V18.7587H0V9.10353C0 8.6465 0.370593 8.276 0.827623 8.276Z" fill="#464655"/>
<path d="M47.9999 18.7585H0V29.2407H47.9999V18.7585Z" fill="#FF4B55"/>
<path d="M30.4297 17.7702C29.138 15.559 26.7457 14.0691 24 14.0691C21.2542 14.0691 18.8619 15.559 17.5702 17.7702H30.4297Z" fill="#FF4B55"/>
<path d="M24.4276 10.5518C24.4276 10.9232 24 13.2415 24 13.2415C24 13.2415 23.5724 10.9233 23.5724 10.5518C23.5724 10.1805 23.7638 9.87946 24 9.87946C24.2361 9.87946 24.4276 10.1804 24.4276 10.5518Z" fill="#FF4B55"/>
<path d="M32.0377 14.0581C31.7751 14.3207 29.8336 15.6577 29.8336 15.6577C29.8336 15.6577 31.1705 13.716 31.4331 13.4535C31.6957 13.1909 32.044 13.1134 32.211 13.2804C32.3778 13.4472 32.3003 13.7956 32.0377 14.0581Z" fill="#FF4B55"/>
<path d="M16.5669 13.4537C16.8295 13.7163 18.1665 15.6578 18.1665 15.6578C18.1665 15.6578 16.2248 14.3209 15.9623 14.0583C15.6997 13.7957 15.6222 13.4474 15.7893 13.2804C15.956 13.1135 16.3043 13.191 16.5669 13.4537Z" fill="#FF4B55"/>
<path d="M20.2085 11.2211C20.3506 11.5642 20.8427 13.8697 20.8427 13.8697C20.8427 13.8697 19.5605 11.8915 19.4185 11.5484C19.2764 11.2054 19.338 10.854 19.5562 10.7636C19.7743 10.6731 20.0663 10.878 20.2085 11.2211Z" fill="#FF4B55"/>
<path d="M28.5815 11.5483C28.4394 11.8914 27.1573 13.8695 27.1573 13.8695C27.1573 13.8695 27.6494 11.5641 27.7915 11.2209C27.9336 10.8778 28.2256 10.6729 28.4438 10.7633C28.6619 10.8537 28.7237 11.2051 28.5815 11.5483Z" fill="#FF4B55"/>
<path d="M22.2443 10.685C22.3181 11.0489 22.3598 13.406 22.3598 13.406C22.3598 13.406 21.48 11.219 21.4061 10.8549C21.3323 10.491 21.4601 10.1579 21.6915 10.1109C21.9231 10.064 22.1706 10.3209 22.2443 10.685Z" fill="#FF4B55"/>
<path d="M30.3996 12.6088C30.1945 12.9183 28.5574 14.6145 28.5574 14.6145C28.5574 14.6145 29.4817 12.4459 29.6868 12.1364C29.8919 11.8268 30.2178 11.6816 30.4147 11.8121C30.6115 11.9426 30.6048 12.2992 30.3996 12.6088Z" fill="#FF4B55"/>
<path d="M15.1175 15.0914C15.4271 15.2966 17.1233 16.9337 17.1233 16.9337C17.1233 16.9337 14.9547 16.0094 14.6451 15.8043C14.3356 15.5992 14.1903 15.2733 14.3208 15.0764C14.4513 14.8796 14.8081 14.8863 15.1175 15.0914Z" fill="#FF4B55"/>
<path d="M18.2425 12.1792C18.4501 12.4872 19.3906 14.6488 19.3906 14.6488C19.3906 14.6488 17.7408 12.965 17.5333 12.657C17.3257 12.3491 17.3164 11.9923 17.5123 11.8604C17.7081 11.7285 18.0351 11.8712 18.2425 12.1792Z" fill="#FF4B55"/>
<path d="M33.3121 15.7341C33.0041 15.9417 30.8424 16.8822 30.8424 16.8822C30.8424 16.8822 32.5262 15.2323 32.8342 15.0249C33.1422 14.8173 33.4989 14.8079 33.6308 15.0039C33.7628 15.1997 33.62 15.5267 33.3121 15.7341Z" fill="#FF4B55"/>
<path d="M26.5134 10.8359C26.4423 11.2003 25.579 13.3939 25.579 13.3939C25.579 13.3939 25.603 11.0367 25.6741 10.6722C25.7453 10.3078 25.9907 10.0489 26.2225 10.094C26.4543 10.1392 26.5845 10.4714 26.5134 10.8359Z" fill="#FF4B55"/>
<path d="M26.7682 10.8993C26.6603 11.2546 26.3961 13.5972 26.3961 13.5972C26.3961 13.5972 27.4786 11.5031 27.5865 11.1476C27.6944 10.7923 27.5986 10.4486 27.3727 10.38C27.1468 10.3114 26.8761 10.544 26.7682 10.8993Z" fill="#FF4B55"/>
<path d="M18.4678 12.0443C18.6428 12.3719 20.1124 14.2151 20.1124 14.2151C20.1124 14.2151 19.3971 11.9689 19.2221 11.6413C19.0471 11.3137 18.7364 11.1384 18.5281 11.2497C18.3197 11.3611 18.2928 11.7167 18.4678 12.0443Z" fill="#FF4B55"/>
<path d="M33.447 15.9592C33.1196 16.1343 31.2762 17.6039 31.2762 17.6039C31.2762 17.6039 33.5225 16.8886 33.8501 16.7135C34.1775 16.5385 34.3529 16.2278 34.2417 16.0195C34.1305 15.8112 33.7747 15.7842 33.447 15.9592Z" fill="#FF4B55"/>
<path d="M30.6111 12.7651C30.3754 13.0522 29.235 15.1152 29.235 15.1152C29.235 15.1152 31.0365 13.5948 31.2721 13.3077C31.5078 13.0206 31.5508 12.6665 31.3683 12.5166C31.1859 12.3668 30.8468 12.4781 30.6111 12.7651Z" fill="#FF4B55"/>
<path d="M15.2734 14.8806C15.5604 15.1163 17.6235 16.2567 17.6235 16.2567C17.6235 16.2567 16.1031 14.4551 15.8159 14.2195C15.5287 13.9839 15.1747 13.9408 15.0248 14.1234C14.875 14.306 14.9862 14.645 15.2734 14.8806Z" fill="#FF4B55"/>
<path d="M22.5039 10.6463C22.5402 11.0159 23.1926 13.2812 23.1926 13.2812C23.1926 13.2812 23.3914 10.9322 23.355 10.5626C23.3187 10.1929 23.0987 9.91214 22.8637 9.9353C22.6287 9.95836 22.4676 10.2766 22.5039 10.6463Z" fill="#FF4B55"/>
<path d="M24.662 10.5632C24.6251 10.9328 24.8201 13.2821 24.8201 13.2821C24.8201 13.2821 25.476 11.0178 25.5129 10.6483C25.5498 10.2787 25.3892 9.96014 25.1542 9.93661C24.9193 9.91317 24.699 10.1938 24.662 10.5632Z" fill="#FF4B55"/>
<path d="M16.741 13.2963C16.9763 13.5836 18.7753 15.1069 18.7753 15.1069C18.7753 15.1069 17.638 13.042 17.4029 12.7547C17.1677 12.4673 16.8289 12.3556 16.6462 12.505C16.4633 12.6545 16.5058 13.0088 16.741 13.2963Z" fill="#FF4B55"/>
<path d="M32.1951 14.2321C31.9078 14.4673 30.3844 16.2664 30.3844 16.2664C30.3844 16.2664 32.4494 15.1291 32.7367 14.894C33.0241 14.6589 33.1358 14.32 32.9864 14.1372C32.8369 13.9545 32.4827 13.9969 32.1951 14.2321Z" fill="#FF4B55"/>
<path d="M28.7935 11.6486C28.6179 11.9758 27.8991 14.2209 27.8991 14.2209C27.8991 14.2209 29.3716 12.3799 29.5472 12.0527C29.7228 11.7254 29.6962 11.3697 29.4882 11.258C29.2801 11.1464 28.9691 11.3212 28.7935 11.6486Z" fill="#FF4B55"/>
<path d="M14.1573 16.6979C14.4845 16.8735 16.7296 17.5923 16.7296 17.5923C16.7296 17.5923 14.8886 16.1199 14.5614 15.9443C14.2341 15.7687 13.8784 15.7952 13.7667 16.0033C13.6551 16.2114 13.83 16.5223 14.1573 16.6979Z" fill="#FF4B55"/>
<path d="M20.4297 11.1421C20.537 11.4977 21.6163 13.5934 21.6163 13.5934C21.6163 13.5934 21.3559 11.2504 21.2484 10.895C21.1412 10.5394 20.8708 10.3067 20.6448 10.3749C20.4187 10.4431 20.3224 10.7866 20.4297 11.1421Z" fill="#FF4B55"/>
</svg>
