<svg width="48" height="48" viewBox="0 0 48 48" fill="none" xmlns="http://www.w3.org/2000/svg">
<path d="M16 39.7234H0.827625C0.370594 39.7234 0 39.3528 0 38.8958V9.10271C0 8.64568 0.370594 8.27509 0.827625 8.27509H16V39.7234Z" fill="#73AF00"/>
<path d="M32.0007 8.27563H16.0004V39.7241H32.0007V8.27563Z" fill="white"/>
<path d="M47.1724 39.7235H32V8.27521H47.1724C47.6294 8.27521 48 8.6458 48 9.10283V38.8959C48 39.3531 47.6294 39.7235 47.1724 39.7235Z" fill="#FF4B55"/>
<path d="M25.4273 24.7404L24 25.4542V26.1679H24.7137L25.4273 24.7404Z" fill="#FFD250"/>
<path d="M24.0001 27.9521C23.8029 27.9521 23.6432 27.7924 23.6432 27.5952V26.1678C23.6432 25.9706 23.8029 25.8109 24.0001 25.8109C24.1974 25.8109 24.357 25.9706 24.357 26.1678V27.5952C24.357 27.7924 24.1974 27.9521 24.0001 27.9521Z" fill="#00C3A0"/>
<path d="M24.0001 26.5248C22.5985 26.5248 21.245 25.9839 20.1888 25.0019C20.0445 24.8677 20.0362 24.6419 20.1703 24.4977C20.3055 24.3538 20.531 24.3461 20.6745 24.4791C21.5983 25.3382 22.7793 25.811 24.0001 25.811C25.2208 25.811 26.4018 25.3382 27.3256 24.4791C27.4696 24.3457 27.695 24.353 27.8298 24.4977C27.964 24.642 27.9557 24.8678 27.8113 25.0019C26.7553 25.984 25.4018 26.5248 24.0001 26.5248Z" fill="#00C3A0"/>
<path d="M23.9999 27.952C23.0851 27.952 22.199 27.6848 21.4372 27.1788L21.8324 26.5842C23.1204 27.4401 24.8795 27.4401 26.1674 26.5842L26.5626 27.1788C25.8009 27.6849 24.9148 27.952 23.9999 27.952Z" fill="#00AADC"/>
<path d="M23.4348 23.1344L22.6469 24.3538L22.513 24.7551L24.5649 24.2794L23.4348 23.1344Z" fill="#732D37"/>
<path d="M21.8161 25.1473C20.8728 25.1473 19.7405 24.3534 19.4401 22.5845L20.1441 22.4654C20.3937 23.9363 21.2985 24.4346 21.8419 24.4333C22.0085 24.4287 22.1823 24.3712 22.196 24.2535C22.212 24.1127 22.2159 24.0793 21.8427 23.9531C21.6398 23.8844 21.4098 23.8068 21.2485 23.6221C20.5957 22.8767 21.4795 22.0878 21.9041 21.7086C21.979 21.6417 22.01 21.5849 22.002 21.5633C21.9787 21.5023 21.8386 21.41 21.6807 21.41C21.2274 21.41 20.8834 21.1539 20.7835 20.742C20.6796 20.3154 20.8758 19.8659 21.2494 19.6729L21.5771 20.3071C21.4895 20.3524 21.4548 20.4813 21.477 20.5733C21.4857 20.6103 21.507 20.6963 21.6809 20.6963C22.1179 20.6963 22.5337 20.9542 22.6689 21.309C22.7267 21.4602 22.8138 21.8533 22.3796 22.2411C21.9109 22.6597 21.6304 22.9747 21.7858 23.1521C21.821 23.1921 21.9719 23.2434 22.0716 23.2769C22.3929 23.3856 22.9909 23.5878 22.9052 24.3352C22.8515 24.8053 22.432 25.1315 21.8619 25.1469C21.8465 25.1469 21.8311 25.1473 21.8161 25.1473Z" fill="#AAD264"/>
<path d="M24.7137 21.1716C24.7137 21.1716 25.4274 19.7443 24 19.0306C24 19.0306 28.9958 18.3168 28.2821 24.7401L28.2818 24.7398C27.8135 24.3651 27.118 23.6803 26.8697 23.1343L24.7137 21.8852V21.1716Z" fill="#874150"/>
<path d="M24 22.5992L27.5684 24.7402C27.5684 24.7402 27.5684 24.7402 26.1411 25.454L24 23.313V22.5992Z" fill="#732D37"/>
<path d="M22.5727 20.4574C22.9669 20.4574 23.2865 20.777 23.2865 21.1711L23.2857 21.1719C22.8599 21.5977 22.7544 22.248 23.0237 22.7866L23.1849 23.1092C23.2521 23.2436 23.3406 23.3665 23.447 23.4728L25.4276 25.4534V24.4671C25.4276 23.2383 25.1416 22.0264 24.592 20.9274C24.2293 20.202 23.4879 19.7438 22.677 19.7438H22.5728V20.4576H22.5727V20.4574Z" fill="#783C46"/>
<path d="M22.5726 19.7446L21.8588 20.4583V21.172C21.8588 21.172 22.7078 20.7416 22.994 20.6044C23.1939 20.5086 23.1576 20.282 23.0428 20.1728C22.9535 20.0879 22.5726 19.7446 22.5726 19.7446Z" fill="#FFD250"/>
<path d="M24 29.379C20.6549 29.379 17.9336 26.6577 17.9336 23.3126H18.6474C18.6474 26.2643 21.0484 28.6654 24.0001 28.6654C26.9518 28.6654 29.3529 26.2643 29.3529 23.3126H30.0666C30.0664 26.6577 27.3451 29.379 24 29.379Z" fill="#AAD264"/>
<path d="M18.6864 25.9149C18.9539 25.9149 19.1707 25.6981 19.1707 25.4306C19.1707 25.1631 18.9539 24.9463 18.6864 24.9463C18.419 24.9463 18.2021 25.1631 18.2021 25.4306C18.2021 25.6981 18.419 25.9149 18.6864 25.9149Z" fill="#FFE15A"/>
<path d="M19.7571 27.6246C20.0246 27.6246 20.2414 27.4077 20.2414 27.1403C20.2414 26.8728 20.0246 26.6559 19.7571 26.6559C19.4896 26.6559 19.2728 26.8728 19.2728 27.1403C19.2728 27.4077 19.4896 27.6246 19.7571 27.6246Z" fill="#FFE15A"/>
<path d="M21.4959 28.9175C21.7634 28.9175 21.9802 28.7006 21.9802 28.4332C21.9802 28.1657 21.7634 27.9489 21.4959 27.9489C21.2284 27.9489 21.0116 28.1657 21.0116 28.4332C21.0116 28.7006 21.2284 28.9175 21.4959 28.9175Z" fill="#FFE15A"/>
<path d="M29.3653 25.9149C29.6328 25.9149 29.8497 25.6981 29.8497 25.4306C29.8497 25.1631 29.6328 24.9463 29.3653 24.9463C29.0979 24.9463 28.881 25.1631 28.881 25.4306C28.881 25.6981 29.0979 25.9149 29.3653 25.9149Z" fill="#FFE15A"/>
<path d="M28.2939 27.6246C28.5614 27.6246 28.7783 27.4077 28.7783 27.1403C28.7783 26.8728 28.5614 26.6559 28.2939 26.6559C28.0265 26.6559 27.8096 26.8728 27.8096 27.1403C27.8096 27.4077 28.0265 27.6246 28.2939 27.6246Z" fill="#FFE15A"/>
<path d="M26.5547 28.9175C26.8222 28.9175 27.039 28.7006 27.039 28.4332C27.039 28.1657 26.8222 27.9489 26.5547 27.9489C26.2872 27.9489 26.0704 28.1657 26.0704 28.4332C26.0704 28.7006 26.2872 28.9175 26.5547 28.9175Z" fill="#FFE15A"/>
<path d="M24.3569 28.3081H23.6431C23.249 28.3081 22.9294 27.9885 22.9294 27.5943C22.9294 27.2002 23.249 26.8806 23.6431 26.8806H24.3569C24.751 26.8806 25.0706 27.2002 25.0706 27.5943C25.0706 27.9886 24.751 28.3081 24.3569 28.3081Z" fill="#FFB478"/>
<path d="M26.8697 23.1343C27.1076 23.8331 27.6131 24.4725 28.2818 24.7398L28.2821 24.7401C28.9958 18.317 24 19.0307 24 19.0307C27.5684 19.0307 26.8697 23.1343 26.8697 23.1343Z" fill="#9B4B5A"/>
</svg>
