<svg width="48" height="48" viewBox="0 0 48 48" fill="none" xmlns="http://www.w3.org/2000/svg">
<path d="M47.9999 18.7587H0V9.10347C0 8.64644 0.370593 8.27585 0.827623 8.27585H47.1724C47.6294 8.27585 48 8.64644 48 9.10347L47.9999 18.7587Z" fill="#5AA587"/>
<path d="M47.1723 39.7241H0.827623C0.370593 39.7241 0 39.3535 0 38.8965V29.2414H47.9999V38.8965C47.9999 39.3536 47.6293 39.7241 47.1723 39.7241Z" fill="#FFE15A"/>
<path d="M47.9999 18.7585H0V29.2407H47.9999V18.7585Z" fill="#464655"/>
<path d="M47.9999 17.8275H0V19.1346H47.9999V17.8275Z" fill="white"/>
<path d="M47.9999 28.8647H0V30.1718H47.9999V28.8647Z" fill="white"/>
<path d="M0.305249 39.5241L19.3216 24.4289C19.5977 24.2098 19.5977 23.7903 19.3216 23.571L0.305249 8.47601C0.122906 8.62779 0 8.84773 0 9.10348V38.8965C0 39.1524 0.122906 39.3723 0.305249 39.5241Z" fill="#FF4B55"/>
<path d="M7.66997 18.6166L8.87982 22.2443L12.7038 22.274C12.9176 22.2757 13.0062 22.5486 12.8342 22.6756L9.75797 24.9473L10.9114 28.5933C10.9758 28.7972 10.7438 28.9659 10.5698 28.8415L7.45866 26.6177L4.34757 28.8415C4.17357 28.9658 3.94145 28.7972 4.00595 28.5933L5.15935 24.9473L2.08323 22.6756C1.9112 22.5486 1.99989 22.2757 2.21364 22.274L6.0376 22.2443L7.24744 18.6166C7.31532 18.4138 7.60229 18.4138 7.66997 18.6166Z" fill="#FFE15A"/>
<path d="M7.23723 25.3544L6.93816 25.6553H4.4371L5.1197 23.1506L5.3986 23.0112L4.95085 25.2443C4.9471 25.2719 4.95273 25.2993 4.97101 25.3214C4.9876 25.3434 5.0132 25.3544 5.04076 25.3544H7.23723Z" fill="white"/>
<path d="M7.83711 25.771C7.72883 25.8517 7.59674 25.8976 7.45912 25.8976C7.32149 25.8976 7.1894 25.8518 7.08112 25.771L7.45912 25.393L7.83711 25.771Z" fill="white"/>
<path d="M10.4815 25.6554H7.9804L7.68134 25.3545H9.87771C9.90527 25.3545 9.93086 25.3435 9.94746 25.3215C9.96574 25.2994 9.97136 25.2719 9.96761 25.2444L9.51986 23.0113L9.79877 23.1507L10.4815 25.6554Z" fill="white"/>
<path d="M9.76577 25.171H7.55093V22.8864C7.92162 22.5726 8.89962 22.7873 9.31427 22.9157L9.76577 25.171Z" fill="white"/>
<path d="M7.36739 22.8864V25.171H5.15265L5.60405 22.9158C6.0188 22.7873 6.9968 22.5727 7.36739 22.8864Z" fill="white"/>
<path d="M10.6906 25.7233L9.96575 23.0625C9.95844 23.0386 9.94194 23.0167 9.91803 23.0056L9.43362 22.7635C9.43175 22.7616 9.42987 22.7616 9.42631 22.7616C9.42444 22.7616 9.42444 22.7597 9.42266 22.7579C9.36387 22.7377 8.0226 22.3009 7.45925 22.7285C6.89591 22.3009 5.55454 22.7377 5.49585 22.7579C5.49398 22.7597 5.49398 22.7597 5.49219 22.7616C5.48844 22.7616 5.48676 22.7616 5.48488 22.7635L5.00048 23.0056C4.97657 23.0166 4.96016 23.0386 4.95276 23.0625L4.22788 25.7233C4.22057 25.7508 4.22601 25.7802 4.2426 25.8022C4.26089 25.8242 4.28845 25.839 4.31601 25.839H6.88494C7.03719 25.9912 7.24279 26.0811 7.45925 26.0811C7.67582 26.0811 7.88131 25.9912 8.03356 25.839H10.6025C10.6301 25.839 10.6575 25.8242 10.6759 25.8022C10.6924 25.7802 10.6979 25.7508 10.6906 25.7233ZM7.55094 22.8864C7.92163 22.5726 8.89962 22.7873 9.31428 22.9157L9.76569 25.1709H7.55094C7.55094 25.171 7.55094 22.8864 7.55094 22.8864ZM5.60404 22.9158C6.01879 22.7874 6.99679 22.5727 7.36738 22.8865V25.1711H5.15263L5.60404 22.9158ZM4.43704 25.6554L5.11963 23.1507L5.39854 23.0113L4.95079 25.2444C4.94704 25.272 4.95266 25.2994 4.97095 25.3215C4.98754 25.3435 5.01313 25.3545 5.0407 25.3545H7.23707L6.938 25.6554H4.43704ZM7.45916 25.8976C7.32154 25.8976 7.18944 25.8518 7.08116 25.771L7.45916 25.393L7.83716 25.771C7.72897 25.8517 7.59688 25.8976 7.45916 25.8976ZM7.98031 25.6554L7.68125 25.3545H9.87762C9.90519 25.3545 9.93078 25.3435 9.94737 25.3215C9.96565 25.2994 9.97128 25.2719 9.96753 25.2444L9.51978 23.0113L9.79869 23.1507L10.4813 25.6554H7.98031Z" fill="#464655"/>
<path d="M9.75321 20.4899C9.65965 20.555 9.5329 20.5439 9.45218 20.4632L9.33012 20.3411V20.6399L8.58321 21.3868H8.28443L7.08949 22.5818H6.79071L4.49309 24.8794C4.43647 24.9361 4.41678 25.0197 4.44209 25.0956L4.55019 25.4199L4.10206 25.868H3.80328L2.88988 26.7814C2.81694 26.8544 2.81694 26.9727 2.88988 27.0457L3.49269 27.6485C3.57969 27.7355 3.72238 27.7301 3.80244 27.6366L5.14775 26.0174L5.29709 25.5693L5.59587 25.2705L6.19343 26.1667L6.64156 25.7186L6.16353 25.0016L6.28259 24.8825C6.39837 24.7668 6.39837 24.5792 6.28259 24.4634L6.19343 24.3742L6.27734 24.2903C6.91493 24.8367 7.68049 24.978 8.4094 24.6655L8.15974 24.0829C7.55749 24.341 7.06568 24.1251 6.72359 23.844L7.98584 22.5817L7.93606 22.3327L8.28462 21.9842H8.5834L10.8241 19.7434L9.75321 20.4899Z" fill="#464655"/>
<path d="M5.29709 20.1917L4.99831 20.4905C4.9159 20.5729 4.9159 20.7067 4.99831 20.7893L5.04809 20.8391L4.55018 20.9387L3.20581 22.2831L3.95272 23.03L5.29709 21.6857L5.39665 21.1877L5.59587 21.3869L5.74521 21.2375L10.714 26.2063L11.0127 25.9075L6.04399 20.9387L6.19334 20.7894L5.59577 20.1918C5.51337 20.1092 5.37968 20.1092 5.29709 20.1917Z" fill="#464655"/>
</svg>
