<svg width="48" height="48" viewBox="0 0 48 48" fill="none" xmlns="http://www.w3.org/2000/svg">
<path d="M0 29.2411H47.9999V38.8963C47.9999 39.3533 47.6293 39.7239 47.1723 39.7239H0.827623C0.370593 39.7239 0 39.3533 0 38.8963V29.2411Z" fill="#73AF00"/>
<path d="M0.827623 8.276H47.1724C47.6294 8.276 48 8.64659 48 9.10362V18.7587H0V9.10353C0 8.6465 0.370593 8.276 0.827623 8.276Z" fill="#FF9B55"/>
<path d="M47.9999 18.7585H0V29.2407H47.9999V18.7585Z" fill="white"/>
<path d="M24.0001 28.1382C26.2855 28.1382 28.1382 26.2855 28.1382 24C28.1382 21.7146 26.2855 19.8619 24.0001 19.8619C21.7147 19.8619 19.862 21.7146 19.862 24C19.862 26.2855 21.7147 28.1382 24.0001 28.1382Z" fill="#FF9B55"/>
</svg>
