<svg width="48" height="48" viewBox="0 0 48 48" fill="none" xmlns="http://www.w3.org/2000/svg">
<g clip-path="url(#clip0_11_3921)">
<path d="M16 39.7239H0.827625C0.370594 39.7239 0 39.3533 0 38.8963V9.10326C0 8.64623 0.370594 8.27563 0.827625 8.27563H16V39.7239Z" fill="#73AF00"/>
<path d="M32.0007 8.27609H16.0004V39.7245H32.0007V8.27609Z" fill="white"/>
<path d="M47.1724 39.7239H32V8.27563H47.1724C47.6294 8.27563 48 8.64623 48 9.10326V38.8963C48 39.3534 47.6294 39.7239 47.1724 39.7239Z" fill="#73AF00"/>
<path d="M29.5275 32.1183L26.9591 17.1359C26.8611 16.5638 26.6575 16.0149 26.3589 15.5172L24.0001 11.5859L21.6412 15.5173C21.3426 16.015 21.1391 16.5639 21.0411 17.136L18.4726 32.1184C18.4236 32.4046 18.6439 32.666 18.9343 32.666H23.0632V36.4135H24.9369V32.6659H29.0658C29.3561 32.6659 29.5766 32.4046 29.5275 32.1183Z" fill="#73AF00"/>
</g>
<defs>
<clipPath id="clip0_11_3921">
<rect width="48" height="48" fill="white"/>
</clipPath>
</defs>
</svg>
