<svg width="48" height="48" viewBox="0 0 48 48" fill="none" xmlns="http://www.w3.org/2000/svg">
<path d="M47.9999 18.7588H0V9.10362C0 8.64659 0.370593 8.276 0.827623 8.276H47.1724C47.6294 8.276 48 8.64659 48 9.10362L47.9999 18.7588Z" fill="#41479B"/>
<path d="M47.1723 39.7242H0.827623C0.370593 39.7242 0 39.3537 0 38.8966V29.2415H47.9999V38.8966C47.9999 39.3537 47.6293 39.7242 47.1723 39.7242Z" fill="#41479B"/>
<path d="M47.9999 18.7584H0V29.2406H47.9999V18.7584Z" fill="white"/>
<path d="M24 20.9698L21.4756 24.6822H26.5244L24 20.9698Z" fill="#AFEBFF"/>
<path d="M21.4756 24.6821L19.8421 27.0581H28.1579L26.5244 24.6821H21.4756Z" fill="#557DE6"/>
<path d="M24.6459 24.4748C24.6559 24.4541 24.6665 24.4337 24.6756 24.4125C24.6666 24.4335 24.6559 24.4541 24.6459 24.4748Z" fill="#73AF00"/>
<path d="M24.7155 24.3038C24.7217 24.2851 24.7292 24.267 24.7345 24.2481C24.7291 24.267 24.7216 24.285 24.7155 24.3038Z" fill="#73AF00"/>
<path d="M24.56 24.6306C24.5728 24.6102 24.5853 24.59 24.5972 24.5692C24.5854 24.5901 24.5727 24.6103 24.56 24.6306Z" fill="#73AF00"/>
<path d="M24.946 23.9389C24.9234 23.9389 24.9017 23.9427 24.8818 23.9493C24.9017 23.9426 24.9234 23.9389 24.946 23.9389Z" fill="#73AF00"/>
<path d="M24.8276 23.9781C24.7962 24.0027 24.7747 24.0369 24.7698 24.0759V24.0761V24.0759C24.7748 24.0369 24.7961 24.0026 24.8276 23.9781Z" fill="#73AF00"/>
<path d="M24.751 25.0861C24.7864 25.1197 24.8214 25.1516 24.8567 25.1821C25.0451 25.019 25.2418 24.8117 25.3798 24.5692C25.3699 24.5866 25.3592 24.6034 25.3487 24.6205C25.2198 24.3835 25.1517 24.1785 25.1187 24.0569C25.0999 23.9875 25.028 23.9391 24.946 23.939C24.9776 24.216 25.0455 24.7249 24.751 25.0861Z" fill="#73AF00"/>
<path d="M25.4981 24.3038C25.5043 24.2851 25.5118 24.267 25.5171 24.2481C25.5118 24.267 25.5043 24.285 25.4981 24.3038Z" fill="#73AF00"/>
<path d="M25.6104 23.9781C25.579 24.0027 25.5574 24.0369 25.5525 24.0759V24.0761V24.0759C25.5575 24.0369 25.5789 24.0026 25.6104 23.9781Z" fill="#73AF00"/>
<path d="M25.4287 24.4748C25.4387 24.4541 25.4493 24.4337 25.4584 24.4125C25.4492 24.4335 25.4387 24.4541 25.4287 24.4748Z" fill="#73AF00"/>
<path d="M27.0317 25.2771C26.7455 25.2771 26.4746 25.1398 26.3092 24.9062C26.0601 24.5542 25.9472 24.2261 25.9015 24.0578C25.8827 23.9883 25.8107 23.9399 25.7286 23.9399L25.7288 23.94C25.7665 24.2705 25.8561 24.9314 25.3191 25.2772H24.9694C24.955 25.2659 24.9411 25.255 24.9263 25.243C24.9266 25.2433 24.927 25.2436 24.9273 25.2438C24.8294 25.3716 24.6336 25.4074 24.4819 25.3292C23.8464 25.0018 23.9451 24.2877 23.9847 23.94C23.9027 23.9401 23.8309 23.9883 23.812 24.0578C23.779 24.1794 23.711 24.3844 23.5821 24.6214C23.5717 24.6044 23.5609 24.5876 23.5509 24.5702C23.7062 24.843 23.9365 25.0732 24.1447 25.2438C24.0468 25.3716 23.851 25.4074 23.6992 25.3292C23.0638 25.0018 23.1624 24.2876 23.2021 23.94C23.1201 23.9401 23.0482 23.9883 23.0294 24.0578C22.9964 24.1794 22.9283 24.3844 22.7994 24.6214C22.789 24.6044 22.7782 24.5876 22.7683 24.5702C22.9236 24.843 23.1539 25.0732 23.362 25.2438C23.2642 25.3716 23.0684 25.4074 22.9166 25.3292C22.2812 25.0018 22.3798 24.2877 22.4195 23.94L22.4197 23.9399C22.3376 23.9399 22.2656 23.9882 22.2468 24.0578C22.2011 24.2261 22.0882 24.5542 21.8391 24.9062C21.6738 25.1399 21.4029 25.2771 21.1166 25.2771H20.8815V25.5741H26.9699H27.1183V25.2771H27.0317Z" fill="#73AF00"/>
<path d="M24.2552 24.4124C24.2643 24.4336 24.2749 24.454 24.2849 24.4747C24.2749 24.454 24.2642 24.4335 24.2552 24.4124Z" fill="#73AF00"/>
<path d="M24.1965 24.248C24.2018 24.2669 24.2093 24.285 24.2155 24.3037C24.2093 24.285 24.2018 24.2669 24.1965 24.248Z" fill="#73AF00"/>
<path d="M24.1611 24.0762V24.076C24.1562 24.037 24.1348 24.0028 24.1032 23.9782C24.1346 24.0028 24.1562 24.037 24.1611 24.076V24.0762Z" fill="#73AF00"/>
<path d="M24.3336 24.5693C24.3456 24.5902 24.3582 24.6103 24.3709 24.6307C24.3582 24.6103 24.3456 24.5901 24.3336 24.5693Z" fill="#73AF00"/>
<path d="M24.47 24.7751C24.4684 24.7731 24.4671 24.7711 24.4656 24.769C24.4784 24.7521 24.4905 24.735 24.5028 24.7177C24.4906 24.7349 24.4781 24.752 24.4654 24.7688C24.4527 24.752 24.4402 24.735 24.4281 24.7177C24.4418 24.7371 24.4557 24.7561 24.47 24.7751Z" fill="#73AF00"/>
<path d="M24.5354 24.8572C24.5499 24.8746 24.5643 24.8919 24.5791 24.9086C24.5643 24.8919 24.5499 24.8746 24.5354 24.8572Z" fill="#73AF00"/>
<path d="M24.6939 25.0313C24.68 25.0175 24.6665 25.0029 24.6528 24.9886C24.6666 25.003 24.68 25.0175 24.6939 25.0313Z" fill="#73AF00"/>
<path d="M25.729 23.939L25.7287 23.9389C25.6836 23.9389 25.642 23.9536 25.6105 23.9781C25.5791 24.0026 25.5575 24.0368 25.5526 24.0758V24.076C25.5453 24.1346 25.5329 24.1917 25.5172 24.2479C25.512 24.2668 25.5044 24.2849 25.4982 24.3036C25.4861 24.3403 25.4736 24.3769 25.4584 24.4124C25.4493 24.4336 25.4387 24.454 25.4287 24.4747C25.4133 24.5065 25.3976 24.5383 25.38 24.5691C25.242 24.8115 25.0454 25.0189 24.8569 25.182C24.8218 25.1516 24.7867 25.1196 24.7513 25.086C25.0456 24.7248 24.9779 24.2158 24.9464 23.9389L24.9461 23.9388C24.9235 23.9388 24.9018 23.9425 24.8819 23.9492C24.8619 23.9559 24.8436 23.9658 24.8279 23.978C24.7964 24.0025 24.7749 24.0368 24.77 24.0758V24.0759C24.7627 24.1345 24.7502 24.1916 24.7345 24.2478C24.7292 24.2667 24.7216 24.2848 24.7154 24.3035C24.7034 24.3402 24.6909 24.3768 24.6757 24.4123C24.6666 24.4335 24.656 24.4539 24.646 24.4746C24.6306 24.5064 24.6149 24.5382 24.5973 24.569C24.5854 24.5899 24.5728 24.61 24.5601 24.6304C24.5417 24.6598 24.5229 24.689 24.5029 24.7173C24.4907 24.7346 24.4784 24.7519 24.4657 24.7687C24.4529 24.7517 24.4404 24.7346 24.4281 24.7173C24.4081 24.689 24.3893 24.6599 24.3709 24.6304C24.3582 24.61 24.3456 24.5898 24.3337 24.569C24.3161 24.5381 24.3005 24.5063 24.285 24.4746C24.275 24.4538 24.2644 24.4335 24.2553 24.4123C24.2401 24.3769 24.2277 24.3402 24.2156 24.3035C24.2094 24.2848 24.2019 24.2667 24.1965 24.2478C24.1808 24.1917 24.1684 24.1345 24.1611 24.0759V24.0758C24.1562 24.0368 24.1349 24.0025 24.1033 23.978C24.0719 23.9534 24.0302 23.9388 23.9851 23.9388L23.9849 23.9389C23.9453 24.2866 23.8466 25.0007 24.482 25.3281C24.5892 25.3833 24.7178 25.3811 24.8187 25.3303C24.8831 25.2979 24.9523 25.2761 25.0244 25.2761H25.3193C25.8563 24.9304 25.7667 24.2694 25.729 23.939Z" fill="#FFE15A"/>
<path d="M23.4141 24.248C23.4194 24.2669 23.427 24.285 23.4332 24.3037C23.427 24.285 23.4195 24.2669 23.4141 24.248Z" fill="#73AF00"/>
<path d="M23.3785 24.0762V24.076C23.3736 24.037 23.3522 24.0028 23.3206 23.9782C23.352 24.0028 23.3736 24.037 23.3785 24.076V24.0762Z" fill="#73AF00"/>
<path d="M23.4727 24.4124C23.4818 24.4336 23.4924 24.454 23.5025 24.4747C23.4923 24.454 23.4818 24.4335 23.4727 24.4124Z" fill="#73AF00"/>
<path d="M23.2026 23.9389C23.2252 23.9389 23.2469 23.9427 23.2668 23.9493C23.2468 23.9426 23.2251 23.9389 23.2026 23.9389Z" fill="#73AF00"/>
<path d="M23.6992 25.328C23.8511 25.4062 24.0468 25.3704 24.1446 25.2427C23.9365 25.0721 23.7062 24.8419 23.5509 24.569C23.5333 24.5382 23.5177 24.5064 23.5022 24.4746C23.4922 24.4539 23.4816 24.4336 23.4725 24.4124C23.4573 24.3769 23.4449 24.3403 23.4328 24.3035C23.4266 24.2849 23.4191 24.2668 23.4137 24.2478C23.398 24.1918 23.3856 24.1346 23.3783 24.076V24.0758C23.3734 24.0368 23.3521 24.0026 23.3205 23.978C23.3047 23.9658 23.2864 23.956 23.2665 23.9492C23.2465 23.9425 23.2248 23.9388 23.2022 23.9388L23.202 23.9389C23.1625 24.2866 23.0638 25.0006 23.6992 25.328Z" fill="#FFE15A"/>
<path d="M22.6314 24.2478C22.6367 24.2667 22.6443 24.2848 22.6504 24.3035C22.6443 24.2848 22.6368 24.2667 22.6314 24.2478Z" fill="#73AF00"/>
<path d="M22.69 24.4122C22.6991 24.4334 22.7097 24.4538 22.7197 24.4744C22.7097 24.4538 22.699 24.4333 22.69 24.4122Z" fill="#73AF00"/>
<path d="M22.5959 24.076V24.0758C22.591 24.0368 22.5696 24.0026 22.538 23.978C22.5694 24.0026 22.591 24.0368 22.5959 24.0758V24.076Z" fill="#73AF00"/>
<path d="M22.9167 25.328C23.0686 25.4062 23.2644 25.3704 23.3622 25.2427C23.154 25.0721 22.9238 24.8419 22.7684 24.569C22.7508 24.5382 22.7352 24.5064 22.7198 24.4746C22.7097 24.4539 22.6992 24.4336 22.6901 24.4124C22.6749 24.3769 22.6624 24.3403 22.6503 24.3035C22.6441 24.2849 22.6366 24.2668 22.6313 24.2478C22.6155 24.1918 22.6032 24.1346 22.5958 24.076V24.0758C22.591 24.0368 22.5696 24.0026 22.538 23.978C22.5066 23.9535 22.465 23.9388 22.4198 23.9388L22.4195 23.9389C22.3799 24.2866 22.2811 25.0006 22.9167 25.328Z" fill="#FFE15A"/>
<path d="M22.7489 22.758C22.7366 22.8053 22.7241 22.8528 22.7118 22.9001C23.1172 22.7785 23.5646 22.7055 24.05 22.7055C24.5354 22.7058 24.9828 22.7782 25.3882 22.9001C25.3759 22.8528 25.3634 22.8053 25.3511 22.758C24.9479 22.6539 24.514 22.5941 24.05 22.5943C23.5861 22.5942 23.1522 22.6539 22.7489 22.758Z" fill="#41479B"/>
<path d="M22.7649 22.6962C22.7526 22.7436 22.7401 22.791 22.7278 22.8384C23.1287 22.7165 23.5707 22.6434 24.0499 22.6432C24.5292 22.6434 24.9711 22.7164 25.372 22.8384C25.3597 22.791 25.3472 22.7436 25.3349 22.6962C24.9362 22.5914 24.5078 22.5321 24.0499 22.532C23.5919 22.5321 23.1636 22.5917 22.7649 22.6962Z" fill="#5AA0E6"/>
<path d="M22.7798 22.6391C22.7676 22.6864 22.7551 22.7339 22.7428 22.7812C23.1397 22.659 23.5764 22.5853 24.05 22.5855C24.5237 22.5855 24.9603 22.6589 25.3571 22.7812C25.3448 22.7339 25.3324 22.6864 25.3201 22.6391C24.9257 22.5343 24.5023 22.4742 24.05 22.4742C23.5976 22.4741 23.1743 22.5343 22.7798 22.6391Z" fill="#9BC800"/>
<path d="M22.7969 22.5739C22.7846 22.6213 22.7721 22.6687 22.7599 22.7161C23.1521 22.5934 23.583 22.5197 24.05 22.5197C24.5171 22.5199 24.948 22.5934 25.3402 22.7161C25.3279 22.6687 25.3155 22.6213 25.3032 22.5739C24.9134 22.4688 24.4961 22.4086 24.05 22.4084C23.604 22.4085 23.1866 22.4688 22.7969 22.5739Z" fill="#FFE14E"/>
<path d="M22.8137 22.5098C22.8014 22.5572 22.789 22.6046 22.7767 22.6519C23.1644 22.5289 23.5893 22.455 24.0501 22.4549C24.5109 22.4552 24.9358 22.5288 25.3235 22.6519C25.3112 22.6046 25.2987 22.5572 25.2864 22.5098C24.9015 22.4044 24.4899 22.3437 24.0501 22.3437C23.6103 22.3439 23.1987 22.4042 22.8137 22.5098Z" fill="#FFB14E"/>
<path d="M22.8206 22.4823C22.8119 22.5155 22.8034 22.5486 22.7947 22.5819C23.1773 22.4587 23.5962 22.384 24.0499 22.3841C24.5037 22.3839 24.9225 22.4584 25.3051 22.5819C25.2964 22.5487 25.2878 22.5156 25.2791 22.4823C24.8961 22.3767 24.4869 22.316 24.0498 22.3159C23.6128 22.3156 23.2037 22.3766 22.8206 22.4823Z" fill="#FF4B55"/>
<path d="M28.1579 27.2023H19.842C19.7872 27.2023 19.737 27.1721 19.7111 27.124C19.6852 27.0756 19.6882 27.0169 19.7185 26.9714L23.8765 20.7345C23.9316 20.6522 24.0685 20.6522 24.1236 20.7345L28.2816 26.9714C28.3119 27.0169 28.3148 27.0755 28.2889 27.124C28.263 27.1722 28.2128 27.2023 28.1579 27.2023ZM20.1194 26.9053H27.8804L23.9999 21.0846L20.1194 26.9053Z" fill="#FFE15A"/>
<path d="M24.2838 23.3375C24.2838 23.2069 24.1515 23.0083 23.9395 23.0083C23.8156 23.0083 23.7152 23.084 23.7152 23.1773C23.7152 23.224 23.7403 23.2661 23.7807 23.2967C23.7805 23.2984 23.7804 23.3002 23.7803 23.3018C23.7297 23.3329 23.6967 23.3795 23.6967 23.4325C23.6967 23.5216 23.7885 23.5938 23.9044 23.6003L23.9999 23.7912L24.086 23.6189C24.1992 23.5901 24.2838 23.4754 24.2838 23.3375Z" fill="#FF4B55"/>
</svg>
