<svg width="48" height="48" viewBox="0 0 48 48" fill="none" xmlns="http://www.w3.org/2000/svg">
<path d="M47.1723 39.7243H0.827623C0.370593 39.7243 0 39.3537 0 38.8966V9.10359C0 8.64656 0.370593 8.27597 0.827623 8.27597H47.1724C47.6294 8.27597 48 8.64656 48 9.10359V38.8966C47.9999 39.3538 47.6293 39.7243 47.1723 39.7243Z" fill="#FF4B55"/>
<path d="M47.9999 19.862H21.5172V8.27586H13.2413V19.862H0V28.1379H13.2413V39.7241H21.5172V28.1379H47.9999V19.862Z" fill="white"/>
<path d="M47.9999 21.5172H19.862V8.27586H14.8966V21.5172H0V26.4827H14.8966V39.7241H19.862V26.4827H47.9999V21.5172Z" fill="#41479B"/>
</svg>
