<svg width="48" height="48" viewBox="0 0 48 48" fill="none" xmlns="http://www.w3.org/2000/svg">
<path d="M47.1723 39.7243H0.827623C0.370593 39.7243 0 39.3537 0 38.8967V9.10362C0 8.64659 0.370593 8.276 0.827623 8.276H47.1724C47.6294 8.276 48 8.64659 48 9.10362V38.8967C47.9999 39.3538 47.6293 39.7243 47.1723 39.7243Z" fill="white"/>
<path d="M1.07587 10.3946L18.2216 22.9242H7.41973H5.01018L6.61855 24.7183L19.1076 38.6483H1.07587V10.3946ZM0.288843 8.487C0.115125 8.63878 0 8.85478 0 9.1034V38.8964C0 39.3535 0.370593 39.7241 0.827623 39.7241H21.5173L7.41973 24H21.5173L0.288843 8.487Z" fill="#41479B"/>
<path d="M1.07581 10.3947L18.2215 22.9242H7.41967H5.01011L6.61867 24.7182L19.1076 38.6483H1.07581V10.3947Z" fill="#FF4B55"/>
<path d="M6.31359 27.7875L6.97602 29.1546L8.2333 28.3019C8.28871 28.2642 8.36324 28.3072 8.35836 28.3741L8.24858 29.8893L9.76377 29.7795C9.83061 29.7746 9.87364 29.8491 9.83595 29.9045L8.9832 31.1618L10.3504 31.8243C10.4106 31.8535 10.4106 31.9394 10.3504 31.9686L8.9832 32.6311L9.83595 33.8884C9.87364 33.9438 9.83061 34.0183 9.76377 34.0134L8.24858 33.9036L8.35836 35.4188C8.36324 35.4857 8.28871 35.5287 8.2333 35.491L6.97602 34.6383L6.31359 36.0054C6.28434 36.0657 6.19846 36.0657 6.16921 36.0054L5.50677 34.6383L4.2495 35.491C4.19409 35.5287 4.11956 35.4857 4.12443 35.4188L4.23421 33.9036L2.71903 34.0134C2.65219 34.0183 2.60915 33.9438 2.64684 33.8884L3.49959 32.6311L2.13216 31.9689C2.07187 31.9397 2.07187 31.8538 2.13216 31.8245L3.49931 31.1621L2.64656 29.9048C2.60887 29.8494 2.6519 29.7749 2.71875 29.7798L4.23393 29.8895L4.12415 28.3744C4.11928 28.3075 4.19381 28.2645 4.24921 28.3022L5.50649 29.1549L6.16893 27.7878C6.19837 27.7272 6.28434 27.7272 6.31359 27.7875Z" fill="white"/>
<path d="M8.03371 19.8809L7.45855 19.488L7.9649 18.9573L7.2433 18.8255L7.49005 18.1349L6.77727 18.308L6.72168 17.5768L6.14099 18.0248L5.7929 17.3795L5.44471 18.025L4.86403 17.577L4.80843 18.3082L4.09565 18.1351L4.3424 18.8257L3.62081 18.9575L4.12715 19.4882L3.552 19.8811C2.82628 19.5423 2.18822 19.0472 1.6861 18.4348C2.02341 20.3999 3.73125 21.8969 5.79271 21.8969C7.85418 21.8969 9.56193 20.3999 9.89933 18.4348C9.39749 19.0471 8.75933 19.5421 8.03371 19.8809Z" fill="white"/>
</svg>
