<svg width="48" height="48" viewBox="0 0 48 48" fill="none" xmlns="http://www.w3.org/2000/svg">
<path d="M47.1723 39.7242H0.827623C0.370593 39.7242 0 39.3536 0 38.8966V9.10362C0 8.64659 0.370593 8.276 0.827623 8.276H47.1724C47.6294 8.276 48 8.64659 48 9.10362V38.8966C47.9999 39.3537 47.6293 39.7242 47.1723 39.7242Z" fill="#41479B"/>
<path d="M47.9999 22.3445H0V25.6548H47.9999V22.3445Z" fill="#FFE15A"/>
<path d="M11.1724 28.9656L11.6543 30.8912L13.0344 29.4645L12.4891 31.3731L14.3975 30.8276L12.971 32.2079L14.8965 32.6897L12.971 33.1717L14.3975 34.5518L12.4891 34.0064L13.0344 35.915L11.6543 34.4884L11.1724 36.4139L10.6904 34.4884L9.3103 35.915L9.85574 34.0064L7.94718 34.5518L9.37377 33.1717L7.44824 32.6897L9.37377 32.2079L7.94718 30.8276L9.85574 31.3731L9.3103 29.4645L10.6904 30.8912L11.1724 28.9656Z" fill="white"/>
</svg>
