<svg width="48" height="48" viewBox="0 0 48 48" fill="none" xmlns="http://www.w3.org/2000/svg">
<path d="M47.1723 39.7242H0.827623C0.370593 39.7242 0 39.3536 0 38.8965V9.10359C0 8.64656 0.370593 8.27597 0.827623 8.27597H47.1724C47.6294 8.27597 48 8.64656 48 9.10359V38.8965C47.9999 39.3537 47.6293 39.7242 47.1723 39.7242Z" fill="#FFE15A"/>
<path d="M23.1723 24.0001H0.827623C0.370593 24.0001 0 23.6295 0 23.1724V9.10359C0 8.64656 0.370593 8.27597 0.827623 8.27597H23.1723C23.6294 8.27597 24 8.64656 24 9.10359V23.1725C23.9999 23.6297 23.6295 24.0001 23.1723 24.0001Z" fill="#41479B"/>
<path d="M23.1723 8.27597H21.7349L14.0689 13.2984V8.27597H9.93101V13.2984L2.26509 8.27597H0.827623C0.370593 8.27597 0 8.64656 0 9.10359V9.76003L6.57702 14.0691H0V18.207H6.57702L0 22.5161V23.1724C0 23.6295 0.370593 24.0001 0.827623 24.0001H2.26509L9.93101 18.9776V24.0001H14.0689V18.9776L21.7348 24.0001H23.1722C23.6293 24.0001 23.9999 23.6295 23.9999 23.1724V22.516L17.4229 18.207H23.9999V14.0691H17.4228L23.9999 9.76003V9.10359C23.9999 8.64656 23.6295 8.27597 23.1723 8.27597Z" fill="white"/>
<path d="M23.9999 14.8967H13.2413V8.27597H10.7585V14.8967H0V17.3794H10.7585V24.0001H13.2413V17.3794H23.9999V14.8967Z" fill="#FF4B55"/>
<path d="M9.10339 14.0689L0.394405 8.41568C0.162656 8.5624 0 8.80877 0 9.10343V9.14636L7.58333 14.0689H9.10339Z" fill="#FF4B55"/>
<path d="M15.5891 14.0691L23.8742 8.691C23.7302 8.44735 23.4761 8.27597 23.1725 8.27597H22.9935L14.0691 14.0691H15.5891Z" fill="#FF4B55"/>
<path d="M8.38813 18.2068L0.118931 23.5746C0.261524 23.8242 0.519524 23.9999 0.827586 23.9999H0.983679L9.90819 18.2068H8.38813Z" fill="#FF4B55"/>
<path d="M23.9867 23.2375L16.2368 18.2069H14.7169L23.5174 23.9195C23.7812 23.7971 23.9619 23.5407 23.9867 23.2375Z" fill="#FF4B55"/>
<path d="M11.9999 18.6207C13.3711 18.6207 14.4827 17.5091 14.4827 16.1379C14.4827 14.7667 13.3711 13.6551 11.9999 13.6551C10.6287 13.6551 9.51712 14.7667 9.51712 16.1379C9.51712 17.5091 10.6287 18.6207 11.9999 18.6207Z" fill="#41479B"/>
<path d="M12.1676 14.1252L12.5824 15.3689L13.8934 15.379C14.0632 15.3803 14.1335 15.597 13.997 15.6978L12.9423 16.4765L13.3377 17.7265C13.3889 17.8883 13.2047 18.0222 13.0666 17.9235L12 17.1612L10.9334 17.9235C10.7953 18.0222 10.6111 17.8883 10.6623 17.7265L11.0578 16.4765L10.0031 15.6978C9.86647 15.5969 9.93688 15.3803 10.1067 15.379L11.4177 15.3689L11.8325 14.1252C11.8861 13.9641 12.1139 13.9641 12.1676 14.1252Z" fill="#FFE15A"/>
<path d="M5.29695 15.1382L5.51998 15.8069L6.22488 15.8123C6.3161 15.8131 6.35397 15.9295 6.28057 15.9837L5.71357 16.4025L5.92619 17.0745C5.95376 17.1615 5.85457 17.2335 5.78041 17.1804L5.20704 16.7705L4.63367 17.1804C4.55942 17.2335 4.46042 17.1615 4.48789 17.0745L4.70051 16.4025L4.13351 15.9837C4.06011 15.9295 4.09789 15.813 4.1892 15.8123L4.8941 15.8069L5.11713 15.1382C5.14573 15.0516 5.26807 15.0516 5.29695 15.1382Z" fill="#FFE15A"/>
<path d="M18.9454 15.1382L19.1685 15.8069L19.8734 15.8123C19.9646 15.8131 20.0025 15.9295 19.9291 15.9837L19.3621 16.4025L19.5747 17.0745C19.6022 17.1615 19.5031 17.2335 19.4289 17.1804L18.8555 16.7705L18.2822 17.1804C18.2079 17.2335 18.1089 17.1615 18.1364 17.0745L18.349 16.4025L17.782 15.9837C17.7086 15.9295 17.7464 15.813 17.8377 15.8123L18.5426 15.8069L18.7656 15.1382C18.7942 15.0516 18.9166 15.0516 18.9454 15.1382Z" fill="#FFE15A"/>
<path d="M12.1009 10.115L12.3239 10.7837L13.0288 10.7892C13.12 10.7899 13.1579 10.9064 13.0845 10.9606L12.5174 11.3792L12.73 12.0512C12.7576 12.1382 12.6584 12.2102 12.5842 12.1572L12.0109 11.7473L11.4375 12.1572C11.3632 12.2102 11.2642 12.1382 11.2917 12.0512L11.5043 11.3792L10.9373 10.9605C10.8639 10.9063 10.9017 10.7897 10.993 10.7891L11.6979 10.7836L11.921 10.1149C11.9496 10.0285 12.0721 10.0285 12.1009 10.115Z" fill="#FFE15A"/>
<path d="M12.1009 20.2797L12.3239 20.9484L13.0288 20.9538C13.12 20.9546 13.1579 21.071 13.0845 21.1252L12.5174 21.5439L12.73 22.2159C12.7576 22.3029 12.6584 22.3749 12.5842 22.3218L12.0109 21.912L11.4375 22.3218C11.3632 22.3749 11.2642 22.3029 11.2917 22.2159L11.5043 21.5439L10.9373 21.1251C10.8639 21.0709 10.9017 20.9544 10.993 20.9538L11.6979 20.9483L11.921 20.2796C11.9496 20.1932 12.0721 20.1932 12.1009 20.2797Z" fill="#FFE15A"/>
</svg>
