<svg width="48" height="48" viewBox="0 0 48 48" fill="none" xmlns="http://www.w3.org/2000/svg">
<path d="M47.1723 39.7241H0.827623C0.370593 39.7241 0 39.3536 0 38.8965V9.10349C0 8.64646 0.370593 8.27586 0.827623 8.27586H47.1724C47.6294 8.27586 48 8.64646 48 9.10349V38.8965C47.9999 39.3536 47.6293 39.7241 47.1723 39.7241Z" fill="#41479B"/>
<path d="M23.1723 8.27597H21.7348L14.0688 13.2985V8.27597H9.93092V13.2985L2.265 8.27597H0.827623C0.370593 8.27597 0 8.64647 0 9.1035V9.75994L6.57702 14.069H0V18.2069H6.57702L0 22.516V23.1724C0 23.6295 0.370593 24.0001 0.827623 24.0001H2.26518L9.93111 18.9775V24.0001H14.069V18.9775L21.7349 24.0001H23.1724C23.6295 24.0001 24 23.6295 24 23.1724V22.516L17.423 18.207H24V14.0691H17.4229L24 9.76003V9.10359C24 8.64647 23.6294 8.27597 23.1723 8.27597Z" fill="white"/>
<path d="M24 14.8967H13.2413V8.27597H10.7586V14.8967H0V17.3794H10.7586V24.0001H13.2413V17.3794H24V14.8967Z" fill="#FF4B55"/>
<path d="M9.10339 14.0691L0.394405 8.41589C0.162656 8.56252 0 8.80899 0 9.10355V9.14649L7.58333 14.0691H9.10339Z" fill="#FF4B55"/>
<path d="M15.5891 14.069L23.8742 8.691C23.7302 8.44735 23.4761 8.27597 23.1725 8.27597H22.9935L14.0691 14.069H15.5891Z" fill="#FF4B55"/>
<path d="M8.38813 18.2069L0.118931 23.5747C0.261524 23.8243 0.519524 24 0.827586 24H0.983679L9.90829 18.2069H8.38813Z" fill="#FF4B55"/>
<path d="M23.9868 23.2374L16.2369 18.2069H14.7169L23.5175 23.9196C23.7812 23.7973 23.962 23.5408 23.9868 23.2374Z" fill="#FF4B55"/>
<path d="M37.0757 34.5106C37.0422 34.5106 37.0083 34.5 36.9796 34.4798L36.0001 33.7799L35.0205 34.4798C34.9918 34.5 34.9578 34.5106 34.9243 34.5106C34.89 34.5106 34.856 34.5 34.827 34.479C34.7696 34.437 34.7449 34.3626 34.7663 34.2948L35.1296 33.1471L34.1614 32.4327C34.1041 32.3899 34.0802 32.3164 34.1021 32.2485C34.1243 32.1806 34.1869 32.1345 34.2585 32.1337L35.4623 32.124L35.843 30.982C35.8657 30.915 35.9291 30.8689 36.0002 30.8689C36.0714 30.8689 36.1349 30.9149 36.1575 30.982L36.5382 32.124L37.742 32.1337C37.8136 32.1346 37.8762 32.1806 37.8984 32.2485C37.9202 32.3164 37.8963 32.3899 37.8391 32.4327L36.8709 33.1471L37.2342 34.2948C37.2556 34.3626 37.231 34.437 37.1735 34.479C37.1441 34.5 37.1098 34.5106 37.0757 34.5106Z" fill="#FF4B55"/>
<path d="M36 31.0344L36.4182 32.2886L37.7403 32.2988L36.6767 33.0842L37.0755 34.3447L36 33.576L34.9244 34.3448L35.3232 33.0844L34.2596 32.299L35.5817 32.2888L36 31.0344ZM36 30.7034C35.8576 30.7034 35.7311 30.7945 35.686 30.9297L35.3426 31.9595L34.2571 31.9679C34.1147 31.9689 33.9889 32.0611 33.9448 32.1967C33.9008 32.3322 33.9485 32.4806 34.063 32.5653L34.9361 33.2101L34.6088 34.245C34.5658 34.3808 34.6146 34.529 34.7298 34.6127C34.7878 34.6548 34.8561 34.6759 34.9244 34.6759C34.9918 34.6759 35.0593 34.6552 35.117 34.6141L36.0001 33.9829L36.8832 34.6141C36.9409 34.6552 37.0083 34.6759 37.0757 34.6759C37.144 34.6759 37.2123 34.6548 37.2703 34.6127C37.3856 34.5289 37.4343 34.3808 37.3914 34.245L37.064 33.2101L37.9372 32.5653C38.0518 32.4806 38.0994 32.3322 38.0553 32.1967C38.0112 32.0612 37.8855 31.9689 37.743 31.9679L36.6576 31.9595L36.3142 30.9297C36.269 30.7946 36.1424 30.7034 36 30.7034Z" fill="white"/>
<path d="M37.0757 21.1682C37.0418 21.1682 37.0083 21.1576 36.9796 21.1374L36.0001 20.4368L35.0205 21.1375C34.9918 21.1577 34.9578 21.1683 34.9243 21.1683C34.8903 21.1683 34.856 21.1577 34.827 21.1367C34.7696 21.0947 34.7449 21.0203 34.7663 20.9525L35.1296 19.8048L34.1614 19.0896C34.1041 19.0467 34.0802 18.9724 34.1021 18.9054C34.1243 18.8375 34.1873 18.7914 34.2585 18.7906L35.4623 18.7817L35.843 17.6397C35.8657 17.5727 35.9291 17.5266 36.0002 17.5266C36.0714 17.5266 36.1349 17.5726 36.1575 17.6397L36.5382 18.7817L37.742 18.7906C37.8132 18.7914 37.8762 18.8375 37.8984 18.9054C37.9202 18.9724 37.8963 19.0467 37.8391 19.0896L36.8709 19.8048L37.2342 20.9525C37.2556 21.0203 37.231 21.0947 37.1735 21.1367C37.1441 21.1577 37.1098 21.1682 37.0757 21.1682Z" fill="#FF4B55"/>
<path d="M36 17.6919L36.4182 18.9461L37.7403 18.9563L36.6767 19.7417L37.0755 21.0022L36 20.2334L34.9244 21.0022L35.3232 19.7417L34.2596 18.9563L35.5817 18.9461L36 17.6919ZM36 17.3609C35.8576 17.3609 35.7311 17.452 35.686 17.5872L35.3426 18.6169L34.2571 18.6254C34.1147 18.6264 33.9889 18.7186 33.9448 18.8541C33.9008 18.9897 33.9485 19.1381 34.063 19.2228L34.9361 19.8676L34.6088 20.9025C34.5658 21.0383 34.6146 21.1864 34.7298 21.2702C34.7878 21.3123 34.8561 21.3333 34.9244 21.3333C34.9918 21.3333 35.0593 21.3127 35.117 21.2716L36.0001 20.6403L36.8832 21.2716C36.9409 21.3126 37.0083 21.3333 37.0757 21.3333C37.144 21.3333 37.2123 21.3123 37.2703 21.2702C37.3856 21.1863 37.4343 21.0383 37.3914 20.9025L37.064 19.8676L37.9372 19.2228C38.0518 19.1381 38.0994 18.9897 38.0553 18.8541C38.0112 18.7186 37.8855 18.6264 37.743 18.6254L36.6576 18.6169L36.3142 17.5872C36.269 17.452 36.1424 17.3609 36 17.3609Z" fill="white"/>
<path d="M42.8689 25.306C42.8349 25.306 42.8015 25.2955 42.7727 25.2753L41.7933 24.5746L40.8137 25.2753C40.785 25.2955 40.7511 25.306 40.7175 25.306C40.6836 25.306 40.6492 25.2955 40.6202 25.2745C40.5628 25.2325 40.5382 25.1581 40.5595 25.0902L40.9228 23.9426L39.9547 23.2273C39.8973 23.1845 39.8735 23.1101 39.8953 23.0431C39.9175 22.9752 39.9805 22.9291 40.0517 22.9284L41.2555 22.9195L41.6362 21.7775C41.6589 21.7105 41.7223 21.6643 41.7935 21.6643C41.8646 21.6643 41.9281 21.7104 41.9507 21.7775L42.3314 22.9195L43.5353 22.9284C43.6064 22.9292 43.6694 22.9752 43.6916 23.0431C43.7135 23.1101 43.6896 23.1845 43.6323 23.2273L42.6641 23.9426L43.0274 25.0902C43.0488 25.1581 43.0242 25.2325 42.9668 25.2745C42.9372 25.2955 42.9029 25.306 42.8689 25.306Z" fill="#FF4B55"/>
<path d="M41.7931 21.8298L42.2113 23.084L43.5334 23.0942L42.4698 23.8795L42.8686 25.1401L41.793 24.3712L40.7174 25.1401L41.1163 23.8796L40.0527 23.0943L41.3747 23.0841L41.7931 21.8298ZM41.7931 21.4988C41.6507 21.4988 41.5242 21.5899 41.4791 21.7251L41.1357 22.7548L40.0502 22.7633C39.9078 22.7643 39.782 22.8564 39.7379 22.992C39.6939 23.1276 39.7416 23.276 39.8561 23.3606L40.7293 24.0054L40.4019 25.0403C40.3589 25.1762 40.4077 25.3243 40.5229 25.408C40.5809 25.4501 40.6492 25.4712 40.7175 25.4712C40.7849 25.4712 40.8524 25.4506 40.91 25.4094L41.7931 24.7782L42.6763 25.4094C42.7339 25.4505 42.8013 25.4712 42.8688 25.4712C42.9371 25.4712 43.0054 25.4501 43.0634 25.408C43.1787 25.3242 43.2274 25.1762 43.1845 25.0403L42.8571 24.0054L43.7303 23.3606C43.8449 23.276 43.8925 23.1276 43.8484 22.992C43.8043 22.8564 43.6786 22.7643 43.5361 22.7633L42.4507 22.7548L42.1073 21.7251C42.0621 21.5899 41.9356 21.4988 41.7931 21.4988Z" fill="white"/>
<path d="M31.2827 26.9613C31.2487 26.9613 31.2153 26.9507 31.1865 26.9305L30.2071 26.2298L29.2275 26.9305C29.1988 26.9507 29.1648 26.9613 29.1313 26.9613C29.0973 26.9613 29.063 26.9507 29.034 26.9297C28.9766 26.8877 28.9519 26.8133 28.9733 26.7455L29.3366 25.5978L28.3684 24.8826C28.3111 24.8397 28.2872 24.7654 28.3091 24.6984C28.3313 24.6305 28.3943 24.5844 28.4655 24.5836L29.6693 24.5747L30.05 23.4327C30.0727 23.3657 30.1361 23.3196 30.2072 23.3196C30.2784 23.3196 30.3419 23.3656 30.3645 23.4327L30.7452 24.5747L31.949 24.5836C32.0202 24.5844 32.0832 24.6305 32.1054 24.6984C32.1273 24.7654 32.1033 24.8397 32.0461 24.8826L31.0779 25.5978L31.4412 26.7455C31.4626 26.8133 31.438 26.8877 31.3805 26.9297C31.351 26.9508 31.3167 26.9613 31.2827 26.9613Z" fill="#FF4B55"/>
<path d="M30.2069 23.485L30.6251 24.7392L31.9472 24.7494L30.8836 25.5348L31.2824 26.7953L30.2068 26.0265L29.1312 26.7953L29.53 25.5348L28.4664 24.7494L29.7885 24.7392L30.2069 23.485ZM30.2069 23.154C30.0645 23.154 29.9379 23.2451 29.8928 23.3803L29.5494 24.4101L28.464 24.4185C28.3216 24.4195 28.1958 24.5117 28.1517 24.6473C28.1077 24.7828 28.1554 24.9312 28.2698 25.0159L29.143 25.6607L28.8157 26.6956C28.7727 26.8314 28.8215 26.9796 28.9367 27.0633C28.9947 27.1054 29.063 27.1265 29.1313 27.1265C29.1987 27.1265 29.2662 27.1058 29.3238 27.0647L30.2069 26.4335L31.09 27.0647C31.1477 27.1058 31.2151 27.1265 31.2825 27.1265C31.3507 27.1265 31.4191 27.1054 31.4771 27.0633C31.5923 26.9795 31.6411 26.8314 31.5981 26.6956L31.2708 25.6607L32.1439 25.0159C32.2586 24.9312 32.3061 24.7828 32.2621 24.6473C32.218 24.5117 32.0923 24.4195 31.9498 24.4185L30.8644 24.4101L30.521 23.3803C30.4759 23.2451 30.3493 23.154 30.2069 23.154Z" fill="white"/>
</svg>
