<svg width="48" height="48" viewBox="0 0 48 48" fill="none" xmlns="http://www.w3.org/2000/svg">
<path d="M47.9999 18.7583H0V9.10314C0 8.64611 0.370593 8.27551 0.827623 8.27551H47.1724C47.6294 8.27551 48 8.64611 48 9.10314L47.9999 18.7583Z" fill="white"/>
<path d="M47.1723 39.724H0.827623C0.370593 39.724 0 39.3534 0 38.8964V29.2413H47.9999V38.8964C47.9999 39.3535 47.6293 39.724 47.1723 39.724Z" fill="#73AF00"/>
<path d="M47.9999 18.7578H0V29.2399H47.9999V18.7578Z" fill="#FF4B55"/>
<path d="M12.4138 39.7238H0.827623C0.370593 39.7238 0 39.3532 0 38.8962V9.10314C0 8.64611 0.370593 8.27551 0.827623 8.27551H12.4138V39.7238Z" fill="#FF4B55"/>
<path d="M3.38014 15.135C3.33383 15.1403 3.28911 15.1459 3.24551 15.1517V15.7411C3.28939 15.7523 3.33411 15.7633 3.38014 15.7742V15.135Z" fill="white"/>
<path d="M5.41892 16.2586C5.29601 16.2487 5.1072 16.2298 4.88182 16.2023L3.46817 17.4596C3.65126 17.4875 3.87073 17.5247 3.96233 17.5538C4.32561 17.236 4.81254 16.803 5.41892 16.2586Z" fill="white"/>
<path d="M7.54623 14.2585V14.1966V14.1375H5.03824V14.1966V14.2585V14.3177H7.54623V14.2585Z" fill="white"/>
<path d="M5.68916 10.6719C5.68916 10.8485 5.95532 10.9977 6.27041 10.9977C6.58551 10.9977 6.85166 10.8485 6.85166 10.6719C6.85166 10.4953 6.58551 10.3461 6.27041 10.3461C5.95532 10.3461 5.68916 10.4954 5.68916 10.6719Z" fill="white"/>
<path d="M5.14561 15.0552C4.57946 15.0524 4.01443 15.0732 3.55252 15.1169V15.8127C4.09524 15.9291 4.72749 16.0184 5.14561 16.0628C5.14561 16.0627 5.14561 15.0552 5.14561 15.0552Z" fill="white"/>
<path d="M2.22911 18.4889C2.45289 18.4841 2.94442 18.3957 3.27724 18.1358C3.38036 18.0551 3.55652 17.9068 3.80411 17.6918C3.6362 17.6573 3.35449 17.6155 3.2043 17.5949L2.22911 18.4889Z" fill="white"/>
<path d="M5.46853 13.9653V13.649C5.42615 13.5858 5.38237 13.5207 5.33765 13.4544L4.95262 13.7344C5.02931 13.8662 5.07843 13.9499 5.08753 13.9652L5.46853 13.9653Z" fill="white"/>
<path d="M2.50604 15.3937C2.50482 15.3988 2.50182 15.4108 2.52113 15.4357C2.59257 15.5272 2.79929 15.6147 3.07379 15.6943V15.1772C2.74426 15.2318 2.52845 15.304 2.50604 15.3937Z" fill="white"/>
<path d="M6.91101 15.1468V14.4902H5.64088V16.094H5.96385C6.48604 16.094 6.91101 15.669 6.91101 15.1468Z" fill="white"/>
<path d="M4.86974 12.7614C4.18968 11.759 3.4634 10.7054 3.28612 10.4966C3.31152 10.5899 3.37284 10.7652 3.51609 11.0935C3.70087 11.517 4.14937 12.3288 4.52071 12.9824L4.86974 12.7614Z" fill="white"/>
<path d="M4.60593 13.1326C4.70268 13.3019 4.79127 13.4559 4.86599 13.5849L5.24164 13.3117C5.1523 13.179 5.06033 13.043 4.96649 12.9044L4.60593 13.1326Z" fill="white"/>
<path d="M5.46896 16.0909V15.0593C5.4188 15.0583 5.36864 15.0572 5.31821 15.0566V16.0797C5.37624 16.0847 5.42677 16.0886 5.46896 16.0909Z" fill="white"/>
<path d="M6.91122 13.0796H5.64101V13.2599H6.91122V13.0796Z" fill="white"/>
<path d="M8.67638 13.9545V13.9653H8.74097C8.7886 13.9653 8.82703 14.0037 8.82703 14.0514V14.404C8.82703 14.4516 8.7886 14.49 8.74097 14.49H8.67638V14.5008C8.67638 14.5482 8.715 14.5869 8.76244 14.5869H10.2156C10.263 14.5869 10.3016 14.5482 10.3016 14.5008V13.9545C10.3016 13.9072 10.263 13.8685 10.2156 13.8685H8.76253C8.715 13.8684 8.67638 13.907 8.67638 13.9545Z" fill="white"/>
<path d="M10.3022 18.4841L9.33235 17.5949C9.18217 17.6156 8.90054 17.6573 8.73254 17.6918C8.98464 17.9105 9.1607 18.0588 9.25942 18.1359C9.58707 18.3917 10.0686 18.4814 10.3022 18.4841Z" fill="white"/>
<path d="M8.31021 14.1966V14.2585V14.3177H8.65474V14.1375H8.31021V14.1966Z" fill="white"/>
<path d="M8.57381 17.5541C8.6654 17.5248 8.88515 17.4876 9.06862 17.4597L6.98606 15.6013C6.92962 15.7281 6.85087 15.8427 6.75394 15.9394L6.80878 15.9883C7.56319 16.6637 8.15297 17.1866 8.57381 17.5541Z" fill="white"/>
<path d="M3.90806 14.5008V14.49H3.84337C3.79574 14.49 3.75731 14.4516 3.75731 14.404V14.0514C3.75731 14.0037 3.79574 13.9653 3.84337 13.9653H3.90796V13.9545C3.90796 13.9072 3.86934 13.8685 3.8219 13.8685H2.36878C2.32134 13.8685 2.28271 13.9072 2.28271 13.9545V14.5008C2.28271 14.5482 2.32134 14.5869 2.36878 14.5869H3.8219C3.86943 14.5869 3.90806 14.5482 3.90806 14.5008Z" fill="white"/>
<path d="M4.27368 14.2585V14.1966V14.1375H3.92915V14.3177H4.27368V14.2585Z" fill="white"/>
<path d="M7.58415 13.7344L7.19912 13.4544C7.15975 13.513 7.12122 13.5703 7.08344 13.6264V13.9652H7.44925C7.45834 13.9499 7.50746 13.8662 7.58415 13.7344Z" fill="white"/>
<path d="M5.7561 12.5526H6.79626L6.56732 12.2985H5.98504L5.7561 12.5526Z" fill="white"/>
<path d="M6.91122 12.7329H5.64101V12.9078H6.91122V12.7329Z" fill="white"/>
<path d="M6.27069 11.1697C6.18697 11.1697 6.1085 11.1589 6.03387 11.143V12.1164H6.51284V11.142C6.43672 11.1587 6.35628 11.1697 6.27069 11.1697Z" fill="white"/>
<path d="M5.64088 13.6131H6.90557C6.90538 13.6023 6.90726 13.5918 6.91119 13.5814V13.4328H5.64088V13.6131Z" fill="white"/>
<path d="M7.2952 13.3117L7.67085 13.5849C7.74557 13.4559 7.83416 13.3019 7.93091 13.1326L7.57035 12.9044C7.47641 13.043 7.38463 13.179 7.2952 13.3117Z" fill="white"/>
<path d="M6.91122 13.7853H5.64101V13.9656H6.91122V13.7853Z" fill="white"/>
<path d="M8.01641 12.9832C8.38766 12.3297 8.83615 11.5178 9.02103 11.0942C9.16465 10.7652 9.22587 10.5898 9.25119 10.4968C9.07709 10.7011 8.34903 11.7571 7.66728 12.7621L8.01641 12.9832Z" fill="white"/>
<path d="M10.542 18.4706L9.41901 17.4407C9.40016 17.4235 9.37476 17.415 9.34926 17.4189C9.33969 17.4201 9.31804 17.4231 9.28926 17.4271C9.28766 17.4255 9.2871 17.4233 9.28532 17.4219L7.04686 15.4244C7.06973 15.3354 7.08304 15.2427 7.08304 15.1468V14.4902H7.62604C7.69598 14.5812 7.80473 14.6409 7.92801 14.6409C8.05138 14.6409 8.16013 14.5812 8.22998 14.4902H8.50392V14.5009C8.50392 14.6433 8.61979 14.7592 8.7622 14.7592H10.2153C10.3577 14.7592 10.4736 14.6433 10.4736 14.5009V13.9547C10.4736 13.8123 10.3577 13.6964 10.2153 13.6964H8.76238C8.61998 13.6964 8.5041 13.8123 8.5041 13.9547V13.9654H8.23017C8.16023 13.8744 8.05148 13.8147 7.9282 13.8147C7.83464 13.8147 7.75007 13.8498 7.6836 13.9056C7.97385 13.4088 8.88576 11.8338 9.17863 11.1626C9.49279 10.4424 9.46748 10.3494 9.39323 10.2897C9.31485 10.227 9.21566 10.2991 9.17826 10.3265C9.03416 10.4313 7.63701 12.4954 7.08314 13.3181V12.6388C7.08314 12.6369 7.0822 12.6352 7.08211 12.6334L7.08201 12.6333C7.08004 12.6041 7.06373 12.5798 7.03992 12.5659L6.68489 12.1721V11.0894C6.8902 11.0013 7.02398 10.849 7.02398 10.6718C7.02398 10.3926 6.69295 10.1738 6.27042 10.1738C5.84789 10.1738 5.51686 10.3926 5.51686 10.6718C5.51686 10.8504 5.65308 11.0035 5.8613 11.0912V12.1783L5.51301 12.5646C5.48686 12.5794 5.46839 12.6064 5.46839 12.6386V13.3404C4.9253 12.5335 3.50349 10.4321 3.35827 10.3265C3.32067 10.2993 3.22139 10.2271 3.14321 10.2896C3.06886 10.3493 3.04355 10.4423 3.3578 11.1625C3.64139 11.8124 4.50511 13.3093 4.8232 13.8549C4.77239 13.8299 4.71605 13.8146 4.65577 13.8146C4.53239 13.8146 4.42364 13.8743 4.3538 13.9653H4.07995V13.9546C4.07995 13.8122 3.96408 13.6963 3.82167 13.6963H2.36836C2.22596 13.6963 2.11008 13.8122 2.11008 13.9546V14.5008C2.11008 14.6433 2.22596 14.7591 2.36836 14.7591H3.82149C3.96389 14.7591 4.07977 14.6433 4.07977 14.5008V14.4901H4.3537C4.42364 14.5811 4.53239 14.6408 4.65567 14.6408C4.77905 14.6408 4.8878 14.5811 4.95764 14.4901H5.46839V14.8866C4.67002 14.8696 2.45968 14.8669 2.33855 15.3519C2.3273 15.3968 2.32618 15.4665 2.38496 15.5417C2.61793 15.8401 3.79861 16.0578 4.65502 16.173L3.25102 17.4217C3.24924 17.4233 3.24867 17.4255 3.24699 17.4271C3.21821 17.423 3.19655 17.4201 3.18699 17.4189C3.16111 17.4152 3.13599 17.4235 3.11724 17.4407L1.99411 18.4706C1.96018 18.5015 1.95671 18.5538 1.98624 18.5892C2.02346 18.6339 2.11805 18.6558 2.24452 18.6558C2.55577 18.6558 3.0608 18.5231 3.38274 18.2717C3.64805 18.0646 4.38305 17.4201 5.56748 16.3564C5.61876 16.3104 5.6527 16.2798 5.6677 16.2664H5.96339C6.20911 16.2664 6.4357 16.186 6.62058 16.0513L6.69351 16.1164C8.0572 17.3371 8.88463 18.0621 9.15323 18.2717C9.47516 18.5234 9.98001 18.6558 10.2913 18.6558C10.4178 18.6558 10.5123 18.634 10.5496 18.5892C10.5795 18.5538 10.5759 18.5015 10.542 18.4706ZM5.6408 16.094V14.4902H6.91101V15.1468C6.91101 15.669 6.48604 16.094 5.96376 16.094H5.6408ZM3.07355 15.6944C2.79924 15.6147 2.59243 15.5273 2.52089 15.4357C2.50149 15.4108 2.50449 15.3989 2.5058 15.3937C2.52821 15.3041 2.74402 15.2319 3.07355 15.1773V15.6944ZM3.28589 10.4969C3.46308 10.7057 4.18945 11.759 4.86952 12.7616L4.52039 12.9827C4.14914 12.329 3.70064 11.5173 3.51577 11.0937C3.37261 10.7656 3.31121 10.5904 3.28589 10.4969ZM5.3377 13.4545C5.38233 13.5207 5.42601 13.5858 5.46858 13.6491V13.9654H5.08758C5.07848 13.9501 5.02936 13.8663 4.95267 13.7346L5.3377 13.4545ZM4.86577 13.5848C4.79105 13.4559 4.70245 13.3019 4.6057 13.1326L4.96627 12.9044C5.0602 13.043 5.15208 13.1791 5.24142 13.3116L4.86577 13.5848ZM5.46858 15.0594V16.091C5.42658 16.0887 5.37595 16.0848 5.31783 16.0798V15.0567C5.36817 15.0573 5.41833 15.0583 5.46858 15.0594ZM3.55252 15.1169C4.01452 15.0732 4.57945 15.0525 5.14561 15.0552V16.0628C4.72748 16.0185 4.09524 15.9291 3.55252 15.8127V15.1169ZM3.24567 15.1517C3.28927 15.1458 3.33389 15.1403 3.3803 15.135V15.7741C3.33427 15.7633 3.28955 15.7522 3.24567 15.741V15.1517ZM4.88189 16.202C5.10727 16.2296 5.29608 16.2484 5.41898 16.2583C4.81261 16.8027 4.32567 17.2357 3.96258 17.5535C3.87089 17.5243 3.65152 17.4872 3.46842 17.4593L4.88189 16.202ZM3.80395 17.6918C3.55636 17.9069 3.38021 18.0552 3.27708 18.1358C2.94427 18.3959 2.45283 18.4844 2.22896 18.489L3.20414 17.5949C3.35433 17.6157 3.63596 17.6574 3.80395 17.6918ZM5.03798 14.3179V14.2588V14.1969V14.1378H7.54607V14.1969V14.2588V14.3179H5.03798ZM6.85176 10.6718C6.85176 10.8485 6.58561 10.9976 6.27051 10.9976C5.95542 10.9976 5.68926 10.8485 5.68926 10.6718C5.68926 10.4952 5.95542 10.346 6.27051 10.346C6.58561 10.346 6.85176 10.4953 6.85176 10.6718ZM5.6408 13.2604V13.0801H6.91101V13.2604H5.6408ZM6.91092 13.4326V13.5812C6.90698 13.5916 6.90511 13.6021 6.90529 13.6128H5.6408V13.4326H6.91092ZM5.6408 12.9078V12.7328H6.91101V12.9078H5.6408ZM6.56723 12.2986L6.79617 12.5525H5.75601L5.98495 12.2986H6.56723ZM6.0337 12.1166V11.1432C6.10833 11.1591 6.18679 11.1699 6.27051 11.1699C6.3562 11.1699 6.43654 11.1589 6.51267 11.1422V12.1166H6.0337ZM5.6408 13.7851H6.91101V13.9653H5.6408V13.7851ZM9.02076 11.0937C8.83598 11.5173 8.38748 12.329 8.01613 12.9827L7.66701 12.7616C8.34876 11.7566 9.07682 10.7006 9.25091 10.4963C9.2256 10.5893 9.16429 10.7647 9.02076 11.0937ZM8.13801 14.1968V14.2587C8.13801 14.3745 8.04389 14.4686 7.9281 14.4686C7.81232 14.4686 7.7182 14.3745 7.7182 14.2587V14.1968C7.7182 14.081 7.81232 13.9869 7.9281 13.9869C8.04389 13.9869 8.13801 14.081 8.13801 14.1968ZM7.67076 13.5848L7.29511 13.3116C7.38445 13.179 7.47632 13.0429 7.57026 12.9044L7.93082 13.1326C7.83407 13.3019 7.74539 13.4558 7.67076 13.5848ZM7.08314 13.6265C7.12092 13.5703 7.15936 13.5131 7.19882 13.4545L7.58385 13.7345C7.50717 13.8663 7.45804 13.95 7.44895 13.9654H7.08314V13.6265ZM6.98601 15.6008L9.06857 17.4592C8.88529 17.4872 8.66535 17.5244 8.57376 17.5536C8.15282 17.186 7.56314 16.6633 6.80864 15.9877L6.75379 15.9388C6.85082 15.8423 6.92957 15.7276 6.98601 15.6008ZM9.33238 17.595L10.3022 18.4842C10.0685 18.4815 9.5871 18.3918 9.25945 18.136C9.16073 18.0588 8.98466 17.9104 8.73257 17.6918C8.90057 17.6574 9.1822 17.6157 9.33238 17.595ZM10.3018 13.9547V14.5009C10.3018 14.5483 10.2631 14.587 10.2157 14.587H8.76238C8.71495 14.587 8.67632 14.5483 8.67632 14.5009V14.4902H8.74091C8.78854 14.4902 8.82698 14.4517 8.82698 14.4041V14.0515C8.82698 14.0039 8.78854 13.9654 8.74091 13.9654H8.67632V13.9547C8.67632 13.9073 8.71495 13.8686 8.76238 13.8686H10.2155C10.263 13.8685 10.3018 13.9071 10.3018 13.9547ZM8.65476 14.3179H8.31032V14.2588V14.1969V14.1378H8.65476V14.3179ZM2.28221 14.5009V13.9547C2.28221 13.9073 2.32083 13.8686 2.36827 13.8686H3.82139C3.86883 13.8686 3.90745 13.9073 3.90745 13.9547V13.9654H3.84305C3.79542 13.9654 3.75699 14.0039 3.75699 14.0515V14.4041C3.75699 14.4517 3.79542 14.4902 3.84305 14.4902H3.90764V14.5009C3.90764 14.5483 3.86902 14.587 3.82158 14.587H2.36846C2.32093 14.587 2.28221 14.5484 2.28221 14.5009ZM3.9292 14.1377H4.27364V14.1968V14.2587V14.3178H3.9292V14.1377ZM4.86577 14.2587C4.86577 14.3745 4.77164 14.4686 4.65586 14.4686C4.54008 14.4686 4.44595 14.3745 4.44595 14.2587V14.1968C4.44595 14.081 4.54008 13.9869 4.65586 13.9869C4.77164 13.9869 4.86577 14.081 4.86577 14.1968V14.2587Z" fill="#D23741"/>
</svg>
