<svg width="48" height="48" viewBox="0 0 48 48" fill="none" xmlns="http://www.w3.org/2000/svg">
<path d="M47.1723 39.7241H0.827623C0.370593 39.7241 0 39.3536 0 38.8965V9.10349C0 8.64646 0.370593 8.27586 0.827623 8.27586H47.1724C47.6294 8.27586 48 8.64646 48 9.10349V38.8965C47.9999 39.3536 47.6293 39.7241 47.1723 39.7241Z" fill="white"/>
<path d="M23.9999 24.0001H47.1723C47.6293 24.0001 47.9999 23.6295 47.9999 23.1724V9.10349C47.9999 8.64646 47.6293 8.27586 47.1723 8.27586H24.8276C24.3705 8.27586 23.9999 8.64646 23.9999 9.10349V24.0001Z" fill="#FF4B55"/>
<path d="M0.827623 39.7242H23.1724C23.6295 39.7242 24 39.3536 24 38.8966V24.0001H0.827623C0.370593 24.0001 0 24.3707 0 24.8277V38.8966C0 39.3537 0.370593 39.7242 0.827623 39.7242Z" fill="#4173CD"/>
<path d="M12.3188 12.6083L13.1078 14.9739L15.6015 14.9932C15.9244 14.9957 16.0583 15.4078 15.7985 15.5995L13.7924 17.0809L14.5446 19.4585C14.6419 19.7664 14.2915 20.021 14.0288 19.8333L12 18.3832L9.97119 19.8334C9.7085 20.0211 9.35806 19.7664 9.45538 19.4586L10.2075 17.081L8.20147 15.5996C7.94169 15.4078 8.07556 14.9958 8.39844 14.9933L10.8922 14.974L11.6812 12.6083C11.7834 12.302 12.2167 12.302 12.3188 12.6083Z" fill="#4173CD"/>
<path d="M36.3187 28.3323L37.1077 30.698L39.6015 30.7173C39.9243 30.7198 40.0582 31.1319 39.7984 31.3236L37.7924 32.805L38.5445 35.1826C38.6418 35.4905 38.2914 35.745 38.0287 35.5573L36 34.1073L33.9712 35.5574C33.7085 35.7452 33.358 35.4905 33.4553 35.1827L34.2075 32.805L32.2014 31.3237C31.9417 31.1319 32.0755 30.7199 32.3984 30.7174L34.8921 30.6981L35.6811 28.3324C35.7833 28.0261 36.2166 28.0261 36.3187 28.3323Z" fill="#FF4B55"/>
</svg>
