<svg width="48" height="48" viewBox="0 0 48 48" fill="none" xmlns="http://www.w3.org/2000/svg">
<path d="M0 31.4484H47.9999V38.8967C47.9999 39.3537 47.6293 39.7243 47.1723 39.7243H0.827623C0.370593 39.7243 0 39.3537 0 38.8967V31.4484Z" fill="#FF4B55"/>
<path d="M0.827623 8.27597H47.1724C47.6294 8.27597 48 8.64656 48 9.10359V16.5518H0V9.1035C0 8.64647 0.370593 8.27597 0.827623 8.27597Z" fill="#FF4B55"/>
<path d="M47.9999 16.5517H0V31.4485H47.9999V16.5517Z" fill="white"/>
<path d="M29.4558 21.8866L24.2024 24.0309C24.2003 24.0256 24.1978 24.0208 24.1954 24.0157L29.2689 21.4748C29.0683 21.0744 28.8246 20.6994 28.5419 20.3574L24.1678 23.9748C24.1635 23.9693 24.161 23.9624 24.156 23.9573L28.1657 19.9436C27.8796 19.6575 27.5634 19.4018 27.2237 19.1793L24.1193 23.9311C24.1123 23.9263 24.106 23.9208 24.0983 23.9169L26.6347 18.8403C26.2274 18.6362 25.7932 18.4783 25.3387 18.3727L24.0497 23.9007C24.0334 23.8968 24.0177 23.8907 24 23.8907C23.9823 23.8907 23.9668 23.8968 23.9503 23.9007L22.6614 18.3727C22.2068 18.4783 21.7726 18.6361 21.3653 18.8403L23.9017 23.9169C23.8941 23.9208 23.8877 23.9263 23.8807 23.9311L20.7763 19.1793C20.4365 19.4019 20.1204 19.6576 19.8343 19.9436L23.844 23.9573C23.8391 23.9624 23.8367 23.9692 23.8322 23.9748L19.4581 20.3574C19.1754 20.6993 18.9317 21.0744 18.7311 21.4748L23.8046 24.0157C23.8022 24.0209 23.7997 24.0257 23.7976 24.0309L18.5442 21.8866C18.3859 22.2749 18.2681 22.6839 18.1954 23.1086L23.7883 24.0769C23.7876 24.0818 23.7859 24.0862 23.7854 24.0912L18.14 23.5031C18.1196 23.7023 18.1091 23.9043 18.1091 24.109C18.1091 24.4628 18.1421 24.8087 18.2019 25.1451L23.9999 24.5453L29.798 25.1451C29.8579 24.8085 29.8908 24.4627 29.8908 24.109C29.8908 23.9043 29.8802 23.7023 29.8599 23.5031L24.2144 24.0912C24.214 24.0862 24.2123 24.0818 24.2115 24.0769L29.8043 23.1086C29.7319 22.684 29.614 22.275 29.4558 21.8866Z" fill="#FFB955"/>
<path d="M18.3065 25.6234C18.3469 25.7757 18.3936 25.9255 18.4456 26.0727H29.5544C29.6064 25.9255 29.6531 25.7757 29.6935 25.6234C29.1493 25.5531 29.0817 25.2001 28.4187 25.2001C27.6827 25.2001 27.6827 25.6364 26.9466 25.6364C26.2106 25.6364 26.2106 25.2001 25.4744 25.2001C24.7382 25.2001 24.7382 25.6364 24.0018 25.6364C23.266 25.6364 23.266 25.2001 22.53 25.2001C21.7934 25.2001 21.7934 25.6364 21.057 25.6364C20.3201 25.6364 20.3201 25.2001 19.583 25.2001C18.9192 25.2001 18.8517 25.5532 18.3065 25.6234Z" fill="#4173CD"/>
<path d="M28.245 26.7271C27.5364 26.727 27.5363 26.2908 26.8277 26.2908C26.1188 26.2908 26.1188 26.7271 25.41 26.7271C24.7012 26.7271 24.7012 26.2908 23.9923 26.2908C23.2833 26.2908 23.2833 26.7271 22.5744 26.7271C21.8657 26.7271 21.8657 26.2908 21.1571 26.2908C20.4479 26.2908 20.4479 26.7271 19.7387 26.7271C19.1095 26.7271 19.0371 26.3847 18.5344 26.3069C18.6544 26.605 18.7966 26.8918 18.9617 27.1635H28.2447H28.2453H29.038C29.2034 26.8912 29.346 26.6037 29.4662 26.3047C28.9484 26.3776 28.8808 26.7271 28.245 26.7271Z" fill="#4173CD"/>
<path d="M28.8087 27.5101C28.6715 27.4382 28.5091 27.382 28.2553 27.382C27.5464 27.382 27.5464 27.8183 26.8376 27.8183C26.1288 27.8183 26.1288 27.382 25.4199 27.382C24.7109 27.382 24.7109 27.8183 24.0019 27.8183C23.2933 27.8183 23.2933 27.382 22.5847 27.382C21.8755 27.382 21.8755 27.8183 21.1663 27.8183C20.4565 27.8183 20.4565 27.382 19.7469 27.382C19.4922 27.382 19.3293 27.4384 19.1919 27.5106C19.3797 27.7755 19.5877 28.0247 19.8156 28.2548H28.1848C28.4127 28.0245 28.6209 27.7752 28.8087 27.5101Z" fill="#4173CD"/>
<path d="M27.6301 28.7468C27.416 28.6227 27.2438 28.4727 26.8279 28.4727C26.119 28.4727 26.119 28.909 25.4102 28.909C24.7014 28.909 24.7014 28.4727 23.9925 28.4727C23.2835 28.4727 23.2835 28.909 22.5745 28.909C21.8659 28.909 21.8659 28.4727 21.1573 28.4727C20.747 28.4727 20.5737 28.6186 20.3634 28.7417C20.6555 28.9713 20.9695 29.1737 21.3023 29.3455H26.6977C27.028 29.1749 27.3399 28.9742 27.6301 28.7468Z" fill="#4173CD"/>
<path d="M22.5847 29.5639C22.3524 29.5639 22.1967 29.611 22.0667 29.674C22.6725 29.8843 23.3226 30.0002 24 30.0002H24.0012C23.2933 29.9999 23.2931 29.5639 22.5847 29.5639Z" fill="#4173CD"/>
<path d="M24.0051 30.0001C24.6817 29.9995 25.3308 29.8837 25.9357 29.6731C25.8062 29.6107 25.6508 29.5639 25.4198 29.5639C24.7118 29.5639 24.7105 29.9985 24.0051 30.0001Z" fill="#4173CD"/>
<path d="M24.7747 23.3631L22.908 22.8237C22.8033 22.7934 22.7307 22.6989 22.7293 22.5899C22.7207 21.8987 22.6907 19.4646 22.6907 19.0908C22.6907 18.6545 23.127 18 23.9998 18H24.6879C24.7531 18 24.7728 18.0887 24.7129 18.1143C24.3977 18.2493 23.9999 18.5309 23.9999 19.0908C23.9999 19.7557 24.633 20.0407 24.9347 20.1388C25.0279 20.1691 25.0909 20.2547 25.0909 20.3527V23.1257C25.0907 23.2902 24.9329 23.4089 24.7747 23.3631Z" fill="#FF4B55"/>
<path d="M23.1281 25.8052C23.1965 25.7638 23.2777 25.833 23.2469 25.9069C23.0641 26.3455 22.6163 27.1638 21.8178 27.1638C20.727 27.1638 20.5087 26.291 20.5087 25.6365V21.0085C20.5087 20.9135 20.5858 20.8365 20.6807 20.8365H20.9911C21.0862 20.8365 21.1632 20.9135 21.1632 21.0085V25.4183C21.1635 26.0083 22.4039 26.2437 23.1281 25.8052Z" fill="#FF4B55"/>
<path d="M24.7798 25.8052C24.7113 25.7638 24.6301 25.833 24.661 25.9069C24.8437 26.3455 25.2916 27.1638 26.09 27.1638C27.1809 27.1638 27.3991 26.291 27.3991 25.6365V21.0085C27.3991 20.9135 27.3221 20.8365 27.2271 20.8365H26.9167C26.8216 20.8365 26.7447 20.9135 26.7447 21.0085V25.4183C26.7445 26.0083 25.5039 26.2437 24.7798 25.8052Z" fill="#FF4B55"/>
<path d="M26.2948 25.0907H21.7054C21.6473 25.0907 21.6002 25.0436 21.6002 24.9854V24.9778C21.6002 24.9197 21.6473 24.8726 21.7054 24.8726H26.2948C26.3529 24.8726 26.4001 24.9197 26.4001 24.9778V24.9854C26.4001 25.0437 26.3529 25.0907 26.2948 25.0907Z" fill="#AA4650"/>
<path d="M22.0638 24.2674L22.3 23.9524C22.3362 23.9043 22.3264 23.8357 22.2782 23.7996C22.2301 23.7636 22.1615 23.7736 22.1254 23.8215L22.0335 23.9441V23.8594C22.0335 23.7991 21.9846 23.7502 21.9243 23.7502C21.8641 23.7502 21.8152 23.7991 21.8152 23.8594V23.9362L21.7293 23.8215C21.6932 23.7734 21.6248 23.7634 21.5765 23.7996C21.5283 23.8357 21.5185 23.9042 21.5547 23.9524L21.7909 24.2674L21.5547 24.5824C21.5185 24.6305 21.5283 24.699 21.5765 24.7352C21.5961 24.7499 21.6191 24.7569 21.6418 24.7569C21.675 24.7569 21.7077 24.7418 21.7291 24.7132L21.9271 24.4491L22.1251 24.7132C22.1464 24.7418 22.1792 24.7569 22.2123 24.7569C22.2351 24.7569 22.2581 24.7499 22.2776 24.7352C22.3259 24.699 22.3356 24.6306 22.2994 24.5824L22.0638 24.2674Z" fill="#AA4650"/>
<path d="M24.0999 24.2674L24.3362 23.9524C24.3724 23.9043 24.3625 23.8357 24.3143 23.7996C24.2662 23.7636 24.1977 23.7736 24.1616 23.8215L24.0697 23.9441V23.8594C24.0697 23.7991 24.0208 23.7502 23.9605 23.7502C23.9002 23.7502 23.8514 23.7991 23.8514 23.8594V23.9362L23.7654 23.8215C23.7293 23.7734 23.661 23.7634 23.6127 23.7996C23.5644 23.8357 23.5547 23.9042 23.5909 23.9524L23.8271 24.2674L23.5909 24.5824C23.5547 24.6305 23.5645 24.699 23.6127 24.7352C23.6323 24.7499 23.6553 24.7569 23.678 24.7569C23.7112 24.7569 23.7439 24.7418 23.7652 24.7132L23.9632 24.4491L24.1612 24.7132C24.1826 24.7418 24.2153 24.7569 24.2485 24.7569C24.2713 24.7569 24.2943 24.7499 24.3138 24.7352C24.3621 24.699 24.3718 24.6306 24.3356 24.5824L24.0999 24.2674Z" fill="#AA4650"/>
<path d="M23.0821 24.2674L23.3184 23.9524C23.3546 23.9043 23.3447 23.8357 23.2965 23.7996C23.2484 23.7636 23.1799 23.7736 23.1438 23.8215L23.0518 23.9441V23.8594C23.0518 23.7991 23.003 23.7502 22.9427 23.7502C22.8824 23.7502 22.8336 23.7991 22.8336 23.8594V23.9362L22.7476 23.8215C22.7115 23.7734 22.6432 23.7634 22.5949 23.7996C22.5466 23.8357 22.5369 23.9042 22.5731 23.9524L22.8093 24.2674L22.5731 24.5824C22.5369 24.6305 22.5467 24.699 22.5949 24.7352C22.6145 24.7499 22.6375 24.7569 22.6602 24.7569C22.6933 24.7569 22.7261 24.7418 22.7474 24.7132L22.9454 24.4491L23.1434 24.7132C23.1648 24.7418 23.1975 24.7569 23.2307 24.7569C23.2535 24.7569 23.2765 24.7499 23.296 24.7352C23.3443 24.699 23.354 24.6306 23.3178 24.5824L23.0821 24.2674Z" fill="#AA4650"/>
<path d="M25.1183 24.2674L25.3545 23.9524C25.3907 23.9043 25.3809 23.8357 25.3327 23.7996C25.2846 23.7636 25.2161 23.7736 25.18 23.8215L25.088 23.9441V23.8594C25.088 23.7991 25.0392 23.7502 24.9789 23.7502C24.9186 23.7502 24.8698 23.7991 24.8698 23.8594V23.9362L24.7838 23.8215C24.7477 23.7734 24.6794 23.7634 24.6311 23.7996C24.5828 23.8357 24.5731 23.9042 24.6092 23.9524L24.8455 24.2674L24.6092 24.5824C24.5731 24.6305 24.5829 24.699 24.6311 24.7352C24.6507 24.7499 24.6736 24.7569 24.6963 24.7569C24.7295 24.7569 24.7622 24.7418 24.7836 24.7132L24.9816 24.4491L25.1796 24.7132C25.201 24.7418 25.2337 24.7569 25.2669 24.7569C25.2897 24.7569 25.3126 24.7499 25.3321 24.7352C25.3804 24.699 25.3902 24.6306 25.354 24.5824L25.1183 24.2674Z" fill="#AA4650"/>
<path d="M26.1365 24.2674L26.3728 23.9524C26.409 23.9043 26.3991 23.8357 26.3509 23.7996C26.3028 23.7636 26.2343 23.7736 26.1982 23.8215L26.1062 23.9441V23.8594C26.1062 23.7991 26.0574 23.7502 25.9971 23.7502C25.9368 23.7502 25.888 23.7991 25.888 23.8594V23.9362L25.802 23.8215C25.7659 23.7734 25.6976 23.7634 25.6493 23.7996C25.601 23.8357 25.5913 23.9042 25.6275 23.9524L25.8637 24.2674L25.6275 24.5824C25.5913 24.6305 25.6011 24.699 25.6493 24.7352C25.6689 24.7499 25.6919 24.7569 25.7146 24.7569C25.7478 24.7569 25.7805 24.7418 25.8018 24.7132L25.9998 24.4491L26.1978 24.7132C26.2192 24.7418 26.2519 24.7569 26.2851 24.7569C26.3079 24.7569 26.3309 24.7499 26.3504 24.7352C26.3986 24.699 26.4084 24.6306 26.3722 24.5824L26.1365 24.2674Z" fill="#AA4650"/>
<path d="M21.8623 25.7647C22.0236 25.8353 22.9715 25.8454 23.2135 25.5933C23.4555 25.3412 23.4051 25.2303 23.4051 25.2303L22.2554 25.2403L21.8623 25.7647Z" fill="#AA4650"/>
<path d="M26.0917 25.7647C25.9304 25.8353 24.9825 25.8454 24.7405 25.5933C24.4985 25.3412 24.5489 25.2303 24.5489 25.2303L25.6986 25.2403L26.0917 25.7647Z" fill="#AA4650"/>
</svg>
