<svg width="48" height="48" viewBox="0 0 48 48" fill="none" xmlns="http://www.w3.org/2000/svg">
<path d="M47.1723 39.7243H0.827623C0.370593 39.7243 0 39.3537 0 38.8966V9.10359C0 8.64656 0.370593 8.27597 0.827623 8.27597H47.1724C47.6294 8.27597 48 8.64656 48 9.10359V38.8966C47.9999 39.3538 47.6293 39.7243 47.1723 39.7243Z" fill="#FF4B55"/>
<path d="M0.305249 8.47612C0.122906 8.6279 0 8.84784 0 9.10359V38.8966C0 39.3537 0.370593 39.7242 0.827623 39.7242H47.1724C47.3736 39.7242 47.5512 39.6436 47.6947 39.5242L0.305249 8.47612Z" fill="#464655"/>
<path d="M4.82793 23.4645L4.35431 24.8846L2.85731 24.8962C2.71368 24.8973 2.65425 25.0805 2.76965 25.1658L3.97387 26.055L3.52228 27.4823C3.47896 27.6192 3.63487 27.7324 3.75159 27.649L4.96949 26.7784L6.1874 27.649C6.30421 27.7325 6.46002 27.6192 6.41671 27.4823L5.96512 26.055L7.16933 25.1658C7.28474 25.0806 7.2253 24.8974 7.08168 24.8962L5.58468 24.8846L5.11105 23.4645C5.06596 23.3283 4.87331 23.3283 4.82793 23.4645Z" fill="white"/>
<path d="M15.0261 23.4645L14.5525 24.8846L13.0555 24.8962C12.9119 24.8973 12.8524 25.0805 12.9678 25.1658L14.1721 26.055L13.7205 27.4823C13.6772 27.6192 13.8331 27.7324 13.9498 27.649L15.1677 26.7784L16.3856 27.649C16.5024 27.7325 16.6582 27.6192 16.6149 27.4823L16.1633 26.055L17.3675 25.1658C17.4829 25.0806 17.4235 24.8974 17.2799 24.8962L15.7829 24.8846L15.3093 23.4645C15.2643 23.3283 15.0716 23.3283 15.0261 23.4645Z" fill="white"/>
<path d="M9.92698 17.283L9.45336 18.7031L7.95635 18.7148C7.81273 18.7159 7.75329 18.8991 7.8687 18.9844L9.07292 19.8736L8.62132 21.3009C8.57801 21.4377 8.73392 21.551 8.85064 21.4675L10.0685 20.597L11.2865 21.4675C11.4033 21.551 11.5591 21.4377 11.5158 21.3009L11.0642 19.8736L12.2684 18.9844C12.3838 18.8992 12.3244 18.716 12.1807 18.7148L10.6837 18.7031L10.2101 17.283C10.165 17.1469 9.97245 17.1469 9.92698 17.283Z" fill="white"/>
<path d="M9.92698 32.4844L9.45336 33.9045L7.95635 33.9162C7.81273 33.9173 7.75329 34.1005 7.8687 34.1858L9.07292 35.075L8.62132 36.5023C8.57801 36.6391 8.73392 36.7524 8.85064 36.6689L10.0685 35.7984L11.2865 36.6689C11.4033 36.7525 11.5591 36.6391 11.5158 36.5023L11.0642 35.075L12.2684 34.1858C12.3838 34.1006 12.3244 33.9174 12.1807 33.9162L10.6837 33.9045L10.2101 32.4844C10.165 32.3483 9.97245 32.3483 9.92698 32.4844Z" fill="white"/>
<path d="M12.3027 28.7806L12.0508 29.5357L11.2548 29.5419C11.1785 29.5426 11.1468 29.6399 11.2082 29.6853L11.8485 30.1581L11.6084 30.9171C11.5853 30.99 11.6682 31.0502 11.7304 31.0057L12.3781 30.5428L13.0258 31.0057C13.0879 31.0501 13.1707 30.9899 13.1478 30.9171L12.9077 30.1581L13.548 29.6853C13.6094 29.64 13.5778 29.5425 13.5014 29.5419L12.7054 29.5357L12.4535 28.7806C12.4293 28.7082 12.3268 28.7082 12.3027 28.7806Z" fill="white"/>
<path d="M41.0217 23.2825C40.9006 22.3446 40.4999 21.4178 40.2088 20.8454C40.3525 20.9173 40.576 21.0468 40.576 21.0468L40.3788 20.3317C40.8719 20.5289 41.2418 20.9112 41.2418 20.9112C40.9952 19.6782 40.613 19.0989 40.613 19.0989L40.9212 19.2099C40.3416 17.7796 39.4786 17.3728 39.4786 17.3728L39.9717 17.2495C39.2443 16.3371 38.2209 16.0289 38.2209 16.0289L38.8867 15.7082C37.1236 14.7095 35.4221 15.7575 35.4221 15.7575C35.4221 15.7575 36.014 15.1411 36.2359 14.8822C36.4578 14.6233 35.9276 14.537 35.9276 14.537C35.9276 14.537 36.4455 14.1794 36.4207 13.9698C36.396 13.7601 35.9276 13.8712 35.9276 13.8712C35.9276 13.8712 36.3345 13.452 36.3345 13.2178C36.3345 12.9835 35.9153 13.1315 35.9153 13.1315C35.9153 13.1315 36.051 12.8479 36.088 12.6259C36.1251 12.404 35.7181 12.5889 35.7181 12.5889C35.7181 12.5889 36.1743 11.7751 36.1497 11.6025C36.1251 11.4299 34.9537 12.1574 34.1153 12.9588C33.2769 13.7604 33.3775 15.0481 33.4518 15.3546C33.526 15.6611 33.5725 16.3758 33.2011 16.6264C32.8297 16.8771 32.1671 16.2632 31.8383 15.8851C31.5096 15.507 31.0986 15.6385 30.6712 15.7865C30.2438 15.9344 29.4382 15.7372 29.1916 15.7043C28.9449 15.6714 29.471 15.9509 29.9149 16.1153C30.3588 16.2796 30.556 16.6742 31.1808 16.9044C31.7279 17.106 32.1661 17.6178 31.7356 17.8537C31.4002 18.0375 31.4027 17.7427 29.9232 17.3606C28.4437 16.9784 26.6682 20.7388 26.6682 20.7388C27.6187 20.6213 28.1045 20.0519 28.1045 20.0519L27.8477 20.7885C28.5501 20.6555 28.8936 20.2284 28.8936 20.2284L28.7079 20.9712C29.2463 20.804 29.6177 20.2284 29.6177 20.2284L29.4598 20.9618C29.9889 20.7111 30.2676 20.2284 30.2676 20.2284C30.3233 20.4976 30.3671 21.0471 30.3671 21.0471C31.1867 20.609 31.3781 19.9868 31.3781 19.9868C32.3152 22.8226 33.6714 23.2911 33.6714 23.2911L33.7454 22.5513C34.1646 23.1431 34.7564 23.439 34.7564 23.439L34.6578 22.7979C36.1127 24.5733 37.7895 25.0172 37.7895 25.0172L37.3601 24.0345L37.8881 24.1417C37.3209 23.6608 37.1113 22.8224 37.1113 22.8224L37.5552 22.8964C36.8401 22.243 36.4825 21.4908 36.4825 21.4908L36.9141 21.5648C36.7785 21.3552 36.6675 20.6155 36.6675 20.6155C37.4566 20.8621 37.8635 21.1703 37.8635 21.1703L37.9102 20.9017C38.5872 21.3895 39.6989 22.2975 40.4693 23.4391C40.4704 23.8115 40.4102 24.1875 40.2555 24.565C39.5488 26.2886 37.6909 26.176 36.8689 25.8143C36.8689 25.8143 39.417 27.8035 40.8144 24.9759C40.903 24.7968 40.9584 24.605 40.9981 24.4083C41.1724 24.824 41.2928 25.2575 41.3159 25.7074C41.4638 28.5925 38.4555 28.3213 38.4555 28.3213C38.4555 28.3213 41.7844 29.6529 41.9325 25.8061C41.9651 24.9507 41.603 24.0956 41.0217 23.2825ZM37.997 20.4026L38.0115 20.3193C38.5171 20.4672 39.0472 20.8249 39.0472 20.8249L39.1643 20.4735C39.6645 21.0746 40.064 21.7213 40.2863 22.3909C39.6111 21.6655 38.802 20.9918 37.997 20.4026Z" fill="#FFE15A"/>
</svg>
