<svg width="48" height="48" viewBox="0 0 48 48" fill="none" xmlns="http://www.w3.org/2000/svg">
<g clip-path="url(#clip0_11_3904)">
<path d="M0.30525 39.5239L24 23.9999L0.30525 8.4758C0.122906 8.62758 0 8.84752 0 9.10327V38.8964C0 39.1522 0.122906 39.3721 0.30525 39.5239Z" fill="white"/>
<path d="M0.305378 39.5241C0.448815 39.6435 0.626472 39.7241 0.827659 39.7241H47.1725C47.6295 39.7241 48.0001 39.3535 48.0001 38.8965V24H24.0001L0.305378 39.5241Z" fill="#FF4B55"/>
<path d="M0.305378 8.47606C0.448815 8.35663 0.626472 8.276 0.827659 8.276H47.1725C47.6295 8.276 48.0001 8.64659 48.0001 9.10363V24.0001H24.0001L0.305378 8.47606Z" fill="#41479B"/>
<path d="M8.68969 26.6896C10.1752 26.6896 11.3794 25.4854 11.3794 23.9999C11.3794 22.5145 10.1752 21.3102 8.68969 21.3102C7.20421 21.3102 6 22.5145 6 23.9999C6 25.4854 7.20421 26.6896 8.68969 26.6896Z" fill="#FFE15A"/>
<path d="M8.69 23.9999L7.68134 19.9655L8.69 18.6206L9.69856 19.9655L8.69 23.9999Z" fill="#FFE15A"/>
<path d="M8.69 24L9.69856 28.0344L8.69 29.3793L7.68134 28.0344L8.69 24Z" fill="#FFE15A"/>
<path d="M8.68963 24.0002L4.6551 25.0089L3.31026 24.0002L4.6551 22.9916L8.68963 24.0002Z" fill="#FFE15A"/>
<path d="M8.68975 24.0002L12.7242 22.9916L14.069 24.0002L12.7242 25.0089L8.68975 24.0002Z" fill="#FFE15A"/>
<path d="M8.68975 24.0002L10.8293 20.4342L12.4935 20.1964L12.2557 21.8605L8.68975 24.0002Z" fill="#FFE15A"/>
<path d="M8.68994 24L6.55028 27.566L4.88613 27.8038L5.12397 26.1397L8.68994 24Z" fill="#FFE15A"/>
<path d="M8.68994 24.0002L5.12397 21.8605L4.88613 20.1964L6.55028 20.4342L8.68994 24.0002Z" fill="#FFE15A"/>
<path d="M8.68975 24L12.2557 26.1397L12.4935 27.8038L10.8293 27.566L8.68975 24Z" fill="#FFE15A"/>
<path d="M2.21785 12.3464L2.3581 13.3927L1.41347 13.864C1.29122 13.9251 1.31691 14.1067 1.45144 14.1312L2.48982 14.3212L2.64619 15.3652C2.66644 15.5004 2.8471 15.532 2.91207 15.4116L3.41363 14.4827L4.45482 14.6565C4.58963 14.6791 4.6755 14.5169 4.58119 14.4181L3.85275 13.654L4.33979 12.7175C4.40288 12.5963 4.27519 12.4645 4.152 12.5236L3.20025 12.9804L2.4601 12.2276C2.36447 12.1303 2.19975 12.211 2.21785 12.3464Z" fill="#FFE15A"/>
<path d="M2.63466 32.7099L2.45747 33.7506L1.41553 33.9198C1.28062 33.9417 1.25128 34.1228 1.37231 34.1861L2.30728 34.6762L2.14631 35.7194C2.1255 35.8545 2.28853 35.9383 2.38631 35.8428L3.14128 35.105L4.08384 35.5806C4.20591 35.6422 4.33603 35.5129 4.27547 35.3905L3.80709 34.4444L4.55053 33.6951C4.64672 33.5981 4.56422 33.4344 4.42884 33.4541L3.38428 33.6072L2.90128 32.6685C2.83875 32.5471 2.65744 32.5751 2.63466 32.7099Z" fill="#FFE15A"/>
<path d="M19.0062 22.4585L18.3986 23.3218L17.3852 23.0265C17.2541 22.9882 17.1496 23.1391 17.2316 23.2484L17.8648 24.093L17.2707 24.9656C17.1939 25.0786 17.305 25.2244 17.4343 25.1803L18.4332 24.839L19.0795 25.6737C19.1633 25.7818 19.3363 25.721 19.3343 25.5844L19.3183 24.529L20.3119 24.1722C20.4405 24.126 20.4363 23.9426 20.3057 23.9024L19.2969 23.5913L19.2646 22.5362C19.2607 22.3994 19.0849 22.3467 19.0062 22.4585Z" fill="#FFE15A"/>
</g>
<defs>
<clipPath id="clip0_11_3904">
<rect width="48" height="48" fill="white"/>
</clipPath>
</defs>
</svg>
