<svg width="48" height="48" viewBox="0 0 48 48" fill="none" xmlns="http://www.w3.org/2000/svg">
<path d="M47.1722 39.7242H12.4137V8.27597H47.1723C47.6294 8.27597 47.9999 8.64656 47.9999 9.10359V38.8966C47.9998 39.3537 47.6293 39.7242 47.1722 39.7242Z" fill="#73AF00"/>
<path d="M12.4138 39.7241H0.827623C0.370593 39.7241 0 39.3535 0 38.8965V9.10347C0 8.64644 0.370593 8.27585 0.827623 8.27585H12.4138V39.7241Z" fill="white"/>
<path d="M38.63 28.3301C34.8208 31.7235 28.9895 31.3749 25.603 27.5589C22.2229 23.7499 22.565 17.9017 26.3741 14.5085C26.3798 14.5035 26.3852 14.4987 26.3908 14.4938C26.4808 14.4147 26.3938 14.271 26.2821 14.3145C22.5255 15.7773 19.8622 19.4312 19.8622 23.7095C19.8622 29.2824 24.3688 33.7958 29.9284 33.7958C33.7743 33.7958 37.1072 31.6317 38.8002 28.4549C38.8566 28.3489 38.7243 28.2458 38.6346 28.3258C38.6332 28.3272 38.6315 28.3287 38.63 28.3301Z" fill="white"/>
<path d="M33.73 16.1803L35.0537 17.6654L36.8875 16.8936C37.1248 16.7937 37.3528 17.0535 37.2229 17.2758L36.2195 18.9938L37.5201 20.4992C37.6885 20.6941 37.5118 20.9912 37.2602 20.9364L35.3163 20.513L34.2864 22.2151C34.1531 22.4355 33.8159 22.3593 33.7902 22.103L33.5922 20.1234L31.6552 19.6698C31.4044 19.6111 31.3726 19.267 31.6085 19.1634L33.4301 18.3634L33.2628 16.3811C33.2412 16.1245 33.5587 15.9881 33.73 16.1803Z" fill="white"/>
</svg>
