<svg width="48" height="48" viewBox="0 0 48 48" fill="none" xmlns="http://www.w3.org/2000/svg">
<path d="M47.9999 14.5658H0V9.10362C0 8.64659 0.370593 8.276 0.827623 8.276H47.1724C47.6294 8.276 48 8.64659 48 9.10362L47.9999 14.5658Z" fill="#FF4B55"/>
<path d="M47.9999 14.5659H0V20.8556H47.9999V14.5659Z" fill="white"/>
<path d="M47.9999 20.8557H0V27.1454H47.9999V20.8557Z" fill="#FF4B55"/>
<path d="M47.1723 39.7241H0.827623C0.370593 39.7241 0 39.3535 0 38.8965V33.4344H47.9999V38.8965C47.9999 39.3536 47.6293 39.7241 47.1723 39.7241Z" fill="#FF4B55"/>
<path d="M47.9999 27.1453H0V33.435H47.9999V27.1453Z" fill="white"/>
<path d="M0.305249 39.5242L23.2122 24.5162C23.584 24.2725 23.584 23.7275 23.2122 23.4841L0.305249 8.47614C0.122906 8.62792 0 8.84785 0 9.1036V38.8966C0 39.1525 0.122906 39.3724 0.305249 39.5242Z" fill="#41479B"/>
<path d="M8.45465 20.1587L9.31837 22.7484L12.0482 22.7696C12.4015 22.7723 12.5481 23.2233 12.2639 23.4333L10.0679 25.055L10.8913 27.6578C10.998 27.9947 10.6143 28.2735 10.3267 28.0679L8.10572 26.4806L5.88478 28.0679C5.59735 28.2735 5.21363 27.9947 5.32013 27.6578L6.14353 25.055L3.94754 23.4333C3.66329 23.2233 3.80973 22.7724 4.16326 22.7696L6.89306 22.7484L7.75678 20.1587C7.86862 19.8234 8.34281 19.8234 8.45465 20.1587Z" fill="white"/>
</svg>
