<svg width="48" height="48" viewBox="0 0 48 48" fill="none" xmlns="http://www.w3.org/2000/svg">
<path d="M47.1723 39.7243H0.827623C0.370593 39.7243 0 39.3537 0 38.8967V9.10362C0 8.64659 0.370593 8.276 0.827623 8.276H47.1724C47.6294 8.276 48 8.64659 48 9.10362V38.8967C47.9999 39.3538 47.6293 39.7243 47.1723 39.7243Z" fill="#FF4B55"/>
<path d="M17.3792 8.27606H0.827623C0.370593 8.27606 0 8.64656 0 9.10359V38.8966C0 39.3537 0.370593 39.7243 0.827623 39.7243H17.3793V8.27606H17.3792Z" fill="#73AF00"/>
<path d="M17.3861 31.4418C21.4961 31.4418 24.8279 28.11 24.8279 24C24.8279 19.8899 21.4961 16.5581 17.3861 16.5581C13.276 16.5581 9.9442 19.8899 9.9442 24C9.9442 28.11 13.276 31.4418 17.3861 31.4418Z" fill="#FFE15A"/>
<path d="M19.8685 21.5175V24.8278C19.8685 26.1968 18.7548 27.3105 17.3858 27.3105C16.0167 27.3105 14.903 26.1968 14.903 24.8278V21.5175H19.8685ZM20.6961 19.8623H14.0754C13.6183 19.8623 13.2477 20.2329 13.2477 20.6899V24.8279C13.2477 27.1131 15.1004 28.9658 17.3857 28.9658C19.6709 28.9658 21.5236 27.1131 21.5236 24.8279V20.6899C21.5237 20.2329 21.1531 19.8623 20.6961 19.8623Z" fill="#FF4B55"/>
<path d="M19.8688 21.5172V24.8275C19.8688 26.1965 18.755 27.3103 17.386 27.3103C16.0169 27.3103 14.9032 26.1965 14.9032 24.8275V21.5172H19.8688Z" fill="white"/>
<path d="M14.0688 21.1037C14.2974 21.1037 14.4826 20.9184 14.4826 20.6899C14.4826 20.4613 14.2974 20.2761 14.0688 20.2761C13.8403 20.2761 13.655 20.4613 13.655 20.6899C13.655 20.9184 13.8403 21.1037 14.0688 21.1037Z" fill="#FFE15A"/>
<path d="M20.6893 21.1037C20.9179 21.1037 21.1031 20.9184 21.1031 20.6899C21.1031 20.4613 20.9179 20.2761 20.6893 20.2761C20.4608 20.2761 20.2755 20.4613 20.2755 20.6899C20.2755 20.9184 20.4608 21.1037 20.6893 21.1037Z" fill="#FFE15A"/>
<path d="M14.0688 24.4139C14.2974 24.4139 14.4826 24.2287 14.4826 24.0001C14.4826 23.7716 14.2974 23.5863 14.0688 23.5863C13.8403 23.5863 13.655 23.7716 13.655 24.0001C13.655 24.2287 13.8403 24.4139 14.0688 24.4139Z" fill="#FFE15A"/>
<path d="M20.6893 24.4139C20.9179 24.4139 21.1031 24.2287 21.1031 24.0001C21.1031 23.7716 20.9179 23.5863 20.6893 23.5863C20.4608 23.5863 20.2755 23.7716 20.2755 24.0001C20.2755 24.2287 20.4608 24.4139 20.6893 24.4139Z" fill="#FFE15A"/>
<path d="M17.3791 21.1037C17.6076 21.1037 17.7929 20.9184 17.7929 20.6899C17.7929 20.4613 17.6076 20.2761 17.3791 20.2761C17.1505 20.2761 16.9653 20.4613 16.9653 20.6899C16.9653 20.9184 17.1505 21.1037 17.3791 21.1037Z" fill="#FFE15A"/>
<path d="M19.8634 27.4657C20.092 27.4657 20.2772 27.2804 20.2772 27.0519C20.2772 26.8233 20.092 26.6381 19.8634 26.6381C19.6349 26.6381 19.4496 26.8233 19.4496 27.0519C19.4496 27.2804 19.6349 27.4657 19.8634 27.4657Z" fill="#FFE15A"/>
<path d="M14.9434 27.4657C15.172 27.4657 15.3572 27.2804 15.3572 27.0519C15.3572 26.8233 15.172 26.6381 14.9434 26.6381C14.7149 26.6381 14.5296 26.8233 14.5296 27.0519C14.5296 27.2804 14.7149 27.4657 14.9434 27.4657Z" fill="#FFE15A"/>
<path d="M17.9201 23.79V24.5027C17.9201 24.7975 17.6803 25.0373 17.3855 25.0373C17.0908 25.0373 16.851 24.7975 16.851 24.5027V23.79H17.9201Z" fill="#41479B"/>
<path d="M17.9201 22.1005V22.8132C17.9201 23.1079 17.6803 23.3477 17.3855 23.3477C17.0908 23.3477 16.851 23.1079 16.851 22.8132V22.1005H17.9201Z" fill="#41479B"/>
<path d="M17.9201 25.4969V26.2096C17.9201 26.5044 17.6803 26.7442 17.3855 26.7442C17.0908 26.7442 16.851 26.5044 16.851 26.2096V25.4969H17.9201Z" fill="#41479B"/>
<path d="M19.3599 23.79V24.5027C19.3599 24.7975 19.1201 25.0373 18.8253 25.0373C18.5306 25.0373 18.2907 24.7975 18.2907 24.5027V23.79H19.3599Z" fill="#41479B"/>
<path d="M16.4805 23.79V24.5027C16.4805 24.7975 16.2407 25.0373 15.946 25.0373C15.6512 25.0373 15.4114 24.7975 15.4114 24.5027V23.79H16.4805Z" fill="#41479B"/>
</svg>
