<svg width="48" height="48" viewBox="0 0 48 48" fill="none" xmlns="http://www.w3.org/2000/svg">
<path d="M47.9999 18.7588H0V9.10362C0 8.64659 0.370593 8.276 0.827623 8.276H47.1724C47.6294 8.276 48 8.64659 48 9.10362L47.9999 18.7588Z" fill="#FF4B55"/>
<path d="M47.1723 39.7242H0.827623C0.370593 39.7242 0 39.3536 0 38.8966V29.2415H47.9999V38.8966C47.9999 39.3537 47.6293 39.7242 47.1723 39.7242Z" fill="#41479B"/>
<path d="M47.9999 18.7584H0V29.2406H47.9999V18.7584Z" fill="white"/>
<path d="M24.0001 19.8621C21.7149 19.8621 19.8622 21.7147 19.8622 24C19.8622 26.2853 21.7149 28.1379 24.0001 28.1379C26.2854 28.1379 28.1381 26.2853 28.1381 24C28.1381 21.7147 26.2854 19.8621 24.0001 19.8621ZM24.0001 27.1207C22.2767 27.1207 20.8794 25.7236 20.8794 24C20.8794 22.2764 22.2766 20.8792 24.0001 20.8792C25.7236 20.8792 27.1209 22.2765 27.1209 24C27.1209 25.7235 25.7235 27.1207 24.0001 27.1207Z" fill="#FF4B55"/>
<path d="M24 25.4354C24.7927 25.4354 25.4353 24.7928 25.4353 24.0001C25.4353 23.2074 24.7927 22.5648 24 22.5648C23.2073 22.5648 22.5647 23.2074 22.5647 24.0001C22.5647 24.7928 23.2073 25.4354 24 25.4354Z" fill="#41479B"/>
<path d="M24.0935 22.9128L24.3248 23.6066L25.056 23.6123C25.1507 23.613 25.1899 23.7339 25.1137 23.7901L24.5255 24.2245L24.7461 24.9216C24.7747 25.0119 24.672 25.0865 24.5949 25.0314L24 24.6063L23.405 25.0314C23.328 25.0865 23.2252 25.0118 23.2538 24.9216L23.4744 24.2245L22.8862 23.7901C22.8101 23.7339 22.8493 23.613 22.944 23.6123L23.6751 23.6066L23.9064 22.9128C23.9364 22.823 24.0635 22.823 24.0935 22.9128Z" fill="#FFE15A"/>
<path d="M26.7151 24.0334C26.7151 24.0334 26.7971 23.6541 26.3935 24.1093C26.3935 24.1093 26.3994 23.9797 26.388 23.8729C26.4768 23.7768 26.5868 23.5666 26.561 23.118C26.561 23.118 26.4977 22.7352 26.2899 23.3068C26.2899 23.3068 26.2332 23.1381 26.1729 23.0447C26.223 22.9409 26.2617 22.7518 26.1416 22.3935C26.1416 22.3935 26.0013 22.0869 25.9576 22.6136C25.9576 22.6136 25.8424 22.4413 25.7675 22.3989C25.7819 22.314 25.7706 22.1681 25.6011 21.9319C25.6011 21.9319 25.4319 21.7425 25.5173 22.1312C25.5173 22.1312 25.3626 22.0059 25.3131 22.0206C25.2874 21.9464 25.213 21.8208 24.9634 21.6556C24.9634 21.6556 24.7471 21.5372 24.9953 21.8463C24.9953 21.8463 24.7759 21.7593 24.7785 21.8092C24.7811 21.8591 24.8872 21.951 24.9743 21.9921C24.9743 21.9921 24.6525 22.0255 24.7846 22.0972C24.7846 22.0972 25.1109 22.2098 25.307 22.1014C25.3227 22.1585 25.3547 22.2225 25.4021 22.2686C25.4021 22.2686 25.0193 22.1942 25.1229 22.3092C25.1229 22.3092 25.4101 22.5202 25.6939 22.4879C25.6926 22.566 25.7162 22.667 25.7577 22.7427C25.7577 22.7427 25.3012 22.4986 25.3877 22.6849C25.3877 22.6849 25.6607 23.0501 26.0239 23.1293C26.009 23.2105 26.0092 23.3086 26.0289 23.3899C26.0289 23.3899 25.5956 22.9807 25.6353 23.2139C25.6353 23.2139 25.8164 23.694 26.1835 23.898C26.1536 23.959 26.1292 24.0271 26.1202 24.0908C26.1202 24.0908 25.8678 23.5507 25.8189 23.7822C25.8189 23.7822 25.8106 24.3216 26.0986 24.6442C26.0373 24.6952 25.9772 24.7665 25.9403 24.8366C25.9403 24.8366 25.8851 24.2432 25.761 24.4445C25.761 24.4445 25.5894 24.8941 25.7056 25.2816C25.6288 25.3043 25.5452 25.3462 25.4833 25.3963C25.4833 25.3963 25.6664 24.8291 25.473 24.9652C25.473 24.9652 25.1286 25.3378 25.1022 25.7571C25.0109 25.7552 24.8873 25.7881 24.7976 25.8417C24.7976 25.8417 25.0597 25.3064 24.8487 25.4135C24.8487 25.4135 24.473 25.7204 24.3759 26.1188C24.2871 26.1695 24.1361 26.2556 23.9853 26.3411C23.8975 26.2902 23.8123 26.2407 23.7395 26.1982L23.7419 26.1942L22.8878 25.4782L22.9047 25.7124L22.4758 24.9453L22.4229 25.2063L22.2824 24.3583L22.1578 24.4835L22.206 23.6924L22.0436 23.78L22.3386 23.1916L22.2 23.2307L22.5644 22.8814L22.3718 22.8978L22.8325 22.6887L22.6641 22.6628L23.1138 22.4351L22.92 22.4257L23.503 22.224L23.3963 22.1306L23.9009 21.9817L23.2962 21.9356L23.4684 21.7236L23.0071 21.9597L23.0733 21.6405L22.6697 22.0561L22.7398 21.7651L22.3621 22.141L22.3865 21.8573L22.0131 22.4897L21.9649 22.2067L21.6546 22.9168L21.5692 22.6074L21.4306 23.488L21.315 23.3569L21.467 24.2063L21.2742 24.0617L21.6276 24.8247C21.6276 24.8247 21.3706 24.7123 21.3385 24.7123C21.3063 24.7123 21.9528 25.3689 21.9528 25.3689L21.6155 25.3328L22.2672 25.791L22.0251 25.8508L22.5672 26.0616L22.4347 26.1641L23.557 26.2444C23.557 26.2444 23.6652 26.3345 23.8124 26.4388C23.7347 26.4827 23.6664 26.5209 23.6241 26.544C23.5814 26.5673 23.5314 26.5696 23.4864 26.5509C23.3799 26.5061 23.2257 26.4431 23.1514 26.4134C23.1514 26.4134 23.1586 26.7325 23.4908 26.7404C23.6272 26.7435 23.8132 26.6567 23.9861 26.5541C24.1632 26.6645 24.3587 26.7619 24.4999 26.7585C24.8248 26.7506 24.8319 26.4315 24.8319 26.4315C24.7592 26.4613 24.6083 26.5243 24.5041 26.569C24.4601 26.5877 24.4112 26.5854 24.3695 26.5621C24.3234 26.5363 24.2477 26.4931 24.1609 26.443C24.2496 26.3829 24.3239 26.3283 24.3761 26.2881C24.4579 26.3523 24.6919 26.4652 25.2148 26.2689C25.2148 26.2689 25.5617 26.0947 24.9541 26.0661C24.9541 26.0661 25.0669 25.9833 25.143 25.9047C25.2427 25.956 25.4889 26.0168 25.9571 25.7597C25.9571 25.7597 26.2757 25.5378 25.6703 25.5961C25.6703 25.5961 25.7511 25.5174 25.8146 25.4373C25.9191 25.449 26.177 25.4211 26.519 24.9837C26.519 24.9837 26.7243 24.6543 26.1908 24.9464C26.1908 24.9464 26.2598 24.782 26.2761 24.672C26.3944 24.615 26.5741 24.4602 26.7151 24.0334Z" fill="#64C86E"/>
</svg>
