<svg width="48" height="48" viewBox="0 0 48 48" fill="none" xmlns="http://www.w3.org/2000/svg">
<path d="M22.3448 39.7243H0.827623C0.370593 39.7243 0 39.3537 0 38.8967V9.10362C0 8.64659 0.370593 8.276 0.827623 8.276H22.3448V39.7243Z" fill="white"/>
<path d="M47.1722 8.27588H15.691C15.7129 8.27588 15.7346 8.27907 15.7556 8.28563L20.7606 9.81488C20.969 9.87853 20.9689 10.1738 20.7604 10.2372L16.4165 11.5598C16.2079 11.6234 16.2078 11.9185 16.4163 11.9822L20.7607 13.3099C20.9691 13.3735 20.969 13.6687 20.7605 13.7321L16.4165 15.0548C16.2079 15.1184 16.2078 15.4135 16.4163 15.4772L20.7607 16.8049C20.9691 16.8685 20.969 17.1637 20.7605 17.2271L16.4178 18.5493C16.2091 18.6129 16.2091 18.9082 16.4178 18.9717L20.7605 20.2939C20.9691 20.3574 20.9692 20.6525 20.7607 20.7162L16.4163 22.0439C16.2079 22.1076 16.208 22.4029 16.4165 22.4662L20.7605 23.7888C20.9691 23.8522 20.9692 24.1475 20.7607 24.2112L16.4163 25.5389C16.2079 25.6026 16.208 25.8977 16.4165 25.9612L20.7605 27.2838C20.9691 27.3472 20.9692 27.6425 20.7607 27.7061L16.4163 29.0338C16.2079 29.0975 16.208 29.3927 16.4165 29.4561L20.7604 30.7788C20.969 30.8422 20.9691 31.1375 20.7606 31.2011L16.4163 32.5287C16.2079 32.5924 16.208 32.8876 16.4165 32.951L20.7592 34.2734C20.9678 34.3367 20.9678 34.6322 20.7592 34.6956L16.4165 36.018C16.2079 36.0813 16.2078 36.3766 16.4163 36.4402L20.7607 37.7679C20.9691 37.8315 20.969 38.1268 20.7605 38.1901L15.7555 39.714C15.7347 39.7204 15.713 39.7237 15.6912 39.7237H47.1723C47.6294 39.7237 47.9999 39.3531 47.9999 38.8961V9.10341C47.9999 8.64638 47.6293 8.27588 47.1722 8.27588Z" fill="#873250"/>
</svg>
