<svg width="48" height="48" viewBox="0 0 48 48" fill="none" xmlns="http://www.w3.org/2000/svg">
<path d="M0 29.2413H47.9999V38.8964C47.9999 39.3535 47.6293 39.7241 47.1723 39.7241H0.827623C0.370593 39.7241 0 39.3535 0 38.8964V29.2413Z" fill="white"/>
<path d="M0.827623 8.27585H47.1724C47.6294 8.27585 48 8.64644 48 9.10347V18.7586H0V9.10338C0 8.64635 0.370593 8.27585 0.827623 8.27585Z" fill="#FF4B55"/>
<path d="M47.9999 18.7584H0V29.2406H47.9999V18.7584Z" fill="#41479B"/>
<path d="M16.2207 18.7565H10.2621L10.0138 17.2668H16.469L16.2207 18.7565Z" fill="#FFE15A"/>
<path d="M10.2002 18.3841L10.2622 18.7565H16.2209L16.2829 18.3841H10.2002Z" fill="#FFD350"/>
<path d="M13.3658 13.7906H13.1175V14.7837H13.3658V13.7906Z" fill="#FFE15A"/>
<path d="M13.6139 14.039H12.869V14.2873H13.6139V14.039Z" fill="#FFE15A"/>
<path d="M16.2401 17.7634C16.212 17.7634 16.1835 17.7585 16.1555 17.7486C16.0266 17.7018 15.9599 17.5595 16.0067 17.4305L16.5326 15.9792C16.5587 15.9072 16.5525 15.8279 16.5157 15.7617C16.4961 15.7266 16.4506 15.6647 16.3635 15.6461C15.7223 15.5098 14.4795 15.2807 13.3613 15.2807H13.1215C12.0034 15.2807 10.7605 15.5098 10.1191 15.6463C10.0323 15.6647 9.98653 15.7266 9.96703 15.7617C9.93028 15.8279 9.92409 15.9072 9.95025 15.9792L10.476 17.4305C10.5228 17.5595 10.4561 17.7018 10.3272 17.7486C10.1984 17.7946 10.0558 17.7284 10.0092 17.5997L9.48328 16.1484C9.40828 15.9413 9.42619 15.7126 9.5326 15.5208C9.63544 15.3354 9.81131 15.2039 10.0153 15.1605C10.676 15.0199 11.9576 14.7839 13.1213 14.7839H13.3612C14.5249 14.7839 15.8065 15.0198 16.4669 15.1602C16.6712 15.2038 16.847 15.3352 16.9499 15.5207C17.0563 15.7125 17.0742 15.9411 16.9993 16.1483L16.4733 17.5996C16.437 17.7007 16.3416 17.7634 16.2401 17.7634Z" fill="#FFE15A"/>
<path d="M13.2422 17.5462C13.1052 17.5462 12.994 17.4352 12.994 17.2979V15.2807C12.994 15.1434 13.1052 15.0324 13.2422 15.0324C13.3793 15.0324 13.4905 15.1434 13.4905 15.2807V17.2979C13.4906 17.4351 13.3794 17.5462 13.2422 17.5462Z" fill="#FFE15A"/>
<path d="M14.9586 17.7633C14.9419 17.7633 14.9249 17.7616 14.9079 17.7583C14.7737 17.7303 14.6873 17.599 14.7153 17.4646L15.0164 16.0133C15.0556 15.8242 14.9943 15.6586 14.9594 15.6295C14.6151 15.5032 13.9245 15.2806 13.3099 15.2806H13.1726C12.5582 15.2806 11.8675 15.5032 11.5104 15.636C11.4884 15.6586 11.4271 15.8241 11.4662 16.0132L11.7673 17.4646C11.7952 17.5988 11.709 17.7303 11.5746 17.7582C11.4402 17.7841 11.3088 17.6998 11.2812 17.5654L10.9801 16.1141C10.9051 15.7523 11.0202 15.289 11.3371 15.1707C11.8117 14.9942 12.515 14.784 13.1725 14.784H13.3099C13.9674 14.784 14.6707 14.9942 15.1451 15.1704C15.4623 15.289 15.5774 15.7523 15.5024 16.1141L15.2013 17.5654C15.1771 17.6829 15.0738 17.7633 14.9586 17.7633Z" fill="#FFE15A"/>
<path d="M10.0759 17.6392H16.4069L16.469 17.2668H10.0138L10.0759 17.6392Z" fill="#FFD350"/>
<path d="M8.52422 18.7565C8.38716 18.7565 8.27597 18.8677 8.27597 19.0048V27.6753C8.27597 30.4283 10.4991 32.66 13.2415 32.66C15.984 32.66 18.2071 30.4283 18.2071 27.6753V19.0048C18.2071 18.8677 18.0959 18.7565 17.9588 18.7565H8.52422Z" fill="#FF4B55"/>
<path d="M13.7378 26.9497L14.2344 25.7083L13.2413 25.9566L12.2483 25.7083L12.7448 26.9497L11.5035 31.1704C11.5035 31.1704 12.2483 31.667 13.2414 31.667C14.2345 31.667 14.9794 31.1704 14.9794 31.1704L13.7378 26.9497Z" fill="white"/>
<path d="M11.4433 27.9501L11.0052 28.0597L11.9689 26.3252L11.5348 26.0842L10.3644 28.1909H9.26909V28.6875H9.80253L9.11403 29.2383L9.42415 29.6263L10.0091 29.1583L9.77834 29.8503L10.2494 30.0073L10.7029 28.6469L11.5638 28.4317L11.4433 27.9501Z" fill="#FFE15A"/>
<path d="M11.5036 21.2392L10.3702 20.6725C10.1621 20.5684 10.0541 20.3337 10.1106 20.1079L10.1747 19.8515C10.2191 19.6736 10.0846 19.5013 9.90112 19.5013C9.81544 19.5013 9.73444 19.5402 9.681 19.6071C9.0929 20.3422 8.77256 21.2555 8.77256 22.1969V27.4461C8.77256 27.4461 9.80934 27.2388 10.7458 25.8765C10.9177 25.6264 11.2008 25.4784 11.5026 25.4629L11.007 26.9495L12.0002 27.1978L12.8692 26.1638L11.5036 21.2392Z" fill="white"/>
<path d="M15.0396 27.9501L15.4777 28.0597L14.514 26.3252L14.9481 26.0842L16.1185 28.1909H17.2138V28.6875H16.6803L17.3689 29.2383L17.0588 29.6263L16.4739 29.1583L16.7046 29.8503L16.2334 30.0073L15.78 28.6469L14.9191 28.4317L15.0396 27.9501Z" fill="#FFE15A"/>
<path d="M14.9794 21.2392L16.1127 20.6725C16.3208 20.5684 16.4288 20.3337 16.3724 20.1079L16.3083 19.8515C16.2638 19.6736 16.3984 19.5013 16.5818 19.5013C16.6675 19.5013 16.7485 19.5402 16.802 19.6071C17.3901 20.3422 17.7104 21.2555 17.7104 22.1969V27.4461C17.7104 27.4461 16.6736 27.2388 15.7372 25.8765C15.5652 25.6264 15.2822 25.4784 14.9804 25.4629L15.476 26.9495L14.4829 27.1977L13.6139 26.1637L14.9794 21.2392Z" fill="white"/>
<path d="M11.7519 19.5013H10.5104L10.8829 19.9978L11.7519 20.2461L11.2553 20.4943H12.0001L11.7519 19.5013Z" fill="#FFE15A"/>
<path d="M14.7311 19.5013H15.9724L15.6001 19.9978L14.7311 20.2461L15.2277 20.4943H14.4828L14.7311 19.5013Z" fill="#FFE15A"/>
<path d="M14.906 19.3066L13.7381 19.5013L13.2415 20.4943L12.7449 19.5013L11.577 19.3066C11.4431 19.2843 11.3404 19.4233 11.4011 19.5447L12.0002 20.7427L11.5036 21.2393H13.2415H14.9794L14.4828 20.7427L15.0818 19.5447C15.1426 19.4232 15.0399 19.2842 14.906 19.3066Z" fill="white"/>
<path d="M13.2412 17.748C13.4468 17.748 13.6135 17.5813 13.6135 17.3756C13.6135 17.17 13.4468 17.0032 13.2412 17.0032C13.0355 17.0032 12.8688 17.17 12.8688 17.3756C12.8688 17.5813 13.0355 17.748 13.2412 17.748Z" fill="#FFBE50"/>
<path d="M13.2367 18.4712C13.3993 18.4712 13.531 18.3786 13.531 18.2643C13.531 18.15 13.3993 18.0574 13.2367 18.0574C13.0742 18.0574 12.9425 18.15 12.9425 18.2643C12.9425 18.3786 13.0742 18.4712 13.2367 18.4712Z" fill="#41479B"/>
<path d="M11.7676 18.4712C11.9301 18.4712 12.0619 18.3786 12.0619 18.2643C12.0619 18.15 11.9301 18.0574 11.7676 18.0574C11.6051 18.0574 11.4733 18.15 11.4733 18.2643C11.4733 18.3786 11.6051 18.4712 11.7676 18.4712Z" fill="#FF4B55"/>
<path d="M10.2985 18.4712C10.461 18.4712 10.5928 18.3786 10.5928 18.2643C10.5928 18.15 10.461 18.0574 10.2985 18.0574C10.1359 18.0574 10.0042 18.15 10.0042 18.2643C10.0042 18.3786 10.1359 18.4712 10.2985 18.4712Z" fill="#41479B"/>
<path d="M16.1738 18.4712C16.3364 18.4712 16.4681 18.3786 16.4681 18.2643C16.4681 18.15 16.3364 18.0574 16.1738 18.0574C16.0113 18.0574 15.8796 18.15 15.8796 18.2643C15.8796 18.3786 16.0113 18.4712 16.1738 18.4712Z" fill="#41479B"/>
<path d="M14.7047 18.4712C14.8672 18.4712 14.999 18.3786 14.999 18.2643C14.999 18.15 14.8672 18.0574 14.7047 18.0574C14.5422 18.0574 14.4104 18.15 14.4104 18.2643C14.4104 18.3786 14.5422 18.4712 14.7047 18.4712Z" fill="#FF4B55"/>
<path d="M14.9674 17.748C15.1731 17.748 15.3398 17.5813 15.3398 17.3756C15.3398 17.17 15.1731 17.0032 14.9674 17.0032C14.7617 17.0032 14.595 17.17 14.595 17.3756C14.595 17.5813 14.7617 17.748 14.9674 17.748Z" fill="#FFBE50"/>
<path d="M16.3286 17.748C16.5343 17.748 16.701 17.5813 16.701 17.3756C16.701 17.17 16.5343 17.0032 16.3286 17.0032C16.123 17.0032 15.9563 17.17 15.9563 17.3756C15.9563 17.5813 16.123 17.748 16.3286 17.748Z" fill="#FFBE50"/>
<path d="M11.5184 17.748C11.724 17.748 11.8908 17.5813 11.8908 17.3756C11.8908 17.17 11.724 17.0032 11.5184 17.0032C11.3127 17.0032 11.146 17.17 11.146 17.3756C11.146 17.5813 11.3127 17.748 11.5184 17.748Z" fill="#FFBE50"/>
<path d="M10.156 17.748C10.3617 17.748 10.5284 17.5813 10.5284 17.3756C10.5284 17.17 10.3617 17.0032 10.156 17.0032C9.95034 17.0032 9.78363 17.17 9.78363 17.3756C9.78363 17.5813 9.95034 17.748 10.156 17.748Z" fill="#FFBE50"/>
<path d="M13.6691 15.2806C13.7118 15.2074 13.7381 15.1233 13.7381 15.0324C13.7381 14.7582 13.5158 14.5358 13.2415 14.5358C12.9671 14.5358 12.7449 14.7581 12.7449 15.0324C12.7449 15.1233 12.771 15.2074 12.8138 15.2806H13.6691Z" fill="#41479B"/>
<path d="M13.2414 26.3289C12.2146 26.3289 11.3793 25.4936 11.3793 24.4668V21.1151H15.1035V24.4668C15.1035 25.4937 14.2682 26.3289 13.2414 26.3289Z" fill="#FF4B55"/>
<path d="M14.9791 21.2392V24.4668C14.9791 25.4266 14.201 26.2048 13.2412 26.2048C12.2814 26.2048 11.5032 25.4266 11.5032 24.4668V21.2392H14.9791ZM15.2275 20.991H14.9792H11.5033H11.2551V21.2392V24.4668C11.2551 25.562 12.1461 26.453 13.2413 26.453C14.3365 26.453 15.2275 25.562 15.2275 24.4668V21.2392V20.991Z" fill="#A54B50"/>
<path d="M12.8689 26.1637C12.989 26.1899 13.1133 26.2046 13.2413 26.2046C13.3692 26.2046 13.4935 26.1898 13.6136 26.1637V21.2391H12.8688C12.8689 21.2391 12.8689 26.1637 12.8689 26.1637Z" fill="white"/>
<path d="M14.9792 23.2874H11.5029V24.0323H14.9792V23.2874Z" fill="white"/>
</svg>
