<svg width="48" height="48" viewBox="0 0 48 48" fill="none" xmlns="http://www.w3.org/2000/svg">
<path d="M47.9999 24H0V9.10347C0 8.64644 0.370593 8.27585 0.827623 8.27585H47.1724C47.6294 8.27585 48 8.64644 48 9.10347L47.9999 24Z" fill="#4173CD"/>
<path d="M0 23.9999H47.9999V38.8965C47.9999 39.3535 47.6293 39.7241 47.1723 39.7241H0.827623C0.370593 39.7241 0 39.3535 0 38.8965V23.9999Z" fill="#4173CD"/>
<path d="M47.9999 23.9999H0V31.8618H47.9999V23.9999Z" fill="#FFE15A"/>
<path d="M0.827623 39.7242H47.1724C47.6294 39.7242 48 39.3536 48 38.8966V31.8622H0V38.8966C0 39.3537 0.370593 39.7242 0.827623 39.7242Z" fill="#73AF00"/>
<path d="M42.957 16.6986L46.3446 16.1378L42.957 15.577L45.8721 13.7625L42.5279 14.5407L44.5267 11.7489L41.7348 13.7477L42.5131 10.4035L40.6986 13.3185L40.1377 9.93088L39.5769 13.3184L37.7625 10.4034L38.5407 13.7476L35.7488 11.7488L37.7477 14.5407L34.4034 13.7624L37.3185 15.5769L33.9308 16.1378L37.3184 16.6986L34.4033 18.513L37.7476 17.7348L35.7487 20.5267L38.5406 18.5278L37.7624 21.8721L39.5768 18.957L40.1377 22.3447L40.6985 18.9571L42.513 21.8722L41.7347 18.5279L44.5266 20.5268L42.5278 17.7349L45.872 18.5131L42.957 16.6986ZM40.1377 18.2067C38.995 18.2067 38.0687 17.2805 38.0687 16.1378C38.0687 14.9951 38.995 14.0688 40.1377 14.0688C41.2804 14.0688 42.2067 14.9951 42.2067 16.1378C42.2067 17.2805 41.2804 18.2067 40.1377 18.2067Z" fill="#FFE15A"/>
<path d="M40.1377 17.6895C40.9947 17.6895 41.6895 16.9948 41.6895 16.1377C41.6895 15.2807 40.9947 14.586 40.1377 14.586C39.2807 14.586 38.586 15.2807 38.586 16.1377C38.586 16.9948 39.2807 17.6895 40.1377 17.6895Z" fill="#FFE15A"/>
</svg>
