<svg width="48" height="48" viewBox="0 0 48 48" fill="none" xmlns="http://www.w3.org/2000/svg">
<path d="M47.1723 39.7243H0.827623C0.370593 39.7243 0 39.3537 0 38.8966V9.10359C0 8.64656 0.370593 8.27597 0.827623 8.27597H47.1724C47.6294 8.27597 48 8.64656 48 9.10359V38.8966C47.9999 39.3538 47.6293 39.7243 47.1723 39.7243Z" fill="#73AF00"/>
<path d="M9.93178 18.9637C10.0133 19.4865 10.3294 19.6506 10.6042 19.6291C10.9282 19.604 11.2123 19.3078 11.2123 18.9948V17.2006C11.2123 17.1108 11.2854 17.0375 11.3754 17.0375C11.4654 17.0375 11.5386 17.1107 11.5386 17.2006V19.0025C11.5386 19.2192 11.6456 19.4212 11.8252 19.5425C11.9347 19.6168 12.0623 19.6549 12.1909 19.6549C12.2727 19.6549 12.3549 19.6393 12.4333 19.608L12.5963 19.5429C12.6113 21.049 12.5197 22.3726 12.5181 22.3969C12.5053 22.5766 12.6405 22.7327 12.8202 22.7455C12.8282 22.7461 12.836 22.7464 12.8438 22.7464C13.0135 22.7464 13.1567 22.6152 13.169 22.4434C13.1766 22.3374 13.2771 20.8877 13.247 19.2826L13.3456 19.2433C13.432 19.2089 13.5292 19.213 13.6123 19.2544C13.9717 19.4335 14.404 19.3636 14.688 19.0798L14.7468 19.0211C15.0104 18.757 15.1011 18.3734 14.983 18.0195L14.7052 17.1861C14.8554 17.2313 15.0204 17.1648 15.093 17.0202C15.1736 16.859 15.1083 16.6631 14.9471 16.5825L14.2947 16.2562C14.1767 16.197 14.035 16.2151 13.935 16.3014C13.8352 16.3881 13.7976 16.526 13.8393 16.6512L14.3642 18.226C14.4035 18.3438 14.3733 18.4719 14.2854 18.5598L14.2267 18.6185C14.1417 18.7035 14.0122 18.7243 13.9039 18.6707C13.6925 18.5651 13.4517 18.5453 13.2259 18.6029C13.18 17.5558 13.0672 16.5131 12.8271 15.7922C12.7702 15.6214 12.5857 15.5288 12.4143 15.5861C12.2434 15.6428 12.151 15.8275 12.208 15.9987C12.4431 16.7036 12.5454 17.7779 12.5818 18.846L12.1912 19.0022V17.2004C12.1912 16.7506 11.8253 16.3847 11.3756 16.3847C10.9259 16.3847 10.56 16.7505 10.56 17.2004V18.7796L10.2272 17.1357C10.1918 16.9589 10.0198 16.8436 9.84281 16.8805C9.6661 16.9165 9.55191 17.0885 9.58782 17.2651L9.93178 18.9637Z" fill="white"/>
<path d="M10.5598 16.2219C10.74 16.2219 10.8861 16.076 10.8861 15.8957V15.5694C10.8861 15.3891 10.74 15.2432 10.5598 15.2432C10.3797 15.2432 10.2336 15.389 10.2336 15.5694V15.8957C10.2336 16.0759 10.3797 16.2219 10.5598 16.2219Z" fill="white"/>
<path d="M13.8222 15.8957H14.1484C14.3286 15.8957 14.4747 15.7498 14.4747 15.5694C14.4747 15.3891 14.3286 15.2432 14.1484 15.2432H13.8222C13.642 15.2432 13.4959 15.389 13.4959 15.5694C13.4959 15.7498 13.642 15.8957 13.8222 15.8957Z" fill="white"/>
<path d="M11.6969 20.1831L10.0657 21.1619C9.91114 21.2546 9.86117 21.4549 9.95389 21.6095C10.015 21.7114 10.123 21.7679 10.2339 21.7679C10.2911 21.7679 10.349 21.7529 10.4015 21.7213L12.0327 20.7425C12.1873 20.6498 12.2373 20.4495 12.1445 20.2949C12.0518 20.1404 11.8516 20.0904 11.6969 20.1831Z" fill="white"/>
<path d="M16.0952 20.7601L16.1029 20.755C16.1303 20.8652 16.1773 20.9719 16.2535 21.0616C16.386 21.2176 16.5848 21.2961 16.8094 21.2776C17.1281 21.2543 17.3446 21.1087 17.4881 20.9207C17.5099 20.9357 17.5329 20.9494 17.5569 20.9615C17.7332 21.0504 17.9371 21.0437 18.1313 20.943C18.6243 20.6891 18.7305 20.1016 18.7155 19.7945C18.7067 19.6155 18.5545 19.4891 18.3759 19.4855C18.1967 19.4932 18.0572 19.6452 18.0637 19.8242C18.0639 19.8284 18.0711 20.2155 17.8345 20.3592C17.7959 20.3054 17.7501 20.1842 17.7329 20.0842C17.7053 19.9163 17.5511 19.7994 17.3851 19.8128C17.216 19.8261 17.0853 19.9682 17.0848 20.138C17.0846 20.1855 17.0741 20.6041 16.7509 20.6391C16.7133 20.5878 16.7127 20.3718 16.7497 20.2122C16.7809 20.0812 16.7284 19.9445 16.6176 19.8681C16.5066 19.7913 16.3603 19.7913 16.2488 19.8669L16.0667 19.9907C15.9803 18.0989 15.7811 15.8943 15.7786 15.8661C15.7624 15.6871 15.6047 15.5536 15.4243 15.5708C15.2448 15.587 15.1125 15.7457 15.1289 15.9255C15.1317 15.9557 15.362 18.5063 15.4331 20.4541C15.4164 20.47 15.3992 20.4873 15.3829 20.5025C15.2539 20.1773 14.9982 19.9725 14.6688 19.9412C14.204 19.9002 13.7004 20.2165 13.5198 20.6683C13.3642 21.057 13.4622 21.439 13.7692 21.6412C13.99 21.7868 14.3232 21.8326 14.7421 21.6858C14.6399 22.0452 14.4536 22.4097 14.2115 22.6916C13.9947 22.9442 13.6326 23.2357 13.1693 23.2227C12.8996 23.2121 12.6924 23.1239 12.5357 22.9525C12.158 22.5399 12.1906 21.7932 12.1908 21.7852C12.2002 21.6055 12.0626 21.4523 11.8831 21.4424C11.7022 21.4232 11.5492 21.5701 11.5393 21.7501C11.537 21.7915 11.4897 22.7729 12.0515 23.3899C12.3281 23.6941 12.6955 23.857 13.1436 23.8745C13.1655 23.8755 13.1873 23.8757 13.2092 23.8757C13.755 23.8757 14.2845 23.6081 14.7062 23.1165C15.103 22.6545 15.3724 22.027 15.4532 21.4444C15.4522 22.5604 14.7796 23.8191 13.888 24.3736C13.5093 24.6088 12.919 24.8209 12.254 24.4931C11.4343 24.0885 11.532 23.1515 11.5363 23.1133C11.5587 22.9345 11.4318 22.7715 11.2531 22.7491C11.0751 22.7275 10.9111 22.8533 10.8889 23.0324C10.8816 23.0907 10.7249 24.466 11.9654 25.078C12.284 25.2353 12.6172 25.3134 12.953 25.3134C13.3844 25.3134 13.8197 25.1844 14.2324 24.9276C15.318 24.2528 16.106 22.7867 16.106 21.4417C16.1059 21.2314 16.1019 21.0017 16.0952 20.7601ZM14.1281 21.0964C14.0698 21.0578 14.1153 20.9346 14.1252 20.9101C14.1939 20.738 14.4088 20.5892 14.5804 20.5892C14.5892 20.5892 14.5981 20.5895 14.6067 20.5905C14.6484 20.5943 14.7591 20.6048 14.8067 20.8511C14.8118 20.8772 14.8161 20.904 14.8195 20.9313C14.4559 21.1449 14.2122 21.1516 14.1281 21.0964Z" fill="white"/>
<path d="M10.7247 24.097C10.5701 24.0061 10.3705 24.0581 10.2788 24.2127C10.2638 24.2378 10.2439 24.2653 10.2236 24.29C10.2201 24.2818 10.2166 24.2729 10.2131 24.2632C10.077 23.9003 10.1739 23.3413 10.2228 23.1564C10.2688 22.9825 10.1652 22.8041 9.99143 22.7575C9.81781 22.7129 9.63921 22.8142 9.59253 22.9882C9.56881 23.0764 9.36828 23.8684 9.60209 24.4922C9.75181 24.8911 9.98168 24.9918 10.1483 25.0054C10.1631 25.0066 10.1777 25.0073 10.1922 25.0073C10.5434 25.0073 10.7771 24.6534 10.8421 24.5413C10.9322 24.3859 10.8794 24.1881 10.7247 24.097Z" fill="white"/>
<path d="M16.745 18.1792C16.8156 18.1792 16.8866 18.1566 16.9463 18.1095L18.591 16.8183C18.6137 16.8005 18.6282 16.7771 18.6448 16.7552C18.8817 16.6123 19.0419 16.3551 19.0419 16.0589C19.0419 15.6091 18.676 15.2433 18.2263 15.2433C17.7766 15.2433 17.4107 15.609 17.4107 16.0589C17.4107 16.3106 17.5277 16.5331 17.7073 16.6828L16.5432 17.5967C16.4016 17.7079 16.3769 17.913 16.4881 18.0545C16.5525 18.1365 16.6483 18.1792 16.745 18.1792ZM18.2264 15.8957C18.3164 15.8957 18.3895 15.9689 18.3895 16.0588C18.3895 16.1487 18.3164 16.2219 18.2264 16.2219C18.1364 16.2219 18.0633 16.1487 18.0633 16.0588C18.0633 15.9689 18.1364 15.8957 18.2264 15.8957Z" fill="white"/>
<path d="M17.84 17.87C17.6682 17.8127 17.4841 17.9053 17.4272 18.0761C17.3923 18.1806 17.2346 18.7188 17.5543 19.0382C17.6785 19.1624 17.8415 19.2245 18.0417 19.2242C18.1755 19.2242 18.3259 19.1968 18.4924 19.141C18.6633 19.0843 18.7556 18.8996 18.6986 18.7284C18.6416 18.5576 18.4572 18.4646 18.2859 18.5223C18.1036 18.5828 18.0266 18.573 18.0195 18.5793C18.0003 18.5309 18.013 18.3852 18.0464 18.2811C18.1029 18.1108 18.0105 17.9267 17.84 17.87Z" fill="white"/>
<path d="M21.5737 16.5212C21.6043 16.5301 21.635 16.5343 21.6653 16.5343C21.8065 16.5343 21.9367 16.4419 21.9783 16.2994L22.1686 15.647C22.219 15.4741 22.1197 15.2927 21.9469 15.2424C21.7734 15.1923 21.5928 15.2912 21.5423 15.4641L21.3519 16.1165C21.3014 16.2898 21.4008 16.471 21.5737 16.5212Z" fill="white"/>
<path d="M19.6723 16.4831C19.7241 16.5134 19.7809 16.5278 19.8367 16.5278C19.9488 16.5278 20.0579 16.4701 20.1186 16.3663C20.2095 16.2109 20.1572 16.0107 20.0017 15.92C19.936 15.8817 19.9449 15.7737 19.9474 15.7524C19.9571 15.6667 20.0082 15.5621 20.0971 15.5345C20.2691 15.481 20.3652 15.2981 20.3117 15.1261C20.2579 14.9538 20.0753 14.8584 19.903 14.9113C19.5778 15.0126 19.3407 15.3137 19.299 15.6782C19.2604 16.0174 19.4034 16.3258 19.6723 16.4831Z" fill="white"/>
<path d="M17.0845 21.7678C16.9043 21.7678 16.7582 21.9137 16.7582 22.0941C16.7582 22.2534 16.8723 22.3859 17.0233 22.4145C17.0404 22.4396 17.0844 22.5261 17.0844 22.7465C17.0844 22.9268 17.2305 23.0727 17.4106 23.0727C17.5908 23.0727 17.7369 22.9269 17.7369 22.7465C17.737 21.779 17.1111 21.7678 17.0845 21.7678Z" fill="white"/>
<path d="M22.619 20.4169C22.66 20.4236 22.7008 20.4267 22.7417 20.4267C22.998 20.4267 23.257 20.2975 23.5135 20.041C23.6409 19.9136 23.6409 19.7071 23.5135 19.5797C23.3861 19.4523 23.1796 19.4523 23.0522 19.5797C22.8571 19.775 22.7521 19.7791 22.7252 19.773C22.663 19.7641 22.6065 19.6828 22.594 19.6606C22.5121 19.5019 22.3181 19.4386 22.1583 19.5185C21.9972 19.5991 21.9317 19.7951 22.0125 19.9562C22.0326 19.9967 22.221 20.3522 22.619 20.4169Z" fill="white"/>
<path d="M28.1642 18.1245C28.1621 18.1194 28.1601 18.1146 28.1585 18.1101C28.1007 17.9407 27.9159 17.8486 27.7468 17.9062C27.5757 17.9629 27.4833 18.1476 27.5403 18.3188C27.5657 18.3952 27.7112 18.7788 28.0712 18.8272C28.0953 18.8304 28.1192 18.832 28.1429 18.832C28.3689 18.832 28.5809 18.6857 28.7738 18.3964C28.8737 18.2467 28.8332 18.0441 28.6833 17.9441C28.5332 17.8443 28.3306 17.8845 28.2309 18.0347C28.2051 18.0732 28.1828 18.1025 28.1642 18.1245Z" fill="white"/>
<path d="M27.524 24.0514C27.524 22.6602 27.4629 21.3551 27.3779 20.2116C27.8411 21.0149 28.2579 21.8267 28.5234 22.5349C28.5726 22.6659 28.6968 22.7465 28.8288 22.7465C28.8669 22.7465 28.9056 22.7397 28.9433 22.7258C29.112 22.6624 29.1975 22.4744 29.1342 22.3056C28.7213 21.2048 27.9791 19.8938 27.2476 18.73C27.0693 16.9726 26.8696 15.8572 26.8661 15.8373C26.834 15.6599 26.6645 15.5401 26.4869 15.5747C26.3096 15.6069 26.1921 15.7766 26.2242 15.9538C26.2269 15.968 26.3296 16.5426 26.4525 17.5096C26.2018 17.1377 25.969 16.8022 25.7736 16.526L25.7895 16.5311C25.9614 16.5883 26.1452 16.4957 26.2023 16.3249C26.2593 16.1538 26.167 15.969 25.9961 15.9123L25.0173 15.5861C24.8816 15.5402 24.7326 15.5887 24.6495 15.7047C24.6273 15.7356 24.6121 15.7695 24.6018 15.8046C24.4065 15.6602 24.156 15.5428 23.9209 15.6413C23.7787 15.7002 23.6092 15.8487 23.6092 16.2217C23.6092 16.5081 23.7184 16.8177 23.8343 17.1459C24.0264 17.69 24.1467 18.0901 23.9432 18.281C23.8308 18.3864 23.7184 18.4262 23.6089 18.3986C23.4077 18.3476 23.2086 18.0796 23.0759 17.6817C23.0701 17.6645 23.0581 17.6519 23.0499 17.6365C23.1185 17.1311 23.0886 16.5223 22.9503 15.8315C22.9152 15.6547 22.7437 15.5396 22.5664 15.5756C22.3897 15.611 22.2752 15.7827 22.3106 15.9596C22.5236 17.0248 22.4596 17.8939 22.1397 18.2843C22.0159 18.4353 21.8608 18.5053 21.6518 18.5053C21.5857 18.5053 21.5406 18.4843 21.4957 18.4327C21.2383 18.1361 21.2394 17.1791 21.3224 16.5938C21.3357 16.5005 21.3076 16.4055 21.2457 16.3341C21.1837 16.2627 21.0939 16.2217 20.9994 16.2217C20.4381 16.2217 20.2253 16.8601 20.0374 17.4234C19.9551 17.671 19.8015 18.1313 19.6945 18.1791C19.497 18.1791 19.3693 17.5992 19.3682 17.2001C19.3677 17.0201 19.2219 16.8745 19.042 16.8745C19.042 16.8745 19.0417 16.8745 19.0414 16.8745C18.8614 16.8745 18.7156 17.0203 18.7156 17.2003C18.7156 17.9528 18.9719 18.8315 19.6944 18.8315C20.2323 18.8315 20.4502 18.2453 20.6326 17.7005C20.6643 18.1337 20.7622 18.5826 21.0027 18.8598C21.1717 19.0548 21.396 19.1576 21.6518 19.1576C22.0545 19.1576 22.3976 18.9986 22.6441 18.6979C22.6888 18.6435 22.7273 18.581 22.7652 18.5179C22.9546 18.7871 23.187 18.9648 23.4489 19.0309C23.5257 19.0503 23.6029 19.0601 23.6793 19.0601C23.9311 19.0601 24.1772 18.9563 24.3897 18.7565C24.4339 18.7149 24.465 18.6696 24.4987 18.6249C24.5785 18.6476 24.6594 18.6611 24.7397 18.6611C25.004 18.6611 25.2584 18.5547 25.4163 18.4534C25.5673 18.3566 25.611 18.1565 25.5151 18.0048C25.419 17.8535 25.218 17.8082 25.066 17.9032C25.0631 17.9045 24.8453 18.0297 24.6967 18.0003C24.6971 17.6426 24.5677 17.2629 24.4496 16.9283C24.3823 16.7377 24.3133 16.5425 24.2808 16.3829C24.3077 16.4056 24.334 16.4291 24.3575 16.452C24.4846 16.5794 24.6912 16.5794 24.8186 16.452C24.8397 16.4309 24.8519 16.4053 24.866 16.3807C25.2041 16.8465 25.8997 17.8255 26.6151 18.9539C26.7517 20.341 26.8715 22.1103 26.8715 24.0509C26.8715 24.2312 27.0176 24.3772 27.1977 24.3772C27.3779 24.3775 27.524 24.2318 27.524 24.0514Z" fill="white"/>
<path d="M27.8501 16.8743C27.8501 17.0546 27.9962 17.2006 28.1764 17.2006C28.3566 17.2006 28.5026 17.0547 28.5026 16.8743C28.5026 16.4904 28.2023 15.8702 28.142 15.7497C28.0614 15.5888 27.8656 15.5239 27.7043 15.6038C27.5431 15.6845 27.4777 15.8804 27.5584 16.0415C27.6761 16.277 27.8501 16.7042 27.8501 16.8743Z" fill="white"/>
<path d="M26.3659 24.0871C26.2059 24.0055 26.0094 24.0702 25.9279 24.2308C25.8929 24.2992 25.8386 24.3755 25.7928 24.4245C25.7783 24.2948 25.8128 24.0358 25.8786 23.8211C25.9224 23.6778 25.863 23.5229 25.7346 23.4458C25.6068 23.3685 25.4419 23.3886 25.336 23.4946L24.6836 24.147C24.5562 24.2744 24.5562 24.4808 24.6836 24.6082C24.811 24.7357 25.0175 24.7357 25.1449 24.6082L25.1615 24.5917C25.1897 24.7226 25.2437 24.8421 25.3361 24.9345C25.4585 25.0568 25.6063 25.1215 25.7599 25.1215C25.7898 25.1215 25.8197 25.1189 25.8497 25.1142C26.2192 25.0543 26.4493 24.6469 26.511 24.5235C26.5911 24.3626 26.5262 24.1681 26.3659 24.0871Z" fill="white"/>
<path d="M26.2393 21.4618H23.9401C23.9605 21.3806 23.9815 21.3031 24.0029 21.2296C24.9198 21.039 25.4648 20.743 25.625 20.3481C25.6804 20.2112 25.7382 19.9343 25.5023 19.616C25.2896 19.3293 24.9894 19.2006 24.6776 19.2643C24.214 19.3582 23.8009 19.8577 23.5046 20.6574C22.5837 20.8151 21.9942 21.1457 21.6209 21.4718C21.4886 20.135 20.9697 19.3408 20.9444 19.303C20.8443 19.1529 20.6416 19.1124 20.492 19.2125C20.3421 19.3125 20.3017 19.5148 20.4014 19.6648C20.4074 19.6737 20.9991 20.5788 20.9991 22.0937C20.9991 23.5827 19.8118 24.7035 19.0418 24.7035C18.6755 24.7035 18.5151 24.2681 18.4447 23.8998C19.1986 23.3715 19.8639 22.76 20.0108 22.1726C20.2096 21.3777 19.9594 20.7919 19.7939 20.4042C19.7861 20.3864 19.7779 20.3673 19.7697 20.3475C19.7767 20.3539 19.7834 20.3605 19.79 20.3669C19.9171 20.4943 20.1238 20.4943 20.2512 20.3669C20.3786 20.2395 20.3786 20.033 20.2512 19.9056C20.0605 19.7148 19.6902 19.415 19.3535 19.5559C19.2113 19.6148 19.0418 19.7632 19.0418 20.1363C19.0418 20.3048 19.1122 20.4695 19.1938 20.6606C19.3407 21.0044 19.5234 21.4323 19.3777 22.0145C19.2915 22.3592 18.8684 22.7772 18.3099 23.1923C18.25 23.1207 18.1635 23.0726 18.063 23.0726H18.0625C17.8825 23.0729 17.7367 23.2185 17.7367 23.3985C17.7367 23.4572 17.7393 23.5199 17.7431 23.5843C17.0449 24.0364 16.2549 24.4549 15.6442 24.7326C15.4803 24.8073 15.4079 25.0006 15.4824 25.1646C15.5371 25.2847 15.6556 25.3558 15.7795 25.3558C15.8247 25.3558 15.8706 25.3466 15.9143 25.3265C16.0977 25.2432 16.9683 24.8375 17.8627 24.2833C18.0274 24.8425 18.3765 25.356 19.0417 25.356C19.8243 25.356 20.7121 24.716 21.2245 23.7606C21.2864 23.8698 21.3574 23.9745 21.4423 24.0721C22.2634 25.0189 23.8673 25.0297 23.9352 25.0297C24.1108 25.0297 24.2548 24.8908 24.2612 24.7153C24.2674 24.5397 24.1336 24.3906 23.9585 24.3783C23.9559 24.378 23.6959 24.3493 23.5513 24.1804C23.4641 24.0785 23.4292 23.9383 23.4446 23.752C23.4779 23.35 24.7748 23.0494 25.9177 23.0317C26.0539 23.0295 26.1745 22.9431 26.2201 22.8148L26.5464 21.8974C26.5818 21.7976 26.5666 21.6864 26.5054 21.6002C26.4449 21.5134 26.3453 21.4618 26.2393 21.4618ZM24.8074 19.904C24.8136 19.9027 24.8218 19.9008 24.8322 19.9008C24.8635 19.9008 24.9127 19.916 24.9783 20.0046C24.9907 20.0212 25.0304 20.0779 25.0204 20.1028C24.983 20.1951 24.7577 20.3478 24.2885 20.486C24.4948 20.0833 24.6967 19.9263 24.8074 19.904ZM22.8373 24.1923C22.5058 24.0846 22.1681 23.9139 21.9343 23.6434C21.6773 23.3463 21.5824 22.9703 21.6447 22.4946C21.654 22.4696 21.6754 22.4204 21.7127 22.3564C22.1721 22.3143 23.3994 22.4953 23.4844 22.8468C23.1058 23.04 22.827 23.3117 22.7948 23.6979C22.7786 23.8917 22.7983 24.0558 22.8373 24.1923Z" fill="white"/>
<path d="M29.7909 16.7711L29.4646 15.7923C29.412 15.635 29.2488 15.541 29.0869 15.5766C28.9243 15.6114 28.8139 15.7626 28.8305 15.928C29.0556 18.1791 29.4814 22.5691 29.4814 23.0725C29.4814 23.5246 28.6773 24.4147 27.3781 25.0644C27.217 25.145 27.1516 25.3408 27.2323 25.5021C27.2895 25.6165 27.4046 25.6824 27.5244 25.6824C27.5733 25.6824 27.6232 25.6712 27.67 25.648C28.8568 25.0545 30.1339 23.9955 30.1339 23.0725C30.1339 22.5906 29.8005 19.1225 29.6096 17.1744C29.7642 17.1084 29.845 16.9336 29.7909 16.7711Z" fill="white"/>
<path d="M32.5127 19.7149C32.5756 19.7777 32.659 19.8105 32.7436 19.8105C32.7987 19.8105 32.8543 19.7965 32.9047 19.7677C33.0323 19.6951 33.0957 19.546 33.0596 19.4036C33.0012 19.1743 32.9817 18.8875 33.0126 18.7703C33.176 18.7754 33.3277 18.6591 33.3517 18.4906C33.3771 18.3122 33.2533 18.1468 33.075 18.1214C32.8592 18.0921 32.6699 18.1555 32.5376 18.3026C32.4519 18.3982 32.4009 18.5209 32.3732 18.6528L31.9954 18.2749C31.868 18.1475 31.6616 18.1475 31.5342 18.2749C31.4068 18.4024 31.4068 18.6088 31.5342 18.7362L32.5127 19.7149Z" fill="white"/>
<path d="M33.2468 20.055L32.0235 20.9318C31.8772 21.0366 31.8433 21.2405 31.9483 21.387C32.0121 21.4759 32.1122 21.5231 32.2139 21.5231C32.2797 21.5231 32.3461 21.5033 32.4037 21.4619L33.627 20.5852C33.7733 20.4804 33.8072 20.2765 33.7022 20.1299C33.597 19.9833 33.3928 19.9492 33.2468 20.055Z" fill="white"/>
<path d="M33.1382 21.282C33.0356 21.4142 33.0503 21.6003 33.1668 21.7147C33.1808 21.7383 33.2445 21.8631 33.2329 22.1843C33.2266 22.3645 33.3674 22.5156 33.5474 22.5219C33.5513 22.5222 33.5553 22.5222 33.5592 22.5222C33.7341 22.5222 33.8788 22.3836 33.885 22.2078C33.9088 21.542 33.6909 21.2986 33.5961 21.2249C33.4542 21.1138 33.2489 21.14 33.1382 21.282Z" fill="white"/>
<path d="M35.9851 23.6843C36.1652 23.6843 36.3113 23.5384 36.3113 23.3581C36.3113 22.8767 36.2866 22.3394 36.2461 21.7803C36.5697 22.3104 36.8384 22.7991 37.0107 23.201C37.0636 23.325 37.1839 23.3988 37.3106 23.3988C37.3534 23.3988 37.397 23.3906 37.4389 23.3724C37.6045 23.3013 37.6812 23.1095 37.6101 22.9442C37.3114 22.2472 36.7532 21.324 36.1175 20.3708C35.9896 19.1734 35.8224 18.0002 35.6925 17.1586C35.7616 17.1656 35.8333 17.1487 35.8962 17.1078C35.9992 17.0418 36.0475 16.9272 36.0406 16.8131C36.0489 16.8452 36.0579 16.8773 36.0766 16.9068C36.0789 16.91 36.2885 17.2562 36.1955 17.7056C36.159 17.8817 36.2725 18.0544 36.4489 18.091C36.4712 18.0954 36.4936 18.0977 36.5153 18.0977C36.6667 18.0977 36.8025 17.9916 36.8345 17.8375C36.9818 17.1248 36.6416 16.5795 36.6271 16.5565C36.5303 16.4048 36.3286 16.3603 36.1766 16.4565C36.0732 16.5224 36.0242 16.6371 36.0309 16.7515C36.0225 16.7192 36.0132 16.6868 35.9941 16.6573L35.4436 15.801C35.3595 15.6703 35.1948 15.6174 35.0505 15.6736C34.9056 15.7303 34.8209 15.8809 34.8478 16.0338C34.8524 16.0595 35.1016 17.4911 35.3226 19.2166C35.0725 18.8634 34.8225 18.5181 34.5799 18.1885C34.5406 17.6949 34.501 17.2386 34.4668 16.8613C34.4848 16.8559 34.5025 16.8489 34.5198 16.8403C34.681 16.7597 34.7464 16.5637 34.6657 16.4026L34.3395 15.7502C34.2691 15.6093 34.1084 15.5392 33.9571 15.5825C33.8059 15.6265 33.7074 15.7717 33.7231 15.9285C33.762 16.3178 33.8025 16.7488 33.8422 17.2015C33.6359 16.9295 33.445 16.6805 33.2816 16.4697C33.3135 16.4423 33.3406 16.4083 33.3607 16.3681C33.4413 16.2069 33.376 16.011 33.2148 15.9303L32.5624 15.6041C32.4256 15.5359 32.2594 15.5717 32.1628 15.6908C32.0666 15.81 32.066 15.98 32.1618 16.0998C32.1795 16.1218 32.9827 17.1287 33.9436 18.4282C34.1102 20.5836 34.2212 22.8258 34.0645 23.2959C34.0358 23.3819 33.9857 23.4832 33.9388 23.4868C33.7416 23.5141 33.271 23.0733 33.0346 22.6008C32.8984 22.3288 32.7025 22.3005 32.5977 22.3052C32.2471 22.3268 32.1103 22.7126 31.8616 23.4129C31.6834 23.9146 31.462 24.5385 31.2134 24.7936C31.0786 24.629 30.9045 24.0767 30.8077 23.5093C30.8531 23.6347 30.9706 23.7255 31.1117 23.7255C31.2919 23.7255 31.438 23.5796 31.438 23.3992C31.438 22.9126 31.0978 19.2076 30.9077 17.177C31.0665 17.1133 31.1499 16.9359 31.0951 16.7715L30.7688 15.7927C30.7164 15.6354 30.5554 15.5426 30.3917 15.5767C30.2295 15.6111 30.1187 15.7618 30.1345 15.9269C30.3562 18.2541 30.7719 22.7492 30.7848 23.3697C30.784 23.3641 30.7829 23.3586 30.7821 23.353C30.7568 23.1746 30.5903 23.0522 30.413 23.0761C30.2346 23.1019 30.1109 23.267 30.1363 23.4453C30.2315 24.1122 30.475 25.2586 31.0356 25.4454C31.0799 25.4604 31.1395 25.4737 31.2094 25.4737C31.3381 25.4737 31.5014 25.4281 31.6685 25.2609C32.0238 24.9057 32.2643 24.2283 32.4765 23.6311C32.5244 23.496 32.5812 23.336 32.6346 23.1991C32.9339 23.6361 33.4561 24.1802 33.9851 24.1377C34.1711 24.1244 34.5094 24.0243 34.6834 23.5024C34.8569 22.982 34.7883 21.1671 34.6714 19.4296C34.9463 19.8148 35.2214 20.2093 35.4839 20.5988C35.5857 21.5758 35.6584 22.5545 35.6584 23.3584C35.6589 23.5383 35.805 23.6843 35.9851 23.6843Z" fill="white"/>
<path d="M38.4608 21.9685C38.2297 20.2469 37.9078 18.2526 37.7039 17.0286C37.796 17.0513 37.8963 17.0327 37.9772 16.9705C38.1205 16.8613 38.148 16.6564 38.0386 16.5134L37.4473 15.7386C37.3561 15.6194 37.1951 15.5774 37.0574 15.6376C36.9196 15.6978 36.8408 15.8444 36.8665 15.9925C36.8724 16.0259 37.4542 19.3749 37.814 22.0552C37.9514 23.0794 37.7508 23.9947 37.2769 24.5032C36.9723 24.8298 36.5687 24.9775 36.0802 24.9491C35.9009 24.9396 35.7454 25.0746 35.7341 25.2543C35.7229 25.434 35.8593 25.5889 36.0392 25.6002C36.0943 25.6038 36.1486 25.6053 36.2024 25.6053C36.8176 25.6053 37.3515 25.3798 37.7541 24.9477C38.369 24.2885 38.6266 23.2024 38.4608 21.9685Z" fill="white"/>
<path d="M34.8722 24.1189C34.7523 24.2492 34.7614 24.4543 34.8883 24.5774C34.906 24.5946 34.9272 24.6284 34.9273 24.645C34.9275 24.6542 34.9143 24.6817 34.878 24.718C34.7506 24.8454 34.7506 25.0518 34.878 25.1792C34.9417 25.243 35.0252 25.2748 35.1087 25.2748C35.1921 25.2748 35.2757 25.243 35.3394 25.1792C35.5463 24.9724 35.5843 24.7625 35.5796 24.6226C35.5695 24.3216 35.3645 24.1273 35.3236 24.0913C35.1902 23.9753 34.992 23.9893 34.8722 24.1189Z" fill="white"/>
<path d="M33.7221 31.2733H33.3958H31.4385V30.947C31.4385 30.7668 31.2924 30.6208 31.1123 30.6208C30.9321 30.6208 30.786 30.7667 30.786 30.947V31.2733H13.4959C14.1483 31.9257 15.4532 32.252 16.432 32.252C17.1339 32.252 25.8894 32.252 30.786 32.252V32.9044C30.786 33.0847 30.9321 33.2307 31.1123 33.2307H33.7221C34.2618 33.2307 34.7008 32.7917 34.7008 32.2519C34.7008 31.7122 34.2618 31.2733 33.7221 31.2733ZM33.7221 32.5782H31.4384V32.2519C33.0106 32.2519 34.0482 32.2519 34.0482 32.2519L33.9896 32.0764C34.0236 32.1277 34.0482 32.1858 34.0482 32.2519C34.0482 32.432 33.9019 32.5782 33.7221 32.5782Z" fill="white"/>
</svg>
