<svg width="48" height="48" viewBox="0 0 48 48" fill="none" xmlns="http://www.w3.org/2000/svg">
<g clip-path="url(#clip0_11_2093)">
<path d="M47.1723 39.724H0.827623C0.370593 39.724 0 39.3535 0 38.8964V9.10338C0 8.64635 0.370593 8.27576 0.827623 8.27576H47.1724C47.6294 8.27576 48 8.64635 48 9.10338V38.8964C47.9999 39.3535 47.6293 39.724 47.1723 39.724Z" fill="#41479B"/>
<path d="M47.6948 8.47592L0.305389 39.524C0.448827 39.6434 0.626483 39.7241 0.82767 39.7241H47.1724C47.6295 39.7241 48 39.3535 48 38.8964V9.10339C48 8.84764 47.8771 8.62761 47.6948 8.47592Z" fill="#73AF00"/>
<path d="M47.9999 9.10338C47.9999 8.64635 47.6293 8.27576 47.1723 8.27576H45.7343L0 38.2397V38.8965C0 39.3535 0.370593 39.7241 0.827623 39.7241H2.26565L47.9999 9.76019V9.10338Z" fill="#FFE15A"/>
<path d="M4.1653 10.8542L3.72224 12.1825L2.32199 12.1934C2.18774 12.1944 2.13205 12.3658 2.24005 12.4456L3.36646 13.2774L2.94411 14.6125C2.90352 14.7406 3.04939 14.8464 3.15871 14.7684L4.29795 13.9542L5.4372 14.7684C5.54642 14.8465 5.6922 14.7406 5.6518 14.6125L5.22945 13.2774L6.35586 12.4456C6.46386 12.3658 6.40817 12.1944 6.27392 12.1934L4.87367 12.1825L4.43061 10.8542C4.38805 10.7268 4.20786 10.7268 4.1653 10.8542Z" fill="white"/>
<path d="M14.8325 10.8542L14.3894 12.1825L12.9892 12.1934C12.8549 12.1944 12.7992 12.3658 12.9072 12.4456L14.0336 13.2774L13.6113 14.6125C13.5707 14.7406 13.7166 14.8464 13.8259 14.7684L14.9651 13.9542L16.1044 14.7684C16.2136 14.8465 16.3594 14.7406 16.319 14.6125L15.8966 13.2774L17.023 12.4456C17.131 12.3658 17.0753 12.1944 16.9411 12.1934L15.5409 12.1825L15.0978 10.8542C15.0551 10.7268 14.8749 10.7268 14.8325 10.8542Z" fill="white"/>
<path d="M9.4987 15.6071L9.05564 16.9354L7.65539 16.9463C7.52114 16.9473 7.46546 17.1187 7.57346 17.1985L8.69986 18.0303L8.27752 19.3654C8.23692 19.4935 8.3828 19.5993 8.49211 19.5213L9.63136 18.7071L10.7706 19.5213C10.8798 19.5994 11.0256 19.4935 10.9852 19.3654L10.5629 18.0303L11.6893 17.1985C11.7973 17.1187 11.7416 16.9473 11.6073 16.9463L10.2071 16.9354L9.76402 15.6071C9.72127 15.4797 9.54117 15.4797 9.4987 15.6071Z" fill="white"/>
<path d="M4.1653 20.36L3.72224 21.6884L2.32199 21.6992C2.18774 21.7003 2.13205 21.8716 2.24005 21.9514L3.36646 22.7833L2.94411 24.1184C2.90352 24.2464 3.04939 24.3523 3.15871 24.2743L4.29795 23.46L5.4372 24.2743C5.54642 24.3524 5.6922 24.2464 5.6518 24.1184L5.22945 22.7833L6.35586 21.9514C6.46386 21.8716 6.40817 21.7003 6.27392 21.6992L4.87367 21.6884L4.43061 20.36C4.38805 20.2326 4.20786 20.2326 4.1653 20.36Z" fill="white"/>
<path d="M14.8325 20.36L14.3894 21.6884L12.9892 21.6992C12.8549 21.7003 12.7992 21.8716 12.9072 21.9514L14.0336 22.7833L13.6113 24.1184C13.5707 24.2464 13.7166 24.3523 13.8259 24.2743L14.9651 23.46L16.1044 24.2743C16.2136 24.3524 16.3594 24.2464 16.319 24.1184L15.8966 22.7833L17.023 21.9514C17.131 21.8716 17.0753 21.7003 16.9411 21.6992L15.5409 21.6884L15.0978 20.36C15.0551 20.2326 14.8749 20.2326 14.8325 20.36Z" fill="white"/>
</g>
<defs>
<clipPath id="clip0_11_2093">
<rect width="48" height="48" fill="white"/>
</clipPath>
</defs>
</svg>
