<svg width="48" height="48" viewBox="0 0 48 48" fill="none" xmlns="http://www.w3.org/2000/svg">
<path d="M47.9999 18.7588H0V9.10359C0 8.64656 0.370593 8.27597 0.827623 8.27597H47.1724C47.6294 8.27597 48 8.64656 48 9.10359L47.9999 18.7588Z" fill="#FF4B55"/>
<path d="M47.1723 39.724H0.827623C0.370593 39.724 0 39.3534 0 38.8963V29.2412H47.9999V38.8963C47.9999 39.3535 47.6293 39.724 47.1723 39.724Z" fill="#464655"/>
<path d="M47.9999 18.7587H0V29.2408H47.9999V18.7587Z" fill="white"/>
<path d="M0.305249 39.524L19.3216 24.4288C19.5977 24.2096 19.5977 23.7902 19.3216 23.5709L0.305249 8.47589C0.122906 8.62767 0 8.84761 0 9.10336V38.8964C0 39.1522 0.122906 39.3722 0.305249 39.524Z" fill="#73AF00"/>
</svg>
