<svg width="48" height="48" viewBox="0 0 48 48" fill="none" xmlns="http://www.w3.org/2000/svg">
<path d="M47.1722 39.7237H0.827622C0.370592 39.7237 0 39.3531 0 38.8961V9.10313C0 8.6461 0.370592 8.27551 0.827622 8.27551H47.1723C47.6293 8.27551 47.9999 8.6461 47.9999 9.10313V38.8961C47.9998 39.3531 47.6292 39.7237 47.1722 39.7237Z" fill="#41479B"/>
<path d="M47.9998 9.10313C47.9998 8.6461 47.6292 8.27551 47.1722 8.27551H43.4696L28.1377 18.3205V8.27551H19.8619V18.3205L4.53017 8.27551H0.827622C0.370592 8.27551 0 8.6461 0 9.10313V11.2435L13.1539 19.8617H0V28.1375H13.1539L0 36.7557V38.8961C0 39.3531 0.370592 39.7237 0.827622 39.7237H4.53026L19.8621 29.6787V39.7237H28.1379V29.6787L43.4697 39.7237H47.1724C47.6294 39.7237 48 39.3531 48 38.8961V36.7557L34.8461 28.1376H47.9998V19.8617H34.8459L47.9998 11.2435V9.10313Z" fill="white"/>
<path d="M47.9998 21.5169H26.4827V8.27551H21.5171V21.5169H0V26.4823H21.5171V39.7237H26.4827V26.4823H47.9998V21.5169Z" fill="#FF4B55"/>
<path d="M16.7764 28.1379L0.0234375 39.0126C0.0820313 39.4123 0.411563 39.7242 0.827531 39.7242H1.96744L19.8165 28.138H16.7764V28.1379Z" fill="#FF4B55"/>
<path d="M32.4736 28.1379H29.4334L47.2565 39.707C47.6719 39.6628 47.9998 39.3236 47.9998 38.8964V38.216L32.4736 28.1379Z" fill="#FF4B55"/>
<path d="M0 10.0165L15.1668 19.8615H18.2069L0.482156 8.35596C0.199031 8.48749 0 8.77014 0 9.10286V10.0165Z" fill="#FF4B55"/>
<path d="M31.178 19.8618L47.9712 8.96085C47.9014 8.57442 47.5789 8.27563 47.1723 8.27563H45.9867L28.1379 19.8618H31.178Z" fill="#FF4B55"/>
</svg>
