<svg width="48" height="48" viewBox="0 0 48 48" fill="none" xmlns="http://www.w3.org/2000/svg">
<path d="M47.9999 18.7588H0V9.10362C0 8.64659 0.370593 8.276 0.827623 8.276H47.1724C47.6294 8.276 48 8.64659 48 9.10362L47.9999 18.7588Z" fill="white"/>
<path d="M47.1723 39.7242H0.827623C0.370593 39.7242 0 39.3536 0 38.8966V29.2415H47.9999V38.8966C47.9999 39.3537 47.6293 39.7242 47.1723 39.7242Z" fill="#FF4B55"/>
<path d="M47.9999 18.7584H0V29.2406H47.9999V18.7584Z" fill="#41479B"/>
<path d="M16.1263 14.7535C16.1263 14.7535 15.9596 20.0623 15.2147 21.5531C14.2926 23.3855 13.3655 23.92 11.9862 24.4139C10.607 23.9201 9.67991 23.386 8.7576 21.5531C8.01276 20.0622 7.84588 14.754 7.84598 14.7535C10.4782 13.565 13.4941 13.565 16.1263 14.7535Z" fill="#41479B"/>
<path d="M13.1853 22.1153C13.0844 22.0506 13.0117 22.0043 12.8461 22.0043C12.681 22.0043 12.6083 22.0506 12.5079 22.1153C12.3928 22.1886 12.2498 22.2802 11.9838 22.2802C11.7177 22.2802 11.5746 22.1886 11.4596 22.115C11.3592 22.0507 11.2866 22.0045 11.1215 22.0045C10.9564 22.0045 10.8838 22.0507 10.7834 22.115C10.6748 22.1846 10.5374 22.2676 10.2987 22.2769C10.8013 22.8898 11.3283 23.1806 11.986 23.4331C12.6433 23.1805 13.1702 22.89 13.6729 22.2771C13.4324 22.2683 13.2943 22.1848 13.1853 22.1153Z" fill="white"/>
<path d="M9.92187 21.1347C10.0223 21.1989 10.0946 21.2452 10.2592 21.2452C10.4243 21.2452 10.4968 21.1989 10.5972 21.1347C10.7123 21.061 10.8553 20.9694 11.1213 20.9694C11.3873 20.9694 11.5303 21.0611 11.6454 21.1343C11.7458 21.199 11.8185 21.2453 11.9836 21.2453C12.1487 21.2453 12.2213 21.1991 12.3217 21.1349C12.4367 21.0612 12.5798 20.9696 12.8459 20.9696C13.1123 20.9696 13.2556 21.0613 13.3706 21.1345C13.4715 21.1992 13.544 21.2455 13.7096 21.2455C13.8753 21.2455 13.948 21.1993 14.0488 21.1345C14.1449 21.0733 14.2656 21.0024 14.4566 20.9798C14.5067 20.8494 14.5554 20.7008 14.6006 20.5204L13.366 18.4626L12.9059 19.3826L11.9859 17.5426L11.0658 19.3826L10.6058 18.4626L9.37184 20.5192C9.41693 20.6995 9.46549 20.8488 9.51565 20.9799C9.70596 21.0023 9.82606 21.0732 9.92187 21.1347Z" fill="white"/>
<path d="M14.2341 21.4254C14.119 21.4986 13.9758 21.5903 13.7094 21.5903C13.4432 21.5903 13.3 21.4986 13.1849 21.4254C13.084 21.3607 13.0113 21.3144 12.8457 21.3144C12.6806 21.3144 12.6079 21.3606 12.5075 21.4254C12.3925 21.4986 12.2494 21.5903 11.9834 21.5903C11.7173 21.5903 11.5742 21.4986 11.4592 21.425C11.3588 21.3608 11.2862 21.3146 11.1211 21.3146C10.956 21.3146 10.8835 21.3608 10.7831 21.425C10.668 21.4987 10.525 21.5903 10.259 21.5903C9.99321 21.5903 9.85034 21.4986 9.73568 21.425C9.73512 21.4247 9.73465 21.4244 9.73409 21.424C9.82428 21.5877 9.91437 21.738 10.0042 21.8743C10.0713 21.9111 10.1415 21.9353 10.259 21.9353C10.4241 21.9353 10.4966 21.8891 10.5971 21.8249C10.7121 21.7512 10.8551 21.6596 11.1211 21.6596C11.3871 21.6596 11.5301 21.7513 11.6452 21.8245C11.7456 21.8892 11.8183 21.9355 11.9834 21.9355C12.1485 21.9355 12.2211 21.8893 12.3215 21.825C12.4365 21.7514 12.5796 21.6598 12.8457 21.6598C13.1121 21.6598 13.2554 21.7515 13.3705 21.8247C13.4713 21.8894 13.5438 21.9357 13.7095 21.9357C13.8287 21.9357 13.8995 21.9111 13.9676 21.8735C14.0574 21.7374 14.1474 21.5871 14.2375 21.4236C14.2363 21.4241 14.2353 21.4247 14.2341 21.4254Z" fill="white"/>
<path d="M12.0045 15.9583L12.0852 16.2221L12.354 16.1601C12.3722 16.1559 12.3849 16.1779 12.3722 16.1915L12.1841 16.3933L12.3722 16.5952C12.3849 16.6089 12.3723 16.6309 12.354 16.6266L12.0852 16.5646L12.0045 16.8284C11.999 16.8463 11.9736 16.8463 11.9682 16.8284L11.8875 16.5646L11.6187 16.6266C11.6005 16.6308 11.5878 16.6088 11.6005 16.5952L11.7886 16.3933L11.6005 16.1915C11.5878 16.1778 11.6004 16.1558 11.6187 16.1601L11.8875 16.2221L11.9682 15.9583C11.9737 15.9403 11.999 15.9403 12.0045 15.9583Z" fill="#FFE15A"/>
<path d="M10.6819 14.6908L10.7626 14.9546L11.0314 14.8926C11.0496 14.8884 11.0623 14.9105 11.0496 14.924L10.8615 15.1259L11.0496 15.3277C11.0623 15.3414 11.0497 15.3635 11.0314 15.3591L10.7626 15.2972L10.6819 15.561C10.6765 15.5789 10.6511 15.5789 10.6456 15.561L10.5649 15.2972L10.2961 15.3591C10.2779 15.3634 10.2652 15.3413 10.2779 15.3277L10.466 15.1259L10.2779 14.924C10.2652 14.9104 10.2778 14.8883 10.2961 14.8926L10.5649 14.9546L10.6456 14.6908C10.6511 14.6729 10.6764 14.6729 10.6819 14.6908Z" fill="#FFE15A"/>
<path d="M13.3366 14.6908L13.4173 14.9546L13.6861 14.8926C13.7043 14.8884 13.717 14.9105 13.7043 14.924L13.5162 15.1259L13.7043 15.3277C13.717 15.3414 13.7044 15.3635 13.6861 15.3591L13.4173 15.2972L13.3366 15.561C13.3312 15.5789 13.3058 15.5789 13.3003 15.561L13.2196 15.2972L12.9508 15.3591C12.9326 15.3634 12.9199 15.3413 12.9326 15.3277L13.1207 15.1259L12.9326 14.924C12.9199 14.9104 12.9325 14.8883 12.9508 14.8926L13.2196 14.9546L13.3003 14.6908C13.3059 14.6729 13.3312 14.6729 13.3366 14.6908Z" fill="#FFE15A"/>
<path d="M15.65 14.5536C15.6528 14.7003 15.6552 14.8483 15.6552 15.0082C15.5888 16.6679 15.3418 20.2824 14.8037 21.371C14.0103 22.9644 13.2778 23.4911 11.9861 23.9764C10.6944 23.4911 9.96192 22.9646 9.16908 21.3722C8.62899 20.2795 8.38027 16.6035 8.3168 15.0083C8.3168 14.8482 8.31942 14.7019 8.32167 14.554C8.16249 14.6163 8.00424 14.6822 7.84749 14.753C7.85855 15.0753 7.9388 17.1897 8.17983 19.0489C8.31577 20.0868 8.50289 21.0433 8.75761 21.5532C9.67983 23.3861 10.6069 23.9202 11.9862 24.414C13.3655 23.9201 14.2925 23.3857 15.2148 21.5532C15.4696 21.0433 15.6567 20.0868 15.7927 19.0489C16.0336 17.1897 16.1138 15.0753 16.1249 14.753C15.9679 14.682 15.8096 14.6159 15.65 14.5536Z" fill="#FF1722"/>
</svg>
