<svg width="48" height="48" viewBox="0 0 48 48" fill="none" xmlns="http://www.w3.org/2000/svg">
<path d="M47.9999 18.7587H0V9.10347C0 8.64644 0.370593 8.27585 0.827623 8.27585H47.1724C47.6294 8.27585 48 8.64644 48 9.10347L47.9999 18.7587Z" fill="white"/>
<path d="M47.1723 39.7242H0.827623C0.370593 39.7242 0 39.3536 0 38.8965V29.2414H47.9999V38.8965C47.9999 39.3537 47.6293 39.7242 47.1723 39.7242Z" fill="#FF4B55"/>
<path d="M47.9999 18.7585H0V29.2407H47.9999V18.7585Z" fill="#41479B"/>
<path d="M12.2085 31.808C11.9636 31.6673 6.20687 28.319 6.20687 23.1724V16.138H18.6207V23.1724C18.6207 28.319 12.8639 31.6673 12.619 31.808L12.4138 31.9251L12.2085 31.808Z" fill="#FF4B55"/>
<path d="M15.6651 21.9311L13.7143 22.188H13.0641V21.0239H13.4542L15.0148 21.2808L14.8035 20.3736L15.0148 19.4664L13.4542 19.7233H13.0641V19.3301L13.321 17.3793L12.4139 17.6436L11.5068 17.3793L11.7636 19.3301V19.7233H11.3734L9.8129 19.4664L10.0242 20.3736L9.8129 21.2808L11.3734 21.0239H11.7636V22.188H11.1134L9.16265 21.9311L9.42684 22.8382L9.16265 23.7454L11.1134 23.4884H11.7636V26.4828H13.0641V23.4884H13.7143L15.6651 23.7454L15.4009 22.8382L15.6651 21.9311Z" fill="white"/>
<path d="M12.414 25.2414C11.5592 25.2414 10.826 25.76 10.5107 26.4994C10.455 26.4948 10.4017 26.4827 10.345 26.4827C9.24336 26.4827 8.35133 27.3462 8.28815 28.4319C9.96392 30.4948 12.0629 31.724 12.2088 31.8079L12.414 31.9251L12.6192 31.8079C12.7651 31.724 14.864 30.4949 16.5398 28.4319C16.4766 27.3462 15.5846 26.4827 14.4829 26.4827C14.4262 26.4827 14.373 26.4948 14.3173 26.4994C14.0019 25.76 13.2688 25.2414 12.414 25.2414Z" fill="#41479B"/>
<path d="M18.2069 16.5518C18.2069 16.5518 18.2069 21.5174 18.2069 23.1725C18.2069 28.1381 12.4138 31.4484 12.4138 31.4484C12.4138 31.4484 6.62073 28.1381 6.62073 23.1725C6.62073 21.5174 6.62073 16.5518 6.62073 16.5518H18.2069ZM19.0344 15.7242H18.2068H6.62073H5.79311V16.5518V23.1725C5.79311 28.5564 11.7497 32.0219 12.0032 32.1669L12.4138 32.4015L12.8244 32.1669C13.078 32.0219 19.0345 28.5563 19.0345 23.1725V16.5518V15.7242H19.0344Z" fill="white"/>
</svg>
