<svg width="48" height="48" viewBox="0 0 48 48" fill="none" xmlns="http://www.w3.org/2000/svg">
<path d="M47.9999 23.9999H0V9.10338C0 8.64635 0.370593 8.27576 0.827623 8.27576H47.1724C47.6294 8.27576 48 8.64635 48 9.10338L47.9999 23.9999Z" fill="white"/>
<path d="M0 23.9999H47.9999V38.8965C47.9999 39.3535 47.6293 39.7241 47.1723 39.7241H0.827623C0.370593 39.7241 0 39.3535 0 38.8965V23.9999Z" fill="#82AFFF"/>
<path d="M24.0768 30.7481C23.9366 30.742 20.6276 30.5728 18.967 28.2975C17.9991 26.9717 17.806 25.2082 18.3929 23.0562L18.63 23.1209C18.064 25.1968 18.2438 26.8892 19.1648 28.1517C20.7546 30.3313 24.0542 30.5011 24.0876 30.5025L24.0768 30.7481Z" fill="#B46446"/>
<path d="M18.3907 22.1021C18.2276 22.5271 18.2648 22.9721 18.4537 23.3094C18.8199 23.1852 19.1453 22.8794 19.3085 22.4544C19.4717 22.0294 19.4345 21.5844 19.2455 21.2471C18.8793 21.3713 18.5539 21.677 18.3907 22.1021Z" fill="#41AA5A"/>
<path d="M20.4633 27.9772C20.2822 28.276 20.2347 28.6766 20.3689 29.0655C20.4942 29.4288 20.7527 29.6969 21.0524 29.8322C20.7613 29.6795 20.3911 29.6414 20.0277 29.7667C19.6388 29.9008 19.3527 30.1851 19.2289 30.5118C19.5277 30.6929 19.9282 30.7405 20.3172 30.6063C20.7061 30.4722 20.9922 30.1878 21.1159 29.8611L21.1156 29.8609C21.2952 29.5625 21.3422 29.1635 21.2086 28.776C21.0744 28.3871 20.7902 28.1009 20.4633 27.9772Z" fill="#41AA5A"/>
<path d="M19.7547 26.8927C19.4754 27.1024 19.2819 27.4564 19.2613 27.8673C19.2421 28.2512 19.3821 28.5962 19.6096 28.8334C19.3963 28.5833 19.067 28.4098 18.6834 28.3906C18.2726 28.3699 17.901 28.5272 17.6644 28.7842C17.8741 29.0636 18.2281 29.2571 18.6388 29.2776C19.0497 29.2982 19.4212 29.141 19.6578 28.884C19.6577 28.8839 19.6576 28.8838 19.6576 28.8838C19.9354 28.6737 20.1278 28.321 20.1484 27.9116C20.1689 27.5008 20.0118 27.1292 19.7547 26.8927Z" fill="#41AA5A"/>
<path d="M19.4484 25.67C19.1105 25.7588 18.7977 26.0136 18.6237 26.3862C18.4609 26.7345 18.4604 27.1069 18.5816 27.4124C18.4784 27.1003 18.239 26.8153 17.8908 26.6526C17.5181 26.4786 17.1148 26.4838 16.7987 26.6326C16.8875 26.9705 17.1423 27.2833 17.5149 27.4573C17.8876 27.6314 18.291 27.6262 18.607 27.4774C18.607 27.4774 18.6069 27.4771 18.6068 27.477C18.9434 27.3874 19.2547 27.1334 19.4281 26.7621C19.6024 26.3897 19.5973 25.9861 19.4484 25.67Z" fill="#41AA5A"/>
<path d="M19.6221 24.4567C19.2744 24.4221 18.8925 24.5521 18.5995 24.8407C18.3257 25.1105 18.1953 25.4594 18.2025 25.788C18.2146 25.4596 18.0894 25.1089 17.8197 24.8352C17.5309 24.5421 17.1511 24.4066 16.803 24.4359C16.7684 24.7836 16.8982 25.1654 17.187 25.4585C17.4757 25.7517 17.8556 25.8872 18.2037 25.8578C18.2037 25.8578 18.2037 25.8575 18.2037 25.8572C18.5505 25.8905 18.9307 25.7611 19.2228 25.4733C19.5159 25.1848 19.6515 24.8048 19.6221 24.4567Z" fill="#41AA5A"/>
<path d="M19.868 23.3019C19.5308 23.2102 19.1327 23.2752 18.7959 23.5113C18.4812 23.7321 18.2949 24.0545 18.2477 24.3799C18.314 24.058 18.2485 23.6916 18.0279 23.377C17.7918 23.0403 17.4396 22.8437 17.0913 22.815C16.9996 23.1521 17.0646 23.5503 17.3007 23.887C17.5369 24.2238 17.8891 24.4204 18.2374 24.449C18.2374 24.4489 18.2374 24.4488 18.2374 24.4488C18.5738 24.5389 18.9703 24.474 19.3059 24.2386C19.6427 24.0023 19.8393 23.6501 19.868 23.3019Z" fill="#41AA5A"/>
<path d="M19.9659 29.9288C20.1073 29.9288 20.2219 29.8142 20.2219 29.6728C20.2219 29.5314 20.1073 29.4168 19.9659 29.4168C19.8245 29.4168 19.7099 29.5314 19.7099 29.6728C19.7099 29.8142 19.8245 29.9288 19.9659 29.9288Z" fill="#FFE15A"/>
<path d="M21.1424 30.0722C21.2838 30.0722 21.3984 29.9576 21.3984 29.8162C21.3984 29.6748 21.2838 29.5602 21.1424 29.5602C21.001 29.5602 20.8864 29.6748 20.8864 29.8162C20.8864 29.9576 21.001 30.0722 21.1424 30.0722Z" fill="#FFE15A"/>
<path d="M19.2899 27.9938C19.4313 27.9938 19.5459 27.8792 19.5459 27.7378C19.5459 27.5964 19.4313 27.4818 19.2899 27.4818C19.1485 27.4818 19.0339 27.5964 19.0339 27.7378C19.0339 27.8792 19.1485 27.9938 19.2899 27.9938Z" fill="#FFE15A"/>
<path d="M17.6616 26.0682C17.803 26.0682 17.9176 25.9535 17.9176 25.8121C17.9176 25.6707 17.803 25.5561 17.6616 25.5561C17.5202 25.5561 17.4055 25.6707 17.4055 25.8121C17.4055 25.9535 17.5202 26.0682 17.6616 26.0682Z" fill="#FFE15A"/>
<path d="M18.7986 24.7651C18.9401 24.7651 19.0547 24.6505 19.0547 24.509C19.0547 24.3676 18.9401 24.253 18.7986 24.253C18.6572 24.253 18.5426 24.3676 18.5426 24.509C18.5426 24.6505 18.6572 24.7651 18.7986 24.7651Z" fill="#FFE15A"/>
<path d="M18.3675 23.4282C18.5089 23.4282 18.6235 23.3136 18.6235 23.1722C18.6235 23.0308 18.5089 22.9161 18.3675 22.9161C18.2261 22.9161 18.1115 23.0308 18.1115 23.1722C18.1115 23.3136 18.2261 23.4282 18.3675 23.4282Z" fill="#FFE15A"/>
<path d="M24.0874 30.7481L24.0766 30.5022C24.1099 30.501 27.4096 30.331 28.9994 28.1515C29.9204 26.8891 30.1002 25.1966 29.5342 23.1207L29.7713 23.056C30.3582 25.208 30.165 26.9715 29.1972 28.2972C27.5367 30.5727 24.2277 30.7421 24.0874 30.7481Z" fill="#B46446"/>
<path d="M29.7736 22.1021C29.9367 22.5271 29.8995 22.9721 29.7106 23.3094C29.3444 23.1852 29.019 22.8794 28.8558 22.4544C28.6927 22.0294 28.7299 21.5844 28.9188 21.2471C29.285 21.3713 29.6104 21.677 29.7736 22.1021Z" fill="#41AA5A"/>
<path d="M27.7008 27.9772C27.8819 28.276 27.9295 28.6766 27.7952 29.0655C27.67 29.4288 27.4114 29.6969 27.1118 29.8322C27.4029 29.6795 27.7731 29.6414 28.1365 29.7667C28.5253 29.9008 28.8115 30.1851 28.9352 30.5118C28.6364 30.6929 28.2359 30.7405 27.847 30.6063C27.4581 30.4722 27.172 30.1878 27.0482 29.8611C27.0483 29.861 27.0485 29.861 27.0485 29.861C26.8691 29.5624 26.8221 29.1634 26.9557 28.776C27.0897 28.3871 27.3741 28.1009 27.7008 27.9772Z" fill="#41AA5A"/>
<path d="M28.4096 26.8927C28.6889 27.1024 28.8824 27.4564 28.903 27.8673C28.9222 28.2512 28.7822 28.5962 28.5547 28.8334C28.768 28.5833 29.0973 28.4098 29.4809 28.3906C29.8917 28.3699 30.2633 28.5272 30.4999 28.7842C30.2902 29.0636 29.9362 29.2571 29.5254 29.2776C29.1145 29.2982 28.743 29.141 28.5064 28.884C28.5065 28.8839 28.5066 28.8838 28.5066 28.8838C28.2288 28.6737 28.0363 28.321 28.0158 27.9116C27.9953 27.5008 28.1525 27.1292 28.4096 26.8927Z" fill="#41AA5A"/>
<path d="M28.7158 25.67C29.0537 25.7588 29.3666 26.0136 29.5406 26.3862C29.7033 26.7345 29.7039 27.1069 29.5826 27.4124C29.6858 27.1003 29.9252 26.8153 30.2734 26.6526C30.6461 26.4786 31.0495 26.4838 31.3655 26.6326C31.2767 26.9705 31.0219 27.2833 30.6493 27.4573C30.2766 27.6314 29.8733 27.6262 29.5572 27.4774C29.5572 27.4774 29.5573 27.4771 29.5574 27.477C29.2208 27.3874 28.9095 27.1334 28.7361 26.7621C28.5617 26.3897 28.567 25.9861 28.7158 25.67Z" fill="#41AA5A"/>
<path d="M28.5421 24.4567C28.8898 24.4221 29.2718 24.5521 29.5647 24.8407C29.8386 25.1105 29.969 25.4594 29.9618 25.788C29.9497 25.4596 30.0748 25.1089 30.3445 24.8352C30.6333 24.5421 31.0132 24.4066 31.3613 24.4359C31.3958 24.7836 31.266 25.1654 30.9773 25.4585C30.6885 25.7517 30.3086 25.8872 29.9605 25.8578C29.9605 25.8578 29.9605 25.8575 29.9605 25.8572C29.6138 25.8905 29.2335 25.7611 28.9415 25.4733C28.6483 25.1848 28.5128 24.8048 28.5421 24.4567Z" fill="#41AA5A"/>
<path d="M28.2962 23.3019C28.6333 23.2102 29.0315 23.2752 29.3682 23.5113C29.683 23.7321 29.8692 24.0545 29.9165 24.3799C29.8502 24.058 29.9156 23.6916 30.1362 23.377C30.3724 23.0403 30.7246 22.8437 31.0729 22.815C31.1646 23.1521 31.0996 23.5503 30.8635 23.887C30.6273 24.2238 30.2751 24.4204 29.9268 24.449C29.9268 24.4489 29.9268 24.4488 29.9268 24.4488C29.5904 24.5389 29.1939 24.474 28.8582 24.2386C28.5215 24.0023 28.3249 23.6501 28.2962 23.3019Z" fill="#41AA5A"/>
<path d="M28.1989 29.9288C28.3403 29.9288 28.4549 29.8142 28.4549 29.6728C28.4549 29.5314 28.3403 29.4168 28.1989 29.4168C28.0575 29.4168 27.9429 29.5314 27.9429 29.6728C27.9429 29.8142 28.0575 29.9288 28.1989 29.9288Z" fill="#FFE15A"/>
<path d="M27.0206 30.0722C27.162 30.0722 27.2766 29.9576 27.2766 29.8162C27.2766 29.6748 27.162 29.5602 27.0206 29.5602C26.8792 29.5602 26.7645 29.6748 26.7645 29.8162C26.7645 29.9576 26.8792 30.0722 27.0206 30.0722Z" fill="#FFE15A"/>
<path d="M28.874 27.9938C29.0154 27.9938 29.13 27.8792 29.13 27.7378C29.13 27.5964 29.0154 27.4818 28.874 27.4818C28.7326 27.4818 28.618 27.5964 28.618 27.7378C28.618 27.8792 28.7326 27.9938 28.874 27.9938Z" fill="#FFE15A"/>
<path d="M30.5025 26.0682C30.6439 26.0682 30.7586 25.9535 30.7586 25.8121C30.7586 25.6707 30.6439 25.5561 30.5025 25.5561C30.3611 25.5561 30.2465 25.6707 30.2465 25.8121C30.2465 25.9535 30.3611 26.0682 30.5025 26.0682Z" fill="#FFE15A"/>
<path d="M29.3662 24.7651C29.5076 24.7651 29.6222 24.6505 29.6222 24.509C29.6222 24.3676 29.5076 24.253 29.3662 24.253C29.2248 24.253 29.1101 24.3676 29.1101 24.509C29.1101 24.6505 29.2248 24.7651 29.3662 24.7651Z" fill="#FFE15A"/>
<path d="M29.7975 23.4282C29.939 23.4282 30.0536 23.3136 30.0536 23.1722C30.0536 23.0308 29.939 22.9161 29.7975 22.9161C29.6561 22.9161 29.5415 23.0308 29.5415 23.1722C29.5415 23.3136 29.6561 23.4282 29.7975 23.4282Z" fill="#FFE15A"/>
<path d="M25.523 22.1478H22.5863C21.6722 22.1478 20.9312 22.8888 20.9312 23.803V26.39C20.9312 27.3042 21.6722 28.0451 22.5863 28.0451H25.523C26.4371 28.0451 27.1782 27.3042 27.1782 26.39V23.803C27.1782 22.8888 26.4372 22.1478 25.523 22.1478Z" fill="#8CD7FF"/>
<path d="M24.5393 24.3992V24.727H24.2117V24.3992H23.9594V24.727H23.6317V24.3992H23.4268V25.0546L23.5906 25.2622V27.676H24.5736V25.2622L24.7374 25.0546V24.3992H24.5393Z" fill="white"/>
<path d="M24.1298 23.3616C24.2919 23.283 24.3347 23.6143 24.3347 23.6143C24.676 23.4435 24.587 23.1665 24.5054 23.034C24.3962 22.8565 23.9593 22.7882 23.775 23.1569C23.5907 23.5257 24.0891 24.2561 24.0891 24.2561C24.1161 24.0307 23.9181 23.4641 24.1298 23.3616Z" fill="white"/>
<path d="M26.2239 25.0102V25.3379H25.8961V25.0102H25.6438V25.3379H25.3161V25.0102H25.1111V25.6657L25.275 25.8732V28.287H26.2581V25.8732L26.4219 25.6657V25.0102H26.2239Z" fill="white"/>
<path d="M25.8144 23.9726C25.9765 23.894 26.0192 24.2252 26.0192 24.2252C26.3606 24.0545 26.2715 23.7775 26.19 23.645C26.0807 23.4675 25.6439 23.3992 25.4596 23.7679C25.2752 24.1366 25.7736 24.867 25.7736 24.867C25.8008 24.6417 25.6029 24.075 25.8144 23.9726Z" fill="white"/>
<path d="M22.8549 25.0102V25.3379H22.5272V25.0102H22.2749V25.3379H21.9472V25.0102H21.7422V25.6657L21.9061 25.8732V28.287H22.8891V25.8732L23.053 25.6657V25.0102H22.8549Z" fill="white"/>
<path d="M22.4452 23.9726C22.6073 23.894 22.6501 24.2252 22.6501 24.2252C22.9914 24.0545 22.9024 23.7775 22.8208 23.645C22.7116 23.4675 22.2747 23.3992 22.0904 23.7679C21.9061 24.1366 22.4045 24.867 22.4045 24.867C22.4317 24.6417 22.2337 24.075 22.4452 23.9726Z" fill="white"/>
<path d="M26.7706 27.8508C26.5518 27.7426 26.3088 27.676 26.0482 27.676C25.7689 27.676 25.51 27.7525 25.2798 27.8757C24.9807 27.5533 24.5567 27.3484 24.0821 27.3484C23.6074 27.3484 23.1837 27.5533 22.8843 27.8757C22.6542 27.7525 22.3952 27.676 22.116 27.676C21.8552 27.676 21.6122 27.7426 21.3935 27.8508C21.8613 28.7088 22.7572 30.0953 24.0821 30.6251C25.407 30.0953 26.3028 28.7088 26.7706 27.8508Z" fill="#6EC86E"/>
<path d="M24.0672 16.87L24.082 16.8627C24.082 16.8627 24.0771 16.864 24.0672 16.87Z" fill="#FFE15A"/>
<path d="M24.0821 16.8627L24.0969 16.87C24.087 16.864 24.0821 16.8627 24.0821 16.8627Z" fill="#FFE15A"/>
<path d="M27.2257 18.2656C27.1335 17.7332 26.4475 17.6409 25.659 17.5898C24.8705 17.5386 24.5326 17.088 24.5326 17.088H23.6314C23.6314 17.088 23.2935 17.5386 22.505 17.5898C21.7166 17.6409 21.0304 17.7331 20.9383 18.2656C20.8461 18.798 21.522 19.6377 21.522 19.6377L22.1159 19.1565C22.1159 19.1565 21.3888 18.4602 21.7471 18.2042C22.1011 17.9514 23.133 18.1265 23.5925 17.5195C23.5731 17.6464 23.5799 17.8029 23.6585 17.9959C23.8087 18.3646 23.7541 18.8288 23.7541 18.8288H24.0819H24.4096C24.4096 18.8288 24.355 18.3645 24.5053 17.9959C24.5839 17.8029 24.5909 17.6462 24.5713 17.5195C25.0309 18.1265 26.0628 17.9514 26.4166 18.2042C26.775 18.4602 26.0479 19.1565 26.0479 19.1565L26.6418 19.6377C26.642 19.6377 27.3179 18.798 27.2257 18.2656Z" fill="#FFE15A"/>
<path d="M24.4165 15.2448H24.2458V15.0605C24.2458 14.9699 24.1725 14.8966 24.0819 14.8966C23.9913 14.8966 23.918 14.9699 23.918 15.0605V15.2448H23.7404C23.6499 15.2448 23.5766 15.3181 23.5766 15.4087C23.5766 15.4992 23.6499 15.5725 23.7404 15.5725H23.918V16.0435C23.918 16.1341 23.9913 16.2074 24.0819 16.2074C24.1725 16.2074 24.2458 16.1341 24.2458 16.0435V15.5725H24.4165C24.507 15.5725 24.5804 15.4992 24.5804 15.4087C24.5804 15.3181 24.507 15.2448 24.4165 15.2448Z" fill="#FFE15A"/>
<path d="M24.0815 16.5352C24.2625 16.5352 24.4092 16.3885 24.4092 16.2074C24.4092 16.0264 24.2625 15.8797 24.0815 15.8797C23.9005 15.8797 23.7537 16.0264 23.7537 16.2074C23.7537 16.3885 23.9005 16.5352 24.0815 16.5352Z" fill="#FFF0E1"/>
<path d="M21.7338 22.8018C21.8658 22.8677 22.0199 22.9247 22.1775 22.9247C22.7204 22.9247 22.9865 22.6177 22.9865 22.0748C22.9865 21.5319 22.6589 21.1225 22.1161 21.1225C22.1161 21.1225 22.0549 21.1235 21.9568 21.1385C21.9357 21.1419 21.9148 21.1451 21.8942 21.1498C21.3723 21.2493 20.0825 21.7302 19.8223 24.0716C19.4587 27.3446 22.1161 30.2975 24.0822 30.9528V30.6251C24.0821 30.6252 19.44 27.0753 21.7338 22.8018Z" fill="#FFC75A"/>
<path d="M22.1159 21.4502L24.0821 22.1056L22.1159 22.7609V21.4502Z" fill="#FFC75A"/>
<path d="M26.0481 22.7609L24.0821 22.1056L26.0481 21.4502V22.7609Z" fill="#FFE15A"/>
<path d="M20.1479 24.1079C20.3826 21.9949 21.4901 21.5605 21.9672 21.4693C21.9776 21.4669 21.9883 21.4653 22.0063 21.4624C22.0663 21.4533 22.1076 21.4507 22.1206 21.4502C22.4798 21.4526 22.7167 21.7233 22.7167 22.0509C22.7167 22.4122 22.5051 22.5492 22.2935 22.556C22.2935 22.556 22.4643 22.201 22.116 22.1055C21.881 22.0409 21.5836 22.2284 21.6109 22.5696C21.6301 22.8095 21.8578 23.0406 22.116 23.0406C22.6589 23.0406 23.0991 22.6483 23.0991 22.1054C23.0991 21.5625 22.6589 21.1223 22.116 21.1223C22.116 21.1223 22.0548 21.1233 21.9567 21.1383C21.9356 21.1417 21.9147 21.1449 21.8941 21.1496C21.3722 21.2492 20.0824 21.73 19.8222 24.0714C19.4585 27.3444 22.116 30.2973 24.0821 30.9526V30.6249C24.0821 30.6249 23.3858 30.2767 22.9098 29.9385C21.4389 28.8939 19.8824 26.4976 20.1479 24.1079Z" fill="#FFE15A"/>
<path d="M26.4305 22.8018C26.2985 22.8677 26.1444 22.9247 25.9868 22.9247C25.4439 22.9247 25.1779 22.6177 25.1779 22.0748C25.1779 21.5319 25.5054 21.1225 26.0482 21.1225C26.0482 21.1225 26.1094 21.1235 26.2075 21.1385C26.2286 21.1419 26.2495 21.1451 26.2701 21.1498C26.792 21.2493 28.0819 21.7302 28.342 24.0716C28.7057 27.3446 26.0482 30.2975 24.0821 30.9528V30.6251C24.0821 30.6252 28.7242 27.0753 26.4305 22.8018Z" fill="#FFC75A"/>
<path d="M26.0481 21.4502L24.0821 22.1056L26.0481 22.7609V21.4502Z" fill="#FFC75A"/>
<path d="M28.0162 24.1079C27.7814 21.9949 26.674 21.5605 26.1969 21.4693C26.1865 21.4669 26.1758 21.4653 26.1578 21.4624C26.0978 21.4533 26.0565 21.4507 26.0435 21.4502C25.6843 21.4526 25.4474 21.7233 25.4474 22.0509C25.4474 22.4122 25.659 22.5492 25.8705 22.556C25.8705 22.556 25.6998 22.201 26.0481 22.1055C26.283 22.0409 26.5805 22.2284 26.5532 22.5696C26.534 22.8095 26.3063 23.0406 26.0481 23.0406C25.5052 23.0406 25.065 22.6483 25.065 22.1054C25.065 21.5625 25.5052 21.1223 26.0481 21.1223C26.0481 21.1223 26.1093 21.1233 26.2074 21.1383C26.2285 21.1417 26.2494 21.1449 26.27 21.1496C26.7919 21.2492 28.0817 21.73 28.3419 24.0714C28.7055 27.3444 26.0481 30.2973 24.082 30.9526V30.6249C24.082 30.6249 24.7783 30.2767 25.2543 29.9385C26.7253 28.8939 28.2818 26.4976 28.0162 24.1079Z" fill="#FFE15A"/>
<path d="M24.0815 22.4339C24.2625 22.4339 24.4092 22.2872 24.4092 22.1062C24.4092 21.9252 24.2625 21.7784 24.0815 21.7784C23.9005 21.7784 23.7537 21.9252 23.7537 22.1062C23.7537 22.2872 23.9005 22.4339 24.0815 22.4339Z" fill="#FFE15A"/>
<path d="M26.422 19.4738C26.509 19.2486 26.3912 18.9465 26.3912 18.9465C26.0892 18.9363 25.8793 19.1564 25.8793 19.1564C25.9049 18.8851 25.7871 18.6393 25.7871 18.6393C25.398 18.6853 25.27 18.9158 25.27 18.9158C25.2496 18.4909 24.9934 18.3168 24.9934 18.3168C24.6555 18.4191 24.5532 18.7878 24.5532 18.7878C24.502 18.368 24.0822 18.1734 24.0822 18.1734C24.0822 18.1734 23.6624 18.3681 23.6112 18.7878C23.6112 18.7878 23.5088 18.4191 23.1709 18.3168C23.1709 18.3168 22.9149 18.4909 22.8944 18.9158C22.8944 18.9158 22.7664 18.6855 22.3773 18.6393C22.3773 18.6393 22.2595 18.8851 22.2851 19.1564C22.2851 19.1564 22.0752 18.9363 21.7731 18.9465C21.7731 18.9465 21.6554 19.2486 21.7424 19.4738C21.7424 19.4738 21.3993 19.3664 21.1177 19.5301C21.1177 19.5301 21.6339 19.7298 21.8059 19.9755H26.3585C26.5305 19.7297 27.0467 19.5301 27.0467 19.5301C26.7651 19.3663 26.422 19.4738 26.422 19.4738Z" fill="#FFC75A"/>
<path d="M26.3584 19.9756C26.3584 20.123 26.0139 20.5788 26.0139 20.5788C26.0139 20.5788 24.897 20.7342 24.0821 20.7342C23.262 20.7342 22.1425 20.5745 22.1425 20.5745C22.1425 20.5745 21.8058 20.1212 21.8058 19.9754C21.8058 19.5564 22.8249 19.2166 24.082 19.2166C25.3392 19.2167 26.3584 19.5566 26.3584 19.9756Z" fill="#FFE15A"/>
<path d="M24.0815 21.1228C25.1676 21.1228 26.048 20.8294 26.048 20.4675C26.048 20.1056 25.1676 19.8122 24.0815 19.8122C22.9953 19.8122 22.1149 20.1056 22.1149 20.4675C22.1149 20.8294 22.9953 21.1228 24.0815 21.1228Z" fill="#FFC75A"/>
<path d="M24.5633 16.8319C24.5633 16.6169 24.4029 16.3438 24.0821 16.5349C23.7612 16.3438 23.6009 16.6169 23.6009 16.8319C23.6009 17.047 23.3551 17.0778 23.3243 17.0572C23.3243 17.0572 23.5292 17.3235 23.7646 17.1494C23.7646 17.1494 23.8909 17.3337 24.082 17.3337C24.2732 17.3337 24.3995 17.1494 24.3995 17.1494C24.6351 17.3235 24.8398 17.0572 24.8398 17.0572C24.8091 17.0777 24.5633 17.0469 24.5633 16.8319Z" fill="#FFC75A"/>
<path d="M23.4265 32.7142C23.4081 32.7142 23.3894 32.71 23.3717 32.701C23.3109 32.6709 23.2863 32.5971 23.3167 32.5362L23.972 31.2255C24.0024 31.1653 24.0762 31.1401 24.1368 31.1708C24.1977 31.2008 24.2222 31.2747 24.1919 31.3356L23.5365 32.6463C23.5149 32.6892 23.4716 32.7142 23.4265 32.7142Z" fill="#B46446"/>
<path d="M24.7376 32.7142C24.6925 32.7142 24.6492 32.6893 24.6276 32.6463L23.9722 31.3356C23.9419 31.2748 23.9664 31.2009 24.0273 31.1708C24.0878 31.1398 24.1616 31.165 24.1921 31.2255L24.8474 32.5363C24.8778 32.5971 24.8532 32.671 24.7924 32.7011C24.7746 32.7101 24.756 32.7142 24.7376 32.7142Z" fill="#B46446"/>
<path d="M27.0312 31.5673C25.0891 32.0014 23.0751 32.0014 21.1329 31.5673C21.1329 31.2395 21.1329 30.6262 21.1329 30.2985C23.0751 30.7327 25.0891 30.7327 27.0312 30.2985C27.0312 30.6263 27.0312 31.2397 27.0312 31.5673Z" fill="white"/>
<path d="M22.7577 31.0897C21.5036 31.3316 20.2184 31.398 18.9396 31.2786C18.9611 31.4475 19.9724 31.9496 19.9724 31.9496C19.9724 31.9496 19.0801 32.3809 19.1 32.5371C20.3242 32.6514 21.5546 32.5969 22.7577 32.3798V31.0897Z" fill="white"/>
<path d="M25.4113 31.0897C26.6654 31.3316 27.9506 31.398 29.2295 31.2786C29.2079 31.4475 28.1966 31.9496 28.1966 31.9496C28.1966 31.9496 29.0889 32.3809 29.069 32.5371C27.8449 32.6514 26.6144 32.5969 25.4113 32.3798V31.0897Z" fill="white"/>
</svg>
