<svg width="48" height="48" viewBox="0 0 48 48" fill="none" xmlns="http://www.w3.org/2000/svg">
<path d="M16 39.7239H0.827625C0.370594 39.7239 0 39.3533 0 38.8962V9.10314C0 8.64611 0.370594 8.27551 0.827625 8.27551H16V39.7239Z" fill="#73AF00"/>
<path d="M32.0007 8.27612H16.0004V39.7246H32.0007V8.27612Z" fill="#FFE15A"/>
<path d="M47.1724 39.7239H32V8.27563H47.1724C47.6294 8.27563 48 8.64623 48 9.10326V38.8964C48 39.3535 47.6294 39.7239 47.1724 39.7239Z" fill="#FF4B55"/>
<path d="M24.1913 19.2916L25.2875 22.5786L28.7524 22.6055C28.9462 22.6071 29.0265 22.8544 28.8706 22.9694L26.0832 25.0277L27.1283 28.3313C27.1868 28.5161 26.9765 28.6689 26.8188 28.5562L24 26.5413L21.181 28.5561C21.0234 28.6688 20.8131 28.516 20.8715 28.3312L21.9166 25.0276L19.1292 22.9693C18.9733 22.8542 19.0537 22.607 19.2475 22.6055L22.7124 22.5785L23.8086 19.2915C23.87 19.1077 24.13 19.1077 24.1913 19.2916Z" fill="#73AF00"/>
</svg>
