<svg width="48" height="48" viewBox="0 0 48 48" fill="none" xmlns="http://www.w3.org/2000/svg">
<path d="M47.1723 39.7241H0.827623C0.370593 39.7241 0 39.3535 0 38.8965V9.10347C0 8.64644 0.370593 8.27585 0.827623 8.27585H47.1724C47.6294 8.27585 48 8.64644 48 9.10347V38.8965C47.9999 39.3536 47.6293 39.7241 47.1723 39.7241Z" fill="#82AFFF"/>
<path d="M23.7622 18.1352L22.3738 22.2986L17.9851 22.3326C17.7444 22.3345 17.6447 22.6415 17.8382 22.7845L21.3687 25.3916L20.0448 29.5758C19.9722 29.8052 20.2335 29.995 20.4291 29.855L23.9998 27.3031L27.5703 29.8552C27.7661 29.9951 28.0273 29.8053 27.9546 29.576L26.6308 25.3917L30.1612 22.7846C30.3548 22.6416 30.255 22.3346 30.0144 22.3327L25.6257 22.2987L24.2372 18.1353C24.1611 17.9071 23.8384 17.9071 23.7622 18.1352Z" fill="white"/>
</svg>
