<svg width="48" height="48" viewBox="0 0 48 48" fill="none" xmlns="http://www.w3.org/2000/svg">
<path d="M47.9999 18.7588H0V9.10362C0 8.64659 0.370593 8.276 0.827623 8.276H47.1724C47.6294 8.276 48 8.64659 48 9.10362L47.9999 18.7588Z" fill="#464655"/>
<path d="M47.1723 39.7239H0.827623C0.370593 39.7239 0 39.3533 0 38.8963V29.2411H47.9999V38.8963C47.9999 39.3534 47.6293 39.7239 47.1723 39.7239Z" fill="#73AF00"/>
<path d="M47.9999 18.7585H0V29.2407H47.9999V18.7585Z" fill="#FF4B55"/>
<path d="M8.94347 21.8592L9.43538 22.9262L10.5762 22.6455C10.6475 22.6281 10.7064 22.702 10.6735 22.7676L10.1461 23.8174L11.0768 24.5344C11.135 24.5792 11.1139 24.6715 11.0421 24.6866L9.89241 24.9287L9.91219 26.1035C9.91341 26.1768 9.8281 26.2179 9.77156 26.1713L8.86547 25.4234L7.95938 26.1713C7.90276 26.218 7.81754 26.1769 7.81876 26.1035L7.83854 24.9287L6.68889 24.6866C6.61707 24.6715 6.59607 24.5792 6.6541 24.5344L7.58485 23.8174L7.05742 22.7676C7.02451 22.702 7.08348 22.628 7.15473 22.6455L8.29557 22.9262L8.78747 21.8592C8.81813 21.7927 8.91291 21.7927 8.94347 21.8592Z" fill="white"/>
<path d="M47.9999 18.2072H0V19.6144H47.9999V18.2072Z" fill="white"/>
<path d="M47.9999 28.3865H0V29.7937H47.9999V28.3865Z" fill="white"/>
<path d="M0.269718 39.5L21.8625 24.3386C22.0972 24.1738 22.0972 23.8262 21.8625 23.6614L0.269718 8.49988C0.106031 8.65119 0 8.86297 0 9.10344V38.8964C0 39.1368 0.106031 39.3488 0.269718 39.5Z" fill="#41479B"/>
<path d="M6.89642 20.1417L8.75557 22.0446L11.1578 20.9016C11.4688 20.7535 11.7892 21.0866 11.6294 21.3917L10.3942 23.7478L12.2236 25.6793C12.4605 25.9293 12.2427 26.337 11.9031 26.2792L9.28067 25.8324L8.00904 28.1691C7.84442 28.4717 7.38936 28.3905 7.33948 28.0498L6.9538 25.4176L4.33855 24.9304C3.99993 24.8673 3.93655 24.4095 4.24527 24.2567L6.62951 23.0766L6.2847 20.4386C6.23998 20.0971 6.65567 19.8955 6.89642 20.1417Z" fill="#FFE15A"/>
</svg>
