<svg width="48" height="48" viewBox="0 0 48 48" fill="none" xmlns="http://www.w3.org/2000/svg">
<path d="M47.9999 18.7588H0V9.10362C0 8.64659 0.370593 8.276 0.827623 8.276H47.1724C47.6294 8.276 48 8.64659 48 9.10362L47.9999 18.7588Z" fill="#41479B"/>
<path d="M47.1723 39.7242H0.827623C0.370593 39.7242 0 39.3537 0 38.8966V29.2415H47.9999V38.8966C47.9999 39.3537 47.6293 39.7242 47.1723 39.7242Z" fill="#41479B"/>
<path d="M47.9999 18.7584H0V29.2406H47.9999V18.7584Z" fill="white"/>
<path d="M23.9802 27.5215C21.9838 27.5215 20.3595 25.8973 20.3595 23.9008C20.3595 23.048 20.6617 22.2198 21.2107 21.5686L21.3689 21.7019C20.8513 22.3158 20.5663 23.0966 20.5663 23.9008C20.5663 25.783 22.0977 27.3146 23.9801 27.3146L23.9802 27.5215Z" fill="#50AF69"/>
<path d="M22.656 26.4525C22.6108 26.5297 22.5884 26.6356 22.5786 26.7431C22.5377 26.7137 22.4944 26.6863 22.4474 26.6634C22.4474 26.6634 22.3762 26.914 22.4318 27.0945C22.4318 27.0945 22.2431 27.1179 22.0698 27.2917C22.0698 27.2917 22.1296 27.3339 22.232 27.3778C22.06 27.5121 22.0069 27.6448 22.0069 27.6448C23.0222 28.1525 23.5088 27.4444 23.53 27.4126C23.2813 26.703 22.656 26.4525 22.656 26.4525Z" fill="#50AF69"/>
<path d="M23.5299 27.4129C23.5306 27.4146 23.5313 27.4161 23.532 27.418V27.4099C23.532 27.4099 23.5304 27.4121 23.5299 27.4129Z" fill="#50AF69"/>
<path d="M21.7182 25.7758C21.6519 25.8244 21.5944 25.9055 21.5466 25.9926C21.5229 25.9528 21.4965 25.9139 21.4651 25.8773C21.4651 25.8773 21.3134 26.0626 21.2944 26.2352C21.2944 26.2352 21.1267 26.186 20.9172 26.2691C20.9172 26.2691 20.9521 26.3265 21.0224 26.4011C20.8283 26.4514 20.735 26.5439 20.735 26.5439C21.4053 27.3431 22.0745 26.9241 22.1039 26.905C22.1539 26.2155 21.7182 25.7758 21.7182 25.7758Z" fill="#50AF69"/>
<path d="M22.1039 26.9049C22.1038 26.9067 22.1039 26.9082 22.1037 26.91L22.1067 26.9031C22.1067 26.9031 22.1046 26.9044 22.1039 26.9049Z" fill="#50AF69"/>
<path d="M21.1367 24.891C21.0643 24.9063 20.9869 24.9517 20.9155 25.0054C20.9108 24.9639 20.9035 24.9222 20.8913 24.8805C20.8913 24.8805 20.698 24.9765 20.6185 25.1112C20.6185 25.1112 20.499 25.0086 20.2961 24.9993C20.2961 24.9993 20.3035 25.0594 20.3337 25.1467C20.1557 25.116 20.0448 25.1574 20.0448 25.1574C20.2991 26.0623 21.004 25.966 21.0355 25.9613C21.3315 25.4138 21.1367 24.891 21.1367 24.891Z" fill="#50AF69"/>
<path d="M21.0352 25.9613C21.0344 25.9627 21.034 25.9641 21.0331 25.9655L21.0381 25.9609C21.0382 25.961 21.0359 25.9613 21.0352 25.9613Z" fill="#50AF69"/>
<path d="M20.9063 23.8828C20.8376 23.8872 20.7576 23.9172 20.681 23.9554C20.6863 23.9188 20.6892 23.8817 20.6879 23.8441C20.6879 23.8441 20.4919 23.904 20.3895 24.0112C20.3895 24.0112 20.3055 23.9078 20.1249 23.8751C20.1249 23.8751 20.1178 23.9281 20.1249 24.0074C19.9717 23.9593 19.8623 23.9817 19.8623 23.9817C19.8837 24.7975 20.5402 24.7993 20.5695 24.7989C20.9618 24.3598 20.9063 23.8828 20.9063 23.8828Z" fill="#50AF69"/>
<path d="M20.5692 24.7991C20.5681 24.8002 20.5674 24.8013 20.5663 24.8024L20.5718 24.7991C20.5719 24.7991 20.5698 24.799 20.5692 24.7991Z" fill="#50AF69"/>
<path d="M20.9827 23.0478C20.9239 23.0337 20.849 23.0381 20.7748 23.0504C20.7887 23.0211 20.8008 22.9907 20.8092 22.9588C20.8092 22.9588 20.6293 22.9584 20.5156 23.0218C20.5156 23.0218 20.4719 22.9132 20.329 22.8392C20.329 22.8392 20.3092 22.8818 20.2946 22.9503C20.1786 22.8703 20.081 22.8609 20.081 22.8609C19.8879 23.5507 20.4381 23.7221 20.4627 23.7293C20.9057 23.4622 20.9827 23.0478 20.9827 23.0478Z" fill="#50AF69"/>
<path d="M20.4629 23.7294C20.4618 23.7301 20.4608 23.7308 20.4597 23.7314L20.4652 23.7301C20.4652 23.7301 20.4634 23.7295 20.4629 23.7294Z" fill="#50AF69"/>
<path d="M20.547 22.0323C20.547 22.0323 20.3595 22.5236 20.6505 22.8082C20.6505 22.8082 21.0298 22.6961 21.2173 22.3017L21.0577 22.2715L20.9758 22.0258L20.7042 22.1466L20.547 22.0323Z" fill="#50AF69"/>
<path d="M21.0754 21.2424C21.0754 21.2424 20.7815 21.6786 21.0004 22.0216C21.0004 22.0216 21.3953 21.9983 21.6673 21.6566L21.5187 21.5912L21.4946 21.3333L21.2028 21.3893L21.0754 21.2424Z" fill="#50AF69"/>
<path d="M24.0198 27.5215V27.3146C25.9021 27.3146 27.4336 25.783 27.4336 23.9008C27.4336 23.0967 27.1486 22.3158 26.631 21.7019L26.7891 21.5686C27.3381 22.2198 27.6404 23.048 27.6404 23.9008C27.6404 25.8973 26.0162 27.5215 24.0198 27.5215Z" fill="#50AF69"/>
<path d="M25.3444 26.4525C25.3896 26.5297 25.412 26.6356 25.4218 26.7431C25.4626 26.7137 25.506 26.6863 25.553 26.6634C25.553 26.6634 25.6242 26.914 25.5685 27.0945C25.5685 27.0945 25.7572 27.1179 25.9305 27.2917C25.9305 27.2917 25.8707 27.3339 25.7683 27.3778C25.9403 27.5121 25.9934 27.6448 25.9934 27.6448C24.9781 28.1525 24.4915 27.4444 24.4703 27.4126C24.7191 26.703 25.3444 26.4525 25.3444 26.4525Z" fill="#50AF69"/>
<path d="M24.4704 27.4129C24.4698 27.4146 24.469 27.4161 24.4684 27.418V27.4099C24.4684 27.4099 24.4699 27.4121 24.4704 27.4129Z" fill="#50AF69"/>
<path d="M26.2821 25.7758C26.3484 25.8244 26.4059 25.9055 26.4536 25.9926C26.4773 25.9528 26.5037 25.9139 26.5351 25.8773C26.5351 25.8773 26.6868 26.0626 26.7059 26.2352C26.7059 26.2352 26.8735 26.186 27.083 26.2691C27.083 26.2691 27.0481 26.3265 26.9778 26.4011C27.1719 26.4514 27.2652 26.5439 27.2652 26.5439C26.5949 27.3431 25.9258 26.9241 25.8963 26.905C25.8464 26.2155 26.2821 25.7758 26.2821 25.7758Z" fill="#50AF69"/>
<path d="M25.8962 26.9049C25.8963 26.9067 25.8962 26.9082 25.8964 26.91L25.8934 26.9031C25.8934 26.9031 25.8955 26.9044 25.8962 26.9049Z" fill="#50AF69"/>
<path d="M26.8636 24.891C26.9359 24.9063 27.0134 24.9517 27.0847 25.0054C27.0895 24.9639 27.0968 24.9222 27.109 24.8805C27.109 24.8805 27.3022 24.9765 27.3818 25.1112C27.3818 25.1112 27.5012 25.0086 27.7041 24.9993C27.7041 24.9993 27.6968 25.0594 27.6665 25.1467C27.8445 25.116 27.9555 25.1574 27.9555 25.1574C27.7011 26.0623 26.9962 25.966 26.9648 25.9613C26.6687 25.4138 26.8636 24.891 26.8636 24.891Z" fill="#50AF69"/>
<path d="M26.9653 25.9613C26.9661 25.9627 26.9665 25.9641 26.9674 25.9655L26.9624 25.9609C26.9623 25.961 26.9646 25.9613 26.9653 25.9613Z" fill="#50AF69"/>
<path d="M27.0939 23.8828C27.1626 23.8872 27.2425 23.9172 27.3191 23.9554C27.3139 23.9188 27.311 23.8817 27.3123 23.8441C27.3123 23.8441 27.5082 23.904 27.6107 24.0112C27.6107 24.0112 27.6947 23.9078 27.8752 23.8751C27.8752 23.8751 27.8824 23.9281 27.8752 24.0074C28.0284 23.9593 28.1378 23.9817 28.1378 23.9817C28.1165 24.7975 27.4599 24.7993 27.4307 24.7989C27.0384 24.3598 27.0939 23.8828 27.0939 23.8828Z" fill="#50AF69"/>
<path d="M27.4308 24.7991C27.4318 24.8002 27.4326 24.8013 27.4336 24.8024L27.4281 24.7991C27.4281 24.7991 27.4302 24.799 27.4308 24.7991Z" fill="#50AF69"/>
<path d="M27.0178 23.0478C27.0766 23.0337 27.1515 23.0381 27.2256 23.0504C27.2118 23.0211 27.1997 22.9907 27.1912 22.9588C27.1912 22.9588 27.3711 22.9584 27.4849 23.0218C27.4849 23.0218 27.5285 22.9132 27.6715 22.8392C27.6715 22.8392 27.6913 22.8818 27.7058 22.9503C27.8219 22.8703 27.9195 22.8609 27.9195 22.8609C28.1126 23.5507 27.5624 23.7221 27.5377 23.7293C27.0948 23.4622 27.0178 23.0478 27.0178 23.0478Z" fill="#50AF69"/>
<path d="M27.5375 23.7294C27.5387 23.7301 27.5396 23.7308 27.5407 23.7314L27.5353 23.7301C27.5353 23.7301 27.5371 23.7295 27.5375 23.7294Z" fill="#50AF69"/>
<path d="M27.4533 22.0323C27.4533 22.0323 27.6409 22.5236 27.3499 22.8082C27.3499 22.8082 26.9706 22.6961 26.7831 22.3017L26.9426 22.2715L27.0246 22.0258L27.2962 22.1466L27.4533 22.0323Z" fill="#50AF69"/>
<path d="M26.925 21.2424C26.925 21.2424 27.2189 21.6786 27 22.0216C27 22.0216 26.6051 21.9983 26.3331 21.6566L26.4817 21.5912L26.5058 21.3333L26.7977 21.3893L26.925 21.2424Z" fill="#50AF69"/>
<path d="M23.9998 25.345L23.6799 25.8248C23.6253 25.9067 23.6361 26.0158 23.7058 26.0855L23.9998 26.3795L24.2938 26.0855C24.3635 26.0158 24.3742 25.9067 24.3197 25.8248L23.9998 25.345Z" fill="#41479B"/>
<path d="M24.136 25.8248L23.9997 25.345L23.8634 25.8248C23.8402 25.9067 23.8447 26.0158 23.8744 26.0855L23.9997 26.3795L24.125 26.0855C24.1547 26.0158 24.1594 25.9067 24.136 25.8248Z" fill="white"/>
<path d="M24.0003 21.0518V19.7587C24.0003 19.7587 23.509 20.4655 23.5865 21.5" fill="#41479B"/>
<path d="M21.7965 21.0561C21.0857 22.5988 21.8148 23.8682 21.9678 24.1072C21.9718 24.1136 22.9828 22.4782 22.9828 22.4782L21.7965 21.0561Z" fill="#41479B"/>
<path d="M22.5446 23.1857C22.4325 22.8365 22.4162 22.4287 22.5509 21.9608L22.111 21.4335C21.7496 22.4074 21.8991 23.1265 22.2609 23.6425C22.3497 23.4997 22.4483 23.3409 22.5446 23.1857Z" fill="white"/>
<path d="M22.9657 22.5644C22.9348 22.5644 22.9044 22.5506 22.8839 22.5243L21.5867 20.8564C21.5515 20.8113 21.5597 20.7464 21.6048 20.7114C21.6501 20.6762 21.7149 20.6845 21.7499 20.7296L23.0471 22.3975C23.0823 22.4426 23.0741 22.5075 23.029 22.5425C23.0102 22.5573 22.9878 22.5644 22.9657 22.5644Z" fill="#FFE15A"/>
<path d="M20.8965 22.6592C20.4827 26.7972 23.7931 25.7627 24 25.3489L21.931 24.3145L22.3448 23.4869L20.8965 22.6592Z" fill="#41479B"/>
<path d="M21.8969 23.1355L21.3203 22.7896C21.1905 25.2484 22.5036 25.6579 23.4721 25.5359C22.6869 25.4305 21.9024 24.8507 21.8969 23.1355Z" fill="white"/>
<path d="M22.3447 23.5901C22.326 23.5901 22.307 23.5851 22.29 23.5744L20.6349 22.5401C20.5865 22.5099 20.5718 22.446 20.6021 22.3977C20.6323 22.349 20.696 22.3344 20.7447 22.3648L22.3998 23.3991C22.4481 23.4294 22.4629 23.4932 22.4326 23.5415C22.4129 23.573 22.3791 23.5901 22.3447 23.5901Z" fill="#FFE15A"/>
<path d="M26.2036 21.0522C26.9144 22.5949 26.1853 23.8643 26.0323 24.1033C26.0283 24.1097 25.0173 22.4743 25.0173 22.4743L26.2036 21.0522Z" fill="#41479B"/>
<path d="M25.4552 23.1816C25.5673 22.8323 25.5835 22.4245 25.4489 21.9566L25.8888 21.4294C26.2502 22.4033 26.1006 23.1223 25.7389 23.6383C25.6501 23.4956 25.5514 23.3367 25.4552 23.1816Z" fill="white"/>
<path d="M25.0341 22.5604C25.012 22.5604 24.9895 22.5534 24.9707 22.5386C24.9256 22.5036 24.9175 22.4386 24.9526 22.3936L26.2498 20.7257C26.285 20.6806 26.3499 20.6725 26.395 20.7075C26.4401 20.7424 26.4482 20.8075 26.4131 20.8525L25.1159 22.5204C25.0955 22.5467 25.0649 22.5604 25.0341 22.5604Z" fill="#FFE15A"/>
<path d="M27.1033 22.6552C27.5171 26.7932 24.2068 25.7586 23.9999 25.3449L26.0689 24.3105L25.6551 23.4828L27.1033 22.6552Z" fill="#41479B"/>
<path d="M26.1032 23.1313L26.6799 22.7854C26.8096 25.2443 25.4965 25.6538 24.528 25.5317C25.3132 25.4263 26.0977 24.8467 26.1032 23.1313Z" fill="white"/>
<path d="M25.6554 23.5861C25.6209 23.5861 25.5872 23.5689 25.5675 23.5374C25.5372 23.4891 25.552 23.4252 25.6003 23.3949L27.2554 22.3607C27.304 22.3301 27.3677 22.3449 27.398 22.3936C27.4283 22.4419 27.4135 22.5057 27.3652 22.536L25.7101 23.5703C25.693 23.581 25.6741 23.5861 25.6554 23.5861Z" fill="#FFE15A"/>
<path d="M24.0001 23.6896C24.4572 23.6896 24.8277 23.3191 24.8277 22.862C24.8277 22.4049 24.4572 22.0344 24.0001 22.0344C23.543 22.0344 23.1725 22.4049 23.1725 22.862C23.1725 23.3191 23.543 23.6896 24.0001 23.6896Z" fill="#FFE6E6"/>
<path d="M24 23.2757C24.2286 23.2757 24.4138 23.0905 24.4138 22.8619C24.4138 22.6334 24.2286 22.4481 24 22.4481C23.7715 22.4481 23.5862 22.6334 23.5862 22.8619C23.5862 23.0905 23.7715 23.2757 24 23.2757Z" fill="white"/>
<path d="M24 24.207C23.9428 24.207 23.8966 24.1607 23.8966 24.1035V22.8622C23.8966 22.805 23.9428 22.7588 24 22.7588C24.0572 22.7588 24.1034 22.805 24.1034 22.8622V24.1035C24.1034 24.1607 24.0572 24.207 24 24.207Z" fill="#FFE15A"/>
<path d="M26.8274 25.3275H21.2842L21.9308 24.0972H26.086L26.8274 25.3275Z" fill="#5AA0E6"/>
<path d="M24.1683 24.3276H25.6099L25.1615 23.8792C25.1404 23.8581 25.1146 23.8422 25.0864 23.8328L24.9303 23.7808C24.8741 23.762 24.8123 23.7704 24.763 23.8032L24.2646 24.1354L24.1683 24.3276Z" fill="#FFB750"/>
<path d="M23.6782 24.4053H25.3988L24.8636 23.8701C24.8385 23.8449 24.8077 23.8259 24.7739 23.8147L24.5876 23.7526C24.5205 23.7303 24.4467 23.74 24.3878 23.7794L23.793 24.1761L23.6782 24.4053Z" fill="#FFC455"/>
<path d="M23.0795 24.4913H25.1573L24.511 23.845C24.4806 23.8146 24.4436 23.7917 24.4027 23.778L24.1777 23.703C24.0966 23.676 24.0076 23.688 23.9365 23.7353L23.2182 24.2142L23.0795 24.4913Z" fill="#FFCD55"/>
<path d="M22.4871 24.569H24.8661L24.126 23.829C24.0911 23.7941 24.0488 23.7679 24.002 23.7523L23.7444 23.6664C23.6515 23.6355 23.5495 23.6492 23.4681 23.7034L22.6455 24.2518L22.4871 24.569Z" fill="#FFD25A"/>
<path d="M21.5171 24.7242H24.6205L23.6551 23.7589C23.6098 23.7135 23.5544 23.6792 23.4933 23.6589L23.1573 23.5469C23.0362 23.5066 22.9032 23.5243 22.797 23.5952L21.724 24.3104L21.5171 24.7242Z" fill="#FFE15A"/>
<path d="M24.2234 23.0476H23.7761L23.8792 22.6157H24.0346C24.0849 22.6157 24.1287 22.6503 24.1404 22.6993L24.2234 23.0476Z" fill="#FF4B55"/>
<path d="M24.1976 23.1171H23.796C23.7631 23.1171 23.7366 23.0905 23.7366 23.0576V23.0378C23.7366 23.0049 23.7633 22.9783 23.796 22.9783H24.1976C24.2305 22.9783 24.2571 23.0051 24.2571 23.0378V23.0576C24.2571 23.0904 24.2304 23.1171 24.1976 23.1171Z" fill="#FF4B55"/>
<path d="M23.932 22.8123L23.8316 22.7869C23.8013 22.7792 23.7882 22.7436 23.8063 22.7181L23.8789 22.6157L23.932 22.8123Z" fill="#FF4B55"/>
<path d="M23.484 21.7994C23.4791 21.8374 23.4741 21.8754 23.4692 21.9134C23.63 21.8158 23.8074 21.7573 24.0001 21.7573C24.1925 21.7575 24.37 21.8156 24.5309 21.9134C24.526 21.8753 24.521 21.8374 24.5162 21.7994C24.3562 21.716 24.1841 21.668 24.0001 21.6682C23.8161 21.668 23.644 21.7159 23.484 21.7994Z" fill="#41479B"/>
<path d="M23.49 21.7499C23.4852 21.7878 23.4802 21.8259 23.4753 21.8639C23.6343 21.7661 23.8095 21.7075 23.9997 21.7072C24.1898 21.7074 24.365 21.766 24.524 21.8639C24.5191 21.8258 24.5142 21.7878 24.5093 21.7499C24.3511 21.6658 24.1812 21.6181 23.9996 21.618C23.8181 21.618 23.6482 21.6659 23.49 21.7499Z" fill="#5AA0E6"/>
<path d="M23.4964 21.7039C23.4915 21.7419 23.4865 21.78 23.4817 21.8179C23.6391 21.7199 23.8123 21.6608 24.0001 21.6609C24.188 21.6609 24.3611 21.7199 24.5185 21.8179C24.5137 21.78 24.5087 21.7419 24.5038 21.7039C24.3474 21.6199 24.1795 21.5717 24 21.5717C23.8208 21.5716 23.6529 21.6198 23.4964 21.7039Z" fill="#9BC800"/>
<path d="M23.503 21.6516C23.4981 21.6897 23.4932 21.7277 23.4883 21.7656C23.6439 21.6673 23.8147 21.608 24.0001 21.608C24.1853 21.6082 24.3562 21.6671 24.5119 21.7656C24.507 21.7277 24.502 21.6896 24.4971 21.6516C24.3425 21.5673 24.1771 21.5189 24.0002 21.5188C23.8231 21.519 23.6576 21.5673 23.503 21.6516Z" fill="#FFE14E"/>
<path d="M23.5098 21.6002C23.505 21.6381 23.5 21.6762 23.4951 21.7142C23.649 21.6155 23.8173 21.5562 24.0001 21.5561C24.183 21.5563 24.3514 21.6154 24.5052 21.7142C24.5003 21.6762 24.4953 21.6381 24.4905 21.6002C24.3377 21.5155 24.1745 21.467 24.0001 21.4669C23.8258 21.467 23.6625 21.5154 23.5098 21.6002Z" fill="#FFB14E"/>
<path d="M23.5124 21.5783C23.509 21.6049 23.5056 21.6316 23.5022 21.6582C23.654 21.5594 23.8201 21.4995 24.0001 21.4995C24.1801 21.4994 24.3461 21.5592 24.498 21.6582C24.4946 21.6316 24.4912 21.6049 24.4878 21.5783C24.3359 21.4935 24.1736 21.4449 24.0002 21.4447C23.8267 21.4445 23.6643 21.4935 23.5124 21.5783Z" fill="#FF4B55"/>
<path d="M26.8964 25.4484H21.1033C21.0651 25.4484 21.0301 25.4274 21.0121 25.3938C20.9941 25.36 20.9961 25.3192 21.0172 25.2876L23.9138 20.9428C23.9522 20.8854 24.0476 20.8854 24.086 20.9428L26.9825 25.2876C27.0036 25.3194 27.0057 25.3601 26.9877 25.3938C26.9696 25.4274 26.9345 25.4484 26.8964 25.4484ZM21.2965 25.2414H26.7032L23.9998 21.1867L21.2965 25.2414Z" fill="#FFE15A"/>
<path d="M24 20.069C23.9428 20.069 23.8966 20.0228 23.8966 19.9656V19.5518C23.8966 19.4946 23.9428 19.4484 24 19.4484C24.0572 19.4484 24.1034 19.4946 24.1034 19.5518V19.9656C24.1034 20.0228 24.0572 20.069 24 20.069Z" fill="#FFE15A"/>
<path d="M24.2065 20.069H23.7927C23.7355 20.069 23.6893 20.0228 23.6893 19.9656C23.6893 19.9084 23.7355 19.8622 23.7927 19.8622H24.2065C24.2637 19.8622 24.3099 19.9084 24.3099 19.9656C24.3099 20.0228 24.2637 20.069 24.2065 20.069Z" fill="#FFE15A"/>
<path d="M23.9999 27.5173C23.9925 27.5173 23.9848 27.5164 23.9775 27.5149C23.8762 27.4922 23.5383 27.4112 23.4387 27.3125C23.3121 27.1868 23.3115 26.9818 23.4369 26.8551C23.4978 26.7939 23.5788 26.76 23.6652 26.7598H23.6663C23.7523 26.7598 23.8331 26.793 23.8941 26.8537C23.9938 26.9527 24.0773 27.2897 24.1006 27.3907C24.1085 27.4253 24.0982 27.4617 24.0732 27.4869C24.0537 27.5065 24.0272 27.5173 23.9999 27.5173ZM23.6663 26.9665C23.6388 26.9756 23.6057 26.9788 23.5836 27.0008C23.5384 27.0462 23.5387 27.1201 23.5844 27.1655C23.6094 27.1899 23.7213 27.2323 23.8553 27.2704C23.8161 27.1368 23.7731 27.0254 23.7483 27.0003L23.8212 26.927L23.7483 27.0003C23.7263 26.9784 23.6973 26.9665 23.6663 26.9665Z" fill="#41479B"/>
<path d="M23.9999 27.5172C23.9726 27.5172 23.9461 27.5064 23.9265 27.4866C23.9016 27.4614 23.8912 27.425 23.8991 27.3905C23.9224 27.2894 24.006 26.9525 24.1056 26.8535C24.1669 26.7926 24.2399 26.7651 24.3345 26.7595C24.4209 26.7597 24.5019 26.7936 24.5627 26.8549C24.6884 26.9816 24.6876 27.1866 24.5611 27.3121C24.4614 27.4111 24.1235 27.4921 24.0222 27.5148C24.015 27.5164 24.0073 27.5172 23.9999 27.5172ZM24.1786 26.9269L24.2515 27.0002C24.2267 27.0252 24.1837 27.1368 24.1445 27.2703C24.2786 27.2321 24.3904 27.1899 24.4155 27.1652C24.4609 27.1201 24.4613 27.0462 24.4161 27.0007C24.3943 26.9787 24.3651 26.9664 24.334 26.9664H24.3336C24.3027 26.9664 24.2736 26.9783 24.2517 27.0002L24.1786 26.9269ZM24.1786 26.9269H24.1807H24.1786Z" fill="#41479B"/>
<path d="M23.5863 28.138C23.5291 28.138 23.4828 28.0918 23.4828 28.0346C23.4828 27.5623 23.9346 27.331 23.9538 27.3213C24.0052 27.2957 24.0668 27.3167 24.0924 27.3674C24.1181 27.4183 24.0976 27.4803 24.0467 27.5062C24.0431 27.5081 23.6898 27.6915 23.6898 28.0345C23.6898 28.0918 23.6434 28.138 23.5863 28.138Z" fill="#41479B"/>
<path d="M24.4137 28.138C24.3565 28.138 24.3103 28.0918 24.3103 28.0346C24.3103 27.6916 23.957 27.508 23.9534 27.5063C23.9025 27.4805 23.8821 27.4184 23.9077 27.3675C23.9335 27.3168 23.995 27.2958 24.0463 27.3215C24.0655 27.3312 24.5173 27.5623 24.5173 28.0347C24.5171 28.0918 24.4709 28.138 24.4137 28.138Z" fill="#41479B"/>
</svg>
