<svg width="48" height="48" viewBox="0 0 48 48" fill="none" xmlns="http://www.w3.org/2000/svg">
<path d="M0.827623 8.27585H47.1724C47.6294 8.27585 48 8.64644 48 9.10347V23.9999H0V9.10338C0 8.64635 0.370593 8.27585 0.827623 8.27585Z" fill="#FF4B55"/>
<path d="M47.1723 39.724H0.827623C0.370593 39.724 0 39.3534 0 38.8964V23.9999H47.9999V38.8965C47.9999 39.3535 47.6293 39.724 47.1723 39.724Z" fill="#41479B"/>
<path d="M0.305249 39.524L23.2122 24.516C23.584 24.2723 23.584 23.7273 23.2122 23.4839L0.305249 8.47592C0.122906 8.6277 0 8.84764 0 9.10339V38.8964C0 39.1523 0.122906 39.3722 0.305249 39.524Z" fill="white"/>
<path d="M8.48458 23.4045C9.91977 23.4045 11.0832 22.2411 11.0832 20.8059C11.0832 19.3707 9.91977 18.2072 8.48458 18.2072C7.04938 18.2072 5.88593 19.3707 5.88593 20.8059C5.88593 22.2411 7.04938 23.4045 8.48458 23.4045Z" fill="#FFE15A"/>
<path d="M11.6614 23.213C11.6717 23.5283 11.706 23.8536 11.7391 24.168C11.869 25.4021 11.9812 26.468 10.796 26.8814C10.5159 26.9791 10.1341 27.0339 9.76511 27.0868C9.23533 27.1627 8.76096 27.2306 8.48505 27.4228C8.20915 27.2307 7.73487 27.1627 7.20499 27.0868C6.83599 27.0339 6.45415 26.979 6.17412 26.8814C4.98893 26.468 5.10115 25.4021 5.231 24.168C5.26409 23.8536 5.29831 23.5283 5.30871 23.213C5.34556 22.0957 5.10996 21.0009 4.9445 20.382C5.22021 20.4952 5.60243 20.5973 6.07109 20.589C6.27303 20.585 6.49981 20.5562 6.7398 20.5259C7.28768 20.456 7.90858 20.3775 8.40555 20.5739L8.48524 20.6093L8.56493 20.5739C9.0618 20.3775 9.6828 20.456 10.2307 20.5259C10.4707 20.5562 10.6975 20.585 10.8994 20.589C11.368 20.5973 11.7504 20.4951 12.026 20.382C11.86 21.0008 11.6245 22.0957 11.6614 23.213Z" fill="#8CD7FF"/>
<path d="M12.0942 23.1986C12.042 21.6148 12.5824 20.0259 12.5879 20.01L12.2473 19.7709C12.2429 19.7745 11.7307 20.1718 10.9075 20.156C10.7287 20.1526 10.5131 20.1252 10.2849 20.0961C9.71177 20.0235 9.06527 19.9413 8.48496 20.1417C7.90465 19.9414 7.25824 20.0236 6.68505 20.0961C6.45687 20.1251 6.24124 20.1525 6.06237 20.156C5.23924 20.1718 4.72709 19.7744 4.72259 19.7709L4.382 20.01C4.38734 20.0259 4.9279 21.6148 4.87568 23.1986C4.86584 23.4985 4.83246 23.8158 4.80003 24.1226C4.66981 25.3607 4.52215 26.764 6.03124 27.2905C6.35102 27.4019 6.75508 27.4512 7.1433 27.5155C8.30889 27.7087 8.48486 28.0064 8.48486 28.0064C8.48486 28.0064 8.66083 27.7086 9.82642 27.5155C10.2146 27.4512 10.6187 27.4019 10.9385 27.2905C12.4477 26.7641 12.3001 25.3607 12.1697 24.1226C12.1375 23.8157 12.1041 23.4985 12.0942 23.1986ZM11.6614 23.213C11.6717 23.5283 11.706 23.8536 11.7391 24.168C11.8689 25.402 11.9812 26.468 10.796 26.8814C10.5159 26.9791 10.1341 27.0338 9.76511 27.0867C9.23533 27.1627 8.76096 27.2305 8.48505 27.4228C8.20915 27.2306 7.73486 27.1627 7.20499 27.0867C6.83599 27.0338 6.45415 26.979 6.17412 26.8814C4.98893 26.468 5.10115 25.402 5.23099 24.168C5.26409 23.8536 5.29831 23.5283 5.30871 23.213C5.34556 22.0957 5.10996 21.0009 4.9445 20.382C5.22021 20.4952 5.60243 20.5973 6.07109 20.589C6.27302 20.585 6.4998 20.5562 6.7398 20.5258C7.28768 20.456 7.90858 20.3774 8.40555 20.5738L8.48524 20.6093L8.56493 20.5738C9.0618 20.3774 9.6828 20.456 10.2307 20.5258C10.4707 20.5562 10.6975 20.585 10.8994 20.589C11.368 20.5973 11.7504 20.4951 12.026 20.382C11.86 21.0008 11.6245 22.0957 11.6614 23.213Z" fill="#FF4B55"/>
<path d="M10.7182 25.8753V24.9208H10.8818V24.6391H10.4817V23.6588H10.8818L9.05202 22.3625V21.8749H9.30655L8.48493 21.2929L7.66349 21.8749H7.91783V22.3625L6.08802 23.6588H6.48824V24.6391H6.08802V24.9208H6.25171V25.8753H6.01265V26.2874H10.9574V25.8753H10.7182Z" fill="white"/>
<path d="M6.11184 21.9684C6.05353 22.1066 6.06347 22.253 6.12544 22.3607C6.246 22.33 6.35775 22.235 6.41616 22.0969C6.47447 21.9587 6.46453 21.8123 6.40256 21.7046C6.28209 21.7353 6.17025 21.8303 6.11184 21.9684Z" fill="#41AA5A"/>
<path d="M6.39562 22.0119C6.43377 22.1569 6.53118 22.2668 6.64602 22.3142C6.72271 22.2163 6.75318 22.0728 6.71502 21.9278C6.67687 21.7827 6.57946 21.6729 6.46462 21.6254C6.38802 21.7232 6.35746 21.8668 6.39562 22.0119Z" fill="#41AA5A"/>
<path d="M6.83587 21.7708C6.97649 21.823 7.12227 21.8068 7.22727 21.74C7.19136 21.621 7.09152 21.5133 6.95099 21.4611C6.81037 21.4089 6.66459 21.4251 6.55959 21.4919C6.59549 21.6108 6.69524 21.7184 6.83587 21.7708Z" fill="#41AA5A"/>
<path d="M6.9678 21.5233C7.10505 21.4629 7.19852 21.3496 7.22739 21.2287C7.11864 21.1683 6.97221 21.1605 6.83496 21.2208C6.69771 21.2812 6.60433 21.3944 6.57536 21.5154C6.68393 21.5759 6.83046 21.5836 6.9678 21.5233Z" fill="#41AA5A"/>
<path d="M6.04504 21.6483C6.16739 21.5615 6.2361 21.432 6.24014 21.3075C6.12154 21.2702 5.97642 21.2921 5.85407 21.3788C5.73173 21.4655 5.66301 21.5952 5.65898 21.7196C5.77757 21.757 5.92279 21.7351 6.04504 21.6483Z" fill="#41AA5A"/>
<path d="M5.94288 21.4671C6.13113 21.5749 6.33278 21.6042 6.48278 21.5609C6.44416 21.4096 6.31694 21.2505 6.12869 21.1426C5.94044 21.0348 5.73878 21.0056 5.58878 21.0489C5.62741 21.2002 5.75472 21.3593 5.94288 21.4671Z" fill="#41AA5A"/>
<path d="M6.73704 21.6882C6.73704 21.615 6.67882 21.5562 6.60626 21.5535C6.60354 21.4809 6.54485 21.4227 6.47154 21.4227C6.39823 21.4227 6.33954 21.4809 6.33682 21.5535C6.26426 21.5562 6.20604 21.6149 6.20604 21.6882C6.20604 21.7613 6.26426 21.8201 6.33682 21.8229C6.33954 21.8954 6.39823 21.9537 6.47154 21.9537C6.54485 21.9537 6.60354 21.8954 6.60626 21.8229C6.67882 21.8201 6.73704 21.7613 6.73704 21.6882Z" fill="#FFE15A"/>
<path d="M6.47139 21.7678C6.5154 21.7678 6.55108 21.7321 6.55108 21.6881C6.55108 21.6441 6.5154 21.6084 6.47139 21.6084C6.42738 21.6084 6.3917 21.6441 6.3917 21.6881C6.3917 21.7321 6.42738 21.7678 6.47139 21.7678Z" fill="white"/>
<path d="M6.31308 21.5539C6.31308 21.4938 6.26517 21.4454 6.20564 21.4432C6.20339 21.3836 6.15502 21.3358 6.09492 21.3358C6.03474 21.3358 5.98636 21.3837 5.98421 21.4432C5.92458 21.4455 5.87677 21.4938 5.87677 21.5539C5.87677 21.6141 5.92468 21.6625 5.98421 21.6647C5.98646 21.7243 6.03483 21.7721 6.09492 21.7721C6.15511 21.7721 6.20349 21.7242 6.20564 21.6647C6.26517 21.6624 6.31308 21.6141 6.31308 21.5539Z" fill="#FFE15A"/>
<path d="M6.09466 21.6185C6.1308 21.6185 6.1601 21.5892 6.1601 21.5531C6.1601 21.5169 6.1308 21.4876 6.09466 21.4876C6.05852 21.4876 6.02922 21.5169 6.02922 21.5531C6.02922 21.5892 6.05852 21.6185 6.09466 21.6185Z" fill="white"/>
<path d="M6.71981 21.3661C6.71981 21.3228 6.68522 21.288 6.64237 21.2864C6.64068 21.2434 6.606 21.2089 6.56259 21.2089C6.51919 21.2089 6.4844 21.2435 6.48281 21.2864C6.43987 21.288 6.40537 21.3227 6.40537 21.3661C6.40537 21.4095 6.43997 21.4443 6.48281 21.4459C6.4845 21.4889 6.51919 21.5234 6.56259 21.5234C6.606 21.5234 6.64078 21.4888 6.64237 21.4459C6.68531 21.4443 6.71981 21.4095 6.71981 21.3661Z" fill="#FFE15A"/>
<path d="M6.56242 21.4137C6.58847 21.4137 6.60958 21.3926 6.60958 21.3665C6.60958 21.3405 6.58847 21.3194 6.56242 21.3194C6.53638 21.3194 6.51527 21.3405 6.51527 21.3665C6.51527 21.3926 6.53638 21.4137 6.56242 21.4137Z" fill="white"/>
<path d="M6.42117 21.2306C6.42117 21.1873 6.38658 21.1524 6.34373 21.1508C6.34205 21.1079 6.30736 21.0734 6.26395 21.0734C6.22064 21.0734 6.18577 21.108 6.18417 21.1508C6.14124 21.1525 6.10674 21.1872 6.10674 21.2306C6.10674 21.274 6.14133 21.3088 6.18417 21.3104C6.18586 21.3533 6.22055 21.3878 6.26395 21.3878C6.30727 21.3878 6.34214 21.3532 6.34373 21.3104C6.38667 21.3088 6.42117 21.2739 6.42117 21.2306Z" fill="#FFE15A"/>
<path d="M6.26376 21.2778C6.28981 21.2778 6.31092 21.2566 6.31092 21.2306C6.31092 21.2046 6.28981 21.1834 6.26376 21.1834C6.23772 21.1834 6.21661 21.2046 6.21661 21.2306C6.21661 21.2566 6.23772 21.2778 6.26376 21.2778Z" fill="white"/>
<path d="M9.88156 22.4208H11.3835C11.2873 22.2006 11.0986 22.0302 10.8646 21.9608C10.8817 21.8515 10.8922 21.7301 10.8922 21.5999C10.8922 21.1462 10.776 20.7785 10.6326 20.7785C10.4892 20.7785 10.373 21.1463 10.373 21.5999C10.373 21.73 10.3834 21.8515 10.4006 21.9608C10.1665 22.0302 9.97765 22.2006 9.88156 22.4208Z" fill="white"/>
<path d="M8.48511 29.793C5.32068 29.793 2.74612 27.2187 2.74612 24.054H3.82893C3.82893 26.6215 5.91768 28.7101 8.48502 28.7101C11.0524 28.7101 13.1411 26.6215 13.1411 24.054H14.2241C14.2241 27.2187 11.6497 29.793 8.48511 29.793Z" fill="#FFE15A"/>
<path d="M10.612 18.9261H9.67609C9.77002 18.9261 9.84624 18.85 9.84624 18.756C9.84624 18.6619 9.77012 18.5858 9.67609 18.5858H8.485C8.39106 18.5858 8.31484 18.6619 8.31484 18.756C8.31484 18.85 8.39096 18.9261 8.485 18.9261H6.35809C6.21709 18.9261 6.10291 19.0404 6.10291 19.1813C6.10291 19.3222 6.21719 19.4365 6.35809 19.4365H7.12375C7.02981 19.4365 6.95369 19.5126 6.95369 19.6067C6.95369 19.7006 7.02981 19.7768 7.12384 19.7768H8.65524C8.74918 19.7768 8.8254 19.7007 8.8254 19.6067C8.8254 19.5127 8.74928 19.4365 8.65534 19.4365H10.6121C10.7531 19.4365 10.8673 19.3222 10.8673 19.1813C10.8673 19.0404 10.753 18.9261 10.612 18.9261Z" fill="#C87878"/>
</svg>
