<svg width="48" height="48" viewBox="0 0 48 48" fill="none" xmlns="http://www.w3.org/2000/svg">
<path d="M0 33.931H47.9999V38.8966C47.9999 39.3536 47.6293 39.7242 47.1723 39.7242H0.827623C0.370593 39.7242 0 39.3536 0 38.8966V33.931Z" fill="#4173CD"/>
<path d="M0.827623 8.27597H47.1724C47.6294 8.27597 48 8.64656 48 9.10359V14.0691H0V9.1035C0 8.64647 0.370593 8.27597 0.827623 8.27597Z" fill="#4173CD"/>
<path d="M47.9999 14.069H0V33.9308H47.9999V14.069Z" fill="#FF4B55"/>
<path d="M47.9999 13.2412H0V14.8964H47.9999V13.2412Z" fill="#FFE15A"/>
<path d="M47.9999 33.103H0V34.7581H47.9999V33.103Z" fill="#FFE15A"/>
<path d="M42.0842 24.7985H5.8815C5.63579 24.7985 5.43666 24.5994 5.43666 24.3537V24.213C5.43666 23.9673 5.63579 23.7681 5.8815 23.7681H42.0842C42.3299 23.7681 42.5291 23.9673 42.5291 24.213V24.3537C42.5291 24.5993 42.3299 24.7985 42.0842 24.7985Z" fill="#FFE15A"/>
<path d="M35.059 22.738L36.862 21.9652L38.6651 22.738L36.862 23.5107L35.059 22.738Z" fill="white"/>
<path d="M35.5027 22.4086H9.04289C8.8611 22.4086 8.71373 22.5559 8.71373 22.7378C8.71373 22.9196 8.86101 23.067 9.04289 23.067H35.5026C35.6844 23.067 35.8318 22.9196 35.8318 22.7378C35.8318 22.556 35.6844 22.4086 35.5027 22.4086Z" fill="#FFE15A"/>
<path d="M36.9336 20.9348L38.7367 20.162L40.5398 20.9348L38.7367 21.7076L36.9336 20.9348Z" fill="white"/>
<path d="M37.3772 20.6057H10.9174C10.7356 20.6057 10.5883 20.753 10.5883 20.9349C10.5883 21.1166 10.7356 21.264 10.9174 21.264H37.3772C37.559 21.264 37.7063 21.1166 37.7063 20.9349C37.7063 20.7531 37.5591 20.6057 37.3772 20.6057Z" fill="#FFE15A"/>
<path d="M23.9826 17.5862C19.4068 17.5862 15.4148 20.1774 13.2766 24.0259C15.4147 27.8743 19.4068 30.4656 23.9826 30.4656C28.5583 30.4656 32.5504 27.8744 34.6885 24.0259C32.5505 20.1774 28.5582 17.5862 23.9826 17.5862Z" fill="white"/>
<path d="M13.2767 24.0257C15.4148 27.8742 19.4069 30.4654 23.9827 30.4654C24.7467 30.4654 25.4926 30.387 26.2182 30.2487C25.6643 29.0326 23.716 29.0347 23.5963 28.5765C23.4675 28.0828 25.1847 28.1901 25.4853 27.7822C25.7859 27.3744 23.854 27.2026 23.7681 26.7948C23.6822 26.3869 24.5409 26.1079 24.6912 25.464C24.8414 24.82 25.1848 24.6269 25.4424 24.2405C25.7 23.8542 25.0131 23.7254 24.8413 22.4374C24.6696 21.1495 23.6607 20.9777 23.1671 19.9261C22.6733 18.8743 23.4676 18.1015 23.9828 17.5863C19.4069 17.5861 15.4148 20.1772 13.2767 24.0257Z" fill="#464655"/>
<path d="M17.7997 21.7077H17.2845V23.7684H17.7997V21.7077Z" fill="white"/>
<path d="M18.831 21.7077H18.3158V23.7684H18.831V21.7077Z" fill="white"/>
<path d="M19.8611 21.7077H19.3459V23.7684H19.8611V21.7077Z" fill="white"/>
<path d="M20.8916 21.7077H20.3764V23.7684H20.8916V21.7077Z" fill="white"/>
<path d="M21.9217 21.7077H21.4065V23.7684H21.9217V21.7077Z" fill="white"/>
<path d="M22.9522 21.7077H22.4371V23.7684H22.9522V21.7077Z" fill="white"/>
<path d="M17.7997 24.7987H17.2845V26.8594H17.7997V24.7987Z" fill="white"/>
<path d="M18.831 24.7987H18.3158V26.8594H18.831V24.7987Z" fill="white"/>
<path d="M19.8611 24.7987H19.3459V26.8594H19.8611V24.7987Z" fill="white"/>
<path d="M20.8916 24.7987H20.3764V26.8594H20.8916V24.7987Z" fill="white"/>
<path d="M21.9217 24.7987H21.4065V26.8594H21.9217V24.7987Z" fill="white"/>
<path d="M22.9522 24.7987H22.4371V26.8594H22.9522V24.7987Z" fill="white"/>
<path d="M25.5278 21.7077H25.0126V23.7684H25.5278V21.7077Z" fill="#464655"/>
<path d="M26.5579 21.7077H26.0427V23.7684H26.5579V21.7077Z" fill="#464655"/>
<path d="M27.5884 21.7077H27.0733V23.7684H27.5884V21.7077Z" fill="#464655"/>
<path d="M28.6185 21.7077H28.1034V23.7684H28.6185V21.7077Z" fill="#464655"/>
<path d="M29.6491 21.7077H29.1339V23.7684H29.6491V21.7077Z" fill="#464655"/>
<path d="M30.6792 21.7077H30.164V23.7684H30.6792V21.7077Z" fill="#464655"/>
<path d="M25.5278 24.7987H25.0126V26.8594H25.5278V24.7987Z" fill="#464655"/>
<path d="M26.5579 24.7987H26.0427V26.8594H26.5579V24.7987Z" fill="#464655"/>
<path d="M27.5884 24.7987H27.0733V26.8594H27.5884V24.7987Z" fill="#464655"/>
<path d="M28.6185 24.7987H28.1034V26.8594H28.6185V24.7987Z" fill="#464655"/>
<path d="M29.6491 24.7987H29.1339V26.8594H29.6491V24.7987Z" fill="#464655"/>
<path d="M30.6792 24.7987H30.164V26.8594H30.6792V24.7987Z" fill="#464655"/>
<path d="M39.8796 23.6878C39.467 24.6462 38.2929 24.759 38.9435 27.2021L39.2767 26.8639C39.2767 26.8639 39.6258 27.7848 40.4667 28.4049C40.4667 28.4049 41.498 27.5404 41.5774 26.1686L42.0057 26.3566C42.0057 26.3563 41.7995 23.857 39.8796 23.6878Z" fill="#245DBD"/>
<path d="M41.4028 25.6514C41.3698 25.6514 41.3371 25.6361 41.3123 25.6062C40.9082 25.1188 40.3935 24.9625 40.3886 24.9609C40.3206 24.9409 40.279 24.8592 40.2959 24.7788C40.3127 24.6989 40.3816 24.649 40.4492 24.6689C40.473 24.676 41.037 24.8457 41.4932 25.396C41.5423 25.4547 41.5415 25.5504 41.4918 25.6086C41.4671 25.6374 41.4351 25.6514 41.4028 25.6514Z" fill="#FF4B55"/>
<path d="M41.1121 26.7886C41.0741 26.7886 41.0364 26.7686 41.0114 26.7298C40.7117 26.2682 40.3717 26.0168 40.3683 26.0145C40.3084 25.9711 40.2902 25.8783 40.3269 25.8072C40.3638 25.7368 40.4419 25.715 40.5018 25.7585C40.5174 25.7696 40.885 26.0421 41.2128 26.5466C41.2554 26.6124 41.245 26.7069 41.1895 26.7575C41.1665 26.7785 41.1391 26.7886 41.1121 26.7886Z" fill="#FF4B55"/>
<path d="M40.4463 28.0539C40.4392 28.0539 40.432 28.0533 40.4245 28.0516C40.3556 28.0375 40.3089 27.9599 40.3208 27.8783C40.3708 27.5342 40.3289 26.9698 40.2602 26.6785C40.2414 26.5987 40.2808 26.5158 40.3482 26.4929C40.4164 26.4712 40.4859 26.5176 40.5046 26.5975C40.5823 26.9264 40.6276 27.5402 40.571 27.9289C40.5605 28.0023 40.5068 28.0539 40.4463 28.0539Z" fill="#FF4B55"/>
<path d="M39.5531 26.6656C39.5169 26.6656 39.481 26.6474 39.456 26.6122C39.4109 26.5488 39.4176 26.4536 39.4711 26.4002C39.4742 26.3973 39.7982 26.0683 39.8829 25.6133C39.898 25.5323 39.9652 25.4812 40.0341 25.4988C40.1025 25.5164 40.146 25.5969 40.1309 25.678C40.0272 26.2347 39.6507 26.6147 39.6345 26.6306C39.6106 26.6539 39.5819 26.6656 39.5531 26.6656Z" fill="#FF4B55"/>
<path d="M39.2008 25.7037C39.1581 25.7037 39.1165 25.6785 39.0925 25.632C39.0558 25.5616 39.0744 25.4688 39.1342 25.4253C39.139 25.4217 39.5993 25.0829 39.7421 24.713C39.7711 24.6367 39.847 24.6031 39.9104 24.6384C39.9741 24.6731 40.0022 24.7623 39.9731 24.8375C39.7979 25.2914 39.2885 25.6656 39.2671 25.6814C39.2461 25.6967 39.2233 25.7037 39.2008 25.7037Z" fill="#FF4B55"/>
<path d="M7.71423 24.0104C7.36932 24.8117 6.38748 24.9062 6.93142 26.949L7.21004 26.6661C7.21004 26.6661 7.50189 27.4361 8.2051 27.9547C8.2051 27.9547 9.06741 27.2318 9.13379 26.0847L9.49201 26.2418C9.49201 26.2419 9.3196 24.1519 7.71423 24.0104Z" fill="#245DBD"/>
<path d="M8.98802 25.6526C8.96036 25.6526 8.93308 25.6399 8.91236 25.6147C8.57449 25.2071 8.14417 25.0765 8.13995 25.075C8.08314 25.0583 8.04826 24.9901 8.06251 24.9228C8.07658 24.8559 8.13423 24.8142 8.19076 24.8309C8.21064 24.8368 8.6822 24.9787 9.06367 25.4389C9.10474 25.488 9.10408 25.5679 9.06245 25.6166C9.04174 25.6408 9.01492 25.6526 8.98802 25.6526Z" fill="#FF4B55"/>
<path d="M8.74499 26.6032C8.71321 26.6032 8.6818 26.5865 8.6608 26.5541C8.41012 26.1681 8.12596 25.9579 8.12306 25.9559C8.07309 25.9197 8.05781 25.842 8.08837 25.7826C8.11931 25.7236 8.18456 25.7055 8.23452 25.7418C8.24756 25.7511 8.55496 25.979 8.82908 26.4009C8.8648 26.4559 8.85608 26.5349 8.80968 26.5771C8.79037 26.5948 8.76749 26.6032 8.74499 26.6032Z" fill="#FF4B55"/>
<path d="M8.18783 27.6616C8.18183 27.6616 8.17583 27.6611 8.16965 27.6597C8.11199 27.6479 8.07299 27.583 8.08293 27.5148C8.12483 27.227 8.08977 26.7551 8.0323 26.5116C8.01655 26.4448 8.04946 26.3756 8.1059 26.3564C8.1629 26.3383 8.22093 26.3771 8.23668 26.4438C8.30155 26.7188 8.33952 27.232 8.29227 27.5571C8.28336 27.6183 8.23836 27.6616 8.18783 27.6616Z" fill="#FF4B55"/>
<path d="M7.44137 26.5006C7.41109 26.5006 7.38109 26.4854 7.36009 26.4559C7.32231 26.4028 7.32793 26.3232 7.37275 26.2786C7.37547 26.2762 7.6464 26.0012 7.717 25.6206C7.72965 25.5528 7.78581 25.5102 7.84337 25.5248C7.90056 25.5395 7.93694 25.6068 7.92428 25.6746C7.83756 26.1402 7.52265 26.4579 7.50925 26.4712C7.48947 26.4908 7.46547 26.5006 7.44137 26.5006Z" fill="#FF4B55"/>
<path d="M7.14654 25.6962C7.11082 25.6962 7.07613 25.6751 7.05588 25.6363C7.02513 25.5773 7.04079 25.4997 7.09076 25.4634C7.0947 25.4605 7.47963 25.1771 7.59907 24.8677C7.62325 24.8039 7.68682 24.7758 7.73988 24.8054C7.79313 24.8343 7.81657 24.909 7.79228 24.9718C7.64566 25.3514 7.21994 25.6641 7.20194 25.6774C7.18451 25.6903 7.16538 25.6962 7.14654 25.6962Z" fill="#FF4B55"/>
</svg>
