<svg width="48" height="48" viewBox="0 0 48 48" fill="none" xmlns="http://www.w3.org/2000/svg">
<path d="M47.9999 14.5656H0V9.10347C0 8.64644 0.370593 8.27585 0.827623 8.27585H47.1724C47.6294 8.27585 48 8.64644 48 9.10347L47.9999 14.5656Z" fill="#73AF00"/>
<path d="M47.9999 20.8557H0V27.1453H47.9999V20.8557Z" fill="#73AF00"/>
<path d="M47.9999 14.566H0V20.8557H47.9999V14.566Z" fill="#FFE15A"/>
<path d="M47.1723 39.7242H0.827623C0.370593 39.7242 0 39.3536 0 38.8965V33.4345H47.9999V38.8965C47.9999 39.3537 47.6293 39.7242 47.1723 39.7242Z" fill="#73AF00"/>
<path d="M47.9999 27.1453H0V33.435H47.9999V27.1453Z" fill="#FFE15A"/>
<path d="M18.2069 27.1449H0.827623C0.370593 27.1449 0 26.7743 0 26.3172V9.10347C0 8.64644 0.370593 8.27585 0.827623 8.27585H18.2069C18.6639 8.27585 19.0345 8.64644 19.0345 9.10347V26.3172C19.0344 26.7743 18.6639 27.1449 18.2069 27.1449Z" fill="#FF4B55"/>
<path d="M9.31267 12.716L8.11661 16.3022L4.33643 16.3314C4.12925 16.3331 4.04328 16.5975 4.21006 16.7206L7.25112 18.9663L6.11084 22.5706C6.0484 22.7682 6.2734 22.9316 6.44187 22.8111L9.51742 20.6129L12.593 22.8111C12.7616 22.9317 12.9866 22.7682 12.924 22.5706L11.7837 18.9663L14.8248 16.7207C14.9916 16.5976 14.9056 16.333 14.6984 16.3315L10.9182 16.3023L9.72189 12.7161C9.65627 12.5194 9.3782 12.5194 9.31267 12.716Z" fill="white"/>
</svg>
