<svg width="48" height="48" viewBox="0 0 48 48" fill="none" xmlns="http://www.w3.org/2000/svg">
<path d="M47.175 39.7221H0.825C0.365625 39.7221 0 39.3471 0 38.8971V9.10332C0 8.64394 0.375 8.27832 0.825 8.27832H47.1656C47.625 8.27832 47.9906 8.65332 47.9906 9.10332V38.8971C48 39.3564 47.625 39.7221 47.175 39.7221Z" fill="white"/>
<path d="M47.175 39.7221H0.825C0.365625 39.7221 0 39.3471 0 38.8971V34.7627H48V38.8971C48 39.3564 47.625 39.7221 47.175 39.7221Z" fill="#FF4B55"/>
<path d="M0.825 8.27832H47.1656C47.625 8.27832 47.9906 8.65332 47.9906 9.10332V13.2377H0V9.10332C0 8.64394 0.375 8.27832 0.825 8.27832Z" fill="#FF4B55"/>
<path d="M48 18.2061H0V29.7936H48V18.2061Z" fill="#41479B"/>
</svg>
