<svg width="48" height="48" viewBox="0 0 48 48" fill="none" xmlns="http://www.w3.org/2000/svg">
<path d="M0 29.2411H47.9999V38.8962C47.9999 39.3533 47.6293 39.7239 47.1723 39.7239H0.827623C0.370593 39.7239 0 39.3533 0 38.8962V29.2411Z" fill="#73AF00"/>
<path d="M0.827623 8.27597H47.1724C47.6294 8.27597 48 8.64656 48 9.10359V18.7587H0V9.1035C0 8.64647 0.370593 8.27597 0.827623 8.27597Z" fill="#FF4B55"/>
<path d="M47.9999 18.7585H0V29.2407H47.9999V18.7585Z" fill="white"/>
<path d="M21.2874 26.9562C21.6315 26.7829 21.8328 26.4971 21.9405 26.2909C22.5569 26.6936 23.0851 26.5569 23.3604 26.4281C23.6289 26.3022 23.8501 26.097 23.9977 25.8879C24.1453 26.097 24.3665 26.3022 24.635 26.4281C24.9101 26.5569 25.4383 26.6934 26.0548 26.2909C26.1624 26.4971 26.3637 26.7828 26.7079 26.9562C26.9062 27.0562 27.1249 27.1063 27.3622 27.1063C27.6059 27.1063 27.8692 27.0536 28.1504 26.9482L28.0138 26.5839C27.5665 26.7516 27.187 26.7607 26.8865 26.6107C26.4657 26.401 26.3253 25.9385 26.3242 25.9346L26.2421 25.6475L26.0127 25.8386C25.6079 26.1757 25.1888 26.2584 24.8 26.0757C24.4052 25.8909 24.1921 25.5167 24.1921 25.4045V23.7257C24.2763 23.5406 24.462 23.4109 24.6783 23.4109C24.7526 23.4109 24.8261 23.427 24.8966 23.4588L25.1374 23.5675L25.101 23.3057C25.0247 22.7558 24.5502 22.3411 23.9976 22.3411C23.4448 22.3411 22.9704 22.7558 22.8941 23.3057L22.8578 23.5675L23.0985 23.4588C23.1689 23.427 23.2425 23.4109 23.3169 23.4109C23.5331 23.4109 23.7189 23.5406 23.803 23.7257V25.4045C23.803 25.5167 23.59 25.8909 23.1952 26.0757C22.8066 26.2583 22.3872 26.1759 21.9824 25.8386L21.7547 25.6499L21.671 25.9339C21.6697 25.9385 21.5291 26.401 21.1084 26.6107C20.8075 26.7608 20.4282 26.7518 19.981 26.5839L19.8445 26.9482C20.1256 27.0536 20.389 27.1063 20.6327 27.1063C20.8704 27.1062 21.089 27.0563 21.2874 26.9562ZM23.3169 23.1191C23.2936 23.1191 23.2704 23.12 23.2473 23.1221C23.3775 22.8318 23.6687 22.6328 23.9976 22.6328C24.3263 22.6328 24.6176 22.8318 24.7478 23.1221C24.4454 23.0954 24.1593 23.2432 23.9976 23.4773C23.8483 23.2609 23.5989 23.1191 23.3169 23.1191Z" fill="#FFCD5A"/>
<path d="M20.6295 28.1931L20.7528 28.5621C21.5797 28.2861 22.7626 28.1277 23.9976 28.1277C25.2327 28.1277 26.4155 28.2861 27.2425 28.5621L27.3658 28.1931C26.5007 27.9042 25.2729 27.7386 23.9976 27.7386C22.7224 27.7386 21.4946 27.9042 20.6295 28.1931Z" fill="#FFCD5A"/>
<path d="M23.9978 27.3495C24.2006 27.3502 24.3792 27.2296 24.5002 27.0673C24.4197 27.0177 24.3123 26.9886 24.1906 26.9735C24.1907 26.9691 24.1922 26.9651 24.1922 26.9606C24.1922 26.7938 24.1135 26.6498 23.9978 26.5716C23.882 26.6498 23.8033 26.7938 23.8033 26.9606C23.8033 26.965 23.8047 26.969 23.8049 26.9735C23.6833 26.9886 23.5759 27.0176 23.4954 27.0673C23.6162 27.2296 23.7949 27.35 23.9978 27.3495Z" fill="#FFCD5A"/>
<path d="M22.2126 27.5333C22.4113 27.4934 22.5624 27.3396 22.6484 27.1564C22.5597 27.1237 22.4486 27.1168 22.3265 27.1264C22.3257 27.1221 22.3263 27.1177 22.3254 27.1133C22.2921 26.95 22.1862 26.8246 22.0571 26.7711C21.9593 26.871 21.9109 27.0278 21.9443 27.1912C21.9452 27.1956 21.9474 27.1992 21.9483 27.2035C21.8323 27.2426 21.7327 27.2925 21.6639 27.3574C21.8149 27.4922 22.0139 27.5745 22.2126 27.5333Z" fill="#FFCD5A"/>
<path d="M25.9387 26.771C25.8096 26.8245 25.7036 26.9499 25.6704 27.1132C25.6694 27.1176 25.6701 27.1218 25.6692 27.1262C25.5472 27.1167 25.4361 27.1236 25.3473 27.1562C25.4334 27.3395 25.5844 27.4933 25.7831 27.5332C25.9818 27.5744 26.1808 27.4921 26.3319 27.3572C26.263 27.2924 26.1636 27.2424 26.0475 27.2033C26.0485 27.199 26.0507 27.1953 26.0515 27.1909C26.0848 27.0277 26.0363 26.8709 25.9387 26.771Z" fill="#FFCD5A"/>
<path d="M23.9457 19.6078L23.8146 20.0007L23.4005 20.0039C23.3469 20.0043 23.3247 20.0727 23.3678 20.1046L23.7009 20.3506L23.576 20.7455C23.5599 20.7966 23.618 20.8389 23.6617 20.8077L23.9986 20.5669L24.3356 20.8077C24.3793 20.8389 24.4374 20.7967 24.4213 20.7455L24.2963 20.3506L24.6294 20.1046C24.6725 20.0727 24.6503 20.0044 24.5967 20.0039L24.1826 20.0007L24.0515 19.6078C24.0345 19.5569 23.9626 19.5569 23.9457 19.6078Z" fill="#FFCD5A"/>
<path d="M21.5752 20.2561L21.4442 20.649L21.0301 20.6522C20.9765 20.6525 20.9542 20.721 20.9974 20.7529L21.3305 20.9989L21.2055 21.3937C21.1894 21.4448 21.2475 21.4871 21.2912 21.456L21.6281 21.2151L21.9651 21.456C22.0087 21.4871 22.0669 21.4449 22.0507 21.3937L21.9258 20.9989L22.2589 20.7529C22.302 20.721 22.2798 20.6526 22.2261 20.6522L21.8121 20.649L21.681 20.2561C21.6641 20.2052 21.5922 20.2052 21.5752 20.2561Z" fill="#FFCD5A"/>
<path d="M19.8329 22.0065L19.7018 22.3994L19.2877 22.4026C19.2341 22.403 19.2119 22.4714 19.255 22.5033L19.5881 22.7493L19.4632 23.1441C19.4471 23.1952 19.5052 23.2375 19.5489 23.2064L19.8858 22.9656L20.2228 23.2064C20.2665 23.2375 20.3246 23.1953 20.3085 23.1441L20.1836 22.7493L20.5167 22.5033C20.5598 22.4714 20.5376 22.4031 20.484 22.4026L20.0699 22.3994L19.9388 22.0065C19.9217 21.9557 19.8498 21.9557 19.8329 22.0065Z" fill="#FFCD5A"/>
<path d="M19.1927 24.373L19.0617 24.7659L18.6476 24.7691C18.594 24.7694 18.5717 24.8379 18.6149 24.8697L18.9479 25.1157L18.823 25.5106C18.8069 25.5617 18.865 25.604 18.9087 25.5729L19.2456 25.332L19.5825 25.5729C19.6262 25.604 19.6843 25.5618 19.6682 25.5106L19.5433 25.1157L19.8763 24.8697C19.9195 24.8379 19.8973 24.7695 19.8436 24.7691L19.4295 24.7659L19.2985 24.373C19.2816 24.3221 19.2097 24.3221 19.1927 24.373Z" fill="#FFCD5A"/>
<path d="M26.4246 20.2561L26.5557 20.649L26.9698 20.6522C27.0234 20.6525 27.0456 20.721 27.0025 20.7529L26.6694 20.9989L26.7944 21.3937C26.8105 21.4448 26.7524 21.4871 26.7087 21.456L26.3718 21.2151L26.0348 21.456C25.9911 21.4871 25.933 21.4449 25.9491 21.3937L26.0741 20.9989L25.741 20.7529C25.6979 20.721 25.7201 20.6526 25.7737 20.6522L26.1878 20.649L26.3189 20.2561C26.3358 20.2052 26.4077 20.2052 26.4246 20.2561Z" fill="#FFCD5A"/>
<path d="M28.1666 22.0065L28.2976 22.3994L28.7117 22.4026C28.7653 22.403 28.7876 22.4714 28.7444 22.5033L28.4113 22.7493L28.5363 23.1441C28.5524 23.1952 28.4943 23.2375 28.4506 23.2064L28.1137 22.9656L27.7767 23.2064C27.7331 23.2375 27.6749 23.1953 27.6911 23.1441L27.816 22.7493L27.4829 22.5033C27.4398 22.4714 27.462 22.4031 27.5156 22.4026L27.9297 22.3994L28.0608 22.0065C28.0777 21.9557 28.1496 21.9557 28.1666 22.0065Z" fill="#FFCD5A"/>
<path d="M28.8071 24.373L28.9381 24.7659L29.3522 24.7691C29.4058 24.7694 29.428 24.8379 29.3849 24.8697L29.0518 25.1157L29.1767 25.5106C29.1928 25.5617 29.1347 25.604 29.091 25.5729L28.7541 25.332L28.4172 25.5729C28.3735 25.604 28.3153 25.5618 28.3315 25.5106L28.4563 25.1157L28.1233 24.8697C28.0801 24.8379 28.1023 24.7695 28.156 24.7691L28.5701 24.7659L28.7011 24.373C28.7182 24.3221 28.7901 24.3221 28.8071 24.373Z" fill="#FFCD5A"/>
</svg>
