<svg width="48" height="48" viewBox="0 0 48 48" fill="none" xmlns="http://www.w3.org/2000/svg">
<path d="M47.1723 39.7242H0.827623C0.370593 39.7242 0 39.3536 0 38.8966V9.10362C0 8.64659 0.370593 8.276 0.827623 8.276H47.1724C47.6294 8.276 48 8.64659 48 9.10362V38.8966C47.9999 39.3537 47.6293 39.7242 47.1723 39.7242Z" fill="#41479B"/>
<path d="M44.6897 34.7589H11.5864C11.1293 34.7589 10.7587 34.3883 10.7587 33.9313C10.7587 33.4742 11.1293 33.1036 11.5864 33.1036H44.6897L45.5173 33.9313L44.6897 34.7589Z" fill="#FFE15A"/>
<path d="M45.1033 32.276H11.5862C11.5862 32.276 24.8276 17.3795 37.2414 14.0692C37.2414 14.0692 33.1034 24.8278 43.0344 31.4485H45.1034C45.332 31.4485 45.5172 31.6337 45.5172 31.8623C45.5171 32.0906 45.332 32.276 45.1033 32.276Z" fill="#FFE15A"/>
<path d="M10.1403 27.4847L10.4613 28.4476L11.4763 28.4555C11.6076 28.4565 11.6622 28.6242 11.5564 28.7022L10.74 29.3051L11.0462 30.2729C11.0858 30.3982 10.9431 30.5019 10.8362 30.4254L10.0105 29.8352L9.18475 30.4254C9.07788 30.5018 8.93519 30.3982 8.97485 30.2729L9.28103 29.3051L8.46457 28.7022C8.35882 28.6241 8.41338 28.4564 8.54472 28.4555L9.55966 28.4476L9.88075 27.4847C9.92228 27.36 10.0986 27.36 10.1403 27.4847Z" fill="white"/>
<path d="M10.1157 14.2471L10.3761 15.0282L11.1995 15.0346C11.3062 15.0354 11.3503 15.1714 11.2646 15.2347L10.6022 15.7239L10.8506 16.509C10.8827 16.6107 10.7669 16.6947 10.6803 16.6327L10.0104 16.1538L9.34043 16.6327C9.25371 16.6947 9.13803 16.6106 9.17018 16.509L9.41853 15.7239L8.75618 15.2347C8.6704 15.1714 8.71456 15.0354 8.82124 15.0346L9.64465 15.0282L9.90509 14.2471C9.93893 14.146 10.082 14.146 10.1157 14.2471Z" fill="white"/>
<path d="M3.87746 19.0809L4.1379 19.8621L4.9613 19.8684C5.06799 19.8693 5.11215 20.0053 5.02636 20.0686L4.36402 20.5578L4.61237 21.3428C4.64452 21.4446 4.52874 21.5286 4.44212 21.4666L3.77218 20.9877L3.10224 21.4666C3.01552 21.5286 2.89984 21.4445 2.93199 21.3428L3.18034 20.5578L2.51799 20.0686C2.43221 20.0053 2.47637 19.8693 2.58306 19.8684L3.40646 19.8621L3.6669 19.0809C3.70074 18.9798 3.8438 18.9798 3.87746 19.0809Z" fill="white"/>
<path d="M14.5772 18.7512L14.7776 19.3523L15.4112 19.3572C15.4933 19.3578 15.5273 19.4625 15.4613 19.5112L14.9515 19.8876L15.1427 20.4917C15.1674 20.5699 15.0783 20.6347 15.0116 20.5869L14.4962 20.2185L13.9807 20.5869C13.914 20.6346 13.8249 20.5699 13.8497 20.4917L14.0408 19.8876L13.531 19.5112C13.465 19.4625 13.499 19.3578 13.5811 19.3572L14.2147 19.3523L14.4152 18.7512C14.4411 18.6733 14.5512 18.6733 14.5772 18.7512Z" fill="white"/>
</svg>
