<svg width="48" height="48" viewBox="0 0 48 48" fill="none" xmlns="http://www.w3.org/2000/svg">
<path d="M47.1723 8.27597H0.827623C0.370593 8.27597 0 8.64647 0 9.1035V38.8965C0 39.3536 0.370593 39.7242 0.827623 39.7242H47.1724C47.6294 39.7242 48 39.3536 48 38.8965V9.1035C47.9999 8.64647 47.6293 8.27597 47.1723 8.27597Z" fill="#FF4B55"/>
<path d="M0.327656 39.5391L26.9402 24.514C27.3404 24.288 27.3404 23.7118 26.9402 23.486L0.327656 8.46081C0.133125 8.61221 0 8.83787 0 9.10337V38.8964C0 39.162 0.133218 39.3877 0.327656 39.5391Z" fill="#FFE15A"/>
<path d="M0.256968 39.4915L18.3443 24.5692C18.7022 24.274 18.7022 23.7258 18.3443 23.4305L0.256968 8.50826C0.0998435 8.65901 0 8.86845 0 9.10329V38.8963C0 39.1313 0.0998435 39.3408 0.256968 39.4915Z" fill="#464655"/>
<path d="M5.16851 20.1136L5.24735 23.0922L2.45464 24.1311C2.1868 24.2307 2.19992 24.6139 2.47395 24.695L5.33116 25.5404L5.45623 28.5175C5.46823 28.803 5.83666 28.9089 5.99848 28.6734L7.6855 26.2172L10.5555 27.0182C10.8306 27.0951 11.0453 26.7773 10.8713 26.5507L9.05659 24.1872L10.7053 21.7053C10.8633 21.4673 10.6276 21.165 10.3582 21.2605L7.54985 22.2559L5.69885 19.921C5.5212 19.697 5.16091 19.828 5.16851 20.1136Z" fill="white"/>
</svg>
