<svg width="48" height="48" viewBox="0 0 48 48" fill="none" xmlns="http://www.w3.org/2000/svg">
<path d="M47.1723 39.7238H0.827623C0.370593 39.7238 0 39.3532 0 38.8962V9.10326C0 8.64623 0.370593 8.27563 0.827623 8.27563H47.1724C47.6294 8.27563 48 8.64623 48 9.10326V38.8962C47.9999 39.3534 47.6293 39.7238 47.1723 39.7238Z" fill="#73AF00"/>
<path d="M14.8967 8.27606H6.62051V39.7244H14.8967V8.27606Z" fill="#FF4B55"/>
<path d="M14.0689 11.8617L12.4138 13.2411H9.10339L7.44824 11.8617V10.4824L9.10339 9.10315H12.4138L14.0689 10.4824V11.8617Z" fill="white"/>
<path d="M14.0689 23.4479L12.4138 24.8273H9.10339L7.44824 23.4479V22.0687L9.10339 20.6893H12.4138L14.0689 22.0687V23.4479Z" fill="#73AF00"/>
<path d="M14.0689 17.6548L12.4138 19.0342H9.10339L7.44824 17.6548V16.2756L9.10339 14.8962H12.4138L14.0689 16.2756V17.6548Z" fill="#73AF00"/>
<path d="M14.0689 29.2411L12.4138 30.6204H9.10339L7.44824 29.2411V27.8619L9.10339 26.4825H12.4138L14.0689 27.8619V29.2411Z" fill="#73AF00"/>
<path d="M6.62062 12.4134L8.27577 14.0685L6.62062 15.7237V12.4134Z" fill="#FFB400"/>
<path d="M14.8963 15.7237L13.2411 14.0685L14.8963 12.4134V15.7237Z" fill="#FFB400"/>
<path d="M6.62062 18.2065L8.27577 19.8616L6.62062 21.5168V18.2065Z" fill="#FFB400"/>
<path d="M14.8963 21.5168L13.2411 19.8616L14.8963 18.2065V21.5168Z" fill="#FFB400"/>
<path d="M6.62062 23.9996L8.27577 25.6548L6.62062 27.31V23.9996Z" fill="#FFB400"/>
<path d="M14.8963 27.31L13.2411 25.6548L14.8963 23.9996V27.31Z" fill="#FFB400"/>
<path d="M6.62062 29.7927L8.27577 31.4479L6.62062 33.103V29.7927Z" fill="#FFB400"/>
<path d="M14.8963 33.103L13.2411 31.4479L14.8963 29.7927V33.103Z" fill="#FFB400"/>
<path d="M6.62062 8.27563H8.27577L6.62062 9.93079V8.27563Z" fill="#FFB400"/>
<path d="M14.8963 9.93079L13.2411 8.27563H14.8963V9.93079Z" fill="#FFB400"/>
<path d="M11.1719 14.8966H10.3443V19.0347H11.1719V14.8966Z" fill="#FFB400"/>
<path d="M12.4133 16.5514H9.10301V17.379H12.4133V16.5514Z" fill="#FF4B55"/>
<path d="M13.2413 15.5859L12.4137 14.8962V19.0342L13.2413 18.3445V15.5859Z" fill="#FFB400"/>
<path d="M8.27597 18.3445L9.1035 19.0342V14.8964L8.27597 15.5859V18.3445Z" fill="#FFB400"/>
<path d="M10.7585 9.10315H9.10349L7.44824 10.4824V11.1721H10.7585V9.10315Z" fill="#FFB400"/>
<path d="M10.7585 13.2412H12.4137L14.0689 11.8619V11.1722H10.7585V13.2412Z" fill="#FFB400"/>
<path d="M10.7585 12.4133L9.10336 11.1768L10.7585 9.93054L12.4138 11.1768L10.7585 12.4133Z" fill="#FF4B55"/>
<path d="M10.7585 12.4132L12.4137 11.1767L12.4073 11.1718H10.7585V12.4132Z" fill="#73AF00"/>
<path d="M10.7585 11.172V9.93054L9.10986 11.172H10.7585Z" fill="#73AF00"/>
<path d="M12.4133 21.5171H9.10301V23.9999H12.4133V21.5171Z" fill="#FF4B55"/>
<path d="M13.2411 22.3441H12.4135V23.1717H13.2411V22.3441Z" fill="#FFB400"/>
<path d="M11.1719 22.3441H10.3443V23.1717H11.1719V22.3441Z" fill="white"/>
<path d="M11.1719 27.3099H10.3443V28.1375H11.1719V27.3099Z" fill="#FF4B55"/>
<path d="M12.4141 28.1377H11.5865V28.9653H12.4141V28.1377Z" fill="#FFB400"/>
<path d="M9.93064 28.1377H9.10301V28.9653H9.93064V28.1377Z" fill="#FFB400"/>
<path d="M11.1719 28.9647H10.3443V29.7923H11.1719V28.9647Z" fill="#FF4B55"/>
<path d="M9.10384 22.3441H8.27621V23.1717H9.10384V22.3441Z" fill="#FFB400"/>
<path d="M14.0689 35.0342L12.4138 36.4135H9.10339L7.44824 35.0342V33.655L9.10339 32.2756H12.4138L14.0689 33.655V35.0342Z" fill="white"/>
<path d="M10.7585 32.2756H9.10349L7.44824 33.6549V34.3445H10.7585V32.2756Z" fill="#FFB400"/>
<path d="M10.7585 36.4136H12.4137L14.0689 35.0343V34.3447H10.7585V36.4136Z" fill="#FFB400"/>
<path d="M12.4138 34.7581L10.7585 35.5857L9.10336 34.7581V33.9306L10.7585 33.103L12.4138 33.9306V34.7581Z" fill="#FF4B55"/>
<path d="M26.2511 12.782C26.163 12.7387 26.0832 12.8533 26.1547 12.9207C27.0913 13.8045 27.6831 15.0457 27.6831 16.4301C27.6831 19.1495 25.4973 21.3312 22.8094 21.3312C22.3133 21.3312 21.8355 21.2539 21.3847 21.113C21.2914 21.0838 21.2309 21.2091 21.3113 21.2649C22.0971 21.8112 23.0443 22.1377 24.0783 22.1377C26.8016 22.1377 29.027 19.9557 29.027 17.1968C29.027 15.2579 27.8889 13.5872 26.2511 12.782Z" fill="white"/>
<path d="M19.5162 15.9751L19.3138 16.5478L19.7901 16.9247C19.8517 16.9736 19.8158 17.0728 19.7372 17.0707L19.13 17.055L18.9187 17.6245C18.8913 17.6983 18.7858 17.6947 18.7635 17.6193L18.5907 17.037L17.9838 17.012C17.9051 17.0088 17.876 16.9074 17.9407 16.8629L18.4412 16.5186L18.2774 15.9336C18.2562 15.8579 18.3436 15.7987 18.406 15.8466L18.8881 16.2162L19.3939 15.8796C19.4591 15.836 19.5424 15.9009 19.5162 15.9751Z" fill="white"/>
<path d="M21.9758 17.2172L21.7734 17.79L22.2496 18.1669C22.3113 18.2158 22.2754 18.315 22.1967 18.3129L21.5895 18.2972L21.3782 18.8667C21.3508 18.9405 21.2454 18.9369 21.223 18.8615L21.0503 18.2792L20.4433 18.2542C20.3647 18.251 20.3355 18.1496 20.4003 18.1051L20.9007 17.7608L20.737 17.1758C20.7158 17.1001 20.8031 17.0409 20.8656 17.0888L21.3476 17.4584L21.8534 17.1218C21.9188 17.0783 22.0019 17.1432 21.9758 17.2172Z" fill="white"/>
<path d="M21.9506 14.6583L21.7482 15.231L22.2244 15.608C22.2861 15.6568 22.2502 15.756 22.1716 15.7539L21.5643 15.7383L21.353 16.3077C21.3257 16.3815 21.2202 16.3779 21.1979 16.3025L21.0251 15.7203L20.4182 15.6952C20.3395 15.6921 20.3104 15.5906 20.3751 15.5461L20.8756 15.2018L20.7118 14.6168C20.6906 14.5411 20.778 14.4819 20.8404 14.5298L21.3225 14.8994L21.8283 14.5628C21.8936 14.5193 21.9768 14.5842 21.9506 14.6583Z" fill="white"/>
<path d="M22.0348 12.1886L21.8324 12.7613L22.3087 13.1383C22.3703 13.1871 22.3344 13.2863 22.2558 13.2843L21.6486 13.2686L21.4373 13.838C21.4099 13.9118 21.3044 13.9083 21.2821 13.8329L21.1093 13.2506L20.5024 13.2256C20.4237 13.2224 20.3946 13.121 20.4593 13.0764L20.9598 12.7322L20.796 12.1472C20.7748 12.0714 20.8622 12.0123 20.9246 12.0602L21.4067 12.4297L21.9125 12.0932C21.9777 12.0496 22.061 12.1145 22.0348 12.1886Z" fill="white"/>
<path d="M24.4446 13.4308L24.2422 14.0035L24.7184 14.3805C24.7801 14.4293 24.7442 14.5285 24.6656 14.5265L24.0583 14.5108L23.847 15.0802C23.8197 15.154 23.7142 15.1505 23.6919 15.0751L23.5191 14.4928L22.9122 14.4678C22.8335 14.4646 22.8043 14.3631 22.8691 14.3186L23.3696 13.9744L23.2058 13.3894C23.1846 13.3136 23.272 13.2545 23.3344 13.3024L23.8165 13.6719L24.3222 13.3354C24.3875 13.2918 24.4707 13.3566 24.4446 13.4308Z" fill="white"/>
</svg>
