<svg width="48" height="48" viewBox="0 0 48 48" fill="none" xmlns="http://www.w3.org/2000/svg">
<path d="M47.1723 39.7242H0.827623C0.370593 39.7242 0 39.3536 0 38.8965V9.1035C0 8.64647 0.370593 8.27588 0.827623 8.27588H47.1724C47.6294 8.27588 48 8.64647 48 9.1035V38.8965C47.9999 39.3537 47.6293 39.7242 47.1723 39.7242Z" fill="#FF4B55"/>
<path d="M24.0937 15.7242C28.661 15.7242 32.3629 19.4362 32.3629 24.0001C32.3629 28.5772 28.661 32.276 24.0937 32.276C19.5165 32.276 15.8112 28.5772 15.8112 24.0001C15.8112 19.4362 19.5165 15.7242 24.0937 15.7242Z" fill="white"/>
<path d="M25.5979 28.6375C23.036 28.6375 20.958 26.5596 20.958 24.0006C20.958 21.4478 23.036 19.3698 25.5979 19.3698C26.4693 19.3698 27.2836 19.6139 27.9796 20.0356C28.0839 20.0988 28.1936 19.9623 28.1067 19.8767C27.0625 18.8479 25.6327 18.2107 24.0534 18.2107C20.8472 18.2107 18.251 20.8068 18.251 24.0008C18.251 27.2009 20.8471 29.7968 24.0534 29.7968C25.632 29.7968 27.0612 29.1601 28.1052 28.1316C28.1921 28.046 28.0824 27.9095 27.9781 27.9726C27.2823 28.3939 26.4686 28.6375 25.5979 28.6375Z" fill="#FF4B55"/>
<path d="M25.1739 20.7552L26.453 22.492L28.5104 21.844C28.7767 21.7601 28.9966 22.0635 28.834 22.2904L27.5776 24.0436L28.8296 25.8C28.9917 26.0274 28.771 26.3303 28.5048 26.2457L26.4491 25.5925L25.1655 27.3259C24.9993 27.5504 24.6431 27.4341 24.6413 27.1548L24.6273 24.9979L22.5821 24.3129C22.3172 24.2242 22.3178 23.8495 22.5828 23.7615L24.6299 23.0817L24.6493 20.9248C24.6518 20.6456 25.0083 20.5303 25.1739 20.7552Z" fill="#FF4B55"/>
</svg>
