<svg width="48" height="48" viewBox="0 0 48 48" fill="none" xmlns="http://www.w3.org/2000/svg">
<path d="M47.1723 39.7242H0.827623C0.370593 39.7242 0 39.3536 0 38.8965V9.10359C0 8.64656 0.370593 8.27597 0.827623 8.27597H47.1724C47.6294 8.27597 48 8.64656 48 9.10359V38.8965C47.9999 39.3537 47.6293 39.7242 47.1723 39.7242Z" fill="#FF4B55"/>
<path d="M18.2068 24.0001H0.827623C0.370593 24.0001 0 23.6295 0 23.1724V9.10359C0 8.64656 0.370593 8.27597 0.827623 8.27597H18.2069C18.6639 8.27597 19.0345 8.64656 19.0345 9.10359V23.1725C19.0344 23.6297 18.6638 24.0001 18.2068 24.0001Z" fill="white"/>
<path d="M15.724 14.0688H11.5861V9.93088H7.44818V14.0688H3.31026V18.2067H7.44818V22.3447H11.5861V18.2067H15.724V14.0688Z" fill="#FF4B55"/>
</svg>
