<svg width="48" height="48" viewBox="0 0 48 48" fill="none" xmlns="http://www.w3.org/2000/svg">
<path d="M47.1723 39.7243H0.827623C0.370593 39.7243 0 39.3537 0 38.8967V9.10362C0 8.64659 0.370593 8.276 0.827623 8.276H47.1724C47.6294 8.276 48 8.64659 48 9.10362V38.8967C47.9999 39.3538 47.6293 39.7243 47.1723 39.7243Z" fill="#FF4B55"/>
<path d="M23.7632 21.164L25.0604 22.861L27.0859 22.183C27.1992 22.1451 27.2956 22.2732 27.2277 22.3715L26.0147 24.1295L27.2855 25.8465C27.3565 25.9425 27.2645 26.0736 27.1501 26.0395L25.1031 25.4291L23.863 27.1682C23.7937 27.2654 23.6404 27.2184 23.6375 27.0991L23.5854 24.9637L21.5482 24.3216C21.4343 24.2857 21.4316 24.1255 21.5443 24.0859L23.5591 23.3765L23.5401 21.2406C23.539 21.1212 23.6907 21.0692 23.7632 21.164Z" fill="white"/>
<path d="M16.5895 30.6244C12.9338 30.6244 9.96827 27.6588 9.96827 23.9998C9.96827 20.3475 12.9339 17.3752 16.5895 17.3752C17.9497 17.3752 19.2039 17.7935 20.2492 18.5015C20.4093 18.6099 20.592 18.3996 20.458 18.2603C18.8958 16.6361 16.6848 15.6453 14.2332 15.729C10.0214 15.8727 6.53468 19.2496 6.26552 23.4552C5.95737 28.2723 9.77167 32.2757 14.5207 32.2757C16.86 32.2757 18.9624 31.2977 20.4637 29.734C20.5964 29.5959 20.4133 29.3887 20.2548 29.4961C19.2083 30.2057 17.952 30.6244 16.5895 30.6244Z" fill="white"/>
</svg>
