<svg width="48" height="48" viewBox="0 0 48 48" fill="none" xmlns="http://www.w3.org/2000/svg">
<path d="M47.1723 39.7243H0.827623C0.370593 39.7243 0 39.3537 0 38.8966V9.10359C0 8.64656 0.370593 8.27597 0.827623 8.27597H47.1724C47.6294 8.27597 48 8.64656 48 9.10359V38.8966C47.9999 39.3538 47.6293 39.7243 47.1723 39.7243Z" fill="#FF4B55"/>
<path d="M0.827531 8.27609C0.60375 8.27609 0.402375 8.36675 0.253407 8.51103L33.931 39.7243H36.4137L2.48268 8.27609H0.827531Z" fill="white"/>
<path d="M14.069 8.27609H11.5862L45.5172 39.7243H47.1723C47.3961 39.7243 47.5975 39.6336 47.7465 39.4893L14.069 8.27609Z" fill="white"/>
<path d="M2.48286 8.27609L36.4138 39.7243H45.5172L11.5862 8.27609H2.48286Z" fill="#464655"/>
</svg>
