<svg width="48" height="48" viewBox="0 0 48 48" fill="none" xmlns="http://www.w3.org/2000/svg">
<path d="M47.1723 39.7243H0.827623C0.370593 39.7243 0 39.3537 0 38.8966V9.10359C0 8.64656 0.370593 8.27597 0.827623 8.27597H47.1724C47.6294 8.27597 48 8.64656 48 9.10359V38.8966C47.9999 39.3538 47.6293 39.7243 47.1723 39.7243Z" fill="#FF4B55"/>
<path d="M0.827623 8.27609H23.1724C23.6295 8.27609 24 8.64669 24 9.10372V23.1727C24 23.6297 23.6295 24.0003 23.1724 24.0003H0.827623C0.370593 24.0002 0 23.6296 0 23.1726V9.10362C0 8.64659 0.370593 8.27609 0.827623 8.27609Z" fill="#41479B"/>
<path d="M9.03771 16.138C9.03771 15.3204 9.36902 14.5801 9.90471 14.0441L7.42278 13.3342C7.27868 13.293 7.17546 13.4719 7.28309 13.576L9.14037 15.3718L6.63406 15.9984C6.48875 16.0347 6.48875 16.2414 6.63406 16.2777L9.14037 16.9044L7.28309 18.7001C7.17537 18.8043 7.27868 18.9832 7.42278 18.942L9.90471 18.232C9.36902 17.696 9.03771 16.9557 9.03771 16.138Z" fill="white"/>
<path d="M9.90581 14.043C10.4418 13.5073 11.182 13.176 11.9997 13.176C12.8174 13.176 13.5576 13.5073 14.0936 14.043L14.8036 11.5611C14.8447 11.417 14.6659 11.3138 14.5617 11.4214L12.7659 13.2786L12.1393 10.7723C12.103 10.6269 11.8964 10.6269 11.86 10.7723L11.2334 13.2786L9.43763 11.4214C9.33347 11.3137 9.1546 11.417 9.19575 11.5611L9.90581 14.043Z" fill="white"/>
<path d="M14.0936 18.2334C13.5577 18.7691 12.8174 19.1004 11.9997 19.1004C11.1821 19.1004 10.4418 18.7691 9.90583 18.2334L9.19587 20.7153C9.15471 20.8594 9.33359 20.9626 9.43774 20.855L11.2335 18.9978L11.8601 21.5041C11.8964 21.6494 12.103 21.6494 12.1394 21.5041L12.766 18.9978L14.5618 20.855C14.666 20.9627 14.8449 20.8594 14.8037 20.7153L14.0936 18.2334Z" fill="white"/>
<path d="M17.3657 15.9983L14.8594 15.3717L16.7166 13.5759C16.8243 13.4718 16.721 13.2929 16.5769 13.334L14.095 14.044C14.6307 14.58 14.962 15.3202 14.962 16.1379C14.962 16.9556 14.6307 17.6959 14.095 18.2318L16.5769 18.9418C16.721 18.9829 16.8242 18.8041 16.7166 18.6999L14.8594 16.9041L17.3657 16.2775C17.5111 16.2413 17.5111 16.0348 17.3657 15.9983Z" fill="white"/>
<path d="M12.0001 18.497C13.3028 18.497 14.3589 17.4409 14.3589 16.1382C14.3589 14.8355 13.3028 13.7795 12.0001 13.7795C10.6974 13.7795 9.64137 14.8355 9.64137 16.1382C9.64137 17.4409 10.6974 18.497 12.0001 18.497Z" fill="white"/>
</svg>
