<svg width="48" height="48" viewBox="0 0 48 48" fill="none" xmlns="http://www.w3.org/2000/svg">
<g clip-path="url(#clip0_11_745)">
<path d="M0 32.276V9.1035C0 8.64647 0.370594 8.27588 0.827625 8.27588H36.4138L0 32.276Z" fill="#73AF00"/>
<path d="M48.0001 15.724V38.8964C48.0001 39.3534 47.6295 39.724 47.1724 39.724H11.5862L48.0001 15.724Z" fill="#4173CD"/>
<path d="M48 16.1909V9.1035C48 8.64647 47.6294 8.27588 47.1724 8.27588H35.9193L0 31.8093V38.8966C0 39.3536 0.370594 39.7242 0.827625 39.7242H12.0807L48 16.1909Z" fill="#FFE15A"/>
<path d="M48 13.2233V9.1035C48 8.64647 47.6294 8.27588 47.1724 8.27588H40.4488L0 34.7769V38.8967C0 39.3537 0.370594 39.7243 0.827625 39.7243H7.55119L48 13.2233Z" fill="#464655"/>
</g>
<defs>
<clipPath id="clip0_11_745">
<rect width="48" height="48" fill="white"/>
</clipPath>
</defs>
</svg>
