<svg width="48" height="48" viewBox="0 0 48 48" fill="none" xmlns="http://www.w3.org/2000/svg">
<path d="M47.9999 13.5175H0V9.10362C0 8.64659 0.370593 8.276 0.827623 8.276H47.1724C47.6294 8.276 48 8.64659 48 9.10362L47.9999 13.5175Z" fill="#464655"/>
<path d="M47.9999 13.5179H0V18.7593H47.9999V13.5179Z" fill="#FFE15A"/>
<path d="M47.9999 18.7584H0V23.9998H47.9999V18.7584Z" fill="#FF4B55"/>
<path d="M47.9999 24.0001H0V29.2414H47.9999V24.0001Z" fill="#464655"/>
<path d="M47.9999 29.2415H0V34.4829H47.9999V29.2415Z" fill="#FFE15A"/>
<path d="M47.1723 39.7242H0.827623C0.370593 39.7242 0 39.3537 0 38.8966V34.4828H47.9999V38.8966C47.9999 39.3537 47.6293 39.7242 47.1723 39.7242Z" fill="#FF4B55"/>
<path d="M23.9998 28.9657C26.7422 28.9657 28.9653 26.7426 28.9653 24.0002C28.9653 21.2578 26.7422 19.0346 23.9998 19.0346C21.2574 19.0346 19.0342 21.2578 19.0342 24.0002C19.0342 26.7426 21.2574 28.9657 23.9998 28.9657Z" fill="white"/>
<path d="M24.2992 20.977L24.7883 20.7814C24.8592 20.753 24.8935 20.6717 24.8621 20.6022C24.7524 20.359 24.4585 19.8558 23.8999 19.8406C23.5462 19.831 23.2818 19.9107 23.1325 19.9723C23.0563 20.0037 23.0256 20.0944 23.0673 20.1656L23.3624 20.6698L24.2992 20.977Z" fill="#FF4B55"/>
<path d="M23.9003 19.8403C23.8596 19.8391 23.8229 19.8415 23.7846 19.8426L23.7313 20.6235L24.0154 20.7808L24.6298 20.2248C24.4681 20.0292 24.2309 19.8492 23.9003 19.8403Z" fill="#FFE15A"/>
<path d="M26.0042 25.5688L23.7928 22.9888C23.7928 22.4548 23.9857 22.0187 24.0924 21.8182C24.3968 21.6823 24.5932 21.3475 24.5114 20.978C24.4521 20.7092 24.2351 20.49 23.9668 20.4287C23.484 20.3183 23.0557 20.682 23.0557 21.1458C23.0557 21.1633 23.0596 21.1797 23.0608 21.1968C22.5838 21.3226 22.4951 21.476 22.4951 21.476C22.4951 21.476 22.8078 21.3929 23.0791 21.3218C23.0845 21.3439 23.0918 21.3652 23.0992 21.3866L22.5641 21.5683L23.1484 21.4972C23.2132 21.6159 23.3094 21.7145 23.4256 21.7828C22.9889 22.1345 22.3184 22.7955 22.3184 23.5418C22.3184 24.2241 22.8238 24.6788 23.4604 24.981C23.6829 25.0868 23.8874 25.2262 24.0556 25.4062L24.0619 25.4129L24.1172 26.26C23.6606 26.26 23.1164 26.26 22.8712 26.26C22.4105 26.26 22.2839 26.5594 22.2839 27.0547L22.5027 26.7437L22.6869 27.0893L22.71 26.6976L22.9058 26.9509C22.9058 26.9509 22.9039 26.62 23.1535 26.5766C23.2859 26.5535 23.7448 26.5247 24.1346 26.5247L24.2172 27.787C23.6886 27.7845 23.0902 28.0335 23.0902 28.0335C23.2745 27.9989 23.7238 28.0681 23.7238 28.0681L23.6489 28.2869C24.1672 28.0047 25.1175 27.9989 25.1175 27.9989C25.1175 27.9989 24.9102 27.8576 24.4265 27.8022L24.4376 26.5246H25.198L25.3132 26.2252C25.3132 26.2252 24.9208 25.7046 24.9208 25.429C25.5292 25.5445 26.0042 25.5688 26.0042 25.5688ZM24.4399 26.2599L24.4437 25.8217C24.672 26.0664 24.8526 26.2599 24.8526 26.2599C24.8526 26.2599 24.682 26.2599 24.4399 26.2599Z" fill="#464655"/>
<path d="M26.0039 25.9373C25.8197 25.2001 25.012 24.9735 24.1611 24.463C23.2397 23.9101 23.7924 22.9886 23.7924 22.9886C23.7924 22.9886 26.8792 23.8947 27.1096 25.2C27.2889 26.2166 26.5567 26.8586 26.1882 27.0429L26.3206 26.6742H25.6353C25.6353 26.6742 26.3609 26.1099 26.3724 25.5685L26.0039 25.9373Z" fill="#696E7D"/>
<path d="M27.1098 25.2C26.9557 24.3273 25.526 23.6337 24.5946 23.2693C24.2964 23.2361 24.0345 23.7372 24.8523 24.2785C25.9524 25.0068 26.0041 25.9372 26.0041 25.9372L26.3727 25.5685C26.3613 26.1098 25.6356 26.6743 25.6356 26.6743H26.3209L26.1885 27.0429C26.5569 26.8586 27.2891 26.2167 27.1098 25.2Z" fill="#FFFCFF"/>
<path d="M27.1097 25.2C27.0076 24.6217 26.3449 24.1226 25.6385 23.7453C25.2983 23.6436 25.0019 23.6566 25.0019 23.6566C25.2092 23.7834 25.3013 24.1058 25.3013 24.1058C25.1516 24.0136 24.8176 24.0597 24.8176 24.0597C24.9105 24.1394 24.9985 24.3018 25.0574 24.4264C25.9583 25.1266 26.004 25.9373 26.004 25.9373L26.3726 25.5686C26.3612 26.1099 25.6355 26.6744 25.6355 26.6744H26.3208L26.1884 27.043C26.5569 26.8586 27.289 26.2167 27.1097 25.2Z" fill="#FF4B55"/>
<path d="M23.4929 21.1998C23.5608 21.1998 23.6159 21.1448 23.6159 21.0769C23.6159 21.009 23.5608 20.954 23.4929 20.954C23.4251 20.954 23.37 21.009 23.37 21.0769C23.37 21.1448 23.4251 21.1998 23.4929 21.1998Z" fill="white"/>
<path d="M23.1707 21.545C23.1707 21.545 22.9019 21.8599 23.0785 21.952C23.2552 22.0442 23.4255 21.7824 23.4255 21.7824L23.1707 21.545Z" fill="#FF4B55"/>
</svg>
