<svg width="48" height="48" viewBox="0 0 48 48" fill="none" xmlns="http://www.w3.org/2000/svg">
<path d="M47.1723 8.27585H0.827623C0.370593 8.27585 0 8.64635 0 9.10338V38.8964C0 39.3534 0.370593 39.724 0.827623 39.724H47.1724C47.6294 39.724 48 39.3534 48 38.8964V9.10338C47.9999 8.64635 47.6293 8.27585 47.1723 8.27585Z" fill="#82AFFF"/>
<path d="M23.9293 30.155C28.1389 30.155 31.5635 26.7301 31.5635 22.5209C31.5635 18.3116 28.1388 14.8867 23.9293 14.8867C19.7199 14.8867 16.2952 18.3116 16.2952 22.5209C16.2952 26.7301 19.7198 30.155 23.9293 30.155ZM24.8003 15.6852L25.4564 15.4434C26.3824 15.6431 27.2434 16.0184 28.0013 16.5357C27.9361 16.5291 27.7639 16.5115 27.7342 16.5016C27.6974 16.4894 27.6406 16.7354 27.6406 16.7354L27.9417 16.8552L28.0239 16.5527C28.3366 16.7679 28.6286 17.0099 28.9034 17.2703L28.4607 17.713H28.3825L28.3189 17.4632L28.0767 17.0279L27.2214 16.7195L26.6297 17.0058L26.9654 17.7327C26.1382 17.2063 25.1676 16.8901 24.1251 16.8543V15.8413L24.7279 16.0316L24.4773 15.5898L24.1251 15.7406V15.2882C24.3867 15.2953 24.6443 15.3167 24.8982 15.351L24.6022 15.4497L24.8003 15.6852ZM28.7618 21.273L28.9059 21.2119L28.9421 20.8573C29.0965 21.3215 29.1857 21.8141 29.2045 22.325H27.8768L27.9257 22.113L28.3009 22.0803L28.6115 21.5515L28.6027 21.4523L28.2846 21.8601L28.0903 21.9078L27.9665 21.7622L28.1122 21.5147L27.7952 21.2809L27.5105 21.5306C27.4338 21.2538 27.3294 20.9887 27.1943 20.7418L27.3487 20.6856L27.4725 20.6117L27.4715 20.4661L27.5509 20.3673L27.505 20.3391C27.471 20.3552 27.2939 20.4067 27.2939 20.4067L27.2325 20.606L27.1444 20.6596C27.0145 20.4361 26.8617 20.228 26.6897 20.0371L27.4218 19.305L27.4281 19.3153L27.6064 19.2081L27.5787 19.1478L27.7963 18.9302C28.2869 19.4582 28.67 20.0852 28.9132 20.7789L28.7309 20.5081L28.637 20.5431L28.7618 21.273ZM27.7966 26.1113L27.4006 25.7153L27.2512 25.3191L27.1743 25.489L27.0211 25.3358L27.1781 24.8544L27.0764 24.5051L27.0692 24.506C27.1768 24.3364 27.2739 24.1596 27.3532 23.973L27.355 23.9728C27.3796 23.9728 27.4692 23.8586 27.4692 23.8586L27.6895 23.8831L28.2587 23.6581L28.0401 23.4509L27.9114 23.3359L27.8116 23.1329L27.6332 22.8223C27.636 22.7874 27.6368 22.7521 27.6385 22.7169H29.2045C29.1563 24.0258 28.6316 25.2125 27.7966 26.1113ZM20.1978 25.8608L20.3938 25.5182L19.9719 24.0435L19.6392 23.2223L19.9409 23.0917L20.0225 22.847L20.2263 22.8411C20.2975 23.6699 20.6423 24.4198 21.1689 25.0044L20.3043 25.869L20.1978 25.8608ZM20.6688 22.2456L20.6646 22.3252H20.6114C20.6132 22.2951 20.6135 22.2646 20.616 22.2346L20.6688 22.2456ZM25.6946 25.3367L25.6276 25.3004L24.7737 25.6306L24.3311 25.4602L24.1251 25.5171V25.2357L24.3382 25.1714L24.4674 25.2025L24.7393 25.3089L24.5754 25.0091L24.9267 25.3036L25.0953 25.3421L25.044 25.1174L25.1583 24.746L25.5565 24.5031L25.5911 24.7267L25.1053 24.9907L25.1985 25.1766L25.7036 25.0746L25.7116 25.3266C25.706 25.3299 25.7001 25.3331 25.6946 25.3367ZM23.6819 23.8661L23.6667 23.8335L23.5751 23.8387C23.4571 23.8068 23.3462 23.7601 23.2431 23.6998L23.5839 23.6584L23.7336 23.2566V23.8712C23.7165 23.8689 23.6987 23.8692 23.6819 23.8661ZM22.2508 23.0279L21.9179 22.9766L22.0877 22.7166H22.1874C22.1994 22.8239 22.2204 22.9273 22.2508 23.0279ZM24.125 21.6734L24.2168 21.7012L24.3322 21.8412L24.125 22.0484V21.6734ZM24.7424 24.1616L24.5835 24.3476L24.3187 24.4793L24.2299 24.3237L24.1765 24.6331L24.1252 24.6531V24.2628C24.1622 24.2587 24.2003 24.258 24.2367 24.2516L24.3635 24.4105L24.4687 24.2795L24.4605 24.192C24.5189 24.1733 24.5786 24.1578 24.6342 24.1334L24.7424 24.1616ZM24.6233 22.1038L24.6191 22.3156L24.6114 22.3252H24.4017L24.6233 22.1038ZM24.749 22.8329L25.0024 22.8248L25.1406 22.9399L25.0946 23.0229L24.9011 22.9123L24.7952 22.9951L24.8484 23.154L24.8462 23.1609L24.4019 22.7166H24.6979L24.749 22.8329ZM24.5814 23.4497L24.3393 23.4237L24.1683 23.8669C24.1542 23.8694 24.1393 23.8693 24.1252 23.8712V22.9934L24.5814 23.4497ZM23.3246 22.3251L23.3076 22.2538L23.1376 22.3251H23.0624L23.0873 22.2219L23.1971 22.1156L23.11 22.0958L23.0194 22.2245L22.9253 22.2676L22.9363 22.3253H22.8375L22.897 22.094L23.071 21.9397L23.4567 22.3254H23.3246V22.3251ZM22.5983 22.7167L22.6384 22.764L22.6655 22.7167H22.8055L22.6234 22.9137C22.6041 22.8496 22.5887 22.7844 22.579 22.7167H22.5983ZM22.8149 23.3126L23.068 22.8755L23.0018 22.8164L23.1133 22.7588L23.1273 22.7166H23.3054L23.2646 22.7386L23.2476 22.7972L23.3855 22.7879L23.2828 22.8905L23.1785 22.9126L23.1568 23.0166L22.8357 23.3377C22.8291 23.3289 22.8213 23.3214 22.8149 23.3126ZM23.7336 21.2113L23.6605 21.2L23.7171 21.4349L23.7337 21.4478V22.0484L23.4047 21.7194L23.6356 21.5946L23.427 21.2491C23.5242 21.2106 23.6272 21.1859 23.7337 21.1704L23.7336 21.2113ZM20.6438 22.7167L20.6398 22.7911L20.6234 22.8905C20.6172 22.8332 20.615 22.7747 20.6115 22.7166L20.6438 22.7167ZM20.8353 23.1815L21.0789 23.4263L21.2787 23.2872L21.7493 23.6821L22.2555 23.7711L22.3971 23.3729C22.4448 23.4582 22.4984 23.5386 22.5592 23.6146L22.1243 24.0495L22.1942 23.8712L21.9353 23.8291L22.0182 24.1332L22.0305 24.1434L21.4458 24.728C21.0648 24.2997 20.7899 23.7751 20.6701 23.193L20.8353 23.1815ZM22.8357 23.8912C23.0885 24.0933 23.3954 24.2249 23.7336 24.2628V24.7156L23.7292 24.7262L23.7336 24.7248V25.0635L23.6196 25.0863L23.5535 25.5113L23.7336 25.4904V25.6252L23.4484 25.704L23.3534 25.7956C22.7337 25.6867 22.1739 25.4066 21.7224 25.0049L22.8357 23.8912ZM26.1378 25.5063L26.4251 25.5673L26.7076 25.576L26.863 25.7313L26.3883 25.7141L26.0825 25.5478C26.1013 25.5343 26.1193 25.5201 26.1378 25.5063ZM26.4131 24.7278L26.3274 24.6421L26.5017 24.6288C26.4737 24.6631 26.4425 24.6946 26.4131 24.7278ZM26.862 20.9511C26.7288 20.953 26.5997 20.9549 26.5882 20.9549C26.5636 20.9549 26.3718 21.1188 26.3718 21.1188L26.2252 21.3087L26.181 21.077L26.2849 20.8404L26.2048 20.7671L25.846 20.9955L25.7698 20.957L26.0501 20.6767L26.1118 20.6971L26.2905 20.6551L26.1997 20.5273L26.413 20.3139C26.5857 20.5082 26.7381 20.7206 26.862 20.9511ZM25.8122 20.3612L25.7951 20.3064L25.6788 20.3247L25.6066 20.4645L25.2874 20.4959C25.3107 20.5427 25.4101 20.7367 25.4191 20.7542L25.023 21.1502C24.9388 21.0829 24.8489 21.0241 24.7531 20.9729L24.8021 20.9465L24.7439 20.7498L24.7043 20.6773L24.5276 20.8705C24.3997 20.8239 24.265 20.7944 24.1253 20.7786V19.2029C24.8952 19.248 25.5943 19.5546 26.1365 20.037L25.8122 20.3612ZM23.7336 20.7789C23.6072 20.7932 23.4855 20.8195 23.3686 20.8591L23.4272 20.723L23.1219 20.963L23.1224 20.964C23.0203 21.0171 22.925 21.0792 22.8357 21.1506L21.7224 20.0372C22.2645 19.5549 22.9636 19.2482 23.7336 19.2032V20.7789ZM22.4961 21.3646L21.9698 21.4566L21.9882 21.2567L21.5519 21.1061L20.8543 21.252C20.9979 20.9054 21.1999 20.5901 21.4454 20.3139L22.4961 21.3646ZM20.8066 21.3821L21.0257 21.4279L20.7631 21.5006C20.7761 21.4603 20.7921 21.4217 20.8066 21.3821ZM20.2199 22.3251H20.186L20.2216 22.2922C20.221 22.3032 20.2206 22.3141 20.2199 22.3251ZM20.6374 26.0896L21.4456 25.2814C21.8867 25.6786 22.4218 25.9711 23.0146 26.1217L22.7363 26.3899L23.3354 27.1816L23.7336 27.2037V27.7964C22.688 27.7579 21.7194 27.4178 20.9136 26.8555L21.043 26.7715L20.6374 26.0896ZM24.125 27.2251L24.6298 27.2529L24.6427 27.3687L24.9498 27.7052C24.6819 27.7579 24.4057 27.786 24.125 27.7963V27.2251ZM27.3319 26.2001L27.5199 26.3881C27.43 26.4715 27.3396 26.5543 27.2441 26.6316L27.3319 26.2001ZM27.5198 18.6537L27.4051 18.7683L27.2692 18.4713L27.0221 18.3399C27.0221 18.3399 26.7919 18.1368 26.6721 18.0118C26.9764 18.1976 27.26 18.4123 27.5198 18.6537ZM26.6188 17.9792L26.7918 18.5844L27.1959 18.9362L27.2116 18.9619L26.413 19.7605C25.7993 19.2077 25.0028 18.8576 24.125 18.8117V17.2457C25.0337 17.2791 25.8828 17.5418 26.6188 17.9792ZM23.7336 18.8117C22.8558 18.8577 22.0594 19.2077 21.4456 19.7605L20.3388 18.6537C21.2377 17.8186 22.4245 17.2939 23.7336 17.2457V18.8117ZM21.1688 20.0372C20.7493 20.503 20.4451 21.0731 20.3029 21.7054L19.9588 22.3251H18.6539C18.7022 21.016 19.2268 19.8292 20.0619 18.9304L21.1688 20.0372ZM19.7702 22.7167L19.3984 23.5158L18.8725 23.3202L18.7738 23.6702C18.7049 23.3616 18.666 23.0427 18.654 22.7165H19.7701L19.7702 22.7167ZM19.3783 26.6806L19.439 26.7344L18.6786 27.4948C18.1536 26.9408 17.7173 26.3045 17.3869 25.6069L17.5891 25.7251L18.9379 26.9251L19.3783 26.6806ZM19.7323 26.9944L19.9165 27.1576L20.5137 27.0442C21.4164 27.7275 22.5266 28.1462 23.7336 28.1878V29.7538C21.8848 29.704 20.2095 28.9605 18.9553 27.7717L19.7323 26.9944ZM24.125 28.1877C24.4568 28.1763 24.7826 28.1417 25.0976 28.0755L25.134 28.3167L26.067 29.0047L27.1176 28.4219L27.4192 27.7861L27.3994 27.3927L27.5978 26.9273L27.5494 26.8894C27.6352 26.8183 27.7151 26.7407 27.7964 26.6648L27.977 26.8452L28.0319 27.1861L28.2369 27.105L28.9035 27.7716C27.6492 28.9605 25.9738 29.7039 24.1252 29.7537V28.1877H24.125ZM28.3303 26.645L28.2929 26.1993L28.2428 26.2016C29.0508 25.256 29.5506 24.0439 29.5961 22.7166H31.1621C31.1124 24.5653 30.3689 26.2405 29.1803 27.4948L28.3303 26.645ZM29.596 22.3251C29.5621 21.3373 29.2757 20.4147 28.7978 19.6165L29.4634 20.2391L29.9975 19.7804L29.1777 18.5447L28.6367 18.1287L28.6381 18.0888L29.1801 17.5469C30.3688 18.8012 31.1122 20.4765 31.162 22.325H29.596V22.3251ZM23.7336 16.8542C22.3166 16.9028 21.0322 17.4712 20.0622 18.377L18.9553 17.2702C20.2095 16.0814 21.8849 15.3379 23.7336 15.2882V16.8542ZM19.7853 18.6539C18.8796 19.6239 18.3113 20.9082 18.2625 22.3251H16.6965C16.7463 20.4765 17.4898 18.8012 18.6784 17.547L19.7853 18.6539ZM18.2625 22.7167C18.2825 23.2987 18.3896 23.8578 18.5728 24.3829L18.5137 24.5926L16.9837 24.559C16.8111 23.9721 16.7138 23.3546 16.6966 22.7168L18.2625 22.7167Z" fill="white"/>
<path d="M18.6554 31.5905L20.0688 31.3617C20.1951 31.3413 20.2476 31.1886 20.16 31.0953C19.8201 30.7321 19.1444 29.9798 18.7532 29.3395C18.2149 28.4586 17.2671 27.7325 17.2671 27.7325C17.2671 27.7325 17.4483 30.1551 19.2752 30.9871C19.2752 30.9871 17.4645 30.5302 16.3063 30.2204C15.1481 29.9104 14.8312 29.5694 14.8312 29.5694C14.8312 29.5694 15.7356 31.8842 18.6554 31.5905Z" fill="white"/>
<path d="M17.2526 28.8827C17.2037 28.2791 16.7625 26.736 15.9309 25.4604C15.9309 25.4604 15.932 28.5605 17.0327 29.6106C17.0327 29.6106 15.4746 28.116 14.5448 27.4308C13.6742 26.7895 13.2887 26.0606 13.2887 26.0606C13.2887 26.0606 13.5226 28.0196 14.7894 28.9967C15.6458 29.6574 17.5462 30.1223 17.5462 30.1223C17.5462 30.1223 17.3016 29.4862 17.2526 28.8827Z" fill="white"/>
<path d="M14.2672 26.5663L15.2191 27.3896C15.3184 27.4755 15.4731 27.4077 15.4752 27.2764C15.4803 26.9453 15.5006 26.4427 15.5722 26.1258C15.6864 25.6201 15.8276 23.9781 15.2513 22.7846C15.2513 22.7846 14.5546 24.9236 15.0991 26.7049C15.0991 26.7049 14.2439 25.3451 13.37 24.3151C12.9133 23.7768 12.7324 23.1421 12.7324 23.1421C12.7324 23.1421 12.7175 25.2777 14.2672 26.5663Z" fill="white"/>
<path d="M14.0061 24.4592C14.0808 24.5598 14.2356 24.5385 14.2782 24.4209C14.4034 24.0756 14.6462 23.4547 14.9688 22.8635C15.556 21.7869 15.2851 20.5198 15.2851 20.5198C15.2851 20.5198 14.3423 22.1357 14.0691 23.9315C14.0512 23.8515 14.0317 23.7659 14.0084 23.6681C13.7496 22.5804 12.7432 19.8673 12.7432 19.8673C12.7432 19.8673 12.3892 21.3572 12.8316 22.5373C13.059 23.1428 13.6942 24.0383 14.0061 24.4592Z" fill="white"/>
<path d="M13.8121 22.0771C13.8406 22.1853 13.9921 22.1881 14.0244 22.0808C14.1145 21.7818 14.3018 21.3695 14.6916 20.9711C15.4257 20.2208 15.9823 19.1791 16.2667 18.2481C16.2667 18.2481 14.7005 19.5048 14.2066 20.3521C14.2066 20.3521 14.2555 19.1869 14.088 18.3448C13.9452 17.627 14.2486 16.9355 14.2486 16.9355C14.2486 16.9355 13.2561 17.8881 13.4028 19.6335C13.4953 20.7318 13.6846 21.5909 13.8121 22.0771Z" fill="white"/>
<path d="M14.8039 19.0853C15.101 18.813 15.6213 18.349 16.123 18.0676C16.7891 17.6939 17.3159 16.4884 17.432 16.2202C17.432 16.2202 15.5761 17.7391 15.0708 18.2266C15.0708 18.2266 15.3767 16.8686 15.5725 16.2814C15.7682 15.6941 15.7438 15.4983 15.9151 15.2537C15.9151 15.2537 15.022 16.0367 14.7772 16.6606C14.5761 17.1734 14.6146 18.339 14.5873 18.9825C14.5822 19.0991 14.718 19.1641 14.8039 19.0853Z" fill="white"/>
<path d="M16.6815 16.3549C17.2035 15.9307 18.0354 14.691 18.0354 14.691C17.8293 14.8087 16.9914 15.0988 16.2901 15.8165C15.5886 16.5343 15.4418 17.5129 15.4418 17.5129C15.4418 17.5129 16.1595 16.779 16.6815 16.3549Z" fill="white"/>
<path d="M28.5348 31.9493C27.0014 31.6475 25.6883 31.4273 24.1491 31.8277C24.0733 31.8474 24.0024 31.8701 23.9295 31.8915C23.8565 31.8702 23.7857 31.8475 23.7099 31.8277C22.1708 31.4274 20.8576 31.6475 19.3242 31.9493C17.9422 32.2213 16.6189 31.986 16.6189 31.986C16.6189 31.986 17.5789 32.9608 19.7648 32.9608C20.7184 32.9608 21.9168 32.1581 22.673 32.1153C22.8592 32.1047 23.0431 32.1161 23.2253 32.1364C21.6015 32.7988 20.852 33.8033 20.8373 33.8227C20.7721 33.9087 20.7889 34.0315 20.8749 34.0964C20.9103 34.1235 20.9518 34.1366 20.9931 34.1366C21.0521 34.1366 21.1106 34.1097 21.1491 34.0593C21.2088 33.9808 22.4082 32.74 23.9295 32.2815C25.4508 32.74 26.6503 33.9807 26.7099 34.0593C26.7483 34.1098 26.8069 34.1366 26.8659 34.1366C26.9072 34.1366 26.9487 34.1235 26.9841 34.0964C27.0701 34.0315 27.0869 33.9086 27.0217 33.8227C27.007 33.8033 26.2575 32.7988 24.6337 32.1364C24.8159 32.1162 24.9998 32.1048 25.186 32.1153C25.9422 32.1581 27.1407 32.9608 28.0942 32.9608C30.2801 32.9608 31.2401 31.986 31.2401 31.986C31.2401 31.986 29.9168 32.2213 28.5348 31.9493Z" fill="white"/>
<path d="M28.5837 30.9871C30.4107 30.1551 30.5918 27.7325 30.5918 27.7325C30.5918 27.7325 29.6439 28.4586 29.1057 29.3395C28.7145 29.9797 28.0387 30.7321 27.6989 31.0952C27.6115 31.1886 27.6638 31.3412 27.7901 31.3617L29.2035 31.5905C32.1234 31.8841 33.0276 29.5693 33.0276 29.5693C33.0276 29.5693 32.7106 29.9104 31.5525 30.2203C30.3943 30.5302 28.5837 30.9871 28.5837 30.9871Z" fill="white"/>
<path d="M33.3139 27.4309C32.3841 28.1161 30.826 29.6107 30.826 29.6107C31.9268 28.5606 31.9277 25.4605 31.9277 25.4605C31.0962 26.7361 30.655 28.2793 30.606 28.8828C30.5571 29.4864 30.3124 30.1226 30.3124 30.1226C30.3124 30.1226 32.2127 29.6577 33.0692 28.997C34.3361 28.0198 34.57 26.0609 34.57 26.0609C34.57 26.0609 34.1845 26.7894 33.3139 27.4309Z" fill="white"/>
<path d="M32.7597 26.705C33.3041 24.9237 32.6075 22.7847 32.6075 22.7847C32.0312 23.9783 32.1724 25.6204 32.2866 26.1259C32.3582 26.4428 32.3785 26.9453 32.3836 27.2765C32.3857 27.4078 32.5404 27.4756 32.6397 27.3897L33.5916 26.5664C35.1413 25.2777 35.1264 23.1424 35.1264 23.1424C35.1264 23.1424 34.9456 23.777 34.4888 24.3154C33.6149 25.3451 32.7597 26.705 32.7597 26.705Z" fill="white"/>
<path d="M33.7896 23.9315C33.5163 22.1358 32.5736 20.5198 32.5736 20.5198C32.5736 20.5198 32.3028 21.7869 32.8899 22.8635C33.2123 23.4547 33.4552 24.0756 33.5805 24.4209C33.6231 24.5387 33.7779 24.5598 33.8525 24.4593C34.1645 24.0383 34.7997 23.1429 35.0269 22.5372C35.4693 21.3572 35.1153 19.8672 35.1153 19.8672C35.1153 19.8672 34.1089 22.5803 33.8501 23.668C33.8269 23.7659 33.8074 23.8514 33.7896 23.9315Z" fill="white"/>
<path d="M33.7707 18.3449C33.6033 19.1869 33.652 20.3522 33.652 20.3522C33.1581 19.5048 31.5919 18.2482 31.5919 18.2482C31.8764 19.1792 32.433 20.2208 33.167 20.9712C33.5569 21.3695 33.7442 21.7818 33.8343 22.0809C33.8665 22.1881 34.0181 22.1853 34.0465 22.0771C34.1742 21.591 34.3634 20.7317 34.4557 19.6336C34.6025 17.8881 33.61 16.9356 33.61 16.9356C33.61 16.9356 33.9135 17.6272 33.7707 18.3449Z" fill="white"/>
<path d="M32.7881 18.2267C32.2829 17.7391 30.4269 16.2203 30.4269 16.2203C30.5432 16.4885 31.0699 17.6941 31.736 18.0677C32.2376 18.349 32.7579 18.813 33.055 19.0854C33.1409 19.1642 33.2767 19.0992 33.2718 18.9827C33.2444 18.3393 33.2829 17.1736 33.0818 16.6608C32.8371 16.0368 31.944 15.2538 31.944 15.2538C32.1153 15.4985 32.0908 15.6943 32.2866 16.2815C32.4822 16.8687 32.7881 18.2267 32.7881 18.2267Z" fill="white"/>
<path d="M31.1772 16.3549C31.6992 16.779 32.417 17.5129 32.417 17.5129C32.417 17.5129 32.2701 16.5342 31.5687 15.8165C30.8674 15.0988 30.0294 14.8087 29.8234 14.691C29.8234 14.691 30.6552 15.9307 31.1772 16.3549Z" fill="white"/>
<path d="M27.9791 20.3897L27.6463 20.6088L28.0013 20.6643L28.3891 21.0932L28.6063 20.9534L28.3458 20.4206L27.9791 20.3897Z" fill="white"/>
<path d="M28.504 22.2168L28.6272 22.264L28.9392 21.426L28.8535 21.3097L28.7189 21.377L28.5049 22.1356L28.504 22.2168Z" fill="white"/>
<path d="M25.3729 20.7959L25.275 20.6919L25.0548 20.9732L25.1095 21.0584L25.3729 20.7959Z" fill="white"/>
<path d="M27.6271 20.1414L27.6866 19.95L27.4896 19.9899L27.434 20.0057L27.3755 20.0839L27.5885 20.3308L27.6747 20.2574L27.6271 20.1414Z" fill="white"/>
<path d="M23.6723 24.6252L23.6754 24.5061L23.5255 24.7231L23.5684 24.7964L23.6723 24.6252Z" fill="white"/>
</svg>
