<svg width="48" height="48" viewBox="0 0 48 48" fill="none" xmlns="http://www.w3.org/2000/svg">
<path d="M47.1723 39.7243H0.827623C0.370593 39.7243 0 39.3537 0 38.8967V9.10362C0 8.64659 0.370593 8.276 0.827623 8.276H47.1724C47.6294 8.276 48 8.64659 48 9.10362V38.8967C47.9999 39.3538 47.6293 39.7243 47.1723 39.7243Z" fill="white"/>
<path d="M47.9999 10.6952H0V9.10362C0 8.64659 0.370593 8.276 0.827623 8.276H47.1724C47.6294 8.276 48 8.64659 48 9.10362L47.9999 10.6952Z" fill="#FF4B55"/>
<path d="M47.9999 17.9525H0V20.3716H47.9999V17.9525Z" fill="#FF4B55"/>
<path d="M47.9999 13.114H0V15.5331H47.9999V13.114Z" fill="#FF4B55"/>
<path d="M47.9999 25.21H0.827623C0.370593 25.21 0 24.8394 0 24.3824V22.7908H47.9999V25.21Z" fill="#FF4B55"/>
<path d="M47.9999 32.4678H0V34.8869H47.9999V32.4678Z" fill="#FF4B55"/>
<path d="M47.1723 39.7242H0.827623C0.370593 39.7242 0 39.3536 0 38.8966V37.3051H47.9999V38.8967C47.9999 39.3537 47.6293 39.7242 47.1723 39.7242Z" fill="#FF4B55"/>
<path d="M47.9999 27.6292H0V30.0483H47.9999V27.6292Z" fill="#FF4B55"/>
<path d="M21.5172 8.27606H0.827623C0.370593 8.27606 0 8.64656 0 9.10359V24.382C0 24.839 0.370593 25.2096 0.827623 25.2096H21.5173C21.9743 25.2096 22.3449 24.839 22.3449 24.382V9.10359C22.3448 8.64656 21.9742 8.27606 21.5172 8.27606Z" fill="#41479B"/>
<path d="M2.32415 10.1755L2.50733 10.7249L3.08642 10.7293C3.16142 10.73 3.19246 10.8256 3.13217 10.8701L2.66633 11.2142L2.84108 11.7663C2.86377 11.8377 2.7823 11.897 2.72127 11.8533L2.25018 11.5166L1.77908 11.8534C1.71805 11.897 1.63677 11.8378 1.65927 11.7664L1.83402 11.2143L1.36818 10.8702C1.3079 10.8256 1.33893 10.7301 1.41393 10.7294L1.99302 10.725L2.17621 10.1756C2.19983 10.1044 2.30033 10.1044 2.32415 10.1755Z" fill="white"/>
<path d="M2.32415 13.0493L2.50733 13.5987L3.08642 13.6031C3.16142 13.6038 3.19246 13.6994 3.13217 13.7439L2.66633 14.088L2.84108 14.6401C2.86377 14.7115 2.7823 14.7708 2.72127 14.7271L2.25018 14.3904L1.77908 14.7272C1.71805 14.7708 1.63677 14.7116 1.65927 14.6402L1.83402 14.0881L1.36818 13.744C1.3079 13.6994 1.33893 13.6038 1.41393 13.6032L1.99302 13.5988L2.17621 13.0494C2.19983 12.9783 2.30033 12.9783 2.32415 13.0493Z" fill="white"/>
<path d="M2.32415 15.9229L2.50733 16.4722L3.08642 16.4766C3.16142 16.4773 3.19246 16.5729 3.13217 16.6174L2.66633 16.9615L2.84108 17.5136C2.86377 17.585 2.7823 17.6443 2.72127 17.6006L2.25018 17.264L1.77908 17.6007C1.71805 17.6443 1.63677 17.5851 1.65927 17.5137L1.83402 16.9616L1.36818 16.6175C1.3079 16.5729 1.33893 16.4774 1.41393 16.4767L1.99302 16.4723L2.17621 15.9229C2.19983 15.8518 2.30033 15.8518 2.32415 15.9229Z" fill="white"/>
<path d="M2.32415 18.7972L2.50733 19.3466L3.08642 19.351C3.16142 19.3516 3.19246 19.4473 3.13217 19.4918L2.66633 19.8358L2.84108 20.3879C2.86377 20.4594 2.7823 20.5186 2.72127 20.4749L2.25018 20.1383L1.77908 20.475C1.71805 20.5186 1.63677 20.4595 1.65927 20.388L1.83402 19.8359L1.36818 19.4919C1.3079 19.4473 1.33893 19.3517 1.41393 19.3511L1.99302 19.3467L2.17621 18.7973C2.19983 18.726 2.30033 18.726 2.32415 18.7972Z" fill="white"/>
<path d="M2.32415 21.6709L2.50733 22.2203L3.08642 22.2247C3.16142 22.2254 3.19246 22.321 3.13217 22.3655L2.66633 22.7096L2.84108 23.2617C2.86377 23.3331 2.7823 23.3924 2.72127 23.3487L2.25018 23.012L1.77908 23.3488C1.71805 23.3924 1.63677 23.3332 1.65927 23.2618L1.83402 22.7097L1.36818 22.3656C1.3079 22.321 1.33893 22.2255 1.41393 22.2248L1.99302 22.2204L2.17621 21.671C2.19983 21.5997 2.30033 21.5997 2.32415 21.6709Z" fill="white"/>
<path d="M4.55477 11.5844L4.73795 12.1337L5.31705 12.1381C5.39205 12.1388 5.42308 12.2344 5.3628 12.279L4.89695 12.623L5.0717 13.1751C5.09439 13.2465 5.01292 13.3058 4.95189 13.2621L4.4808 12.9254L4.00971 13.2621C3.94868 13.3057 3.86739 13.2465 3.88989 13.1751L4.06464 12.623L3.5988 12.279C3.53852 12.2343 3.56955 12.1388 3.64455 12.1381L4.22364 12.1337L4.40683 11.5844C4.43036 11.5133 4.53105 11.5133 4.55477 11.5844Z" fill="white"/>
<path d="M4.55477 14.4582L4.73795 15.0076L5.31705 15.012C5.39205 15.0126 5.42308 15.1083 5.3628 15.1528L4.89695 15.4969L5.0717 16.0489C5.09439 16.1204 5.01292 16.1796 4.95189 16.1359L4.4808 15.7992L4.00971 16.1359C3.94868 16.1795 3.86739 16.1205 3.88989 16.0489L4.06464 15.4969L3.5988 15.1528C3.53852 15.1082 3.56955 15.0126 3.64455 15.012L4.22364 15.0076L4.40683 14.4582C4.43036 14.3871 4.53105 14.3871 4.55477 14.4582Z" fill="white"/>
<path d="M4.55477 17.3322L4.73795 17.8816L5.31705 17.886C5.39205 17.8867 5.42308 17.9823 5.3628 18.0268L4.89695 18.3709L5.0717 18.923C5.09439 18.9944 5.01292 19.0537 4.95189 19.01L4.4808 18.6732L4.00971 19.01C3.94868 19.0536 3.86739 18.9944 3.88989 18.923L4.06464 18.3709L3.5988 18.0268C3.53852 17.9822 3.56955 17.8867 3.64455 17.886L4.22364 17.8816L4.40683 17.3322C4.43036 17.2611 4.53105 17.2611 4.55477 17.3322Z" fill="white"/>
<path d="M4.55477 20.206L4.73795 20.7554L5.31705 20.7598C5.39205 20.7604 5.42308 20.8561 5.3628 20.9006L4.89695 21.2447L5.0717 21.7968C5.09439 21.8682 5.01292 21.9274 4.95189 21.8838L4.4808 21.547L4.00971 21.8838C3.94868 21.9273 3.86739 21.8682 3.88989 21.7968L4.06464 21.2447L3.5988 20.9006C3.53852 20.856 3.56955 20.7604 3.64455 20.7598L4.22364 20.7554L4.40683 20.206C4.43036 20.1349 4.53105 20.1349 4.55477 20.206Z" fill="white"/>
<path d="M6.78539 10.1754L6.96858 10.7248L7.54767 10.7292C7.62267 10.7299 7.65371 10.8255 7.59342 10.87L7.12758 11.2141L7.30233 11.7662C7.32502 11.8376 7.24355 11.8969 7.18252 11.8532L6.71142 11.5164L6.24033 11.8532C6.1793 11.8968 6.09802 11.8376 6.12052 11.7662L6.29527 11.2141L5.82942 10.87C5.76914 10.8254 5.80017 10.7299 5.87517 10.7292L6.45427 10.7248L6.63745 10.1754C6.66108 10.1043 6.76167 10.1043 6.78539 10.1754Z" fill="white"/>
<path d="M6.78539 13.0492L6.96858 13.5986L7.54767 13.603C7.62267 13.6036 7.65371 13.6993 7.59342 13.7438L7.12758 14.0879L7.30233 14.64C7.32502 14.7114 7.24355 14.7706 7.18252 14.727L6.71142 14.3902L6.24033 14.727C6.1793 14.7705 6.09802 14.7114 6.12052 14.64L6.29527 14.0879L5.82942 13.7438C5.76914 13.6992 5.80017 13.6036 5.87517 13.603L6.45427 13.5986L6.63745 13.0492C6.66108 12.9781 6.76167 12.9781 6.78539 13.0492Z" fill="white"/>
<path d="M6.78539 15.9232L6.96858 16.4725L7.54767 16.477C7.62267 16.4776 7.65371 16.5732 7.59342 16.6178L7.12758 16.9618L7.30233 17.5139C7.32502 17.5854 7.24355 17.6446 7.18252 17.6009L6.71142 17.2642L6.24033 17.6009C6.1793 17.6445 6.09802 17.5854 6.12052 17.5139L6.29527 16.9618L5.82942 16.6178C5.76914 16.5731 5.80017 16.4776 5.87517 16.477L6.45427 16.4725L6.63745 15.9232C6.66108 15.8521 6.76167 15.8521 6.78539 15.9232Z" fill="white"/>
<path d="M6.78539 18.7971L6.96858 19.3465L7.54767 19.3509C7.62267 19.3515 7.65371 19.4471 7.59342 19.4917L7.12758 19.8357L7.30233 20.3878C7.32502 20.4593 7.24355 20.5185 7.18252 20.4748L6.71142 20.1381L6.24033 20.4748C6.1793 20.5184 6.09802 20.4593 6.12052 20.3878L6.29527 19.8357L5.82942 19.4917C5.76914 19.447 5.80017 19.3515 5.87517 19.3509L6.45427 19.3465L6.63745 18.7971C6.66108 18.7259 6.76167 18.7259 6.78539 18.7971Z" fill="white"/>
<path d="M6.78539 21.6708L6.96858 22.2202L7.54767 22.2246C7.62267 22.2252 7.65371 22.3209 7.59342 22.3654L7.12758 22.7095L7.30233 23.2616C7.32502 23.333 7.24355 23.3922 7.18252 23.3486L6.71142 23.0118L6.24033 23.3486C6.1793 23.3922 6.09802 23.333 6.12052 23.2616L6.29527 22.7095L5.82942 22.3654C5.76914 22.3208 5.80017 22.2252 5.87517 22.2246L6.45427 22.2202L6.63745 21.6708C6.66108 21.5996 6.76167 21.5996 6.78539 21.6708Z" fill="white"/>
<path d="M9.01613 11.5844L9.19932 12.1337L9.77841 12.1381C9.85341 12.1388 9.88444 12.2344 9.82416 12.279L9.35832 12.623L9.53307 13.1751C9.55576 13.2465 9.47429 13.3058 9.41326 13.2621L8.94216 12.9254L8.47107 13.2621C8.41004 13.3057 8.32876 13.2465 8.35126 13.1751L8.52601 12.623L8.06017 12.279C7.99988 12.2343 8.03092 12.1388 8.10592 12.1381L8.68501 12.1337L8.8682 11.5844C8.89173 11.5133 8.99241 11.5133 9.01613 11.5844Z" fill="white"/>
<path d="M9.01613 14.4582L9.19932 15.0076L9.77841 15.012C9.85341 15.0126 9.88444 15.1083 9.82416 15.1528L9.35832 15.4969L9.53307 16.0489C9.55576 16.1204 9.47429 16.1796 9.41326 16.1359L8.94216 15.7992L8.47107 16.1359C8.41004 16.1795 8.32876 16.1205 8.35126 16.0489L8.52601 15.4969L8.06017 15.1528C7.99988 15.1082 8.03092 15.0126 8.10592 15.012L8.68501 15.0076L8.8682 14.4582C8.89173 14.3871 8.99241 14.3871 9.01613 14.4582Z" fill="white"/>
<path d="M9.01613 17.3322L9.19932 17.8816L9.77841 17.886C9.85341 17.8867 9.88444 17.9823 9.82416 18.0268L9.35832 18.3709L9.53307 18.923C9.55576 18.9944 9.47429 19.0537 9.41326 19.01L8.94216 18.6732L8.47107 19.01C8.41004 19.0536 8.32876 18.9944 8.35126 18.923L8.52601 18.3709L8.06017 18.0268C7.99988 17.9822 8.03092 17.8867 8.10592 17.886L8.68501 17.8816L8.8682 17.3322C8.89173 17.2611 8.99241 17.2611 9.01613 17.3322Z" fill="white"/>
<path d="M9.01613 20.206L9.19932 20.7554L9.77841 20.7598C9.85341 20.7604 9.88444 20.8561 9.82416 20.9006L9.35832 21.2447L9.53307 21.7968C9.55576 21.8682 9.47429 21.9274 9.41326 21.8838L8.94216 21.547L8.47107 21.8838C8.41004 21.9273 8.32876 21.8682 8.35126 21.7968L8.52601 21.2447L8.06017 20.9006C7.99988 20.856 8.03092 20.7604 8.10592 20.7598L8.68501 20.7554L8.8682 20.206C8.89173 20.1349 8.99241 20.1349 9.01613 20.206Z" fill="white"/>
<path d="M11.2467 10.1754L11.4299 10.7248L12.009 10.7292C12.084 10.7299 12.115 10.8255 12.0548 10.87L11.5889 11.2141L11.7637 11.7662C11.7864 11.8376 11.7049 11.8969 11.6439 11.8532L11.1727 11.5164L10.7016 11.8532C10.6405 11.8968 10.5593 11.8376 10.5818 11.7662L10.7565 11.2141L10.2907 10.87C10.2304 10.8254 10.2614 10.7299 10.3364 10.7292L10.9155 10.7248L11.0987 10.1754C11.1224 10.1043 11.223 10.1043 11.2467 10.1754Z" fill="white"/>
<path d="M11.2467 13.0492L11.4299 13.5986L12.009 13.603C12.084 13.6036 12.115 13.6993 12.0548 13.7438L11.5889 14.0879L11.7637 14.64C11.7864 14.7114 11.7049 14.7706 11.6439 14.727L11.1727 14.3902L10.7016 14.727C10.6405 14.7705 10.5593 14.7114 10.5818 14.64L10.7565 14.0879L10.2907 13.7438C10.2304 13.6992 10.2614 13.6036 10.3364 13.603L10.9155 13.5986L11.0987 13.0492C11.1224 12.9781 11.223 12.9781 11.2467 13.0492Z" fill="white"/>
<path d="M11.2467 15.9232L11.4299 16.4725L12.009 16.477C12.084 16.4776 12.115 16.5732 12.0548 16.6178L11.5889 16.9618L11.7637 17.5139C11.7864 17.5854 11.7049 17.6446 11.6439 17.6009L11.1727 17.2642L10.7016 17.6009C10.6405 17.6445 10.5593 17.5854 10.5818 17.5139L10.7565 16.9618L10.2907 16.6178C10.2304 16.5731 10.2614 16.4776 10.3364 16.477L10.9155 16.4725L11.0987 15.9232C11.1224 15.8521 11.223 15.8521 11.2467 15.9232Z" fill="white"/>
<path d="M11.2467 18.7971L11.4299 19.3465L12.009 19.3509C12.084 19.3515 12.115 19.4471 12.0548 19.4917L11.5889 19.8357L11.7637 20.3878C11.7864 20.4593 11.7049 20.5185 11.6439 20.4748L11.1727 20.1381L10.7016 20.4748C10.6405 20.5184 10.5593 20.4593 10.5818 20.3878L10.7565 19.8357L10.2907 19.4917C10.2304 19.447 10.2614 19.3515 10.3364 19.3509L10.9155 19.3465L11.0987 18.7971C11.1224 18.7259 11.223 18.7259 11.2467 18.7971Z" fill="white"/>
<path d="M11.2467 21.6708L11.4299 22.2202L12.009 22.2246C12.084 22.2252 12.115 22.3209 12.0548 22.3654L11.5889 22.7095L11.7637 23.2616C11.7864 23.333 11.7049 23.3922 11.6439 23.3486L11.1727 23.0118L10.7016 23.3486C10.6405 23.3922 10.5593 23.333 10.5818 23.2616L10.7565 22.7095L10.2907 22.3654C10.2304 22.3208 10.2614 22.2252 10.3364 22.2246L10.9155 22.2202L11.0987 21.6708C11.1224 21.5996 11.223 21.5996 11.2467 21.6708Z" fill="white"/>
<path d="M13.4773 11.5844L13.6605 12.1337L14.2396 12.1381C14.3146 12.1388 14.3457 12.2344 14.2854 12.279L13.8195 12.623L13.9943 13.1751C14.017 13.2465 13.9355 13.3058 13.8745 13.2621L13.4034 12.9254L12.9323 13.2621C12.8713 13.3057 12.79 13.2465 12.8125 13.1751L12.9872 12.623L12.5214 12.279C12.4611 12.2343 12.4921 12.1388 12.5671 12.1381L13.1462 12.1337L13.3294 11.5844C13.3531 11.5133 13.4536 11.5133 13.4773 11.5844Z" fill="white"/>
<path d="M13.4773 14.4582L13.6605 15.0076L14.2396 15.012C14.3146 15.0126 14.3457 15.1083 14.2854 15.1528L13.8195 15.4969L13.9943 16.0489C14.017 16.1204 13.9355 16.1796 13.8745 16.1359L13.4034 15.7992L12.9323 16.1359C12.8713 16.1795 12.79 16.1205 12.8125 16.0489L12.9872 15.4969L12.5214 15.1528C12.4611 15.1082 12.4921 15.0126 12.5671 15.012L13.1462 15.0076L13.3294 14.4582C13.3531 14.3871 13.4536 14.3871 13.4773 14.4582Z" fill="white"/>
<path d="M13.4773 17.3322L13.6605 17.8816L14.2396 17.886C14.3146 17.8867 14.3457 17.9823 14.2854 18.0268L13.8195 18.3709L13.9943 18.923C14.017 18.9944 13.9355 19.0537 13.8745 19.01L13.4034 18.6732L12.9323 19.01C12.8713 19.0536 12.79 18.9944 12.8125 18.923L12.9872 18.3709L12.5214 18.0268C12.4611 17.9822 12.4921 17.8867 12.5671 17.886L13.1462 17.8816L13.3294 17.3322C13.3531 17.2611 13.4536 17.2611 13.4773 17.3322Z" fill="white"/>
<path d="M13.4773 20.206L13.6605 20.7554L14.2396 20.7598C14.3146 20.7604 14.3457 20.8561 14.2854 20.9006L13.8195 21.2447L13.9943 21.7968C14.017 21.8682 13.9355 21.9274 13.8745 21.8838L13.4034 21.547L12.9323 21.8838C12.8713 21.9273 12.79 21.8682 12.8125 21.7968L12.9872 21.2447L12.5214 20.9006C12.4611 20.856 12.4921 20.7604 12.5671 20.7598L13.1462 20.7554L13.3294 20.206C13.3531 20.1349 13.4536 20.1349 13.4773 20.206Z" fill="white"/>
<path d="M15.7077 10.1754L15.8909 10.7248L16.4699 10.7292C16.5449 10.7299 16.576 10.8255 16.5157 10.87L16.0499 11.2141L16.2246 11.7662C16.2473 11.8376 16.1658 11.8969 16.1048 11.8532L15.6337 11.5164L15.1626 11.8532C15.1016 11.8968 15.0203 11.8376 15.0428 11.7662L15.2175 11.2141L14.7517 10.87C14.6914 10.8254 14.7224 10.7299 14.7974 10.7292L15.3765 10.7248L15.5597 10.1754C15.5833 10.1043 15.6839 10.1043 15.7077 10.1754Z" fill="white"/>
<path d="M15.7077 13.0492L15.8909 13.5986L16.4699 13.603C16.5449 13.6036 16.576 13.6993 16.5157 13.7438L16.0499 14.0879L16.2246 14.64C16.2473 14.7114 16.1658 14.7706 16.1048 14.727L15.6337 14.3902L15.1626 14.727C15.1016 14.7705 15.0203 14.7114 15.0428 14.64L15.2175 14.0879L14.7517 13.7438C14.6914 13.6992 14.7224 13.6036 14.7974 13.603L15.3765 13.5986L15.5597 13.0492C15.5833 12.9781 15.6839 12.9781 15.7077 13.0492Z" fill="white"/>
<path d="M15.7077 15.9232L15.8909 16.4725L16.4699 16.477C16.5449 16.4776 16.576 16.5732 16.5157 16.6178L16.0499 16.9618L16.2246 17.5139C16.2473 17.5854 16.1658 17.6446 16.1048 17.6009L15.6337 17.2642L15.1626 17.6009C15.1016 17.6445 15.0203 17.5854 15.0428 17.5139L15.2175 16.9618L14.7517 16.6178C14.6914 16.5731 14.7224 16.4776 14.7974 16.477L15.3765 16.4725L15.5597 15.9232C15.5833 15.8521 15.6839 15.8521 15.7077 15.9232Z" fill="white"/>
<path d="M15.7077 18.7971L15.8909 19.3465L16.4699 19.3509C16.5449 19.3515 16.576 19.4471 16.5157 19.4917L16.0499 19.8357L16.2246 20.3878C16.2473 20.4593 16.1658 20.5185 16.1048 20.4748L15.6337 20.1381L15.1626 20.4748C15.1016 20.5184 15.0203 20.4593 15.0428 20.3878L15.2175 19.8357L14.7517 19.4917C14.6914 19.447 14.7224 19.3515 14.7974 19.3509L15.3765 19.3465L15.5597 18.7971C15.5833 18.7259 15.6839 18.7259 15.7077 18.7971Z" fill="white"/>
<path d="M15.7077 21.6708L15.8909 22.2202L16.4699 22.2246C16.5449 22.2252 16.576 22.3209 16.5157 22.3654L16.0499 22.7095L16.2246 23.2616C16.2473 23.333 16.1658 23.3922 16.1048 23.3486L15.6337 23.0118L15.1626 23.3486C15.1016 23.3922 15.0203 23.333 15.0428 23.2616L15.2175 22.7095L14.7517 22.3654C14.6914 22.3208 14.7224 22.2252 14.7974 22.2246L15.3765 22.2202L15.5597 21.6708C15.5833 21.5996 15.6839 21.5996 15.7077 21.6708Z" fill="white"/>
<path d="M17.9383 11.5844L18.1215 12.1337L18.7006 12.1381C18.7756 12.1388 18.8066 12.2344 18.7463 12.279L18.2805 12.623L18.4552 13.1751C18.4779 13.2465 18.3964 13.3058 18.3354 13.2621L17.8643 12.9254L17.3932 13.2621C17.3322 13.3057 17.2509 13.2465 17.2734 13.1751L17.4482 12.623L16.9823 12.279C16.922 12.2343 16.9531 12.1388 17.0281 12.1381L17.6072 12.1337L17.7903 11.5844C17.814 11.5133 17.9147 11.5133 17.9383 11.5844Z" fill="white"/>
<path d="M17.9383 14.4582L18.1215 15.0076L18.7006 15.012C18.7756 15.0126 18.8066 15.1083 18.7463 15.1528L18.2805 15.4969L18.4552 16.0489C18.4779 16.1204 18.3964 16.1796 18.3354 16.1359L17.8643 15.7992L17.3932 16.1359C17.3322 16.1795 17.2509 16.1205 17.2734 16.0489L17.4482 15.4969L16.9823 15.1528C16.922 15.1082 16.9531 15.0126 17.0281 15.012L17.6072 15.0076L17.7903 14.4582C17.814 14.3871 17.9147 14.3871 17.9383 14.4582Z" fill="white"/>
<path d="M17.9383 17.3322L18.1215 17.8816L18.7006 17.886C18.7756 17.8867 18.8066 17.9823 18.7463 18.0268L18.2805 18.3709L18.4552 18.923C18.4779 18.9944 18.3964 19.0537 18.3354 19.01L17.8643 18.6732L17.3932 19.01C17.3322 19.0536 17.2509 18.9944 17.2734 18.923L17.4482 18.3709L16.9823 18.0268C16.922 17.9822 16.9531 17.8867 17.0281 17.886L17.6072 17.8816L17.7903 17.3322C17.814 17.2611 17.9147 17.2611 17.9383 17.3322Z" fill="white"/>
<path d="M17.9383 20.206L18.1215 20.7554L18.7006 20.7598C18.7756 20.7604 18.8066 20.8561 18.7463 20.9006L18.2805 21.2447L18.4552 21.7968C18.4779 21.8682 18.3964 21.9274 18.3354 21.8838L17.8643 21.547L17.3932 21.8838C17.3322 21.9273 17.2509 21.8682 17.2734 21.7968L17.4482 21.2447L16.9823 20.9006C16.922 20.856 16.9531 20.7604 17.0281 20.7598L17.6072 20.7554L17.7903 20.206C17.814 20.1349 17.9147 20.1349 17.9383 20.206Z" fill="white"/>
<path d="M20.169 10.1754L20.3522 10.7248L20.9313 10.7292C21.0063 10.7299 21.0373 10.8255 20.977 10.87L20.5112 11.2141L20.6859 11.7662C20.7086 11.8376 20.6272 11.8969 20.5661 11.8532L20.095 11.5164L19.6239 11.8532C19.5629 11.8968 19.4816 11.8376 19.5041 11.7662L19.6789 11.2141L19.213 10.87C19.1527 10.8254 19.1838 10.7299 19.2588 10.7292L19.8379 10.7248L20.0211 10.1754C20.0447 10.1043 20.1452 10.1043 20.169 10.1754Z" fill="white"/>
<path d="M20.169 13.0492L20.3522 13.5986L20.9313 13.603C21.0063 13.6036 21.0373 13.6993 20.977 13.7438L20.5112 14.0879L20.6859 14.64C20.7086 14.7114 20.6272 14.7706 20.5661 14.727L20.095 14.3902L19.6239 14.727C19.5629 14.7705 19.4816 14.7114 19.5041 14.64L19.6789 14.0879L19.213 13.7438C19.1527 13.6992 19.1838 13.6036 19.2588 13.603L19.8379 13.5986L20.0211 13.0492C20.0447 12.9781 20.1452 12.9781 20.169 13.0492Z" fill="white"/>
<path d="M20.169 15.9232L20.3522 16.4725L20.9313 16.477C21.0063 16.4776 21.0373 16.5732 20.977 16.6178L20.5112 16.9618L20.6859 17.5139C20.7086 17.5854 20.6272 17.6446 20.5661 17.6009L20.095 17.2642L19.6239 17.6009C19.5629 17.6445 19.4816 17.5854 19.5041 17.5139L19.6789 16.9618L19.213 16.6178C19.1527 16.5731 19.1838 16.4776 19.2588 16.477L19.8379 16.4725L20.0211 15.9232C20.0447 15.8521 20.1452 15.8521 20.169 15.9232Z" fill="white"/>
<path d="M20.169 18.7971L20.3522 19.3465L20.9313 19.3509C21.0063 19.3515 21.0373 19.4471 20.977 19.4917L20.5112 19.8357L20.6859 20.3878C20.7086 20.4593 20.6272 20.5185 20.5661 20.4748L20.095 20.1381L19.6239 20.4748C19.5629 20.5184 19.4816 20.4593 19.5041 20.3878L19.6789 19.8357L19.213 19.4917C19.1527 19.447 19.1838 19.3515 19.2588 19.3509L19.8379 19.3465L20.0211 18.7971C20.0447 18.7259 20.1452 18.7259 20.169 18.7971Z" fill="white"/>
<path d="M20.169 21.6708L20.3522 22.2202L20.9313 22.2246C21.0063 22.2252 21.0373 22.3209 20.977 22.3654L20.5112 22.7095L20.6859 23.2616C20.7086 23.333 20.6272 23.3922 20.5661 23.3486L20.095 23.0118L19.6239 23.3486C19.5629 23.3922 19.4816 23.333 19.5041 23.2616L19.6789 22.7095L19.213 22.3654C19.1527 22.3208 19.1838 22.2252 19.2588 22.2246L19.8379 22.2202L20.0211 21.6708C20.0447 21.5996 20.1452 21.5996 20.169 21.6708Z" fill="white"/>
</svg>
