<svg width="48" height="48" viewBox="0 0 48 48" fill="none" xmlns="http://www.w3.org/2000/svg">
<g clip-path="url(#clip0_11_2111)">
<path d="M47.1723 8.27585H0.827623C0.370593 8.27585 0 8.64635 0 9.10338V38.8964C0 39.3534 0.370593 39.724 0.827623 39.724H47.1724C47.6294 39.724 48 39.3534 48 38.8964V9.10338C47.9999 8.64635 47.6293 8.27585 47.1723 8.27585Z" fill="white"/>
<path d="M48 11.7703H17.3795V15.2644H48V11.7703Z" fill="#4173CD"/>
<path d="M47.9999 15.2643H0V18.7584H47.9999V15.2643Z" fill="white"/>
<path d="M48 18.7584H17.3795V22.2524H48V18.7584Z" fill="#4173CD"/>
<path d="M47.9999 22.2525H0V25.7465H47.9999V22.2525Z" fill="white"/>
<path d="M47.9999 25.7476H0V29.2416H47.9999V25.7476Z" fill="#4173CD"/>
<path d="M47.9999 29.2415H0V32.7356H47.9999V29.2415Z" fill="white"/>
<path d="M47.9999 32.7356H0V36.2296H47.9999V32.7356Z" fill="#4173CD"/>
<path d="M5.99768 10.4664L7.38209 16.8726L9.54836 15.9753L5.99768 10.4664Z" fill="#FFE15A"/>
<path d="M5.99768 10.4664L8.46517 16.424L7.38208 16.8726L5.99768 10.4664Z" fill="#FFCD5A"/>
<path d="M11.3816 23.4646L9.99706 17.0583L7.83078 17.9557L11.3816 23.4646Z" fill="#FFE15A"/>
<path d="M11.3816 23.4646L8.914 17.507L9.99709 17.0583L11.3816 23.4646Z" fill="#FFCD5A"/>
<path d="M15.1888 14.2736L8.78265 15.658L9.67993 17.8243L15.1888 14.2736Z" fill="#FFE15A"/>
<path d="M15.1888 14.2736L9.23125 16.7411L8.78265 15.658L15.1888 14.2736Z" fill="#FFCD5A"/>
<path d="M2.1907 19.6574L8.59682 18.273L7.69944 16.1067L2.1907 19.6574Z" fill="#FFE15A"/>
<path d="M2.1907 19.6573L8.14813 17.1898L8.59682 18.2729L2.1907 19.6573Z" fill="#FFCD5A"/>
<path d="M11.3816 10.4664L7.83078 15.9753L9.99706 16.8726L11.3816 10.4664Z" fill="#FFE15A"/>
<path d="M11.3816 10.4664L8.91397 16.424L7.83078 15.9753L11.3816 10.4664Z" fill="#FFCD5A"/>
<path d="M5.99768 23.4646L9.54836 17.9557L7.38209 17.0583L5.99768 23.4646Z" fill="#FFE15A"/>
<path d="M5.99768 23.4645L8.46518 17.507L9.54836 17.9557L5.99768 23.4645Z" fill="#FFCD5A"/>
<path d="M15.1888 19.6574L9.67993 16.1067L8.78265 18.273L15.1888 19.6574Z" fill="#FFE15A"/>
<path d="M15.1886 19.6574L9.23111 17.1899L9.6798 16.1067L15.1886 19.6574Z" fill="#FFCD5A"/>
<path d="M2.1907 14.2736L7.69944 17.8243L8.59682 15.658L2.1907 14.2736Z" fill="#FFE15A"/>
<path d="M2.1907 14.2736L8.14813 16.7411L7.69944 17.8243L2.1907 14.2736Z" fill="#FFCD5A"/>
<path d="M8.6896 9.931L7.51717 16.3792H9.86194L8.6896 9.931Z" fill="#FFE15A"/>
<path d="M8.6896 9.931V16.3792H7.51717L8.6896 9.931Z" fill="#FFCD5A"/>
<path d="M8.6896 24L9.86194 17.5518H7.51717L8.6896 24Z" fill="#FFE15A"/>
<path d="M8.68973 24V17.5518H9.86207L8.68973 24Z" fill="#FFCD5A"/>
<path d="M15.724 16.9655L9.27579 15.7931V18.1379L15.724 16.9655Z" fill="#FFE15A"/>
<path d="M15.724 16.9655H9.27579V15.7931L15.724 16.9655Z" fill="#FFCD5A"/>
<path d="M1.65512 16.9655L8.10333 18.1379V15.7931L1.65512 16.9655Z" fill="#FFE15A"/>
<path d="M1.65512 16.9655H8.10333V18.1379L1.65512 16.9655Z" fill="#FFCD5A"/>
<path d="M13.6637 11.9914L8.27505 15.722L9.93312 17.38L13.6637 11.9914Z" fill="#FFE15A"/>
<path d="M13.6637 11.9914L9.10409 16.551L8.27505 15.722L13.6637 11.9914Z" fill="#FFCD5A"/>
<path d="M3.71553 21.9396L9.10409 18.209L7.44603 16.551L3.71553 21.9396Z" fill="#FFE15A"/>
<path d="M3.71553 21.9396L8.27506 17.38L9.10409 18.209L3.71553 21.9396Z" fill="#FFCD5A"/>
<path d="M13.6637 21.9396L9.93312 16.551L8.27505 18.209L13.6637 21.9396Z" fill="#FFE15A"/>
<path d="M13.6637 21.9396L9.10406 17.38L9.9331 16.551L13.6637 21.9396Z" fill="#FFCD5A"/>
<path d="M3.71553 11.9914L7.44603 17.38L9.10409 15.722L3.71553 11.9914Z" fill="#FFE15A"/>
<path d="M3.71553 11.9914L8.27506 16.551L7.44603 17.38L3.71553 11.9914Z" fill="#FFCD5A"/>
<path d="M8.68973 19.3106C9.98466 19.3106 11.0344 18.2608 11.0344 16.9659C11.0344 15.671 9.98466 14.6212 8.68973 14.6212C7.3948 14.6212 6.34505 15.671 6.34505 16.9659C6.34505 18.2608 7.3948 19.3106 8.68973 19.3106Z" fill="#FFE15A"/>
</g>
<defs>
<clipPath id="clip0_11_2111">
<rect width="48" height="48" fill="white"/>
</clipPath>
</defs>
</svg>
