<svg width="48" height="48" viewBox="0 0 48 48" fill="none" xmlns="http://www.w3.org/2000/svg">
<path d="M47.9999 18.7588H0V9.10359C0 8.64656 0.370593 8.27597 0.827623 8.27597H47.1724C47.6294 8.27597 48 8.64656 48 9.10359L47.9999 18.7588Z" fill="#82AFFF"/>
<path d="M47.1723 39.724H0.827623C0.370593 39.724 0 39.3534 0 38.8963V29.2412H47.9999V38.8963C47.9999 39.3535 47.6293 39.724 47.1723 39.724Z" fill="#73AF00"/>
<path d="M47.9999 18.7587H0V29.2408H47.9999V18.7587Z" fill="white"/>
<path d="M47.9999 17.8274H0V19.1345H47.9999V17.8274Z" fill="#FF4B55"/>
<path d="M47.9999 28.8646H0V30.1717H47.9999V28.8646Z" fill="#FF4B55"/>
<path d="M10.6396 16.1318C8.9454 16.1318 7.57206 14.7618 7.57206 13.0736C7.57206 11.3793 8.9453 10.003 10.6396 10.003C10.6462 10.003 10.6526 10.003 10.659 10.0031C10.7587 10.0045 10.7937 9.87198 10.7057 9.82483C10.184 9.54517 9.58861 9.38692 8.95562 9.39152C6.92837 9.40595 5.28166 11.0859 5.30322 13.1131C5.32441 15.1194 6.96465 16.7435 8.98215 16.7435C9.60643 16.7435 10.1935 16.5855 10.7087 16.3097C10.7964 16.2627 10.761 16.1303 10.6616 16.1317C10.6541 16.1318 10.6469 16.1318 10.6396 16.1318Z" fill="white"/>
<path d="M13.0415 15.2862L12.9046 15.697L12.4715 15.7003C12.4155 15.7007 12.3922 15.7723 12.4373 15.8056L12.7857 16.0629L12.655 16.4757C12.6381 16.5292 12.699 16.5734 12.7446 16.5408L13.0969 16.289L13.4493 16.5408C13.4949 16.5734 13.5557 16.5292 13.5389 16.4757L13.4082 16.0629L13.7565 15.8056C13.8016 15.7723 13.7783 15.7007 13.7223 15.7003L13.2892 15.697L13.1523 15.2862C13.1345 15.2331 13.0593 15.2331 13.0415 15.2862Z" fill="white"/>
<path d="M16.0925 15.2862L15.9555 15.697L15.5225 15.7003C15.4664 15.7007 15.4432 15.7723 15.4882 15.8056L15.8365 16.0629L15.7058 16.4757C15.689 16.5292 15.7498 16.5734 15.7955 16.5408L16.1478 16.289L16.5001 16.5408C16.5458 16.5734 16.6065 16.5292 16.5897 16.4757L16.459 16.0629L16.8073 15.8056C16.8524 15.7723 16.8292 15.7007 16.7731 15.7003L16.3401 15.697L16.2031 15.2862C16.1854 15.2331 16.1101 15.2331 16.0925 15.2862Z" fill="white"/>
<path d="M19.1433 15.2862L19.0063 15.697L18.5733 15.7003C18.5172 15.7007 18.494 15.7723 18.539 15.8056L18.8874 16.0629L18.7567 16.4757C18.7399 16.5292 18.8007 16.5734 18.8464 16.5408L19.1987 16.289L19.551 16.5408C19.5966 16.5734 19.6574 16.5292 19.6406 16.4757L19.5099 16.0629L19.8582 15.8056C19.9033 15.7723 19.88 15.7007 19.824 15.7003L19.3909 15.697L19.254 15.2862C19.2363 15.2331 19.161 15.2331 19.1433 15.2862Z" fill="white"/>
<path d="M22.1941 15.2862L22.0571 15.697L21.6241 15.7003C21.568 15.7007 21.5448 15.7723 21.5899 15.8056L21.9382 16.0629L21.8075 16.4757C21.7906 16.5292 21.8514 16.5734 21.8971 16.5408L22.2494 16.289L22.6017 16.5408C22.6474 16.5734 22.7081 16.5292 22.6913 16.4757L22.5607 16.0629L22.9089 15.8056C22.954 15.7723 22.9308 15.7007 22.8747 15.7003L22.4417 15.697L22.3047 15.2862C22.2871 15.2331 22.2118 15.2331 22.1941 15.2862Z" fill="white"/>
<path d="M25.245 15.2862L25.1081 15.697L24.675 15.7003C24.619 15.7007 24.5957 15.7723 24.6408 15.8056L24.9892 16.0629L24.8585 16.4757C24.8416 16.5292 24.9025 16.5734 24.9481 16.5408L25.3004 16.289L25.6528 16.5408C25.6984 16.5734 25.7592 16.5292 25.7424 16.4757L25.6117 16.0629L25.9601 15.8056C26.0052 15.7723 25.9819 15.7007 25.9259 15.7003L25.4928 15.697L25.3559 15.2862C25.338 15.2331 25.2628 15.2331 25.245 15.2862Z" fill="white"/>
<path d="M16.0925 12.4389L15.9555 12.8497L15.5225 12.853C15.4664 12.8534 15.4432 12.925 15.4882 12.9583L15.8365 13.2155L15.7058 13.6284C15.689 13.6818 15.7498 13.7261 15.7955 13.6935L16.1478 13.4417L16.5001 13.6935C16.5458 13.7261 16.6065 13.6818 16.5897 13.6284L16.459 13.2155L16.8073 12.9583C16.8524 12.925 16.8292 12.8534 16.7731 12.853L16.3401 12.8497L16.2031 12.4389C16.1854 12.3856 16.1101 12.3856 16.0925 12.4389Z" fill="white"/>
<path d="M19.1433 12.4389L19.0063 12.8497L18.5733 12.853C18.5172 12.8534 18.494 12.925 18.539 12.9583L18.8874 13.2155L18.7567 13.6284C18.7399 13.6818 18.8007 13.7261 18.8464 13.6935L19.1987 13.4417L19.551 13.6935C19.5966 13.7261 19.6574 13.6818 19.6406 13.6284L19.5099 13.2155L19.8582 12.9583C19.9033 12.925 19.88 12.8534 19.824 12.853L19.3909 12.8497L19.254 12.4389C19.2363 12.3856 19.161 12.3856 19.1433 12.4389Z" fill="white"/>
<path d="M22.1941 12.4389L22.0571 12.8497L21.6241 12.853C21.568 12.8534 21.5448 12.925 21.5899 12.9583L21.9382 13.2155L21.8075 13.6284C21.7906 13.6818 21.8514 13.7261 21.8971 13.6935L22.2494 13.4417L22.6017 13.6935C22.6474 13.7261 22.7081 13.6818 22.6913 13.6284L22.5607 13.2155L22.9089 12.9583C22.954 12.925 22.9308 12.8534 22.8747 12.853L22.4417 12.8497L22.3047 12.4389C22.2871 12.3856 22.2118 12.3856 22.1941 12.4389Z" fill="white"/>
<path d="M25.245 12.4389L25.1081 12.8497L24.675 12.853C24.619 12.8534 24.5957 12.925 24.6408 12.9583L24.9892 13.2155L24.8585 13.6284C24.8416 13.6818 24.9025 13.7261 24.9481 13.6935L25.3004 13.4417L25.6528 13.6935C25.6984 13.7261 25.7592 13.6818 25.7424 13.6284L25.6117 13.2155L25.9601 12.9583C26.0052 12.925 25.9819 12.8534 25.9259 12.853L25.4928 12.8497L25.3559 12.4389C25.338 12.3856 25.2628 12.3856 25.245 12.4389Z" fill="white"/>
<path d="M19.1433 15.2862L19.0063 15.697L18.5733 15.7003C18.5172 15.7007 18.494 15.7723 18.539 15.8056L18.8874 16.0629L18.7567 16.4757C18.7399 16.5292 18.8007 16.5734 18.8464 16.5408L19.1987 16.289L19.551 16.5408C19.5966 16.5734 19.6574 16.5292 19.6406 16.4757L19.5099 16.0629L19.8582 15.8056C19.9033 15.7723 19.88 15.7007 19.824 15.7003L19.3909 15.697L19.254 15.2862C19.2363 15.2331 19.161 15.2331 19.1433 15.2862Z" fill="white"/>
<path d="M19.1433 9.59141L19.0063 10.0022L18.5733 10.0055C18.5172 10.0059 18.494 10.0775 18.539 10.1108L18.8874 10.368L18.7567 10.7809C18.7399 10.8343 18.8007 10.8786 18.8464 10.846L19.1987 10.5942L19.551 10.846C19.5966 10.8786 19.6574 10.8343 19.6406 10.7809L19.5099 10.368L19.8582 10.1108C19.9033 10.0775 19.88 10.0059 19.824 10.0055L19.3909 10.0022L19.254 9.59141C19.2363 9.53826 19.161 9.53826 19.1433 9.59141Z" fill="white"/>
<path d="M22.1941 15.2862L22.0571 15.697L21.6241 15.7003C21.568 15.7007 21.5448 15.7723 21.5899 15.8056L21.9382 16.0629L21.8075 16.4757C21.7906 16.5292 21.8514 16.5734 21.8971 16.5408L22.2494 16.289L22.6017 16.5408C22.6474 16.5734 22.7081 16.5292 22.6913 16.4757L22.5607 16.0629L22.9089 15.8056C22.954 15.7723 22.9308 15.7007 22.8747 15.7003L22.4417 15.697L22.3047 15.2862C22.2871 15.2331 22.2118 15.2331 22.1941 15.2862Z" fill="white"/>
<path d="M25.245 15.2862L25.1081 15.697L24.675 15.7003C24.619 15.7007 24.5957 15.7723 24.6408 15.8056L24.9892 16.0629L24.8585 16.4757C24.8416 16.5292 24.9025 16.5734 24.9481 16.5408L25.3004 16.289L25.6528 16.5408C25.6984 16.5734 25.7592 16.5292 25.7424 16.4757L25.6117 16.0629L25.9601 15.8056C26.0052 15.7723 25.9819 15.7007 25.9259 15.7003L25.4928 15.697L25.3559 15.2862C25.338 15.2331 25.2628 15.2331 25.245 15.2862Z" fill="white"/>
<path d="M22.1941 9.59141L22.0571 10.0022L21.6241 10.0055C21.568 10.0059 21.5448 10.0775 21.5899 10.1108L21.9382 10.368L21.8075 10.7809C21.7906 10.8343 21.8514 10.8786 21.8971 10.846L22.2494 10.5942L22.6017 10.846C22.6474 10.8786 22.7081 10.8343 22.6913 10.7809L22.5607 10.368L22.9089 10.1108C22.954 10.0775 22.9308 10.0059 22.8747 10.0055L22.4417 10.0022L22.3047 9.59141C22.2871 9.53826 22.2118 9.53826 22.1941 9.59141Z" fill="white"/>
<path d="M25.245 9.59141L25.1081 10.0022L24.675 10.0055C24.619 10.0059 24.5957 10.0775 24.6408 10.1108L24.9892 10.368L24.8585 10.7809C24.8416 10.8343 24.9025 10.8786 24.9481 10.846L25.3004 10.5942L25.6528 10.846C25.6984 10.8786 25.7592 10.8343 25.7424 10.7809L25.6117 10.368L25.9601 10.1108C26.0052 10.0775 25.9819 10.0059 25.9259 10.0055L25.4928 10.0022L25.3559 9.59141C25.338 9.53826 25.2628 9.53826 25.245 9.59141Z" fill="white"/>
</svg>
