<svg width="48" height="48" viewBox="0 0 48 48" fill="none" xmlns="http://www.w3.org/2000/svg">
<path d="M47.1723 39.7241H0.827623C0.370593 39.7241 0 39.3535 0 38.8964V9.10349C0 8.64646 0.370593 8.27586 0.827623 8.27586H47.1724C47.6294 8.27586 48 8.64646 48 9.10349V38.8964C47.9999 39.3536 47.6293 39.7241 47.1723 39.7241Z" fill="#41479B"/>
<path d="M23.1723 8.27586H21.7349L14.0689 13.2983V8.27586H9.93101V13.2983L2.26509 8.27586H0.827623C0.370593 8.27586 0 8.64646 0 9.10349V9.75992L6.57702 14.0689H0V18.2069H6.57702L0 22.516V23.1723C0 23.6294 0.370593 24 0.827623 24H2.26509L9.93101 18.9775V24H14.0689V18.9775L21.7348 24H23.1722C23.6293 24 23.9999 23.6294 23.9999 23.1723V22.5159L17.4229 18.2069H23.9999V14.0689H17.4228L23.9999 9.75992V9.10349C23.9999 8.64646 23.6295 8.27586 23.1723 8.27586Z" fill="white"/>
<path d="M23.9999 14.8966H13.2413V8.27586H10.7585V14.8966H0V17.3793H10.7585V24H13.2413V17.3793H23.9999V14.8966Z" fill="#FF4B55"/>
<path d="M9.10339 14.069L0.394405 8.41579C0.162656 8.56251 0 8.80888 0 9.10353V9.14647L7.58333 14.069H9.10339Z" fill="#FF4B55"/>
<path d="M15.5892 14.0689L23.8742 8.69089C23.7302 8.44724 23.4761 8.27586 23.1725 8.27586H22.9935L14.0691 14.0689H15.5892Z" fill="#FF4B55"/>
<path d="M8.38813 18.2068L0.118927 23.5746C0.26152 23.8242 0.51952 23.9999 0.827582 23.9999H0.983675L9.90819 18.2068H8.38813Z" fill="#FF4B55"/>
<path d="M23.9867 23.2375L16.2368 18.207H14.7169L23.5174 23.9195C23.7812 23.7972 23.9619 23.5408 23.9867 23.2375Z" fill="#FF4B55"/>
<path d="M36.3514 16.0428H30.933C30.933 16.0428 30.933 23.0548 30.933 25.9234C30.933 28.1545 36.3514 30.3856 36.3514 30.3856C36.3514 30.3856 41.7698 28.1545 41.7698 25.9234C41.7698 23.0547 41.7698 16.0428 41.7698 16.0428H36.3514Z" fill="#73AF00"/>
<path d="M33.1794 23.582C33.1794 23.582 33.149 23.4771 33.176 23.3823C33.2031 23.2875 33.1335 23.2006 33.1185 23.1184C33.0779 22.8951 33.2673 22.8375 33.2775 22.638C33.2775 22.638 33.4127 22.7768 33.3621 22.9088C33.3113 23.0408 33.4365 23.061 33.4197 23.1862C33.4028 23.3113 33.264 23.4433 33.2775 23.555L33.1794 23.582Z" fill="#FF4B55"/>
<path d="M35.3096 23.3699C35.1988 23.2316 35.0047 23.3806 34.8626 23.489C34.8428 23.5042 34.826 23.5158 34.8085 23.5286L34.2842 22.7543C34.2989 22.7322 34.3095 22.7071 34.3095 22.6786C34.3095 22.6015 34.2471 22.5389 34.1699 22.5389C34.0926 22.5389 34.0302 22.6014 34.0302 22.6786C34.0302 22.7072 34.0409 22.7323 34.0555 22.7543L33.5146 23.5529H33.1317C33.1317 23.5529 33.1158 23.791 33.5339 23.8199C33.5879 23.9015 33.6647 23.9665 33.7568 24.0032C33.7136 24.0103 33.6787 24.0436 33.6787 24.0889V24.1449C33.6787 24.1484 33.6821 24.1505 33.6824 24.154H34.6566C34.657 24.1506 34.6604 24.1485 34.6604 24.1449V24.0889C34.6604 24.0432 34.6249 24.009 34.5809 24.0028C34.744 23.9371 34.8585 23.7846 34.8778 23.6034C34.893 23.5921 34.9072 23.5818 34.9237 23.5694C35.0265 23.4904 35.1814 23.3702 35.2308 23.4331C35.2431 23.4485 35.2419 23.457 35.2414 23.4601C35.2358 23.4967 35.1577 23.5492 35.095 23.5913C34.9963 23.6576 34.8942 23.7264 34.8861 23.8239C34.8838 23.8517 34.9043 23.8758 34.932 23.8784C34.9334 23.8784 34.935 23.8784 34.9363 23.8784C34.9622 23.8784 34.9843 23.8585 34.9864 23.8324C34.9904 23.783 35.0795 23.7232 35.1511 23.6752C35.2423 23.6136 35.3285 23.5559 35.3409 23.4758C35.3466 23.4389 35.336 23.4035 35.3096 23.3699ZM34.4134 23.5529C34.3845 23.4429 34.3165 23.3371 34.2314 23.2989C34.2764 23.2757 34.3082 23.2301 34.3082 23.176C34.3082 23.0989 34.2458 23.0363 34.1685 23.0363C34.0915 23.0363 34.0289 23.0987 34.0289 23.176C34.0289 23.2301 34.0605 23.2757 34.1056 23.2989C34.0206 23.337 33.9524 23.4428 33.9237 23.5529H33.6363L34.1382 22.8118C34.1486 22.8143 34.1587 22.8182 34.1699 22.8182C34.1812 22.8182 34.1912 22.8143 34.2017 22.8118L34.7036 23.5529H34.4134Z" fill="#FFE15A"/>
<path d="M36.0063 18.8582C36.0063 18.8582 35.5016 18.7089 35.2759 20.4751C35.2759 20.4751 34.0408 22.0455 34.001 22.1384C33.9611 22.2314 33.9977 22.8987 34.1305 22.8456C34.2634 22.7924 34.5024 22.4837 34.4891 22.2579C34.4758 22.032 34.5777 21.9061 34.6783 21.7931C34.8675 21.5806 35.9333 20.6178 35.9732 20.4053C36.0129 20.1929 36.0063 18.8582 36.0063 18.8582Z" fill="#FFC8B9"/>
<path d="M36.7898 18.523C36.7898 18.523 37.57 18.4201 37.7991 19.2169C37.7991 19.2169 37.1583 19.5689 37.238 20.027C37.3177 20.4852 37.2281 22.5769 37.2281 22.5769C36.0029 22.9753 35.3555 22.4773 35.3555 22.4773C35.3555 22.4773 35.6742 21.292 35.6245 20.3259C35.6245 20.3259 35.3356 20.1068 35.4054 19.8578C35.4751 19.6088 35.6544 19.3299 35.7142 19.1208C35.774 18.9116 35.9333 18.5629 36.3218 18.533C36.71 18.503 36.7898 18.523 36.7898 18.523Z" fill="white"/>
<path d="M35.5811 22.2448C35.5811 22.2448 34.9702 24.5557 35.1828 27.703C35.1828 27.703 37.0885 27.9553 38.1245 27.5768C38.1245 27.5768 37.5866 23.8119 37.0686 22.3377L35.5811 22.2448Z" fill="white"/>
<path d="M35.9398 17.1618V18.1191C35.9398 18.2242 36.025 18.3094 36.1301 18.3094H36.1472C36.2215 18.3094 36.2819 18.3697 36.2819 18.4441V18.6729C36.2819 18.6729 36.4102 19.008 36.9092 18.6159V17.1689L35.9398 17.1618Z" fill="#FFC8B9"/>
<path d="M35.8271 16.9658C35.7961 17.0431 35.8288 17.2529 36.0195 17.238C36.2579 17.2194 36.5458 17.2181 36.6105 17.482C36.6707 17.7274 36.6305 18.3402 36.8961 18.3802C37.1618 18.42 37.4629 18.2435 37.4572 17.7161C37.4522 17.2513 37.1484 16.6952 36.7234 16.7799C36.7234 16.7799 36.3465 16.5159 36.1258 16.8131C36.1259 16.8131 35.8935 16.7998 35.8271 16.9658Z" fill="#8C5A28"/>
<path d="M37.799 19.2169C37.799 19.2169 38.0709 21.0079 38.0579 21.1558C38.0447 21.3085 37.0951 22.776 37.1482 22.9355C37.2014 23.0948 37.2544 23.3074 36.9623 23.387C36.6702 23.4667 36.7001 23.0002 36.7797 22.7612C36.8594 22.5221 37.5267 21.2489 37.5267 21.1028C37.5267 20.9568 37.1481 20.0138 37.2411 19.6419C37.3342 19.2699 37.799 19.2169 37.799 19.2169Z" fill="#FFC8B9"/>
<path d="M31.9841 17.9308C31.9841 17.9308 31.9537 17.8259 31.9807 17.7311C32.0078 17.6363 31.9382 17.5494 31.9233 17.4672C31.8827 17.2439 32.0721 17.1863 32.0823 16.9868C32.0823 16.9868 32.2176 17.1256 32.1669 17.2576C32.1162 17.3896 32.2414 17.4098 32.2245 17.535C32.2076 17.6601 32.0688 17.7921 32.0824 17.9038L31.9841 17.9308Z" fill="#FF4B55"/>
<path d="M34.1144 17.7187C34.0037 17.5803 33.8095 17.7294 33.6674 17.8378C33.6476 17.853 33.6308 17.8646 33.6133 17.8773L33.089 17.1031C33.1038 17.0809 33.1144 17.0559 33.1144 17.0274C33.1144 16.9503 33.0519 16.8877 32.9747 16.8877C32.8974 16.8877 32.835 16.9502 32.835 17.0274C32.835 17.056 32.8457 17.081 32.8603 17.1031L32.3194 17.9017H31.9365C31.9365 17.9017 31.9206 18.1398 32.3388 18.1686C32.3927 18.2503 32.4695 18.3153 32.5616 18.352C32.5184 18.359 32.4835 18.3924 32.4835 18.4377V18.4937C32.4835 18.4972 32.4869 18.4993 32.4873 18.5028H33.4614C33.4618 18.4994 33.4652 18.4973 33.4652 18.4937V18.4377C33.4652 18.3919 33.4297 18.3578 33.3858 18.3515C33.5488 18.2859 33.6633 18.1334 33.6827 17.9522C33.6978 17.9409 33.712 17.9306 33.7285 17.9181C33.8314 17.8392 33.9862 17.719 34.0356 17.7819C34.0479 17.7973 34.0467 17.8058 34.0462 17.8089C34.0406 17.8455 33.9625 17.898 33.8998 17.9401C33.8011 18.0063 33.699 18.0752 33.6909 18.1727C33.6886 18.2005 33.7091 18.2246 33.7368 18.2271C33.7383 18.2271 33.7399 18.2271 33.7411 18.2271C33.767 18.2271 33.7891 18.2072 33.7912 18.1811C33.7953 18.1317 33.8843 18.0719 33.9559 18.0239C34.0472 17.9623 34.1333 17.9045 34.1457 17.8245C34.1514 17.7876 34.1408 17.7522 34.1144 17.7187ZM33.2182 17.9017C33.1894 17.7917 33.1213 17.6859 33.0363 17.6477C33.0813 17.6245 33.113 17.5788 33.113 17.5248C33.113 17.4477 33.0506 17.3851 32.9734 17.3851C32.8963 17.3851 32.8337 17.4475 32.8337 17.5248C32.8337 17.5788 32.8654 17.6245 32.9104 17.6477C32.8254 17.6858 32.7573 17.7916 32.7285 17.9017H32.4411L32.943 17.1606C32.9534 17.1631 32.9634 17.167 32.9748 17.167C32.986 17.167 32.996 17.1631 33.0065 17.1606L33.5084 17.9017H33.2182Z" fill="#FFE15A"/>
<path d="M31.9841 19.8146C31.9841 19.8146 31.9537 19.7097 31.9807 19.6149C32.0078 19.5201 31.9382 19.4332 31.9233 19.351C31.8827 19.1277 32.0722 19.0701 32.0823 18.8706C32.0823 18.8706 32.2176 19.0094 32.1669 19.1414C32.1161 19.2734 32.2414 19.2936 32.2245 19.4188C32.2076 19.5439 32.0688 19.6759 32.0824 19.7876L31.9841 19.8146Z" fill="#FF4B55"/>
<path d="M34.1144 19.6025C34.0037 19.4642 33.8095 19.6132 33.6674 19.7216C33.6476 19.7368 33.6308 19.7484 33.6133 19.7612L33.089 18.9869C33.1038 18.9648 33.1144 18.9397 33.1144 18.9112C33.1144 18.8341 33.0519 18.7715 32.9747 18.7715C32.8974 18.7715 32.835 18.834 32.835 18.9112C32.835 18.9398 32.8457 18.9649 32.8603 18.9869L32.3194 19.7855H31.9365C31.9365 19.7855 31.9206 20.0236 32.3388 20.0525C32.3927 20.1341 32.4695 20.1991 32.5616 20.2358C32.5184 20.2429 32.4835 20.2762 32.4835 20.3215V20.3775C32.4835 20.381 32.4869 20.3831 32.4873 20.3866H33.4614C33.4618 20.3832 33.4652 20.3811 33.4652 20.3775V20.3215C33.4652 20.2758 33.4297 20.2416 33.3858 20.2354C33.5488 20.1697 33.6633 20.0172 33.6827 19.836C33.6978 19.8247 33.712 19.8144 33.7285 19.802C33.8314 19.723 33.9862 19.6028 34.0356 19.6657C34.0479 19.6811 34.0467 19.6896 34.0462 19.6927C34.0406 19.7293 33.9625 19.7818 33.8998 19.8239C33.8011 19.8902 33.699 19.959 33.6909 20.0565C33.6886 20.0843 33.7091 20.1084 33.7368 20.111C33.7383 20.111 33.7399 20.111 33.7411 20.111C33.767 20.111 33.7891 20.0911 33.7912 20.065C33.7953 20.0156 33.8843 19.9558 33.9559 19.9078C34.0472 19.8462 34.1333 19.7885 34.1457 19.7084C34.1514 19.6713 34.1408 19.6359 34.1144 19.6025ZM33.2182 19.7855C33.1894 19.6754 33.1213 19.5696 33.0363 19.5314C33.0813 19.5082 33.113 19.4626 33.113 19.4085C33.113 19.3314 33.0506 19.2688 32.9734 19.2688C32.8963 19.2688 32.8337 19.3312 32.8337 19.4085C32.8337 19.4626 32.8654 19.5082 32.9104 19.5314C32.8254 19.5695 32.7573 19.6753 32.7285 19.7855H32.4411L32.943 19.0444C32.9534 19.0468 32.9634 19.0507 32.9748 19.0507C32.986 19.0507 32.996 19.0468 33.0065 19.0444L33.5084 19.7855H33.2182Z" fill="#FFE15A"/>
<path d="M31.9841 21.6983C31.9841 21.6983 31.9537 21.5934 31.9807 21.4986C32.0078 21.4038 31.9382 21.3169 31.9233 21.2347C31.8827 21.0114 32.0721 20.9538 32.0823 20.7543C32.0823 20.7543 32.2176 20.8931 32.1669 21.0251C32.1162 21.1571 32.2414 21.1773 32.2245 21.3025C32.2076 21.4276 32.0688 21.5596 32.0824 21.6713L31.9841 21.6983Z" fill="#FF4B55"/>
<path d="M34.1144 21.4862C34.0037 21.3479 33.8095 21.4969 33.6674 21.6053C33.6476 21.6205 33.6308 21.6321 33.6133 21.6449L33.089 20.8706C33.1038 20.8485 33.1144 20.8234 33.1144 20.7949C33.1144 20.7178 33.0519 20.6552 32.9747 20.6552C32.8974 20.6552 32.835 20.7177 32.835 20.7949C32.835 20.8235 32.8457 20.8486 32.8603 20.8706L32.3194 21.6692H31.9365C31.9365 21.6692 31.9206 21.9073 32.3388 21.9361C32.3927 22.0178 32.4695 22.0828 32.5616 22.1195C32.5184 22.1266 32.4835 22.1599 32.4835 22.2052V22.2612C32.4835 22.2647 32.4869 22.2668 32.4873 22.2703H33.4614C33.4618 22.2669 33.4652 22.2648 33.4652 22.2612V22.2052C33.4652 22.1595 33.4297 22.1253 33.3858 22.1191C33.5488 22.0534 33.6633 21.9009 33.6827 21.7197C33.6978 21.7084 33.712 21.6981 33.7285 21.6856C33.8314 21.6067 33.9862 21.4865 34.0356 21.5494C34.0479 21.5648 34.0467 21.5733 34.0462 21.5764C34.0406 21.613 33.9625 21.6655 33.8998 21.7076C33.8011 21.7739 33.699 21.8427 33.6909 21.9402C33.6886 21.968 33.7091 21.9921 33.7368 21.9946C33.7383 21.9946 33.7399 21.9946 33.7411 21.9946C33.767 21.9946 33.7891 21.9747 33.7912 21.9486C33.7953 21.8992 33.8843 21.8394 33.9559 21.7914C34.0472 21.7298 34.1333 21.6721 34.1457 21.592C34.1514 21.5551 34.1408 21.5197 34.1144 21.4862ZM33.2182 21.6691C33.1894 21.5591 33.1213 21.4533 33.0363 21.4151C33.0813 21.3919 33.113 21.3463 33.113 21.2922C33.113 21.2151 33.0506 21.1525 32.9734 21.1525C32.8963 21.1525 32.8337 21.2149 32.8337 21.2922C32.8337 21.3463 32.8654 21.3919 32.9104 21.4151C32.8254 21.4532 32.7573 21.559 32.7285 21.6691H32.4411L32.943 20.9281C32.9534 20.9305 32.9634 20.9344 32.9748 20.9344C32.986 20.9344 32.996 20.9305 33.0065 20.9281L33.5084 21.6691H33.2182Z" fill="#FFE15A"/>
<path d="M31.9841 25.4658C31.9841 25.4658 31.9537 25.3609 31.9807 25.2661C32.0078 25.1713 31.9382 25.0844 31.9233 25.0022C31.8827 24.7789 32.0721 24.7213 32.0823 24.5218C32.0823 24.5218 32.2176 24.6606 32.1669 24.7926C32.1163 24.9246 32.2414 24.9448 32.2245 25.07C32.2076 25.1951 32.0688 25.3271 32.0824 25.4388L31.9841 25.4658Z" fill="#FF4B55"/>
<path d="M34.1144 25.2538C34.0037 25.1154 33.8095 25.2644 33.6674 25.3728C33.6476 25.388 33.6308 25.3996 33.6133 25.4124L33.089 24.6381C33.1038 24.616 33.1144 24.5909 33.1144 24.5624C33.1144 24.4853 33.0519 24.4228 32.9747 24.4228C32.8974 24.4228 32.835 24.4853 32.835 24.5624C32.835 24.591 32.8457 24.6161 32.8603 24.6381L32.3194 25.4368H31.9365C31.9365 25.4368 31.9206 25.6748 32.3388 25.7037C32.3927 25.7853 32.4695 25.8503 32.5616 25.887C32.5184 25.8941 32.4835 25.9274 32.4835 25.9727V26.0287C32.4835 26.0323 32.4869 26.0343 32.4873 26.0378H33.4614C33.4618 26.0344 33.4652 26.0324 33.4652 26.0287V25.9727C33.4652 25.927 33.4297 25.8929 33.3858 25.8866C33.5488 25.8209 33.6633 25.6684 33.6827 25.4872C33.6978 25.4759 33.712 25.4657 33.7285 25.4532C33.8314 25.3742 33.9862 25.254 34.0356 25.3169C34.0479 25.3323 34.0467 25.3409 34.0462 25.3439C34.0406 25.3805 33.9625 25.433 33.8998 25.4751C33.8011 25.5414 33.699 25.6102 33.6909 25.7077C33.6886 25.7355 33.7091 25.7596 33.7368 25.7623C33.7383 25.7623 33.7399 25.7623 33.7411 25.7623C33.767 25.7623 33.7891 25.7423 33.7912 25.7162C33.7953 25.6668 33.8843 25.607 33.9559 25.559C34.0472 25.4974 34.1333 25.4397 34.1457 25.3596C34.1514 25.3226 34.1408 25.2871 34.1144 25.2538ZM33.2182 25.4368C33.1894 25.3267 33.1213 25.2209 33.0363 25.1827C33.0813 25.1595 33.113 25.1139 33.113 25.0598C33.113 24.9827 33.0506 24.9201 32.9734 24.9201C32.8963 24.9201 32.8337 24.9825 32.8337 25.0598C32.8337 25.1139 32.8654 25.1595 32.9104 25.1827C32.8254 25.2209 32.7573 25.3266 32.7285 25.4368H32.4411L32.943 24.6957C32.9534 24.6981 32.9634 24.702 32.9748 24.702C32.986 24.702 32.996 24.6981 33.0065 24.6957L33.5084 25.4368H33.2182Z" fill="#FFE15A"/>
<path d="M31.9841 27.3496C31.9841 27.3496 31.9537 27.2447 31.9807 27.15C32.0078 27.0552 31.9382 26.9683 31.9233 26.886C31.8827 26.6627 32.0722 26.6052 32.0823 26.4057C32.0823 26.4057 32.2176 26.5444 32.1669 26.6764C32.1161 26.8084 32.2414 26.8287 32.2245 26.9538C32.2075 27.079 32.0688 27.211 32.0824 27.3226L31.9841 27.3496Z" fill="#FF4B55"/>
<path d="M34.1144 27.1375C34.0037 26.9991 33.8095 27.1481 33.6674 27.2565C33.6476 27.2717 33.6308 27.2833 33.6133 27.296L33.089 26.5218C33.1038 26.4997 33.1144 26.4746 33.1144 26.4461C33.1144 26.369 33.0519 26.3065 32.9747 26.3065C32.8974 26.3065 32.835 26.369 32.835 26.4461C32.835 26.4747 32.8457 26.4998 32.8603 26.5218L32.3194 27.3205H31.9365C31.9365 27.3205 31.9206 27.5585 32.3388 27.5874C32.3927 27.669 32.4695 27.734 32.5616 27.7707C32.5184 27.7778 32.4835 27.8111 32.4835 27.8564V27.9124C32.4835 27.916 32.4869 27.918 32.4873 27.9215H33.4614C33.4618 27.9181 33.4652 27.916 33.4652 27.9124V27.8564C33.4652 27.8107 33.4297 27.7765 33.3858 27.7703C33.5488 27.7046 33.6633 27.5521 33.6827 27.3709C33.6978 27.3596 33.712 27.3493 33.7285 27.3369C33.8314 27.2579 33.9862 27.1377 34.0356 27.2006C34.0479 27.216 34.0467 27.2245 34.0462 27.2276C34.0406 27.2642 33.9625 27.3167 33.8998 27.3588C33.8011 27.4251 33.699 27.4939 33.6909 27.5914C33.6886 27.6192 33.7091 27.6433 33.7368 27.646C33.7383 27.646 33.7399 27.646 33.7411 27.646C33.767 27.646 33.7891 27.626 33.7912 27.5999C33.7953 27.5505 33.8843 27.4907 33.9559 27.4427C34.0472 27.3811 34.1333 27.3234 34.1457 27.2433C34.1514 27.2063 34.1408 27.1709 34.1144 27.1375ZM33.2182 27.3204C33.1894 27.2103 33.1213 27.1046 33.0363 27.0663C33.0813 27.0431 33.113 26.9975 33.113 26.9434C33.113 26.8663 33.0506 26.8037 32.9734 26.8037C32.8963 26.8037 32.8337 26.8661 32.8337 26.9434C32.8337 26.9975 32.8654 27.0431 32.9104 27.0663C32.8254 27.1045 32.7573 27.2102 32.7285 27.3204H32.4411L32.943 26.5793C32.9534 26.5817 32.9634 26.5856 32.9748 26.5856C32.986 26.5856 32.996 26.5817 33.0065 26.5793L33.5084 27.3204H33.2182Z" fill="#FFE15A"/>
<path d="M38.5378 17.9308C38.5378 17.9308 38.5074 17.8259 38.5344 17.7311C38.5615 17.6363 38.4918 17.5494 38.4769 17.4672C38.4364 17.2439 38.6258 17.1863 38.6359 16.9868C38.6359 16.9868 38.7712 17.1256 38.7206 17.2576C38.6698 17.3896 38.795 17.4098 38.7782 17.535C38.7613 17.6601 38.6224 17.7921 38.636 17.9038L38.5378 17.9308Z" fill="#FF4B55"/>
<path d="M40.6684 17.7187C40.5577 17.5803 40.3635 17.7294 40.2214 17.8378C40.2016 17.853 40.1848 17.8646 40.1673 17.8773L39.643 17.1031C39.6577 17.0809 39.6683 17.0559 39.6683 17.0274C39.6683 16.9503 39.6059 16.8877 39.5287 16.8877C39.4514 16.8877 39.389 16.9502 39.389 17.0274C39.389 17.056 39.3997 17.081 39.4143 17.1031L38.8734 17.9017H38.4905C38.4905 17.9017 38.4746 18.1398 38.8927 18.1686C38.9467 18.2503 39.0235 18.3153 39.1156 18.352C39.0724 18.359 39.0375 18.3924 39.0375 18.4377V18.4937C39.0375 18.4972 39.0409 18.4993 39.0412 18.5028H40.0154C40.0158 18.4994 40.0192 18.4973 40.0192 18.4937V18.4377C40.0192 18.3919 39.9837 18.3578 39.9397 18.3515C40.1028 18.2859 40.2173 18.1334 40.2367 17.9522C40.2518 17.9409 40.266 17.9306 40.2825 17.9181C40.3853 17.8392 40.5402 17.719 40.5896 17.7819C40.6019 17.7973 40.6007 17.8058 40.6002 17.8089C40.5946 17.8455 40.5165 17.898 40.4538 17.9401C40.3551 18.0063 40.253 18.0752 40.2449 18.1727C40.2426 18.2005 40.2631 18.2246 40.2908 18.2271C40.2922 18.2271 40.2938 18.2271 40.2951 18.2271C40.321 18.2271 40.3431 18.2072 40.3452 18.1811C40.3492 18.1317 40.4383 18.0719 40.5099 18.0239C40.6012 17.9623 40.6873 17.9045 40.6997 17.8245C40.7054 17.7876 40.695 17.7522 40.6684 17.7187ZM39.7723 17.9017C39.7434 17.7917 39.6754 17.6859 39.5903 17.6477C39.6353 17.6245 39.6671 17.5788 39.6671 17.5248C39.6671 17.4477 39.6046 17.3851 39.5274 17.3851C39.4504 17.3851 39.3877 17.4475 39.3877 17.5248C39.3877 17.5788 39.4194 17.6245 39.4645 17.6477C39.3795 17.6858 39.3113 17.7916 39.2826 17.9017H38.9952L39.4971 17.1606C39.5075 17.1631 39.5175 17.167 39.5288 17.167C39.5401 17.167 39.5501 17.1631 39.5606 17.1606L40.0625 17.9017H39.7723Z" fill="#FFE15A"/>
<path d="M38.5378 19.8146C38.5378 19.8146 38.5074 19.7097 38.5344 19.6149C38.5615 19.5201 38.4918 19.4332 38.4769 19.351C38.4364 19.1277 38.6258 19.0701 38.6359 18.8706C38.6359 18.8706 38.7712 19.0094 38.7206 19.1414C38.6698 19.2734 38.795 19.2936 38.7782 19.4188C38.7613 19.5439 38.6224 19.6759 38.636 19.7876L38.5378 19.8146Z" fill="#FF4B55"/>
<path d="M40.6684 19.6025C40.5577 19.4642 40.3635 19.6132 40.2214 19.7216C40.2016 19.7368 40.1848 19.7484 40.1673 19.7612L39.643 18.9869C39.6577 18.9648 39.6683 18.9397 39.6683 18.9112C39.6683 18.8341 39.6059 18.7715 39.5287 18.7715C39.4514 18.7715 39.389 18.834 39.389 18.9112C39.389 18.9398 39.3997 18.9649 39.4143 18.9869L38.8734 19.7855H38.4905C38.4905 19.7855 38.4746 20.0236 38.8927 20.0525C38.9467 20.1341 39.0235 20.1991 39.1156 20.2358C39.0724 20.2429 39.0375 20.2762 39.0375 20.3215V20.3775C39.0375 20.381 39.0409 20.3831 39.0412 20.3866H40.0154C40.0158 20.3832 40.0192 20.3811 40.0192 20.3775V20.3215C40.0192 20.2758 39.9837 20.2416 39.9397 20.2354C40.1028 20.1697 40.2173 20.0172 40.2367 19.836C40.2518 19.8247 40.266 19.8144 40.2825 19.802C40.3853 19.723 40.5402 19.6028 40.5896 19.6657C40.6019 19.6811 40.6007 19.6896 40.6002 19.6927C40.5946 19.7293 40.5165 19.7818 40.4538 19.8239C40.3551 19.8902 40.253 19.959 40.2449 20.0565C40.2426 20.0843 40.2631 20.1084 40.2908 20.111C40.2922 20.111 40.2938 20.111 40.2951 20.111C40.321 20.111 40.3431 20.0911 40.3452 20.065C40.3492 20.0156 40.4383 19.9558 40.5099 19.9078C40.6012 19.8462 40.6873 19.7885 40.6997 19.7084C40.7054 19.6713 40.695 19.6359 40.6684 19.6025ZM39.7723 19.7855C39.7434 19.6754 39.6754 19.5696 39.5903 19.5314C39.6353 19.5082 39.6671 19.4626 39.6671 19.4085C39.6671 19.3314 39.6046 19.2688 39.5274 19.2688C39.4504 19.2688 39.3877 19.3312 39.3877 19.4085C39.3877 19.4626 39.4194 19.5082 39.4645 19.5314C39.3795 19.5695 39.3113 19.6753 39.2826 19.7855H38.9952L39.4971 19.0444C39.5075 19.0468 39.5175 19.0507 39.5288 19.0507C39.5401 19.0507 39.5501 19.0468 39.5606 19.0444L40.0625 19.7855H39.7723Z" fill="#FFE15A"/>
<path d="M38.5378 21.6983C38.5378 21.6983 38.5074 21.5934 38.5344 21.4986C38.5615 21.4038 38.4918 21.3169 38.4769 21.2347C38.4364 21.0114 38.6258 20.9538 38.6359 20.7543C38.6359 20.7543 38.7712 20.8931 38.7206 21.0251C38.6698 21.1571 38.795 21.1773 38.7782 21.3025C38.7613 21.4276 38.6224 21.5596 38.636 21.6713L38.5378 21.6983Z" fill="#FF4B55"/>
<path d="M40.6684 21.4862C40.5577 21.3479 40.3635 21.4969 40.2214 21.6053C40.2016 21.6205 40.1848 21.6321 40.1673 21.6449L39.643 20.8706C39.6577 20.8485 39.6683 20.8234 39.6683 20.7949C39.6683 20.7178 39.6059 20.6552 39.5287 20.6552C39.4514 20.6552 39.389 20.7177 39.389 20.7949C39.389 20.8235 39.3997 20.8486 39.4143 20.8706L38.8734 21.6692H38.4905C38.4905 21.6692 38.4746 21.9073 38.8927 21.9361C38.9467 22.0178 39.0235 22.0828 39.1156 22.1195C39.0724 22.1266 39.0375 22.1599 39.0375 22.2052V22.2612C39.0375 22.2647 39.0409 22.2668 39.0412 22.2703H40.0154C40.0158 22.2669 40.0192 22.2648 40.0192 22.2612V22.2052C40.0192 22.1595 39.9837 22.1253 39.9397 22.1191C40.1028 22.0534 40.2173 21.9009 40.2367 21.7197C40.2518 21.7084 40.266 21.6981 40.2825 21.6856C40.3853 21.6067 40.5402 21.4865 40.5896 21.5494C40.6019 21.5648 40.6007 21.5733 40.6002 21.5764C40.5946 21.613 40.5165 21.6655 40.4538 21.7076C40.3551 21.7739 40.253 21.8427 40.2449 21.9402C40.2426 21.968 40.2631 21.9921 40.2908 21.9946C40.2922 21.9946 40.2938 21.9946 40.2951 21.9946C40.321 21.9946 40.3431 21.9747 40.3452 21.9486C40.3492 21.8992 40.4383 21.8394 40.5099 21.7914C40.6012 21.7298 40.6873 21.6721 40.6997 21.592C40.7054 21.5551 40.695 21.5197 40.6684 21.4862ZM39.7723 21.6691C39.7434 21.5591 39.6754 21.4533 39.5903 21.4151C39.6353 21.3919 39.6671 21.3463 39.6671 21.2922C39.6671 21.2151 39.6046 21.1525 39.5274 21.1525C39.4504 21.1525 39.3877 21.2149 39.3877 21.2922C39.3877 21.3463 39.4194 21.3919 39.4645 21.4151C39.3795 21.4532 39.3113 21.559 39.2826 21.6691H38.9952L39.4971 20.9281C39.5075 20.9305 39.5175 20.9344 39.5288 20.9344C39.5401 20.9344 39.5501 20.9305 39.5606 20.9281L40.0625 21.6691H39.7723Z" fill="#FFE15A"/>
<path d="M38.5378 23.582C38.5378 23.582 38.5074 23.4771 38.5344 23.3823C38.5615 23.2875 38.4918 23.2006 38.4769 23.1184C38.4364 22.8951 38.6258 22.8375 38.6359 22.638C38.6359 22.638 38.7712 22.7768 38.7206 22.9088C38.6698 23.0408 38.795 23.061 38.7782 23.1862C38.7613 23.3113 38.6224 23.4433 38.636 23.555L38.5378 23.582Z" fill="#FF4B55"/>
<path d="M40.6684 23.3699C40.5577 23.2316 40.3635 23.3806 40.2214 23.489C40.2016 23.5042 40.1848 23.5158 40.1673 23.5286L39.643 22.7543C39.6577 22.7322 39.6683 22.7071 39.6683 22.6786C39.6683 22.6015 39.6059 22.5389 39.5287 22.5389C39.4514 22.5389 39.389 22.6014 39.389 22.6786C39.389 22.7072 39.3997 22.7323 39.4143 22.7543L38.8734 23.5529H38.4905C38.4905 23.5529 38.4746 23.791 38.8927 23.8199C38.9467 23.9015 39.0235 23.9665 39.1156 24.0032C39.0724 24.0103 39.0375 24.0436 39.0375 24.0889V24.1449C39.0375 24.1484 39.0409 24.1505 39.0412 24.154H40.0154C40.0158 24.1506 40.0192 24.1485 40.0192 24.1449V24.0889C40.0192 24.0432 39.9837 24.009 39.9397 24.0028C40.1028 23.9371 40.2173 23.7846 40.2367 23.6034C40.2518 23.5921 40.266 23.5818 40.2825 23.5694C40.3853 23.4904 40.5402 23.3702 40.5896 23.4331C40.6019 23.4485 40.6007 23.457 40.6002 23.4601C40.5946 23.4967 40.5165 23.5492 40.4538 23.5913C40.3551 23.6576 40.253 23.7264 40.2449 23.8239C40.2426 23.8517 40.2631 23.8758 40.2908 23.8784C40.2922 23.8784 40.2938 23.8784 40.2951 23.8784C40.321 23.8784 40.3431 23.8585 40.3452 23.8324C40.3492 23.783 40.4383 23.7232 40.5099 23.6752C40.6012 23.6136 40.6873 23.5559 40.6997 23.4758C40.7054 23.4389 40.695 23.4035 40.6684 23.3699ZM39.7723 23.5529C39.7434 23.4429 39.6754 23.3371 39.5903 23.2989C39.6353 23.2757 39.6671 23.2301 39.6671 23.176C39.6671 23.0989 39.6046 23.0363 39.5274 23.0363C39.4504 23.0363 39.3877 23.0987 39.3877 23.176C39.3877 23.2301 39.4194 23.2757 39.4645 23.2989C39.3795 23.337 39.3113 23.4428 39.2826 23.5529H38.9952L39.4971 22.8118C39.5075 22.8143 39.5175 22.8182 39.5288 22.8182C39.5401 22.8182 39.5501 22.8143 39.5606 22.8118L40.0625 23.5529H39.7723Z" fill="#FFE15A"/>
<path d="M38.5378 25.4658C38.5378 25.4658 38.5074 25.3609 38.5344 25.2661C38.5615 25.1713 38.4918 25.0844 38.4769 25.0022C38.4364 24.7789 38.6258 24.7213 38.6359 24.5218C38.6359 24.5218 38.7712 24.6606 38.7206 24.7926C38.6698 24.9246 38.795 24.9448 38.7782 25.07C38.7613 25.1951 38.6224 25.3271 38.636 25.4388L38.5378 25.4658Z" fill="#FF4B55"/>
<path d="M40.6684 25.2538C40.5577 25.1154 40.3635 25.2644 40.2214 25.3728C40.2016 25.388 40.1848 25.3996 40.1673 25.4124L39.643 24.6381C39.6577 24.616 39.6683 24.5909 39.6683 24.5624C39.6683 24.4853 39.6059 24.4228 39.5287 24.4228C39.4514 24.4228 39.389 24.4853 39.389 24.5624C39.389 24.591 39.3997 24.6161 39.4143 24.6381L38.8734 25.4368H38.4905C38.4905 25.4368 38.4746 25.6748 38.8927 25.7037C38.9467 25.7853 39.0235 25.8503 39.1156 25.887C39.0724 25.8941 39.0375 25.9274 39.0375 25.9727V26.0287C39.0375 26.0323 39.0409 26.0343 39.0412 26.0378H40.0154C40.0158 26.0344 40.0192 26.0324 40.0192 26.0287V25.9727C40.0192 25.927 39.9837 25.8929 39.9397 25.8866C40.1028 25.8209 40.2173 25.6684 40.2367 25.4872C40.2518 25.4759 40.266 25.4657 40.2825 25.4532C40.3853 25.3742 40.5402 25.254 40.5896 25.3169C40.6019 25.3323 40.6007 25.3409 40.6002 25.3439C40.5946 25.3805 40.5165 25.433 40.4538 25.4751C40.3551 25.5414 40.253 25.6102 40.2449 25.7077C40.2426 25.7355 40.2631 25.7596 40.2908 25.7623C40.2922 25.7623 40.2938 25.7623 40.2951 25.7623C40.321 25.7623 40.3431 25.7423 40.3452 25.7162C40.3492 25.6668 40.4383 25.607 40.5099 25.559C40.6012 25.4974 40.6873 25.4397 40.6997 25.3596C40.7054 25.3226 40.695 25.2871 40.6684 25.2538ZM39.7723 25.4368C39.7434 25.3267 39.6754 25.2209 39.5903 25.1827C39.6353 25.1595 39.6671 25.1139 39.6671 25.0598C39.6671 24.9827 39.6046 24.9201 39.5274 24.9201C39.4504 24.9201 39.3877 24.9825 39.3877 25.0598C39.3877 25.1139 39.4194 25.1595 39.4645 25.1827C39.3795 25.2209 39.3113 25.3266 39.2826 25.4368H38.9952L39.4971 24.6957C39.5075 24.6981 39.5175 24.702 39.5288 24.702C39.5401 24.702 39.5501 24.6981 39.5606 24.6957L40.0625 25.4368H39.7723Z" fill="#FFE15A"/>
<path d="M38.5378 27.3496C38.5378 27.3496 38.5074 27.2447 38.5344 27.15C38.5615 27.0552 38.4918 26.9683 38.4769 26.886C38.4364 26.6627 38.6258 26.6052 38.6359 26.4057C38.6359 26.4057 38.7712 26.5444 38.7206 26.6764C38.6698 26.8084 38.795 26.8287 38.7782 26.9538C38.7612 27.079 38.6224 27.211 38.636 27.3226L38.5378 27.3496Z" fill="#FF4B55"/>
<path d="M40.6684 27.1375C40.5577 26.9991 40.3635 27.1481 40.2214 27.2565C40.2016 27.2717 40.1848 27.2833 40.1673 27.296L39.643 26.5218C39.6577 26.4997 39.6683 26.4746 39.6683 26.4461C39.6683 26.369 39.6059 26.3065 39.5287 26.3065C39.4514 26.3065 39.389 26.369 39.389 26.4461C39.389 26.4747 39.3997 26.4998 39.4143 26.5218L38.8734 27.3205H38.4905C38.4905 27.3205 38.4746 27.5585 38.8927 27.5874C38.9467 27.669 39.0235 27.734 39.1156 27.7707C39.0724 27.7778 39.0375 27.8111 39.0375 27.8564V27.9124C39.0375 27.916 39.0409 27.918 39.0412 27.9215H40.0154C40.0158 27.9181 40.0192 27.916 40.0192 27.9124V27.8564C40.0192 27.8107 39.9837 27.7765 39.9397 27.7703C40.1028 27.7046 40.2173 27.5521 40.2367 27.3709C40.2518 27.3596 40.266 27.3493 40.2825 27.3369C40.3853 27.2579 40.5402 27.1377 40.5896 27.2006C40.6019 27.216 40.6007 27.2245 40.6002 27.2276C40.5946 27.2642 40.5165 27.3167 40.4538 27.3588C40.3551 27.4251 40.253 27.4939 40.2449 27.5914C40.2426 27.6192 40.2631 27.6433 40.2908 27.646C40.2922 27.646 40.2938 27.646 40.2951 27.646C40.321 27.646 40.3431 27.626 40.3452 27.5999C40.3492 27.5505 40.4383 27.4907 40.5099 27.4427C40.6012 27.3811 40.6873 27.3234 40.6997 27.2433C40.7054 27.2063 40.695 27.1709 40.6684 27.1375ZM39.7723 27.3204C39.7434 27.2103 39.6754 27.1046 39.5903 27.0663C39.6353 27.0431 39.6671 26.9975 39.6671 26.9434C39.6671 26.8663 39.6046 26.8037 39.5274 26.8037C39.4504 26.8037 39.3877 26.8661 39.3877 26.9434C39.3877 26.9975 39.4194 27.0431 39.4645 27.0663C39.3795 27.1045 39.3113 27.2102 39.2826 27.3204H38.9952L39.4971 26.5793C39.5075 26.5817 39.5175 26.5856 39.5288 26.5856C39.5401 26.5856 39.5501 26.5817 39.5606 26.5793L40.0625 27.3204H39.7723Z" fill="#FFE15A"/>
<path d="M41.7701 16.0428C41.7701 16.0428 41.7701 23.0549 41.7701 25.9234C41.7701 28.1545 36.3517 30.3856 36.3517 30.3856C36.3517 30.3856 30.9334 28.1546 30.9334 25.9234C30.9334 23.0548 30.9334 16.0428 30.9334 16.0428H36.3517H41.7701ZM42.0889 15.7241H41.7701H36.3517H30.9334H30.6146V16.0428V25.9234C30.6146 26.9667 31.577 28.0901 33.475 29.2624C34.8361 30.1031 36.1741 30.6572 36.2303 30.6804L36.3516 30.7303L36.473 30.6804C36.5292 30.6572 37.8672 30.1031 39.2283 29.2624C41.1263 28.0901 42.0887 26.9667 42.0887 25.9234V16.0428L42.0889 15.7241Z" fill="white"/>
<path d="M42.1348 27.6808L43.5796 28.6773C41.9014 30.8301 39.2865 32.2184 36.3515 32.2184C33.4167 32.2184 30.8017 30.83 29.1234 28.6773L30.5683 27.6808C31.9275 29.3766 34.0142 30.4654 36.3514 30.4654C38.6889 30.4653 40.7756 29.3765 42.1348 27.6808ZM42.0716 27.25L41.8861 27.4813C40.5286 29.1751 38.5113 30.1466 36.3517 30.1466C34.1921 30.1466 32.1748 29.1751 30.8173 27.4813L30.6319 27.25L30.3877 27.4183L28.9429 28.4148L28.6647 28.6066L28.8725 28.8731C30.6877 31.2014 33.4139 32.537 36.3518 32.537C39.2897 32.537 42.016 31.2016 43.8312 28.8731L44.0389 28.6066L43.7608 28.4148L42.3159 27.4183L42.0716 27.25Z" fill="white"/>
<path d="M36.3516 32.2184C39.2865 32.2184 41.9014 30.8299 43.5797 28.6773L42.1349 27.6808C40.7757 29.3766 38.689 30.4654 36.3517 30.4654C34.0145 30.4654 31.9278 29.3766 30.5686 27.6808L29.1237 28.6773C30.8018 30.83 33.4168 32.2184 36.3516 32.2184Z" fill="#FFE15A"/>
</svg>
