<svg width="48" height="48" viewBox="0 0 48 48" fill="none" xmlns="http://www.w3.org/2000/svg">
<path d="M47.1723 39.7242H0.827623C0.370593 39.7242 0 39.3536 0 38.8966V9.10362C0 8.64659 0.370593 8.276 0.827623 8.276H47.1724C47.6294 8.276 48 8.64659 48 9.10362V38.8966C47.9999 39.3537 47.6293 39.7242 47.1723 39.7242Z" fill="white"/>
<path d="M37.4115 27.1882L37.7136 28.2477L38.7633 25.1281L35.8517 26.6633L36.9461 26.792L33.4516 30.898L33.4213 30.811L36.2123 25.0319L36.772 25.9812L37.0003 22.6976L34.5705 24.9178L35.6619 24.7662L32.8709 30.5452L32.7838 30.5755L33.8273 25.2857L34.6084 26.0628L34.0004 22.828L32.2098 25.5898L33.2276 25.1674L32.1026 30.8711L31.7353 31.6317L31.3396 31.8971L31.1768 32.7222L29.7929 34.3483L30.8733 34.2613L30.6773 35.2551L31.0594 34.999L31.0963 35.4574L31.7528 34.6861L32.3563 35.5862L32.7695 33.4914L33.3147 32.8509L33.2764 32.3759L33.6437 31.6154L37.4115 27.1882Z" fill="#4173CD"/>
<path d="M12.2735 24.0872C12.3922 23.5535 12.3186 23.0536 12.1154 22.7458C11.8007 22.9385 11.5222 23.3601 11.4035 23.8937C11.3486 24.1409 11.3388 24.3786 11.3601 24.5956L10.7068 23.6214C10.9729 23.4045 11.2019 23.033 11.3059 22.5657C11.4245 22.0321 11.351 21.5321 11.1477 21.2243C10.833 21.4171 10.5546 21.8387 10.4359 22.3723C10.3727 22.6564 10.3672 22.9284 10.4037 23.1696L9.96196 22.511C9.98408 22.1766 9.88133 21.7698 9.63486 21.3822C9.34152 20.9209 8.93596 20.6194 8.57455 20.5455C8.4884 20.9043 8.58955 21.3993 8.8829 21.8605C9.13218 22.2525 9.46152 22.5193 9.77699 22.6389L10.1818 23.3109C9.97874 23.1756 9.73011 23.0652 9.44586 23.002C8.91224 22.8833 8.41227 22.9569 8.10449 23.1602C8.29724 23.4748 8.71883 23.7533 9.25246 23.872C9.7198 23.976 10.1534 23.926 10.4627 23.7769L11.068 24.7817C10.8804 24.6705 10.661 24.5786 10.4138 24.5236C9.88021 24.4049 9.38024 24.4785 9.07246 24.6817C9.26521 24.9963 9.6868 25.2749 10.2204 25.3936C10.6677 25.4931 11.0842 25.4515 11.3909 25.3175L11.9482 26.2426C11.7759 26.1496 11.5841 26.0699 11.3668 26.0216C10.8332 25.9029 10.3332 25.9765 10.0254 26.1797C10.2182 26.4944 10.6398 26.7729 11.1734 26.8916C11.6011 26.9866 12.002 26.9541 12.3048 26.8344L12.8423 27.7266C12.6879 27.6511 12.5216 27.5848 12.3347 27.5432C11.801 27.4246 11.3011 27.4981 10.9933 27.7014C11.186 28.016 11.6076 28.2945 12.1413 28.4132C12.5489 28.5039 12.9352 28.481 13.233 28.3751L13.7226 29.1877C13.5879 29.1283 13.4448 29.0763 13.2877 29.0414C12.7541 28.9227 12.2541 28.9963 11.9464 29.1995C12.1391 29.5141 12.5607 29.7927 13.0943 29.9114C13.4831 29.9978 13.852 29.9801 14.1437 29.8865L15.6988 32.4677L16.3593 32.0475L14.6805 29.5449C14.8888 29.3202 15.0613 28.9937 15.1477 28.605C15.2664 28.0713 15.1928 27.5714 14.9896 27.2636C14.6749 27.4563 14.3964 27.8779 14.2777 28.4115C14.2428 28.5685 14.2292 28.7202 14.2259 28.8673L13.6975 28.0795C13.9196 27.8547 14.1042 27.5145 14.1948 27.1068C14.3134 26.5732 14.2399 26.0732 14.0366 25.7655C13.7219 25.9582 13.4434 26.3798 13.3248 26.9134C13.2831 27.1004 13.2728 27.2791 13.2757 27.4508L12.6956 26.5859C12.9324 26.3622 13.1318 26.013 13.227 25.5855C13.3457 25.0518 13.2721 24.5519 13.0688 24.2441C12.7541 24.4368 12.4757 24.8584 12.357 25.3921C12.3087 25.6093 12.2996 25.8168 12.3108 26.0122L11.7091 25.1153C11.96 24.894 12.1741 24.5343 12.2735 24.0872Z" fill="#73AF00"/>
<path d="M19.0344 24.0001L18.2068 19.0346H18.0787C17.3275 19.0346 16.7969 18.2986 17.0345 17.5858L17.0372 17.5779C17.2271 17.0082 16.9255 16.3916 16.3593 16.1919L4.99619 12.1814C4.35213 11.9541 3.74547 12.6018 4.01453 13.2297L5.24678 16.1049C5.60134 16.932 6.21578 17.6211 6.99709 18.0676L10.1492 19.8688C11.0909 20.4069 12.1565 20.6899 13.241 20.6899H13.2412L13.524 21.2553C14.3652 22.9374 16.0845 24.0001 17.9654 24.0001H19.0344Z" fill="#FFE15A"/>
<path d="M28.9653 24L29.7929 19.0346H29.921C30.6722 19.0346 31.2028 18.2985 30.9652 17.5857L30.9625 17.5778C30.7726 17.0082 31.0742 16.3916 31.6404 16.1918L42.9989 12.1829C43.6447 11.9549 44.253 12.6044 43.9832 13.234L42.7529 16.1047C42.3983 16.9318 41.7839 17.6209 41.0026 18.0674L37.8504 19.8686C36.9088 20.4067 35.8432 20.6897 34.7587 20.6897H34.7584L34.4756 21.2551C33.6345 22.9374 31.9152 24 30.0344 24H28.9653Z" fill="#FFE15A"/>
<path d="M27.3103 18.2068L25.2574 13.4168C24.9966 12.8082 24.3982 12.4137 23.7361 12.4137H23.1723L22.3447 13.2413H21.5171L20.6895 14.0689H21.8444C22.1371 14.0689 22.3346 14.3683 22.2193 14.6375L20.6895 18.2069H27.3103V18.2068Z" fill="#FFE15A"/>
<path d="M21.5172 26.4827L19.8621 23.9999L18.3463 25.5157C17.7104 26.1516 17.2313 26.9269 16.9469 27.78L16.5518 28.9654L15.7241 29.793H14.6485C14.2933 29.793 13.9686 29.9937 13.8098 30.3113L13.5764 30.778C13.4225 31.0859 13.6464 31.4481 13.9905 31.4481H15.7241L16.276 30.3446L18.9144 29.0254C18.994 28.9856 19.0665 28.9332 19.1294 28.8703L21.5172 26.4827Z" fill="#FFE15A"/>
<path d="M26.4827 26.4827L28.1378 23.9999L29.6536 25.5157C30.2895 26.1516 30.7686 26.9269 31.053 27.78L31.4481 28.9654L32.2757 29.793H33.3514C33.7065 29.793 34.0313 29.9937 34.1901 30.3113L34.4235 30.778C34.5774 31.0859 34.3535 31.4481 34.0094 31.4481H32.2757L31.724 30.3446L29.0856 29.0254C29.006 28.9856 28.9335 28.9332 28.8706 28.8703L26.4827 26.4827Z" fill="#FFE15A"/>
<path d="M21.5172 27.3102L19.5059 30.6623C19.2346 31.1145 19.3332 31.6971 19.7383 32.0346L22.7926 34.5798C23.4919 35.1627 24.5077 35.1627 25.207 34.5798L28.2613 32.0346C28.6665 31.6969 28.7651 31.1145 28.4937 30.6623L26.4826 27.3102H21.5172Z" fill="#FFE15A"/>
<path d="M23.9998 17.3793C23.9998 17.3793 21.517 18.207 18.2067 17.3793C18.2067 17.3793 18.2067 19.0345 18.2067 20.6896C18.2067 22.3448 19.0343 27.3103 23.9998 28.9655C28.9653 27.3103 29.7929 22.3448 29.7929 20.6896C29.7929 19.0345 29.7929 17.3793 29.7929 17.3793C26.4826 18.207 23.9998 17.3793 23.9998 17.3793Z" fill="white"/>
<path d="M23.9998 17.3793C23.9998 17.3793 21.517 18.207 18.2067 17.3793C18.2067 17.3793 18.2067 19.0345 18.2067 20.6896H29.7929C29.7929 19.0345 29.7929 17.3793 29.7929 17.3793C26.4826 18.207 23.9998 17.3793 23.9998 17.3793Z" fill="#41479B"/>
<path d="M19.9373 25.984V20.6897H19.0345V24.3735C19.269 24.9124 19.5637 25.458 19.9373 25.984Z" fill="#FF4B55"/>
<path d="M21.7429 20.6897H20.8401V27.042C21.1135 27.3128 21.4123 27.5707 21.7429 27.8107V20.6897Z" fill="#FF4B55"/>
<path d="M28.0626 25.984C28.4362 25.4579 28.7309 24.9123 28.9654 24.3734V20.6897H28.0626V25.984Z" fill="#FF4B55"/>
<path d="M23.5485 20.6897H22.6457V28.3708C22.9284 28.5232 23.2298 28.6619 23.5485 28.7879V20.6897Z" fill="#FF4B55"/>
<path d="M27.1598 20.6897H26.257V27.8107C26.5876 27.5707 26.8864 27.3129 27.1598 27.0421V20.6897Z" fill="#FF4B55"/>
<path d="M25.3542 28.3708V20.6897H24.4514V28.7879C24.7702 28.6619 25.0715 28.5232 25.3542 28.3708Z" fill="#FF4B55"/>
<path d="M15.2985 30.4669L14.7108 30.8284L15.6982 32.4675L16.3587 32.0474L15.2985 30.4669Z" fill="#73AF00"/>
<path d="M33.6225 31.6589L33.1033 30.6205H32.152L32.1027 30.8709L31.7353 31.6315L31.3396 31.8969L31.1768 32.722L29.7929 34.3481L30.8733 34.2611L30.6773 35.2549L31.0594 34.9988L31.0963 35.4572L31.7528 34.6859L32.3563 35.586L32.7695 33.4912L33.3146 32.8507L33.2764 32.3757L33.6225 31.6589Z" fill="#4173CD"/>
<path d="M7.92116 20.6897H5.79304L5.98401 21.2627L4.72898 25.6552L3.47395 21.2627L3.66502 20.6897H1.5369L2.10989 21.4537L3.85599 27.565L3.66502 28.1379H5.79304L5.60208 27.565L7.34817 21.4537L7.92116 20.6897Z" fill="#4173CD"/>
<path d="M43.98 21.2217L44.3348 20.6897H43.98H42.5614H42.2067L42.5614 21.2217V27.606L42.2067 28.1379H42.5614H43.98H44.3348L43.98 27.606V21.2217Z" fill="#4173CD"/>
</svg>
