<svg width="48" height="48" viewBox="0 0 48 48" fill="none" xmlns="http://www.w3.org/2000/svg">
<path d="M47.1723 39.7242H0.827623C0.370593 39.7242 0 39.3536 0 38.8965V9.10359C0 8.64656 0.370593 8.27597 0.827623 8.27597H47.1724C47.6294 8.27597 48 8.64656 48 9.10359V38.8965C47.9999 39.3537 47.6293 39.7242 47.1723 39.7242Z" fill="#464655"/>
<path d="M47.9999 23.1724H23.3853L0 10.2699V12.1607L21.4591 24L0 35.8393V37.7303L23.3853 24.8277H47.9999V23.1724Z" fill="#FFE15A"/>
<path d="M0.331024 39.5415C0.470805 39.6492 0.637586 39.7241 0.827617 39.7241H47.1724C47.6294 39.7241 48 39.3535 48 38.8965V26.4828H23.9999L0.331024 39.5415Z" fill="#73AF00"/>
<path d="M47.1723 8.27597H0.827617C0.637586 8.27597 0.470711 8.35097 0.331024 8.45869L23.9999 21.5173H47.9997V9.10359C47.9999 8.64656 47.6293 8.27597 47.1723 8.27597Z" fill="#FF4B55"/>
<path d="M7.16744 19.3582C4.80448 18.6148 3.02051 20.3318 2.6128 21.2155C2.26751 21.9643 1.62608 25.3562 4.82351 25.897C8.02075 26.4379 7.98475 23.4209 7.98475 23.4209C7.84057 23.9017 7.58201 25.272 5.27407 25.272C4.40839 25.272 3.16461 23.9858 3.39898 22.5675C3.61957 21.2329 4.81179 20.5502 5.71291 20.5121C6.56623 20.4761 8.5556 21.0651 8.5556 23.4872C8.5556 26.2096 5.74966 26.5162 5.74966 26.5162V28.1601C8.19213 27.9207 9.57438 26.5677 9.94019 24.4005C10.3047 22.243 9.57006 20.1141 7.16744 19.3582Z" fill="#FFE15A"/>
<path d="M4.55109 23.3952C4.49531 23.4659 4.46568 23.554 4.46418 23.6441L4.45725 24.0862L4.37118 24.2363C4.34015 24.2905 4.35853 24.3597 4.41253 24.3912C4.46718 24.4231 4.53731 24.4044 4.56872 24.3494L4.65693 24.195L5.01 24.0672C5.11696 24.0284 5.20293 23.948 5.24943 23.8442C5.34168 23.6383 5.53977 23.2601 5.86077 22.8655C6.18177 23.2601 6.37987 23.6383 6.47212 23.8442C6.51852 23.948 6.60449 24.0284 6.71146 24.0672L7.06461 24.195L7.15283 24.3494C7.18414 24.4044 7.25446 24.4231 7.30902 24.3912C7.36302 24.3596 7.38139 24.2905 7.35036 24.2363L7.2643 24.0862L7.25736 23.6441C7.25596 23.554 7.22624 23.4659 7.17046 23.3952C6.87468 23.0195 6.56005 22.7241 6.25002 22.4628C6.4978 22.2299 6.77793 22.0077 7.13071 21.836C7.21236 21.7963 7.25502 21.7047 7.23393 21.6163C7.20514 21.4958 7.07333 21.4325 6.96102 21.485C6.72458 21.5952 6.31799 21.8122 5.86068 22.1457C5.40328 21.8123 4.99678 21.5953 4.76034 21.485C4.64803 21.4327 4.51622 21.496 4.48743 21.6163C4.46643 21.7047 4.50909 21.7963 4.59056 21.836C4.94343 22.0077 5.22356 22.23 5.47134 22.4628C5.16149 22.7241 4.84687 23.0196 4.55109 23.3952Z" fill="#FFE15A"/>
</svg>
