<svg width="48" height="48" viewBox="0 0 48 48" fill="none" xmlns="http://www.w3.org/2000/svg">
<path d="M47.1723 39.7238H0.827623C0.370593 39.7238 0 39.3532 0 38.8962V9.10314C0 8.64611 0.370593 8.27551 0.827623 8.27551H47.1724C47.6294 8.27551 48 8.64611 48 9.10314V38.8962C47.9999 39.3533 47.6293 39.7238 47.1723 39.7238Z" fill="#FF4B55"/>
<path d="M0.827623 8.27563H23.1724C23.6295 8.27563 24 8.64623 24 9.10326V23.1722C24 23.6292 23.6295 23.9998 23.1724 23.9998H0.827623C0.370593 23.9997 0 23.6291 0 23.1721V9.10316C0 8.64613 0.370593 8.27563 0.827623 8.27563Z" fill="#41479B"/>
<path d="M11.7903 18.5242L11.4104 19.6634L10.2095 19.6727C10.0541 19.6739 9.98959 19.8724 10.1147 19.9646L11.0807 20.678L10.7185 21.8228C10.6716 21.9711 10.8404 22.0937 10.9668 22.0032L11.9438 21.305L12.9208 22.0032C13.0473 22.0936 13.216 21.9711 13.1691 21.8228L12.807 20.678L13.773 19.9646C13.898 19.8723 13.8336 19.6738 13.6781 19.6727L12.4772 19.6634L12.0973 18.5242C12.0481 18.3767 11.8396 18.3767 11.7903 18.5242Z" fill="white"/>
<path d="M11.8198 9.6423L11.5125 10.5639L10.5412 10.5715C10.4153 10.5724 10.3632 10.7329 10.4644 10.8076L11.2458 11.3846L10.9528 12.3108C10.9148 12.4307 11.0514 12.5299 11.1537 12.4568L11.9439 11.8919L12.7342 12.4568C12.8364 12.5299 12.973 12.4307 12.9351 12.3108L12.6421 11.3846L13.4235 10.8076C13.5247 10.7329 13.4725 10.5724 13.3467 10.5715L12.3754 10.5639L12.0681 9.6423C12.0283 9.52296 11.8597 9.52296 11.8198 9.6423Z" fill="white"/>
<path d="M16.7336 12.3838L16.4262 13.3053L15.4549 13.3129C15.3291 13.3139 15.277 13.4744 15.3781 13.5491L16.1595 14.1261L15.8666 15.0523C15.8286 15.1722 15.9652 15.2714 16.0675 15.1982L16.8577 14.6334L17.6479 15.1982C17.7502 15.2714 17.8868 15.1722 17.8488 15.0523L17.5558 14.1261L18.3372 13.5491C18.4384 13.4744 18.3863 13.3139 18.2604 13.3129L17.2891 13.3053L16.9818 12.3838C16.9421 12.2643 16.7734 12.2643 16.7336 12.3838Z" fill="white"/>
<path d="M7.00956 13.4698L6.70225 14.3914L5.73091 14.399C5.6051 14.3999 5.55297 14.5604 5.65413 14.6351L6.43553 15.2122L6.14256 16.1383C6.1046 16.2582 6.24119 16.3574 6.34347 16.2843L7.13369 15.7194L7.9239 16.2843C8.02619 16.3574 8.16278 16.2582 8.12481 16.1383L7.83184 15.2122L8.61325 14.6351C8.7144 14.5604 8.66228 14.3999 8.53647 14.399L7.56512 14.3914L7.25781 13.4698C7.21806 13.3505 7.04931 13.3505 7.00956 13.4698Z" fill="white"/>
<path d="M14.6155 16.4778L14.4429 16.9951L13.8977 16.9993C13.8271 16.9999 13.7978 17.09 13.8546 17.132L14.2933 17.4559L14.1288 17.9758C14.1076 18.0431 14.1842 18.0988 14.2416 18.0577L14.6853 17.7407L15.1289 18.0577C15.1862 18.0988 15.2629 18.0431 15.2417 17.9758L15.0772 17.4559L15.5159 17.132C15.5727 17.09 15.5434 17 15.4728 16.9993L14.9276 16.9951L14.755 16.4778C14.7326 16.4107 14.6378 16.4107 14.6155 16.4778Z" fill="white"/>
</svg>
