<svg width="48" height="48" viewBox="0 0 48 48" fill="none" xmlns="http://www.w3.org/2000/svg">
<path d="M47.1723 39.7242H0.827623C0.370593 39.7242 0 39.3536 0 38.8965V9.1035C0 8.64647 0.370593 8.27588 0.827623 8.27588H47.1724C47.6294 8.27588 48 8.64647 48 9.1035V38.8965C47.9999 39.3537 47.6293 39.7242 47.1723 39.7242Z" fill="#41479B"/>
<path d="M25.0605 18.9828C24.5821 18.8923 24.0002 18.2846 24.2071 17.9484C24.414 17.6122 24.026 16.8622 23.5605 17.1208C23.0949 17.3794 22.7846 17.6897 22.3449 17.7932C21.9052 17.8966 21.5432 18.2328 21.8794 18.5432C22.2155 18.8535 22.7328 19.4742 22.2414 20.1208C21.7501 20.7674 21.9052 20.3277 21.3104 20.6121C20.7155 20.8966 20.3017 21.4655 20.4828 21.8018C20.6638 22.138 20.8189 22.2674 20.3017 22.5001C19.7845 22.7327 19.5517 22.5777 19.1379 22.6811C18.7241 22.7845 17.7155 23.3018 17.4051 23.7414C17.0948 24.1811 16.4224 23.7673 16.1379 23.7155C15.8535 23.6638 15.2845 23.8707 15.1551 24.2069C15.0259 24.543 15.2586 24.8535 15.75 25.0086C16.2413 25.1638 16.4482 25.1896 16.2156 25.6035C15.9829 26.0173 16.1379 26.819 16.5259 27.0517C16.9138 27.2845 17.6638 28.0086 17.6638 28.5C17.6638 28.9913 17.5604 29.7155 18.2845 29.8189C19.0086 29.9223 20.1207 30.2327 20.5086 30.9051C20.8966 31.5775 21 31.9654 21.0776 32.3792C21.1552 32.793 21.2328 33.1292 21.4655 33.5948C21.6983 34.0604 21.8535 34.862 21.6207 35.043C21.3879 35.2241 21.2069 35.3533 21.3879 35.7025C21.5689 36.0516 21.6078 36.1809 21.9439 35.9869C22.2801 35.7929 22.2801 35.9998 22.4612 35.961C22.6422 35.9222 23.4698 35.6248 23.3146 35.224C23.1594 34.8231 22.8232 33.905 23.3016 33.4266C23.78 32.9482 24.4266 32.8706 24.8404 32.5473C25.2543 32.2241 25.9396 32.1723 26.4697 31.6551C26.9999 31.1379 27.5688 31.4482 27.6594 31.8103C27.75 32.1723 27.8922 32.8706 28.306 32.8576C28.7198 32.8447 28.8103 32.8447 28.8879 32.3404C28.9655 31.8361 29.612 30.7111 29.8707 30.8534C30.1293 30.9956 30.362 30.8792 30.375 30.6594C30.3879 30.4395 30.8792 30.2456 31.0861 30.556C31.2931 30.8663 31.7456 31.112 31.7327 30.7241C31.7198 30.3361 31.1896 30.3879 31.1767 29.9611C31.1638 29.5344 31.6035 29.2629 31.9914 29.0819C32.3793 28.9008 32.1465 28.4353 32.263 28.1767C32.3793 27.918 33.013 27.5948 33.0389 27.3361C33.0647 27.0775 32.8837 26.9741 33.1552 26.9094C33.4268 26.8447 33.763 26.7284 33.569 26.431C33.375 26.1336 33.4397 25.9138 33.6466 25.7715C33.8535 25.6293 33.9506 24.9542 33.6488 24.8665C33.3469 24.7788 32.8018 25.032 32.6655 25.1975C32.5291 25.3631 31.9742 24.6523 31.7113 24.477C31.4484 24.3017 29.7542 24.4088 29.7932 24.1168C29.8322 23.8247 30.5432 22.7586 30.2329 22.5905C29.9226 22.4224 29.4312 22.1767 29.0303 22.0474C28.6294 21.9181 28.72 22.3577 28.5002 22.0086C28.2803 21.6595 28.2028 20.4181 27.9571 20.4181C27.7113 20.4181 27.5303 20.9353 27.4269 20.7413C27.3235 20.5473 27.4657 19.2025 26.8967 19.1766C26.3278 19.1507 26.3148 19.4869 25.9916 19.2413C25.6683 18.9958 25.7146 19.1065 25.0605 18.9828Z" fill="#FF9B55"/>
<path d="M21.5472 11.6264L21.1175 12.9145L19.7596 12.9251C19.6852 12.9257 19.6543 13.0207 19.7143 13.0649L20.8065 13.8715L20.3969 15.1662C20.3745 15.2371 20.4553 15.2959 20.5159 15.2525L21.6206 14.4629L22.7253 15.2525C22.7859 15.2957 22.8667 15.2371 22.8443 15.1662L22.4347 13.8715L23.527 13.0649C23.5869 13.0207 23.556 12.9256 23.4816 12.9251L22.1237 12.9145L21.6941 11.6264C21.6706 11.5559 21.5707 11.5559 21.5472 11.6264Z" fill="white"/>
<path d="M26.3316 11.6264L25.9019 12.9145L24.544 12.9251C24.4696 12.9257 24.4388 13.0207 24.4987 13.0649L25.5909 13.8715L25.1813 15.1662C25.1589 15.2371 25.2397 15.2959 25.3003 15.2525L26.4051 14.4629L27.5098 15.2525C27.5704 15.2957 27.6512 15.2371 27.6288 15.1662L27.2192 13.8715L28.3115 13.0649C28.3714 13.0207 28.3404 12.9256 28.2661 12.9251L26.9082 12.9145L26.4786 11.6264C26.4549 11.5559 26.355 11.5559 26.3316 11.6264Z" fill="white"/>
<path d="M16.8275 12.4152L16.3979 13.7033L15.04 13.7139C14.9656 13.7146 14.9347 13.8095 14.9946 13.8537L16.0869 14.6603L15.6773 15.955C15.6549 16.026 15.7356 16.0847 15.7963 16.0413L16.901 15.2517L18.0058 16.0413C18.0663 16.0846 18.1471 16.026 18.1247 15.955L17.7151 14.6603L18.8074 13.8537C18.8673 13.8095 18.8365 13.7145 18.762 13.7139L17.4042 13.7033L16.9745 12.4152C16.951 12.3446 16.8511 12.3446 16.8275 12.4152Z" fill="white"/>
<path d="M12.3618 14.0382L11.9321 15.3263L10.5742 15.3369C10.4998 15.3376 10.469 15.4326 10.5289 15.4767L11.6211 16.2833L11.2116 17.578C11.1891 17.649 11.2699 17.7078 11.3305 17.6644L12.4353 16.8747L13.54 17.6644C13.6006 17.7076 13.6814 17.649 13.659 17.578L13.2494 16.2833L14.3417 15.4767C14.4016 15.4326 14.3707 15.3375 14.2963 15.3369L12.9384 15.3263L12.5088 14.0382C12.4852 13.9677 12.3853 13.9677 12.3618 14.0382Z" fill="white"/>
<path d="M31.1854 12.4152L31.6151 13.7033L32.973 13.7139C33.0474 13.7146 33.0782 13.8095 33.0183 13.8537L31.9261 14.6603L32.3356 15.955C32.358 16.026 32.2773 16.0847 32.2167 16.0413L31.1119 15.2517L30.0072 16.0413C29.9466 16.0846 29.8658 16.026 29.8882 15.955L30.2978 14.6603L29.2055 13.8537C29.1456 13.8095 29.1765 13.7145 29.2509 13.7139L30.6087 13.7033L31.0383 12.4152C31.062 12.3446 31.1619 12.3446 31.1854 12.4152Z" fill="white"/>
<path d="M35.6514 14.0382L36.0811 15.3263L37.4389 15.3369C37.5134 15.3376 37.5442 15.4326 37.4843 15.4767L36.392 16.2833L36.8016 17.578C36.824 17.649 36.7433 17.7078 36.6826 17.6644L35.5779 16.8747L34.4732 17.6644C34.4126 17.7076 34.3318 17.649 34.3542 17.578L34.7638 16.2833L33.6715 15.4767C33.6116 15.4326 33.6425 15.3375 33.7169 15.3369L35.0747 15.3263L35.5044 14.0382C35.5279 13.9677 35.6279 13.9677 35.6514 14.0382Z" fill="white"/>
</svg>
