<svg width="48" height="48" viewBox="0 0 48 48" fill="none" xmlns="http://www.w3.org/2000/svg">
<g clip-path="url(#clip0_11_4059)">
<path d="M0 14.0691V33.9312L13.2413 24.0001L0 14.0691Z" fill="#464655"/>
<path d="M6.62064 8.27597L21.5172 19.8622H47.9999V9.1035C47.9999 8.64647 47.6293 8.27588 47.1723 8.27588H6.62064V8.27597Z" fill="#FF4B55"/>
<path d="M6.62064 39.7239L21.5172 28.1378H47.9999V38.8964C47.9999 39.3534 47.6293 39.724 47.1723 39.724H6.62064V39.7239Z" fill="#41479B"/>
<path d="M5.33334 8.276H0.827625C0.370594 8.276 0 8.6465 0 9.10353V12.4982L14.5288 24.0001L0 35.5023V38.8966C0 39.3537 0.370594 39.7243 0.827625 39.7243H5.33287L21.0138 27.3104H48V20.6898H21.0139L5.33334 8.276Z" fill="#73AF00"/>
<path d="M7.99983 8.276H5.3332L21.0137 20.6898H47.9999V19.0346H21.5896L7.99983 8.276Z" fill="white"/>
<path d="M0 12.4981V14.6092L11.8622 24L0 33.3912V35.5022L14.5288 24L0 12.4981Z" fill="#FFE15A"/>
<path d="M21.014 27.3102L5.33307 39.7241H7.99979L21.5898 28.9655H48.0002V27.3102H21.014Z" fill="white"/>
</g>
<defs>
<clipPath id="clip0_11_4059">
<rect width="48" height="48" fill="white"/>
</clipPath>
</defs>
</svg>
