<svg width="48" height="48" viewBox="0 0 48 48" fill="none" xmlns="http://www.w3.org/2000/svg">
<g clip-path="url(#clip0_11_1150)">
<path d="M47.1721 8.27588H0.82762C0.370592 8.27588 0 8.64638 0 9.1034V38.8963C0 39.3534 0.370592 39.7239 0.82762 39.7239H47.1722C47.6292 39.7239 47.9998 39.3534 47.9998 38.8963V9.1034C47.9997 8.64638 47.6291 8.27588 47.1721 8.27588Z" fill="#73AF00"/>
<path d="M36.4135 19.0341H30.6204V39.7236H36.4135V19.0341Z" fill="#FF4B55"/>
<path d="M42.2063 19.0341H36.4133V39.7236H42.2063V19.0341Z" fill="#464655"/>
<path d="M48.0002 19.0341H42.207V39.7236H48.0002V19.0341Z" fill="#FF9B55"/>
<path d="M46.5892 12.0804C46.6072 12.0442 46.5986 12.0003 46.5682 11.9735C46.5376 11.9466 46.493 11.9438 46.4594 11.9661C46.292 12.0772 46.1233 12.1781 45.9559 12.2697C46.4946 11.8245 46.5701 11.4379 46.575 11.4098C46.581 11.3744 46.5653 11.3388 46.5352 11.3194C46.5049 11.2998 46.4661 11.3003 46.4364 11.3205C45.8545 11.7152 45.2721 11.9969 44.77 12.1952C45.4443 11.7691 45.7116 11.3344 45.7279 11.3069C45.749 11.2717 45.7433 11.2266 45.7142 11.1976C45.6852 11.1685 45.6401 11.1632 45.6048 11.1843C45.0664 11.5088 44.4287 11.7647 43.8193 11.9618C43.9002 11.837 43.9578 11.6967 43.9061 11.6179C43.858 11.5448 43.7702 11.5448 43.6449 11.6182C43.3912 11.7668 41.4689 12.2569 40.7239 12.4394C39.9647 12.3023 39.3357 12.4968 39.1396 12.5687C39.0874 12.5065 39.0636 12.4463 39.0536 12.3993C39.0373 12.3227 39.0492 12.2449 39.0854 12.191C39.1444 12.1031 39.2665 12.0947 39.3742 12.0873C39.4211 12.0841 39.4629 12.0812 39.4995 12.072C39.5229 12.0789 39.5516 12.0924 39.5511 12.1029C39.549 12.1438 39.5747 12.1808 39.6137 12.193C39.6528 12.2052 39.6949 12.1897 39.7166 12.1549C39.722 12.1461 39.8487 11.9388 39.7506 11.7623C39.6793 11.6339 39.5155 11.5664 39.2637 11.5615C39.1604 11.4894 38.7699 11.2547 38.2888 11.4361C37.8015 11.6199 37.5852 12.1204 37.5136 12.3319C37.1344 12.2792 35.3933 12.0135 34.4467 11.4578C34.4007 11.4369 34.2436 11.3753 34.1559 11.4589C34.102 11.51 34.0957 11.5893 34.137 11.6948C34.1589 11.7506 34.1925 11.8052 34.2372 11.8588C33.7305 11.6262 33.0474 11.3014 32.5311 11.0125C32.4503 10.9751 32.3038 10.9243 32.2281 11.0035C32.1808 11.0534 32.1814 11.1258 32.2303 11.219C32.2406 11.2387 32.2508 11.2606 32.2619 11.2847C32.3121 11.393 32.3806 11.5406 32.5481 11.7111C32.4229 11.6427 32.3101 11.5724 32.2198 11.5021C31.7666 11.1495 31.7052 11.115 31.624 11.1698C31.554 11.2168 31.5766 11.2964 31.6005 11.3807L31.6068 11.4029C31.6265 11.4729 31.6587 11.5858 31.7467 11.7219C31.6765 11.6741 31.6161 11.6644 31.5686 11.6976C31.5403 11.7172 31.4976 11.7659 31.5304 11.8733C31.6093 12.1303 32.1539 12.8069 33.19 13.0061C33.0858 13.0213 32.9762 13.0326 32.8706 13.0347C32.8305 13.0356 32.7957 13.063 32.7856 13.1019C32.7757 13.1408 32.7929 13.1818 32.8277 13.2018C32.8467 13.2127 33.2129 13.4176 33.8843 13.4003C33.7839 13.4257 33.67 13.4452 33.544 13.4527C33.5048 13.455 33.4717 13.4826 33.4623 13.5206C33.453 13.5587 33.4695 13.5984 33.503 13.6187C33.523 13.6308 33.9126 13.8599 34.5159 13.8261L34.4633 13.8584C34.433 13.8771 34.4166 13.9117 34.4215 13.9468C34.4264 13.982 34.4515 14.011 34.4856 14.0208C34.5045 14.0261 34.8445 14.1208 35.268 14.076L35.1936 14.129C35.1637 14.1503 35.1497 14.1877 35.1585 14.2232C35.1674 14.2588 35.1968 14.2855 35.2332 14.2906C35.2409 14.2917 35.2956 14.2988 35.3834 14.2988C35.4412 14.2988 35.5134 14.2956 35.5957 14.2855C35.5938 14.3069 35.5964 14.3282 35.6034 14.3494C35.6458 14.477 35.8336 14.5078 35.8962 14.5087C35.9 14.5088 35.9038 14.5088 35.9075 14.5088C35.9832 14.5088 36.0631 14.4981 36.1446 14.4818C36.2752 14.6038 36.5136 14.5927 36.7449 14.5388C36.7312 14.5597 36.7208 14.5805 36.7142 14.601C36.7009 14.6433 36.711 14.6864 36.7413 14.7166C36.7708 14.7458 36.8417 14.8164 37.4882 14.6345C37.4855 14.6365 37.4829 14.6386 37.4802 14.6407C37.3942 14.7072 37.3996 14.7759 37.4106 14.811C37.4503 14.9381 37.7355 15.0196 38.253 15.0543C38.2644 15.3421 38.1845 15.6547 38.1836 15.6581C38.1746 15.6925 38.1869 15.7291 38.2149 15.7511C38.2428 15.773 38.2812 15.7764 38.3127 15.7596C38.3426 15.7434 38.3724 15.7226 38.4005 15.7002L38.3981 15.7954C38.3971 15.83 38.4162 15.8619 38.4469 15.8775C38.4599 15.8841 38.4737 15.8873 38.4876 15.8873C38.4912 15.8873 38.4945 15.886 38.4979 15.8856C38.4883 15.9667 38.4554 16.0635 38.3515 16.0863C38.3043 16.0966 38.2543 16.1017 38.2059 16.1066C37.9856 16.1292 37.7359 16.1548 37.6965 16.6597C37.6935 16.6975 37.7147 16.7333 37.7495 16.7486C37.7842 16.7638 37.8248 16.7558 37.851 16.7282L37.9469 16.6262C38.0033 16.6401 38.0932 16.6543 38.1895 16.6388C38.1653 16.7556 38.1724 16.8994 38.2893 17.0214C38.3146 17.0477 38.3535 17.056 38.3874 17.0424C38.4213 17.0288 38.4435 16.9959 38.4435 16.9594V16.8947C38.4991 16.8818 38.5729 16.8548 38.6427 16.7993C38.6835 16.8875 38.7615 16.991 38.91 17.0784C38.9241 17.0866 38.9399 17.0906 38.9554 17.0906C38.976 17.0906 38.9963 17.0836 39.0126 17.0699C39.0417 17.0458 39.0525 17.006 39.0395 16.9704L38.9927 16.8417C39.0254 16.8096 39.0677 16.7635 39.1048 16.7144C39.123 16.741 39.1538 16.7563 39.1866 16.7531C39.2206 16.7499 39.2499 16.7274 39.2619 16.6954L39.2948 16.6077C39.3142 16.6024 39.3328 16.5959 39.3505 16.5887C39.3725 16.7827 39.5217 16.9441 39.5307 16.9537C39.5478 16.9719 39.5715 16.9819 39.5959 16.9819C39.6031 16.9819 39.6105 16.981 39.6178 16.9792C39.6494 16.9712 39.674 16.9469 39.6825 16.9155L39.7324 16.7293C39.8646 16.6623 39.8775 16.5411 39.8856 16.4655C39.8872 16.4507 39.8895 16.4302 39.8898 16.4198C39.9415 16.4452 40.051 16.5682 40.1336 16.6958C40.15 16.7211 40.1782 16.7366 40.2084 16.7367C40.2391 16.7346 40.2668 16.7218 40.2836 16.6966C40.2836 16.6966 40.3535 16.5907 40.3875 16.5289C40.5319 16.2669 40.3132 16.1099 40.2081 16.0345C40.1823 16.016 40.147 15.9907 40.1413 15.9836C40.1215 15.9356 40.1284 15.8909 40.1415 15.8562C40.2291 15.9166 40.3287 15.9675 40.4391 15.9935C40.446 15.9952 40.4528 15.9958 40.4595 15.9958C40.4883 15.9958 40.5159 15.9819 40.5329 15.9576C40.5539 15.9276 40.5545 15.8877 40.5345 15.8572C40.5325 15.8541 40.3678 15.6008 40.2616 15.2892C40.433 15.3898 40.6651 15.5112 40.7854 15.5112C40.868 15.5112 40.8995 15.4599 40.9094 15.4378C40.9151 15.4249 40.9254 15.4014 40.9172 15.3576C41.0765 15.4436 41.2562 15.5104 41.3928 15.4751C41.4331 15.4648 41.5277 15.4404 41.5421 15.3555C41.5493 15.3126 41.5349 15.2778 41.5032 15.2436C41.6511 15.2795 41.8106 15.2974 41.967 15.2767C42.0975 15.2595 42.136 15.1962 42.1452 15.1461C42.1511 15.114 42.1616 15.0524 42.0452 14.936C42.27 14.9237 42.4706 14.8746 42.4871 14.739C42.4885 14.7268 42.4862 14.7158 42.4852 14.7043C43.2075 14.6256 43.757 14.1739 43.7813 14.1535C43.7883 14.1476 43.7931 14.1403 43.7979 14.1329C44.2351 14.0783 44.7318 13.9795 45.1339 13.7988C45.8927 13.4576 46.277 12.997 46.2082 12.8299C46.1882 12.7812 46.1309 12.7461 46.0601 12.7725C46.0402 12.7799 46 12.7962 45.9473 12.8176C46.3966 12.4526 46.5724 12.1142 46.5892 12.0804Z" fill="#FF9B55"/>
<path d="M46.5891 12.0806C46.6071 12.0443 46.5985 12.0004 46.5681 11.9736C46.5376 11.9467 46.493 11.9439 46.4593 11.9662C46.292 12.0774 46.1231 12.1783 45.9559 12.2698C46.4946 11.8246 46.5701 11.438 46.5749 11.4099C46.581 11.3745 46.5652 11.3388 46.5351 11.3195C46.5049 11.2999 46.4661 11.3004 46.4363 11.3206C45.8544 11.7153 45.2721 11.997 44.7699 12.1953C45.4444 11.7692 45.7116 11.3346 45.7279 11.3071C45.749 11.2719 45.7432 11.2268 45.7142 11.1977C45.6851 11.1687 45.64 11.1633 45.6048 11.1845C45.0664 11.5091 44.4287 11.7649 43.8192 11.9622C43.9001 11.8373 43.9578 11.697 43.906 11.6182C43.8579 11.5451 43.7702 11.5451 43.6448 11.6185C43.3911 11.7672 41.4688 12.2572 40.724 12.4397C39.9648 12.3026 39.3357 12.4971 39.1397 12.569C39.0876 12.5068 39.0636 12.4467 39.0535 12.3997C39.0372 12.3231 39.0491 12.2453 39.0853 12.1914C39.1444 12.1035 39.2664 12.0952 39.3741 12.0877C39.4209 12.0845 39.4627 12.0816 39.4994 12.0725C39.5228 12.0793 39.5515 12.0929 39.5511 12.1033C39.549 12.1442 39.5748 12.1812 39.6138 12.1934C39.6529 12.2056 39.695 12.1901 39.7167 12.1553C39.7222 12.1466 39.8487 11.9392 39.7507 11.7627C39.6794 11.6343 39.5157 11.5668 39.2637 11.5619C39.1603 11.4898 38.7699 11.2551 38.2888 11.4365C37.8016 11.6203 37.5852 12.1208 37.5137 12.3323C37.1345 12.2796 35.3933 12.0139 34.4467 11.4583C34.4008 11.4373 34.2438 11.3758 34.1559 11.4593C34.102 11.5104 34.0957 11.5897 34.137 11.6952C34.1589 11.751 34.1926 11.8056 34.2372 11.8592C33.7305 11.6266 33.0475 11.3018 32.5311 11.0129C32.4503 10.9755 32.3037 10.9246 32.2281 11.0039C32.1808 11.0538 32.1814 11.1263 32.2303 11.2194C32.2406 11.2391 32.2507 11.261 32.2619 11.2851C32.3121 11.3934 32.3806 11.541 32.5481 11.7117C32.4231 11.6433 32.3102 11.573 32.2198 11.5027C31.7666 11.1501 31.7051 11.1156 31.624 11.1703C31.5541 11.2175 31.5767 11.297 31.6006 11.3813L31.6069 11.4035C31.6266 11.4735 31.6586 11.5864 31.7467 11.7225C31.6765 11.6747 31.6161 11.665 31.5686 11.6982C31.5403 11.7176 31.4976 11.7665 31.5306 11.8739C31.6093 12.1309 32.154 12.8073 33.1901 13.0067C33.086 13.0219 32.9765 13.0332 32.8707 13.0353C32.8305 13.0362 32.7957 13.0636 32.7858 13.1025C32.7758 13.1414 32.793 13.1823 32.8279 13.2024C32.8468 13.2133 33.213 13.4182 33.8844 13.4008C33.784 13.4261 33.6701 13.4457 33.544 13.4531C33.5049 13.4553 33.4717 13.483 33.4624 13.521C33.453 13.5591 33.4695 13.5988 33.5032 13.6191C33.5231 13.6312 33.9127 13.8604 34.516 13.8265L34.4634 13.8588C34.4332 13.8775 34.4167 13.9121 34.4216 13.9472C34.4265 13.9824 34.4517 14.0114 34.4857 14.0212C34.5046 14.0265 34.8446 14.1211 35.2682 14.0764L35.1937 14.1294C35.1638 14.1507 35.1499 14.1881 35.1587 14.2237C35.1674 14.2593 35.1969 14.286 35.2333 14.291C35.241 14.2921 35.2958 14.2993 35.3836 14.2993C35.4414 14.2993 35.5136 14.2961 35.5959 14.286C35.5941 14.3074 35.5966 14.3288 35.6036 14.3499C35.646 14.4775 35.8339 14.5083 35.8964 14.5092C35.9002 14.5092 35.904 14.5092 35.9077 14.5092C35.9834 14.5092 36.0632 14.4985 36.1448 14.4823C36.2754 14.6042 36.5138 14.5931 36.7451 14.5393C36.7314 14.5601 36.721 14.5809 36.7144 14.6015C36.7011 14.6438 36.7112 14.6869 36.7415 14.7171C36.771 14.7463 36.8419 14.8168 37.4885 14.635C37.4857 14.6371 37.4831 14.6391 37.4804 14.6413C37.3944 14.7078 37.3999 14.7765 37.4108 14.8116C37.4505 14.9387 37.7357 15.0202 38.2532 15.0549C38.2646 15.3427 38.1846 15.6553 38.1838 15.6587C38.1748 15.6931 38.1871 15.7297 38.2151 15.7517C38.2431 15.7736 38.2814 15.7769 38.3129 15.7602C38.3429 15.744 38.3726 15.7232 38.4007 15.7008L38.3983 15.7959C38.3974 15.8305 38.4164 15.8624 38.4472 15.878C38.4602 15.8846 38.474 15.8878 38.4879 15.8878C38.4915 15.8878 38.4948 15.8864 38.4982 15.886C38.4886 15.9671 38.4557 16.0639 38.3516 16.0867C38.3045 16.097 38.2545 16.1021 38.206 16.107C37.9857 16.1296 37.7361 16.1552 37.6966 16.6602C37.6937 16.698 37.7149 16.7336 37.7496 16.749C37.7842 16.7641 37.8249 16.7562 37.851 16.7286L37.9469 16.6266C38.0032 16.6405 38.0933 16.6546 38.1895 16.6392C38.1653 16.756 38.1725 16.8998 38.2894 17.0218C38.3147 17.0481 38.3535 17.0564 38.3874 17.0428C38.4214 17.0292 38.4435 16.9963 38.4435 16.9598V16.8951C38.4991 16.8822 38.5729 16.8552 38.6426 16.7997C38.6835 16.8879 38.7615 16.9915 38.91 17.0788C38.9241 17.087 38.9398 17.0911 38.9554 17.0911C38.9758 17.0911 38.9962 17.0841 39.0126 17.0704C39.0417 17.0463 39.0525 17.0065 39.0396 16.971L38.9928 16.8423C39.0254 16.8102 39.0679 16.7642 39.1048 16.7151C39.1231 16.7417 39.1538 16.757 39.1866 16.7538C39.2208 16.7505 39.2499 16.7281 39.262 16.6961L39.2949 16.6084C39.3143 16.6031 39.3329 16.5966 39.3506 16.5894C39.3726 16.7833 39.5218 16.9448 39.5308 16.9543C39.548 16.9726 39.5717 16.9826 39.596 16.9826C39.6033 16.9826 39.6106 16.9817 39.6178 16.9798C39.6494 16.9719 39.6741 16.9476 39.6825 16.9162L39.7324 16.73C39.8646 16.6631 39.8775 16.5418 39.8856 16.4662C39.8871 16.4514 39.8894 16.4308 39.8898 16.4204C39.9414 16.4458 40.0509 16.5688 40.1335 16.6964C40.1499 16.7218 40.1782 16.7373 40.2083 16.7374C40.2391 16.7353 40.2667 16.7224 40.2835 16.6972C40.2835 16.6972 40.3535 16.5913 40.3875 16.5295C40.5319 16.2674 40.3131 16.1105 40.2081 16.0351C40.1823 16.0166 40.1469 15.9913 40.1412 15.9842C40.1215 15.9362 40.1284 15.8915 40.1413 15.8568C40.229 15.9172 40.3286 15.9681 40.439 15.9941C40.4458 15.9958 40.4526 15.9964 40.4594 15.9964C40.4882 15.9964 40.5157 15.9824 40.5327 15.9582C40.5538 15.9282 40.5544 15.8883 40.5343 15.8578C40.5323 15.8547 40.3676 15.6013 40.2615 15.2898C40.4331 15.3902 40.6649 15.5118 40.7853 15.5118C40.8679 15.5118 40.8994 15.4604 40.9091 15.4384C40.9149 15.4255 40.9251 15.402 40.917 15.3582C41.0764 15.4443 41.256 15.511 41.3926 15.4757C41.4329 15.4653 41.5275 15.4408 41.5418 15.3561C41.5491 15.3131 41.5346 15.2785 41.5029 15.2442C41.6509 15.2801 41.8103 15.298 41.9667 15.2773C42.0971 15.26 42.1356 15.1968 42.1449 15.1467C42.1508 15.1146 42.1613 15.053 42.045 14.9366C42.2697 14.9243 42.4703 14.8752 42.4868 14.7396C42.4884 14.7274 42.4861 14.7163 42.485 14.7049C43.2072 14.6262 43.7568 14.1745 43.7811 14.1541C43.7881 14.1482 43.7929 14.1409 43.7976 14.1335C44.2349 14.0789 44.7316 13.9802 45.1337 13.7995C45.8925 13.4583 46.2768 12.9977 46.208 12.8306C46.188 12.7819 46.1306 12.7467 46.0598 12.7732C46.0401 12.7806 45.9997 12.7969 45.9471 12.8184C46.3966 12.4528 46.5724 12.1143 46.5891 12.0806ZM45.2702 11.5722C44.9404 11.8948 44.319 12.3589 43.2942 12.6282C43.2853 12.6305 43.2776 12.6351 43.2702 12.6398C43.0548 12.623 42.7823 12.5837 42.5435 12.4945C43.3008 12.3227 44.3647 12.0268 45.2702 11.5722ZM40.7102 12.6192C40.7228 12.6214 40.7356 12.6211 40.748 12.6181C40.8546 12.5921 43.3213 11.9871 43.7173 11.7828C43.6713 11.8736 43.5829 12.0007 43.5105 12.0538C43.5084 12.0552 43.5075 12.0575 43.5056 12.0591C42.4434 12.3744 41.542 12.5073 41.5272 12.5094C41.4783 12.5164 41.4442 12.5618 41.4513 12.6107C41.4583 12.6597 41.5035 12.6936 41.5526 12.6867C41.5608 12.6854 41.8345 12.6452 42.2548 12.5575C42.4724 12.6823 42.7399 12.7511 42.9834 12.7883C42.6196 12.819 42.2828 12.8014 42.2773 12.8011C42.2349 12.7995 42.1936 12.8291 42.1847 12.8725C42.1758 12.9159 42.1999 12.9594 42.2416 12.9746L42.5803 13.0987C42.1041 13.2 41.6449 13.1049 41.6394 13.1038C41.6027 13.0956 41.5653 13.1116 41.5452 13.143C41.5251 13.1744 41.5266 13.2151 41.549 13.2449C41.6136 13.3312 41.7961 13.4218 41.9553 13.4887C41.3005 13.6126 40.85 13.2113 40.8287 13.192C40.7923 13.1588 40.7359 13.1611 40.7026 13.1973C40.6692 13.2335 40.6712 13.2898 40.707 13.3234C41.2242 13.8074 42.1881 14.0136 42.6208 14.0846C42.5568 14.1224 42.4795 14.1582 42.3986 14.1726C42.0666 14.2316 41.2999 13.8669 40.7604 13.5718L40.3284 13.3226C40.2861 13.298 40.2318 13.3123 40.2067 13.3543C40.1816 13.3963 40.195 13.4508 40.2367 13.4764C40.2575 13.4892 40.4269 13.5928 40.6676 13.7251L41.719 14.332C41.3964 14.3718 41.0561 14.2996 41.0519 14.2987C41.0493 14.2981 41.0468 14.2989 41.0442 14.2986C40.7981 14.1255 40.401 13.8342 39.8047 13.3397C39.7087 12.9972 39.5289 12.8467 39.3038 12.7037C39.5584 12.6256 40.095 12.5038 40.7102 12.6192ZM41.3601 14.518C41.3595 14.5182 41.3591 14.5186 41.3585 14.5188C41.3585 14.5188 41.3576 14.5182 41.3572 14.5179C41.3583 14.5179 41.3592 14.518 41.3601 14.518ZM35.5268 14.1118L35.7317 13.9661C35.7681 13.9402 35.7799 13.8913 35.7592 13.8518C35.7385 13.812 35.6916 13.7939 35.6497 13.8088C35.3113 13.9296 34.9687 13.9173 34.7542 13.8898L34.9914 13.7438C35.0292 13.7205 35.0443 13.6731 35.0268 13.6322C35.0094 13.5914 34.9648 13.5696 34.9217 13.5808C34.49 13.6942 34.1304 13.6471 33.895 13.5822C34.2692 13.4948 34.4864 13.3292 34.4979 13.3204C34.5306 13.2951 34.5417 13.2506 34.5247 13.2128C34.5077 13.1751 34.4672 13.1544 34.4265 13.1616C33.9333 13.2545 33.5525 13.2238 33.2967 13.171C33.5609 13.1266 33.7709 13.0635 33.7839 13.0596C33.7855 13.0592 33.7866 13.0579 33.788 13.0574C33.7941 13.0553 33.7991 13.0518 33.8046 13.0485C33.8091 13.0456 33.8137 13.0433 33.8177 13.0397C33.822 13.0358 33.825 13.0311 33.8286 13.0264C33.8319 13.0218 33.8355 13.0177 33.8379 13.0126C33.8402 13.0078 33.8412 13.0024 33.8427 12.9973C33.8444 12.9912 33.8461 12.9854 33.8466 12.9791C33.8466 12.9777 33.8474 12.9763 33.8474 12.9748C33.8474 12.9702 33.8455 12.966 33.8448 12.9615C33.8441 12.9571 33.8449 12.9526 33.8436 12.9481C33.8432 12.9467 33.842 12.9458 33.8415 12.9444C33.8393 12.9384 33.836 12.9333 33.8327 12.928C33.8298 12.9233 33.8274 12.9184 33.8238 12.9144C33.8199 12.9102 33.8153 12.9072 33.8107 12.9037C33.8061 12.9001 33.8018 12.8965 33.7966 12.8939C33.7918 12.8917 33.7865 12.8907 33.7813 12.8893C33.7752 12.8875 33.7694 12.8857 33.763 12.8853C33.7614 12.8852 33.7603 12.8844 33.7588 12.8844C32.6084 12.8736 31.9735 12.2684 31.7702 11.9596C32.1286 12.2094 32.5995 12.4213 32.9424 12.543H32.9427C33.3988 12.7192 33.9673 12.8314 33.9914 12.8361C34.0398 12.8455 34.087 12.8141 34.0965 12.7654C34.1061 12.7168 34.0744 12.6698 34.0258 12.6603C34.02 12.6592 33.4467 12.5461 33.0048 12.375C32.0517 12.0062 31.8586 11.6068 31.7942 11.405C31.8972 11.4782 32.0356 11.5859 32.1097 11.6436C32.6676 12.0775 33.9657 12.4878 34.0207 12.5052C34.0678 12.5201 34.1174 12.4942 34.1327 12.4475C34.1479 12.4008 34.1228 12.3507 34.0764 12.3348C32.7342 11.8776 32.5326 11.4429 32.4244 11.2094C32.415 11.1892 32.4062 11.1703 32.3975 11.1526C32.4156 11.1583 32.4344 11.1652 32.4497 11.172C33.1938 11.5884 34.2874 12.0814 34.7007 12.2644C34.6264 12.3002 34.5484 12.3301 34.4967 12.333C34.4623 12.335 34.4318 12.3565 34.4188 12.3886C34.4057 12.4206 34.4122 12.4573 34.4354 12.4828C34.4409 12.4888 34.5286 12.5828 34.699 12.6196L34.5781 12.6985C34.5498 12.717 34.5342 12.75 34.5381 12.7837C34.542 12.8174 34.5645 12.846 34.5964 12.8577C34.6046 12.8607 34.7428 12.9093 34.9254 12.9285L34.8247 13.0019C34.7991 13.0206 34.7855 13.0513 34.7885 13.0828C34.7915 13.1143 34.8109 13.1419 34.8396 13.1554C34.8513 13.1608 34.9889 13.2234 35.2098 13.213L35.2022 13.2182C35.1731 13.2387 35.1589 13.2744 35.1658 13.3093C35.1727 13.3441 35.1999 13.3715 35.2347 13.3791C35.2484 13.382 35.4175 13.4168 35.6602 13.3892L35.605 13.426C35.5757 13.4454 35.5606 13.4805 35.5663 13.5152C35.5721 13.55 35.5977 13.5781 35.6319 13.5871C35.658 13.5939 36.0499 13.6914 36.5642 13.5283C36.4564 13.5992 36.3559 13.6507 36.2728 13.6693C36.2349 13.678 36.2068 13.7099 36.2033 13.7487C36.1998 13.7874 36.2217 13.8239 36.2574 13.8392C36.2598 13.8403 36.2686 13.8436 36.2803 13.8478C36.0055 14.0297 35.7246 14.0929 35.5268 14.1118ZM35.0935 12.4873C35.0762 12.4472 35.0327 12.4253 34.9901 12.4359C34.8864 12.4612 34.8025 12.4587 34.7378 12.445C34.844 12.3977 34.9346 12.3414 34.9507 12.3312C34.9573 12.327 34.9628 12.3221 34.9679 12.3167C35.1273 12.3808 35.3081 12.4424 35.511 12.5013L35.1672 12.7522C35.0521 12.7644 34.9379 12.7534 34.8469 12.7371L35.0602 12.598C35.0968 12.5739 35.1109 12.5272 35.0935 12.4873ZM35.8982 14.3299C35.8642 14.3295 35.8013 14.3121 35.778 14.2955C35.7839 14.2861 35.7988 14.2677 35.8319 14.2414C36.0433 14.1872 36.2861 14.0845 36.5188 13.8946C36.7629 13.9123 37.1468 13.8543 37.5381 13.4612C37.5525 13.4874 37.5677 13.5139 37.5852 13.5409C37.5428 13.5729 36.5318 14.3355 35.8982 14.3299ZM36.5968 13.7184C36.8864 13.5441 37.2104 13.241 37.4125 13.0384C37.4156 13.1125 37.43 13.1975 37.4621 13.2908C37.4552 13.2949 37.448 13.2987 37.4421 13.3048C37.1211 13.6434 36.8088 13.7181 36.5968 13.7184ZM38.2791 14.8777C37.9842 14.8575 37.7097 14.8117 37.6094 14.7674C37.8533 14.577 37.9233 14.493 37.9306 14.4838C37.9552 14.4529 37.9567 14.4095 37.9343 14.377C37.9117 14.3443 37.8705 14.3303 37.8331 14.3427C37.5117 14.4465 37.1362 14.5479 36.9508 14.5739C37.0359 14.4975 37.1874 14.401 37.3241 14.3325C37.368 14.3106 37.3861 14.2574 37.3647 14.2134C37.3433 14.1692 37.2905 14.1507 37.246 14.1714C37.0023 14.286 36.6533 14.4015 36.435 14.3998C37.0294 14.1857 37.6354 13.7279 37.693 13.6838C37.7388 13.7383 37.7892 13.7937 37.85 13.85C38.3848 14.3473 38.3262 14.7374 38.2791 14.8777ZM38.4266 15.4238C38.4217 15.4297 38.4152 15.4375 38.407 15.4465C38.4264 15.3139 38.4403 15.1476 38.4276 14.9894C38.4769 14.8812 38.5766 14.5602 38.3184 14.1343C38.4887 14.1591 38.8795 14.241 39.0486 14.487C39.0711 14.5197 39.0934 14.5558 39.1154 14.5933L39.1152 14.5936C39.1069 14.6134 38.9375 15.0236 38.9916 15.5363C38.9519 15.4896 38.9141 15.4324 38.8887 15.3654C38.8767 15.334 38.8483 15.3118 38.8147 15.3082C38.7816 15.3046 38.7486 15.3199 38.7301 15.348C38.6923 15.4053 38.6377 15.4839 38.5834 15.5554L38.5852 15.483C38.5863 15.4449 38.5629 15.4103 38.5271 15.3969C38.4915 15.3835 38.451 15.3942 38.4266 15.4238ZM39.004 16.5386C38.9862 16.5919 38.8907 16.6949 38.8286 16.7509C38.8265 16.7529 38.8243 16.755 38.8223 16.7572C38.7756 16.6798 38.7772 16.6186 38.7773 16.6153C38.7804 16.5733 38.754 16.535 38.7138 16.5228C38.6735 16.5107 38.6302 16.5283 38.6098 16.5648C38.5279 16.7111 38.3841 16.7261 38.3577 16.7278C38.3623 16.6198 38.4246 16.5218 38.4286 16.5158C38.4533 16.4781 38.4462 16.4278 38.4119 16.3986C38.3778 16.3693 38.3271 16.3699 38.2936 16.4002C38.1621 16.5192 37.9534 16.4422 37.9515 16.4415C37.9429 16.4383 37.9341 16.4363 37.9251 16.4356C37.983 16.3098 38.0841 16.2995 38.2239 16.2853C38.2773 16.2798 38.3325 16.2741 38.3896 16.2615C38.6652 16.2013 38.6977 15.8966 38.6764 15.7438C38.6757 15.7396 38.6735 15.7362 38.6722 15.7322C38.7154 15.6792 38.7584 15.621 38.7941 15.5709C38.8116 15.5976 38.8303 15.6217 38.8491 15.6445C38.8497 15.7098 38.8534 15.9113 38.8761 16.0173C38.8941 16.1015 38.9556 16.1582 39.0147 16.1946C39.005 16.2136 38.9967 16.2337 38.9915 16.2554C38.9704 16.3422 38.9883 16.4375 39.0151 16.5193C39.011 16.5257 39.0064 16.5313 39.004 16.5386ZM39.0512 15.98C39.0426 15.9401 39.0372 15.8773 39.0337 15.8141C39.0588 15.8313 39.0764 15.8417 39.0789 15.843C39.1101 15.8603 39.1487 15.8577 39.177 15.8358C39.2052 15.8141 39.218 15.7776 39.2093 15.7431C39.1147 15.3648 39.1781 15.0109 39.2306 14.817C39.3848 15.1559 39.4955 15.5742 39.4572 15.85C39.4513 15.8922 39.4761 15.9327 39.5162 15.9468C39.5245 15.9497 39.5331 15.9507 39.5416 15.951C39.5407 15.9604 39.5397 15.9703 39.5386 15.9791C39.4479 15.9763 39.2987 15.9901 39.154 16.0654C39.1126 16.048 39.059 16.0163 39.0512 15.98ZM40.2306 16.4429C40.2234 16.4559 40.2146 16.4708 40.2052 16.4862C40.0984 16.3446 39.9516 16.199 39.8259 16.2464C39.7247 16.2851 39.7143 16.3825 39.7073 16.4471C39.6991 16.525 39.6932 16.5574 39.6282 16.5797C39.6 16.5894 39.5784 16.6124 39.5707 16.6411L39.5606 16.6783C39.5265 16.6032 39.5084 16.5124 39.5593 16.4351C39.5854 16.3954 39.5759 16.3424 39.5377 16.3141C39.4996 16.2859 39.4459 16.2923 39.4155 16.3288C39.4146 16.3297 39.3336 16.4251 39.2156 16.4419C39.2034 16.4437 39.1919 16.4479 39.1817 16.4541C39.1645 16.3993 39.1547 16.3421 39.1655 16.2977C39.1719 16.2713 39.1851 16.2533 39.2077 16.2395C39.3871 16.1309 39.5964 16.1618 39.5982 16.1622C39.6455 16.17 39.689 16.1401 39.6996 16.0943C39.7045 16.0738 39.7429 15.8992 39.7148 15.7529L39.8307 15.5583C39.8723 15.6116 39.9287 15.6769 39.9977 15.7412C39.9596 15.811 39.9225 15.9237 39.9755 16.0522C39.9967 16.1039 40.0462 16.1394 40.1035 16.1803C40.2496 16.2853 40.2883 16.3379 40.2306 16.4429ZM39.9008 15.3478C39.8844 15.3209 39.8518 15.3064 39.8239 15.3048C39.7925 15.3049 39.7635 15.3215 39.7473 15.3485L39.6309 15.5441C39.5818 15.1481 39.3952 14.675 39.1962 14.3854C38.9375 14.009 38.2976 13.9377 38.177 13.9381C38.1183 13.8669 38.0527 13.794 37.9718 13.7188C37.4407 13.2252 37.6154 12.8306 37.6238 12.8122C37.6246 12.8106 37.6244 12.809 37.6251 12.8074C37.6274 12.8016 37.6284 12.7958 37.6295 12.7898C37.6305 12.7843 37.6318 12.779 37.6318 12.7735C37.6318 12.7678 37.6305 12.7625 37.6296 12.7569C37.6284 12.7512 37.6276 12.7456 37.6255 12.7401C37.6235 12.7351 37.6205 12.7309 37.6175 12.7262C37.6142 12.7209 37.611 12.7156 37.6064 12.7111C37.6052 12.7099 37.6047 12.7082 37.6034 12.707C37.6002 12.7041 37.5963 12.703 37.5927 12.7006C37.5891 12.6982 37.5865 12.6947 37.5825 12.6928C37.5808 12.6919 37.5791 12.6921 37.5774 12.6914C37.5716 12.6891 37.5658 12.6879 37.5597 12.6868C37.5541 12.6857 37.5488 12.6844 37.5434 12.6844C37.5377 12.6844 37.5324 12.6856 37.5268 12.6867C37.521 12.6877 37.5155 12.6885 37.51 12.6907C37.5051 12.6927 37.5007 12.6958 37.4961 12.6987C37.4907 12.702 37.4855 12.7052 37.481 12.7097C37.4797 12.7109 37.4781 12.7115 37.4769 12.7127L37.4768 12.7128C36.8691 13.3767 36.2331 13.4556 35.9036 13.4417L36.2858 13.1868C36.3609 13.1448 36.4368 13.0948 36.5121 13.0357C36.55 13.0059 36.5575 12.9517 36.5294 12.9128C36.5012 12.8737 36.4472 12.8641 36.4072 12.8908L36.1973 13.0307C35.9385 13.1743 35.6884 13.213 35.5136 13.2184L35.7127 13.0788C35.8657 13.0048 36.0327 12.8938 36.2086 12.7301C36.243 12.698 36.2468 12.6448 36.2172 12.6082C36.1878 12.5716 36.135 12.5643 36.0962 12.5911L35.6214 12.9239C35.3959 13.0302 35.2112 13.0432 35.0871 13.0318L35.766 12.5363C35.7939 12.5159 35.8076 12.4813 35.8011 12.4474C35.7948 12.4135 35.7695 12.3863 35.7362 12.3774C34.6296 12.0828 34.3636 11.7822 34.3036 11.6291C34.2983 11.6157 34.2949 11.6049 34.2928 11.5964C34.3151 11.5998 34.345 11.6083 34.3643 11.6164C35.4486 12.2535 37.4797 12.5087 37.5656 12.5194C37.6099 12.5238 37.6509 12.4972 37.6627 12.4544C37.6934 12.3442 37.8705 11.7851 38.3517 11.6035C38.8056 11.4326 39.1629 11.709 39.1777 11.7206C39.1937 11.7333 39.2134 11.7403 39.2337 11.7403C39.4266 11.7403 39.5544 11.7787 39.5936 11.8486C39.6062 11.871 39.6098 11.8967 39.6085 11.9224C39.5772 11.9065 39.5427 11.8958 39.5087 11.8907C39.4933 11.8884 39.4776 11.8902 39.4631 11.8958C39.4455 11.9026 39.401 11.9057 39.3618 11.9084C39.2355 11.9172 39.0446 11.9303 38.9366 12.0909C38.8729 12.1857 38.8517 12.3117 38.8784 12.4365C38.8951 12.5144 38.9368 12.6163 39.032 12.7156C39.0413 12.7342 39.0562 12.7477 39.074 12.7559C39.1066 12.7849 39.143 12.8135 39.1864 12.8407C39.3977 12.9728 39.5527 13.0948 39.6351 13.3937C39.6358 13.4043 39.6385 13.4143 39.6428 13.424C39.6766 13.559 39.6967 13.7278 39.7012 13.9476C39.7023 13.9964 39.7422 14.0353 39.7907 14.0353C39.7907 14.0353 39.792 14.0353 39.7926 14.0353C39.8421 14.0343 39.8813 13.9933 39.8804 13.9439C39.8778 13.8208 39.8697 13.7128 39.8576 13.6148C40.5246 14.1597 40.9185 14.4304 41.116 14.5659C41.1439 14.585 41.1703 14.6031 41.1934 14.6193C40.9924 14.6376 40.6741 14.4541 40.4252 14.2644C40.3433 14.1905 40.266 14.1295 40.2241 14.0974C40.186 14.0683 40.1317 14.0743 40.101 14.1111C40.0702 14.1478 40.0739 14.2023 40.1092 14.2347C40.1319 14.2554 40.2041 14.32 40.3056 14.3984C40.4228 14.505 40.5134 14.6056 40.5418 14.6636C40.4024 14.6342 40.02 14.4068 39.709 14.1848C39.6707 14.1574 39.6179 14.1644 39.5879 14.2006C39.558 14.2369 39.5612 14.2903 39.5952 14.3226C39.8099 14.5264 39.9421 14.7126 40.0262 15.1116C40.0741 15.3392 40.1669 15.5552 40.2461 15.7118C40.0373 15.5693 39.9027 15.3508 39.9008 15.3478ZM41.9433 15.0995C41.4693 15.1618 40.9329 14.8004 40.9276 14.7968C40.8893 14.7707 40.8375 14.7779 40.8082 14.8137C40.7786 14.8493 40.7811 14.9014 40.8139 14.934C40.9691 15.0893 41.1275 15.1948 41.243 15.2716C41.2597 15.2828 41.2777 15.2948 41.295 15.3066C41.1227 15.298 40.8232 15.1037 40.6581 14.9685C40.622 14.9388 40.5688 14.9422 40.5364 14.9763C40.5041 15.0103 40.5036 15.0636 40.5352 15.0982C40.6021 15.1714 40.6655 15.2533 40.7039 15.3131C40.573 15.2653 40.3522 15.1396 40.1928 15.0376C40.1559 14.8742 40.1106 14.7413 40.0547 14.6286C40.5749 14.9384 40.6625 14.8339 40.6954 14.7945C40.7145 14.7716 40.736 14.7321 40.7294 14.674C40.7294 14.6737 40.7294 14.6733 40.7294 14.6733C40.9417 14.7808 41.1694 14.8441 41.344 14.7625C41.3623 14.7538 41.3886 14.7403 41.4097 14.7186C41.7321 14.8987 41.9007 15.0335 41.952 15.0982C41.9492 15.0986 41.9463 15.099 41.9433 15.0995ZM41.8216 14.7592C41.7227 14.6921 41.596 14.6148 41.4295 14.5244C41.4261 14.5226 41.4223 14.5225 41.4187 14.5212C41.4481 14.5223 41.4781 14.5231 41.5089 14.5231C41.595 14.5231 41.6856 14.5172 41.7756 14.5041C41.7825 14.5085 41.7891 14.5134 41.7973 14.516C42.0747 14.6032 42.2417 14.6695 42.2951 14.7138C42.2238 14.7448 42.019 14.7649 41.8216 14.7592ZM42.3493 14.5361C42.3493 14.5361 42.3483 14.5363 42.3477 14.5363C42.2757 14.4944 42.1733 14.4533 42.043 14.4084C42.0477 14.399 42.0513 14.389 42.0523 14.3781C42.0545 14.356 42.0483 14.3343 42.0359 14.317C42.1881 14.3533 42.3241 14.3677 42.4302 14.3488C42.5638 14.325 42.6848 14.2592 42.7725 14.2001H42.7726C42.8625 14.2001 43.1178 14.1969 43.4449 14.17C43.2087 14.3159 42.806 14.5162 42.3493 14.5361ZM45.9613 13.0059C45.8394 13.1592 45.5627 13.41 45.0601 13.636C44.3737 13.9446 43.3601 14.0061 42.9377 14.018C42.937 14.0113 42.9363 14.0046 42.9339 13.998C42.9228 13.9651 42.8935 13.9417 42.8589 13.9378C42.851 13.9369 42.3975 13.8841 41.8931 13.7321C42.1955 13.7607 42.4808 13.7748 42.7478 13.7748C43.5019 13.7748 44.1178 13.6697 44.6187 13.5122C44.6213 13.5118 44.6239 13.5124 44.6265 13.5118C44.9025 13.4396 45.5602 13.1701 45.9135 13.0255C45.9303 13.0184 45.9461 13.012 45.9613 13.0059ZM45.4836 12.9203C44.901 13.2809 43.8849 13.6663 42.2777 13.5802C42.3089 13.5651 42.3294 13.5338 42.3287 13.4984C42.3279 13.4607 42.3036 13.4275 42.2678 13.4154C42.1959 13.3911 42.1105 13.3589 42.0275 13.3242C42.2735 13.3314 42.5937 13.3084 42.8981 13.1911C42.9329 13.1777 42.9558 13.1442 42.9554 13.1068C42.9551 13.0695 42.9317 13.0363 42.8966 13.0235L42.7796 12.9807C43.0765 12.9683 43.4406 12.9294 43.6944 12.8225C43.7345 12.8056 43.7565 12.7626 43.747 12.7203C43.7465 12.7182 43.7451 12.7164 43.7446 12.7142C44.2809 12.5799 45.2685 12.2698 46.2879 11.6311C46.0684 11.996 45.4306 12.6745 43.6251 13.1011C43.5784 13.1122 43.5486 13.1581 43.5578 13.2053C43.567 13.2525 43.6118 13.2835 43.6592 13.2767C43.6726 13.2747 44.9 13.0819 46.1672 12.3566C46.017 12.5235 45.7952 12.7274 45.4836 12.9203Z" fill="#464655"/>
</g>
<defs>
<clipPath id="clip0_11_1150">
<rect width="48" height="48" fill="white"/>
</clipPath>
</defs>
</svg>
