<svg width="48" height="48" viewBox="0 0 48 48" fill="none" xmlns="http://www.w3.org/2000/svg">
<path d="M16 39.7239H0.827625C0.370594 39.7239 0 39.3533 0 38.8963V9.10326C0 8.64623 0.370594 8.27563 0.827625 8.27563H16V39.7239Z" fill="#41479B"/>
<path d="M32.0007 8.27588H16.0004V39.7243H32.0007V8.27588Z" fill="#FFE15A"/>
<path d="M47.1724 39.7239H32V8.27563H47.1724C47.6294 8.27563 48 8.64623 48 9.10326V38.8963C48 39.3534 47.6294 39.7239 47.1724 39.7239Z" fill="#FF4B55"/>
<path d="M29.627 26.6896C29.627 26.4494 29.4323 26.2546 29.192 26.2546C29.1399 26.2546 29.0905 26.2652 29.0441 26.2821C28.8289 26.0907 28.4388 25.6157 28.8302 24.9449C28.8831 24.986 28.9488 25.0115 29.021 25.0115C29.1936 25.0115 29.3334 24.8717 29.3334 24.6992C29.3334 24.5628 29.2455 24.4481 29.1237 24.4054C29.4454 24.2414 29.9041 23.8931 29.8805 23.2418C29.8468 22.3182 29.0903 21.8084 28.6261 22.0122C28.6278 21.9992 28.63 21.9865 28.63 21.9732C28.63 21.803 28.4921 21.6651 28.322 21.6651C28.2174 21.6651 28.1253 21.7175 28.0697 21.7972C28.0508 21.7049 28.053 21.5334 28.2677 21.3481C28.6664 21.0037 29.1195 20.1791 28.2949 19.5992C27.8382 19.2781 26.9654 19.1242 26.6729 19.563C26.5461 19.7532 26.6478 20.0266 26.7926 20.088C26.5593 20.2181 26.1166 20.4134 25.7668 20.2607C25.2684 20.0433 25.5563 19.6114 25.6672 19.418C25.862 19.0782 25.7397 18.5209 25.0872 18.5209C24.6522 18.5209 24.4348 18.9559 23.9999 18.9559C23.565 18.9559 23.3475 18.5209 22.9126 18.5209C22.2602 18.5209 22.1379 19.0782 22.3327 19.418C22.4436 19.6113 22.7314 20.0432 22.233 20.2607C21.8832 20.4135 21.4406 20.2181 21.2072 20.088C21.3519 20.0267 21.4538 19.7533 21.3269 19.563C21.0345 19.1243 20.1616 19.2781 19.7049 19.5992C18.8803 20.1791 19.3335 21.0036 19.7321 21.3481C19.9468 21.5334 19.9491 21.705 19.9301 21.7972C19.8744 21.7175 19.7824 21.6651 19.6779 21.6651C19.5077 21.6651 19.3698 21.803 19.3698 21.9732C19.3698 21.9865 19.372 21.9993 19.3737 22.0122C18.9096 21.8083 18.1529 22.3182 18.1194 23.2418C18.0956 23.893 18.5544 24.2413 18.8761 24.4054C18.7543 24.4482 18.6665 24.5628 18.6665 24.6992C18.6665 24.8717 18.8064 25.0115 18.9789 25.0115C19.051 25.0115 19.1167 24.9861 19.1696 24.9449C19.561 25.6157 19.171 26.0907 18.9557 26.2821C18.9094 26.2652 18.86 26.2546 18.8079 26.2546C18.5677 26.2546 18.3729 26.4493 18.3729 26.6896C18.3729 26.915 18.5451 27.0983 18.7649 27.1202C18.4651 27.4282 18.1961 28.107 18.7807 28.878C19.4195 29.7207 20.9418 29.6527 21.6758 29.6799C22.1411 29.6972 22.4912 29.9381 22.6855 30.1124C22.5613 30.189 22.4777 30.3251 22.4777 30.4817C22.4777 30.7014 22.6411 30.8811 22.8527 30.9107C22.9296 31.0337 23.065 31.1161 23.2208 31.1161C23.3948 31.1161 23.5437 31.0132 23.6134 30.8655C23.8431 31.0547 24.0001 31.1342 24.0001 31.1342C24.0001 31.1342 24.1571 31.0548 24.3868 30.8655C24.4564 31.0131 24.6054 31.1161 24.7794 31.1161C24.9352 31.1161 25.0706 31.0337 25.1475 30.9107C25.3591 30.8811 25.5225 30.7014 25.5225 30.4817C25.5225 30.325 25.4389 30.1889 25.3147 30.1124C25.5089 29.9381 25.859 29.6971 26.3244 29.6799C27.0584 29.6527 28.5807 29.7207 29.2195 28.878C29.804 28.107 29.5351 27.4281 29.2353 27.1202C29.4548 27.0982 29.627 26.915 29.627 26.6896Z" fill="#DCBE82"/>
<path d="M20.0854 21.103V27.4099C20.0854 28.1305 20.6695 28.7148 21.3903 28.7148H23.1301C23.7825 28.7148 24 29.1498 24 29.1498C24 29.1498 24.2174 28.7148 24.8699 28.7148H26.6097C27.3304 28.7148 27.9146 28.1306 27.9146 27.4099V21.103C27.9146 20.9829 27.8173 20.8856 27.6972 20.8856H20.303C20.1827 20.8856 20.0854 20.9829 20.0854 21.103Z" fill="#D2AA73"/>
<path d="M23.7822 21.3204H20.5201V24.5825H23.7822V21.3204Z" fill="#FF4B55"/>
<path d="M23.7827 28.2798C21.981 28.2798 20.5206 26.8194 20.5206 25.0177H23.7827V28.2798Z" fill="#FF4B55"/>
<path d="M24.2177 28.2798V25.0177H27.4798C27.4797 26.8192 26.0192 28.2798 24.2177 28.2798Z" fill="#FFE15A"/>
<path d="M24.6837 21.3204H24.2177V24.5825H24.6837V21.3204Z" fill="#FFE15A"/>
<path d="M25.1494 21.3204H24.6834V24.5825H25.1494V21.3204Z" fill="#FF4B55"/>
<path d="M25.6156 21.3204H25.1496V24.5825H25.6156V21.3204Z" fill="#FFE15A"/>
<path d="M26.0821 21.3204H25.616V24.5825H26.0821V21.3204Z" fill="#FF4B55"/>
<path d="M26.5471 21.3204H26.0811V24.5825H26.5471V21.3204Z" fill="#FFE15A"/>
<path d="M27.479 21.3204H27.013V24.5825H27.479V21.3204Z" fill="#FFE15A"/>
<path d="M27.014 21.3204H26.548V24.5825H27.014V21.3204Z" fill="#FF4B55"/>
<path d="M21.97 25.0179H21.6075V28.2801H21.97V25.0179Z" fill="#FF4B55"/>
<path d="M22.3327 25.0179H21.9702V28.28H22.3327V25.0179Z" fill="#FFE15A"/>
<path d="M23.0585 25.0179H22.696V28.28H23.0585V25.0179Z" fill="#FFE15A"/>
<path d="M22.6947 25.0179H22.3322V28.28H22.6947V25.0179Z" fill="#FF4B55"/>
<path d="M23.7821 25.0179H23.4196V28.28H23.7821V25.0179Z" fill="#FFE15A"/>
<path d="M23.4201 25.0179H23.0576V28.28H23.4201V25.0179Z" fill="#FF4B55"/>
<path d="M20.883 28.1139V25.0177H20.5206V27.4099C20.5206 27.7003 20.6643 27.9558 20.883 28.1139Z" fill="#FFE15A"/>
<path d="M21.2454 28.2652V25.0176H20.8829V28.1138C20.9885 28.1901 21.1114 28.2426 21.2454 28.2652Z" fill="#FF4B55"/>
<path d="M21.2452 25.0177V28.2653C21.2925 28.2733 21.3404 28.2799 21.3902 28.2799H21.6076V25.0178H21.2452V25.0177Z" fill="#FFE15A"/>
<path d="M21.0064 24.3975C20.9902 24.3975 20.9737 24.3929 20.9592 24.3834C20.7454 24.2418 20.7329 24.0944 20.7445 24.0192C20.7602 23.9176 20.8357 23.8333 20.9371 23.8043C21.0335 23.7772 21.1296 23.8057 21.1945 23.8811C21.3295 24.0381 21.4689 24.0998 21.5863 24.0564C21.6792 24.022 21.7346 23.9304 21.7346 23.862C21.7346 23.8147 21.7729 23.7763 21.8203 23.7763C21.8678 23.7763 21.906 23.8146 21.906 23.862C21.906 24.0118 21.7967 24.1612 21.6459 24.217C21.5358 24.2577 21.3142 24.2828 21.0647 23.9929C21.0379 23.9619 21.0064 23.9629 20.9841 23.9691C20.9537 23.9778 20.92 24.0048 20.9138 24.0452C20.9047 24.1043 20.9557 24.1753 21.0537 24.2403C21.0933 24.2663 21.104 24.3196 21.0779 24.3591C21.0614 24.3838 21.0342 24.3975 21.0064 24.3975Z" fill="white"/>
<path d="M23.3063 24.3975C23.2785 24.3975 23.2512 24.384 23.2348 24.3593C23.2088 24.3197 23.2196 24.2666 23.259 24.2405C23.357 24.1756 23.408 24.1045 23.3989 24.0454C23.3926 24.005 23.3591 23.978 23.3287 23.9693C23.3064 23.9631 23.2748 23.9621 23.2481 23.9931C22.9985 24.2833 22.7769 24.2581 22.6668 24.2173C22.5161 24.1614 22.4067 24.012 22.4067 23.8622C22.4067 23.8149 22.445 23.7766 22.4924 23.7766C22.5398 23.7766 22.5781 23.8148 22.5781 23.8622C22.5781 23.9307 22.6335 24.0222 22.7264 24.0567C22.8438 24.1003 22.9833 24.0383 23.1182 23.8814C23.1832 23.8055 23.2794 23.7773 23.3757 23.8046C23.4769 23.8335 23.5526 23.9178 23.5682 24.0195C23.5798 24.0946 23.5674 24.242 23.3535 24.3836C23.339 24.3928 23.3225 24.3975 23.3063 24.3975Z" fill="white"/>
<path d="M20.9596 24.4991C20.9415 24.4991 20.9233 24.4933 20.9078 24.4817C20.8701 24.4529 20.8629 24.3993 20.8915 24.3616L22.7537 21.9129C22.7715 21.8808 22.7783 21.8363 22.786 21.785C22.8003 21.6888 22.8183 21.5691 22.9651 21.4808C23.0608 21.4234 23.1744 21.425 23.2693 21.4856C23.3742 21.5526 23.4359 21.6773 23.4232 21.7959C23.4155 21.868 23.3734 21.9995 23.1783 22.0718C23.1337 22.0884 23.0846 22.0655 23.0683 22.0213C23.0518 21.977 23.0744 21.9276 23.1187 21.9113C23.1756 21.8902 23.2451 21.8499 23.2528 21.7777C23.2587 21.7229 23.2275 21.6624 23.177 21.63C23.1488 21.6119 23.1044 21.5964 23.0533 21.6277C22.9756 21.6744 22.9679 21.7255 22.9552 21.8104C22.9462 21.8705 22.936 21.9385 22.8958 22.0078L21.0277 24.4653C21.0111 24.4874 20.9855 24.4991 20.9596 24.4991Z" fill="#FFE15A"/>
<path d="M22.1637 21.8057L21.307 22.8337L21.6497 23.8618H22.6777L23.0204 22.8337L22.1637 21.8057Z" fill="#FFE15A"/>
<path d="M22.1631 21.672L21.21 22.8157L21.5873 23.9476H22.7387L23.116 22.8157L22.1631 21.672ZM21.4027 22.8521L22.0774 22.0425V23.7762H21.7107L21.4027 22.8521ZM22.6153 23.7763H22.2487V22.0426L22.9234 22.8522L22.6153 23.7763Z" fill="white"/>
<path d="M26.6778 26.0475L26.6907 25.8575C26.6907 25.8575 26.8593 25.7366 26.7771 25.6243C26.6951 25.5119 26.6 25.4903 26.4012 25.5163C26.2025 25.5422 25.8914 25.5379 25.7576 25.5464C25.6236 25.5552 25.5545 25.6285 25.3428 25.5681L25.399 25.4384C25.399 25.4384 25.2997 25.4472 25.2391 25.4773C25.2061 25.4939 25.1268 25.3866 25.0491 25.4039C24.9716 25.4211 24.8936 25.581 24.7725 25.6632L24.8373 25.7928C24.8373 25.7928 24.9107 25.7582 24.967 25.7971C25.0231 25.836 25.0404 25.8619 25.1355 25.8619L25.1961 25.8879C25.1961 25.8879 25.1744 26.0261 25.2652 26.0909C25.2652 26.0909 25.1615 26.2249 25.1744 26.2464C25.1874 26.268 25.2737 26.4322 25.3084 26.5272L25.3862 26.3803C25.3862 26.3803 25.2695 26.2766 25.2911 26.2635C25.3128 26.2506 25.3904 26.2334 25.3775 26.1988C25.3646 26.1642 25.4381 26.2031 25.5201 26.216C25.5201 26.216 25.5244 26.3457 25.5417 26.3629C25.5591 26.3802 25.585 26.4493 25.5806 26.5228C25.5763 26.5962 25.5116 26.6178 25.5116 26.6178L25.6283 26.6524C25.6283 26.6524 25.6585 26.6092 25.6801 26.6135C25.6801 26.6135 25.6714 26.2549 25.719 26.1988C25.719 26.1988 25.9998 26.2549 26.1294 26.1858C26.1294 26.1858 26.146 26.2067 26.1783 26.2266C26.1654 26.2567 26.1544 26.2867 26.1593 26.2955C26.1702 26.3151 26.2048 26.3129 26.2135 26.2912C26.2167 26.283 26.2218 26.2663 26.2269 26.2489C26.2425 26.2541 26.2597 26.2581 26.2793 26.2601C26.2774 26.2874 26.2772 26.3125 26.2835 26.3183C26.2998 26.3334 26.3322 26.3205 26.3337 26.2972C26.3342 26.2896 26.3338 26.2753 26.3335 26.2599C26.3558 26.258 26.3796 26.2541 26.4058 26.2463L26.2589 26.4883L26.1855 26.5184L26.2806 26.566L26.3669 26.5314C26.3669 26.5314 26.449 26.324 26.5829 26.2635C26.5829 26.2635 26.6737 26.4795 26.5613 26.5963L26.6606 26.6524L26.7081 26.553C26.7081 26.553 26.6908 26.3587 26.7556 26.2333L26.6778 26.0475Z" fill="#FF4B55"/>
<path d="M25.0506 25.4302C25.0506 25.4302 25.0072 25.3891 24.9964 25.3349C24.9855 25.2807 24.9725 25.2568 24.9247 25.2417C24.9247 25.2417 24.955 25.2764 24.9508 25.3306C24.9465 25.3848 24.9508 25.4585 24.9811 25.4824L25.0506 25.4302Z" fill="#4173CD"/>
<path d="M25.4278 25.5832C25.4278 25.5832 25.3689 25.7836 25.1956 25.8879L25.1352 25.8619C25.1352 25.8619 25.3202 25.7039 25.3426 25.5681L25.4278 25.5832Z" fill="#4173CD"/>
<path d="M25.1331 25.4779C25.1269 25.4715 25.209 25.4476 25.1894 25.3826C25.1698 25.3175 25.1698 25.2698 25.209 25.2395C25.209 25.2395 25.2133 25.2937 25.2437 25.3284C25.274 25.3631 25.2914 25.4498 25.2416 25.4997C25.2416 25.4997 25.1916 25.5387 25.1331 25.4779Z" fill="#4173CD"/>
<path d="M25.1422 26.0692C25.1319 26.0641 25.1275 26.0514 25.1327 26.0411L25.1588 25.9879C25.1741 25.9567 25.164 25.9178 25.1339 25.9005C25.1008 25.8815 25.0592 25.8946 25.0427 25.9283L25.0155 25.9836C25.0104 25.9939 24.9978 25.9983 24.9875 25.9931L24.9712 26.0263C24.9712 26.0263 24.9952 26.0381 25.0242 26.0524L25.0236 26.0536C25.0169 26.067 25.0225 26.0833 25.0359 26.0899C25.0493 26.0965 25.0657 26.0909 25.0722 26.0775L25.0729 26.0763C25.1019 26.0905 25.1259 26.1024 25.1259 26.1024L25.1422 26.0692Z" fill="#4173CD"/>
<path d="M25.3522 26.4342L25.4171 26.4472L25.3629 26.6142L25.3081 26.5271L25.3522 26.4342Z" fill="#4173CD"/>
<path d="M25.511 26.6179L25.4713 26.688H25.6273L25.6276 26.6525L25.511 26.6179Z" fill="#4173CD"/>
<path d="M26.2801 26.566V26.6077H26.1029L26.1886 26.522L26.2801 26.566Z" fill="#4173CD"/>
<path d="M26.5607 26.5962L26.4733 26.6838H26.6574L26.6601 26.6524L26.5607 26.5962Z" fill="#4173CD"/>
<path d="M26.6778 27.4011L26.6907 27.211C26.6907 27.211 26.8593 27.0901 26.7771 26.9778C26.6951 26.8655 26.6 26.8438 26.4012 26.8698C26.2025 26.8957 25.8914 26.8914 25.7576 26.9C25.6236 26.9087 25.5545 26.982 25.3428 26.9216L25.399 26.792C25.399 26.792 25.2997 26.8007 25.2391 26.8309C25.2061 26.8475 25.1268 26.7401 25.0491 26.7575C24.9716 26.7746 24.8936 26.9346 24.7725 27.0167L24.8373 27.1463C24.8373 27.1463 24.9107 27.1117 24.967 27.1506C25.0231 27.1896 25.0404 27.2154 25.1355 27.2154L25.1961 27.2414C25.1961 27.2414 25.1744 27.3796 25.2652 27.4445C25.2652 27.4445 25.1615 27.5784 25.1744 27.5999C25.1874 27.6216 25.2737 27.7857 25.3084 27.8807L25.3862 27.7338C25.3862 27.7338 25.2695 27.6301 25.2911 27.6171C25.3128 27.6041 25.3904 27.5869 25.3775 27.5523C25.3646 27.5177 25.4381 27.5566 25.5201 27.5695C25.5201 27.5695 25.5244 27.6992 25.5417 27.7164C25.5591 27.7337 25.585 27.8028 25.5806 27.8763C25.5763 27.9497 25.5116 27.9713 25.5116 27.9713L25.6283 28.0059C25.6283 28.0059 25.6585 27.9627 25.6801 27.967C25.6801 27.967 25.6714 27.6084 25.719 27.5523C25.719 27.5523 25.9998 27.6084 26.1294 27.5393C26.1294 27.5393 26.146 27.5602 26.1783 27.5801C26.1654 27.6102 26.1544 27.6402 26.1593 27.649C26.1702 27.6686 26.2048 27.6664 26.2135 27.6447C26.2167 27.6366 26.2218 27.6198 26.2269 27.6024C26.2425 27.6076 26.2597 27.6116 26.2793 27.6136C26.2774 27.6409 26.2772 27.666 26.2835 27.6718C26.2998 27.6869 26.3322 27.6741 26.3337 27.6507C26.3342 27.6431 26.3338 27.6288 26.3335 27.6134C26.3558 27.6115 26.3796 27.6076 26.4058 27.5998L26.2589 27.8418L26.1855 27.872L26.2806 27.9195L26.3669 27.8849C26.3669 27.8849 26.449 27.6775 26.5829 27.6171C26.5829 27.6171 26.6737 27.8331 26.5613 27.9498L26.6606 28.0059L26.7081 27.9066C26.7081 27.9066 26.6908 27.7122 26.7556 27.5869L26.6778 27.4011Z" fill="#FF4B55"/>
<path d="M25.0506 26.7839C25.0506 26.7839 25.0072 26.7428 24.9964 26.6886C24.9855 26.6344 24.9725 26.6105 24.9247 26.5954C24.9247 26.5954 24.955 26.6301 24.9508 26.6843C24.9465 26.7385 24.9508 26.8122 24.9811 26.8361L25.0506 26.7839Z" fill="#4173CD"/>
<path d="M25.4278 26.9368C25.4278 26.9368 25.3688 27.1373 25.1955 27.2415L25.135 27.2156C25.135 27.2156 25.3199 27.0575 25.3424 26.9218L25.4278 26.9368Z" fill="#4173CD"/>
<path d="M25.1331 26.8316C25.1269 26.8252 25.209 26.8013 25.1894 26.7363C25.1698 26.6712 25.1698 26.6235 25.209 26.5932C25.209 26.5932 25.2133 26.6474 25.2437 26.6821C25.274 26.7168 25.2914 26.8035 25.2416 26.8534C25.2416 26.8534 25.1916 26.8923 25.1331 26.8316Z" fill="#4173CD"/>
<path d="M25.1422 27.4229C25.1319 27.4178 25.1275 27.4051 25.1327 27.3948L25.1588 27.3416C25.1741 27.3104 25.164 27.2715 25.1339 27.2542C25.1008 27.2352 25.0592 27.2483 25.0427 27.282L25.0155 27.3373C25.0104 27.3476 24.9978 27.352 24.9875 27.3468L24.9712 27.38C24.9712 27.38 24.9952 27.3918 25.0242 27.4061L25.0236 27.4073C25.0169 27.4207 25.0225 27.437 25.0359 27.4436C25.0493 27.4502 25.0657 27.4446 25.0722 27.4312L25.0729 27.43C25.1019 27.4442 25.1259 27.4561 25.1259 27.4561L25.1422 27.4229Z" fill="#4173CD"/>
<path d="M25.3522 27.788L25.4171 27.801L25.3629 27.968L25.3081 27.8809L25.3522 27.788Z" fill="#4173CD"/>
<path d="M25.511 27.9716L25.4713 28.0417H25.6273L25.6276 28.0061L25.511 27.9716Z" fill="#4173CD"/>
<path d="M26.2801 27.9197V27.9614H26.1029L26.1886 27.8757L26.2801 27.9197Z" fill="#4173CD"/>
<path d="M26.5607 27.9499L26.4733 28.0375H26.6574L26.6601 28.006L26.5607 27.9499Z" fill="#4173CD"/>
</svg>
