<svg width="48" height="48" viewBox="0 0 48 48" fill="none" xmlns="http://www.w3.org/2000/svg">
<path d="M47.9999 18.7588H0V9.10359C0 8.64656 0.370593 8.27597 0.827623 8.27597H47.1724C47.6294 8.27597 48 8.64656 48 9.10359L47.9999 18.7588Z" fill="#82AFFF"/>
<path d="M47.1723 39.7244H0.827623C0.370593 39.7244 0 39.3538 0 38.8968V29.2417H47.9999V38.8968C47.9999 39.3539 47.6293 39.7244 47.1723 39.7244Z" fill="#82AFFF"/>
<path d="M47.9999 18.7587H0V29.2408H47.9999V18.7587Z" fill="white"/>
<path d="M28.1378 23.7933H25.158C25.2136 23.7511 25.2576 23.7096 25.2973 23.6704C25.3701 23.5992 25.4279 23.5427 25.5814 23.4796C25.7357 23.4149 25.8165 23.4142 25.9188 23.4126C26.042 23.4117 26.1815 23.4094 26.4094 23.3156C26.6369 23.221 26.7363 23.1239 26.8241 23.0383C26.8968 22.9672 26.9547 22.9106 27.1085 22.8467C27.2616 22.7829 27.3421 22.782 27.4438 22.7813C27.5667 22.7796 27.7061 22.7781 27.934 22.6835L27.7748 22.3019C27.6217 22.3658 27.5411 22.3666 27.4394 22.3674C27.3165 22.3691 27.1772 22.3706 26.9497 22.4644C26.7222 22.559 26.6228 22.656 26.535 22.7416C26.4623 22.8128 26.4044 22.8693 26.251 22.9324C26.0967 22.9971 26.0158 22.9978 25.9136 22.9994C25.7904 23.0003 25.6509 23.0026 25.423 23.0972C25.1955 23.191 25.0961 23.2888 25.0083 23.3744C24.9367 23.4441 24.8775 23.4999 24.7303 23.5621L27.0721 21.2205L26.7795 20.9279L24.6716 23.0357C24.6808 22.9668 24.6834 22.9055 24.6839 22.8499C24.6852 22.7472 24.686 22.6672 24.7498 22.5129C24.8137 22.3586 24.8702 22.3011 24.9415 22.2284C25.0279 22.1403 25.1253 22.0402 25.2198 21.8123C25.3139 21.5844 25.3156 21.4453 25.3168 21.3225C25.3181 21.2207 25.3189 21.1398 25.3823 20.9863C25.4461 20.8328 25.5023 20.7754 25.5734 20.7026C25.6595 20.6145 25.7568 20.5151 25.8511 20.288L25.4689 20.1297C25.4051 20.2832 25.3489 20.3406 25.2778 20.4133C25.1917 20.5015 25.0944 20.6009 25.0001 20.828C24.9059 21.0559 24.9043 21.1949 24.903 21.3177C24.9018 21.4196 24.901 21.5005 24.8376 21.6539C24.7738 21.8082 24.7172 21.8657 24.646 21.9384C24.5595 22.0265 24.4621 22.1266 24.3676 22.3545C24.2735 22.5824 24.2718 22.7223 24.2703 22.8451C24.2695 22.9448 24.2667 23.0253 24.2069 23.1732V19.8622H23.7931V22.8418C23.7509 22.7866 23.7095 22.7427 23.6707 22.703C23.5993 22.6302 23.543 22.572 23.4791 22.4186C23.4152 22.2642 23.414 22.1834 23.4128 22.0807C23.4116 21.9578 23.41 21.818 23.3155 21.5901C23.2214 21.363 23.1239 21.2636 23.0378 21.1754C22.9666 21.1027 22.9106 21.0453 22.8466 20.8917C22.7833 20.7382 22.7824 20.6574 22.7812 20.5556C22.78 20.4326 22.7784 20.2937 22.6842 20.0666L22.302 20.2249C22.3653 20.3785 22.3662 20.4585 22.3674 20.5602C22.3686 20.6831 22.3702 20.8221 22.4644 21.05C22.5585 21.2771 22.656 21.3764 22.7421 21.4646C22.8133 21.5374 22.8693 21.5948 22.9333 21.7483C22.9971 21.9026 22.9983 21.9835 22.9995 22.0862C23.0008 22.2091 23.0024 22.3489 23.0969 22.5768C23.191 22.8047 23.2885 22.9041 23.3745 22.9922C23.4447 23.0635 23.5002 23.123 23.5624 23.2699L21.2204 20.9281L20.9278 21.2207L23.2662 23.5588C23.1379 23.5006 23.076 23.4471 23.0088 23.3818C22.9204 23.2954 22.8206 23.1976 22.5918 23.103C22.3639 23.0093 22.2245 23.0068 22.1012 23.0052C21.9986 23.0044 21.9179 23.0029 21.7622 22.9382C21.6066 22.8744 21.5485 22.8178 21.4745 22.7459C21.3861 22.6602 21.2858 22.5626 21.0567 22.4671C20.8279 22.3725 20.688 22.3709 20.5645 22.3693C20.4615 22.3676 20.3803 22.3661 20.2246 22.3015L20.0663 22.6845C20.2951 22.7791 20.4349 22.7807 20.5585 22.7823C20.6615 22.784 20.7427 22.7855 20.8983 22.8502C21.0543 22.914 21.1125 22.9706 21.1864 23.0425C21.2748 23.1289 21.3751 23.2258 21.6038 23.3205C21.8325 23.4159 21.9724 23.4176 22.0956 23.4191C22.1983 23.4208 22.279 23.4215 22.4339 23.4862C22.5886 23.55 22.6465 23.6066 22.7196 23.6778C22.7572 23.7146 22.7992 23.7536 22.85 23.7934H19.8617V24.2072H23.1668C23.0362 24.2569 22.9545 24.2632 22.8609 24.2646C22.7377 24.2654 22.5982 24.2678 22.3699 24.3616C22.1416 24.4562 22.0413 24.5539 21.9529 24.6397C21.8793 24.7116 21.8216 24.7681 21.6668 24.832C21.5112 24.8966 21.43 24.8982 21.327 24.8998C21.2033 24.9015 21.0635 24.903 20.8348 24.9976C20.6056 25.093 20.5054 25.1899 20.4169 25.2764C20.343 25.3483 20.2848 25.4049 20.1292 25.4687L20.2876 25.8518C20.5163 25.7564 20.6165 25.6595 20.7049 25.573C20.7789 25.501 20.837 25.4445 20.993 25.3807C21.1486 25.316 21.2298 25.3144 21.3329 25.3128C21.4565 25.3111 21.5963 25.3096 21.8255 25.2142C22.0534 25.1196 22.1533 25.0225 22.2417 24.9361C22.3148 24.865 22.373 24.8084 22.5283 24.7445C22.6826 24.6798 22.7639 24.679 22.8661 24.6775C22.9184 24.6772 22.9774 24.6737 23.0413 24.6658L20.9273 26.7795L21.2199 27.0721L23.5572 24.7352C23.4996 24.8629 23.4464 24.9245 23.381 24.9919C23.2949 25.08 23.1976 25.1801 23.1029 25.408C23.0083 25.636 23.0063 25.7767 23.0052 25.8994C23.0035 26.002 23.0028 26.0828 22.9384 26.238C22.8742 26.394 22.8172 26.4521 22.7457 26.5257C22.6592 26.6139 22.5618 26.7148 22.4669 26.9436C22.3719 27.1723 22.3702 27.3122 22.3687 27.4358C22.367 27.5384 22.3659 27.62 22.3017 27.7751L22.6839 27.9335C22.7789 27.7047 22.7805 27.5649 22.782 27.4413C22.7837 27.3386 22.7849 27.2571 22.8491 27.1019C22.9133 26.9459 22.9703 26.8878 23.0418 26.8142C23.1283 26.7261 23.2257 26.6251 23.3206 26.3964C23.4152 26.1685 23.4173 26.0277 23.4184 25.905C23.4201 25.8024 23.4208 25.7216 23.4852 25.5664C23.549 25.4112 23.6055 25.3538 23.6771 25.2803C23.7138 25.2426 23.7529 25.2005 23.7927 25.1495V28.138H24.2065V24.8332C24.2558 24.9635 24.2621 25.045 24.2635 25.1389C24.2647 25.2618 24.2667 25.4016 24.3613 25.6295C24.4554 25.8582 24.5532 25.9585 24.6393 26.0465C24.7108 26.1201 24.7674 26.1782 24.8316 26.3334C24.8958 26.4885 24.897 26.5702 24.8986 26.6727C24.9003 26.7964 24.9018 26.9362 24.9968 27.1649C25.0918 27.3937 25.1891 27.4947 25.2756 27.5828C25.347 27.6564 25.404 27.7145 25.4683 27.8705L25.8506 27.7121C25.7556 27.4834 25.6583 27.3823 25.5717 27.2943C25.5003 27.2207 25.4433 27.1626 25.379 27.0066C25.3148 26.8514 25.3136 26.7698 25.312 26.6672C25.3103 26.5435 25.3088 26.4038 25.2138 26.175C25.1192 25.9463 25.0219 25.846 24.9358 25.758C24.8643 25.6844 24.8077 25.6263 24.7435 25.4711C24.6793 25.3168 24.6784 25.236 24.6767 25.1333C24.6762 25.081 24.6728 25.022 24.6649 24.9581L26.7792 27.0722L27.0717 26.7796L24.9641 24.6723C25.0325 24.6814 25.0938 24.6841 25.149 24.6849C25.2512 24.6857 25.3318 24.6866 25.4861 24.7503C25.6404 24.815 25.6982 24.8707 25.7713 24.9426C25.8595 25.0283 25.9592 25.126 26.1872 25.2206C26.4147 25.3144 26.5542 25.316 26.677 25.3168C26.7788 25.3185 26.8592 25.3192 27.0128 25.3831C27.1663 25.4461 27.2237 25.5027 27.2965 25.5739C27.3846 25.6596 27.4841 25.7573 27.7115 25.852L27.8698 25.4689C27.7163 25.4059 27.6589 25.3493 27.5861 25.2781C27.498 25.1924 27.3986 25.0947 27.1711 25C26.9437 24.9063 26.8042 24.9047 26.6814 24.9039C26.5796 24.9022 26.4991 24.9015 26.3456 24.8376C26.1912 24.7737 26.1334 24.718 26.0603 24.646C25.9722 24.5603 25.8724 24.4626 25.6444 24.3687C25.4165 24.2734 25.2771 24.2717 25.1538 24.271C25.0535 24.2693 24.9722 24.2674 24.8234 24.2071H28.1375V23.7933H28.1378Z" fill="#F09146"/>
<path d="M24 26.069C25.1427 26.069 26.0691 25.1426 26.0691 23.9999C26.0691 22.8572 25.1427 21.9308 24 21.9308C22.8573 21.9308 21.931 22.8572 21.931 23.9999C21.931 25.1426 22.8573 26.069 24 26.069Z" fill="#FFE15A"/>
</svg>
