<svg width="48" height="48" viewBox="0 0 48 48" fill="none" xmlns="http://www.w3.org/2000/svg">
<path d="M47.1723 39.7242H0.827623C0.370593 39.7242 0 39.3536 0 38.8966V9.10362C0 8.64659 0.370593 8.276 0.827623 8.276H47.1724C47.6294 8.276 48 8.64659 48 9.10362V38.8966C47.9999 39.3537 47.6293 39.7242 47.1723 39.7242Z" fill="#4173CD"/>
<path d="M47.9999 29.7927H0V31.4479H47.9999V29.7927Z" fill="#FFE15A"/>
<path d="M47.9999 33.103H0V34.7581H47.9999V33.103Z" fill="#FFE15A"/>
<path d="M6.11568 16.4945L3.03619 15.4429L6.11568 14.3914L7.16727 11.3123L8.21877 14.3914L11.2983 15.4429L8.21877 16.4945L7.16727 19.5737L6.11568 16.4945Z" fill="#FF4B55"/>
<path d="M7.16716 11.8656L8.07785 14.5323L10.7446 15.443L8.07785 16.3537L7.16716 19.0204L6.25647 16.3537L3.58976 15.443L6.25647 14.5323L7.16716 11.8656ZM7.16716 10.7586L6.82854 11.7499L5.97466 14.2505L3.47417 15.1044L2.48286 15.443L3.47417 15.7814L5.97466 16.6353L6.82854 19.1358L7.16716 20.1271L7.50578 19.1358L8.35966 16.6353L10.8602 15.7814L11.8515 15.443L10.8602 15.1046L8.35966 14.2507L7.50578 11.7502L7.16716 10.7586Z" fill="white"/>
</svg>
