<svg width="48" height="48" viewBox="0 0 48 48" fill="none" xmlns="http://www.w3.org/2000/svg">
<path d="M47.1723 8.27112H0.827623C0.370593 8.27112 0 8.64171 0 9.09874V38.8917C0 39.3487 0.370593 39.7193 0.827623 39.7193H47.1724C47.6294 39.7193 48 39.3487 48 38.8917V9.09874C47.9999 8.64171 47.6293 8.27112 47.1723 8.27112Z" fill="#73AF00"/>
<path d="M3.77483 8.27112L23.9998 21.522L44.2248 8.27112H3.77483Z" fill="#FF4B55"/>
<path d="M44.2248 39.7288L23.9998 26.478L3.77483 39.7288H44.2248Z" fill="#FF4B55"/>
<path d="M47.9999 9.09874C47.9999 8.64171 47.6293 8.27112 47.1723 8.27112H44.225L28.8464 18.3467C27.5433 17.2276 25.8525 16.5471 24 16.5471C22.1475 16.5471 20.4566 17.2275 19.1535 18.3467L3.77493 8.27112H0.827623C0.370593 8.27112 0 8.64171 0 9.09874V10.7444L16.8804 21.8039C16.6674 22.4968 16.5516 23.2326 16.5516 23.9952C16.5516 24.758 16.6674 25.4935 16.8804 26.1865L0 37.2461V38.8918C0 39.3488 0.370593 39.7194 0.827623 39.7194H3.77493L19.1534 29.6439C20.4565 30.763 22.1474 31.4436 23.9999 31.4436C25.8524 31.4436 27.5432 30.7632 28.8464 29.6439L44.2248 39.7194H47.1721C47.6291 39.7194 47.9997 39.3488 47.9997 38.8918V37.2461L31.1194 26.1866C31.3324 25.4937 31.4482 24.758 31.4482 23.9953C31.4482 23.2326 31.3324 22.497 31.1194 21.804L47.9998 10.7445L47.9999 9.09874Z" fill="white"/>
<path d="M23.4636 21.6136L22.3415 21.6426L22.9274 20.6849L22.3415 19.7272L23.4636 19.7563L23.9998 18.7696L24.5361 19.7563L25.6583 19.7272L25.0723 20.6849L25.6583 21.6426L24.5361 21.6136L23.9998 22.6003L23.4636 21.6136Z" fill="#FF4B55"/>
<path d="M23.9999 19.0298L24.4633 19.8821L25.4333 19.8573L24.9268 20.6849L25.4333 21.5125L24.4633 21.4877L23.9999 22.3401L23.5365 21.4877L22.5666 21.5125L23.073 20.6849L22.5666 19.8573L23.5365 19.8821L23.9999 19.0298ZM23.9999 18.51L23.7818 18.9112L23.3909 19.6301L22.5728 19.6091L22.1164 19.5974L22.3547 19.987L22.7819 20.685L22.3547 21.383L22.1164 21.7726L22.5728 21.7609L23.3909 21.7399L23.7818 22.4588L23.9999 22.86L24.2181 22.4588L24.6089 21.7399L25.427 21.7609L25.8835 21.7726L25.6452 21.383L25.218 20.685L25.6452 19.987L25.8835 19.5974L25.427 19.6091L24.6089 19.6301L24.2181 18.9112L23.9999 18.51Z" fill="#73AF00"/>
<path d="M20.3817 27.0988L19.2596 27.1279L19.8455 26.1702L19.2596 25.2125L20.3817 25.2416L20.918 24.2548L21.4542 25.2416L22.5763 25.2125L21.9904 26.1702L22.5763 27.1279L21.4542 27.0988L20.918 28.0855L20.3817 27.0988Z" fill="#FF4B55"/>
<path d="M20.9181 24.515L21.3815 25.3674L22.3514 25.3426L21.845 26.1702L22.3514 26.9978L21.3815 26.973L20.9181 27.8253L20.4547 26.973L19.4847 26.9978L19.9912 26.1702L19.4847 25.3426L20.4547 25.3674L20.9181 24.515ZM20.9181 23.9952L20.6999 24.3963L20.3091 25.1153L19.491 25.0943L19.0345 25.0826L19.2728 25.4722L19.7 26.1702L19.2728 26.8681L19.0345 27.2578L19.491 27.246L20.3091 27.225L20.6999 27.944L20.9181 28.3452L21.1362 27.944L21.5271 27.225L22.3451 27.246L22.8017 27.2578L22.5634 26.8681L22.1362 26.1702L22.5634 25.4722L22.8017 25.0826L22.3451 25.0943L21.5271 25.1153L21.1362 24.3963L20.9181 23.9952Z" fill="#73AF00"/>
<path d="M26.5456 27.0988L25.4234 27.1279L26.0093 26.1702L25.4234 25.2125L26.5456 25.2416L27.0817 24.2548L27.6181 25.2416L28.7402 25.2125L28.1543 26.1702L28.7402 27.1279L27.6181 27.0988L27.0817 28.0855L26.5456 27.0988Z" fill="#FF4B55"/>
<path d="M27.0818 24.515L27.5452 25.3674L28.5151 25.3426L28.0087 26.1702L28.5151 26.9978L27.5452 26.973L27.0818 27.8253L26.6184 26.973L25.6484 26.9978L26.1549 26.1702L25.6484 25.3426L26.6184 25.3674L27.0818 24.515ZM27.0818 23.9952L26.8636 24.3963L26.4728 25.1153L25.6547 25.0943L25.1982 25.0826L25.4365 25.4722L25.8637 26.1702L25.4365 26.8681L25.1982 27.2578L25.6547 27.246L26.4728 27.225L26.8636 27.944L27.0818 28.3452L27.2999 27.944L27.6908 27.225L28.5088 27.246L28.9654 27.2578L28.7271 26.8681L28.2999 26.1702L28.7271 25.4722L28.9654 25.0826L28.5088 25.0943L27.6908 25.1153L27.2999 24.3963L27.0818 23.9952Z" fill="#73AF00"/>
</svg>
