<svg width="48" height="48" viewBox="0 0 48 48" fill="none" xmlns="http://www.w3.org/2000/svg">
<path d="M47.1723 8.276H0.827623C0.370593 8.276 0 8.64659 0 9.10362V38.8966C0 39.3536 0.370593 39.7242 0.827623 39.7242H47.1724C47.6294 39.7242 48 39.3536 48 38.8966V9.10362C47.9999 8.64659 47.6293 8.276 47.1723 8.276Z" fill="#FF6E55"/>
<path d="M0.305249 39.5242L47.6946 8.47606C47.5511 8.35672 47.3735 8.276 47.1723 8.276H0.827623C0.370593 8.276 0 8.64659 0 9.10362V38.8966C0 39.1524 0.122906 39.3724 0.305249 39.5242Z" fill="#FFE15A"/>
<path d="M26.3924 16.69C25.9765 16.7791 25.3231 16.5563 25.3231 16.5563C25.4578 16.7882 25.8178 16.9443 26.1424 17.0425C25.8803 17.0687 25.5813 17.0835 25.2488 17.0762C23.9122 17.0464 23.2886 17.9226 23.2886 17.9226C23.7638 17.6256 24.2538 17.6256 24.9815 17.7296C25.7092 17.8336 27.2536 17.3733 27.2536 17.3733L27.3873 16.7793C27.3873 16.7792 26.8082 16.601 26.3924 16.69Z" fill="#FFF5DC"/>
<path d="M27.7662 13.9056C27.7662 13.9056 28.4572 14.052 29.1586 14.4545C29.1164 14.4766 29.076 14.5037 29.0375 14.5355C28.8109 14.4228 28.537 14.3316 28.1819 14.2954C28.1819 14.2954 28.5495 14.391 28.9026 14.6676C28.8112 14.7753 28.7359 14.8978 28.6778 15.0068C27.9009 14.1737 27.0607 14.7297 27.0607 14.7297C28.103 14.6505 28.3489 15.3202 28.4076 15.6436C28.2057 15.5087 28.0156 15.3975 27.8373 15.307C27.8634 15.2875 27.8766 15.2698 27.9073 15.2497C27.9073 15.2497 27.8421 15.2523 27.7515 15.2658C26.4214 14.6265 25.7688 15.1308 25.7688 15.1308C26.3595 15.0586 26.9054 15.2122 27.3385 15.4034C27.1482 15.513 27.0193 15.706 27.1256 16.0342C26.3797 15.8312 25.4422 15.6312 24.9817 15.7545C24.15 15.9773 24.4174 16.7495 24.4174 16.7495C24.4174 16.7495 24.4323 16.2297 24.9966 16.1109C25.419 16.0219 27.5211 16.69 27.5211 16.69L28.2041 16.3633L27.922 16.1257C27.922 16.1257 27.3798 15.908 27.6123 15.5339C28.0011 15.7412 28.2486 15.9474 28.2486 15.9474L28.4158 15.7031C28.424 15.7663 28.4269 15.8138 28.4269 15.8138L28.9021 15.6059L29.006 15.4573C29.0477 15.232 29.1165 15.0716 29.1957 14.9516C29.3331 15.1244 29.4469 15.3378 29.5036 15.602L29.9343 15.6466C29.9343 15.6466 29.8643 15.1488 29.3825 14.7529C29.4252 14.7225 29.4674 14.6973 29.5089 14.6805C29.8263 14.9082 30.1222 15.193 30.3277 15.5501L31.1222 15.539C31.1223 15.5392 29.8155 14.0838 27.7662 13.9056Z" fill="#FFF5DC"/>
<path d="M35.3477 21.9172C35.8972 21.9172 36.3426 21.4717 36.3426 20.9222C36.3426 20.3727 35.8972 19.9272 35.3477 19.9272C34.7981 19.9272 34.3527 20.3727 34.3527 20.9222C34.3527 21.4717 34.7981 21.9172 35.3477 21.9172Z" fill="#FFF5DC"/>
<path d="M33.0243 30.6317C33.7615 30.6317 34.3591 30.034 34.3591 29.2968C34.3591 28.5597 33.7615 27.962 33.0243 27.962C32.2871 27.962 31.6895 28.5597 31.6895 29.2968C31.6895 30.034 32.2871 30.6317 33.0243 30.6317Z" fill="#FFF5DC"/>
<path d="M22.8487 29.7079C23.4329 29.7079 23.9066 29.2342 23.9066 28.6499C23.9066 28.0656 23.4329 27.592 22.8487 27.592C22.2644 27.592 21.7907 28.0656 21.7907 28.6499C21.7907 29.2342 22.2644 29.7079 22.8487 29.7079Z" fill="#FFF5DC"/>
<path d="M20.415 34.8956C21.0896 34.8956 21.6365 34.3487 21.6365 33.6741C21.6365 32.9994 21.0896 32.4525 20.415 32.4525C19.7403 32.4525 19.1934 32.9994 19.1934 33.6741C19.1934 34.3487 19.7403 34.8956 20.415 34.8956Z" fill="#FFF5DC"/>
<path d="M32.0504 18.3237C32.0504 18.3237 34.3381 19.139 34.8905 19.4152C35.6702 19.805 36.8953 18.6689 37.7529 19.5488C37.7529 19.5488 37.6043 18.9623 36.8916 18.9177C36.8916 18.9177 36.9065 18.3385 36.2382 18.3683C36.2382 18.3683 36.7283 18.7247 36.4462 18.9773C36.4462 18.9773 36.2531 18.5466 35.7036 18.6209C35.7036 18.6209 36.1194 18.7842 36.0155 19.0367C36.0155 19.0367 35.3547 19.3559 35.0577 19.1481C34.7607 18.9401 32.4144 17.6741 31.6718 17.6444L32.0504 18.3237Z" fill="#FFF5DC"/>
<path d="M31.4635 19.0364C31.4635 19.0364 31.9536 19.1812 32.6664 19.9274C32.9967 20.2732 33.8469 20.295 33.7133 19.6266C33.5797 18.9584 31.9313 18.5463 31.7531 18.5463C31.575 18.5463 31.4635 19.0364 31.4635 19.0364Z" fill="white"/>
<path d="M35.0351 17.5662L34.0995 17.8781C34.0995 17.8781 34.2035 18.5129 33.6689 18.7914C33.3396 18.9629 33.1195 19.4076 33.1342 19.7343C33.1342 19.7343 33.4461 19.3036 33.8915 19.0661C33.9964 19.0101 34.0932 18.9611 34.1813 18.9113C34.1636 19.1339 34.1589 19.3677 34.1886 19.571C34.2777 20.1798 34.0846 20.3878 34.0846 20.3878C34.0846 20.3878 34.6045 19.9868 34.5449 19.3334C34.5221 19.0824 34.5632 18.9045 34.6272 18.7695C34.6732 19.2245 34.9161 19.4375 34.9161 19.4375C34.7379 19.0812 35.1091 18.6949 35.2577 18.3831C35.4064 18.071 35.0351 17.5662 35.0351 17.5662Z" fill="#FFF5DC"/>
<path d="M37.4001 16.2743C37.0318 16.149 36.6762 16.3745 36.4645 16.5638C36.3744 16.6445 36.1371 16.6854 35.8942 16.7075C36.0563 16.5927 36.229 16.4573 36.3199 16.3412C36.5203 16.0851 36.8879 16.0404 37.1997 15.9402C37.5116 15.84 37.6453 15.439 37.6453 15.439C37.6453 15.439 37.4782 15.6841 37.0104 15.6618C36.5426 15.6395 36.3867 15.6172 36.0748 15.9514C35.9789 16.0541 35.8447 16.1335 35.7054 16.1974C35.7084 16.0514 35.7211 15.8657 35.7629 15.7398C35.8409 15.5059 36.1972 15.3166 36.2196 14.8488C36.2418 14.381 36.2642 14.4256 36.5315 14.1471C36.7987 13.8686 36.8767 13.3451 36.7987 13.5122C36.7207 13.6793 36.3644 13.8798 36.0636 14.1582C35.7629 14.4367 35.9746 14.7485 35.8186 14.9935C35.6627 15.2386 35.2952 15.2943 35.2728 15.7508C35.2506 16.2075 34.9275 16.4748 34.9275 16.4748C34.9275 16.4748 34.1367 16.9091 35.0834 17.2545C36.0302 17.5998 36.796 16.6392 37.2664 16.6643C38.3133 16.7199 38.5917 16.3747 38.5917 16.3747C38.4137 16.3746 37.957 16.4636 37.4001 16.2743Z" fill="#FFF5DC"/>
<path d="M25.9173 23.6104C25.8579 23.5657 24.8333 22.4372 24.4916 22.2738L24.5659 22.556C24.5659 22.556 24.3431 22.5411 23.9422 22.051C23.5412 21.561 23.2442 21.4273 23.2442 21.4273C23.2442 21.4273 23.5264 21.8729 23.5115 22.155C23.5115 22.155 22.9026 22.1104 22.2492 22.4223C22.2492 22.4223 21.9522 21.8431 21.6998 21.7392C21.6998 21.7392 21.7889 22.3481 21.5811 22.4965C21.3731 22.6451 23.5413 23.6697 23.8383 23.6994C24.1353 23.7291 25.9173 23.6104 25.9173 23.6104Z" fill="#FFF5DC"/>
<path d="M27.2686 21.3976C27.2475 21.3924 27.1379 21.4694 26.9965 21.5704C26.9341 21.2098 26.8083 20.4807 26.8083 20.4472C26.8083 20.4026 25.7984 18.9919 25.7687 18.9325C25.7681 18.9314 25.7648 18.9314 25.7641 18.9304C25.8621 18.6932 25.9678 18.2894 25.3677 18.6058C24.5509 19.0365 24.2242 20.0314 24.2242 20.0314C24.4104 19.8372 24.7354 19.6888 24.9947 19.5925C25 19.7136 25.001 19.8574 24.8331 20.1057C24.4914 20.6105 24.6845 20.8036 24.6845 20.8036C24.9517 20.3433 25.5457 20.2987 25.5457 20.2987C25.4567 20.8482 25.7685 21.16 25.7685 21.16L26.0209 20.863C25.9897 21.2881 26.2173 21.7443 26.3587 21.984C26.3029 22.011 26.2519 22.0317 26.214 22.0361C25.9614 22.0659 25.5606 22.2588 25.5606 22.2588C25.5606 22.2588 25.8856 22.1895 26.0701 22.332C26.2545 22.4746 26.5481 22.5837 26.7074 22.5501C26.7074 22.5501 26.6318 22.9359 26.7157 23.0784C26.7157 23.0784 26.506 23.0195 26.2628 23.028C26.0196 23.0365 25.8426 22.8677 25.8426 22.8677C25.8426 22.8677 26.2882 23.5062 26.6149 23.6398C26.9415 23.7735 27.5059 23.2835 27.5059 23.2835C27.5059 23.2835 27.328 21.4123 27.2686 21.3976Z" fill="#FFF5DC"/>
<path d="M19.591 30.7088C19.591 30.7088 19.3088 30.7385 19.0416 31.1395L18.9229 30.7237C18.9229 30.7237 18.5961 30.9614 18.2398 30.8128C18.2398 30.8128 18.5665 30.7385 18.6259 30.4415C18.6852 30.1445 18.8041 30.1148 18.8041 30.1148C18.8041 30.1148 18.5813 29.8772 18.3438 29.8921C18.3438 29.8921 18.9971 29.5504 19.3536 29.8772C19.7097 30.2039 19.591 30.7088 19.591 30.7088Z" fill="#FFF5DC"/>
<path d="M27.4467 27.4267C27.4467 27.4267 27.1646 27.4565 26.8974 27.8574L26.7786 27.4415C26.7786 27.4415 26.4519 27.6792 26.0955 27.5306C26.0955 27.5306 26.4222 27.4564 26.4816 27.1594C26.5409 26.8624 26.6598 26.8326 26.6598 26.8326C26.6598 26.8326 26.4371 26.595 26.1995 26.6099C26.1995 26.6099 26.8528 26.2683 27.2094 26.595C27.5656 26.9218 27.4467 27.4267 27.4467 27.4267Z" fill="#FFF5DC"/>
<path d="M32.2635 23.202C32.2635 23.202 32.1257 23.4501 32.3005 23.8992L31.8918 23.7575C31.8918 23.7575 31.8987 24.1615 31.5724 24.3678C31.5724 24.3678 31.6993 24.0578 31.4903 23.8385C31.2813 23.6192 31.3252 23.5049 31.3252 23.5049C31.3252 23.5049 31.0028 23.5508 30.8784 23.7539C30.8784 23.7539 30.9741 23.0228 31.4462 22.9187C31.9184 22.8148 32.2635 23.202 32.2635 23.202Z" fill="#FFF5DC"/>
<path d="M33.6936 28.2206L33.981 28.392C33.8974 28.3201 33.7981 28.2662 33.6936 28.2206Z" fill="#FF6E55"/>
<path d="M17.4825 29.6544C17.4825 29.6544 16.1608 31.5107 14.6461 31.9116L15.1807 31.2286C15.1807 31.2286 14.4679 31.8523 13.666 31.9859L14.6313 30.8721C14.6313 30.8721 12.478 32.877 9.71586 33.2928C9.71586 33.2928 11.8543 31.9414 12.285 31.4661C12.285 31.4661 11.2454 31.882 10.3099 31.8968C10.3099 31.8968 12.9978 30.8572 13.4433 30.4415C13.4433 30.4415 12.374 30.6792 11.7058 30.4564C11.7058 30.4564 14.0224 29.7882 14.3491 29.8773C14.3491 29.8773 13.0125 29.3426 12.2106 29.402C12.2106 29.402 13.5769 29.0753 15.1658 29.402L14.8242 29.0308C14.8242 29.0308 15.7301 28.7931 16.6211 28.7338C17.5121 28.6744 17.0667 28.6001 17.0667 28.6001L17.1707 28.3031C17.1707 28.3031 16.5915 28.3773 16.1164 28.3031C16.1164 28.3031 17.542 27.5012 17.943 27.1448C18.3439 26.7885 18.0767 26.9518 18.0767 26.9518C18.0767 26.9518 17.3341 27.2042 17.0668 27.2488C17.0668 27.2488 17.735 26.4766 17.943 25.9716C17.943 25.9716 17.3341 26.2093 16.8143 25.9716C16.8143 25.9716 17.438 25.7934 17.7499 25.4816C18.0618 25.1697 18.5222 24.3938 18.5222 24.3938L17.9875 24.6277C17.9875 24.6277 18.4553 23.8258 18.8674 23.6254C18.8674 23.6254 18.1657 23.681 17.9431 23.514C17.9431 23.514 18.6893 23.3358 18.9121 23.1576C19.1348 22.9794 19.6249 22.5116 20.126 22.6898C20.126 22.6898 20.8277 22.0438 20.5938 21.6206C20.5938 21.6206 21.0505 21.654 21.2844 21.9325C21.5183 22.2109 21.8858 22.4449 21.8858 22.4449L19.9775 23.9373L18.5223 28.6596L17.4825 29.6544Z" fill="#FFF5DC"/>
<path d="M36.1788 20.744C36.7284 21.635 36.0451 21.7241 36.0451 21.7241C35.9411 20.8777 35.2284 20.9817 35.2284 20.9817L35.4214 21.6055C34.2334 21.754 34.3225 20.5659 34.3225 20.5659C34.1442 20.7145 33.8472 21.3232 33.8472 21.3232C33.8472 21.3232 30.6396 22.3924 28.4714 19.2145C28.4714 19.2145 28.4121 18.6501 28.5903 18.3827L27.2537 17.3729L25.5311 17.6106C25.5311 17.6106 24.848 19.1549 25.6797 20.1055C26.5113 21.0558 27.4914 22.3924 27.3132 23.0161C27.2075 23.3859 26.8932 23.5363 26.4567 23.5049C26.1568 23.4833 25.7995 23.3757 25.4125 23.1943C24.462 22.7487 22.1454 21.7985 20.4822 22.5706C18.819 23.3428 18.6385 24.679 18.314 25.7189C18.0268 26.6394 17.3894 28.9893 12.8485 31.1333C12.6316 31.2356 12.7419 31.5653 12.9747 31.5075C14.9431 31.0181 17.6266 30.2027 18.455 29.2385L19.1233 29.2607L18.8782 30.2854C18.8782 30.2854 19.747 30.5527 19.8806 31.8224C19.8806 31.8224 18.3585 32.2382 19.2197 33.5451C19.2197 33.5451 19.3534 32.5946 20.4077 32.5501C20.4077 32.5501 20.6454 32.862 21.165 32.9064C21.165 32.9064 21.4323 33.3372 21.2987 33.6936C21.2987 33.6936 22.353 33.3668 21.462 32.1045C21.462 32.1045 22.457 31.8669 22.5907 33.1144C22.5907 33.1144 23.2293 31.0947 20.9498 31.2432C20.9498 31.2432 20.9498 30.8869 20.3484 30.2409C20.3484 30.2409 20.2 29.8769 20.3484 29.3721C20.3931 29.2201 20.4335 29.0624 20.4673 28.9017C20.5911 28.9704 20.7815 29.0516 21.0314 29.0604C21.0314 29.0604 21.4027 29.6692 22.5016 29.5652C22.5016 29.5652 21.6997 29.194 21.7739 28.4812C21.8482 27.7683 22.7838 27.3822 23.1848 27.6643C23.1848 27.6643 23.0808 26.7287 21.6255 27.3376C21.6255 27.3376 21.6255 26.6396 22.3978 26.5952C22.3978 26.5952 21.1504 25.6448 20.8681 27.4565L20.3519 27.5855C20.0998 26.8864 19.7803 25.2632 21.1949 24.672C22.6873 24.0483 24.2466 25.4517 27.0087 25.5853C27.0087 25.5853 26.7415 27.2114 27.6325 27.6124C28.5235 28.0134 30.7064 28.3921 30.7064 28.3921C30.6842 30.7384 32.3919 30.4265 32.3919 30.4265C31.563 29.9298 31.563 28.9822 32.0746 28.4287C32.7718 27.6744 33.9808 28.3919 33.9808 28.3919C33.9638 27.2499 32.3621 27.4266 32.3621 27.4266C32.6145 26.6842 33.6095 26.4909 33.6095 26.4909C32.2285 25.9861 31.085 27.4786 31.085 27.4786L28.746 26.8104C28.746 26.8104 28.657 26.3425 29.2138 25.7189C29.7707 25.0953 30.2385 24.0482 30.0826 22.9345C30.0826 22.9345 30.7286 22.4815 31.5305 22.9271C32.3324 23.3727 34.055 22.3925 34.055 22.3925C34.7976 23.3428 36.5647 23.1647 36.8022 22.0213C37.0402 20.8777 36.1788 20.744 36.1788 20.744Z" fill="white"/>
<path d="M33.7284 18.0117C33.2867 17.754 32.4958 17.5365 32.2285 18.1305C31.9613 18.7245 31.6643 19.3185 30.7435 19.2888C29.8228 19.2591 29.4069 20.0461 28.7684 19.8235C28.7684 19.8235 29.3624 19.6304 29.4813 19.3482C29.6001 19.0661 30.0753 18.5463 30.0753 18.5463L30.0159 18.0117C30.0159 18.0117 28.917 18.0709 28.5903 18.3828C28.2636 18.6947 27.031 18.1156 27.031 18.1156L27.1796 16.8237C27.1796 16.8237 28.13 15.3684 29.4518 15.4723C30.7734 15.5763 30.9962 15.2347 31.6347 15.2793C32.2733 15.3239 32.6 15.9773 33.283 16.1258C33.9661 16.2744 35.3323 15.9921 35.5105 16.408C35.6887 16.8238 35.1689 16.9872 35.0353 17.5662C34.9016 18.1453 34.6194 18.5316 33.7284 18.0117Z" fill="white"/>
<path d="M29.8676 17.6404C29.8676 17.6404 29.2289 18.0711 28.6944 17.8928C28.1597 17.7145 27.6845 17.774 27.1351 17.9521C27.1351 17.9521 28.145 17.8333 28.5608 18.2194C28.9766 18.6054 30.031 18.3531 30.1052 18.1897L29.8676 17.6404Z" fill="#FFF5DC"/>
<path d="M30.1944 18.6353C30.1944 18.6353 29.5707 19.0809 28.9471 18.9621C28.3234 18.8433 27.7591 19.0957 27.7591 19.0957C27.7591 19.0957 28.2194 18.5908 28.8431 18.68C29.4668 18.769 29.6895 18.1602 29.6895 18.1602L30.1054 18.1899L30.1944 18.6353Z" fill="#FFF5DC"/>
<path d="M30.6994 18.9179C31.1588 18.9179 31.5312 18.5455 31.5312 18.0861C31.5312 17.6268 31.1588 17.2544 30.6994 17.2544C30.2401 17.2544 29.8677 17.6268 29.8677 18.0861C29.8677 18.5455 30.2401 18.9179 30.6994 18.9179Z" fill="#FFF5DC"/>
<path d="M30.2091 17.4622C30.2091 17.4622 29.8824 17.0465 29.0657 17.2099C28.2489 17.3732 28.0558 17.0762 28.0558 17.0762C28.0558 17.0762 28.4419 17.6702 29.0508 17.5959C29.6597 17.5217 29.912 17.9375 29.912 17.9375L30.2091 17.4622Z" fill="#FFF5DC"/>
<path d="M32.9567 16.4224C33.0301 16.3213 33.1225 16.2248 33.2487 16.1514C33.3231 16.1081 33.3997 16.0807 33.4755 16.0582C33.4924 15.9454 33.4758 15.8238 33.4115 15.7134C33.2712 15.4724 32.9793 15.3809 32.7596 15.509C32.5399 15.637 32.4756 15.936 32.6159 16.177C32.6948 16.3122 32.8219 16.3936 32.9567 16.4224Z" fill="#FFF5DC"/>
<path d="M32.2273 17.379C32.2691 17.2612 32.3304 17.1427 32.4306 17.0364C32.4897 16.9738 32.5554 16.926 32.6217 16.8828C32.606 16.77 32.5557 16.6579 32.4627 16.5702C32.2599 16.3788 31.954 16.3736 31.7796 16.5585C31.605 16.7433 31.628 17.0484 31.8309 17.2397C31.9449 17.3475 32.0899 17.3897 32.2273 17.379Z" fill="#FFF5DC"/>
</svg>
