<svg width="48" height="48" viewBox="0 0 48 48" fill="none" xmlns="http://www.w3.org/2000/svg">
<path d="M47.1723 39.7242H0.827623C0.370593 39.7242 0 39.3536 0 38.8966V9.10362C0 8.64659 0.370593 8.276 0.827623 8.276H47.1724C47.6294 8.276 48 8.64659 48 9.10362V38.8966C47.9999 39.3537 47.6293 39.7242 47.1723 39.7242Z" fill="#41479B"/>
<path d="M23.1723 8.276H21.7349L14.0689 13.2985V8.276H9.93101V13.2985L2.26509 8.276H0.827623C0.370593 8.276 0 8.64659 0 9.10362V9.76006L6.57702 14.0691H0V18.207H6.57702L0 22.5161V23.1725C0 23.6295 0.370593 24.0001 0.827623 24.0001H2.26509L9.93101 18.9776V24.0001H14.0689V18.9776L21.7348 24.0001H23.1722C23.6293 24.0001 23.9999 23.6295 23.9999 23.1725V22.516L17.4229 18.207H23.9999V14.0691H17.4228L23.9999 9.76006V9.10362C23.9999 8.64659 23.6295 8.276 23.1723 8.276Z" fill="white"/>
<path d="M23.9999 14.8967H13.2413V8.276H10.7585V14.8967H0V17.3794H10.7585V24.0001H13.2413V17.3794H23.9999V14.8967Z" fill="#FF4B55"/>
<path d="M9.10339 14.0691L0.394405 8.41589C0.162656 8.56261 0 8.80899 0 9.10364V9.14658L7.58333 14.0691H9.10339Z" fill="#FF4B55"/>
<path d="M15.5891 14.0691L23.8742 8.69103C23.7302 8.44738 23.4761 8.276 23.1725 8.276H22.9935L14.0691 14.0691H15.5891Z" fill="#FF4B55"/>
<path d="M8.38813 18.2071L0.118931 23.5748C0.261524 23.8244 0.519524 24.0002 0.827586 24.0002H0.983679L9.90819 18.2071H8.38813Z" fill="#FF4B55"/>
<path d="M23.9867 23.2377L16.2368 18.2072H14.7169L23.5174 23.9198C23.7812 23.7974 23.9619 23.541 23.9867 23.2377Z" fill="#FF4B55"/>
<path d="M35.3555 14.073L35.6589 14.9831L36.6183 14.9905C36.6925 14.9912 36.7234 15.0859 36.6636 15.1301L35.8918 15.7L36.1811 16.6148C36.2035 16.6856 36.1229 16.7443 36.0624 16.701L35.2818 16.1431L34.5012 16.701C34.4407 16.7442 34.3601 16.6856 34.3824 16.6148L34.6718 15.7L33.9 15.1301C33.8402 15.086 33.871 14.9911 33.9453 14.9905L34.9046 14.9831L35.2081 14.073C35.2323 14.0025 35.332 14.0025 35.3555 14.073Z" fill="white"/>
<path d="M31.2764 15.1926L31.9239 15.9006L32.8032 15.5173C32.8714 15.4875 32.9381 15.5616 32.9014 15.6263L32.4281 16.4608L33.0645 17.1787C33.1138 17.2344 33.0639 17.3207 32.9912 17.3058L32.0513 17.1136L31.5652 17.9407C31.5275 18.0047 31.43 17.984 31.4215 17.9101L31.3138 16.9569L30.377 16.7502C30.3043 16.7341 30.294 16.6349 30.3617 16.6042L31.2351 16.2072L31.1422 15.2523C31.1351 15.1783 31.2263 15.1377 31.2764 15.1926Z" fill="white"/>
<path d="M28.005 17.8741L28.8844 18.2575L29.5318 17.5495C29.582 17.4946 29.6731 17.5352 29.6659 17.6092L29.573 18.564L30.4464 18.9611C30.514 18.9918 30.5035 19.091 30.4311 19.107L29.4942 19.3138L29.3865 20.267C29.3782 20.3409 29.2806 20.3616 29.2429 20.2976L28.7568 19.4705L27.8168 19.6627C27.744 19.6776 27.6941 19.5913 27.7435 19.5356L28.3799 18.8176L27.9067 17.9832C27.8701 17.9186 27.9368 17.8445 28.005 17.8741Z" fill="white"/>
<path d="M26.1073 21.6547L27.0666 21.6473L27.3702 20.7372C27.3936 20.6666 27.4933 20.6666 27.517 20.7372L27.8204 21.6473L28.7798 21.6547C28.854 21.6554 28.8849 21.7501 28.8251 21.7943L28.0533 22.3642L28.3426 23.279C28.365 23.3498 28.2844 23.4085 28.2238 23.3652L27.4433 22.8073L26.6627 23.3652C26.6022 23.4084 26.5216 23.3498 26.5439 23.279L26.8332 22.3642L26.0615 21.7943C26.0022 21.7501 26.033 21.6552 26.1073 21.6547Z" fill="white"/>
<path d="M25.9113 25.8802L26.7847 25.4832L26.6918 24.5283C26.6845 24.4544 26.7757 24.4139 26.8258 24.4686L27.4733 25.1766L28.3526 24.7933C28.4208 24.7636 28.4875 24.8376 28.4508 24.9023L27.9775 25.7369L28.6139 26.4548C28.6632 26.5105 28.6133 26.5968 28.5406 26.5819L27.6007 26.3897L27.1146 27.2168C27.0769 27.2808 26.9794 27.2601 26.9709 27.1862L26.8632 26.233L25.9264 26.0263C25.854 26.0102 25.8436 25.911 25.9113 25.8802Z" fill="white"/>
<path d="M27.451 29.8202L28.0874 29.1023L27.6141 28.2678C27.5775 28.2031 27.6442 28.1291 27.7123 28.1588L28.5916 28.5421L29.2391 27.8341C29.2892 27.7793 29.3804 27.8199 29.3731 27.8939L29.2802 28.8487L30.1536 29.2457C30.2213 29.2765 30.2108 29.3757 30.1383 29.3917L29.2015 29.5984L29.0938 30.5517C29.0854 30.6256 28.9878 30.6463 28.9501 30.5823L28.464 29.7552L27.5241 29.9474C27.4515 29.9622 27.4017 29.8759 27.451 29.8202Z" fill="white"/>
<path d="M30.46 32.7932L30.7493 31.8785L29.9776 31.3086C29.9178 31.2644 29.9486 31.1695 30.0228 31.169L30.9822 31.1616L31.2857 30.2514C31.3092 30.1808 31.4089 30.1808 31.4326 30.2514L31.736 31.1616L32.6954 31.169C32.7696 31.1696 32.8005 31.2643 32.7406 31.3086L31.9689 31.8785L32.2582 32.7932C32.2806 32.864 32.2 32.9227 32.1394 32.8794L31.3589 32.3215L30.5783 32.8794C30.5184 32.9226 30.4377 32.864 30.46 32.7932Z" fill="white"/>
<path d="M34.4179 34.2853L34.3102 33.3321L33.3734 33.1253C33.3007 33.1093 33.2904 33.0101 33.3581 32.9794L34.2315 32.5823L34.1386 31.6275C34.1314 31.5535 34.2225 31.5129 34.2726 31.5678L34.9201 32.2758L35.7994 31.8924C35.8676 31.8627 35.9343 31.9368 35.8976 32.0015L35.4243 32.8359L36.0607 33.5539C36.11 33.6096 36.0602 33.6959 35.9874 33.681L35.0475 33.4888L34.5614 34.3159C34.5237 34.3799 34.4262 34.3592 34.4179 34.2853Z" fill="white"/>
<path d="M38.6408 34.0386L38.1547 33.2116L37.2148 33.4038C37.1419 33.4187 37.0921 33.3323 37.1415 33.2766L37.7778 32.5587L37.3046 31.7242C37.2679 31.6596 37.3347 31.5855 37.4027 31.6152L38.2821 31.9986L38.9295 31.2906C38.9797 31.2357 39.0708 31.2763 39.0636 31.3503L38.9707 32.3051L39.8441 32.7022C39.9118 32.7329 39.9013 32.8321 39.8288 32.8481L38.892 33.0548L38.7842 34.0081C38.7761 34.082 38.6785 34.1027 38.6408 34.0386Z" fill="white"/>
<path d="M42.3983 32.0957L41.6178 31.5378L40.8372 32.0957C40.7767 32.1389 40.6961 32.0803 40.7184 32.0094L41.0078 31.0947L40.236 30.5248C40.1762 30.4806 40.207 30.3858 40.2813 30.3852L41.2406 30.3778L41.5442 29.4677C41.5676 29.3971 41.6674 29.3971 41.691 29.4677L41.9945 30.3778L42.9538 30.3852C43.0281 30.3859 43.0589 30.4806 42.9991 30.5248L42.2273 31.0947L42.5167 32.0094C42.5394 32.0802 42.4587 32.1389 42.3983 32.0957Z" fill="white"/>
<path d="M45.0405 28.7923L44.1005 28.6001L43.6145 29.4272C43.5768 29.4912 43.4793 29.4705 43.4708 29.3966L43.3631 28.4433L42.4263 28.2366C42.3536 28.2206 42.3433 28.1214 42.411 28.0907L43.2844 27.6936L43.1915 26.7388C43.1842 26.6648 43.2754 26.6243 43.3255 26.6791L43.973 27.3871L44.8523 27.0037C44.9205 26.974 44.9872 27.0481 44.9505 27.1128L44.4772 27.9472L45.1136 28.6652C45.1632 28.7208 45.1133 28.8072 45.0405 28.7923Z" fill="white"/>
<path d="M46.1109 24.6998L45.1741 24.9065L45.0664 25.8598C45.058 25.9336 44.9604 25.9544 44.9228 25.8903L44.4367 25.0633L43.4967 25.2555C43.4239 25.2704 43.374 25.184 43.4234 25.1283L44.0598 24.4104L43.5865 23.5758C43.5499 23.5111 43.6166 23.4371 43.6847 23.4668L44.5641 23.8501L45.2115 23.1421C45.2617 23.0873 45.3528 23.1279 45.3456 23.2018L45.2527 24.1567L46.126 24.5537C46.1939 24.5846 46.1835 24.6839 46.1109 24.6998Z" fill="white"/>
<path d="M45.4241 20.526L44.6523 21.0959L44.9416 22.0106C44.964 22.0815 44.8834 22.1402 44.8228 22.0968L44.0423 21.5389L43.2617 22.0968C43.2012 22.1401 43.1206 22.0815 43.1429 22.0106L43.4322 21.0959L42.6605 20.526C42.6007 20.4818 42.6315 20.3869 42.7058 20.3864L43.6651 20.379L43.9687 19.4688C43.9921 19.3982 44.0919 19.3982 44.1155 19.4688L44.419 20.379L45.3783 20.3864C45.453 20.3869 45.4839 20.4818 45.4241 20.526Z" fill="white"/>
<path d="M43.0991 16.9921L42.6258 17.8267L43.2622 18.5446C43.3115 18.6003 43.2617 18.6866 43.1889 18.6717L42.249 18.4795L41.7629 19.3066C41.7252 19.3706 41.6277 19.3499 41.6193 19.276L41.5115 18.3228L40.5747 18.1161C40.502 18.1 40.4917 18.0008 40.5594 17.9701L41.4328 17.5731L41.3399 16.6182C41.3327 16.5443 41.4238 16.5037 41.4739 16.5585L42.1214 17.2665L43.0008 16.8832C43.069 16.8534 43.1358 16.9275 43.0991 16.9921Z" fill="white"/>
<path d="M39.5375 14.7097L39.4446 15.6646L40.318 16.0616C40.3857 16.0924 40.3752 16.1916 40.3027 16.2076L39.3659 16.4143L39.2582 17.3676C39.2498 17.4414 39.1522 17.4621 39.1146 17.3981L38.6285 16.5711L37.6885 16.7632C37.6157 16.7781 37.5658 16.6918 37.6152 16.6361L38.2516 15.9182L37.7783 15.0836C37.7417 15.0189 37.8084 14.9449 37.8765 14.9746L38.7559 15.3579L39.4033 14.6499C39.4536 14.5952 39.5448 14.6358 39.5375 14.7097Z" fill="white"/>
<path d="M35.3555 14.073L35.6589 14.9831L36.6183 14.9905C36.6925 14.9912 36.7234 15.0859 36.6636 15.1301L35.8918 15.7L36.1811 16.6148C36.2035 16.6856 36.1229 16.7443 36.0624 16.701L35.2818 16.1431L34.5012 16.701C34.4407 16.7442 34.3601 16.6856 34.3824 16.6148L34.6718 15.7L33.9 15.1301C33.8402 15.086 33.871 14.9911 33.9453 14.9905L34.9046 14.9831L35.2081 14.073C35.2323 14.0025 35.332 14.0025 35.3555 14.073Z" fill="white"/>
</svg>
