<svg width="48" height="48" viewBox="0 0 48 48" fill="none" xmlns="http://www.w3.org/2000/svg">
<path d="M47.9999 24H0V9.10348C0 8.64645 0.370593 8.27586 0.827623 8.27586H47.1724C47.6294 8.27586 48 8.64645 48 9.10348L47.9999 24Z" fill="white"/>
<path d="M1.65515 24.0001V23.1724H0V24.0001V24.8277V38.8966C0 39.3537 0.370593 39.7243 0.827623 39.7243H47.1724C47.6294 39.7243 48 39.3537 48 38.8966V24.0001H1.65515Z" fill="#FF4B55"/>
<path d="M14.8966 24H0.827623C0.370593 24 0 23.6295 0 23.1724V9.10348C0 8.64645 0.370593 8.27586 0.827623 8.27586H14.8966C15.3536 8.27586 15.7242 8.64645 15.7242 9.10348V23.1724C15.7241 23.6295 15.3536 24 14.8966 24Z" fill="#41479B"/>
<path d="M8.1808 12.6081L8.9698 14.9738L11.4635 14.9931C11.7864 14.9956 11.9203 15.4077 11.6605 15.5994L9.65445 17.0808L10.4066 19.4584C10.5039 19.7663 10.1535 20.0209 9.89079 19.8332L7.86205 18.3831L5.83321 19.8333C5.57052 20.021 5.22008 19.7663 5.3174 19.4585L6.06955 17.0809L4.06349 15.5995C3.80371 15.4077 3.93759 14.9957 4.26046 14.9932L6.75421 14.9739L7.5432 12.6082C7.64539 12.3019 8.0787 12.3019 8.1808 12.6081Z" fill="white"/>
</svg>
