<svg width="48" height="48" viewBox="0 0 48 48" fill="none" xmlns="http://www.w3.org/2000/svg">
<path d="M16 39.7238H0.827625C0.370594 39.7238 0 39.3532 0 38.8962V9.1032C0 8.64617 0.370594 8.27557 0.827625 8.27557H16V39.7238Z" fill="#73AF00"/>
<path d="M32.0007 8.276H16.0004V39.7244H32.0007V8.276Z" fill="#FF4B55"/>
<path d="M47.1723 39.7238H31.9999V8.27557H47.1723C47.6294 8.27557 48 8.64617 48 9.1032V38.8962C48 39.3533 47.6294 39.7238 47.1723 39.7238Z" fill="#FFE15A"/>
<path d="M24.172 20.9663L24.883 23.0983L27.1303 23.1157C27.3044 23.117 27.3766 23.3392 27.2365 23.4427L25.4287 24.7777L26.1066 26.9204C26.1592 27.0864 25.9702 27.2237 25.8284 27.1224L24.0001 25.8157L22.1718 27.1225C22.0301 27.2238 21.8411 27.0864 21.8936 26.9205L22.5715 24.7777L20.7637 23.4427C20.6236 23.3393 20.6958 23.1171 20.8699 23.1157L23.1172 23.0984L23.8282 20.9664C23.8834 20.8012 24.1169 20.8012 24.172 20.9663Z" fill="#FFE15A"/>
</svg>
