<svg width="48" height="48" viewBox="0 0 48 48" fill="none" xmlns="http://www.w3.org/2000/svg">
<path d="M47.9999 14.5656H0V9.10359C0 8.64656 0.370593 8.27597 0.827623 8.27597H47.1724C47.6294 8.27597 48 8.64656 48 9.10359L47.9999 14.5656Z" fill="#41479B"/>
<path d="M47.1723 39.7242H0.827623C0.370593 39.7242 0 39.3536 0 38.8966V33.4346H47.9999V38.8966C47.9999 39.3537 47.6293 39.7242 47.1723 39.7242Z" fill="#41479B"/>
<path d="M47.9999 14.5658H0V20.8555H47.9999V14.5658Z" fill="white"/>
<path d="M47.9999 20.8556H0V27.1453H47.9999V20.8556Z" fill="#41479B"/>
<path d="M47.9999 27.1452H0V33.4349H47.9999V27.1452Z" fill="white"/>
<path d="M0.310312 39.5275L24.2542 24.3631C24.5205 24.1944 24.5205 23.8058 24.2542 23.637L0.310312 8.47241C0.125156 8.62419 0 8.84535 0 9.10344V38.8964C0 39.1545 0.12525 39.3756 0.310312 39.5275Z" fill="#FF4B55"/>
<path d="M8.29929 20.01L9.14904 22.5577L11.8347 22.5786C12.0427 22.5802 12.129 22.8457 11.9616 22.9693L9.80116 24.5647L10.6113 27.1253C10.6741 27.3237 10.4481 27.4878 10.2789 27.3667L8.09398 25.8051L5.90904 27.3668C5.73983 27.4879 5.51389 27.3237 5.5767 27.1254L6.38679 24.5649L4.22624 22.9695C4.05889 22.8458 4.14514 22.5803 4.35317 22.5787L7.03882 22.5579L7.88857 20.0102C7.95429 19.8127 8.23348 19.8127 8.29929 20.01Z" fill="white"/>
</svg>
