<svg width="48" height="48" viewBox="0 0 48 48" fill="none" xmlns="http://www.w3.org/2000/svg">
<path d="M47.1723 39.7242H0.827623C0.370593 39.7242 0 39.3536 0 38.8966V9.10362C0 8.64659 0.370593 8.276 0.827623 8.276H47.1724C47.6294 8.276 48 8.64659 48 9.10362V38.8966C47.9999 39.3537 47.6293 39.7242 47.1723 39.7242Z" fill="#41479B"/>
<path d="M47.9999 26.4825H0V28.6894H47.9999V26.4825Z" fill="white"/>
<path d="M47.9999 30.8971H0V33.104H47.9999V30.8971Z" fill="white"/>
<path d="M47.9999 28.6893H0V30.8961H47.9999V28.6893Z" fill="#FF4B55"/>
<path d="M15.9047 21.9998L16.1586 22.7609L16.9608 22.767C17.023 22.7676 17.0487 22.8468 16.9988 22.8838L16.3534 23.3604L16.5954 24.1253C16.6141 24.1845 16.5466 24.2336 16.4961 24.1974L15.8433 23.7308L15.1905 24.1974C15.1399 24.2335 15.0725 24.1845 15.0913 24.1253L15.3332 23.3604L14.6879 22.8838C14.6379 22.8468 14.6637 22.7675 14.7258 22.767L15.528 22.7609L15.7819 21.9998C15.8016 21.9408 15.8851 21.9408 15.9047 21.9998Z" fill="#FFE15A"/>
<path d="M15.9047 35.374L16.1586 36.1351L16.9608 36.1413C17.023 36.1418 17.0487 36.221 16.9988 36.258L16.3534 36.7346L16.5954 37.4995C16.6141 37.5587 16.5466 37.6078 16.4961 37.5716L15.8433 37.105L15.1905 37.5716C15.1399 37.6077 15.0725 37.5587 15.0913 37.4995L15.3332 36.7346L14.6879 36.258C14.6379 36.221 14.6637 36.1417 14.7258 36.1413L15.528 36.1351L15.7819 35.374C15.8016 35.315 15.8851 35.315 15.9047 35.374Z" fill="#FFE15A"/>
<path d="M11.5633 36.1212L12.2084 35.6442L12.8685 36.1002C12.9196 36.1355 12.9863 36.0854 12.9667 36.0265L12.7124 35.2655L13.3501 34.7786C13.3995 34.7408 13.3724 34.6619 13.3102 34.6625L12.508 34.6691L12.242 33.9122C12.2213 33.8535 12.138 33.8549 12.1192 33.9142L11.8777 34.6793L11.0756 34.6984C11.0135 34.6998 10.989 34.7796 11.0396 34.8157L11.6926 35.2818L11.4629 36.0505C11.4451 36.1103 11.5132 36.1583 11.5633 36.1212Z" fill="#FFE15A"/>
<path d="M12.8535 25.2489L12.1984 24.7857L11.5481 25.2555C11.4978 25.2919 11.43 25.2433 11.4484 25.1838L11.6866 24.4177L11.0388 23.9444C10.9886 23.9077 11.0139 23.8283 11.0761 23.8275L11.8783 23.8172L12.1283 23.055C12.1476 22.9959 12.2311 22.9955 12.251 23.0543L12.5088 23.8141L13.3111 23.8163C13.3732 23.8165 13.3994 23.8956 13.3495 23.9327L12.7065 24.4125L12.9524 25.1763C12.9715 25.2353 12.9043 25.2847 12.8535 25.2489Z" fill="#FFE15A"/>
<path d="M18.8955 25.2587L19.5406 24.7817L20.2007 25.2377C20.2518 25.273 20.3185 25.2229 20.2989 25.164L20.0446 24.403L20.6823 23.9161C20.7317 23.8783 20.7046 23.7994 20.6424 23.8L19.8402 23.8067L19.5742 23.0497C19.5535 22.991 19.4702 22.9924 19.4515 23.0517L19.2099 23.8168L18.4078 23.8359C18.3457 23.8373 18.3212 23.9171 18.3718 23.9532L19.0248 24.4193L18.7951 25.1881C18.7773 25.2477 18.8456 25.2958 18.8955 25.2587Z" fill="#FFE15A"/>
<path d="M20.1858 36.1114L19.5308 35.6482L18.8804 36.1181C18.8301 36.1544 18.7623 36.1058 18.7808 36.0463L19.0189 35.2802L18.3711 34.8069C18.3209 34.7702 18.3462 34.6908 18.4084 34.6899L19.2106 34.6797L19.4606 33.9174C19.4799 33.8584 19.5634 33.858 19.5833 33.9168L19.8411 34.6766L20.6434 34.6788C20.7055 34.679 20.7317 34.7581 20.6818 34.7952L20.0388 35.275L20.2847 36.0388C20.3037 36.0981 20.2365 36.1474 20.1858 36.1114Z" fill="#FFE15A"/>
<path d="M10.6038 31.437L9.80154 31.4423L9.53679 30.6849C9.51635 30.6263 9.43292 30.6275 9.41407 30.6867L9.17117 31.4514L8.36904 31.4693C8.30688 31.4706 8.28223 31.5503 8.33285 31.5865L8.98507 32.0538L8.75407 32.8221C8.73617 32.8815 8.80432 32.9297 8.85438 32.8928L9.50032 32.4169L10.1597 32.874C10.2108 32.9093 10.2775 32.8594 10.2579 32.8004L10.0049 32.0391L10.6433 31.5533C10.6928 31.5155 10.6659 31.4365 10.6038 31.437Z" fill="#FFE15A"/>
<path d="M8.36922 27.3132L9.17135 27.2981L9.41669 26.5343C9.43572 26.4751 9.51907 26.4742 9.53941 26.533L9.80172 27.2911L10.604 27.2884C10.6662 27.2882 10.6929 27.3672 10.6432 27.4046L10.0032 27.8884L10.2538 28.6506C10.2732 28.7096 10.2063 28.7594 10.1553 28.7238L9.4975 28.2646L8.85007 28.7384C8.79991 28.7752 8.73194 28.7268 8.74994 28.6674L8.98338 27.8997L8.33266 27.4304C8.28222 27.394 8.30716 27.3144 8.36922 27.3132Z" fill="#FFE15A"/>
<path d="M23.3154 27.2838L22.5132 27.289L22.2485 26.5317C22.228 26.473 22.1446 26.4742 22.1257 26.5335L21.8828 27.2982L21.0807 27.316C21.0186 27.3173 20.9939 27.3971 21.0445 27.4333L21.6967 27.9006L21.4657 28.6688C21.4478 28.7283 21.516 28.7765 21.5661 28.7396L22.212 28.2637L22.8713 28.7209C22.9224 28.7562 22.9892 28.7062 22.9696 28.6473L22.7166 27.8859L23.3551 27.4001C23.4045 27.3623 23.3776 27.2833 23.3154 27.2838Z" fill="#FFE15A"/>
<path d="M21.081 31.4666L21.8831 31.4515L22.1285 30.6876C22.1475 30.6284 22.2309 30.6275 22.2512 30.6863L22.5135 31.4444L23.3158 31.4417C23.378 31.4415 23.4047 31.5206 23.355 31.558L22.715 32.0417L22.9656 32.8039C22.985 32.863 22.9181 32.9127 22.8671 32.8771L22.2093 32.4179L21.5619 32.8917C21.5117 32.9285 21.4437 32.8801 21.4617 32.8207L21.6952 32.0531L21.0444 31.5837C20.994 31.5474 21.0189 31.4679 21.081 31.4666Z" fill="#FFE15A"/>
</svg>
