<svg width="48" height="48" viewBox="0 0 48 48" fill="none" xmlns="http://www.w3.org/2000/svg">
<path d="M47.1723 39.7238H0.827623C0.370593 39.7238 0 39.3532 0 38.8962V9.10326C0 8.64623 0.370593 8.27563 0.827623 8.27563H47.1724C47.6294 8.27563 48 8.64623 48 9.10326V38.8962C47.9999 39.3534 47.6293 39.7238 47.1723 39.7238Z" fill="#73AF00"/>
<path d="M47.9999 20.6894H0V22.8962H47.9999V20.6894Z" fill="#FFE15A"/>
<path d="M47.9999 22.8962H0V25.1031H47.9999V22.8962Z" fill="#464655"/>
<path d="M47.9999 25.103H0V27.3099H47.9999V25.103Z" fill="white"/>
<path d="M22.8966 8.27609H20.6897V39.7245H22.8966V8.27609Z" fill="#FFE15A"/>
<path d="M25.1034 8.27609H22.8965V39.7245H25.1034V8.27609Z" fill="#464655"/>
<path d="M27.3102 8.27609H25.1034V39.7245H27.3102V8.27609Z" fill="white"/>
<path d="M23.9997 32.2761C28.5706 32.2761 32.276 28.5707 32.276 23.9999C32.276 19.429 28.5706 15.7236 23.9997 15.7236C19.4289 15.7236 15.7235 19.429 15.7235 23.9999C15.7235 28.5707 19.4289 32.2761 23.9997 32.2761Z" fill="#FF4B55"/>
<path d="M23.2895 25.4232C23.2895 25.4232 23.1929 26.0997 23.8501 27.1048H25.1259L24.8359 25.8871L23.2895 25.4232Z" fill="#73AF00"/>
<path d="M23.1992 20.8939C23.1992 20.8939 21.1118 24.3088 24.1786 26.3447L24.5007 24.4118L24.7068 21.9119L24.3847 20.8423L23.1992 20.8939Z" fill="#A561CD"/>
<path d="M23.1991 20.8938C23.1991 20.8938 22.9605 21.291 22.7629 21.8887C23.0316 22.1696 23.7661 22.5176 24.6693 22.3649L24.7067 21.9118L24.3845 20.8422L23.1991 20.8938Z" fill="#73AF00"/>
<path d="M22.7999 20.4043C22.7999 20.4043 22.8256 19.7213 23.4958 19.7213C24.3335 19.7213 25.0164 19.9146 26.0988 22.1568C26.0988 22.1568 25.1361 23.1018 24.5267 21.7959C24.3463 21.4093 24.2818 20.9455 24.2818 20.9455C24.2818 20.9455 23.5344 21.2032 23.019 20.9068L22.7999 20.4043Z" fill="#A561CD"/>
<path d="M23.1348 20.7261L22.9802 20.3138C22.9802 20.3138 22.1168 20.172 22.4776 21.2158C22.4776 21.2158 22.5033 21.0097 22.7224 21.0355C22.9416 21.0612 23.1735 20.8936 23.1348 20.7261Z" fill="#FFE15A"/>
<path d="M24.5778 24.6439C24.5778 24.6439 23.6695 25.3557 24.1785 27.0278C24.4491 27.9169 25.5315 28.893 25.5315 28.893C25.5315 28.893 26.3336 26.7958 26.0727 25.984C25.9191 25.5062 24.5778 24.6439 24.5778 24.6439Z" fill="#73AF00"/>
<path d="M26.3046 27.3371C26.3046 27.3371 23.9594 25.1014 23.8047 23.3424C23.65 21.5835 24.6643 21.8627 24.8485 21.9765C25.2866 22.2471 26.3948 23.3811 26.3046 27.3371Z" fill="#73AF00"/>
<path d="M26.0138 27.8489H22.1309C22.0501 27.8489 21.9848 27.7836 21.9848 27.7029V27.4151C21.9848 27.3344 22.0501 27.269 22.1309 27.269H26.0138C26.0945 27.269 26.1599 27.3344 26.1599 27.4151V27.7029C26.1598 27.7835 26.0944 27.8489 26.0138 27.8489Z" fill="#B34900"/>
<path d="M25.0677 27.2981C24.9325 27.3542 24.6617 27.4238 24.7294 27.6653C24.7813 27.8503 25.1354 27.8295 25.0677 28.0422C25.0219 28.186 24.3028 28.1992 24.0239 28.1582C23.8531 28.1331 23.4826 28.0325 23.5342 27.6073C23.5858 27.1821 23.7404 27.1167 23.9338 27.0403C24.1255 26.9646 24.9641 26.9814 25.0871 27.0854C25.1498 27.1386 25.1701 27.2556 25.0677 27.2981Z" fill="#FFE15A"/>
<path d="M24.0759 16.6064L24.2643 17.1713L24.8596 17.1759C24.9366 17.1766 24.9686 17.275 24.9066 17.3207L24.4277 17.6744L24.6073 18.2421C24.6305 18.3155 24.5469 18.3763 24.4842 18.3315L23.9998 17.9853L23.5155 18.3315C23.4528 18.3763 23.3691 18.3156 23.3924 18.2421L23.572 17.6744L23.093 17.3207C23.0311 17.2749 23.0631 17.1765 23.1401 17.1759L23.7354 17.1713L23.9238 16.6064C23.948 16.5333 24.0514 16.5333 24.0759 16.6064Z" fill="#73AF00"/>
<path d="M24.0759 29.8113L24.2643 30.3762L24.8596 30.3809C24.9366 30.3815 24.9686 30.4799 24.9066 30.5256L24.4277 30.8793L24.6073 31.447C24.6305 31.5204 24.5469 31.5813 24.4842 31.5364L23.9998 31.1902L23.5155 31.5364C23.4528 31.5813 23.3691 31.5205 23.3924 31.447L23.572 30.8793L23.093 30.5256C23.0311 30.4798 23.0631 30.3814 23.1401 30.3809L23.7354 30.3762L23.9238 29.8113C23.948 29.7382 24.0514 29.7382 24.0759 29.8113Z" fill="#73AF00"/>
<path d="M24.0759 16.6064L24.2643 17.1713L24.8596 17.1759C24.9366 17.1766 24.9686 17.275 24.9066 17.3207L24.4277 17.6744L24.6073 18.2421C24.6305 18.3155 24.5469 18.3763 24.4842 18.3315L23.9998 17.9853L23.5155 18.3315C23.4528 18.3763 23.3691 18.3156 23.3924 18.2421L23.572 17.6744L23.093 17.3207C23.0311 17.2749 23.0631 17.1765 23.1401 17.1759L23.7354 17.1713L23.9238 16.6064C23.948 16.5333 24.0514 16.5333 24.0759 16.6064Z" fill="#73AF00"/>
<path d="M24.0759 29.8113L24.2643 30.3762L24.8596 30.3809C24.9366 30.3815 24.9686 30.4799 24.9066 30.5256L24.4277 30.8793L24.6073 31.447C24.6305 31.5204 24.5469 31.5813 24.4842 31.5364L23.9998 31.1902L23.5155 31.5364C23.4528 31.5813 23.3691 31.5205 23.3924 31.447L23.572 30.8793L23.093 30.5256C23.0311 30.4798 23.0631 30.3814 23.1401 30.3809L23.7354 30.3762L23.9238 29.8113C23.948 29.7382 24.0514 29.7382 24.0759 29.8113Z" fill="#73AF00"/>
<path d="M19.4749 17.9616L19.6399 18.5337L19.1521 18.8749C19.0889 18.9191 19.1183 19.0183 19.1954 19.0208L19.7904 19.0407L19.9643 19.6101C19.9869 19.6839 20.0902 19.6864 20.1165 19.614L20.3192 19.0543L20.9146 19.0649C20.9916 19.0663 21.0261 18.9689 20.9653 18.9215L20.4955 18.5557L20.6895 17.9926C20.7146 17.9198 20.6325 17.8568 20.5686 17.9L20.0756 18.2338L19.6003 17.8754C19.5387 17.8289 19.4535 17.8875 19.4749 17.9616Z" fill="#73AF00"/>
<path d="M26.961 28.8398L27.126 29.4118L26.6381 29.7531C26.5749 29.7972 26.6043 29.8964 26.6814 29.899L27.2764 29.9188L27.4503 30.4883C27.4729 30.5621 27.5762 30.5646 27.6025 30.4922L27.8053 29.9324L28.4006 29.9431C28.4776 29.9444 28.5121 29.847 28.4513 29.7997L27.9815 29.4339L28.1756 28.871C28.2007 28.7981 28.1186 28.7351 28.0547 28.7784L27.5617 29.1121L27.0864 28.7537C27.0249 28.7071 26.9397 28.7658 26.961 28.8398Z" fill="#73AF00"/>
<path d="M16.6768 21.7526L17.1521 22.111L16.9668 22.6768C16.9428 22.7501 17.0259 22.8117 17.0891 22.7676L17.5769 22.4262L18.0579 22.7772C18.1201 22.8226 18.2045 22.7628 18.1819 22.689L18.008 22.1197L18.4904 21.7708C18.5529 21.7257 18.5218 21.6269 18.4448 21.6256L17.8495 21.615L17.6668 21.0483C17.643 20.975 17.5397 20.974 17.5146 21.0467L17.3206 21.6096L16.7253 21.6083C16.6482 21.608 16.6153 21.7061 16.6768 21.7526Z" fill="#73AF00"/>
<path d="M29.194 25.9581L29.6693 26.3165L29.484 26.8824C29.46 26.9556 29.5431 27.0173 29.6063 26.9731L30.0942 26.6318L30.5751 26.9828C30.6373 27.0281 30.7217 26.9682 30.6991 26.8945L30.5252 26.3252L31.0077 25.9764C31.0701 25.9312 31.0391 25.8324 30.962 25.8311L30.3667 25.8205L30.184 25.2538C30.1603 25.1805 30.0569 25.1795 30.0318 25.2522L29.8379 25.8151L29.2426 25.8138C29.1655 25.8136 29.1325 25.9117 29.194 25.9581Z" fill="#73AF00"/>
<path d="M28.2104 17.9615L28.0454 18.5336L28.5333 18.8748C28.5965 18.919 28.5671 19.0182 28.49 19.0207L27.895 19.0406L27.7211 19.61C27.6985 19.6838 27.5952 19.6863 27.5689 19.6139L27.3661 19.0542L26.7708 19.0648C26.6938 19.0662 26.6593 18.9687 26.7201 18.9214L27.1899 18.5556L26.9958 17.9927C26.9707 17.9199 27.0528 17.8569 27.1167 17.9001L27.6097 18.2338L28.085 17.8754C28.1466 17.8287 28.2318 17.8874 28.2104 17.9615Z" fill="#73AF00"/>
<path d="M20.7247 28.8398L20.5597 29.4118L21.0476 29.7531C21.1108 29.7972 21.0814 29.8964 21.0043 29.899L20.4093 29.9188L20.2354 30.4883C20.2128 30.5621 20.1095 30.5646 20.0832 30.4922L19.8804 29.9324L19.2851 29.9431C19.208 29.9444 19.1735 29.847 19.2344 29.7997L19.7042 29.4339L19.5101 28.871C19.485 28.7981 19.5671 28.7351 19.631 28.7784L20.124 29.1121L20.5993 28.7537C20.6609 28.7071 20.7461 28.7658 20.7247 28.8398Z" fill="#73AF00"/>
<path d="M31.0088 21.7526L30.5335 22.111L30.7187 22.6768C30.7427 22.7501 30.6596 22.8117 30.5965 22.7676L30.1086 22.4262L29.6277 22.7772C29.5654 22.8226 29.481 22.7628 29.5036 22.689L29.6775 22.1197L29.1951 21.7708C29.1327 21.7257 29.1637 21.6269 29.2408 21.6256L29.8361 21.615L30.0188 21.0483C30.0425 20.975 30.1458 20.974 30.1709 21.0467L30.3649 21.6096L30.9602 21.6083C31.0374 21.608 31.0704 21.7061 31.0088 21.7526Z" fill="#73AF00"/>
<path d="M18.4917 25.9581L18.0163 26.3165L18.2016 26.8824C18.2256 26.9556 18.1425 27.0173 18.0793 26.9731L17.5915 26.6318L17.1105 26.9828C17.0483 27.0281 16.9639 26.9682 16.9865 26.8945L17.1604 26.3252L16.678 25.9764C16.6155 25.9312 16.6466 25.8324 16.7236 25.8311L17.3189 25.8205L17.5017 25.2538C17.5254 25.1805 17.6287 25.1795 17.6538 25.2522L17.8478 25.8151L18.4431 25.8138C18.5203 25.8136 18.5532 25.9117 18.4917 25.9581Z" fill="#73AF00"/>
</svg>
