<svg width="48" height="48" viewBox="0 0 48 48" fill="none" xmlns="http://www.w3.org/2000/svg">
<path d="M47.1723 39.7243H0.827623C0.370593 39.7243 0 39.3537 0 38.8966V9.10359C0 8.64656 0.370593 8.27597 0.827623 8.27597H47.1724C47.6294 8.27597 48 8.64656 48 9.10359V38.8966C47.9999 39.3538 47.6293 39.7243 47.1723 39.7243Z" fill="#82AFFF"/>
<path d="M23.1723 24.0002H0.827623C0.370593 24.0002 0 23.6296 0 23.1725V9.10359C0 8.64656 0.370593 8.27597 0.827623 8.27597H23.1724C23.6295 8.27597 24 8.64656 24 9.10359V23.1725C24 23.6296 23.6294 24.0002 23.1723 24.0002Z" fill="#41479B"/>
<path d="M23.1723 8.27586H21.7348L14.0688 13.2984V8.27586H9.93092V13.2984L2.265 8.27586H0.827623C0.370593 8.27586 0 8.64636 0 9.10339V9.75983L6.57702 14.0689H0V18.2068H6.57702L0 22.5159V23.1723C0 23.6294 0.370593 24 0.827623 24H2.26518L9.93111 18.9774V24H14.069V18.9774L21.7349 24H23.1724C23.6295 24 24 23.6294 24 23.1723V22.5159L17.423 18.2069H24V14.0689H17.4229L24 9.75992V9.10349C24 8.64636 23.6294 8.27586 23.1723 8.27586Z" fill="white"/>
<path d="M24 14.8966H13.2413V8.27586H10.7586V14.8966H0V17.3793H10.7586V24H13.2413V17.3793H24V14.8966Z" fill="#FF4B55"/>
<path d="M9.10339 14.069L0.394405 8.41579C0.162656 8.56241 0 8.80888 0 9.10344V9.14638L7.58333 14.069H9.10339Z" fill="#FF4B55"/>
<path d="M15.5889 14.0689L23.874 8.69089C23.73 8.44724 23.4759 8.27586 23.1722 8.27586H22.9933L14.0688 14.0689H15.5889Z" fill="#FF4B55"/>
<path d="M8.38813 18.207L0.118927 23.5747C0.26152 23.8243 0.51952 24 0.827582 24H0.983675L9.90828 18.207H8.38813Z" fill="#FF4B55"/>
<path d="M23.9868 23.2374L16.2369 18.207H14.7169L23.5175 23.9196C23.7812 23.7973 23.962 23.5408 23.9868 23.2374Z" fill="#FF4B55"/>
<path d="M30.1907 17.308V26.3884C30.1907 30.071 35.3636 31.9636 35.994 32.1805C36.6237 31.9636 41.7973 30.0679 41.7973 26.3884V17.308H30.1907Z" fill="white"/>
<path d="M42.0019 21.4725V17.103H29.9857V21.4725H35.1746V25.5689H29.9857V27.2076H35.1746V32.1232L35.9938 32.3963L36.813 32.1232V27.2076H42.0019V25.5689H36.813V21.4725H42.0019Z" fill="#FF4B55"/>
<path d="M31.3331 20.452C31.7107 20.452 32.0168 20.1459 32.0168 19.7683C32.0168 19.3907 31.7107 19.0846 31.3331 19.0846C30.9555 19.0846 30.6494 19.3907 30.6494 19.7683C30.6494 20.1459 30.9555 20.452 31.3331 20.452Z" fill="white"/>
<path d="M32.6466 18.8436C32.4278 18.7233 32.034 18.4006 31.8755 18.4553C31.7168 18.5101 31.6814 18.6222 31.4595 18.6393C31.2433 18.6559 30.9019 18.8669 31.0442 19.1007C31.2291 19.405 31.8081 19.1684 31.8464 19.0261C31.8464 19.0261 31.9886 19.0488 32.1081 19.0203C32.1081 19.0203 32.346 19.3522 32.6413 19.3304C32.9366 19.3084 33.0734 18.9421 33.0079 18.9421C32.9423 18.9421 32.6466 18.8436 32.6466 18.8436Z" fill="#FFE15A"/>
<path d="M33.5547 20.2932C33.5054 20.3834 33.1307 20.7038 32.5045 20.8511C32.3651 20.8839 32.3896 21.048 32.2501 20.9659C32.1107 20.8839 31.725 20.8182 31.3804 20.8019C31.0358 20.7855 31.0015 20.4662 31.0604 20.3507C31.1351 20.2039 31.6853 20.1145 31.7837 20.295C31.8821 20.4755 31.9559 20.4378 32.2009 20.4901C32.3527 20.5225 32.3568 20.5967 32.3568 20.5967C32.3568 20.5967 32.6358 20.3177 32.8738 20.2357C33.1117 20.1537 33.3168 19.9731 33.3578 19.9731C33.3988 19.9731 33.6121 20.0305 33.6121 20.0305L33.5547 20.2932Z" fill="#FFE15A"/>
<path d="M34.4652 19.3249C34.8262 19.4562 35.8928 19.4151 37.0332 19.0459C38.1736 18.6768 38.5019 18.6111 39.0598 18.8162C39.6177 19.0212 39.8592 18.3732 39.4928 18.2636C38.9174 18.0914 37.1375 19.1255 35.8487 18.5452C35.8487 18.5452 35.8107 18.7013 35.8517 18.7751C35.8517 18.7751 34.9164 18.8079 35.1379 17.8399C35.1379 17.8399 35.2016 18.1933 35.6438 18.1527C36.4802 18.0759 36.5997 18.6648 38.3705 18.1188C39.3537 17.8157 40.1176 17.9644 40.1243 18.4428C40.1325 19.0187 39.3386 19.1525 39.3386 19.1525C39.3386 19.1525 39.6476 19.7843 40.2712 19.5053C40.8948 19.2263 40.9276 19.7076 40.9823 19.8719C41.0371 20.036 41.1409 20.1947 41.2776 20.211C41.2776 20.211 41.3761 20.5063 41.3378 20.5446C41.2996 20.5829 41.0425 20.9057 40.7854 20.9057C40.5284 20.9057 39.9705 20.9057 39.9705 20.9057C39.9705 20.9057 39.8227 20.5391 40.1073 20.5338C40.3916 20.5283 40.7363 20.5065 40.6925 20.3532C40.6488 20.2001 40.4245 20.1289 40.4299 19.9594C40.4299 19.9594 39.7681 20.4407 39.3579 19.8718L39.3469 20.1398C39.3469 20.1398 38.8491 20.0468 38.6688 19.6475C38.6688 19.6475 38.718 20.0961 38.2914 20.0304C38.2914 20.0304 38.379 20.1617 38.5266 20.2547C38.6744 20.3477 38.5211 20.55 38.2368 20.7196C37.9524 20.8892 37.0772 21.3815 36.6779 20.8782C36.2786 20.375 36.7655 20.0851 36.8857 20.1179C37.006 20.1507 37.3506 20.6812 37.5859 20.6102C37.8211 20.5391 37.9359 20.2984 37.739 20.1508C37.542 20.0032 37.3946 19.8635 37.5187 19.7145C37.6895 19.5096 38.3188 19.571 38.2969 19.4344C38.275 19.2976 37.6897 19.3359 37.3069 19.7187C36.924 20.1016 35.2612 20.9823 34.5993 20.4244C33.9375 19.8664 34.4652 19.3249 34.4652 19.3249Z" fill="#FFE15A"/>
<path d="M34.252 19.0789C34.252 19.0789 34.7525 19.5712 35.5976 19.7271C35.5976 19.7271 35.4417 19.9651 34.9905 19.8994C34.9905 19.8994 35.1711 20.0553 35.2942 20.3178C35.2942 20.3178 35.007 20.3835 34.7526 20.244C34.7526 20.244 34.7854 20.4572 34.9085 20.6297C34.9085 20.6297 34.5721 20.6297 34.2848 20.3753L34.17 20.7034C34.17 20.7034 33.9731 20.5722 33.85 20.3177C33.85 20.3177 33.6203 20.4983 33.3907 20.4983C33.3907 20.4983 33.4727 20.2522 33.4727 20.1126C33.4727 20.1126 33.1446 20.3095 32.8737 20.2357C32.8737 20.2357 32.8819 19.8911 32.9722 19.7927C32.9722 19.7927 32.7589 19.8173 32.6194 19.7434C32.6194 19.7434 32.7014 19.5547 32.7425 19.4316C32.7425 19.4316 32.5127 19.4398 32.3733 19.3085C32.3733 19.3085 32.8164 19.1362 32.9149 18.9722L34.252 19.0789Z" fill="#FFD25A"/>
<path d="M33.4452 17.7005C33.5436 17.7552 33.7023 17.8755 33.768 18.0778C33.768 18.0778 33.9485 17.8152 34.2603 17.766C34.2603 17.766 34.397 17.9191 34.3587 18.3184C34.3587 18.3184 34.7033 18.22 34.8893 18.4004C34.8893 18.4004 34.5228 18.4825 34.3533 18.7887C34.3533 18.7887 34.2874 19.1017 34.4024 19.2877C34.4024 19.2877 34.2744 19.3047 34.1454 19.2483C34.1454 19.2483 34.0798 19.5601 34.1454 19.6585C34.1454 19.6585 33.9649 19.6366 33.8664 19.4453C33.8664 19.4453 33.7187 19.6695 33.7296 19.8063C33.7296 19.8063 33.5328 19.6915 33.5218 19.522C33.5218 19.522 33.385 19.779 33.2374 19.801C33.2374 19.801 33.221 19.4399 33.1554 19.3031C33.1554 19.3031 33.0296 19.4399 32.8655 19.4344C32.8655 19.4344 32.8655 19.1554 33.0023 19.0241C33.0023 19.0241 32.7725 19.0952 32.6467 18.8436C32.6467 18.8436 33.0241 18.9529 33.1171 18.7233C33.2101 18.4935 33.2374 18.4225 33.3687 18.2966C33.4999 18.1709 33.4452 17.7005 33.4452 17.7005Z" fill="#FFBE5A"/>
<path d="M34.2519 18.7588C34.2519 18.7588 33.7841 19.653 33.3576 19.3824C32.8903 19.0857 33.4724 18.3896 33.5463 18.3158C33.5462 18.3157 33.8908 18.406 34.2519 18.7588Z" fill="#FFE15A"/>
<path d="M32.5653 23.3392C32.5653 23.3392 32.5163 22.697 32.1681 22.5116C31.8407 22.3374 31.6473 22.2503 31.6098 22.027C31.6098 22.027 31.8942 22.1577 32.1949 22.2394C32.4666 22.3132 32.7317 22.773 32.6512 23.2902L32.5653 23.3392Z" fill="#5ABEA0"/>
<path d="M31.4662 23.8674L31.5104 23.949L31.5426 24.1246L31.4782 24.3329C31.4782 24.3329 31.734 24.4346 31.7923 24.782C31.8322 25.0204 31.9372 25.072 32.0016 25.0229C32.066 24.9739 32.105 24.916 32.0378 24.6553C31.9519 24.3226 31.7197 24.0061 31.7197 24.0061L31.5386 23.7285L31.4662 23.8674Z" fill="#B46446"/>
<path d="M31.7197 24.0062C31.4863 23.7041 30.85 23.0752 30.7294 23.9326C30.7294 23.9326 30.48 23.2102 30.9468 23.2384C31.4862 23.2712 31.7197 24.0062 31.7197 24.0062Z" fill="#5ABEA0"/>
<path d="M31.5103 23.9491C31.309 23.7285 31.2445 23.5652 31.1399 23.1569C31.0352 22.7486 31.003 22.626 30.8822 22.6342C30.7613 22.6423 30.689 22.773 30.689 23.0343C30.689 23.0343 30.3347 22.7157 30.5762 22.4626C30.8178 22.2095 31.3572 22.3483 31.3895 22.7975C31.4216 23.2466 31.4137 23.5488 31.5746 23.9246L31.5103 23.9491Z" fill="#5ABEA0"/>
<path d="M31.5667 23.7531C31.5667 23.7531 31.14 22.8139 32.3398 22.3074C32.3398 22.3074 31.2769 22.0216 31.4058 23.5325L31.5667 23.7531Z" fill="#5ABEA0"/>
<path d="M31.7038 24.0878C31.7038 24.0878 30.8019 23.7448 30.8825 24.5779C30.8825 24.5779 31.0355 24.1858 31.4783 24.3329L31.7038 24.0878Z" fill="#5ABEA0"/>
<path d="M32.7262 23.7584C32.7262 24.002 32.822 24.709 32.686 24.7983C32.6175 24.8432 32.4242 24.8065 32.4403 24.635C32.4565 24.4635 32.533 23.6304 32.533 23.4263C32.533 23.2221 32.7262 23.7584 32.7262 23.7584Z" fill="#B46446"/>
<path d="M32.152 24.3248C32.3077 24.1669 32.356 23.8076 32.3023 23.3284C32.3023 23.3284 32.6244 23.5516 32.7264 23.7586C32.7264 23.7586 32.8284 23.2848 32.4956 23.1596C32.1628 23.0343 31.9856 23.1052 31.9265 23.2575C31.8675 23.41 32.0283 23.5805 32.0984 23.8292C32.1627 24.058 32.152 24.3248 32.152 24.3248Z" fill="#5ABEA0"/>
<path d="M32.7049 23.6332C32.7049 23.6332 32.7586 23.3828 32.9357 23.2793C32.9357 23.2793 33.3008 23.5353 33.2738 23.8783C33.2738 23.8783 33.3705 23.4101 33.1719 23.225C32.9732 23.0399 32.7477 22.9909 32.635 23.1542C32.5223 23.3174 32.7049 23.6332 32.7049 23.6332Z" fill="#5ABEA0"/>
<path d="M32.7909 23.1542C32.7909 23.1542 32.9037 22.4844 33.1881 22.3374C33.4725 22.1904 33.9988 22.0543 34.0309 22.0216C34.0309 22.0216 33.4029 22.0543 33.3009 22.0543C33.1989 22.0543 32.6352 22.4626 32.6352 23.0671C32.6352 23.6714 32.6889 23.2577 32.705 23.2521C32.721 23.2468 32.7909 23.1542 32.7909 23.1542Z" fill="#5ABEA0"/>
<path d="M33.0525 24.925C33.1169 25.0598 33.2699 25.0923 33.3021 25.023C33.3343 24.9536 33.4792 24.4227 33.4792 24.4227L33.2739 24.3247L33.0525 24.925Z" fill="#B46446"/>
<path d="M34.2562 22.6967C34.5085 22.5497 34.675 22.9854 34.675 22.9854C34.675 22.4725 34.5139 22.3103 34.1113 22.5062C33.9901 22.5653 33.9013 22.689 33.836 22.8324C33.6322 22.2467 33.1827 22.2557 33.1827 22.2557L33.0807 22.3265C33.4487 22.3973 33.6596 22.8384 33.7487 23.079C33.7007 23.2546 33.6774 23.4248 33.6675 23.5222C33.4262 23.7722 33.2739 24.3246 33.2739 24.3246C33.2739 24.3246 33.4471 24.4267 33.4792 24.4226C33.4792 24.4226 33.592 24.0755 33.7329 24.0837C33.8738 24.0918 34.0389 24.3165 34.0429 24.4594C34.0429 24.4594 34.2523 24.0347 34.0027 23.8714C33.909 23.8101 33.834 23.7868 33.7734 23.7856L33.9585 23.5774C34.2604 23.6346 34.4698 23.9205 34.4698 23.9205C34.4759 23.4101 34.2505 23.3104 34.0128 23.3532C34.0553 23.1477 34.1488 22.7594 34.2562 22.6967Z" fill="#5ABEA0"/>
<path d="M39.2269 23.4037C39.2269 23.8318 39.2269 24.7811 39.2269 24.8511C39.2269 24.9211 38.9203 25.1935 38.9203 25.1935H39.7353C39.7353 25.1935 39.4735 24.8899 39.4735 24.8511C39.4735 24.8123 39.5334 23.5125 39.5334 23.5125L39.2269 23.4037Z" fill="#B46446"/>
<path d="M39.2791 23.5514C39.0848 23.5359 38.5464 23.9795 38.3894 24.6565C38.3894 24.6565 37.9108 23.8782 39.1072 23.2323C39.1072 23.2323 38.5763 23.0766 37.7688 23.9171C37.7252 23.9625 37.6866 22.6487 39.1371 22.9988C39.1371 22.9988 38.5838 22.1972 37.4473 22.8277C37.4473 22.8277 38.2024 21.4735 39.3165 22.6876C39.3165 22.6876 39.3239 21.6369 39.3315 21.7459C39.3391 21.8548 39.4213 22.3372 39.4213 22.3372L39.6381 21.956L39.4662 22.7342C39.4662 22.7342 40.4606 21.4112 41.3055 22.7888C41.3055 22.7888 40.2138 22.3374 39.6905 22.8432C39.6905 22.8432 40.8121 22.5397 40.7223 23.8393C40.7223 23.8393 40.2812 23.0689 39.5634 23.17C39.5634 23.17 40.4084 23.5591 40.1391 24.6098C40.139 24.6099 39.6299 23.5794 39.2791 23.5514Z" fill="#5ABEA0"/>
<path d="M32.139 28.2283C32.0974 28.172 32.0391 28.1449 31.9819 28.1377C32.0039 28.0618 32.0186 28.0271 32.0127 27.9718C32.0301 27.9761 32.0468 27.984 32.0647 27.9861L32.0724 27.9237C32.0061 27.9157 31.9337 27.8859 31.8593 27.8405C31.9052 27.8013 31.9384 27.7409 31.9384 27.6669C31.9384 27.5866 31.9015 27.5193 31.8491 27.4811C31.7968 27.5194 31.7599 27.5867 31.7599 27.6669C31.7599 27.7272 31.7846 27.7756 31.817 27.8143C31.7894 27.7952 31.7615 27.773 31.7334 27.7492C31.7262 27.6998 31.7073 27.65 31.6634 27.6101C31.604 27.556 31.5295 27.5379 31.4659 27.5509C31.4589 27.6153 31.4838 27.6878 31.5432 27.742C31.589 27.7838 31.643 27.7981 31.6949 27.7992C31.7067 27.8092 31.7191 27.8193 31.7321 27.8295C31.6965 27.8252 31.6581 27.8288 31.6198 27.8428C31.5442 27.8704 31.4937 27.9279 31.4757 27.9902C31.5296 28.0263 31.6054 28.038 31.6808 28.0104C31.7467 27.9864 31.7891 27.9381 31.812 27.8853C31.8561 27.9135 31.9046 27.937 31.9548 27.9559L31.9468 27.9569C31.9451 28.0022 31.9481 28.0208 31.9256 28.105C31.8749 28.0721 31.8078 28.0573 31.7368 28.0782C31.6597 28.1009 31.6056 28.1553 31.5837 28.2163C31.6353 28.2557 31.7101 28.2722 31.7872 28.2494C31.8452 28.2323 31.8845 28.1951 31.9125 28.1528C31.9019 28.1848 31.8886 28.2178 31.8737 28.2515C31.8284 28.2724 31.7859 28.3046 31.7599 28.358C31.7248 28.4302 31.7285 28.5069 31.7589 28.5642C31.8228 28.5528 31.8853 28.5083 31.9205 28.4361C31.9476 28.3804 31.9462 28.3246 31.9325 28.2745C31.9388 28.2604 31.9449 28.2456 31.9511 28.2303C31.957 28.2656 31.9714 28.3014 31.9956 28.3342C32.0433 28.3989 32.1127 28.4312 32.1776 28.4309C32.1969 28.369 32.1867 28.293 32.139 28.2283Z" fill="#5ABEA0"/>
<path d="M31.7693 28.0267C32.0423 28.0267 32.3993 28.0163 32.3887 28.2891C32.3783 28.562 32.0738 29.4859 32.7771 29.7693C33.4804 30.0528 33.5644 30.0108 33.5644 30.0108L33.8793 30.7351L34.6456 30.4622L33.9107 29.8743C33.9107 29.8743 33.8477 29.4753 33.6693 29.2023C33.6693 29.2023 34.1207 28.9713 34.2782 28.7719L33.9633 28.7509C33.9633 28.7509 34.3727 28.4885 34.5616 28.1946L34.3412 28.2156C34.3412 28.2156 34.5931 27.9636 34.6561 27.6697C34.6561 27.6697 34.2467 28.0791 33.8268 28.1316C33.8268 28.1316 34.0052 27.6697 34.0472 27.4913C34.0472 27.4913 33.7323 27.6907 33.5119 27.7747C33.2915 27.8587 32.945 27.8691 33.1025 28.583C33.1025 28.583 32.9135 28.4256 32.7981 28.0896C32.6827 27.7537 32.6407 27.6277 32.4832 27.6277C32.226 27.6277 32.1263 27.8587 32.1263 27.8587L31.7693 28.0267Z" fill="#FFECDE"/>
<path d="M39.5173 28.1616C39.6117 28.0357 39.8007 27.6422 39.9659 27.7445C40.1312 27.8468 40.3516 28.0986 40.4853 27.9806C40.619 27.8625 40.627 27.713 40.4223 27.6422C40.2176 27.5715 39.9895 27.4533 39.8479 27.5006C39.7062 27.5477 39.2735 27.9964 39.2735 27.9964L39.5173 28.1616Z" fill="#B46446"/>
<path d="M38.2975 28.5002C38.2897 28.3191 38.4118 27.5333 38.9035 27.6345C39.1711 27.6896 39.3027 27.9732 39.6512 28.1066C40.021 28.2483 40.2572 28.3348 40.1863 28.5787C40.1154 28.8227 39.9816 29.1139 39.6747 29.1847C39.3678 29.2557 38.2975 28.5002 38.2975 28.5002Z" fill="#FFE15A"/>
<path d="M37.9751 29.1478C37.8702 29.1688 37.4819 29.7355 37.9437 30.3126C37.9437 30.3126 38.5103 30.5434 38.9615 30.1867C39.4127 29.83 39.0769 29.6516 39.0769 29.6516L37.9751 29.1478Z" fill="#5ABEA0"/>
<path d="M38.0144 29.2712C37.9672 29.2003 37.9751 29.1479 37.9751 29.1479C37.9751 29.1479 37.9515 28.3347 38.2899 28.319C38.6283 28.3032 39.848 29.1059 39.848 29.2397C39.848 29.3734 39.4545 29.759 39.124 29.8377C38.7936 29.9164 38.0144 29.2712 38.0144 29.2712Z" fill="#5ABEA0"/>
<path d="M37.1803 31.2387C37.1803 31.2387 38.2552 30.7558 38.0532 30.3629C37.9074 30.0794 37.5797 30.261 37.5279 30.4775C37.4631 30.7476 37.253 31.124 37.1803 31.2387Z" fill="#B46446"/>
<path d="M35.9939 32.6113L35.9317 32.5915C35.8694 32.5715 34.3854 32.0936 32.8771 31.0994C30.8516 29.7646 29.7809 28.1353 29.7809 26.3883V16.8982H42.2068V26.3883C42.2068 28.1354 41.1361 29.7646 39.1106 31.0994C37.6023 32.0936 36.1184 32.5715 36.0559 32.5915L35.9939 32.6113ZM30.1906 17.3079V26.3883C30.1906 30.0709 35.3635 31.9635 35.9939 32.1803C36.6236 31.9635 41.7972 30.0678 41.7972 26.3883V17.3079H30.1906Z" fill="#464655"/>
</svg>
