<svg width="48" height="48" viewBox="0 0 48 48" fill="none" xmlns="http://www.w3.org/2000/svg">
<path d="M47.1723 39.7242H0.827623C0.370593 39.7242 0 39.3536 0 38.8966V9.10362C0 8.64659 0.370593 8.276 0.827623 8.276H47.1724C47.6294 8.276 48 8.64659 48 9.10362V38.8966C47.9999 39.3537 47.6293 39.7242 47.1723 39.7242Z" fill="#FF4B55"/>
<path d="M43.0344 13.2413V34.7584H4.9656V13.2413H43.0344Z" fill="#FFE15A"/>
<path d="M4.9656 13.2413L24 23.9998L4.9656 34.7584V13.2413Z" fill="#73AF00"/>
<path d="M43.0342 13.2413L23.9998 23.9998L43.0342 34.7584V13.2413Z" fill="#73AF00"/>
<path d="M24 27.3103C25.8282 27.3103 27.3103 25.8282 27.3103 24C27.3103 22.1718 25.8282 20.6897 24 20.6897C22.1718 20.6897 20.6897 22.1718 20.6897 24C20.6897 25.8282 22.1718 27.3103 24 27.3103Z" fill="#FF4B55"/>
<path d="M24.2093 21.5745L24.727 23.1268L26.3633 23.1396C26.5752 23.1413 26.6631 23.4115 26.4926 23.5374L25.1763 24.5095L25.67 26.0697C25.7339 26.2717 25.5039 26.4388 25.3314 26.3156L24.0001 25.364L22.6689 26.3156C22.4966 26.4388 22.2666 26.2717 22.3304 26.0697L22.8241 24.5095L21.5078 23.5374C21.3373 23.4115 21.4252 23.1413 21.6371 23.1396L23.2734 23.1268L23.7911 21.5745C23.8579 21.3735 24.1422 21.3735 24.2093 21.5745Z" fill="#FFE15A"/>
<path d="M24.1235 9.37402L24.4294 10.2912L25.3963 10.2986C25.5214 10.2995 25.5734 10.4594 25.4726 10.5336L24.6947 11.1079L24.9864 12.0298C25.0242 12.1491 24.8882 12.2478 24.7864 12.175L24 11.6131L23.2133 12.1753C23.1115 12.2481 22.9756 12.1493 23.0133 12.0301L23.305 11.1082L22.5271 10.5339C22.4265 10.4596 22.4783 10.2998 22.6035 10.2989L23.5703 10.2915L23.8762 9.37431C23.9159 9.25524 24.0839 9.25524 24.1235 9.37402Z" fill="#FFE15A"/>
<path d="M35.0112 9.37412L35.3171 10.2913L36.284 10.2987C36.4091 10.2996 36.4611 10.4595 36.3603 10.5337L35.5824 11.108L35.8741 12.0299C35.9119 12.1492 35.7759 12.2479 35.6741 12.1751L34.8875 11.6129L34.1008 12.1751C33.999 12.2479 33.8631 12.1491 33.9008 12.0299L34.1925 11.108L33.4147 10.5337C33.314 10.4594 33.3658 10.2996 33.491 10.2987L34.4578 10.2913L34.7637 9.37412C34.8037 9.25534 34.9716 9.25534 35.0112 9.37412Z" fill="#FFE15A"/>
<path d="M13.2357 9.37412L13.5416 10.2913L14.5085 10.2987C14.6336 10.2996 14.6856 10.4595 14.5848 10.5337L13.8069 11.108L14.0986 12.0299C14.1364 12.1492 14.0004 12.2479 13.8986 12.1751L13.112 11.6129L12.3253 12.1751C12.2235 12.2479 12.0876 12.1491 12.1254 12.0299L12.417 11.108L11.6392 10.5337C11.5385 10.4594 11.5903 10.2996 11.7155 10.2987L12.6823 10.2913L12.9882 9.37412C13.0282 9.25534 13.1962 9.25534 13.2357 9.37412Z" fill="#FFE15A"/>
<path d="M24.1235 35.8117L24.4294 36.7289L25.3963 36.7363C25.5214 36.7372 25.5734 36.897 25.4726 36.9713L24.6947 37.5456L24.9864 38.4674C25.0242 38.5868 24.8882 38.6855 24.7864 38.6127L24 38.0507L23.2133 38.6129C23.1115 38.6858 22.9756 38.587 23.0133 38.4677L23.305 37.5459L22.5271 36.9716C22.4265 36.8972 22.4783 36.7375 22.6035 36.7365L23.5703 36.7291L23.8762 35.812C23.9159 35.693 24.0839 35.693 24.1235 35.8117Z" fill="#FFE15A"/>
<path d="M35.0112 35.8114L35.3171 36.7285L36.284 36.7359C36.4091 36.7369 36.4611 36.8967 36.3603 36.971L35.5824 37.5453L35.8741 38.4671C35.9119 38.5864 35.7759 38.6852 35.6741 38.6123L34.8875 38.0501L34.1008 38.6123C33.999 38.6852 33.8631 38.5863 33.9008 38.4671L34.1925 37.5453L33.4147 36.971C33.314 36.8966 33.3658 36.7369 33.491 36.7359L34.4578 36.7285L34.7637 35.8114C34.8037 35.6927 34.9716 35.6927 35.0112 35.8114Z" fill="#FFE15A"/>
<path d="M13.2357 35.8114L13.5416 36.7285L14.5085 36.7359C14.6336 36.7369 14.6856 36.8967 14.5848 36.971L13.8069 37.5453L14.0986 38.4671C14.1364 38.5864 14.0004 38.6852 13.8986 38.6123L13.112 38.0501L12.3253 38.6123C12.2235 38.6852 12.0876 38.5863 12.1254 38.4671L12.417 37.5453L11.6392 36.971C11.5385 36.8966 11.5903 36.7369 11.7155 36.7359L12.6823 36.7285L12.9882 35.8114C13.0282 35.6927 13.1962 35.6927 13.2357 35.8114Z" fill="#FFE15A"/>
<path d="M11.0689 21.9308H8.99998V23.9998C8.99998 25.1425 9.92623 26.0688 11.0689 26.0688C12.2117 26.0688 13.1379 25.1425 13.1379 23.9998C13.1379 22.8571 12.2116 21.9308 11.0689 21.9308Z" fill="#FFE15A"/>
<path d="M13.138 26.0689L12.0007 25.8484L11.0691 23.9999L12.9175 24.9317L13.138 26.0689Z" fill="#FF4B55"/>
</svg>
