<svg width="48" height="48" viewBox="0 0 48 48" fill="none" xmlns="http://www.w3.org/2000/svg">
<path d="M47.1723 39.7242H0.827623C0.370593 39.7242 0 39.3536 0 38.8966V9.10362C0 8.64659 0.370593 8.276 0.827623 8.276H47.1724C47.6294 8.276 48 8.64659 48 9.10362V38.8966C47.9999 39.3537 47.6293 39.7242 47.1723 39.7242Z" fill="white"/>
<path d="M47.1723 39.7242H0.827623C0.370593 39.7242 0 39.3536 0 38.8966V28.9656H47.9999V38.8966C47.9999 39.3537 47.6293 39.7242 47.1723 39.7242Z" fill="#FF4B55"/>
<path d="M33.1033 19.8622V18.2071H31.4482V14.0692H32.2757V12.414H27.3103V14.0692H28.1378V18.2071H25.6551V12.414H26.4826V10.7589H21.5172V12.414H22.3447V18.2071H19.862V14.0692H20.6896V12.414H15.7241V14.0692H16.5516V18.2071H14.8965V19.8622H15.7241V26.4829H14.8965V28.1381H33.1033V26.4829H32.2757V19.8622H33.1033Z" fill="#FF4B55"/>
<path d="M25.6554 27.3101H22.345V23.9998C22.345 23.0856 23.086 22.3446 24.0002 22.3446C24.9144 22.3446 25.6554 23.0856 25.6554 23.9998V27.3101Z" fill="#464655"/>
<path d="M23.9999 15.724C23.5429 15.724 23.1723 16.0946 23.1723 16.5516V19.0344H24.8275V16.5516C24.8276 16.0946 24.457 15.724 23.9999 15.724Z" fill="#464655"/>
<path d="M29.7931 16.5515C29.336 16.5515 28.9654 16.9221 28.9654 17.3791V19.0343H30.6206V17.3791C30.6207 16.922 30.2503 16.5515 29.7931 16.5515Z" fill="#464655"/>
<path d="M18.2068 16.5515C17.7498 16.5515 17.3792 16.9221 17.3792 17.3791V19.0343H19.0344V17.3791C19.0345 16.922 18.6639 16.5515 18.2068 16.5515Z" fill="#464655"/>
<path d="M30.6205 27.3104H27.3102V24.8276C27.3102 23.9135 28.0512 23.1725 28.9654 23.1725C29.8795 23.1725 30.6205 23.9135 30.6205 24.8276V27.3104Z" fill="#464655"/>
<path d="M20.6896 27.3104H17.3793V24.8276C17.3793 23.9135 18.1203 23.1725 19.0345 23.1725C19.9486 23.1725 20.6896 23.9135 20.6896 24.8276V27.3104Z" fill="#464655"/>
<path d="M26.2756 30.2067C26.2756 30.0685 26.2065 29.9391 26.0914 29.8624L24.4135 28.744V28.3936L25.8399 27.6804C26.0445 27.5782 26.1272 27.3296 26.025 27.1252C25.9223 26.9204 25.6747 26.838 25.4698 26.9401L23.9997 27.6752L22.5296 26.9402C22.3259 26.8381 22.0766 26.9205 21.9745 27.1253C21.8723 27.3299 21.955 27.5783 22.1595 27.6805L23.5859 28.3936V28.744L21.9081 29.8626C21.793 29.9393 21.7239 30.0686 21.7239 30.2068C21.7239 30.3449 21.793 30.4743 21.9081 30.551L23.5859 31.6696V35.1723H21.9308V35.806C21.9308 36.0347 22.1158 36.2198 22.3446 36.2198C22.5029 36.2198 22.6407 36.1309 22.7103 35.9999H23.586V36.8276H22.7031C22.6316 36.7039 22.4979 36.6206 22.3447 36.6206C22.1159 36.6206 21.9309 36.8057 21.9309 37.0345V37.6552H23.586V38.069C23.586 38.2977 23.7711 38.4828 23.9998 38.4828C24.2286 38.4828 24.4136 38.2977 24.4136 38.069V37.6552V35.1724V31.6697L26.0915 30.5511C26.2065 30.4741 26.2756 30.3449 26.2756 30.2067ZM23.9997 30.9507L22.8836 30.2067L23.9997 29.4628L25.1158 30.2067L23.9997 30.9507Z" fill="#FFE15A"/>
</svg>
