<svg width="48" height="48" viewBox="0 0 48 48" fill="none" xmlns="http://www.w3.org/2000/svg">
<path d="M47.1723 39.7243H0.827623C0.370593 39.7243 0 39.3537 0 38.8966V9.10359C0 8.64656 0.370593 8.27597 0.827623 8.27597H47.1724C47.6294 8.27597 48 8.64656 48 9.10359V38.8966C47.9999 39.3538 47.6293 39.7243 47.1723 39.7243Z" fill="#41479B"/>
<path d="M47.9999 14.0691H0V33.9309H47.9999V14.0691Z" fill="white"/>
<path d="M28.3 24.0001L30.4499 20.2762H26.1501L23.9998 16.5518L21.8495 20.2762H17.5497L19.6996 24.0001L17.5497 27.7239H21.8495L23.9998 31.4483L26.15 27.7239H30.4498L28.3 24.0001ZM28.3406 21.4941L27.5968 22.7822L26.8531 21.4941H28.3406ZM26.8937 24.0001L25.4469 26.506H22.5525L21.1058 24.0001L22.5526 21.4941H25.447L26.8937 24.0001ZM23.9998 18.9876L24.7438 20.2763H23.2558L23.9998 18.9876ZM19.659 21.4941H21.1463L20.4026 22.7822L19.659 21.4941ZM19.659 26.506L20.4027 25.2179L21.1464 26.506H19.659ZM23.9998 29.0125L23.2558 27.7238H24.7438L23.9998 29.0125ZM27.5968 25.2179L28.3406 26.506H26.8532L27.5968 25.2179Z" fill="#41479B"/>
</svg>
