<svg width="48" height="48" viewBox="0 0 48 48" fill="none" xmlns="http://www.w3.org/2000/svg">
<path d="M47.9999 18.7588H0V9.10362C0 8.64659 0.370593 8.276 0.827623 8.276H47.1724C47.6294 8.276 48 8.64659 48 9.10362L47.9999 18.7588Z" fill="#FF4B55"/>
<path d="M47.1723 39.7242H0.827623C0.370593 39.7242 0 39.3536 0 38.8966V29.2415H47.9999V38.8966C47.9999 39.3537 47.6293 39.7242 47.1723 39.7242Z" fill="#464655"/>
<path d="M47.9999 18.7584H0V29.2406H47.9999V18.7584Z" fill="white"/>
<path d="M28.881 21.8929C28.794 21.8476 28.6909 21.6856 28.7231 21.6147C28.7569 21.5404 28.7042 21.5467 28.8821 21.5996C29.2036 21.6829 29.4118 21.6449 29.6161 21.471L29.7976 21.3273L30.0096 21.4332C30.1268 21.4861 30.2478 21.5239 30.282 21.5163C30.3803 21.4936 30.5697 21.2514 30.5657 21.1682C30.5619 21.0549 30.6451 21.0851 30.6868 21.2062C30.7738 21.4332 30.6137 21.8248 30.3944 21.8778C30.2886 21.908 30.1902 21.9005 30.0236 21.8476C29.8269 21.7718 29.7965 21.7718 29.6908 21.8476C29.4712 22.0216 29.1571 22.0369 28.881 21.8929Z" fill="#73AF00"/>
<path d="M29.7092 21.0171C29.6031 20.8683 29.4755 20.3477 29.5128 20.2203C29.5498 20.1033 29.587 20.0821 29.6879 20.114C29.8686 20.1776 29.9112 20.2946 29.8898 20.7198C29.858 21.0382 29.8156 21.1447 29.7092 21.0171Z" fill="#73AF00"/>
<path d="M22.594 23.3183C22.158 23.5664 21.5094 23.609 21.5094 24.2965C20.5597 24.3319 19.4398 24.3744 18.4297 24.3531C18.7035 23.9995 20.4361 22.3982 21.1565 21.7635C21.2758 21.6585 21.3163 21.4552 21.2469 21.3123L21.2282 21.2738C21.1244 21.0596 20.8418 21.0086 20.6697 21.1731C19.9518 21.86 19.2403 22.4999 19.1244 22.6096C18.195 23.549 17.9223 23.8227 17.7763 23.9697C17.6723 24.0744 17.6145 24.2159 17.6152 24.3635V24.3731C17.6169 24.6797 17.8658 24.9273 18.1723 24.9273H22.2392C22.4697 24.9273 22.1863 24.1264 22.4838 24.1264C22.6907 24.1264 22.7098 24.4137 22.7007 24.7181C22.6937 24.9497 22.503 25.1329 22.2714 25.1331C20.5131 25.1356 18.6828 25.1524 16.9604 25.154C16.8182 25.154 16.704 25.0386 16.704 24.8963V24.5865C16.704 24.3238 16.4122 24.1711 16.1927 24.3153C16.1846 24.3205 16.1767 24.3256 16.1689 24.3305C16.0541 24.4022 15.9954 24.5426 16.0402 24.6702C16.0693 24.7531 16.0819 24.854 16.0847 24.9594C16.0884 25.0988 15.9749 25.2138 15.8355 25.2181C15.2659 25.2355 14.6468 25.2407 14.471 24.9048C14.3719 24.7154 14.1608 24.626 13.9695 24.7216L13.9441 24.7343C13.7427 24.835 13.6621 25.0841 13.7723 25.2803C13.9821 25.6534 14.1736 26.0861 14.0742 26.6922C13.9932 26.8832 13.8406 27.0028 13.6752 27.1104C13.4914 27.2301 13.6068 27.51 13.8223 27.4701C14.3449 27.3736 14.7049 26.96 14.8151 26.4725H22.917C23.2141 26.4725 23.455 26.2315 23.455 25.9344V24.1761C23.3807 23.6515 22.8172 23.6728 22.594 23.3183Z" fill="#73AF00"/>
<path d="M32.8703 20.995C32.9898 21.0719 33.1095 21.1489 33.2429 21.2124C33.3888 21.2821 33.4446 21.4602 33.3593 21.5975C33.3367 21.6338 33.3179 21.6744 33.3072 21.7237V25.2109C33.5455 25.2605 33.6823 25.2135 33.7909 25.1386C33.9135 25.054 34.0793 25.1155 34.118 25.2593C34.2002 25.5652 34.3348 25.864 34.4067 26.1361C34.4516 26.3061 34.3239 26.4725 34.148 26.4725H32.7819C32.6609 26.4725 32.5629 26.3744 32.5629 26.2535V21.1629C32.5628 21.0051 32.7375 20.9096 32.8703 20.995Z" fill="#73AF00"/>
<path d="M31.2162 21.8442C31.2173 22.8071 31.2285 23.8444 31.2301 24.8766C31.2303 25.0103 31.1218 25.1187 30.9881 25.1187H30.9724C30.8388 25.1187 30.7305 25.0104 30.7305 24.8768V22.4309C30.7305 22.2978 30.5741 22.2266 30.4739 22.3142L30.1533 22.5912C30.0877 22.6478 30.05 22.7293 30.0497 22.8159C30.0487 23.2138 30.0451 24.3722 30.0437 24.8779C30.0433 25.0111 29.9352 25.1187 29.8018 25.1187H29.7799C29.647 25.1187 29.539 25.0119 29.538 24.879C29.5357 24.5423 29.5316 23.9184 29.5299 23.4504C29.5293 23.3158 29.3701 23.2455 29.2689 23.3342C28.9367 23.6253 28.86 23.6911 28.6857 23.8712C28.6999 23.9633 28.7709 23.8712 28.8133 23.942V24.4099C27.6032 24.1821 27.5129 25.1488 27.5582 26.1861C27.5651 26.342 27.693 26.4652 27.849 26.4652H31.6483C31.7892 26.4652 31.9034 26.3511 31.9034 26.2101V21.4869C31.9034 21.3292 31.7162 21.2482 31.5998 21.3548C31.507 21.4397 31.4079 21.5247 31.3227 21.6017C31.2545 21.664 31.2162 21.7516 31.2162 21.8442ZM28.4202 25.0834C28.3458 24.8706 28.764 24.7926 28.8135 24.9842C28.8312 25.218 28.5124 25.2251 28.4202 25.0834Z" fill="#73AF00"/>
<path d="M15.871 26.8481C16.0163 26.8481 16.1332 26.9687 16.1332 27.1104C16.1332 27.2593 16.0163 27.3727 15.871 27.3727C15.7222 27.3727 15.6016 27.2593 15.6016 27.1104C15.6017 26.9687 15.7223 26.8481 15.871 26.8481Z" fill="#73AF00"/>
<path d="M24.5097 21.1019C24.5807 21.1446 24.6536 21.1853 24.7314 21.222C24.8716 21.2883 24.9269 21.4626 24.8411 21.5918C24.8154 21.6307 24.7933 21.6749 24.7804 21.7308V25.2109C25.0329 25.267 25.171 25.212 25.2812 25.1305C25.3909 25.0494 25.5488 25.1055 25.5839 25.2372C25.647 25.4734 25.7419 25.7071 25.8151 25.9289C25.9047 26.2001 25.7035 26.4796 25.4179 26.4796H24.3522C24.1796 26.4796 24.0398 26.3397 24.0398 26.167V21.3714C24.0398 21.1303 24.3029 20.9777 24.5097 21.1019Z" fill="#73AF00"/>
</svg>
