<svg width="48" height="48" viewBox="0 0 48 48" fill="none" xmlns="http://www.w3.org/2000/svg">
<g clip-path="url(#clip0_11_4955)">
<path d="M47.1722 39.7236H0.827622C0.370592 39.7236 0 39.353 0 38.896V9.10313C0 8.6461 0.370592 8.27551 0.827622 8.27551H47.1723C47.6293 8.27551 47.9999 8.6461 47.9999 9.10313V38.896C47.9998 39.3532 47.6292 39.7236 47.1722 39.7236Z" fill="#FF4B55"/>
<path d="M28.6372 24.2602C28.4273 24.0797 28.1892 23.9482 27.9502 23.8521C29.3011 23.5858 30.3875 22.4444 30.3875 22.4444C29.7307 22.7325 29.4255 22.7908 28.3803 22.4473C28.1173 22.3609 27.847 22.3305 27.5895 22.3332C28.7355 21.5701 29.3025 20.1001 29.3025 20.1001C28.8061 20.6175 28.5463 20.7883 27.4492 20.8709C27.1732 20.8917 26.9119 20.9671 26.6749 21.0681C27.4417 19.9247 27.4029 18.3493 27.4029 18.3493C27.1423 19.0174 26.9677 19.2745 25.9857 19.7706C25.7386 19.8954 25.526 20.0652 25.3458 20.2491C25.6165 18.8992 24.9779 17.4589 24.9779 17.4589C24.9928 18.1758 24.9298 18.4802 24.2125 19.3144C24.032 19.5243 23.9005 19.7624 23.8044 20.0014C23.5381 18.6505 22.3967 17.5641 22.3967 17.5641C22.6848 18.2209 22.7431 18.5261 22.3996 19.5713C22.3132 19.8343 22.2828 20.1046 22.2855 20.3621C21.5224 19.2161 20.0524 18.6491 20.0524 18.6491C20.5698 19.1455 20.7406 19.4053 20.8232 20.5024C20.844 20.7785 20.9194 21.0397 21.0203 21.2766C19.8767 20.5099 18.3016 20.5487 18.3016 20.5487C18.9696 20.8093 19.2268 20.9839 19.7228 21.9659C19.8477 22.213 20.0175 22.4256 20.2015 22.6058C18.8515 22.335 17.4111 22.9737 17.4111 22.9737C18.1281 22.9588 18.4324 23.0218 19.2667 23.7391C19.4766 23.9196 19.7147 24.051 19.9537 24.1472C18.6028 24.4135 17.5164 25.5549 17.5164 25.5549C18.1731 25.2668 18.4784 25.2085 19.5236 25.552C19.7867 25.6385 20.057 25.6688 20.3145 25.6661C19.1685 26.4291 18.6014 27.8993 18.6014 27.8993C19.0978 27.3819 19.3576 27.2111 20.4547 27.1285C20.7307 27.1077 20.992 27.0323 21.2289 26.9314C20.4622 28.075 20.501 29.6501 20.501 29.6501C20.7616 28.982 20.9362 28.7249 21.9182 28.2288C22.1653 28.1039 22.3778 27.9341 22.5581 27.7502C22.2873 29.1002 22.926 30.5406 22.926 30.5406C22.9111 29.8236 22.9741 29.5192 23.6914 28.685C23.8719 28.475 24.0034 28.2369 24.0995 27.998C24.3658 29.3487 25.5072 30.4352 25.5072 30.4352C25.2191 29.7785 25.1608 29.4731 25.5043 28.428C25.5907 28.165 25.6211 27.8947 25.6184 27.6372C26.3815 28.7832 27.8515 29.3502 27.8515 29.3502C27.3341 28.8538 27.1633 28.594 27.0807 27.497C27.0599 27.221 26.9845 26.9596 26.8836 26.7227C28.027 27.4895 29.6023 27.4506 29.6023 27.4506C28.9342 27.1899 28.6771 27.0155 28.181 26.0334C28.0561 25.7863 27.8863 25.5737 27.7024 25.3935C29.0524 25.6642 30.4927 25.0256 30.4927 25.0256C29.7758 25.0405 29.4714 24.9778 28.6372 24.2602Z" fill="#FFE15A"/>
<path d="M27.3194 24.6605L30.6207 24.0002L27.3194 23.3399L30.1168 21.4666L26.8141 22.1199L28.6817 19.3186L25.8805 21.1862L26.5338 17.8835L24.6605 20.6808L24.0001 17.3797L23.3399 20.681L21.4666 17.8837L22.12 21.1864L19.3187 19.3188L21.1863 22.1201L17.8836 21.4668L20.681 23.3401L17.3795 24.0003L20.6808 24.6606L17.8834 26.5339L21.1861 25.8806L19.3185 28.6818L22.1198 26.8142L21.4664 30.1169L23.3397 27.3196L24.0001 30.6208L24.6604 27.3195L26.5337 30.1168L25.8804 26.8141L28.6816 28.6817L26.814 25.8805L30.1167 26.5338L27.3194 24.6605Z" fill="#FFD25A"/>
<path d="M24.0001 27.31C25.8283 27.31 27.3104 25.8279 27.3104 23.9996C27.3104 22.1714 25.8283 20.6893 24.0001 20.6893C22.1718 20.6893 20.6897 22.1714 20.6897 23.9996C20.6897 25.8279 22.1718 27.31 24.0001 27.31Z" fill="#FFE15A"/>
<path d="M9.58731 33.9315C11.9882 33.9315 11.9882 34.7591 14.3893 34.7591C16.792 34.7591 16.792 33.9315 19.1945 33.9315C21.597 33.9315 21.5972 34.7591 23.9997 34.7591C26.397 34.7591 26.397 33.9315 28.7944 33.9315C31.1929 33.9315 31.1929 34.7591 33.5914 34.7591C35.991 34.7591 35.991 33.9315 38.3906 33.9315C40.7901 33.9315 40.7901 34.7591 43.1896 34.7591C45.5892 34.7591 45.5892 33.9315 47.9888 33.9315C47.9927 33.9315 47.9959 33.9317 47.9997 33.9317V31.4489C47.9959 31.4489 47.9927 31.4487 47.9888 31.4487C45.5892 31.4487 45.5892 32.2764 43.1896 32.2764C40.7902 32.2764 40.7902 31.4487 38.3906 31.4487C35.991 31.4487 35.991 32.2764 33.5914 32.2764C31.1928 32.2764 31.1928 31.4487 28.7944 31.4487C26.3971 31.4487 26.3971 32.2764 23.9997 32.2764C21.597 32.2764 21.597 31.4487 19.1945 31.4487C16.792 31.4487 16.7918 32.2764 14.3893 32.2764C11.9882 32.2764 11.9882 31.4487 9.58731 31.4487C7.18844 31.4487 7.18844 32.2764 4.78948 32.2764C2.39315 32.2764 2.38865 31.4516 0 31.449V33.9318C2.38874 33.9345 2.39315 34.7591 4.78948 34.7591C7.18844 34.7591 7.18844 33.9315 9.58731 33.9315Z" fill="#41479B"/>
<path d="M0 28.9661C2.38874 28.9688 2.39315 29.7934 4.78948 29.7934C7.18844 29.7934 7.18844 28.9658 9.58731 28.9658C11.9882 28.9658 11.9882 29.7934 14.3893 29.7934C16.792 29.7934 16.792 28.9658 19.1945 28.9658C21.597 28.9658 21.5972 29.7934 23.9997 29.7934C26.397 29.7934 26.397 28.9658 28.7944 28.9658C31.1929 28.9658 31.1929 29.7934 33.5914 29.7934C35.991 29.7934 35.991 28.9658 38.3906 28.9658C40.7901 28.9658 40.7901 29.7934 43.1896 29.7934C45.5892 29.7934 45.5892 28.9658 47.9888 28.9658C47.9927 28.9658 47.9959 28.9659 47.9997 28.9659V26.4832C47.9959 26.4832 47.9927 26.483 47.9888 26.483C45.5892 26.483 45.5892 27.3106 43.1896 27.3106C40.7902 27.3106 40.7902 26.483 38.3906 26.483C35.991 26.483 35.991 27.3106 33.5914 27.3106C31.1928 27.3106 31.1928 26.483 28.7944 26.483C26.3971 26.483 26.3971 27.3106 23.9997 27.3106C21.597 27.3106 21.597 26.483 19.1945 26.483C16.792 26.483 16.7918 27.3106 14.3893 27.3106C11.9882 27.3106 11.9882 26.483 9.58731 26.483C7.18844 26.483 7.18844 27.3106 4.78948 27.3106C2.39315 27.3106 2.38865 26.4859 0 26.4833L0 28.9661Z" fill="#41479B"/>
<path d="M0 36.4142C2.38874 36.4169 2.39315 37.2415 4.78948 37.2415C7.18844 37.2415 7.18844 36.4139 9.58731 36.4139C11.9882 36.4139 11.9882 37.2415 14.3893 37.2415C16.792 37.2415 16.792 36.4139 19.1945 36.4139C21.597 36.4139 21.5972 37.2415 23.9997 37.2415C26.397 37.2415 26.397 36.4139 28.7944 36.4139C31.1929 36.4139 31.1929 37.2415 33.5914 37.2415C35.991 37.2415 35.991 36.4139 38.3906 36.4139C40.7901 36.4139 40.7901 37.2415 43.1896 37.2415C45.5892 37.2415 45.5892 36.4139 47.9888 36.4139C47.9927 36.4139 47.9959 36.4141 47.9997 36.4141V33.9313C47.9959 33.9313 47.9927 33.9311 47.9888 33.9311C45.5892 33.9311 45.5892 34.7587 43.1896 34.7587C40.7902 34.7587 40.7902 33.9311 38.3906 33.9311C35.991 33.9311 35.991 34.7587 33.5914 34.7587C31.1928 34.7587 31.1928 33.9311 28.7944 33.9311C26.3971 33.9311 26.3971 34.7587 23.9997 34.7587C21.597 34.7587 21.597 33.9311 19.1945 33.9311C16.792 33.9311 16.7918 34.7587 14.3893 34.7587C11.9882 34.7587 11.9882 33.9311 9.58731 33.9311C7.18844 33.9311 7.18844 34.7587 4.78948 34.7587C2.39315 34.7587 2.38865 33.934 0 33.9314L0 36.4142Z" fill="white"/>
<path d="M0 31.4486C2.38874 31.4512 2.39315 32.2759 4.78948 32.2759C7.18844 32.2759 7.18844 31.4482 9.58731 31.4482C11.9882 31.4482 11.9882 32.2759 14.3893 32.2759C16.792 32.2759 16.792 31.4482 19.1945 31.4482C21.597 31.4482 21.5972 32.2759 23.9997 32.2759C26.397 32.2759 26.397 31.4482 28.7944 31.4482C31.1929 31.4482 31.1929 32.2759 33.5914 32.2759C35.991 32.2759 35.991 31.4482 38.3906 31.4482C40.7901 31.4482 40.7901 32.2759 43.1896 32.2759C45.5892 32.2759 45.5892 31.4482 47.9888 31.4482C47.9927 31.4482 47.9959 31.4484 47.9997 31.4484V28.9656C47.9959 28.9656 47.9927 28.9655 47.9888 28.9655C45.5892 28.9655 45.5892 29.7931 43.1896 29.7931C40.7902 29.7931 40.7902 28.9655 38.3906 28.9655C35.991 28.9655 35.991 29.7931 33.5914 29.7931C31.1928 29.7931 31.1928 28.9655 28.7944 28.9655C26.3971 28.9655 26.3971 29.7931 23.9997 29.7931C21.597 29.7931 21.597 28.9655 19.1945 28.9655C16.792 28.9655 16.7918 29.7931 14.3893 29.7931C11.9882 29.7931 11.9882 28.9655 9.58731 28.9655C7.18844 28.9655 7.18844 29.7931 4.78948 29.7931C2.39315 29.7931 2.38865 28.9684 0 28.9657L0 31.4486Z" fill="white"/>
<path d="M0 26.483C2.38874 26.4857 2.39315 27.3103 4.78948 27.3103C7.18844 27.3103 7.18844 26.4827 9.58731 26.4827C11.9882 26.4827 11.9882 27.3103 14.3893 27.3103C16.792 27.3103 16.792 26.4827 19.1945 26.4827C21.597 26.4827 21.5972 27.3103 23.9997 27.3103C26.397 27.3103 26.397 26.4827 28.7944 26.4827C31.1929 26.4827 31.1929 27.3103 33.5914 27.3103C35.991 27.3103 35.991 26.4827 38.3906 26.4827C40.7901 26.4827 40.7901 27.3103 43.1896 27.3103C45.5892 27.3103 45.5892 26.4827 47.9888 26.4827C47.9927 26.4827 47.9959 26.4828 47.9997 26.4828V24.0001C47.9959 24.0001 47.9927 23.9999 47.9888 23.9999C45.5892 23.9999 45.5892 24.8275 43.1896 24.8275C40.7902 24.8275 40.7902 23.9999 38.3906 23.9999C35.991 23.9999 35.991 24.8275 33.5914 24.8275C31.1928 24.8275 31.1928 23.9999 28.7944 23.9999C26.3971 23.9999 26.3971 24.8275 23.9997 24.8275C21.597 24.8275 21.597 23.9999 19.1945 23.9999C16.792 23.9999 16.7918 24.8275 14.3893 24.8275C11.9882 24.8275 11.9882 23.9999 9.58731 23.9999C7.18844 23.9999 7.18844 24.8275 4.78948 24.8275C2.39315 24.8275 2.38865 24.0028 0 24.0002L0 26.483Z" fill="white"/>
<path d="M43.1897 37.2416C40.7903 37.2416 40.7903 36.414 38.3907 36.414C35.9911 36.414 35.9911 37.2416 33.5916 37.2416C31.193 37.2416 31.193 36.414 28.7945 36.414C26.3972 36.414 26.3972 37.2416 23.9999 37.2416C21.5972 37.2416 21.5972 36.414 19.1947 36.414C16.7922 36.414 16.792 37.2416 14.3895 37.2416C11.9885 37.2416 11.9885 36.414 9.58754 36.414C7.18867 36.414 7.18867 37.2416 4.78971 37.2416C2.39338 37.2416 2.38888 36.4169 0.000230789 36.4143V38.8968C0.000230789 39.3538 0.370823 39.7244 0.827852 39.7244H47.1725C47.6237 39.7244 47.9875 39.3623 47.9968 38.9133C47.9978 37.4572 47.9989 36.4144 48 36.4144C47.9962 36.4144 47.993 36.4142 47.9892 36.4142C45.5894 36.414 45.5894 37.2416 43.1897 37.2416Z" fill="#41479B"/>
<path d="M25.7231 12.6721C29.7475 12.5165 31.793 10.76 31.793 10.76C31.504 10.8711 26.9905 11.2491 25.7009 11.3603C24.8865 11.4304 23.8705 12.359 23.2307 13.0351C23.0583 12.5669 22.7215 12.0813 22.0545 11.9829C20.6982 11.7828 17.0962 11.5605 16.2069 11.1379C16.2069 11.1379 16.7809 12.0253 19.7478 12.4275C21.1692 12.6203 21.9529 13.1078 22.3262 13.4397L21.9878 13.428C21.9878 13.428 21.9878 13.428 21.4098 13.1389C20.8317 12.8499 20.2535 13.339 20.2535 13.339H19.3327C19.2174 13.339 19.1516 13.4707 19.2208 13.5629L19.3094 13.681C19.3998 13.8016 19.5418 13.8726 19.6925 13.8726H20.6314C20.965 14.4507 22.2323 15.051 23.2773 15.051C24.3223 15.051 27.5241 13.6281 27.8354 13.6281L24.9391 13.529L25.7231 12.6721Z" fill="#FFE15A"/>
</g>
<defs>
<clipPath id="clip0_11_4955">
<rect width="48" height="48" fill="white"/>
</clipPath>
</defs>
</svg>
