<svg width="48" height="48" viewBox="0 0 48 48" fill="none" xmlns="http://www.w3.org/2000/svg">
<path d="M47.1723 39.7241H0.827623C0.370593 39.7241 0 39.3535 0 38.8965V9.10347C0 8.64644 0.370593 8.27585 0.827623 8.27585H47.1724C47.6294 8.27585 48 8.64644 48 9.10347V38.8965C47.9999 39.3536 47.6293 39.7241 47.1723 39.7241Z" fill="white"/>
<path d="M28.5947 17.1124C24.7919 14.5774 19.6556 15.6138 17.1221 19.4099C15.8514 21.3047 16.3679 23.8793 18.2692 25.1469C20.169 26.4145 22.7354 25.8997 24.003 23.9983C25.2706 22.0969 27.8387 21.5885 29.7384 22.8495C31.6413 24.1171 32.1531 26.6917 30.8838 28.5865C33.4189 24.784 32.3942 19.6476 28.5947 17.1124Z" fill="#FF4B55"/>
<path d="M17.1218 19.41C15.851 21.3048 16.3676 23.8794 18.2688 25.147C20.1686 26.4146 22.735 25.8998 24.0026 23.9984C25.2702 22.097 27.8383 21.5886 29.7381 22.8496C31.641 24.1172 32.1528 26.6918 30.8834 28.5866C28.3516 32.3958 23.217 33.4193 19.4142 30.8841C15.6149 28.3491 14.5867 23.2127 17.1218 19.41Z" fill="#41479B"/>
<path d="M32.8048 13.9866L34.3081 16.2462C34.4344 16.436 34.3833 16.6923 34.1938 16.8192L33.8126 17.0745C33.6224 17.2018 33.3649 17.1506 33.238 16.9601L31.7329 14.7011C31.6062 14.5111 31.6576 14.2543 31.8475 14.1274L32.2306 13.8717C32.4209 13.7447 32.678 13.7961 32.8048 13.9866Z" fill="#464655"/>
<path d="M35.1243 17.4705L36.6325 19.7286C36.7598 19.9193 36.7078 20.1773 36.5165 20.3037L36.1336 20.5567C35.9437 20.6824 35.688 20.6307 35.5615 20.4414L34.0542 18.1856C33.9272 17.9957 33.9782 17.7387 34.1683 17.6117L34.5502 17.3563C34.7402 17.2293 34.9973 17.2804 35.1243 17.4705Z" fill="#464655"/>
<path d="M34.4145 12.9125L38.2422 18.6568C38.369 18.8469 38.3175 19.1038 38.1274 19.2306L37.7428 19.4869C37.5527 19.6137 37.2957 19.5622 37.169 19.3721L33.34 13.6282C33.2131 13.4379 33.2647 13.1809 33.455 13.0542L33.8408 12.7974C34.031 12.671 34.2878 12.7223 34.4145 12.9125Z" fill="#464655"/>
<path d="M36.0197 11.84L37.5262 14.1039C37.6532 14.2946 37.601 14.552 37.4099 14.6783L37.0268 14.9315C36.8367 15.0571 36.5809 15.0054 36.4545 14.8158L34.9468 12.5548C34.82 12.3647 34.8714 12.1077 35.0616 11.981L35.4458 11.7248C35.6359 11.598 35.8929 11.6495 36.0197 11.84Z" fill="#464655"/>
<path d="M38.3406 15.3311L39.8448 17.5904C39.9714 17.7803 39.9201 18.0368 39.7304 18.1637L39.3484 18.419C39.1582 18.5463 38.9008 18.4949 38.774 18.3044L37.2698 16.0451C37.1433 15.8552 37.1945 15.5987 37.3842 15.4718L37.7662 15.2165C37.9563 15.0892 38.2138 15.1405 38.3406 15.3311Z" fill="#464655"/>
<path d="M12.4424 27.5609L16.2696 33.299C16.3964 33.489 16.3452 33.7459 16.1551 33.8727L15.7718 34.1287C15.5817 34.2556 15.3247 34.2043 15.1978 34.0141L11.3706 28.276C11.2438 28.0859 11.295 27.8291 11.4851 27.7022L11.8684 27.4463C12.0585 27.3194 12.3156 27.3707 12.4424 27.5609Z" fill="#464655"/>
<path d="M10.8358 28.6342L12.3384 30.888C12.4651 31.078 12.414 31.3344 12.2243 31.4614L11.8431 31.7166C11.6531 31.8438 11.3959 31.7927 11.2688 31.6025L9.76443 29.3492C9.6375 29.1592 9.68868 28.9022 9.87881 28.7753L10.2619 28.5195C10.4519 28.3927 10.709 28.444 10.8358 28.6342Z" fill="#464655"/>
<path d="M13.158 32.1193L14.6623 34.3788C14.7888 34.5688 14.7375 34.8254 14.5477 34.9521L14.1654 35.2077C13.9752 35.3348 13.718 35.2835 13.5911 35.0932L12.0858 32.8341C11.9592 32.6441 12.0106 32.3873 12.2004 32.2605L12.5836 32.0045C12.774 31.8774 13.0311 31.9289 13.158 32.1193Z" fill="#464655"/>
<path d="M9.22891 29.7072L13.0537 35.4456C13.1804 35.6355 13.1291 35.8922 12.9394 36.0192L12.5572 36.2747C12.3671 36.4019 12.1099 36.3507 11.983 36.1604L8.15594 30.4227C8.02909 30.2325 8.08056 29.9756 8.27069 29.8487L8.65525 29.5924C8.84519 29.4657 9.10216 29.517 9.22891 29.7072Z" fill="#464655"/>
<path d="M11.3713 19.729L15.1979 13.9862C15.3248 13.7959 15.5818 13.7445 15.7721 13.8714L16.1552 14.1273C16.3453 14.2541 16.3964 14.511 16.2698 14.701L12.4416 20.4407C12.315 20.6303 12.059 20.6819 11.869 20.5561L11.4873 20.3034C11.2963 20.177 11.2443 19.9195 11.3713 19.729Z" fill="#464655"/>
<path d="M9.76365 18.6572L13.591 12.9132C13.7178 12.7229 13.9751 12.6715 14.1653 12.7987L14.5475 13.0542C14.7373 13.1811 14.7884 13.4376 14.6619 13.6276L10.8356 19.3718C10.7087 19.5621 10.4517 19.6136 10.2615 19.4866L9.87821 19.2307C9.68828 19.104 9.637 18.8472 9.76365 18.6572Z" fill="#464655"/>
<path d="M8.15532 17.5899L11.983 11.8402C12.1099 11.6498 12.3672 11.5983 12.5574 11.7255L12.9397 11.981C13.1294 12.1079 13.1806 12.3642 13.0542 12.5542L9.22885 18.3047C9.1022 18.4951 8.84504 18.5467 8.65482 18.4199L8.27026 18.1635C8.08023 18.0368 8.02885 17.78 8.15532 17.5899Z" fill="#464655"/>
<path d="M31.7338 33.299L33.2382 31.0457C33.3652 30.8555 33.6225 30.8044 33.8125 30.9316L34.1937 31.1869C34.3834 31.3138 34.4344 31.5703 34.3078 31.7603L32.8052 34.014C32.6783 34.2042 32.4213 34.2556 32.2311 34.1287L31.8481 33.8729C31.658 33.746 31.6069 33.4891 31.7338 33.299Z" fill="#464655"/>
<path d="M34.0541 29.8258L35.5609 27.5613C35.6877 27.371 35.9447 27.3195 36.135 27.4463L36.519 27.7022C36.7092 27.8291 36.7606 28.0862 36.6336 28.2764L35.1236 30.5372C34.9969 30.7269 34.7409 30.7783 34.5509 30.6523L34.1701 30.3999C33.9793 30.2734 33.9273 30.0162 34.0541 29.8258Z" fill="#464655"/>
<path d="M33.34 34.378L34.8454 32.1188C34.9721 31.9286 35.2291 31.8771 35.4193 32.004L35.804 32.2605C35.9941 32.3873 36.0454 32.644 35.9189 32.8342L34.4145 35.0935C34.2878 35.2838 34.031 35.3353 33.8407 35.2087L33.4549 34.9519C33.2648 34.8252 33.2133 34.5682 33.34 34.378Z" fill="#464655"/>
<path d="M35.6627 30.8872L37.1689 28.6333C37.2958 28.4434 37.5525 28.3922 37.7425 28.5189L38.1271 28.7752C38.3173 28.902 38.3687 29.1592 38.2415 29.3493L36.7355 31.6033C36.6086 31.7931 36.3518 31.8443 36.1619 31.7176L35.7773 31.4613C35.5868 31.3347 35.5356 31.0774 35.6627 30.8872Z" fill="#464655"/>
<path d="M34.9473 35.4451L36.4544 33.1899C36.5809 33.0006 36.8366 32.949 37.0265 33.0746L37.4096 33.3277C37.6007 33.4541 37.6529 33.7118 37.5257 33.9025L36.0198 36.1607C35.8931 36.3508 35.6361 36.4021 35.446 36.2755L35.0617 36.0193C34.8715 35.8924 34.8202 35.6353 34.9473 35.4451Z" fill="#464655"/>
<path d="M37.2705 31.9659L38.7738 29.7079C38.9007 29.5175 39.158 29.466 39.3482 29.5932L39.73 29.8484C39.9198 29.9754 39.9709 30.2322 39.8442 30.4221L38.3396 32.6771C38.2131 32.8668 37.9568 32.9183 37.7668 32.7923L37.3861 32.5401C37.1955 32.4137 37.1437 32.1564 37.2705 31.9659Z" fill="#464655"/>
</svg>
