<svg width="48" height="48" viewBox="0 0 48 48" fill="none" xmlns="http://www.w3.org/2000/svg">
<path d="M47.9999 11.135H0V9.10359C0 8.64656 0.370593 8.27597 0.827623 8.27597H47.1724C47.6294 8.27597 48 8.64656 48 9.10359L47.9999 11.135Z" fill="#FF4B55"/>
<path d="M47.9999 11.1359H0V13.9948H47.9999V11.1359Z" fill="white"/>
<path d="M47.9999 13.993H0V16.8519H47.9999V13.993Z" fill="#FF4B55"/>
<path d="M47.9999 16.8524H0V19.7113H47.9999V16.8524Z" fill="white"/>
<path d="M47.9999 22.5708H0.827623C0.370593 22.5708 0 22.2003 0 21.7432V19.7119H47.9999V22.5708Z" fill="#FF4B55"/>
<path d="M47.9999 25.4294H0V21.5172H0.827436L0.827623 22.5706H47.9999V25.4294Z" fill="white"/>
<path d="M47.9999 25.4298H0V28.2887H47.9999V25.4298Z" fill="#FF4B55"/>
<path d="M47.9999 28.288H0V31.1469H47.9999V28.288Z" fill="white"/>
<path d="M47.9999 31.1473H0V34.0062H47.9999V31.1473Z" fill="#FF4B55"/>
<path d="M47.9999 34.0067H0V36.8656H47.9999V34.0067Z" fill="white"/>
<path d="M47.1723 39.7242H0.827623C0.370593 39.7242 0 39.3536 0 38.8965V36.8653H47.9999V38.8965C47.9999 39.3537 47.6293 39.7242 47.1723 39.7242Z" fill="#FF4B55"/>
<path d="M13.2413 22.5708H0.827623C0.370593 22.5708 0 22.2002 0 21.7431V9.10359C0 8.64656 0.370593 8.27597 0.827623 8.27597H13.2414C13.6984 8.27597 14.069 8.64656 14.069 9.10359V21.7431C14.0689 22.2002 13.6983 22.5708 13.2413 22.5708Z" fill="#41479B"/>
<path d="M6.79794 11.9755L6.00782 14.3446L3.51051 14.3639C3.27108 14.3657 3.1717 14.6713 3.36436 14.8136L5.37332 16.2972L4.62004 18.6782C4.54785 18.9065 4.80782 19.0954 5.00263 18.9562L7.03457 17.504L9.06631 18.9562C9.26113 19.0954 9.5211 18.9065 9.44891 18.6782L8.69563 16.2972L10.7046 14.8136C10.8972 14.6714 10.7979 14.3656 10.5584 14.3639L8.06113 14.3446L7.27101 11.9755C7.19507 11.7482 6.87379 11.7482 6.79794 11.9755Z" fill="white"/>
</svg>
