<svg width="48" height="48" viewBox="0 0 48 48" fill="none" xmlns="http://www.w3.org/2000/svg">
<g clip-path="url(#clip0_11_5045)">
<path d="M48 8.00024H-1.52588e-05V39.9998H48V8.00024Z" fill="#FF4B55"/>
<path d="M26.2145 25.7633L0.00946045 7.99908H7.20943L26.2145 25.7633Z" fill="#FFE15A"/>
<path d="M26.2145 22.2354L0.00946045 39.9997H7.20943L26.2145 22.2354Z" fill="#FFE15A"/>
<path d="M21.7979 25.7633L48.0029 7.99908H40.8029L21.7979 25.7633Z" fill="#FFE15A"/>
<path d="M21.7979 22.2354L48.0029 39.9997H40.8029L21.7979 22.2354Z" fill="#FFE15A"/>
<path d="M24.0008 20.5708L21.6008 7.99951H26.4008L24.0008 20.5708Z" fill="#FFE15A"/>
<path d="M24.0008 27.4279L26.4008 39.9991H21.6008L24.0008 27.4279Z" fill="#FFE15A"/>
<path d="M24.0008 23.9994L0.000823975 27.1993V20.7994L24.0008 23.9994Z" fill="#FFE15A"/>
<path d="M24.0008 23.9994L48.0007 27.1993V20.7994L24.0008 23.9994Z" fill="#FFE15A"/>
<path d="M24 29.7136C27.1559 29.7136 29.7143 27.1552 29.7143 23.9993C29.7143 20.8434 27.1559 18.285 24 18.285C20.8441 18.285 18.2857 20.8434 18.2857 23.9993C18.2857 27.1552 20.8441 29.7136 24 29.7136Z" fill="#FF4B55"/>
<path d="M23.9999 28.5707C26.5246 28.5707 28.5713 26.524 28.5713 23.9993C28.5713 21.4746 26.5246 19.4279 23.9999 19.4279C21.4752 19.4279 19.4286 21.4746 19.4286 23.9993C19.4286 26.524 21.4752 28.5707 23.9999 28.5707Z" fill="#FFE15A"/>
</g>
<defs>
<clipPath id="clip0_11_5045">
<rect y="8" width="48" height="32" rx="1" fill="white"/>
</clipPath>
</defs>
</svg>
