<svg width="48" height="48" viewBox="0 0 48 48" fill="none" xmlns="http://www.w3.org/2000/svg">
<path d="M32 8.27521H47.1724C47.6294 8.27521 48 8.6458 48 9.10283V38.8959C48 39.353 47.6294 39.7235 47.1724 39.7235H32V8.27521Z" fill="#FF4B55"/>
<path d="M32.0007 8.27563H16.0004V39.7241H32.0007V8.27563Z" fill="#41479B"/>
<path d="M0.827625 8.27521H16V39.7235H0.827625C0.370594 39.7235 0 39.3529 0 38.8958V9.10274C0 8.64571 0.370594 8.27521 0.827625 8.27521Z" fill="#FF4B55"/>
<path d="M8.03335 21.2838C6.78263 21.2838 5.7106 20.5302 5.23829 19.4539C5.23801 19.4703 5.23341 19.4855 5.23341 19.502C5.23341 21.0483 6.48704 22.3019 8.03335 22.3019C9.57966 22.3019 10.8332 21.0483 10.8332 19.502C10.8332 19.4855 10.8286 19.4703 10.8283 19.454C10.356 20.5302 9.28397 21.2838 8.03335 21.2838Z" fill="#F9CF02"/>
<path d="M8.03347 20.7745C9.15806 20.7745 10.0697 19.8629 10.0697 18.7383C10.0697 17.6137 9.15806 16.702 8.03347 16.702C6.90888 16.702 5.99722 17.6137 5.99722 18.7383C5.99722 19.8629 6.90888 20.7745 8.03347 20.7745Z" fill="#F9CF02"/>
<path d="M6.76068 14.9202C6.76068 15.623 7.33049 16.1928 8.03334 16.1928C8.73618 16.1928 9.30599 15.623 9.30599 14.9202C9.30599 14.4111 8.98781 14.3475 8.98781 14.1566C8.98781 13.9657 9.17868 13.7112 8.79693 13.393C8.98781 13.7112 8.66971 13.7748 8.66971 14.0929C8.66971 14.411 8.79693 14.4111 8.79693 14.6656C8.79693 14.8063 8.68293 14.9201 8.54249 14.9201C8.40187 14.9201 8.28806 14.8061 8.28806 14.6656C8.28806 14.4112 8.54249 14.1566 8.54249 13.7747C8.54249 13.3929 8.47884 13.2657 8.28806 12.9475C8.09718 12.6293 7.77899 12.3748 8.03362 12.1202C7.65178 12.2475 7.84274 12.7565 7.84274 13.0748C7.84274 13.393 7.58831 13.5839 7.58831 13.9657C7.58831 14.3476 7.77918 14.4111 7.77918 14.6656C7.77918 14.8063 7.66518 14.9201 7.52474 14.9201C7.38431 14.9201 7.27031 14.8061 7.27031 14.6656C7.27031 14.4112 7.39752 14.4112 7.39752 14.0929C7.39752 13.7746 7.07934 13.7111 7.27031 13.393C6.88846 13.7112 7.07943 13.9657 7.07943 14.1566C7.07887 14.3475 6.76068 14.411 6.76068 14.9202Z" fill="#F9CF02"/>
<path d="M2.43367 23.0206V34.8179C2.43367 34.934 2.5278 35.028 2.64376 35.028H4.7688C4.88486 35.028 4.97889 34.9339 4.97889 34.8179V23.0206C4.97889 22.9046 4.88476 22.8105 4.7688 22.8105H2.64376C2.5278 22.8105 2.43367 22.9046 2.43367 23.0206Z" fill="#F9CF02"/>
<path d="M11.0878 23.0206V34.8179C11.0878 34.934 11.1819 35.028 11.2979 35.028H13.4229C13.539 35.028 13.633 34.9339 13.633 34.8179V23.0206C13.633 22.9046 13.5389 22.8105 13.4229 22.8105H11.2979C11.1818 22.8105 11.0878 22.9046 11.0878 23.0206Z" fill="#F9CF02"/>
<path d="M5.48798 25.057V25.6549C5.48798 25.7709 5.5821 25.865 5.69807 25.865H10.3684C10.4845 25.865 10.5785 25.7708 10.5785 25.6549V25.057C10.5785 24.941 10.4844 24.8469 10.3684 24.8469H5.69807C5.58201 24.8469 5.48798 24.941 5.48798 25.057Z" fill="#F9CF02"/>
<path d="M5.48798 32.1835V32.7814C5.48798 32.8975 5.5821 32.9915 5.69807 32.9915H10.3684C10.4845 32.9915 10.5785 32.8974 10.5785 32.7814V32.1835C10.5785 32.0675 10.4844 31.9734 10.3684 31.9734H5.69807C5.58201 31.9734 5.48798 32.0675 5.48798 32.1835Z" fill="#F9CF02"/>
<path d="M5.86725 22.8104H10.1992C10.3058 22.8104 10.3446 22.9508 10.2533 23.0056L8.19553 24.2404C8.09568 24.3003 7.9709 24.3003 7.87125 24.2404L5.81325 23.0056C5.72184 22.9508 5.76075 22.8104 5.86725 22.8104Z" fill="#F9CF02"/>
<path d="M5.86725 33.5007H10.1992C10.3058 33.5007 10.3447 33.6411 10.2533 33.6959L8.19534 34.9306C8.0955 34.9905 7.97072 34.9905 7.87106 34.9306L5.81316 33.6958C5.72185 33.641 5.76075 33.5007 5.86725 33.5007Z" fill="#F9CF02"/>
<path d="M8.28203 26.3938C8.20178 26.3862 8.12406 26.3696 8.04184 26.3696C6.64206 26.3696 5.50328 27.5083 5.50328 28.9081C5.50328 29.7389 5.90912 30.4702 6.52919 30.9315C6.60053 30.9846 6.69484 30.9079 6.66016 30.8259C6.58581 30.6497 6.544 30.4567 6.544 30.2534C6.544 29.4261 7.21834 28.7533 8.04644 28.7558C8.48172 28.7571 8.899 28.5421 9.09166 28.1518C9.49019 27.3445 9.00391 26.5421 8.28203 26.3938ZM8.04184 28.0704C7.76153 28.0704 7.53409 27.8431 7.53409 27.5626C7.53409 27.2823 7.76144 27.055 8.04184 27.055C8.32216 27.055 8.5495 27.2822 8.5495 27.5626C8.54941 27.8431 8.32216 28.0704 8.04184 28.0704Z" fill="#F9CF02"/>
<path d="M9.55423 26.885C9.48289 26.832 9.38858 26.9087 9.42327 26.9907C9.4977 27.1668 9.53942 27.3599 9.53942 27.563C9.53942 28.3905 8.86498 29.0633 8.03699 29.0608C7.6017 29.0595 7.18433 29.2744 6.99177 29.6648C6.59342 30.4722 7.07971 31.2747 7.80158 31.4227C7.88183 31.4304 7.95955 31.447 8.04177 31.447C9.44145 31.447 10.5803 30.3082 10.5803 28.9084C10.5801 28.0777 10.1743 27.3465 9.55423 26.885ZM8.04177 30.7616C7.76145 30.7616 7.53402 30.5343 7.53402 30.2538C7.53402 29.9735 7.76136 29.7462 8.04177 29.7462C8.32208 29.7462 8.54942 29.9734 8.54942 30.2538C8.54933 30.5342 8.32208 30.7616 8.04177 30.7616Z" fill="#F9CF02"/>
</svg>
