<svg width="48" height="48" viewBox="0 0 48 48" fill="none" xmlns="http://www.w3.org/2000/svg">
<path d="M47.1723 39.7243H0.827623C0.370593 39.7243 0 39.3537 0 38.8966V9.10359C0 8.64656 0.370593 8.27597 0.827623 8.27597H47.1724C47.6294 8.27597 48 8.64656 48 9.10359V38.8966C47.9999 39.3538 47.6293 39.7243 47.1723 39.7243Z" fill="#5AA587"/>
<path d="M25.9803 28.2759C26.9081 28.4977 27.8985 28.515 28.889 28.2691C30.6338 27.8359 32.014 26.6982 32.8161 25.2375C31.4239 24.3216 29.6719 23.9616 27.927 24.3949C26.989 24.6278 26.166 25.0745 25.4724 25.6558C25.4789 25.6471 25.4844 25.6386 25.4909 25.6298C28.0603 23.3128 30.9288 24.0608 30.9288 24.0608L31.6074 23.481C31.6074 23.481 28.7141 22.4813 26.1225 24.6251C27.7265 21.5197 25.9957 18.8559 25.9957 18.8559L25.5965 19.6542C25.5965 19.6542 27.0358 22.2936 25.3519 25.3732C25.3499 25.3755 25.348 25.3779 25.346 25.3802C25.7563 24.5559 25.9957 23.6319 25.9957 22.648C25.9957 20.8502 25.2242 19.2365 23.9997 18.106C22.7754 19.2365 22.0038 20.8502 22.0038 22.648C22.0038 23.632 22.2431 24.5559 22.6535 25.3802C22.6515 25.3779 22.6496 25.3754 22.6476 25.3732C20.9636 22.2936 22.403 19.6542 22.403 19.6542L22.0038 18.8559C22.0038 18.8559 20.2731 21.5197 21.877 24.6251C19.2853 22.4814 16.392 23.481 16.392 23.481L17.0707 24.0608C17.0707 24.0608 19.9391 23.3127 22.5086 25.6298C22.5151 25.6386 22.5206 25.6471 22.5271 25.6558C21.8336 25.0745 21.0105 24.6278 20.0725 24.3949C18.3276 23.9616 16.5756 24.3216 15.1834 25.2375C15.9854 26.6982 17.3656 27.8358 19.1106 28.2691C20.101 28.515 21.0914 28.4977 22.0193 28.2759C18.5622 29.2425 16.3012 27.1602 16.3012 27.1602L15.4302 27.3552C15.4302 27.3552 18.9241 31.1018 23.9997 27.4265C29.0754 31.1017 32.5693 27.3552 32.5693 27.3552L31.6983 27.1602C31.6985 27.1602 29.4373 29.2424 25.9803 28.2759Z" fill="white"/>
<path d="M18.9556 32.5885C19.3163 32.8125 19.6935 33.012 20.0839 33.1873H27.9157C28.3064 33.012 28.6834 32.8125 29.0441 32.5885H18.9556Z" fill="white"/>
<path d="M20.7856 33.4705C21.7905 33.8285 22.872 34.0248 23.9999 34.0248C25.1277 34.0248 26.2092 33.8284 27.2141 33.4705H20.7856Z" fill="white"/>
<path d="M16.832 30.7979C16.953 30.9341 17.0766 31.0679 17.205 31.197H30.7949C30.9233 31.0679 31.0469 30.9342 31.1679 30.7979H16.832Z" fill="white"/>
<path d="M17.708 31.6656C17.908 31.84 18.1144 32.0071 18.3285 32.1646H29.6715C29.8855 32.007 30.092 31.8399 30.2919 31.6656H17.708Z" fill="white"/>
<path d="M27.9917 29.7333C25.7561 29.7333 24.2265 28.2391 24.2112 28.2239L23.9993 28.0133L23.7882 28.2243C23.773 28.2395 22.2532 29.7333 20.0081 29.7333H16.0128C16.1491 29.9389 16.294 30.1381 16.4455 30.3321H20.0083C22.0166 30.3321 23.4747 29.2815 24.0001 28.8387C24.5253 29.2816 25.9834 30.3321 27.9918 30.3321H31.5546C31.706 30.1381 31.851 29.9389 31.9874 29.7333H27.9917Z" fill="white"/>
<path d="M23.8951 14.0511L23.5448 15.1014L22.4377 15.11C22.3316 15.1109 22.2875 15.2463 22.3729 15.3093L23.2637 15.9671L22.9297 17.0227C22.8977 17.124 23.013 17.2077 23.0994 17.1459L24.0001 16.5021L24.9009 17.1459C24.9872 17.2077 25.1026 17.1239 25.0706 17.0227L24.7366 15.9671L25.6274 15.3093C25.7128 15.2462 25.6687 15.1108 25.5626 15.11L24.4555 15.1014L24.1052 14.0511C24.0711 13.9503 23.9286 13.9503 23.8951 14.0511Z" fill="#FFE15A"/>
<path d="M18.6557 16.2009L18.8585 16.9372L18.2275 17.3674C18.1669 17.4087 18.1937 17.5033 18.267 17.5065L19.0301 17.5413L19.2442 18.2744C19.2648 18.3448 19.363 18.3484 19.3887 18.2799L19.6575 17.5649L20.4209 17.5878C20.4942 17.59 20.528 17.4977 20.4708 17.4521L19.8739 16.9754L20.1316 16.2565C20.1564 16.1875 20.079 16.1268 20.0179 16.1671L19.3802 16.5875L18.7761 16.1203C18.7179 16.0754 18.6362 16.1303 18.6557 16.2009Z" fill="#FFE15A"/>
<path d="M15.6009 19.9098L16.1532 20.4374L15.8328 21.1307C15.8021 21.1972 15.8737 21.2645 15.9381 21.2297L16.6105 20.8676L17.1708 21.3866C17.2245 21.4364 17.3107 21.389 17.2976 21.317L17.161 20.5656L17.8277 20.193C17.8916 20.1573 17.8734 20.0607 17.8007 20.0509L17.0438 19.9488L16.8955 19.1995C16.8813 19.1276 16.7837 19.1153 16.752 19.1813L16.4209 19.8695L15.6626 19.779C15.5898 19.7703 15.5479 19.8591 15.6009 19.9098Z" fill="#FFE15A"/>
<path d="M29.518 16.2009L29.3152 16.9372L29.9462 17.3674C30.0068 17.4087 29.98 17.5033 29.9067 17.5065L29.1437 17.5413L28.9295 18.2744C28.9089 18.3448 28.8108 18.3484 28.785 18.2799L28.5162 17.5649L27.7528 17.5878C27.6796 17.59 27.6457 17.4977 27.7029 17.4521L28.2998 16.9754L28.0421 16.2565C28.0173 16.1875 28.0947 16.1268 28.1558 16.1671L28.7935 16.5875L29.3976 16.1203C29.4558 16.0754 29.5374 16.1303 29.518 16.2009Z" fill="#FFE15A"/>
<path d="M32.5728 19.9098L32.0205 20.4374L32.3408 21.1307C32.3716 21.1972 32.2999 21.2645 32.2355 21.2297L31.5632 20.8676L31.0028 21.3866C30.9491 21.4364 30.863 21.389 30.876 21.317L31.0127 20.5656L30.3459 20.193C30.282 20.1573 30.3003 20.0607 30.3729 20.0509L31.1299 19.9488L31.2782 19.1995C31.2923 19.1276 31.3899 19.1153 31.4216 19.1813L31.7527 19.8695L32.5111 19.779C32.5838 19.7703 32.6257 19.8591 32.5728 19.9098Z" fill="#FFE15A"/>
</svg>
