<svg width="48" height="48" viewBox="0 0 48 48" fill="none" xmlns="http://www.w3.org/2000/svg">
<path d="M47.9999 10.5222H0V9.10349C0 8.64646 0.370593 8.27586 0.827623 8.27586H47.1724C47.6294 8.27586 48 8.64646 48 9.10349L47.9999 10.5222Z" fill="#FF4B55"/>
<path d="M47.9999 10.5217H0V12.7679H47.9999V10.5217Z" fill="white"/>
<path d="M47.9999 12.7688H0V15.015H47.9999V12.7688Z" fill="#FF4B55"/>
<path d="M47.9999 15.0141H0V17.2604H47.9999V15.0141Z" fill="white"/>
<path d="M47.9999 17.2613H0V19.5076H47.9999V17.2613Z" fill="#FF4B55"/>
<path d="M47.9999 19.5075H0V21.7537H47.9999V19.5075Z" fill="white"/>
<path d="M47.9999 21.7538H0V24H47.9999V21.7538Z" fill="#FF4B55"/>
<path d="M47.9999 24.0001H0V26.2463H47.9999V24.0001Z" fill="white"/>
<path d="M47.9999 28.4928H0V24.8277H0.827623L0.827811 26.2463H47.9999V28.4928Z" fill="#FF4B55"/>
<path d="M47.9999 28.4925H0V30.7388H47.9999V28.4925Z" fill="white"/>
<path d="M47.9999 30.7388H0V32.9851H47.9999V30.7388Z" fill="#FF4B55"/>
<path d="M47.9999 32.9859H0V35.2322H47.9999V32.9859Z" fill="white"/>
<path d="M47.9999 35.2312H0V37.4775H47.9999V35.2312Z" fill="#FF4B55"/>
<path d="M47.1723 39.7241H0.827623C0.370593 39.7241 0 39.3535 0 38.8965V37.4778H47.9999V38.8965C47.9999 39.3536 47.6293 39.7241 47.1723 39.7241Z" fill="white"/>
<path d="M28.9655 26.2463H0.827623C0.370593 26.2463 0 25.8757 0 25.4187V9.10349C0 8.64646 0.370593 8.27586 0.827623 8.27586H28.9655C29.4225 8.27586 29.7931 8.64646 29.7931 9.10349V25.4187C29.793 25.8759 29.4225 26.2463 28.9655 26.2463Z" fill="#41479B"/>
<path d="M7.86209 17.2521C7.86209 14.1221 10.4027 11.5831 13.5298 11.5831C14.3167 11.5831 15.0648 11.7442 15.7462 12.0344C15.8346 12.0721 15.9012 11.949 15.8218 11.8948C14.6945 11.1274 13.3158 10.7069 11.837 10.7838C8.58584 10.9528 5.92738 13.5715 5.71719 16.8203C5.47278 20.5992 8.46303 23.7296 12.1821 23.7296C13.5261 23.7296 14.7754 23.3155 15.8129 22.6134C15.8928 22.5593 15.8266 22.436 15.7378 22.4736C15.0587 22.7616 14.3136 22.9214 13.53 22.9214C10.4027 22.9213 7.86209 20.3823 7.86209 17.2521Z" fill="#FFE15A"/>
<path d="M20.8182 17.2521L23.2143 16.325C23.3327 16.2792 23.2923 16.1023 23.1657 16.1124L20.6056 16.3174L22.3649 14.4368C22.4517 14.3441 22.3386 14.2024 22.2289 14.2664L20.0054 15.5635L20.7728 13.1095C20.8107 12.9884 20.6474 12.9097 20.5764 13.0149L19.137 15.1473L18.7677 12.6021C18.7495 12.4764 18.568 12.4763 18.5496 12.602L18.3138 14.2125L18.2159 14.894L18.1782 15.1473L16.7388 13.0168C16.6677 12.9116 16.5042 12.9904 16.5424 13.1115L17.3126 15.5634L15.0892 14.2663C14.9795 14.2023 14.8665 14.344 14.9533 14.4367L16.7125 16.3173L14.1517 16.1123C14.0251 16.1022 13.9847 16.2791 14.1032 16.3249L16.5014 17.252L14.1031 18.1793C13.9845 18.2252 14.025 18.4021 14.1516 18.3919L16.7125 18.1869L14.9532 20.0722C14.8665 20.1651 14.9798 20.3066 15.0894 20.2425L17.3127 18.9408L16.5424 21.3927C16.5044 21.5138 16.6677 21.5927 16.7389 21.4874L18.1783 19.3568L18.216 19.6161L18.3139 20.2917L18.5498 21.9064C18.5682 22.0322 18.7497 22.0321 18.7679 21.9063L19.1372 19.357L20.5766 21.4893C20.6477 21.5945 20.811 21.5161 20.773 21.3947L20.0056 18.9408L22.2288 20.2425C22.3384 20.3066 22.4517 20.1651 22.3651 20.0722L20.6057 18.1869L23.1659 18.3919C23.2925 18.4021 23.3329 18.2252 23.2144 18.1793L20.8182 17.2521Z" fill="#FFE15A"/>
</svg>
