<svg width="48" height="48" viewBox="0 0 48 48" fill="none" xmlns="http://www.w3.org/2000/svg">
<g clip-path="url(#clip0_11_1616)">
<path d="M0 32.2759V9.10338C0 8.64635 0.370594 8.27576 0.827625 8.27576H36.4138L0 32.2759Z" fill="#41479B"/>
<path d="M48.0001 15.7241V38.8965C48.0001 39.3535 47.6295 39.7241 47.1724 39.7241H11.5862L48.0001 15.7241Z" fill="#73AF00"/>
<path d="M48 16.1908V9.10338C48 8.64635 47.6294 8.27576 47.1724 8.27576H35.9193L0 31.8092V38.8965C0 39.3535 0.370594 39.7241 0.827625 39.7241H12.0807L48 16.1908Z" fill="white"/>
<path d="M48 13.2231V9.10338C48 8.64635 47.6294 8.27576 47.1724 8.27576H40.4488L0 34.7768V38.8966C0 39.3536 0.370594 39.7242 0.827625 39.7242H7.55119L48 13.2231Z" fill="#FF4B55"/>
<path d="M8.45674 13.6776C9.27152 13.6776 10.009 14.0077 10.5431 14.5414L10.836 12.5083L9.22024 13.7797L8.45665 11.8707L7.69305 13.7797L6.07727 12.5083L6.37024 14.5414C6.90452 14.0076 7.64196 13.6776 8.45674 13.6776Z" fill="#FFE15A"/>
<path d="M6.36868 18.7157C5.83496 18.1816 5.50487 17.444 5.50487 16.6294C5.50487 15.8146 5.83496 15.0772 6.36868 14.5431L4.33562 14.25L5.60696 15.8658L3.69803 16.6294L5.60696 17.393L4.33562 19.0087L6.36868 18.7157Z" fill="#FFE15A"/>
<path d="M13.2156 16.6293L11.3066 15.8657L12.578 14.25L10.5449 14.543C11.0786 15.0771 11.4087 15.8147 11.4087 16.6293C11.4087 17.444 11.0786 18.1815 10.5449 18.7156L12.578 19.0086L11.3066 17.3928L13.2156 16.6293Z" fill="#FFE15A"/>
<path d="M8.4568 19.5811C7.64201 19.5811 6.90458 19.251 6.37048 18.7173L6.07751 20.7503L7.6933 19.479L8.45689 21.3879L9.22048 19.479L10.8363 20.7503L10.5433 18.7173C10.009 19.2511 9.27158 19.5811 8.4568 19.5811Z" fill="#FFE15A"/>
<path d="M8.45676 19.0396C9.78789 19.0396 10.867 17.9605 10.867 16.6293C10.867 15.2982 9.78789 14.2191 8.45676 14.2191C7.12563 14.2191 6.04654 15.2982 6.04654 16.6293C6.04654 17.9605 7.12563 19.0396 8.45676 19.0396Z" fill="#FFE15A"/>
</g>
<defs>
<clipPath id="clip0_11_1616">
<rect width="48" height="48" fill="white"/>
</clipPath>
</defs>
</svg>
