<svg width="48" height="48" viewBox="0 0 48 48" fill="none" xmlns="http://www.w3.org/2000/svg">
<g clip-path="url(#clip0_11_4868)">
<path d="M0.827535 39.7239H47.1723C47.6293 39.7239 47.9999 39.3533 47.9999 38.8963V29.2411L0.454597 39.6245C0.567941 39.683 0.691128 39.7239 0.827535 39.7239Z" fill="#73AF00"/>
<path d="M16 8.27551H0.827623C0.370593 8.27551 0 8.64611 0 9.10314V38.8961C0 39.081 0.0720936 39.2429 0.174562 39.3807L16 8.27551Z" fill="#41479B"/>
<path d="M0.245135 39.4832L32.0001 8.27563H16.0002L0.174728 39.3807C0.199478 39.4141 0.215603 39.4538 0.245135 39.4832Z" fill="#FFE15A"/>
<path d="M47.1725 8.27551H32.0001L0.245155 39.4831C0.279562 39.5173 0.325593 39.5365 0.36553 39.5642L48.0001 18.7582V9.10314C48.0001 8.64611 47.6295 8.27551 47.1725 8.27551Z" fill="#FF4B55"/>
<path d="M0.454687 39.6249L47.9998 29.2414V18.7588L0.36525 39.5647C0.394968 39.5853 0.422343 39.6084 0.454687 39.6249Z" fill="white"/>
</g>
<defs>
<clipPath id="clip0_11_4868">
<rect width="48" height="48" fill="white"/>
</clipPath>
</defs>
</svg>
