<svg width="48" height="48" viewBox="0 0 48 48" fill="none" xmlns="http://www.w3.org/2000/svg">
<path d="M47.9999 24.0001H0V9.1035C0 8.64647 0.370593 8.27588 0.827623 8.27588H47.1724C47.6294 8.27588 48 8.64647 48 9.1035L47.9999 24.0001Z" fill="#FF4B55"/>
<path d="M0 23.9999H47.9999V38.8965C47.9999 39.3535 47.6293 39.7241 47.1723 39.7241H0.827623C0.370593 39.7241 0 39.3535 0 38.8965V23.9999Z" fill="white"/>
<path d="M6.80331 16.1498C6.80331 13.4284 8.80018 11.1725 11.4076 10.7552C11.5492 10.7325 11.5556 10.5378 11.4159 10.5055C10.7703 10.3571 10.0847 10.3149 9.3728 10.4118C6.5605 10.7949 4.38663 13.2286 4.34688 16.0666C4.3016 19.3072 6.91403 21.9458 10.1392 21.9458C10.5782 21.9458 11.0045 21.8946 11.4148 21.8002C11.5544 21.7681 11.5473 21.5729 11.406 21.5502C8.79953 21.1332 6.80331 18.8817 6.80331 16.1498Z" fill="white"/>
<path d="M11.4507 17.606L11.2057 18.3407L10.4314 18.3467C10.3312 18.3475 10.2896 18.4754 10.3703 18.5349L10.9932 18.9949L10.7596 19.7332C10.7294 19.8288 10.8382 19.9079 10.9197 19.8496L11.5497 19.3993L12.1797 19.8496C12.2612 19.9079 12.37 19.8287 12.3398 19.7332L12.1062 18.9949L12.7291 18.5349C12.8098 18.4753 12.7681 18.3475 12.6679 18.3467L11.8937 18.3407L11.6487 17.606C11.6169 17.511 11.4824 17.511 11.4507 17.606Z" fill="white"/>
<path d="M15.2781 17.606L15.0331 18.3407L14.2588 18.3467C14.1586 18.3475 14.117 18.4754 14.1977 18.5349L14.8206 18.9949L14.5869 19.7332C14.5568 19.8288 14.6656 19.9079 14.7471 19.8496L15.3771 19.3993L16.0071 19.8496C16.0886 19.9079 16.1974 19.8287 16.1672 19.7332L15.9336 18.9949L16.5564 18.5349C16.6372 18.4753 16.5955 18.3475 16.4953 18.3467L15.721 18.3407L15.4761 17.606C15.4443 17.511 15.3099 17.511 15.2781 17.606Z" fill="white"/>
<path d="M13.3816 11.6992L13.1367 12.4338L12.3624 12.4398C12.2622 12.4407 12.2205 12.5686 12.3012 12.6281L12.9241 13.0881L12.6905 13.8264C12.6603 13.922 12.7692 14.0011 12.8506 13.9427L13.4806 13.4925L14.1106 13.9427C14.1922 14.0011 14.3009 13.9219 14.2707 13.8264L14.0371 13.0881L14.66 12.6281C14.7407 12.5685 14.6991 12.4407 14.5989 12.4398L13.8246 12.4338L13.5796 11.6992C13.5478 11.6042 13.4133 11.6042 13.3816 11.6992Z" fill="white"/>
<path d="M10.3301 13.962L10.0851 14.6966L9.31085 14.7026C9.21063 14.7034 9.16901 14.8313 9.24973 14.8909L9.8726 15.3509L9.63898 16.0892C9.60879 16.1848 9.71763 16.2638 9.7991 16.2055L10.4291 15.7552L11.0591 16.2055C11.1407 16.2638 11.2494 16.1847 11.2192 16.0892L10.9856 15.3509L11.6085 14.8909C11.6892 14.8312 11.6476 14.7034 11.5474 14.7026L10.7731 14.6966L10.5281 13.962C10.4963 13.8669 10.3619 13.8669 10.3301 13.962Z" fill="white"/>
<path d="M16.4076 13.962L16.1626 14.6966L15.3884 14.7026C15.2881 14.7034 15.2465 14.8313 15.3272 14.8909L15.9501 15.3509L15.7165 16.0892C15.6863 16.1848 15.7951 16.2638 15.8766 16.2055L16.5066 15.7552L17.1366 16.2055C17.2182 16.2638 17.3269 16.1847 17.2967 16.0892L17.0631 15.3509L17.686 14.8909C17.7667 14.8312 17.7251 14.7034 17.6248 14.7026L16.8506 14.6966L16.6056 13.962C16.5738 13.8669 16.4393 13.8669 16.4076 13.962Z" fill="white"/>
</svg>
