<svg width="48" height="48" viewBox="0 0 48 48" fill="none" xmlns="http://www.w3.org/2000/svg">
<path d="M47.1723 39.7241H0.827623C0.370593 39.7241 0 39.3535 0 38.8965V9.10347C0 8.64644 0.370593 8.27585 0.827623 8.27585H47.1724C47.6294 8.27585 48 8.64644 48 9.10347V38.8965C47.9999 39.3536 47.6293 39.7241 47.1723 39.7241Z" fill="#73AF00"/>
<path d="M47.9999 14.0692H0V17.3795H47.9999V14.0692Z" fill="white"/>
<path d="M47.9999 30.6207H0V33.931H47.9999V30.6207Z" fill="white"/>
<path d="M47.9999 17.3794H0V30.6207H47.9999V17.3794Z" fill="#C8414B"/>
<path d="M23.7939 18.9014L22.5889 22.5146L18.7801 22.544C18.5712 22.5457 18.4848 22.8122 18.6527 22.9362L21.7167 25.1988L20.5678 28.8304C20.5048 29.0296 20.7315 29.1943 20.9014 29.0728L24.0001 26.8579L27.0988 29.0728C27.2687 29.1942 27.4953 29.0296 27.4324 28.8304L26.2835 25.1988L29.3476 22.9362C29.5156 22.8122 29.4289 22.5456 29.2201 22.544L25.4114 22.5146L24.2063 18.9014C24.1401 18.7033 23.86 18.7033 23.7939 18.9014Z" fill="#FFE15A"/>
</svg>
