<svg width="48" height="48" viewBox="0 0 48 48" fill="none" xmlns="http://www.w3.org/2000/svg">
<path d="M47.1723 39.7242H0.827623C0.370593 39.7242 0 39.3536 0 38.8966V9.10362C0 8.64659 0.370593 8.276 0.827623 8.276H47.1724C47.6294 8.276 48 8.64659 48 9.10362V38.8966C47.9999 39.3537 47.6293 39.7242 47.1723 39.7242Z" fill="#73AF00"/>
<path d="M47.9999 15.7238H0V32.2753H47.9999V15.7238Z" fill="#FFE15A"/>
<path d="M0.249937 39.4866L16.5516 23.9999L0.249937 8.51324C0.0962811 8.66343 0 8.87156 0 9.1034V38.8963C0 39.1282 0.0962811 39.3363 0.249937 39.4866Z" fill="#FF4B55"/>
<path d="M26.0906 20.2281L26.9387 22.7711L29.6194 22.7919C29.9665 22.7947 30.1104 23.2375 29.8312 23.4438L27.6748 25.0362L28.4834 27.5921C28.5882 27.9231 28.2114 28.1968 27.929 27.995L25.7481 26.4361L23.5672 27.995C23.2849 28.1968 22.9081 27.9231 23.0128 27.5921L23.8215 25.0362L21.665 23.4438C21.3858 23.2376 21.5298 22.7947 21.8768 22.7919L24.5575 22.7711L25.4056 20.2281C25.5151 19.8988 25.9808 19.8988 26.0906 20.2281Z" fill="#464655"/>
<path d="M38.4657 20.2281L39.3138 22.7711L41.9945 22.7919C42.3416 22.7947 42.4855 23.2375 42.2063 23.4438L40.0499 25.0362L40.8586 27.5921C40.9633 27.9231 40.5865 28.1968 40.3041 27.995L38.1232 26.4361L35.9423 27.995C35.66 28.1968 35.2832 27.9231 35.3879 27.5921L36.1966 25.0362L34.0401 23.4438C33.7609 23.2376 33.9048 22.7947 34.2519 22.7919L36.9326 22.7711L37.7807 20.2281C37.8901 19.8988 38.3558 19.8988 38.4657 20.2281Z" fill="#464655"/>
</svg>
