<svg width="48" height="48" viewBox="0 0 48 48" fill="none" xmlns="http://www.w3.org/2000/svg">
<path d="M47.9999 18.7588H0V9.10362C0 8.64659 0.370593 8.276 0.827623 8.276H47.1724C47.6294 8.276 48 8.64659 48 9.10362L47.9999 18.7588Z" fill="#FF4B55"/>
<path d="M47.1723 39.7242H0.827623C0.370593 39.7242 0 39.3536 0 38.8966V29.2415H47.9999V38.8966C47.9999 39.3537 47.6293 39.7242 47.1723 39.7242Z" fill="#464655"/>
<path d="M47.9999 18.7584H0V29.2406H47.9999V18.7584Z" fill="white"/>
<path d="M14.0652 20.9356L14.7552 23.0045L16.936 23.0214C17.2182 23.0235 17.3353 23.3838 17.1082 23.5516L15.3538 24.8472L16.0117 26.9265C16.0968 27.1957 15.7903 27.4184 15.5607 27.2543L13.7864 25.9861L12.0122 27.2543C11.7824 27.4184 11.4761 27.1957 11.5612 26.9265L12.219 24.8472L10.4647 23.5516C10.2375 23.3839 10.3546 23.0235 10.6369 23.0214L12.8177 23.0045L13.5077 20.9356C13.597 20.6678 13.9758 20.6678 14.0652 20.9356Z" fill="#73AF00"/>
<path d="M34.4918 20.9356L35.1818 23.0045L37.3627 23.0214C37.6449 23.0235 37.762 23.3838 37.5349 23.5516L35.7805 24.8472L36.4384 26.9265C36.5235 27.1957 36.217 27.4184 35.9873 27.2543L34.2131 25.9861L32.4389 27.2543C32.2091 27.4184 31.9027 27.1957 31.9879 26.9265L32.6457 24.8472L30.8914 23.5516C30.6642 23.3839 30.7813 23.0235 31.0636 23.0214L33.2444 23.0045L33.9344 20.9356C34.0237 20.6678 34.4025 20.6678 34.4918 20.9356Z" fill="#73AF00"/>
</svg>
