<svg width="48" height="48" viewBox="0 0 48 48" fill="none" xmlns="http://www.w3.org/2000/svg">
<path d="M47.1723 39.7242H0.827623C0.370593 39.7242 0 39.3536 0 38.8966V9.10362C0 8.64659 0.370593 8.276 0.827623 8.276H47.1724C47.6294 8.276 48 8.64659 48 9.10362V38.8966C47.9999 39.3537 47.6293 39.7242 47.1723 39.7242Z" fill="#41479B"/>
<path d="M23.1723 8.276H21.7349L14.0689 13.2985V8.276H9.93101V13.2985L2.26509 8.276H0.827623C0.370593 8.276 0 8.64659 0 9.10362V9.76006L6.57702 14.0691H0V18.207H6.57702L0 22.5161V23.1725C0 23.6295 0.370593 24.0001 0.827623 24.0001H2.26509L9.93101 18.9776V24.0001H14.0689V18.9776L21.7348 24.0001H23.1722C23.6293 24.0001 23.9999 23.6295 23.9999 23.1725V22.516L17.4229 18.207H23.9999V14.0691H17.4228L23.9999 9.76006V9.10362C23.9999 8.64659 23.6295 8.276 23.1723 8.276Z" fill="white"/>
<path d="M23.9999 14.8967H13.2413V8.276H10.7585V14.8967H0V17.3794H10.7585V24.0001H13.2413V17.3794H23.9999V14.8967Z" fill="#FF4B55"/>
<path d="M9.10339 14.0689L0.394405 8.41571C0.162656 8.56243 0 8.8088 0 9.10346V9.1464L7.58333 14.0689H9.10339Z" fill="#FF4B55"/>
<path d="M15.5891 14.0691L23.8742 8.69103C23.7302 8.44738 23.4761 8.276 23.1725 8.276H22.9935L14.0691 14.0691H15.5891Z" fill="#FF4B55"/>
<path d="M8.38813 18.2068L0.118927 23.5746C0.26152 23.8242 0.51952 23.9999 0.827582 23.9999H0.983675L9.90819 18.2068H8.38813Z" fill="#FF4B55"/>
<path d="M23.9867 23.2375L16.2368 18.207H14.7169L23.5174 23.9195C23.7812 23.7972 23.9619 23.5408 23.9867 23.2375Z" fill="#FF4B55"/>
<path d="M32.2567 19.3102C32.1568 19.3102 32.0759 19.3911 32.0759 19.491V22.5634C32.0759 28.7086 36.4136 29.7929 36.4136 29.7929C36.4136 29.7929 40.7513 28.7085 40.7513 22.5634V19.491C40.7513 19.3911 40.6704 19.3102 40.5706 19.3102H32.2567Z" fill="#FFE15A"/>
<path d="M40.2996 19.7621V22.5634C40.2996 27.7901 37.0688 29.1084 36.4138 29.3218C35.7551 29.107 32.5278 27.7872 32.5278 22.5634V19.7621H40.2996ZM40.5706 19.3102H32.2567C32.1568 19.3102 32.0759 19.3911 32.0759 19.491V22.5634C32.0759 28.7086 36.4136 29.7929 36.4136 29.7929C36.4136 29.7929 40.7513 28.7085 40.7513 22.5634V19.491C40.7513 19.3911 40.6704 19.3102 40.5706 19.3102Z" fill="white"/>
<path d="M36.899 25.0349H35.9744C35.9744 25.0349 35.2287 25.7806 35.0577 27.4186C35.0522 27.4708 35.0733 27.5237 35.1147 27.5562C35.2715 27.6791 35.7121 27.963 36.4367 27.963C37.1613 27.963 37.6018 27.6791 37.7586 27.5562C37.8 27.5239 37.821 27.4709 37.8156 27.4186C37.6447 25.7806 36.899 25.0349 36.899 25.0349Z" fill="#73AF00"/>
<path d="M36.8987 24.8808H35.9741V24.1103C35.9741 23.8561 36.1821 23.6481 36.4364 23.6481C36.6906 23.6481 36.8986 23.8561 36.8986 24.1103V24.8808H36.8987Z" fill="#FF4B55"/>
<path d="M36.8988 25.1891H35.9741C35.889 25.1891 35.82 25.1201 35.82 25.035C35.82 24.9499 35.889 24.8809 35.9741 24.8809H36.8988C36.9839 24.8809 37.0529 24.9499 37.0529 25.035C37.0528 25.1201 36.9838 25.1891 36.8988 25.1891Z" fill="#FF4B55"/>
<path d="M39.9808 21.7816C39.9535 21.7816 39.5515 21.7834 39.1332 21.8554V21.6144C39.4861 21.4533 39.832 21.37 39.8379 21.3686C39.8792 21.3589 39.905 21.3174 39.8953 21.276C39.8854 21.2346 39.8441 21.2088 39.8026 21.2186C39.7794 21.2239 39.4688 21.2987 39.1304 21.4459C39.1248 21.3536 39.0928 21.2688 39.0407 21.1989C39.3169 20.9852 39.5521 20.8493 39.5565 20.8469C39.5935 20.8258 39.6064 20.7788 39.5854 20.7418C39.5642 20.7048 39.5172 20.6919 39.4803 20.7129C39.4617 20.7236 39.2149 20.8659 38.9284 21.0897C38.8547 21.04 38.7661 21.011 38.6708 21.011C38.5717 21.011 38.4802 21.043 38.4049 21.0963C38.484 20.6997 38.6463 20.528 38.6486 20.5259C38.6784 20.4958 38.6783 20.4471 38.6483 20.4172C38.6182 20.3871 38.5695 20.3871 38.5394 20.4172C38.5302 20.4264 38.3805 20.581 38.2856 20.9284C38.1907 20.5809 38.041 20.4263 38.0318 20.4172C38.0019 20.3873 37.9535 20.3873 37.9232 20.4171C37.8931 20.4469 37.8929 20.4957 37.9225 20.526C37.9246 20.5281 38.0871 20.6999 38.1661 21.0963C38.0909 21.0431 37.9994 21.0111 37.9003 21.0111C37.805 21.0111 37.7163 21.0402 37.6426 21.0898C37.3562 20.8659 37.1095 20.7237 37.0907 20.713C37.0537 20.6919 37.0066 20.7048 36.9856 20.7419C36.9646 20.7789 36.9775 20.8259 37.0145 20.847C37.0188 20.8494 37.2541 20.9852 37.5304 21.1989C37.4783 21.2689 37.4463 21.3537 37.4407 21.446C37.1024 21.2987 36.7917 21.224 36.7684 21.2187C36.7268 21.2088 36.6856 21.2347 36.6758 21.2761C36.6661 21.3175 36.6918 21.359 36.7332 21.3687C36.7391 21.37 37.0849 21.4534 37.4379 21.6145V21.8554C37.0197 21.7834 36.6177 21.7817 36.5903 21.7817C36.5477 21.7817 36.5132 21.8161 36.5132 21.8587C36.5132 21.9013 36.5476 21.9358 36.5903 21.9358C36.597 21.9358 37.0182 21.9375 37.4379 22.0119V22.2612C37.2067 22.2543 36.9488 22.2866 36.7099 22.4062C36.6719 22.4253 36.6565 22.4715 36.6755 22.5095C36.6891 22.5365 36.7163 22.5522 36.7445 22.5522C36.7561 22.5522 36.7678 22.5496 36.7788 22.544C36.9916 22.4378 37.2259 22.4101 37.4378 22.4172V23.3706C37.4378 23.487 37.4262 23.604 37.4035 23.7183L37.2853 24.3093C37.2769 24.3511 37.304 24.3916 37.3456 24.3999C37.3507 24.4009 37.3558 24.4015 37.3608 24.4015C37.3968 24.4015 37.429 24.3763 37.4364 24.3395L37.5546 23.7485C37.5795 23.6243 37.592 23.4973 37.592 23.3707V22.4287C37.7076 22.4417 37.8114 22.4625 37.8949 22.4834L37.9537 23.2465C37.961 23.3417 38.0086 23.4238 38.0781 23.4796L37.8282 23.8544C37.6943 24.0553 37.8382 24.3243 38.0796 24.3243H38.4913C38.7326 24.3243 38.8766 24.0552 38.7427 23.8544L38.4928 23.4796C38.5623 23.4238 38.6099 23.3416 38.6172 23.2465L38.6759 22.4834C38.7593 22.4625 38.8632 22.4417 38.9788 22.4287V23.3706C38.9788 23.4972 38.9913 23.6242 39.0162 23.7484L39.1344 24.3394C39.1417 24.3761 39.1739 24.4014 39.2099 24.4014C39.2149 24.4014 39.22 24.401 39.2251 24.3998C39.2669 24.3915 39.2939 24.3509 39.2855 24.3092L39.1673 23.7182C39.1445 23.604 39.133 23.4871 39.133 23.3705V22.4169C39.3449 22.4098 39.5793 22.4375 39.7919 22.5438C39.803 22.5492 39.8147 22.5519 39.8263 22.5519C39.8545 22.5519 39.8817 22.5363 39.8953 22.5093C39.9143 22.4712 39.8989 22.425 39.8609 22.4059C39.6221 22.2866 39.3642 22.2542 39.1329 22.261V22.0116C39.5526 21.9372 39.9738 21.9355 39.9805 21.9355C40.0231 21.9355 40.0575 21.9009 40.0575 21.8584C40.0578 21.816 40.0233 21.7816 39.9808 21.7816ZM38.979 21.8849C38.887 21.9048 38.7963 21.9286 38.7109 21.957C38.7093 21.9266 38.7049 21.8972 38.6973 21.8687C38.7827 21.8027 38.8787 21.7428 38.9791 21.6897V21.8849H38.979ZM38.979 21.4733V21.516C38.857 21.5766 38.7368 21.6469 38.6292 21.7267C38.6069 21.6962 38.5811 21.6687 38.5515 21.6451C38.6667 21.5174 38.7948 21.3991 38.9209 21.2947C38.9573 21.3451 38.979 21.4066 38.979 21.4733ZM38.6709 21.1651C38.7168 21.1651 38.76 21.1758 38.7992 21.1939C38.6661 21.3058 38.5311 21.433 38.4103 21.571C38.3945 21.5661 38.379 21.5613 38.3625 21.5583V21.5502C38.3625 21.5151 38.3638 21.4819 38.365 21.4488C38.3778 21.2905 38.5093 21.1651 38.6709 21.1651ZM37.9004 21.1651C38.062 21.1651 38.1934 21.2904 38.2061 21.4488C38.2073 21.4819 38.2085 21.5151 38.2085 21.5503V21.5584C38.1921 21.5614 38.1765 21.5662 38.1608 21.5711C38.04 21.4331 37.905 21.3059 37.7718 21.194C37.8112 21.1759 37.8544 21.1651 37.9004 21.1651ZM37.5922 21.4733C37.5922 21.4065 37.6141 21.3451 37.6503 21.2945C37.7764 21.3989 37.9045 21.5173 38.0197 21.6449C37.9901 21.6685 37.9644 21.6961 37.942 21.7266C37.8344 21.6469 37.7143 21.5765 37.5921 21.5159L37.5922 21.4733ZM37.5922 21.6898C37.6925 21.7429 37.7885 21.8028 37.874 21.8688C37.8663 21.8973 37.8619 21.9267 37.8604 21.957C37.7748 21.9286 37.6844 21.9048 37.5923 21.8849V21.6898H37.5922ZM37.5922 22.2719V22.043C37.6888 22.0649 37.782 22.0913 37.8674 22.1231L37.8825 22.3204C37.7987 22.3009 37.7003 22.2831 37.5922 22.2719ZM38.979 22.272C38.871 22.2832 38.7724 22.301 38.6887 22.3205L38.7039 22.1232C38.7893 22.0914 38.8826 22.0651 38.979 22.0431V22.272Z" fill="#D35A10"/>
<path d="M35.1125 23.8619H34.7663L33.4436 22.6862C33.299 22.5579 33.2379 22.3598 33.2848 22.1722L33.6536 20.6969C33.6862 20.5663 33.8488 20.5213 33.9439 20.6165L34.5425 21.2151C34.5749 21.2475 34.6189 21.2658 34.6648 21.2658H35.1123V23.862L35.1125 23.8619Z" fill="#FFA033"/>
<path d="M34.8645 20.9108L34.6522 21.8668C34.6137 22.04 34.6202 22.2204 34.6712 22.3905L35.1126 23.8619H35.4587L35.9001 22.3905C35.9511 22.2204 35.9577 22.0401 35.9191 21.8668L35.7068 20.9108C35.6629 20.7137 35.4881 20.5734 35.286 20.5734H35.2851C35.0831 20.5733 34.9082 20.7137 34.8645 20.9108Z" fill="#FF9480"/>
<path d="M35.2854 20.9197C35.1898 20.9197 35.1123 20.9971 35.1123 21.0927V23.862H35.4585V21.0927C35.4585 20.9971 35.3809 20.9197 35.2854 20.9197Z" fill="#FFA0E4"/>
</svg>
