<svg width="48" height="48" viewBox="0 0 48 48" fill="none" xmlns="http://www.w3.org/2000/svg">
<path d="M47.1723 39.7242H0.827623C0.370593 39.7242 0 39.3536 0 38.8966V9.10362C0 8.64659 0.370593 8.276 0.827623 8.276H47.1724C47.6294 8.276 48 8.64659 48 9.10362V38.8966C47.9999 39.3537 47.6293 39.7242 47.1723 39.7242Z" fill="#3CC8FF"/>
<path d="M23.1723 24.0001H0.827623C0.370593 24.0001 0 23.6295 0 23.1725V9.10362C0 8.64659 0.370593 8.276 0.827623 8.276H23.1723C23.6294 8.276 24 8.64659 24 9.10362V23.1726C23.9999 23.6297 23.6295 24.0001 23.1723 24.0001Z" fill="#41479B"/>
<path d="M23.1723 8.276H21.7349L14.0689 13.2985V8.276H9.93101V13.2985L2.26509 8.276H0.827623C0.370593 8.276 0 8.64659 0 9.10362V9.76006L6.57702 14.0691H0V18.207H6.57702L0 22.5161V23.1725C0 23.6295 0.370593 24.0001 0.827623 24.0001H2.26509L9.93101 18.9776V24.0001H14.0689V18.9776L21.7348 24.0001H23.1722C23.6293 24.0001 23.9999 23.6295 23.9999 23.1725V22.516L17.4229 18.207H23.9999V14.0691H17.4228L23.9999 9.76006V9.10362C23.9999 8.64659 23.6295 8.276 23.1723 8.276Z" fill="white"/>
<path d="M23.9999 14.8967H13.2413V8.276H10.7585V14.8967H0V17.3794H10.7585V24.0001H13.2413V17.3794H23.9999V14.8967Z" fill="#FF4B55"/>
<path d="M9.10339 14.0689L0.394405 8.41571C0.162656 8.56243 0 8.8088 0 9.10346V9.1464L7.58333 14.0689H9.10339Z" fill="#FF4B55"/>
<path d="M15.5891 14.0691L23.8742 8.69103C23.7302 8.44738 23.4761 8.276 23.1725 8.276H22.9935L14.0691 14.0691H15.5891Z" fill="#FF4B55"/>
<path d="M8.38813 18.2068L0.118929 23.5746C0.261522 23.8242 0.519522 23.9999 0.827584 23.9999H0.983677L9.90819 18.2068H8.38813Z" fill="#FF4B55"/>
<path d="M23.9867 23.2375L16.2368 18.207H14.7169L23.5174 23.9195C23.7812 23.7972 23.9619 23.5408 23.9867 23.2375Z" fill="#FF4B55"/>
<path d="M26.6561 34.0106L27.059 35.2185L28.3322 35.2283C28.497 35.2295 28.5653 35.44 28.4328 35.5379L27.4085 36.2942L27.7926 37.5081C27.8424 37.6653 27.6635 37.7953 27.5293 37.6994L26.4934 36.959L25.4576 37.6994C25.3235 37.7953 25.1446 37.6653 25.1943 37.5081L25.5784 36.2942L24.5541 35.5379C24.4215 35.4399 24.4899 35.2296 24.6547 35.2283L25.928 35.2185L26.3308 34.0106C26.3826 33.8542 26.6039 33.8542 26.6561 34.0106Z" fill="#FFE15A"/>
<path d="M38.3746 24.8971L38.7774 26.1049L40.0507 26.1148C40.2155 26.116 40.2838 26.3265 40.1512 26.4243L39.127 27.1806L39.5111 28.3946C39.5609 28.5517 39.3819 28.6817 39.2478 28.5858L38.2119 27.8455L37.1761 28.5858C37.042 28.6817 36.8631 28.5517 36.9127 28.3946L37.2968 27.1806L36.2726 26.4243C36.14 26.3264 36.2084 26.1161 36.3732 26.1148L37.6464 26.1049L38.0493 24.8971C38.1013 24.7407 38.3225 24.7407 38.3746 24.8971Z" fill="#FFE15A"/>
<path d="M43.9003 21.5105L44.3031 22.7184L45.5763 22.7283C45.7411 22.7295 45.8095 22.9399 45.6769 23.0378L44.6527 23.7941L45.0368 25.0081C45.0866 25.1652 44.9076 25.2952 44.7735 25.1993L43.7376 24.459L42.7018 25.1993C42.5677 25.2952 42.3887 25.1652 42.4384 25.0081L42.8225 23.7941L41.7983 23.0378C41.6656 22.9398 41.7341 22.7296 41.8989 22.7283L43.1721 22.7184L43.5749 21.5105C43.6269 21.3541 43.8481 21.3541 43.9003 21.5105Z" fill="#FFE15A"/>
<path d="M42.5821 9.89035L42.9849 11.0982L44.2581 11.1081C44.4229 11.1093 44.4913 11.3198 44.3587 11.4176L43.3345 12.1739L43.7186 13.3879C43.7684 13.545 43.5894 13.675 43.4552 13.5791L42.4194 12.8388L41.3836 13.5791C41.2495 13.675 41.0705 13.545 41.1202 13.3879L41.5043 12.1739L40.4801 11.4176C40.3474 11.3197 40.4159 11.1094 40.5807 11.1081L41.8539 11.0982L42.2567 9.89035C42.3087 9.73398 42.5298 9.73398 42.5821 9.89035Z" fill="#FFE15A"/>
<path d="M31.5549 37.029L31.1521 35.8212L29.8789 35.8113C29.7141 35.8101 29.6457 35.5996 29.7783 35.5017L30.8025 34.7455L30.4184 33.5315C30.3686 33.3744 30.5476 33.2444 30.6818 33.3403L31.7176 34.0806L32.7534 33.3403C32.8875 33.2444 33.0665 33.3744 33.0168 33.5315L32.6327 34.7455L33.6569 35.5017C33.7896 35.5997 33.7211 35.81 33.5563 35.8113L32.2831 35.8212L31.8803 37.029C31.8282 37.1854 31.6071 37.1854 31.5549 37.029Z" fill="#FFE15A"/>
<path d="M35.3631 33.6113L34.9602 32.4034L33.687 32.3936C33.5222 32.3924 33.4539 32.1819 33.5864 32.084L34.6106 31.3278L34.2265 30.1138C34.1768 29.9567 34.3557 29.8266 34.4899 29.9225L35.5257 30.6629L36.5616 29.9225C36.6956 29.8266 36.8746 29.9567 36.8249 30.1138L36.4408 31.3278L37.465 32.084C37.5977 32.182 37.5293 32.3923 37.3644 32.3936L36.0912 32.4034L35.6884 33.6113C35.6364 33.7678 35.4152 33.7678 35.3631 33.6113Z" fill="#FFE15A"/>
<path d="M38.7899 18.7053L38.3871 17.4974L37.1139 17.4876C36.9491 17.4864 36.8807 17.2759 37.0133 17.178L38.0375 16.4217L37.6534 15.2078C37.6036 15.0507 37.7826 14.9206 37.9167 15.0165L38.9526 15.7569L39.9884 15.0165C40.1225 14.9206 40.3015 15.0507 40.2518 15.2078L39.8677 16.4217L40.8919 17.178C41.0246 17.276 40.9561 17.4863 40.7913 17.4876L39.5181 17.4974L39.1152 18.7053C39.0634 18.8616 38.8421 18.8616 38.7899 18.7053Z" fill="#FFE15A"/>
<path d="M34.8354 19.9746L34.4325 18.7668L33.1593 18.7569C32.9945 18.7557 32.9262 18.5452 33.0587 18.4474L34.0829 17.6911L33.6989 16.4771C33.6491 16.32 33.828 16.19 33.9622 16.2859L34.998 17.0262L36.0339 16.2859C36.1679 16.19 36.3469 16.32 36.2972 16.4771L35.9131 17.6911L36.9373 18.4474C37.07 18.5453 37.0015 18.7556 36.8367 18.7569L35.5635 18.7668L35.1607 19.9746C35.1087 20.131 34.8875 20.131 34.8354 19.9746Z" fill="#FFE15A"/>
<path d="M32.3032 29.8355L31.9004 28.6277L30.6272 28.6178C30.4624 28.6166 30.394 28.4061 30.5266 28.3083L31.5508 27.552L31.1667 26.338C31.1169 26.1809 31.2959 26.0509 31.43 26.1468L32.4659 26.8871L33.5017 26.1468C33.6358 26.0509 33.8148 26.1809 33.7651 26.338L33.381 27.552L34.4052 28.3083C34.5379 28.4062 34.4694 28.6165 34.3046 28.6178L33.0314 28.6277L32.6285 29.8355C32.5766 29.9919 32.3554 29.9919 32.3032 29.8355Z" fill="#FFE15A"/>
</svg>
