<svg width="48" height="48" viewBox="0 0 48 48" fill="none" xmlns="http://www.w3.org/2000/svg">
<path d="M37.2414 8.27606H10.7589V39.7244H37.2414V8.27606Z" fill="#FFE15A"/>
<path d="M47.1721 39.7238H37.2412V8.27563H47.1722C47.6292 8.27563 47.9998 8.64623 47.9998 9.10326V38.8962C47.9997 39.3533 47.6291 39.7238 47.1721 39.7238Z" fill="#73AF00"/>
<path d="M0.827623 8.27563H10.7586V39.7238H0.827623C0.370593 39.7238 0 39.3532 0 38.8962V9.10326C0 8.64623 0.370593 8.27563 0.827623 8.27563Z" fill="#4173CD"/>
<path d="M17.9891 23.5756L20.6736 28.9448L23.3582 23.5756L20.6736 18.2065L17.9891 23.5756Z" fill="#73AF00"/>
<path d="M24.6412 23.5756L27.3259 28.9448L30.0104 23.5756L27.3259 18.2065L24.6412 23.5756Z" fill="#73AF00"/>
<path d="M21.3151 30.0305L23.9996 35.3995L26.6842 30.0305L23.9996 24.6613L21.3151 30.0305Z" fill="#73AF00"/>
</svg>
