<svg width="48" height="48" viewBox="0 0 48 48" fill="none" xmlns="http://www.w3.org/2000/svg">
<path d="M47.9999 18.7588H0V9.10359C0 8.64656 0.370593 8.27597 0.827623 8.27597H47.1724C47.6294 8.27597 48 8.64656 48 9.10359L47.9999 18.7588Z" fill="#FFE15A"/>
<path d="M47.1723 39.7242H0.827623C0.370593 39.7242 0 39.3536 0 38.8966V29.2415H47.9999V38.8966C47.9999 39.3537 47.6293 39.7242 47.1723 39.7242Z" fill="#FF4B55"/>
<path d="M47.9999 18.7584H0V29.2406H47.9999V18.7584Z" fill="#41479B"/>
<path d="M16.7005 26.0154L16.9079 26.6372L17.5633 26.6423C17.6482 26.6429 17.6834 26.7512 17.6152 26.8017L17.0879 27.191L17.2856 27.816C17.3112 27.8969 17.2191 27.9639 17.15 27.9145L16.6167 27.5333L16.0835 27.9145C16.0145 27.9638 15.9223 27.8968 15.9478 27.816L16.1456 27.191L15.6183 26.8017C15.5501 26.7513 15.5852 26.6429 15.6701 26.6423L16.3256 26.6372L16.5329 26.0154C16.5598 25.9349 16.6737 25.9349 16.7005 26.0154Z" fill="white"/>
<path d="M17.974 24.0359L17.8629 24.6819L18.4381 24.9962C18.5125 25.0368 18.4924 25.149 18.4084 25.1611L17.7596 25.255L17.6385 25.8992C17.6228 25.9825 17.5101 25.9981 17.4725 25.9219L17.1827 25.3339L16.5326 25.4178C16.4484 25.4287 16.3988 25.3262 16.4596 25.2669L16.9293 24.8096L16.6486 24.2173C16.6123 24.1406 16.6945 24.0617 16.7696 24.1013L17.3496 24.4066L17.8263 23.9566C17.888 23.8984 17.9883 23.9522 17.974 24.0359Z" fill="white"/>
<path d="M19.5855 22.3035L19.2778 22.8823L19.7259 23.3607C19.7839 23.4226 19.7297 23.5228 19.6461 23.508L19.0004 23.3942L18.6838 23.9683C18.6428 24.0425 18.5308 24.022 18.519 23.938L18.4277 23.2889L17.7839 23.1651C17.7006 23.1491 17.6856 23.0362 17.7619 22.999L18.351 22.7116L18.2697 22.0611C18.2591 21.9769 18.3619 21.9278 18.4208 21.9888L18.8763 22.4602L19.4697 22.182C19.5468 22.146 19.6253 22.2285 19.5855 22.3035Z" fill="white"/>
<path d="M21.5248 21.2283L21.0726 21.7029L21.3752 22.2843C21.4144 22.3596 21.3352 22.4415 21.2586 22.4047L20.6676 22.1211L20.2079 22.5886C20.1485 22.6491 20.0461 22.599 20.0574 22.5149L20.1444 21.8651L19.5578 21.5724C19.4818 21.5345 19.4978 21.4218 19.5812 21.4065L20.226 21.2884L20.3231 20.6402C20.3356 20.5563 20.4478 20.5366 20.4881 20.6113L20.7996 21.188L21.4462 21.08C21.5301 21.0663 21.5833 21.1669 21.5248 21.2283Z" fill="white"/>
<path d="M23.7539 20.7303L23.1911 21.0663L23.3268 21.7076C23.3444 21.7907 23.2461 21.8483 23.1823 21.7924L22.6889 21.361L22.1208 21.6882C22.0472 21.7306 21.9621 21.655 21.9956 21.5769L22.2535 20.9742L21.7667 20.5352C21.7037 20.4783 21.7494 20.374 21.8339 20.3817L22.4867 20.4407L22.7539 19.8421C22.7885 19.7646 22.9019 19.7757 22.9207 19.8584L23.0664 20.4975L23.7182 20.5666C23.8023 20.5757 23.8269 20.6868 23.7539 20.7303Z" fill="white"/>
<path d="M31.2992 26.0154L31.0918 26.6372L30.4364 26.6423C30.3516 26.6429 30.3164 26.7512 30.3846 26.8017L30.9118 27.191L30.7141 27.816C30.6885 27.8969 30.7807 27.9639 30.8498 27.9145L31.383 27.5333L31.9163 27.9145C31.9853 27.9638 32.0774 27.8968 32.0519 27.816L31.8542 27.191L32.3815 26.8017C32.4497 26.7513 32.4146 26.6429 32.3296 26.6423L31.6742 26.6372L31.4668 26.0154C31.4399 25.9349 31.326 25.9349 31.2992 26.0154Z" fill="white"/>
<path d="M30.0257 24.0359L30.1368 24.6819L29.5615 24.9962C29.4871 25.0368 29.5072 25.149 29.5913 25.1611L30.24 25.255L30.3611 25.8992C30.3769 25.9825 30.4897 25.9981 30.5272 25.9219L30.8169 25.3339L31.4671 25.4178C31.5513 25.4287 31.6009 25.3262 31.54 25.2669L31.0704 24.8096L31.351 24.2173C31.3873 24.1406 31.3052 24.0617 31.2301 24.1013L30.6501 24.4066L30.1733 23.9566C30.1117 23.8984 30.0113 23.9522 30.0257 24.0359Z" fill="white"/>
<path d="M28.4143 22.3035L28.7219 22.8823L28.2739 23.3607C28.2159 23.4226 28.2701 23.5228 28.3537 23.508L28.9994 23.3942L29.3159 23.9683C29.3569 24.0425 29.469 24.022 29.4808 23.938L29.5721 23.2889L30.2159 23.1651C30.2992 23.1491 30.3142 23.0362 30.2379 22.999L29.6488 22.7116L29.73 22.0611C29.7406 21.9769 29.6379 21.9278 29.5789 21.9888L29.1235 22.4602L28.53 22.182C28.453 22.146 28.3745 22.2285 28.4143 22.3035Z" fill="white"/>
<path d="M26.4752 21.2283L26.9274 21.7029L26.6248 22.2843C26.5856 22.3596 26.6649 22.4415 26.7414 22.4047L27.3324 22.1211L27.7921 22.5886C27.8515 22.6491 27.9539 22.599 27.9426 22.5149L27.8556 21.8651L28.4422 21.5724C28.5181 21.5345 28.5022 21.4218 28.4187 21.4065L27.7739 21.2884L27.6769 20.6402C27.6643 20.5563 27.5521 20.5366 27.5118 20.6113L27.2004 21.188L26.5538 21.08C26.4699 21.0663 26.4167 21.1669 26.4752 21.2283Z" fill="white"/>
<path d="M24.2462 20.7303L24.8091 21.0663L24.6733 21.7076C24.6557 21.7907 24.754 21.8483 24.8179 21.7924L25.3113 21.361L25.8793 21.6882C25.9529 21.7306 26.038 21.655 26.0046 21.5769L25.7467 20.9742L26.2334 20.5352C26.2964 20.4783 26.2507 20.374 26.1663 20.3817L25.5134 20.4407L25.2462 19.8421C25.2116 19.7646 25.0983 19.7757 25.0794 19.8584L24.9338 20.4975L24.2819 20.5666C24.1978 20.5757 24.1733 20.6868 24.2462 20.7303Z" fill="white"/>
</svg>
