<svg width="48" height="48" viewBox="0 0 48 48" fill="none" xmlns="http://www.w3.org/2000/svg">
<path d="M47.1723 39.7243H0.827623C0.370593 39.7243 0 39.3537 0 38.8967V9.10362C0 8.64659 0.370593 8.276 0.827623 8.276H47.1724C47.6294 8.276 48 8.64659 48 9.10362V38.8967C47.9999 39.3538 47.6293 39.7243 47.1723 39.7243Z" fill="#FF4B55"/>
<path d="M24.386 14.6222L26.5994 21.2587L33.5951 21.3129C33.9862 21.3159 34.1484 21.8151 33.8338 22.0475L28.206 26.2034L30.3163 32.8734C30.4343 33.2463 30.0096 33.555 29.6913 33.3274L23.9999 29.2593L18.3083 33.3274C17.9901 33.5549 17.5654 33.2463 17.6834 32.8734L19.7936 26.2034L14.1659 22.0475C13.8512 21.8152 14.0134 21.3159 14.4046 21.3129L21.4003 21.2587L23.6136 14.6222C23.7375 14.2511 24.2623 14.2511 24.386 14.6222Z" fill="#FFE15A"/>
</svg>
