<svg width="48" height="48" viewBox="0 0 48 48" fill="none" xmlns="http://www.w3.org/2000/svg">
<path d="M47.9999 12.7688H0V9.10362C0 8.64659 0.370593 8.276 0.827623 8.276H47.1724C47.6294 8.276 48 8.64659 48 9.10362L47.9999 12.7688Z" fill="#73AF00"/>
<path d="M47.9999 12.7689H0V17.2616H47.9999V12.7689Z" fill="#FFE15A"/>
<path d="M47.9999 17.2612H0V21.754H47.9999V17.2612Z" fill="#FF4B55"/>
<path d="M0 35.2315H47.9999V38.8966C47.9999 39.3536 47.6293 39.7242 47.1723 39.7242H0.827623C0.370593 39.7242 0 39.3536 0 38.8966V35.2315Z" fill="#73AF00"/>
<path d="M47.9999 30.7387H0V35.2315H47.9999V30.7387Z" fill="#FFE15A"/>
<path d="M47.9999 26.2463H0V30.7391H47.9999V26.2463Z" fill="#FF4B55"/>
<path d="M47.9998 21.7537H18.3578L1.3332 8.27588H0.82751C0.613948 8.27588 0.423542 8.36213 0.27673 8.49507V39.505C0.423542 39.6378 0.613948 39.7241 0.82751 39.7241H1.33329L18.3578 26.2462H47.9998V21.7537Z" fill="#464655"/>
<path d="M0.276843 39.5049L19.862 24L0.276843 8.49512C0.109406 8.64662 0 8.85999 0 9.10346V38.8965C0 39.1401 0.109406 39.3534 0.276843 39.5049Z" fill="white"/>
<path d="M8.06839 17.9484L9.81241 21.4821L13.712 22.0488L10.8902 24.7993L11.5563 28.6832L8.06839 26.8494L4.58042 28.6832L5.24661 24.7993L2.42474 22.0488L6.32445 21.4821L8.06839 17.9484Z" fill="#FF4B55"/>
<path d="M12.5933 24.4503L7.95864 20.8625C7.41639 19.5918 6.64567 18.7723 5.99139 18.7723C5.43555 18.7723 5.16377 19.2874 5.08596 19.597C4.68565 19.7823 4.59171 20.1512 4.58777 20.1673C4.58121 20.1937 4.58749 20.2218 4.60418 20.2432C4.62105 20.2646 4.64674 20.2771 4.67402 20.2771L4.75699 20.2756C5.12937 20.2669 5.7498 20.2506 5.90843 21.4336C6.00743 22.1722 5.86043 23.4953 5.39308 24.4925C5.06646 25.1893 5.17437 25.7527 5.17915 25.7763C5.18805 25.8208 5.2294 25.85 5.27552 25.8472C5.28265 25.8465 5.2999 25.8458 5.32183 25.845L5.69683 27.9651C5.70443 28.0075 5.74108 28.0384 5.78421 28.0384H11.3795C11.4204 28.0384 11.4561 28.0104 11.4657 27.9706L12.0908 25.4034C12.0909 25.4026 12.0918 25.4023 12.092 25.4015C12.0923 25.4001 12.0919 25.3987 12.0922 25.3973L12.2907 24.5819C12.4376 24.5992 12.525 24.6083 12.5299 24.6089C12.5723 24.6144 12.6068 24.5902 12.6213 24.5535C12.6358 24.5169 12.6247 24.4747 12.5933 24.4503Z" fill="#FFE15A"/>
<path d="M12.5933 24.4503L7.95864 20.8625C7.41639 19.5918 6.64567 18.7723 5.99139 18.7723C5.43555 18.7723 5.16377 19.2874 5.08596 19.597C4.68565 19.7823 4.59171 20.1512 4.58777 20.1673C4.58121 20.1937 4.58749 20.2218 4.60418 20.2432C4.62105 20.2646 4.64674 20.2771 4.67402 20.2771L4.75699 20.2756C5.12937 20.2669 5.7498 20.2506 5.90843 21.4336C6.00743 22.1722 5.86043 23.4953 5.39308 24.4925C5.06646 25.1893 5.17437 25.7527 5.17915 25.7763C5.18805 25.8208 5.2294 25.85 5.27552 25.8472C5.28265 25.8465 5.2999 25.8458 5.32183 25.845L5.69683 27.9651C5.70443 28.0075 5.74108 28.0384 5.78421 28.0384H11.3795C11.4204 28.0384 11.4561 28.0104 11.4657 27.9706L12.0908 25.4034C12.0909 25.4026 12.0918 25.4023 12.092 25.4015C12.0923 25.4001 12.0919 25.3987 12.0922 25.3973L12.2907 24.5819C12.4376 24.5992 12.525 24.6083 12.5299 24.6089C12.5723 24.6144 12.6068 24.5902 12.6213 24.5535C12.6358 24.5169 12.6247 24.4747 12.5933 24.4503ZM5.55368 24.5681C5.97668 23.6658 6.20477 22.3081 6.08439 21.4101C5.91264 20.1293 5.19377 20.0891 4.80555 20.0969C4.86059 19.9899 4.97496 19.8328 5.19593 19.7427C5.2233 19.7316 5.24327 19.7073 5.24927 19.6783C5.25546 19.6486 5.40658 18.95 5.99121 18.95C6.56861 18.95 7.29714 19.7552 7.80414 20.9533C7.81005 20.9673 7.81951 20.9796 7.83151 20.9889L12.2331 24.3962C11.4573 24.3021 9.43013 24.0228 8.22939 23.5497C7.60173 23.3025 7.45867 22.9262 7.33248 22.5943C7.31514 22.5483 7.26358 22.5256 7.21783 22.5429C7.17198 22.5603 7.14892 22.6117 7.16645 22.6576C7.29189 22.9874 7.46373 23.4392 8.16433 23.7152C8.30711 23.7715 8.46123 23.825 8.62332 23.8758C8.59511 23.9614 8.41548 24.3976 7.61908 24.6838C6.9737 24.9157 6.51442 25.3066 6.45171 25.6598C6.21583 25.6589 6.00536 25.6592 5.82855 25.6604V25.404C5.82855 25.2091 6.01624 24.927 6.21489 24.6283C6.49174 24.212 6.80552 23.7402 6.80552 23.2575C6.80552 23.2085 6.76567 23.1687 6.71664 23.1687C6.66761 23.1687 6.62777 23.2085 6.62777 23.2575C6.62777 23.6865 6.32974 24.1346 6.06686 24.5298C5.84355 24.8655 5.6508 25.1555 5.6508 25.4039V25.6618C5.51674 25.6632 5.41165 25.665 5.34312 25.6669C5.32727 25.4998 5.31818 25.0704 5.55368 24.5681ZM9.07595 24.0055C8.9732 24.291 8.66908 24.3877 8.44361 24.4186C8.68801 24.2014 8.77051 24.0005 8.79367 23.927C8.88573 23.9542 8.98023 23.9802 9.07595 24.0055ZM9.24714 24.0496C9.34492 24.0742 9.44354 24.0978 9.5432 24.1207C9.45254 24.3051 9.21029 24.3956 8.94554 24.4335C9.07679 24.3502 9.18798 24.2274 9.24714 24.0496ZM11.758 26.0193C10.8577 25.7419 8.25929 25.671 6.63086 25.6605C6.68599 25.4588 6.94155 25.1939 7.3743 24.9815C7.3787 24.9823 7.38273 24.9842 7.38733 24.9842C9.81826 24.9929 11.5103 25.3534 11.898 25.4443L11.758 26.0193ZM11.6434 26.49L11.2883 26.0939C11.4576 26.1233 11.6018 26.1561 11.7159 26.1926L11.6434 26.49ZM7.04927 26.5527L7.22195 26.7152C7.1688 26.7149 7.11639 26.7143 7.06202 26.714C7.05733 26.6619 7.05339 26.6067 7.04927 26.5527ZM11.5372 26.9263L11.0859 26.4318C11.0562 26.3992 11.0071 26.3932 10.971 26.418L10.4411 26.7727L10.0424 26.3357C10.0116 26.3018 9.95926 26.2973 9.92279 26.3251L9.44382 26.6924L9.0092 26.2633C8.97657 26.231 8.92445 26.229 8.88957 26.2585L8.42167 26.652L7.9833 26.2453C7.95011 26.2145 7.89864 26.2139 7.86433 26.2436L7.40702 26.6455L7.03099 26.2917C7.02442 26.1861 7.01861 26.0774 7.01355 25.9655L7.3502 26.2961C7.38302 26.3284 7.43523 26.3298 7.4703 26.3L7.9412 25.8946L8.37142 26.3183C8.40386 26.3503 8.45551 26.3523 8.49067 26.3233L8.96307 25.9296L9.41635 26.3566C9.44832 26.3866 9.49707 26.3891 9.53129 26.3625L10.0054 25.9988L10.402 26.454C10.432 26.4884 10.4833 26.4943 10.5206 26.4678L11.048 26.0921L11.5722 26.6769C11.5785 26.6838 11.5864 26.6881 11.5941 26.6926L11.5372 26.9263ZM11.2706 26.8977C11.1293 26.8798 10.9318 26.8587 10.6644 26.837L11.0064 26.6081L11.2706 26.8977ZM10.2312 26.8061C10.0529 26.7948 9.85295 26.784 9.62963 26.7737L9.9662 26.5157L10.2312 26.8061ZM9.25773 26.7582C9.05448 26.7505 8.83351 26.7435 8.59614 26.7375L8.94207 26.4465L9.25773 26.7582ZM8.24401 26.7293C8.03926 26.7251 7.82167 26.7216 7.59283 26.7189L7.92161 26.4301L8.24401 26.7293ZM7.1433 25.8441C7.32761 25.8465 7.51961 25.8498 7.71601 25.854L7.4162 26.112L7.1433 25.8441ZM8.16414 25.8647C8.35501 25.87 8.54786 25.8765 8.74032 25.8837L8.43864 26.135L8.16414 25.8647ZM9.19426 25.9033C9.39807 25.9131 9.59926 25.9241 9.79435 25.9366L9.4832 26.1753L9.19426 25.9033ZM10.214 25.9675C10.4332 25.9853 10.6405 26.0055 10.8314 26.0282L10.4831 26.2764L10.214 25.9675ZM5.50136 25.8414C5.76827 25.8375 6.24668 25.8353 6.83027 25.8405C6.86355 26.6847 6.93733 27.3628 7.04936 27.8609H5.85864L5.50136 25.8414ZM11.3097 27.8609H7.23114C7.1688 27.5939 7.11827 27.2694 7.07955 26.8918C10.0505 26.9114 11.1791 27.0588 11.4612 27.1049C11.4696 27.1131 11.4788 27.1198 11.4892 27.1239L11.3097 27.8609ZM11.94 25.2718C11.5644 25.1839 10.0142 24.855 7.77798 24.812C7.93558 24.7492 8.06992 24.6812 8.18308 24.6109C8.23595 24.6176 8.39167 24.6347 8.58686 24.6347C8.99214 24.6347 9.56148 24.558 9.7187 24.16C10.6418 24.362 11.5879 24.4947 12.1133 24.5603L11.94 25.2718Z" fill="#464655"/>
<path d="M6.2431 19.5569C6.2431 19.3937 6.11035 19.2609 5.94704 19.2609C5.78382 19.2609 5.65098 19.3936 5.65098 19.5569C5.65098 19.7201 5.78373 19.853 5.94704 19.853C6.11026 19.853 6.2431 19.7201 6.2431 19.5569ZM5.94704 19.6753C5.8817 19.6753 5.82863 19.6223 5.82863 19.5569C5.82863 19.4916 5.8817 19.4385 5.94704 19.4385C6.01238 19.4385 6.06545 19.4916 6.06545 19.5569C6.06545 19.6223 6.01238 19.6753 5.94704 19.6753Z" fill="#464655"/>
<path d="M8.42899 25.0614C8.26839 25.0614 8.13789 25.192 8.13789 25.3525C8.13789 25.513 8.26849 25.6436 8.42899 25.6436C8.58949 25.6436 8.72017 25.513 8.72017 25.3525C8.72017 25.192 8.58949 25.0614 8.42899 25.0614ZM8.42899 25.466C8.36636 25.466 8.31555 25.4151 8.31555 25.3526C8.31555 25.2901 8.36646 25.2392 8.42899 25.2392C8.49161 25.2392 8.54261 25.2901 8.54261 25.3526C8.54261 25.4151 8.49152 25.466 8.42899 25.466Z" fill="#464655"/>
<path d="M9.29906 25.111C9.13847 25.111 9.00787 25.2417 9.00787 25.4022C9.00787 25.5627 9.13856 25.6933 9.29906 25.6933C9.45965 25.6933 9.59015 25.5627 9.59015 25.4022C9.59015 25.2417 9.45965 25.111 9.29906 25.111ZM9.29906 25.5157C9.23644 25.5157 9.18544 25.4647 9.18544 25.4022C9.18544 25.3396 9.23644 25.2886 9.29906 25.2886C9.36169 25.2886 9.4125 25.3396 9.4125 25.4022C9.41259 25.4647 9.36169 25.5157 9.29906 25.5157Z" fill="#464655"/>
</svg>
