<svg width="1000" height="1000" viewBox="0 0 1000 1000" fill="none" xmlns="http://www.w3.org/2000/svg">
    <rect width="1000" height="1000" rx="128" fill="#242532"/>
    <path d="M254 597.622V553.855L382.915 350.154H451.453V552.372H490.32V597.622H451.453V654H398.937V597.622H254ZM399.531 552.372V412.466H397.157L310.373 549.998V552.372H399.531Z" fill="#FDFDFD"/>
    <path d="M537.718 654V614.239L643.194 510.83C658.227 495.599 669.551 482.642 677.166 471.96C684.781 461.277 688.589 449.606 688.589 436.946C688.589 422.604 683.792 411.329 674.199 403.119C664.606 394.811 652.589 390.657 638.15 390.657C623.019 390.657 610.903 395.207 601.805 404.306C592.805 413.307 588.305 425.572 588.305 441.1H535.938C535.938 421.813 540.339 405.048 549.141 390.805C557.943 376.563 570.058 365.534 585.486 357.721C601.013 349.907 618.815 346 638.892 346C659.265 346 677.117 349.808 692.446 357.424C707.874 365.04 719.891 375.475 728.495 388.728C737.099 401.982 741.401 417.115 741.401 434.127C741.401 445.502 739.225 456.678 734.874 467.657C730.522 478.636 722.858 490.851 711.88 504.303C701.001 517.655 685.721 533.777 666.04 552.669L613.673 605.931V608.008H746V654H537.718Z" fill="#FDFDFD"/>
</svg>
